<?xml version="1.0" encoding="UTF-8" standalone="no"?>
<!DOCTYPE svg PUBLIC "-//W3C//DTD SVG 1.1//EN"
 "http://www.w3.org/Graphics/SVG/1.1/DTD/svg11.dtd">
<!-- Generated by graphviz version 2.43.0 (0)
 -->
<!-- Title: src/ApbsFieldResult.h Pages: 1 -->
<svg width="869pt" height="302pt"
 viewBox="0.00 0.00 869.36 302.00" xmlns="http://www.w3.org/2000/svg" xmlns:xlink="http://www.w3.org/1999/xlink">
<g id="graph0" class="graph" transform="scale(1 1) rotate(0) translate(4 298)">
<title>src/ApbsFieldResult.h</title>
<!-- Node1 -->
<g id="Node000001" class="node">
<title>Node1</title>
<g id="a_Node000001"><a xlink:title=" ">
<polygon fill="#999999" stroke="#666666" points="660.66,-294 539.66,-294 539.66,-275 660.66,-275 660.66,-294"/>
<text text-anchor="middle" x="600.16" y="-282" font-family="Helvetica,sans-Serif" font-size="10.00">src/ApbsFieldResult.h</text>
</a>
</g>
</g>
<!-- Node2 -->
<g id="Node000002" class="node">
<title>Node2</title>
<g id="a_Node000002"><a xlink:href="ConformationResult_8h.html" target="_top" xlink:title=" ">
<polygon fill="white" stroke="#666666" points="694.66,-129 571.66,-129 571.66,-110 694.66,-110 694.66,-129"/>
<text text-anchor="middle" x="633.16" y="-117" font-family="Helvetica,sans-Serif" font-size="10.00">ConformationResult.h</text>
</a>
</g>
</g>
<!-- Node1&#45;&gt;Node2 -->
<g id="edge1_Node000001_Node000002" class="edge">
<title>Node1&#45;&gt;Node2</title>
<g id="a_edge1_Node000001_Node000002"><a xlink:title=" ">
<path fill="none" stroke="#63b8ff" d="M601.93,-274.74C607.1,-249.2 622.24,-174.43 629.37,-139.23"/>
<polygon fill="#63b8ff" stroke="#63b8ff" points="632.82,-139.8 631.37,-129.31 625.96,-138.41 632.82,-139.8"/>
</a>
</g>
</g>
<!-- Node7 -->
<g id="Node000007" class="node">
<title>Node7</title>
<g id="a_Node000007"><a xlink:href="ChargeAssignmentResult_8h.html" target="_top" xlink:title=" ">
<polygon fill="white" stroke="#666666" points="776.66,-239 627.66,-239 627.66,-220 776.66,-220 776.66,-239"/>
<text text-anchor="middle" x="702.16" y="-227" font-family="Helvetica,sans-Serif" font-size="10.00">ChargeAssignmentResult.h</text>
</a>
</g>
</g>
<!-- Node1&#45;&gt;Node7 -->
<g id="edge6_Node000001_Node000007" class="edge">
<title>Node1&#45;&gt;Node7</title>
<g id="a_edge6_Node000001_Node000007"><a xlink:title=" ">
<path fill="none" stroke="#63b8ff" d="M616.55,-274.98C632.73,-266.57 657.73,-253.59 676.54,-243.81"/>
<polygon fill="#63b8ff" stroke="#63b8ff" points="678.21,-246.89 685.47,-239.17 674.98,-240.68 678.21,-246.89"/>
</a>
</g>
</g>
<!-- Node8 -->
<g id="Node000008" class="node">
<title>Node8</title>
<g id="a_Node000008"><a xlink:href="ProteinConformation_8h.html" target="_top" xlink:title=" ">
<polygon fill="white" stroke="#666666" points="553.66,-184 426.66,-184 426.66,-165 553.66,-165 553.66,-184"/>
<text text-anchor="middle" x="490.16" y="-172" font-family="Helvetica,sans-Serif" font-size="10.00">ProteinConformation.h</text>
</a>
</g>
</g>
<!-- Node1&#45;&gt;Node8 -->
<g id="edge39_Node000001_Node000008" class="edge">
<title>Node1&#45;&gt;Node8</title>
<g id="a_edge39_Node000001_Node000008"><a xlink:title=" ">
<path fill="none" stroke="#63b8ff" d="M591.16,-274.66C572.53,-256.38 529.56,-214.18 506.11,-191.17"/>
<polygon fill="#63b8ff" stroke="#63b8ff" points="508.56,-188.67 498.98,-184.16 503.66,-193.66 508.56,-188.67"/>
</a>
</g>
</g>
<!-- Node3 -->
<g id="Node000003" class="node">
<title>Node3</title>
<g id="a_Node000003"><a xlink:title=" ">
<polygon fill="#e0e0e0" stroke="#999999" points="565.16,-19 521.16,-19 521.16,0 565.16,0 565.16,-19"/>
<text text-anchor="middle" x="543.16" y="-7" font-family="Helvetica,sans-Serif" font-size="10.00">string</text>
</a>
</g>
</g>
<!-- Node2&#45;&gt;Node3 -->
<g id="edge2_Node000002_Node000003" class="edge">
<title>Node2&#45;&gt;Node3</title>
<g id="a_edge2_Node000002_Node000003"><a xlink:title=" ">
<path fill="none" stroke="#63b8ff" d="M625.79,-109.66C610.75,-91.61 576.31,-50.28 556.97,-27.08"/>
<polygon fill="#63b8ff" stroke="#63b8ff" points="559.46,-24.6 550.37,-19.16 554.09,-29.08 559.46,-24.6"/>
</a>
</g>
</g>
<!-- Node4 -->
<g id="Node000004" class="node">
<title>Node4</title>
<g id="a_Node000004"><a xlink:title=" ">
<polygon fill="#e0e0e0" stroke="#999999" points="344.66,-74 297.66,-74 297.66,-55 344.66,-55 344.66,-74"/>
<text text-anchor="middle" x="321.16" y="-62" font-family="Helvetica,sans-Serif" font-size="10.00">vector</text>
</a>
</g>
</g>
<!-- Node2&#45;&gt;Node4 -->
<g id="edge3_Node000002_Node000004" class="edge">
<title>Node2&#45;&gt;Node4</title>
<g id="a_edge3_Node000002_Node000004"><a xlink:title=" ">
<path fill="none" stroke="#63b8ff" d="M583.03,-109.98C518.95,-99.1 409.73,-80.55 354.81,-71.22"/>
<polygon fill="#63b8ff" stroke="#63b8ff" points="355.33,-67.76 344.89,-69.53 354.16,-74.66 355.33,-67.76"/>
</a>
</g>
</g>
<!-- Node5 -->
<g id="Node000005" class="node">
<title>Node5</title>
<g id="a_Node000005"><a xlink:title=" ">
<polygon fill="#e0e0e0" stroke="#999999" points="728.66,-74 663.66,-74 663.66,-55 728.66,-55 728.66,-74"/>
<text text-anchor="middle" x="696.16" y="-62" font-family="Helvetica,sans-Serif" font-size="10.00">typeindex</text>
</a>
</g>
</g>
<!-- Node2&#45;&gt;Node5 -->
<g id="edge4_Node000002_Node000005" class="edge">
<title>Node2&#45;&gt;Node5</title>
<g id="a_edge4_Node000002_Node000005"><a xlink:title=" ">
<path fill="none" stroke="#63b8ff" d="M643.28,-109.98C652.59,-102.15 666.63,-90.34 677.9,-80.86"/>
<polygon fill="#63b8ff" stroke="#63b8ff" points="680.45,-83.29 685.85,-74.17 675.95,-77.93 680.45,-83.29"/>
</a>
</g>
</g>
<!-- Node6 -->
<g id="Node000006" class="node">
<title>Node6</title>
<g id="a_Node000006"><a xlink:title=" ">
<polygon fill="#e0e0e0" stroke="#999999" points="515.16,-74 457.16,-74 457.16,-55 515.16,-55 515.16,-74"/>
<text text-anchor="middle" x="486.16" y="-62" font-family="Helvetica,sans-Serif" font-size="10.00">memory</text>
</a>
</g>
</g>
<!-- Node2&#45;&gt;Node6 -->
<g id="edge5_Node000002_Node000006" class="edge">
<title>Node2&#45;&gt;Node6</title>
<g id="a_edge5_Node000002_Node000006"><a xlink:title=" ">
<path fill="none" stroke="#63b8ff" d="M609.54,-109.98C585.25,-101.23 547.21,-87.51 519.78,-77.62"/>
<polygon fill="#63b8ff" stroke="#63b8ff" points="520.8,-74.27 510.21,-74.17 518.43,-80.85 520.8,-74.27"/>
</a>
</g>
</g>
<!-- Node7&#45;&gt;Node2 -->
<g id="edge7_Node000007_Node000002" class="edge">
<title>Node7&#45;&gt;Node2</title>
<g id="a_edge7_Node000007_Node000002"><a xlink:title=" ">
<path fill="none" stroke="#63b8ff" d="M696.51,-219.66C685.08,-201.77 659.04,-161 644.14,-137.69"/>
<polygon fill="#63b8ff" stroke="#63b8ff" points="647.02,-135.7 638.69,-129.16 641.12,-139.47 647.02,-135.7"/>
</a>
</g>
</g>
<!-- Node7&#45;&gt;Node3 -->
<g id="edge38_Node000007_Node000003" class="edge">
<title>Node7&#45;&gt;Node3</title>
<g id="a_edge38_Node000007_Node000003"><a xlink:title=" ">
<path fill="none" stroke="#63b8ff" d="M733.19,-219.91C786.9,-203.39 888.32,-164.01 854.16,-110 823.61,-61.71 648.33,-27.78 575.2,-15.53"/>
<polygon fill="#63b8ff" stroke="#63b8ff" points="575.61,-12.05 565.18,-13.88 574.48,-18.96 575.61,-12.05"/>
</a>
</g>
</g>
<!-- Node7&#45;&gt;Node8 -->
<g id="edge8_Node000007_Node000008" class="edge">
<title>Node7&#45;&gt;Node8</title>
<g id="a_edge8_Node000007_Node000008"><a xlink:title=" ">
<path fill="none" stroke="#63b8ff" d="M668.1,-219.98C631.73,-210.89 573.99,-196.46 534.19,-186.51"/>
<polygon fill="#63b8ff" stroke="#63b8ff" points="535.04,-183.11 524.49,-184.08 533.34,-189.9 535.04,-183.11"/>
</a>
</g>
</g>
<!-- Node18 -->
<g id="Node000018" class="node">
<title>Node18</title>
<g id="a_Node000018"><a xlink:title=" ">
<polygon fill="#e0e0e0" stroke="#999999" points="844.66,-129 751.66,-129 751.66,-110 844.66,-110 844.66,-129"/>
<text text-anchor="middle" x="798.16" y="-117" font-family="Helvetica,sans-Serif" font-size="10.00">unordered_map</text>
</a>
</g>
</g>
<!-- Node7&#45;&gt;Node18 -->
<g id="edge37_Node000007_Node000018" class="edge">
<title>Node7&#45;&gt;Node18</title>
<g id="a_edge37_Node000007_Node000018"><a xlink:title=" ">
<path fill="none" stroke="#63b8ff" d="M710.01,-219.66C726.13,-201.54 763.12,-159.91 783.7,-136.77"/>
<polygon fill="#63b8ff" stroke="#63b8ff" points="786.43,-138.96 790.46,-129.16 781.2,-134.31 786.43,-138.96"/>
</a>
</g>
</g>
<!-- Node8&#45;&gt;Node2 -->
<g id="edge18_Node000008_Node000002" class="edge">
<title>Node8&#45;&gt;Node2</title>
<g id="a_edge18_Node000008_Node000002"><a xlink:title=" ">
<path fill="none" stroke="#63b8ff" d="M513.13,-164.98C536.66,-156.27 573.44,-142.63 600.1,-132.75"/>
<polygon fill="#63b8ff" stroke="#63b8ff" points="601.6,-135.93 609.76,-129.17 599.17,-129.36 601.6,-135.93"/>
</a>
</g>
</g>
<!-- Node8&#45;&gt;Node3 -->
<g id="edge35_Node000008_Node000003" class="edge">
<title>Node8&#45;&gt;Node3</title>
<g id="a_edge35_Node000008_Node000003"><a xlink:title=" ">
<path fill="none" stroke="#63b8ff" d="M493.27,-164.75C499.4,-147.48 513.35,-107.73 524.16,-74 528.99,-58.91 534.12,-41.69 537.83,-28.99"/>
<polygon fill="#63b8ff" stroke="#63b8ff" points="541.26,-29.74 540.68,-19.16 534.53,-27.79 541.26,-29.74"/>
</a>
</g>
</g>
<!-- Node8&#45;&gt;Node4 -->
<g id="edge30_Node000008_Node000004" class="edge">
<title>Node8&#45;&gt;Node4</title>
<g id="a_edge30_Node000008_Node000004"><a xlink:title=" ">
<path fill="none" stroke="#63b8ff" d="M460.56,-165C437.88,-157.64 406.46,-145.56 382.16,-129 363.12,-116.03 345.35,-96.32 333.96,-82.3"/>
<polygon fill="#63b8ff" stroke="#63b8ff" points="336.68,-80.1 327.74,-74.42 331.19,-84.44 336.68,-80.1"/>
</a>
</g>
</g>
<!-- Node8&#45;&gt;Node5 -->
<g id="edge33_Node000008_Node000005" class="edge">
<title>Node8&#45;&gt;Node5</title>
<g id="a_edge33_Node000008_Node000005"><a xlink:title=" ">
<path fill="none" stroke="#63b8ff" d="M553.79,-168.97C609.86,-163.5 685.45,-152 704.16,-129 714.33,-116.5 710.41,-97.78 705.1,-83.9"/>
<polygon fill="#63b8ff" stroke="#63b8ff" points="708.17,-82.2 700.98,-74.42 701.75,-84.98 708.17,-82.2"/>
</a>
</g>
</g>
<!-- Node8&#45;&gt;Node6 -->
<g id="edge34_Node000008_Node000006" class="edge">
<title>Node8&#45;&gt;Node6</title>
<g id="a_edge34_Node000008_Node000006"><a xlink:title=" ">
<path fill="none" stroke="#63b8ff" d="M489.83,-164.66C489.18,-147.17 487.72,-107.8 486.85,-84.27"/>
<polygon fill="#63b8ff" stroke="#63b8ff" points="490.35,-84.02 486.48,-74.16 483.35,-84.28 490.35,-84.02"/>
</a>
</g>
</g>
<!-- Node9 -->
<g id="Node000009" class="node">
<title>Node9</title>
<g id="a_Node000009"><a xlink:href="Types_8h.html" target="_top" xlink:title=" ">
<polygon fill="white" stroke="#666666" points="157.66,-74 104.66,-74 104.66,-55 157.66,-55 157.66,-74"/>
<text text-anchor="middle" x="131.16" y="-62" font-family="Helvetica,sans-Serif" font-size="10.00">Types.h</text>
</a>
</g>
</g>
<!-- Node8&#45;&gt;Node9 -->
<g id="edge9_Node000008_Node000009" class="edge">
<title>Node8&#45;&gt;Node9</title>
<g id="a_edge9_Node000008_Node000009"><a xlink:title=" ">
<path fill="none" stroke="#63b8ff" d="M426.63,-172.31C301.95,-169.32 34.89,-159.41 7.16,-129 -21.63,-97.43 48.34,-79.2 94.5,-70.92"/>
<polygon fill="#63b8ff" stroke="#63b8ff" points="95.24,-74.35 104.51,-69.22 94.06,-67.45 95.24,-74.35"/>
</a>
</g>
</g>
<!-- Node13 -->
<g id="Node000013" class="node">
<title>Node13</title>
<g id="a_Node000013"><a xlink:href="ConformationAtom_8h.html" target="_top" xlink:title=" ">
<polygon fill="white" stroke="#666666" points="135.66,-129 16.66,-129 16.66,-110 135.66,-110 135.66,-129"/>
<text text-anchor="middle" x="76.16" y="-117" font-family="Helvetica,sans-Serif" font-size="10.00">ConformationAtom.h</text>
</a>
</g>
</g>
<!-- Node8&#45;&gt;Node13 -->
<g id="edge14_Node000008_Node000013" class="edge">
<title>Node8&#45;&gt;Node13</title>
<g id="a_edge14_Node000008_Node000013"><a xlink:title=" ">
<path fill="none" stroke="#63b8ff" d="M426.38,-165.33C350.62,-155.64 224.66,-139.51 146.24,-129.47"/>
<polygon fill="#63b8ff" stroke="#63b8ff" points="146.34,-125.96 135.98,-128.16 145.45,-132.9 146.34,-125.96"/>
</a>
</g>
</g>
<!-- Node14 -->
<g id="Node000014" class="node">
<title>Node14</title>
<g id="a_Node000014"><a xlink:href="GeometryChoice_8h.html" target="_top" xlink:title=" ">
<polygon fill="white" stroke="#666666" points="260.66,-129 153.66,-129 153.66,-110 260.66,-110 260.66,-129"/>
<text text-anchor="middle" x="207.16" y="-117" font-family="Helvetica,sans-Serif" font-size="10.00">GeometryChoice.h</text>
</a>
</g>
</g>
<!-- Node8&#45;&gt;Node14 -->
<g id="edge19_Node000008_Node000014" class="edge">
<title>Node8&#45;&gt;Node14</title>
<g id="a_edge19_Node000008_Node000014"><a xlink:title=" ">
<path fill="none" stroke="#63b8ff" d="M444.69,-164.98C395.22,-155.72 316.11,-140.9 262.93,-130.94"/>
<polygon fill="#63b8ff" stroke="#63b8ff" points="263.46,-127.48 252.98,-129.08 262.17,-134.36 263.46,-127.48"/>
</a>
</g>
</g>
<!-- Node16 -->
<g id="Node000016" class="node">
<title>Node16</title>
<g id="a_Node000016"><a xlink:href="Ring_8h.html" target="_top" xlink:title=" ">
<polygon fill="white" stroke="#666666" points="438.66,-129 391.66,-129 391.66,-110 438.66,-110 438.66,-129"/>
<text text-anchor="middle" x="415.16" y="-117" font-family="Helvetica,sans-Serif" font-size="10.00">Ring.h</text>
</a>
</g>
</g>
<!-- Node8&#45;&gt;Node16 -->
<g id="edge24_Node000008_Node000016" class="edge">
<title>Node8&#45;&gt;Node16</title>
<g id="a_edge24_Node000008_Node000016"><a xlink:title=" ">
<path fill="none" stroke="#63b8ff" d="M478.11,-164.98C466.69,-156.92 449.33,-144.65 435.72,-135.03"/>
<polygon fill="#63b8ff" stroke="#63b8ff" points="437.61,-132.08 427.43,-129.17 433.57,-137.8 437.61,-132.08"/>
</a>
</g>
</g>
<!-- Node17 -->
<g id="Node000017" class="node">
<title>Node17</title>
<g id="a_Node000017"><a xlink:title=" ">
<polygon fill="#e0e0e0" stroke="#999999" points="439.16,-74 401.16,-74 401.16,-55 439.16,-55 439.16,-74"/>
<text text-anchor="middle" x="420.16" y="-62" font-family="Helvetica,sans-Serif" font-size="10.00">map</text>
</a>
</g>
</g>
<!-- Node8&#45;&gt;Node17 -->
<g id="edge31_Node000008_Node000017" class="edge">
<title>Node8&#45;&gt;Node17</title>
<g id="a_edge31_Node000008_Node000017"><a xlink:title=" ">
<path fill="none" stroke="#63b8ff" d="M484.43,-164.66C472.84,-146.77 446.41,-106 431.3,-82.69"/>
<polygon fill="#63b8ff" stroke="#63b8ff" points="434.15,-80.65 425.77,-74.16 428.27,-84.45 434.15,-80.65"/>
</a>
</g>
</g>
<!-- Node8&#45;&gt;Node18 -->
<g id="edge32_Node000008_Node000018" class="edge">
<title>Node8&#45;&gt;Node18</title>
<g id="a_edge32_Node000008_Node000018"><a xlink:title=" ">
<path fill="none" stroke="#63b8ff" d="M539.64,-164.98C594.75,-155.5 683.65,-140.2 741.5,-130.25"/>
<polygon fill="#63b8ff" stroke="#63b8ff" points="742.31,-133.66 751.57,-128.52 741.12,-126.76 742.31,-133.66"/>
</a>
</g>
</g>
<!-- Node19 -->
<g id="Node000019" class="node">
<title>Node19</title>
<g id="a_Node000019"><a xlink:title=" ">
<polygon fill="#e0e0e0" stroke="#999999" points="335.16,-129 279.16,-129 279.16,-110 335.16,-110 335.16,-129"/>
<text text-anchor="middle" x="307.16" y="-117" font-family="Helvetica,sans-Serif" font-size="10.00">sstream</text>
</a>
</g>
</g>
<!-- Node8&#45;&gt;Node19 -->
<g id="edge36_Node000008_Node000019" class="edge">
<title>Node8&#45;&gt;Node19</title>
<g id="a_edge36_Node000008_Node000019"><a xlink:title=" ">
<path fill="none" stroke="#63b8ff" d="M460.76,-164.98C429.31,-155.88 379.33,-141.4 344.97,-131.45"/>
<polygon fill="#63b8ff" stroke="#63b8ff" points="345.86,-128.07 335.29,-128.65 343.92,-134.79 345.86,-128.07"/>
</a>
</g>
</g>
<!-- Node9&#45;&gt;Node3 -->
<g id="edge13_Node000009_Node000003" class="edge">
<title>Node9&#45;&gt;Node3</title>
<g id="a_edge13_Node000009_Node000003"><a xlink:title=" ">
<path fill="none" stroke="#63b8ff" d="M157.84,-56.67C160.64,-56.06 163.45,-55.49 166.16,-55 292.74,-32.25 445.39,-18.32 510.83,-12.99"/>
<polygon fill="#63b8ff" stroke="#63b8ff" points="511.24,-16.47 520.92,-12.18 510.68,-9.49 511.24,-16.47"/>
</a>
</g>
</g>
<!-- Node10 -->
<g id="Node000010" class="node">
<title>Node10</title>
<g id="a_Node000010"><a xlink:title=" ">
<polygon fill="#e0e0e0" stroke="#999999" points="334.66,-19 257.66,-19 257.66,0 334.66,0 334.66,-19"/>
<text text-anchor="middle" x="296.16" y="-7" font-family="Helvetica,sans-Serif" font-size="10.00">Eigen/Dense</text>
</a>
</g>
</g>
<!-- Node9&#45;&gt;Node10 -->
<g id="edge10_Node000009_Node000010" class="edge">
<title>Node9&#45;&gt;Node10</title>
<g id="a_edge10_Node000009_Node000010"><a xlink:title=" ">
<path fill="none" stroke="#63b8ff" d="M157.67,-54.98C185.37,-46.09 229.02,-32.07 259.9,-22.15"/>
<polygon fill="#63b8ff" stroke="#63b8ff" points="260.99,-25.47 269.44,-19.08 258.85,-18.81 260.99,-25.47"/>
</a>
</g>
</g>
<!-- Node11 -->
<g id="Node000011" class="node">
<title>Node11</title>
<g id="a_Node000011"><a xlink:title=" ">
<polygon fill="#e0e0e0" stroke="#999999" points="97.16,-19 55.16,-19 55.16,0 97.16,0 97.16,-19"/>
<text text-anchor="middle" x="76.16" y="-7" font-family="Helvetica,sans-Serif" font-size="10.00">array</text>
</a>
</g>
</g>
<!-- Node9&#45;&gt;Node11 -->
<g id="edge11_Node000009_Node000011" class="edge">
<title>Node9&#45;&gt;Node11</title>
<g id="a_edge11_Node000009_Node000011"><a xlink:title=" ">
<path fill="none" stroke="#63b8ff" d="M122.08,-54.75C114.07,-47.03 102.2,-35.6 92.54,-26.28"/>
<polygon fill="#63b8ff" stroke="#63b8ff" points="94.7,-23.51 85.07,-19.09 89.84,-28.55 94.7,-23.51"/>
</a>
</g>
</g>
<!-- Node12 -->
<g id="Node000012" class="node">
<title>Node12</title>
<g id="a_Node000012"><a xlink:title=" ">
<polygon fill="#e0e0e0" stroke="#999999" points="162.66,-19 115.66,-19 115.66,0 162.66,0 162.66,-19"/>
<text text-anchor="middle" x="139.16" y="-7" font-family="Helvetica,sans-Serif" font-size="10.00">cmath</text>
</a>
</g>
</g>
<!-- Node9&#45;&gt;Node12 -->
<g id="edge12_Node000009_Node000012" class="edge">
<title>Node9&#45;&gt;Node12</title>
<g id="a_edge12_Node000009_Node000012"><a xlink:title=" ">
<path fill="none" stroke="#63b8ff" d="M132.48,-54.75C133.53,-47.8 135.03,-37.85 136.35,-29.13"/>
<polygon fill="#63b8ff" stroke="#63b8ff" points="139.83,-29.5 137.86,-19.09 132.91,-28.45 139.83,-29.5"/>
</a>
</g>
</g>
<!-- Node13&#45;&gt;Node4 -->
<g id="edge16_Node000013_Node000004" class="edge">
<title>Node13&#45;&gt;Node4</title>
<g id="a_edge16_Node000013_Node000004"><a xlink:title=" ">
<path fill="none" stroke="#63b8ff" d="M115.52,-109.98C163.21,-99.67 242.72,-82.47 287.62,-72.76"/>
<polygon fill="#63b8ff" stroke="#63b8ff" points="288.42,-76.16 297.45,-70.63 286.94,-69.32 288.42,-76.16"/>
</a>
</g>
</g>
<!-- Node13&#45;&gt;Node9 -->
<g id="edge15_Node000013_Node000009" class="edge">
<title>Node13&#45;&gt;Node9</title>
<g id="a_edge15_Node000013_Node000009"><a xlink:title=" ">
<path fill="none" stroke="#63b8ff" d="M85.24,-109.75C93.25,-102.03 105.12,-90.6 114.78,-81.28"/>
<polygon fill="#63b8ff" stroke="#63b8ff" points="117.47,-83.55 122.24,-74.09 112.62,-78.51 117.47,-83.55"/>
</a>
</g>
</g>
<!-- Node13&#45;&gt;Node11 -->
<g id="edge17_Node000013_Node000011" class="edge">
<title>Node13&#45;&gt;Node11</title>
<g id="a_edge17_Node000013_Node000011"><a xlink:title=" ">
<path fill="none" stroke="#63b8ff" d="M76.16,-109.66C76.16,-92.17 76.16,-52.8 76.16,-29.27"/>
<polygon fill="#63b8ff" stroke="#63b8ff" points="79.66,-29.16 76.16,-19.16 72.66,-29.16 79.66,-29.16"/>
</a>
</g>
</g>
<!-- Node14&#45;&gt;Node3 -->
<g id="edge21_Node000014_Node000003" class="edge">
<title>Node14&#45;&gt;Node3</title>
<g id="a_edge21_Node000014_Node000003"><a xlink:title=" ">
<path fill="none" stroke="#63b8ff" d="M215.2,-109.88C228.79,-95.91 257.79,-68.52 288.16,-55 363.13,-21.63 460.89,-13.22 510.78,-11.15"/>
<polygon fill="#63b8ff" stroke="#63b8ff" points="511.09,-14.64 520.96,-10.78 510.84,-7.64 511.09,-14.64"/>
</a>
</g>
</g>
<!-- Node14&#45;&gt;Node4 -->
<g id="edge22_Node000014_Node000004" class="edge">
<title>Node14&#45;&gt;Node4</title>
<g id="a_edge22_Node000014_Node000004"><a xlink:title=" ">
<path fill="none" stroke="#63b8ff" d="M225.47,-109.98C243.81,-101.46 272.27,-88.23 293.39,-78.41"/>
<polygon fill="#63b8ff" stroke="#63b8ff" points="294.92,-81.56 302.51,-74.17 291.97,-75.21 294.92,-81.56"/>
</a>
</g>
</g>
<!-- Node14&#45;&gt;Node9 -->
<g id="edge20_Node000014_Node000009" class="edge">
<title>Node14&#45;&gt;Node9</title>
<g id="a_edge20_Node000014_Node000009"><a xlink:title=" ">
<path fill="none" stroke="#63b8ff" d="M194.95,-109.98C183.38,-101.92 165.78,-89.65 152,-80.03"/>
<polygon fill="#63b8ff" stroke="#63b8ff" points="153.8,-77.02 143.59,-74.17 149.79,-82.76 153.8,-77.02"/>
</a>
</g>
</g>
<!-- Node15 -->
<g id="Node000015" class="node">
<title>Node15</title>
<g id="a_Node000015"><a xlink:title=" ">
<polygon fill="#e0e0e0" stroke="#999999" points="240.66,-74 175.66,-74 175.66,-55 240.66,-55 240.66,-74"/>
<text text-anchor="middle" x="208.16" y="-62" font-family="Helvetica,sans-Serif" font-size="10.00">functional</text>
</a>
</g>
</g>
<!-- Node14&#45;&gt;Node15 -->
<g id="edge23_Node000014_Node000015" class="edge">
<title>Node14&#45;&gt;Node15</title>
<g id="a_edge23_Node000014_Node000015"><a xlink:title=" ">
<path fill="none" stroke="#63b8ff" d="M207.32,-109.75C207.45,-102.8 207.64,-92.85 207.81,-84.13"/>
<polygon fill="#63b8ff" stroke="#63b8ff" points="211.31,-84.15 208,-74.09 204.31,-84.02 211.31,-84.15"/>
</a>
</g>
</g>
<!-- Node16&#45;&gt;Node4 -->
<g id="edge27_Node000016_Node000004" class="edge">
<title>Node16&#45;&gt;Node4</title>
<g id="a_edge27_Node000016_Node000004"><a xlink:title=" ">
<path fill="none" stroke="#63b8ff" d="M400.06,-109.98C385.34,-101.69 362.73,-88.94 345.48,-79.22"/>
<polygon fill="#63b8ff" stroke="#63b8ff" points="346.97,-76.03 336.54,-74.17 343.53,-82.13 346.97,-76.03"/>
</a>
</g>
</g>
<!-- Node16&#45;&gt;Node6 -->
<g id="edge29_Node000016_Node000006" class="edge">
<title>Node16&#45;&gt;Node6</title>
<g id="a_edge29_Node000016_Node000006"><a xlink:title=" ">
<path fill="none" stroke="#63b8ff" d="M426.57,-109.98C437.27,-102 453.5,-89.88 466.32,-80.31"/>
<polygon fill="#63b8ff" stroke="#63b8ff" points="468.62,-82.96 474.54,-74.17 464.44,-77.35 468.62,-82.96"/>
</a>
</g>
</g>
<!-- Node16&#45;&gt;Node9 -->
<g id="edge25_Node000016_Node000009" class="edge">
<title>Node16&#45;&gt;Node9</title>
<g id="a_edge25_Node000016_Node000009"><a xlink:title=" ">
<path fill="none" stroke="#63b8ff" d="M391.37,-114.75C348.56,-107.89 255.5,-92.49 167.72,-74.23"/>
<polygon fill="#63b8ff" stroke="#63b8ff" points="168.38,-70.79 157.87,-72.17 166.94,-77.65 168.38,-70.79"/>
</a>
</g>
</g>
<!-- Node16&#45;&gt;Node10 -->
<g id="edge26_Node000016_Node000010" class="edge">
<title>Node16&#45;&gt;Node10</title>
<g id="a_edge26_Node000016_Node000010"><a xlink:title=" ">
<path fill="none" stroke="#63b8ff" d="M407.47,-109.92C396.08,-97.38 373.82,-73.5 353.16,-55 341.5,-44.56 327.67,-33.74 316.56,-25.38"/>
<polygon fill="#63b8ff" stroke="#63b8ff" points="318.44,-22.41 308.32,-19.25 314.26,-28.03 318.44,-22.41"/>
</a>
</g>
</g>
<!-- Node16&#45;&gt;Node17 -->
<g id="edge28_Node000016_Node000017" class="edge">
<title>Node16&#45;&gt;Node17</title>
<g id="a_edge28_Node000016_Node000017"><a xlink:title=" ">
<path fill="none" stroke="#63b8ff" d="M415.98,-109.75C416.64,-102.8 417.58,-92.85 418.4,-84.13"/>
<polygon fill="#63b8ff" stroke="#63b8ff" points="421.89,-84.37 419.35,-74.09 414.92,-83.72 421.89,-84.37"/>
</a>
</g>
</g>
</g>
</svg>
