<?xml version="1.0" encoding="UTF-8" standalone="no"?>
<!DOCTYPE svg PUBLIC "-//W3C//DTD SVG 1.1//EN"
 "http://www.w3.org/Graphics/SVG/1.1/DTD/svg11.dtd">
<!-- Generated by graphviz version 2.43.0 (0)
 -->
<!-- Title: src/ChargeAssignmentResult.h Pages: 1 -->
<svg width="891pt" height="247pt"
 viewBox="0.00 0.00 890.97 247.00" xmlns="http://www.w3.org/2000/svg" xmlns:xlink="http://www.w3.org/1999/xlink">
<g id="graph0" class="graph" transform="scale(1 1) rotate(0) translate(4 243)">
<title>src/ChargeAssignmentResult.h</title>
<!-- Node1 -->
<g id="Node000001" class="node">
<title>Node1</title>
<g id="a_Node000001"><a xlink:title=" ">
<polygon fill="#999999" stroke="#666666" points="841.5,-239 675.5,-239 675.5,-220 841.5,-220 841.5,-239"/>
<text text-anchor="middle" x="758.5" y="-227" font-family="Helvetica,sans-Serif" font-size="10.00">src/ChargeAssignmentResult.h</text>
</a>
</g>
</g>
<!-- Node2 -->
<g id="Node000002" class="node">
<title>Node2</title>
<g id="a_Node000002"><a xlink:href="ConformationResult_8h.html" target="_top" xlink:title=" ">
<polygon fill="white" stroke="#666666" points="717,-129 594,-129 594,-110 717,-110 717,-129"/>
<text text-anchor="middle" x="655.5" y="-117" font-family="Helvetica,sans-Serif" font-size="10.00">ConformationResult.h</text>
</a>
</g>
</g>
<!-- Node1&#45;&gt;Node2 -->
<g id="edge1_Node000001_Node000002" class="edge">
<title>Node1&#45;&gt;Node2</title>
<g id="a_edge1_Node000001_Node000002"><a xlink:title=" ">
<path fill="none" stroke="#63b8ff" d="M750.07,-219.66C732.71,-201.46 692.74,-159.55 670.73,-136.47"/>
<polygon fill="#63b8ff" stroke="#63b8ff" points="673.19,-133.98 663.76,-129.16 668.13,-138.81 673.19,-133.98"/>
</a>
</g>
</g>
<!-- Node3 -->
<g id="Node000003" class="node">
<title>Node3</title>
<g id="a_Node000003"><a xlink:title=" ">
<polygon fill="#e0e0e0" stroke="#999999" points="479.5,-19 435.5,-19 435.5,0 479.5,0 479.5,-19"/>
<text text-anchor="middle" x="457.5" y="-7" font-family="Helvetica,sans-Serif" font-size="10.00">string</text>
</a>
</g>
</g>
<!-- Node1&#45;&gt;Node3 -->
<g id="edge36_Node000001_Node000003" class="edge">
<title>Node1&#45;&gt;Node3</title>
<g id="a_edge36_Node000001_Node000003"><a xlink:title=" ">
<path fill="none" stroke="#63b8ff" d="M779.42,-220C821.08,-201.81 907.74,-156.95 875.5,-110 831.32,-45.67 580.1,-20.03 489.82,-12.81"/>
<polygon fill="#63b8ff" stroke="#63b8ff" points="489.87,-9.3 479.63,-12.02 489.33,-16.28 489.87,-9.3"/>
</a>
</g>
</g>
<!-- Node7 -->
<g id="Node000007" class="node">
<title>Node7</title>
<g id="a_Node000007"><a xlink:href="ProteinConformation_8h.html" target="_top" xlink:title=" ">
<polygon fill="white" stroke="#666666" points="517,-184 390,-184 390,-165 517,-165 517,-184"/>
<text text-anchor="middle" x="453.5" y="-172" font-family="Helvetica,sans-Serif" font-size="10.00">ProteinConformation.h</text>
</a>
</g>
</g>
<!-- Node1&#45;&gt;Node7 -->
<g id="edge6_Node000001_Node000007" class="edge">
<title>Node1&#45;&gt;Node7</title>
<g id="a_edge6_Node000001_Node000007"><a xlink:title=" ">
<path fill="none" stroke="#63b8ff" d="M709.5,-219.98C655.88,-210.67 569.96,-195.74 512.64,-185.78"/>
<polygon fill="#63b8ff" stroke="#63b8ff" points="513.09,-182.3 502.63,-184.04 511.89,-189.2 513.09,-182.3"/>
</a>
</g>
</g>
<!-- Node17 -->
<g id="Node000017" class="node">
<title>Node17</title>
<g id="a_Node000017"><a xlink:title=" ">
<polygon fill="#e0e0e0" stroke="#999999" points="867,-129 774,-129 774,-110 867,-110 867,-129"/>
<text text-anchor="middle" x="820.5" y="-117" font-family="Helvetica,sans-Serif" font-size="10.00">unordered_map</text>
</a>
</g>
</g>
<!-- Node1&#45;&gt;Node17 -->
<g id="edge35_Node000001_Node000017" class="edge">
<title>Node1&#45;&gt;Node17</title>
<g id="a_edge35_Node000001_Node000017"><a xlink:title=" ">
<path fill="none" stroke="#63b8ff" d="M763.57,-219.66C773.8,-201.85 797.04,-161.37 810.45,-138.01"/>
<polygon fill="#63b8ff" stroke="#63b8ff" points="813.59,-139.57 815.53,-129.16 807.52,-136.09 813.59,-139.57"/>
</a>
</g>
</g>
<!-- Node2&#45;&gt;Node3 -->
<g id="edge2_Node000002_Node000003" class="edge">
<title>Node2&#45;&gt;Node3</title>
<g id="a_edge2_Node000002_Node000003"><a xlink:title=" ">
<path fill="none" stroke="#63b8ff" d="M642.77,-110C623.59,-97.33 585.95,-73.07 552.5,-55 530.94,-43.35 505.8,-31.66 486.8,-23.18"/>
<polygon fill="#63b8ff" stroke="#63b8ff" points="488.04,-19.9 477.48,-19.06 485.21,-26.3 488.04,-19.9"/>
</a>
</g>
</g>
<!-- Node4 -->
<g id="Node000004" class="node">
<title>Node4</title>
<g id="a_Node000004"><a xlink:title=" ">
<polygon fill="#e0e0e0" stroke="#999999" points="335,-74 288,-74 288,-55 335,-55 335,-74"/>
<text text-anchor="middle" x="311.5" y="-62" font-family="Helvetica,sans-Serif" font-size="10.00">vector</text>
</a>
</g>
</g>
<!-- Node2&#45;&gt;Node4 -->
<g id="edge3_Node000002_Node000004" class="edge">
<title>Node2&#45;&gt;Node4</title>
<g id="a_edge3_Node000002_Node000004"><a xlink:title=" ">
<path fill="none" stroke="#63b8ff" d="M600.23,-109.98C528.21,-98.89 404.47,-79.82 345.15,-70.68"/>
<polygon fill="#63b8ff" stroke="#63b8ff" points="345.6,-67.21 335.18,-69.15 344.53,-74.13 345.6,-67.21"/>
</a>
</g>
</g>
<!-- Node5 -->
<g id="Node000005" class="node">
<title>Node5</title>
<g id="a_Node000005"><a xlink:title=" ">
<polygon fill="#e0e0e0" stroke="#999999" points="724,-74 659,-74 659,-55 724,-55 724,-74"/>
<text text-anchor="middle" x="691.5" y="-62" font-family="Helvetica,sans-Serif" font-size="10.00">typeindex</text>
</a>
</g>
</g>
<!-- Node2&#45;&gt;Node5 -->
<g id="edge4_Node000002_Node000005" class="edge">
<title>Node2&#45;&gt;Node5</title>
<g id="a_edge4_Node000002_Node000005"><a xlink:title=" ">
<path fill="none" stroke="#63b8ff" d="M661.44,-109.75C666.48,-102.34 673.84,-91.5 680.01,-82.41"/>
<polygon fill="#63b8ff" stroke="#63b8ff" points="682.94,-84.33 685.67,-74.09 677.15,-80.39 682.94,-84.33"/>
</a>
</g>
</g>
<!-- Node6 -->
<g id="Node000006" class="node">
<title>Node6</title>
<g id="a_Node000006"><a xlink:title=" ">
<polygon fill="#e0e0e0" stroke="#999999" points="543.5,-74 485.5,-74 485.5,-55 543.5,-55 543.5,-74"/>
<text text-anchor="middle" x="514.5" y="-62" font-family="Helvetica,sans-Serif" font-size="10.00">memory</text>
</a>
</g>
</g>
<!-- Node2&#45;&gt;Node6 -->
<g id="edge5_Node000002_Node000006" class="edge">
<title>Node2&#45;&gt;Node6</title>
<g id="a_edge5_Node000002_Node000006"><a xlink:title=" ">
<path fill="none" stroke="#63b8ff" d="M632.85,-109.98C609.65,-101.27 573.38,-87.63 547.1,-77.75"/>
<polygon fill="#63b8ff" stroke="#63b8ff" points="548.16,-74.41 537.57,-74.17 545.7,-80.97 548.16,-74.41"/>
</a>
</g>
</g>
<!-- Node7&#45;&gt;Node2 -->
<g id="edge16_Node000007_Node000002" class="edge">
<title>Node7&#45;&gt;Node2</title>
<g id="a_edge16_Node000007_Node000002"><a xlink:title=" ">
<path fill="none" stroke="#63b8ff" d="M485.95,-164.98C520.46,-155.93 575.16,-141.58 613.06,-131.64"/>
<polygon fill="#63b8ff" stroke="#63b8ff" points="614.01,-135.01 622.79,-129.08 612.23,-128.23 614.01,-135.01"/>
</a>
</g>
</g>
<!-- Node7&#45;&gt;Node3 -->
<g id="edge33_Node000007_Node000003" class="edge">
<title>Node7&#45;&gt;Node3</title>
<g id="a_edge33_Node000007_Node000003"><a xlink:title=" ">
<path fill="none" stroke="#63b8ff" d="M453.72,-164.74C454.34,-139.31 456.16,-65.08 457.03,-29.69"/>
<polygon fill="#63b8ff" stroke="#63b8ff" points="460.54,-29.39 457.28,-19.31 453.54,-29.22 460.54,-29.39"/>
</a>
</g>
</g>
<!-- Node7&#45;&gt;Node4 -->
<g id="edge28_Node000007_Node000004" class="edge">
<title>Node7&#45;&gt;Node4</title>
<g id="a_edge28_Node000007_Node000004"><a xlink:title=" ">
<path fill="none" stroke="#63b8ff" d="M398.36,-164.98C374.62,-158.7 348.28,-147.81 330.5,-129 319.02,-116.86 314.45,-98.06 312.65,-84.07"/>
<polygon fill="#63b8ff" stroke="#63b8ff" points="316.13,-83.72 311.71,-74.09 309.16,-84.37 316.13,-83.72"/>
</a>
</g>
</g>
<!-- Node7&#45;&gt;Node5 -->
<g id="edge31_Node000007_Node000005" class="edge">
<title>Node7&#45;&gt;Node5</title>
<g id="a_edge31_Node000007_Node000005"><a xlink:title=" ">
<path fill="none" stroke="#63b8ff" d="M517,-172.26C588.84,-169.36 699.28,-159.86 725.5,-129 737.93,-114.37 723.22,-94.44 709.45,-80.84"/>
<polygon fill="#63b8ff" stroke="#63b8ff" points="711.79,-78.23 702.07,-74 707.03,-83.37 711.79,-78.23"/>
</a>
</g>
</g>
<!-- Node7&#45;&gt;Node6 -->
<g id="edge32_Node000007_Node000006" class="edge">
<title>Node7&#45;&gt;Node6</title>
<g id="a_edge32_Node000007_Node000006"><a xlink:title=" ">
<path fill="none" stroke="#63b8ff" d="M458.49,-164.66C468.55,-146.85 491.42,-106.37 504.61,-83.01"/>
<polygon fill="#63b8ff" stroke="#63b8ff" points="507.74,-84.59 509.61,-74.16 501.64,-81.14 507.74,-84.59"/>
</a>
</g>
</g>
<!-- Node8 -->
<g id="Node000008" class="node">
<title>Node8</title>
<g id="a_Node000008"><a xlink:href="Types_8h.html" target="_top" xlink:title=" ">
<polygon fill="white" stroke="#666666" points="148,-74 95,-74 95,-55 148,-55 148,-74"/>
<text text-anchor="middle" x="121.5" y="-62" font-family="Helvetica,sans-Serif" font-size="10.00">Types.h</text>
</a>
</g>
</g>
<!-- Node7&#45;&gt;Node8 -->
<g id="edge7_Node000007_Node000008" class="edge">
<title>Node7&#45;&gt;Node8</title>
<g id="a_edge7_Node000007_Node000008"><a xlink:title=" ">
<path fill="none" stroke="#63b8ff" d="M389.79,-169.39C316.88,-163.7 202.84,-151.48 166.5,-129 149.14,-118.26 136.59,-98.07 129.23,-83.33"/>
<polygon fill="#63b8ff" stroke="#63b8ff" points="132.36,-81.76 124.96,-74.18 126.01,-84.72 132.36,-81.76"/>
</a>
</g>
</g>
<!-- Node12 -->
<g id="Node000012" class="node">
<title>Node12</title>
<g id="a_Node000012"><a xlink:href="ConformationAtom_8h.html" target="_top" xlink:title=" ">
<polygon fill="white" stroke="#666666" points="119,-129 0,-129 0,-110 119,-110 119,-129"/>
<text text-anchor="middle" x="59.5" y="-117" font-family="Helvetica,sans-Serif" font-size="10.00">ConformationAtom.h</text>
</a>
</g>
</g>
<!-- Node7&#45;&gt;Node12 -->
<g id="edge12_Node000007_Node000012" class="edge">
<title>Node7&#45;&gt;Node12</title>
<g id="a_edge12_Node000007_Node000012"><a xlink:title=" ">
<path fill="none" stroke="#63b8ff" d="M390.2,-164.98C318.83,-155.38 203.15,-139.82 129.24,-129.88"/>
<polygon fill="#63b8ff" stroke="#63b8ff" points="129.48,-126.38 119.1,-128.52 128.54,-133.32 129.48,-126.38"/>
</a>
</g>
</g>
<!-- Node13 -->
<g id="Node000013" class="node">
<title>Node13</title>
<g id="a_Node000013"><a xlink:href="GeometryChoice_8h.html" target="_top" xlink:title=" ">
<polygon fill="white" stroke="#666666" points="283,-129 176,-129 176,-110 283,-110 283,-129"/>
<text text-anchor="middle" x="229.5" y="-117" font-family="Helvetica,sans-Serif" font-size="10.00">GeometryChoice.h</text>
</a>
</g>
</g>
<!-- Node7&#45;&gt;Node13 -->
<g id="edge17_Node000007_Node000013" class="edge">
<title>Node7&#45;&gt;Node13</title>
<g id="a_edge17_Node000007_Node000013"><a xlink:title=" ">
<path fill="none" stroke="#63b8ff" d="M417.51,-164.98C379.01,-155.87 317.81,-141.4 275.76,-131.45"/>
<polygon fill="#63b8ff" stroke="#63b8ff" points="276.31,-127.98 265.77,-129.08 274.7,-134.79 276.31,-127.98"/>
</a>
</g>
</g>
<!-- Node15 -->
<g id="Node000015" class="node">
<title>Node15</title>
<g id="a_Node000015"><a xlink:href="Ring_8h.html" target="_top" xlink:title=" ">
<polygon fill="white" stroke="#666666" points="387,-129 340,-129 340,-110 387,-110 387,-129"/>
<text text-anchor="middle" x="363.5" y="-117" font-family="Helvetica,sans-Serif" font-size="10.00">Ring.h</text>
</a>
</g>
</g>
<!-- Node7&#45;&gt;Node15 -->
<g id="edge22_Node000007_Node000015" class="edge">
<title>Node7&#45;&gt;Node15</title>
<g id="a_edge22_Node000007_Node000015"><a xlink:title=" ">
<path fill="none" stroke="#63b8ff" d="M439.04,-164.98C425.08,-156.77 403.71,-144.18 387.25,-134.49"/>
<polygon fill="#63b8ff" stroke="#63b8ff" points="388.62,-131.23 378.22,-129.17 385.06,-137.26 388.62,-131.23"/>
</a>
</g>
</g>
<!-- Node16 -->
<g id="Node000016" class="node">
<title>Node16</title>
<g id="a_Node000016"><a xlink:title=" ">
<polygon fill="#e0e0e0" stroke="#999999" points="429.5,-74 391.5,-74 391.5,-55 429.5,-55 429.5,-74"/>
<text text-anchor="middle" x="410.5" y="-62" font-family="Helvetica,sans-Serif" font-size="10.00">map</text>
</a>
</g>
</g>
<!-- Node7&#45;&gt;Node16 -->
<g id="edge29_Node000007_Node000016" class="edge">
<title>Node7&#45;&gt;Node16</title>
<g id="a_edge29_Node000007_Node000016"><a xlink:title=" ">
<path fill="none" stroke="#63b8ff" d="M449.98,-164.66C442.95,-147.01 427.06,-107.09 417.72,-83.64"/>
<polygon fill="#63b8ff" stroke="#63b8ff" points="420.9,-82.15 413.95,-74.16 414.39,-84.74 420.9,-82.15"/>
</a>
</g>
</g>
<!-- Node7&#45;&gt;Node17 -->
<g id="edge30_Node000007_Node000017" class="edge">
<title>Node7&#45;&gt;Node17</title>
<g id="a_edge30_Node000007_Node000017"><a xlink:title=" ">
<path fill="none" stroke="#63b8ff" d="M512.46,-164.98C581.65,-154.99 695.57,-138.54 763.78,-128.69"/>
<polygon fill="#63b8ff" stroke="#63b8ff" points="764.51,-132.12 773.91,-127.23 763.51,-125.19 764.51,-132.12"/>
</a>
</g>
</g>
<!-- Node18 -->
<g id="Node000018" class="node">
<title>Node18</title>
<g id="a_Node000018"><a xlink:title=" ">
<polygon fill="#e0e0e0" stroke="#999999" points="575.5,-129 519.5,-129 519.5,-110 575.5,-110 575.5,-129"/>
<text text-anchor="middle" x="547.5" y="-117" font-family="Helvetica,sans-Serif" font-size="10.00">sstream</text>
</a>
</g>
</g>
<!-- Node7&#45;&gt;Node18 -->
<g id="edge34_Node000007_Node000018" class="edge">
<title>Node7&#45;&gt;Node18</title>
<g id="a_edge34_Node000007_Node000018"><a xlink:title=" ">
<path fill="none" stroke="#63b8ff" d="M468.6,-164.98C483.32,-156.69 505.92,-143.94 523.17,-134.22"/>
<polygon fill="#63b8ff" stroke="#63b8ff" points="525.13,-137.13 532.12,-129.17 521.69,-131.03 525.13,-137.13"/>
</a>
</g>
</g>
<!-- Node8&#45;&gt;Node3 -->
<g id="edge11_Node000008_Node000003" class="edge">
<title>Node8&#45;&gt;Node3</title>
<g id="a_edge11_Node000008_Node000003"><a xlink:title=" ">
<path fill="none" stroke="#63b8ff" d="M148.2,-56.75C150.99,-56.12 153.8,-55.53 156.5,-55 253.72,-36.05 370,-20.99 425.26,-14.28"/>
<polygon fill="#63b8ff" stroke="#63b8ff" points="425.97,-17.72 435.48,-13.05 425.13,-10.77 425.97,-17.72"/>
</a>
</g>
</g>
<!-- Node9 -->
<g id="Node000009" class="node">
<title>Node9</title>
<g id="a_Node000009"><a xlink:title=" ">
<polygon fill="#e0e0e0" stroke="#999999" points="322,-19 245,-19 245,0 322,0 322,-19"/>
<text text-anchor="middle" x="283.5" y="-7" font-family="Helvetica,sans-Serif" font-size="10.00">Eigen/Dense</text>
</a>
</g>
</g>
<!-- Node8&#45;&gt;Node9 -->
<g id="edge8_Node000008_Node000009" class="edge">
<title>Node8&#45;&gt;Node9</title>
<g id="a_edge8_Node000008_Node000009"><a xlink:title=" ">
<path fill="none" stroke="#63b8ff" d="M147.53,-54.98C174.61,-46.13 217.21,-32.19 247.51,-22.28"/>
<polygon fill="#63b8ff" stroke="#63b8ff" points="248.85,-25.52 257.27,-19.08 246.68,-18.87 248.85,-25.52"/>
</a>
</g>
</g>
<!-- Node10 -->
<g id="Node000010" class="node">
<title>Node10</title>
<g id="a_Node000010"><a xlink:title=" ">
<polygon fill="#e0e0e0" stroke="#999999" points="80.5,-19 38.5,-19 38.5,0 80.5,0 80.5,-19"/>
<text text-anchor="middle" x="59.5" y="-7" font-family="Helvetica,sans-Serif" font-size="10.00">array</text>
</a>
</g>
</g>
<!-- Node8&#45;&gt;Node10 -->
<g id="edge9_Node000008_Node000010" class="edge">
<title>Node8&#45;&gt;Node10</title>
<g id="a_edge9_Node000008_Node000010"><a xlink:title=" ">
<path fill="none" stroke="#63b8ff" d="M111.54,-54.98C102.37,-47.15 88.56,-35.34 77.47,-25.86"/>
<polygon fill="#63b8ff" stroke="#63b8ff" points="79.52,-23.01 69.64,-19.17 74.97,-28.33 79.52,-23.01"/>
</a>
</g>
</g>
<!-- Node11 -->
<g id="Node000011" class="node">
<title>Node11</title>
<g id="a_Node000011"><a xlink:title=" ">
<polygon fill="#e0e0e0" stroke="#999999" points="146,-19 99,-19 99,0 146,0 146,-19"/>
<text text-anchor="middle" x="122.5" y="-7" font-family="Helvetica,sans-Serif" font-size="10.00">cmath</text>
</a>
</g>
</g>
<!-- Node8&#45;&gt;Node11 -->
<g id="edge10_Node000008_Node000011" class="edge">
<title>Node8&#45;&gt;Node11</title>
<g id="a_edge10_Node000008_Node000011"><a xlink:title=" ">
<path fill="none" stroke="#63b8ff" d="M121.67,-54.75C121.8,-47.8 121.98,-37.85 122.15,-29.13"/>
<polygon fill="#63b8ff" stroke="#63b8ff" points="125.65,-29.15 122.34,-19.09 118.65,-29.02 125.65,-29.15"/>
</a>
</g>
</g>
<!-- Node12&#45;&gt;Node4 -->
<g id="edge14_Node000012_Node000004" class="edge">
<title>Node12&#45;&gt;Node4</title>
<g id="a_edge14_Node000012_Node000004"><a xlink:title=" ">
<path fill="none" stroke="#63b8ff" d="M99.99,-109.98C149.3,-99.61 231.68,-82.29 277.73,-72.6"/>
<polygon fill="#63b8ff" stroke="#63b8ff" points="278.73,-75.97 287.8,-70.49 277.29,-69.12 278.73,-75.97"/>
</a>
</g>
</g>
<!-- Node12&#45;&gt;Node8 -->
<g id="edge13_Node000012_Node000008" class="edge">
<title>Node12&#45;&gt;Node8</title>
<g id="a_edge13_Node000012_Node000008"><a xlink:title=" ">
<path fill="none" stroke="#63b8ff" d="M69.46,-109.98C78.63,-102.15 92.44,-90.34 103.53,-80.86"/>
<polygon fill="#63b8ff" stroke="#63b8ff" points="106.03,-83.33 111.36,-74.17 101.48,-78.01 106.03,-83.33"/>
</a>
</g>
</g>
<!-- Node12&#45;&gt;Node10 -->
<g id="edge15_Node000012_Node000010" class="edge">
<title>Node12&#45;&gt;Node10</title>
<g id="a_edge15_Node000012_Node000010"><a xlink:title=" ">
<path fill="none" stroke="#63b8ff" d="M59.5,-109.66C59.5,-92.17 59.5,-52.8 59.5,-29.27"/>
<polygon fill="#63b8ff" stroke="#63b8ff" points="63,-29.16 59.5,-19.16 56,-29.16 63,-29.16"/>
</a>
</g>
</g>
<!-- Node13&#45;&gt;Node3 -->
<g id="edge19_Node000013_Node000003" class="edge">
<title>Node13&#45;&gt;Node3</title>
<g id="a_edge19_Node000013_Node000003"><a xlink:title=" ">
<path fill="none" stroke="#63b8ff" d="M233.86,-109.58C241.12,-95.69 257.05,-69.01 278.5,-55 323.84,-25.39 387.38,-15.48 425.3,-12.16"/>
<polygon fill="#63b8ff" stroke="#63b8ff" points="425.58,-15.65 435.28,-11.39 425.04,-8.67 425.58,-15.65"/>
</a>
</g>
</g>
<!-- Node13&#45;&gt;Node4 -->
<g id="edge20_Node000013_Node000004" class="edge">
<title>Node13&#45;&gt;Node4</title>
<g id="a_edge20_Node000013_Node000004"><a xlink:title=" ">
<path fill="none" stroke="#63b8ff" d="M242.67,-109.98C255.27,-101.84 274.5,-89.41 289.44,-79.76"/>
<polygon fill="#63b8ff" stroke="#63b8ff" points="291.59,-82.54 298.09,-74.17 287.79,-76.66 291.59,-82.54"/>
</a>
</g>
</g>
<!-- Node13&#45;&gt;Node8 -->
<g id="edge18_Node000013_Node000008" class="edge">
<title>Node13&#45;&gt;Node8</title>
<g id="a_edge18_Node000013_Node000008"><a xlink:title=" ">
<path fill="none" stroke="#63b8ff" d="M212.15,-109.98C194.93,-101.54 168.3,-88.47 148.35,-78.68"/>
<polygon fill="#63b8ff" stroke="#63b8ff" points="149.69,-75.43 139.17,-74.17 146.6,-81.72 149.69,-75.43"/>
</a>
</g>
</g>
<!-- Node14 -->
<g id="Node000014" class="node">
<title>Node14</title>
<g id="a_Node000014"><a xlink:title=" ">
<polygon fill="#e0e0e0" stroke="#999999" points="231,-74 166,-74 166,-55 231,-55 231,-74"/>
<text text-anchor="middle" x="198.5" y="-62" font-family="Helvetica,sans-Serif" font-size="10.00">functional</text>
</a>
</g>
</g>
<!-- Node13&#45;&gt;Node14 -->
<g id="edge21_Node000013_Node000014" class="edge">
<title>Node13&#45;&gt;Node14</title>
<g id="a_edge21_Node000013_Node000014"><a xlink:title=" ">
<path fill="none" stroke="#63b8ff" d="M224.38,-109.75C220.14,-102.49 213.97,-91.95 208.72,-82.98"/>
<polygon fill="#63b8ff" stroke="#63b8ff" points="211.59,-80.95 203.52,-74.09 205.55,-84.49 211.59,-80.95"/>
</a>
</g>
</g>
<!-- Node15&#45;&gt;Node4 -->
<g id="edge25_Node000015_Node000004" class="edge">
<title>Node15&#45;&gt;Node4</title>
<g id="a_edge25_Node000015_Node000004"><a xlink:title=" ">
<path fill="none" stroke="#63b8ff" d="M354.91,-109.75C347.34,-102.03 336.12,-90.6 326.99,-81.28"/>
<polygon fill="#63b8ff" stroke="#63b8ff" points="329.43,-78.78 319.93,-74.09 324.43,-83.68 329.43,-78.78"/>
</a>
</g>
</g>
<!-- Node15&#45;&gt;Node6 -->
<g id="edge27_Node000015_Node000006" class="edge">
<title>Node15&#45;&gt;Node6</title>
<g id="a_edge27_Node000015_Node000006"><a xlink:title=" ">
<path fill="none" stroke="#63b8ff" d="M387.09,-110.22C412.17,-101.42 452.06,-87.42 480.52,-77.43"/>
<polygon fill="#63b8ff" stroke="#63b8ff" points="481.79,-80.69 490.07,-74.07 479.48,-74.08 481.79,-80.69"/>
</a>
</g>
</g>
<!-- Node15&#45;&gt;Node8 -->
<g id="edge23_Node000015_Node000008" class="edge">
<title>Node15&#45;&gt;Node8</title>
<g id="a_edge23_Node000015_Node000008"><a xlink:title=" ">
<path fill="none" stroke="#63b8ff" d="M339.86,-113.63C303.1,-106.01 229.77,-90.64 158.3,-74.37"/>
<polygon fill="#63b8ff" stroke="#63b8ff" points="158.76,-70.89 148.24,-72.07 157.2,-77.71 158.76,-70.89"/>
</a>
</g>
</g>
<!-- Node15&#45;&gt;Node9 -->
<g id="edge24_Node000015_Node000009" class="edge">
<title>Node15&#45;&gt;Node9</title>
<g id="a_edge24_Node000015_Node000009"><a xlink:title=" ">
<path fill="none" stroke="#63b8ff" d="M362.51,-109.94C360.66,-97 355.7,-72.13 343.5,-55 334.57,-42.46 321.01,-31.98 309.05,-24.34"/>
<polygon fill="#63b8ff" stroke="#63b8ff" points="310.68,-21.24 300.31,-19.07 307.06,-27.24 310.68,-21.24"/>
</a>
</g>
</g>
<!-- Node15&#45;&gt;Node16 -->
<g id="edge26_Node000015_Node000016" class="edge">
<title>Node15&#45;&gt;Node16</title>
<g id="a_edge26_Node000015_Node000016"><a xlink:title=" ">
<path fill="none" stroke="#63b8ff" d="M371.26,-109.75C377.97,-102.18 387.84,-91.05 396.01,-81.84"/>
<polygon fill="#63b8ff" stroke="#63b8ff" points="398.87,-83.89 402.88,-74.09 393.63,-79.25 398.87,-83.89"/>
</a>
</g>
</g>
</g>
</svg>
