<?xml version="1.0" encoding="UTF-8" standalone="no"?>
<!DOCTYPE svg PUBLIC "-//W3C//DTD SVG 1.1//EN"
 "http://www.w3.org/Graphics/SVG/1.1/DTD/svg11.dtd">
<!-- Generated by graphviz version 2.43.0 (0)
 -->
<!-- Title: src/ChargeSource.h Pages: 1 -->
<svg width="348pt" height="192pt"
 viewBox="0.00 0.00 347.50 192.00" xmlns="http://www.w3.org/2000/svg" xmlns:xlink="http://www.w3.org/1999/xlink">
<g id="graph0" class="graph" transform="scale(1 1) rotate(0) translate(4 188)">
<title>src/ChargeSource.h</title>
<!-- Node1 -->
<g id="Node000001" class="node">
<title>Node1</title>
<g id="a_Node000001"><a xlink:title=" ">
<polygon fill="#999999" stroke="#666666" points="194.5,-184 84.5,-184 84.5,-165 194.5,-165 194.5,-184"/>
<text text-anchor="middle" x="139.5" y="-172" font-family="Helvetica,sans-Serif" font-size="10.00">src/ChargeSource.h</text>
</a>
</g>
</g>
<!-- Node2 -->
<g id="Node000002" class="node">
<title>Node2</title>
<g id="a_Node000002"><a xlink:href="BuildResult_8h.html" target="_top" xlink:title=" ">
<polygon fill="white" stroke="#666666" points="253.5,-129 155.5,-129 155.5,-110 253.5,-110 253.5,-129"/>
<text text-anchor="middle" x="204.5" y="-117" font-family="Helvetica,sans-Serif" font-size="10.00">src/BuildResult.h</text>
</a>
</g>
</g>
<!-- Node1&#45;&gt;Node2 -->
<g id="edge1_Node000001_Node000002" class="edge">
<title>Node1&#45;&gt;Node2</title>
<g id="a_edge1_Node000001_Node000002"><a xlink:title=" ">
<path fill="none" stroke="#63b8ff" d="M157.77,-158.6C169.42,-149.11 184.1,-137.13 193.87,-129.17"/>
<polygon fill="#63b8ff" stroke="#63b8ff" points="155.48,-155.95 149.94,-164.98 159.91,-161.38 155.48,-155.95"/>
</a>
</g>
</g>
<!-- Node6 -->
<g id="Node000006" class="node">
<title>Node6</title>
<g id="a_Node000006"><a xlink:href="OperationRunner_8h.html" target="_top" xlink:title=" ">
<polygon fill="white" stroke="#666666" points="137,-129 12,-129 12,-110 137,-110 137,-129"/>
<text text-anchor="middle" x="74.5" y="-117" font-family="Helvetica,sans-Serif" font-size="10.00">src/OperationRunner.h</text>
</a>
</g>
</g>
<!-- Node1&#45;&gt;Node6 -->
<g id="edge6_Node000001_Node000006" class="edge">
<title>Node1&#45;&gt;Node6</title>
<g id="a_edge6_Node000001_Node000006"><a xlink:title=" ">
<path fill="none" stroke="#63b8ff" d="M121.23,-158.6C109.58,-149.11 94.9,-137.13 85.13,-129.17"/>
<polygon fill="#63b8ff" stroke="#63b8ff" points="119.09,-161.38 129.06,-164.98 123.52,-155.95 119.09,-161.38"/>
</a>
</g>
</g>
<!-- Node3 -->
<g id="Node000003" class="node">
<title>Node3</title>
<g id="a_Node000003"><a xlink:href="GromacsEnsembleLoader_8h.html" target="_top" xlink:title=" ">
<polygon fill="white" stroke="#666666" points="167,-74 0,-74 0,-55 167,-55 167,-74"/>
<text text-anchor="middle" x="83.5" y="-62" font-family="Helvetica,sans-Serif" font-size="10.00">src/GromacsEnsembleLoader.h</text>
</a>
</g>
</g>
<!-- Node2&#45;&gt;Node3 -->
<g id="edge2_Node000002_Node000003" class="edge">
<title>Node2&#45;&gt;Node3</title>
<g id="a_edge2_Node000002_Node000003"><a xlink:title=" ">
<path fill="none" stroke="#63b8ff" d="M175.73,-105.9C153.38,-96.11 122.98,-82.79 103.29,-74.17"/>
<polygon fill="#63b8ff" stroke="#63b8ff" points="174.5,-109.18 185.06,-109.98 177.3,-102.77 174.5,-109.18"/>
</a>
</g>
</g>
<!-- Node4 -->
<g id="Node000004" class="node">
<title>Node4</title>
<g id="a_Node000004"><a xlink:href="OrcaRunLoader_8h.html" target="_top" xlink:title=" ">
<polygon fill="white" stroke="#666666" points="299.5,-19 183.5,-19 183.5,0 299.5,0 299.5,-19"/>
<text text-anchor="middle" x="241.5" y="-7" font-family="Helvetica,sans-Serif" font-size="10.00">src/OrcaRunLoader.h</text>
</a>
</g>
</g>
<!-- Node2&#45;&gt;Node4 -->
<g id="edge3_Node000002_Node000004" class="edge">
<title>Node2&#45;&gt;Node4</title>
<g id="a_edge3_Node000002_Node000004"><a xlink:title=" ">
<path fill="none" stroke="#63b8ff" d="M207.32,-99.71C209.56,-86.88 213.21,-69.62 218.5,-55 223.23,-41.91 231.03,-27.8 236.22,-19.06"/>
<polygon fill="#63b8ff" stroke="#63b8ff" points="203.85,-99.24 205.7,-109.67 210.76,-100.36 203.85,-99.24"/>
</a>
</g>
</g>
<!-- Node5 -->
<g id="Node000005" class="node">
<title>Node5</title>
<g id="a_Node000005"><a xlink:href="PdbFileReader_8h.html" target="_top" xlink:title=" ">
<polygon fill="white" stroke="#666666" points="339.5,-74 227.5,-74 227.5,-55 339.5,-55 339.5,-74"/>
<text text-anchor="middle" x="283.5" y="-62" font-family="Helvetica,sans-Serif" font-size="10.00">src/PdbFileReader.h</text>
</a>
</g>
</g>
<!-- Node2&#45;&gt;Node5 -->
<g id="edge4_Node000002_Node000005" class="edge">
<title>Node2&#45;&gt;Node5</title>
<g id="a_edge4_Node000002_Node000005"><a xlink:title=" ">
<path fill="none" stroke="#63b8ff" d="M225.89,-104.15C240.17,-94.57 258.47,-82.29 270.58,-74.17"/>
<polygon fill="#63b8ff" stroke="#63b8ff" points="223.55,-101.51 217.19,-109.98 227.45,-107.32 223.55,-101.51"/>
</a>
</g>
</g>
<!-- Node5&#45;&gt;Node4 -->
<g id="edge5_Node000005_Node000004" class="edge">
<title>Node5&#45;&gt;Node4</title>
<g id="a_edge5_Node000005_Node000004"><a xlink:title=" ">
<path fill="none" stroke="#63b8ff" d="M270.17,-46.67C262.89,-37.5 254.2,-26.52 248.31,-19.09"/>
<polygon fill="#63b8ff" stroke="#63b8ff" points="267.61,-49.08 276.56,-54.75 273.1,-44.74 267.61,-49.08"/>
</a>
</g>
</g>
<!-- Node6&#45;&gt;Node3 -->
<g id="edge7_Node000006_Node000003" class="edge">
<title>Node6&#45;&gt;Node3</title>
<g id="a_edge7_Node000006_Node000003"><a xlink:title=" ">
<path fill="none" stroke="#63b8ff" d="M77.7,-99.66C79.18,-90.93 80.87,-80.99 82.04,-74.09"/>
<polygon fill="#63b8ff" stroke="#63b8ff" points="74.21,-99.3 75.99,-109.75 81.11,-100.48 74.21,-99.3"/>
</a>
</g>
</g>
</g>
</svg>
