<?xml version="1.0" encoding="UTF-8" standalone="no"?>
<!DOCTYPE svg PUBLIC "-//W3C//DTD SVG 1.1//EN"
 "http://www.w3.org/Graphics/SVG/1.1/DTD/svg11.dtd">
<!-- Generated by graphviz version 2.43.0 (0)
 -->
<!-- Title: nmr::Ring Pages: 1 -->
<svg width="1114pt" height="557pt"
 viewBox="0.00 0.00 1113.50 557.00" xmlns="http://www.w3.org/2000/svg" xmlns:xlink="http://www.w3.org/1999/xlink">
<g id="graph0" class="graph" transform="scale(1 1) rotate(0) translate(4 553)">
<title>nmr::Ring</title>
<!-- Node1 -->
<g id="Node000001" class="node">
<title>Node1</title>
<g id="a_Node000001"><a xlink:title=" ">
<polygon fill="#999999" stroke="transparent" points="694.5,-549 557.5,-549 557.5,-275 694.5,-275 694.5,-549"/>
<text text-anchor="start" x="602.5" y="-537" font-family="Helvetica,sans-Serif" font-size="10.00">nmr::Ring</text>
<text text-anchor="start" x="562" y="-522" font-family="Helvetica,sans-Serif" font-size="10.00">+</text>
<text text-anchor="start" x="575" y="-522" font-family="Helvetica,sans-Serif" font-size="10.00">atom_indices</text>
<text text-anchor="start" x="562" y="-507" font-family="Helvetica,sans-Serif" font-size="10.00">+</text>
<text text-anchor="start" x="575" y="-507" font-family="Helvetica,sans-Serif" font-size="10.00">type_index</text>
<text text-anchor="start" x="562" y="-492" font-family="Helvetica,sans-Serif" font-size="10.00">+</text>
<text text-anchor="start" x="575" y="-492" font-family="Helvetica,sans-Serif" font-size="10.00">parent_residue_index</text>
<text text-anchor="start" x="562" y="-477" font-family="Helvetica,sans-Serif" font-size="10.00">+</text>
<text text-anchor="start" x="575" y="-477" font-family="Helvetica,sans-Serif" font-size="10.00">parent_residue_number</text>
<text text-anchor="start" x="562" y="-462" font-family="Helvetica,sans-Serif" font-size="10.00">+</text>
<text text-anchor="start" x="575" y="-462" font-family="Helvetica,sans-Serif" font-size="10.00">fused_partner_index</text>
<text text-anchor="start" x="562" y="-447" font-family="Helvetica,sans-Serif" font-size="10.00">+</text>
<text text-anchor="start" x="575" y="-447" font-family="Helvetica,sans-Serif" font-size="10.00">accumulated</text>
<text text-anchor="start" x="562" y="-432" font-family="Helvetica,sans-Serif" font-size="10.00">+</text>
<text text-anchor="start" x="575" y="-432" font-family="Helvetica,sans-Serif" font-size="10.00">~Ring()</text>
<text text-anchor="start" x="562" y="-417" font-family="Helvetica,sans-Serif" font-size="10.00">+</text>
<text text-anchor="start" x="575" y="-417" font-family="Helvetica,sans-Serif" font-size="10.00">Intensity()</text>
<text text-anchor="start" x="562" y="-402" font-family="Helvetica,sans-Serif" font-size="10.00">+</text>
<text text-anchor="start" x="575" y="-402" font-family="Helvetica,sans-Serif" font-size="10.00">LiteratureIntensity()</text>
<text text-anchor="start" x="562" y="-387" font-family="Helvetica,sans-Serif" font-size="10.00">+</text>
<text text-anchor="start" x="575" y="-387" font-family="Helvetica,sans-Serif" font-size="10.00">JBLobeOffset()</text>
<text text-anchor="start" x="562" y="-372" font-family="Helvetica,sans-Serif" font-size="10.00">+</text>
<text text-anchor="start" x="575" y="-372" font-family="Helvetica,sans-Serif" font-size="10.00">NitrogenCount()</text>
<text text-anchor="start" x="562" y="-357" font-family="Helvetica,sans-Serif" font-size="10.00">+</text>
<text text-anchor="start" x="575" y="-357" font-family="Helvetica,sans-Serif" font-size="10.00">Aromaticity()</text>
<text text-anchor="start" x="562" y="-342" font-family="Helvetica,sans-Serif" font-size="10.00">+</text>
<text text-anchor="start" x="575" y="-342" font-family="Helvetica,sans-Serif" font-size="10.00">RingSizeValue()</text>
<text text-anchor="start" x="562" y="-327" font-family="Helvetica,sans-Serif" font-size="10.00">+</text>
<text text-anchor="start" x="575" y="-327" font-family="Helvetica,sans-Serif" font-size="10.00">TypeName()</text>
<text text-anchor="start" x="562" y="-312" font-family="Helvetica,sans-Serif" font-size="10.00">+</text>
<text text-anchor="start" x="575" y="-312" font-family="Helvetica,sans-Serif" font-size="10.00">IsFused()</text>
<text text-anchor="start" x="562" y="-297" font-family="Helvetica,sans-Serif" font-size="10.00">+</text>
<text text-anchor="start" x="575" y="-297" font-family="Helvetica,sans-Serif" font-size="10.00">TypeIndexAsInt()</text>
<text text-anchor="start" x="562" y="-282" font-family="Helvetica,sans-Serif" font-size="10.00">+</text>
<text text-anchor="start" x="575" y="-282" font-family="Helvetica,sans-Serif" font-size="10.00">ComputeGeometry()</text>
<polygon fill="#666666" stroke="#666666" points="558,-532 558,-532 695,-532 695,-532 558,-532"/>
<polygon fill="#666666" stroke="#666666" points="558,-442 558,-442 573,-442 573,-442 558,-442"/>
<polygon fill="#666666" stroke="#666666" points="573,-442 573,-442 695,-442 695,-442 573,-442"/>
<polygon fill="none" stroke="#666666" points="557.5,-275 557.5,-549 694.5,-549 694.5,-275 557.5,-275"/>
</a>
</g>
</g>
<!-- Node2 -->
<g id="Node000002" class="node">
<title>Node2</title>
<g id="a_Node000002"><a xlink:href="classnmr_1_1FiveMemberedRing.html" target="_top" xlink:title=" ">
<polygon fill="white" stroke="transparent" points="406.5,-239 275.5,-239 275.5,-190 406.5,-190 406.5,-239"/>
<text text-anchor="start" x="281" y="-226.5" font-family="Helvetica,sans-Serif" font-size="10.00">nmr::FiveMemberedRing</text>
<text text-anchor="start" x="339.5" y="-211.5" font-family="Helvetica,sans-Serif" font-size="10.00"> </text>
<text text-anchor="start" x="288" y="-196.5" font-family="Helvetica,sans-Serif" font-size="10.00">+</text>
<text text-anchor="start" x="309" y="-196.5" font-family="Helvetica,sans-Serif" font-size="10.00">RingSizeValue()</text>
<polygon fill="#666666" stroke="#666666" points="276,-221.5 276,-221.5 407,-221.5 407,-221.5 276,-221.5"/>
<polygon fill="#666666" stroke="#666666" points="276,-206.5 276,-206.5 407,-206.5 407,-206.5 276,-206.5"/>
<polygon fill="none" stroke="#666666" points="275.5,-190 275.5,-239 406.5,-239 406.5,-190 275.5,-190"/>
</a>
</g>
</g>
<!-- Node1&#45;&gt;Node2 -->
<g id="edge1_Node000001_Node000002" class="edge">
<title>Node1&#45;&gt;Node2</title>
<g id="a_edge1_Node000001_Node000002"><a xlink:title=" ">
<path fill="none" stroke="#63b8ff" d="M548.8,-358.04C492.19,-319.21 418.05,-268.35 375.35,-239.06"/>
<polygon fill="none" stroke="#63b8ff" points="547.15,-361.15 557.37,-363.92 551.11,-355.38 547.15,-361.15"/>
</a>
</g>
</g>
<!-- Node7 -->
<g id="Node000007" class="node">
<title>Node7</title>
<g id="a_Node000007"><a xlink:href="classnmr_1_1FusedRing.html" target="_top" xlink:title=" ">
<polygon fill="white" stroke="transparent" points="669,-239 583,-239 583,-190 669,-190 669,-239"/>
<text text-anchor="start" x="588" y="-226.5" font-family="Helvetica,sans-Serif" font-size="10.00">nmr::FusedRing</text>
<text text-anchor="start" x="624" y="-211.5" font-family="Helvetica,sans-Serif" font-size="10.00"> </text>
<text text-anchor="start" x="624" y="-196.5" font-family="Helvetica,sans-Serif" font-size="10.00"> </text>
<polygon fill="#666666" stroke="#666666" points="583,-221.5 583,-221.5 669,-221.5 669,-221.5 583,-221.5"/>
<polygon fill="#666666" stroke="#666666" points="583,-206.5 583,-206.5 669,-206.5 669,-206.5 583,-206.5"/>
<polygon fill="none" stroke="#666666" points="583,-190 583,-239 669,-239 669,-190 583,-190"/>
</a>
</g>
</g>
<!-- Node1&#45;&gt;Node7 -->
<g id="edge6_Node000001_Node000007" class="edge">
<title>Node1&#45;&gt;Node7</title>
<g id="a_edge6_Node000001_Node000007"><a xlink:title=" ">
<path fill="none" stroke="#63b8ff" d="M626,-264.76C626,-255.25 626,-246.56 626,-239.21"/>
<polygon fill="none" stroke="#63b8ff" points="622.5,-264.95 626,-274.95 629.5,-264.95 622.5,-264.95"/>
</a>
</g>
</g>
<!-- Node9 -->
<g id="Node000009" class="node">
<title>Node9</title>
<g id="a_Node000009"><a xlink:href="classnmr_1_1SixMemberedRing.html" target="_top" xlink:title=" ">
<polygon fill="white" stroke="transparent" points="902.5,-239 777.5,-239 777.5,-190 902.5,-190 902.5,-239"/>
<text text-anchor="start" x="783" y="-226.5" font-family="Helvetica,sans-Serif" font-size="10.00">nmr::SixMemberedRing</text>
<text text-anchor="start" x="838.5" y="-211.5" font-family="Helvetica,sans-Serif" font-size="10.00"> </text>
<text text-anchor="start" x="788.5" y="-196.5" font-family="Helvetica,sans-Serif" font-size="10.00">+</text>
<text text-anchor="start" x="808" y="-196.5" font-family="Helvetica,sans-Serif" font-size="10.00">RingSizeValue()</text>
<polygon fill="#666666" stroke="#666666" points="778,-221.5 778,-221.5 903,-221.5 903,-221.5 778,-221.5"/>
<polygon fill="#666666" stroke="#666666" points="778,-206.5 778,-206.5 903,-206.5 903,-206.5 778,-206.5"/>
<polygon fill="none" stroke="#666666" points="777.5,-190 777.5,-239 902.5,-239 902.5,-190 777.5,-190"/>
</a>
</g>
</g>
<!-- Node1&#45;&gt;Node9 -->
<g id="edge8_Node000001_Node000009" class="edge">
<title>Node1&#45;&gt;Node9</title>
<g id="a_edge8_Node000001_Node000009"><a xlink:title=" ">
<path fill="none" stroke="#63b8ff" d="M702.32,-341.28C741.39,-305.59 786.41,-264.46 814.04,-239.22"/>
<polygon fill="none" stroke="#63b8ff" points="699.62,-339.01 694.59,-348.34 704.34,-344.18 699.62,-339.01"/>
</a>
</g>
</g>
<!-- Node3 -->
<g id="Node000003" class="node">
<title>Node3</title>
<g id="a_Node000003"><a xlink:href="classnmr_1_1HidImidazoleRing.html" target="_top" xlink:title=" ">
<polygon fill="white" stroke="transparent" points="122,-146.5 0,-146.5 0,-7.5 122,-7.5 122,-146.5"/>
<text text-anchor="start" x="5" y="-134" font-family="Helvetica,sans-Serif" font-size="10.00">nmr::HidImidazoleRing</text>
<text text-anchor="start" x="59" y="-119" font-family="Helvetica,sans-Serif" font-size="10.00"> </text>
<text text-anchor="start" x="4.5" y="-104" font-family="Helvetica,sans-Serif" font-size="10.00">+</text>
<text text-anchor="start" x="18" y="-104" font-family="Helvetica,sans-Serif" font-size="10.00">HidImidazoleRing()</text>
<text text-anchor="start" x="4.5" y="-89" font-family="Helvetica,sans-Serif" font-size="10.00">+</text>
<text text-anchor="start" x="18" y="-89" font-family="Helvetica,sans-Serif" font-size="10.00">Intensity()</text>
<text text-anchor="start" x="4.5" y="-74" font-family="Helvetica,sans-Serif" font-size="10.00">+</text>
<text text-anchor="start" x="18" y="-74" font-family="Helvetica,sans-Serif" font-size="10.00">LiteratureIntensity()</text>
<text text-anchor="start" x="4.5" y="-59" font-family="Helvetica,sans-Serif" font-size="10.00">+</text>
<text text-anchor="start" x="18" y="-59" font-family="Helvetica,sans-Serif" font-size="10.00">JBLobeOffset()</text>
<text text-anchor="start" x="4.5" y="-44" font-family="Helvetica,sans-Serif" font-size="10.00">+</text>
<text text-anchor="start" x="18" y="-44" font-family="Helvetica,sans-Serif" font-size="10.00">NitrogenCount()</text>
<text text-anchor="start" x="4.5" y="-29" font-family="Helvetica,sans-Serif" font-size="10.00">+</text>
<text text-anchor="start" x="18" y="-29" font-family="Helvetica,sans-Serif" font-size="10.00">Aromaticity()</text>
<text text-anchor="start" x="4.5" y="-14" font-family="Helvetica,sans-Serif" font-size="10.00">+</text>
<text text-anchor="start" x="18" y="-14" font-family="Helvetica,sans-Serif" font-size="10.00">TypeName()</text>
<polygon fill="#666666" stroke="#666666" points="0,-129 0,-129 122,-129 122,-129 0,-129"/>
<polygon fill="#666666" stroke="#666666" points="0,-114 0,-114 122,-114 122,-114 0,-114"/>
<polygon fill="none" stroke="#666666" points="0,-7.5 0,-146.5 122,-146.5 122,-7.5 0,-7.5"/>
</a>
</g>
</g>
<!-- Node2&#45;&gt;Node3 -->
<g id="edge2_Node000002_Node000003" class="edge">
<title>Node2&#45;&gt;Node3</title>
<g id="a_edge2_Node000002_Node000003"><a xlink:title=" ">
<path fill="none" stroke="#63b8ff" d="M265.37,-202.48C223.48,-193.9 171.79,-179.08 131,-154 127.33,-151.75 123.74,-149.24 120.23,-146.57"/>
<polygon fill="none" stroke="#63b8ff" points="264.76,-205.92 275.25,-204.42 266.11,-199.05 264.76,-205.92"/>
</a>
</g>
</g>
<!-- Node4 -->
<g id="Node000004" class="node">
<title>Node4</title>
<g id="a_Node000004"><a xlink:href="classnmr_1_1HieImidazoleRing.html" target="_top" xlink:title=" ">
<polygon fill="white" stroke="transparent" points="262,-146.5 140,-146.5 140,-7.5 262,-7.5 262,-146.5"/>
<text text-anchor="start" x="145" y="-134" font-family="Helvetica,sans-Serif" font-size="10.00">nmr::HieImidazoleRing</text>
<text text-anchor="start" x="199" y="-119" font-family="Helvetica,sans-Serif" font-size="10.00"> </text>
<text text-anchor="start" x="144.5" y="-104" font-family="Helvetica,sans-Serif" font-size="10.00">+</text>
<text text-anchor="start" x="158" y="-104" font-family="Helvetica,sans-Serif" font-size="10.00">HieImidazoleRing()</text>
<text text-anchor="start" x="144.5" y="-89" font-family="Helvetica,sans-Serif" font-size="10.00">+</text>
<text text-anchor="start" x="158" y="-89" font-family="Helvetica,sans-Serif" font-size="10.00">Intensity()</text>
<text text-anchor="start" x="144.5" y="-74" font-family="Helvetica,sans-Serif" font-size="10.00">+</text>
<text text-anchor="start" x="158" y="-74" font-family="Helvetica,sans-Serif" font-size="10.00">LiteratureIntensity()</text>
<text text-anchor="start" x="144.5" y="-59" font-family="Helvetica,sans-Serif" font-size="10.00">+</text>
<text text-anchor="start" x="158" y="-59" font-family="Helvetica,sans-Serif" font-size="10.00">JBLobeOffset()</text>
<text text-anchor="start" x="144.5" y="-44" font-family="Helvetica,sans-Serif" font-size="10.00">+</text>
<text text-anchor="start" x="158" y="-44" font-family="Helvetica,sans-Serif" font-size="10.00">NitrogenCount()</text>
<text text-anchor="start" x="144.5" y="-29" font-family="Helvetica,sans-Serif" font-size="10.00">+</text>
<text text-anchor="start" x="158" y="-29" font-family="Helvetica,sans-Serif" font-size="10.00">Aromaticity()</text>
<text text-anchor="start" x="144.5" y="-14" font-family="Helvetica,sans-Serif" font-size="10.00">+</text>
<text text-anchor="start" x="158" y="-14" font-family="Helvetica,sans-Serif" font-size="10.00">TypeName()</text>
<polygon fill="#666666" stroke="#666666" points="140,-129 140,-129 262,-129 262,-129 140,-129"/>
<polygon fill="#666666" stroke="#666666" points="140,-114 140,-114 262,-114 262,-114 140,-114"/>
<polygon fill="none" stroke="#666666" points="140,-7.5 140,-146.5 262,-146.5 262,-7.5 140,-7.5"/>
</a>
</g>
</g>
<!-- Node2&#45;&gt;Node4 -->
<g id="edge3_Node000002_Node000004" class="edge">
<title>Node2&#45;&gt;Node4</title>
<g id="a_edge3_Node000002_Node000004"><a xlink:title=" ">
<path fill="none" stroke="#63b8ff" d="M303.97,-183.48C293.11,-174.28 281.36,-163.96 271,-154 268.03,-151.14 265.02,-148.18 262.01,-145.17"/>
<polygon fill="none" stroke="#63b8ff" points="301.79,-186.21 311.7,-189.95 306.28,-180.84 301.79,-186.21"/>
</a>
</g>
</g>
<!-- Node5 -->
<g id="Node000005" class="node">
<title>Node5</title>
<g id="a_Node000005"><a xlink:href="classnmr_1_1HisImidazoleRing.html" target="_top" xlink:title=" ">
<polygon fill="white" stroke="transparent" points="402,-146.5 280,-146.5 280,-7.5 402,-7.5 402,-146.5"/>
<text text-anchor="start" x="285" y="-134" font-family="Helvetica,sans-Serif" font-size="10.00">nmr::HisImidazoleRing</text>
<text text-anchor="start" x="339" y="-119" font-family="Helvetica,sans-Serif" font-size="10.00"> </text>
<text text-anchor="start" x="284.5" y="-104" font-family="Helvetica,sans-Serif" font-size="10.00">+</text>
<text text-anchor="start" x="298" y="-104" font-family="Helvetica,sans-Serif" font-size="10.00">HisImidazoleRing()</text>
<text text-anchor="start" x="284.5" y="-89" font-family="Helvetica,sans-Serif" font-size="10.00">+</text>
<text text-anchor="start" x="298" y="-89" font-family="Helvetica,sans-Serif" font-size="10.00">Intensity()</text>
<text text-anchor="start" x="284.5" y="-74" font-family="Helvetica,sans-Serif" font-size="10.00">+</text>
<text text-anchor="start" x="298" y="-74" font-family="Helvetica,sans-Serif" font-size="10.00">LiteratureIntensity()</text>
<text text-anchor="start" x="284.5" y="-59" font-family="Helvetica,sans-Serif" font-size="10.00">+</text>
<text text-anchor="start" x="298" y="-59" font-family="Helvetica,sans-Serif" font-size="10.00">JBLobeOffset()</text>
<text text-anchor="start" x="284.5" y="-44" font-family="Helvetica,sans-Serif" font-size="10.00">+</text>
<text text-anchor="start" x="298" y="-44" font-family="Helvetica,sans-Serif" font-size="10.00">NitrogenCount()</text>
<text text-anchor="start" x="284.5" y="-29" font-family="Helvetica,sans-Serif" font-size="10.00">+</text>
<text text-anchor="start" x="298" y="-29" font-family="Helvetica,sans-Serif" font-size="10.00">Aromaticity()</text>
<text text-anchor="start" x="284.5" y="-14" font-family="Helvetica,sans-Serif" font-size="10.00">+</text>
<text text-anchor="start" x="298" y="-14" font-family="Helvetica,sans-Serif" font-size="10.00">TypeName()</text>
<polygon fill="#666666" stroke="#666666" points="280,-129 280,-129 402,-129 402,-129 280,-129"/>
<polygon fill="#666666" stroke="#666666" points="280,-114 280,-114 402,-114 402,-114 280,-114"/>
<polygon fill="none" stroke="#666666" points="280,-7.5 280,-146.5 402,-146.5 402,-7.5 280,-7.5"/>
</a>
</g>
</g>
<!-- Node2&#45;&gt;Node5 -->
<g id="edge4_Node000002_Node000005" class="edge">
<title>Node2&#45;&gt;Node5</title>
<g id="a_edge4_Node000002_Node000005"><a xlink:title=" ">
<path fill="none" stroke="#63b8ff" d="M341,-179.58C341,-169.54 341,-158.16 341,-146.74"/>
<polygon fill="none" stroke="#63b8ff" points="337.5,-179.9 341,-189.9 344.5,-179.9 337.5,-179.9"/>
</a>
</g>
</g>
<!-- Node6 -->
<g id="Node000006" class="node">
<title>Node6</title>
<g id="a_Node000006"><a xlink:href="classnmr_1_1TrpPyrroleRing.html" target="_top" xlink:title=" ">
<polygon fill="white" stroke="transparent" points="539.5,-146.5 420.5,-146.5 420.5,-7.5 539.5,-7.5 539.5,-146.5"/>
<text text-anchor="start" x="432" y="-134" font-family="Helvetica,sans-Serif" font-size="10.00">nmr::TrpPyrroleRing</text>
<text text-anchor="start" x="478.5" y="-119" font-family="Helvetica,sans-Serif" font-size="10.00"> </text>
<text text-anchor="start" x="425" y="-104" font-family="Helvetica,sans-Serif" font-size="10.00">+</text>
<text text-anchor="start" x="438" y="-104" font-family="Helvetica,sans-Serif" font-size="10.00">TrpPyrroleRing()</text>
<text text-anchor="start" x="425" y="-89" font-family="Helvetica,sans-Serif" font-size="10.00">+</text>
<text text-anchor="start" x="438" y="-89" font-family="Helvetica,sans-Serif" font-size="10.00">Intensity()</text>
<text text-anchor="start" x="425" y="-74" font-family="Helvetica,sans-Serif" font-size="10.00">+</text>
<text text-anchor="start" x="438" y="-74" font-family="Helvetica,sans-Serif" font-size="10.00">LiteratureIntensity()</text>
<text text-anchor="start" x="425" y="-59" font-family="Helvetica,sans-Serif" font-size="10.00">+</text>
<text text-anchor="start" x="438" y="-59" font-family="Helvetica,sans-Serif" font-size="10.00">JBLobeOffset()</text>
<text text-anchor="start" x="425" y="-44" font-family="Helvetica,sans-Serif" font-size="10.00">+</text>
<text text-anchor="start" x="438" y="-44" font-family="Helvetica,sans-Serif" font-size="10.00">NitrogenCount()</text>
<text text-anchor="start" x="425" y="-29" font-family="Helvetica,sans-Serif" font-size="10.00">+</text>
<text text-anchor="start" x="438" y="-29" font-family="Helvetica,sans-Serif" font-size="10.00">Aromaticity()</text>
<text text-anchor="start" x="425" y="-14" font-family="Helvetica,sans-Serif" font-size="10.00">+</text>
<text text-anchor="start" x="438" y="-14" font-family="Helvetica,sans-Serif" font-size="10.00">TypeName()</text>
<polygon fill="#666666" stroke="#666666" points="421,-129 421,-129 540,-129 540,-129 421,-129"/>
<polygon fill="#666666" stroke="#666666" points="421,-114 421,-114 540,-114 540,-114 421,-114"/>
<polygon fill="none" stroke="#666666" points="420.5,-7.5 420.5,-146.5 539.5,-146.5 539.5,-7.5 420.5,-7.5"/>
</a>
</g>
</g>
<!-- Node2&#45;&gt;Node6 -->
<g id="edge5_Node000002_Node000006" class="edge">
<title>Node2&#45;&gt;Node6</title>
<g id="a_edge5_Node000002_Node000006"><a xlink:title=" ">
<path fill="none" stroke="#63b8ff" d="M378.07,-183.52C388.94,-174.33 400.67,-164 411,-154 414.07,-151.03 417.18,-147.94 420.28,-144.79"/>
<polygon fill="none" stroke="#63b8ff" points="375.76,-180.89 370.34,-189.99 380.26,-186.26 375.76,-180.89"/>
</a>
</g>
</g>
<!-- Node8 -->
<g id="Node000008" class="node">
<title>Node8</title>
<g id="a_Node000008"><a xlink:href="classnmr_1_1IndolePerimeterRing.html" target="_top" xlink:title=" ">
<polygon fill="white" stroke="transparent" points="694,-154 558,-154 558,0 694,0 694,-154"/>
<text text-anchor="start" x="563" y="-142" font-family="Helvetica,sans-Serif" font-size="10.00">nmr::IndolePerimeterRing</text>
<text text-anchor="start" x="624" y="-127" font-family="Helvetica,sans-Serif" font-size="10.00"> </text>
<text text-anchor="start" x="563.5" y="-112" font-family="Helvetica,sans-Serif" font-size="10.00">+</text>
<text text-anchor="start" x="578" y="-112" font-family="Helvetica,sans-Serif" font-size="10.00">IndolePerimeterRing()</text>
<text text-anchor="start" x="563.5" y="-97" font-family="Helvetica,sans-Serif" font-size="10.00">+</text>
<text text-anchor="start" x="578" y="-97" font-family="Helvetica,sans-Serif" font-size="10.00">Intensity()</text>
<text text-anchor="start" x="563.5" y="-82" font-family="Helvetica,sans-Serif" font-size="10.00">+</text>
<text text-anchor="start" x="578" y="-82" font-family="Helvetica,sans-Serif" font-size="10.00">LiteratureIntensity()</text>
<text text-anchor="start" x="563.5" y="-67" font-family="Helvetica,sans-Serif" font-size="10.00">+</text>
<text text-anchor="start" x="578" y="-67" font-family="Helvetica,sans-Serif" font-size="10.00">JBLobeOffset()</text>
<text text-anchor="start" x="563.5" y="-52" font-family="Helvetica,sans-Serif" font-size="10.00">+</text>
<text text-anchor="start" x="578" y="-52" font-family="Helvetica,sans-Serif" font-size="10.00">NitrogenCount()</text>
<text text-anchor="start" x="563.5" y="-37" font-family="Helvetica,sans-Serif" font-size="10.00">+</text>
<text text-anchor="start" x="578" y="-37" font-family="Helvetica,sans-Serif" font-size="10.00">Aromaticity()</text>
<text text-anchor="start" x="563.5" y="-22" font-family="Helvetica,sans-Serif" font-size="10.00">+</text>
<text text-anchor="start" x="578" y="-22" font-family="Helvetica,sans-Serif" font-size="10.00">RingSizeValue()</text>
<text text-anchor="start" x="563.5" y="-7" font-family="Helvetica,sans-Serif" font-size="10.00">+</text>
<text text-anchor="start" x="578" y="-7" font-family="Helvetica,sans-Serif" font-size="10.00">TypeName()</text>
<polygon fill="#666666" stroke="#666666" points="558,-137 558,-137 694,-137 694,-137 558,-137"/>
<polygon fill="#666666" stroke="#666666" points="558,-122 558,-122 694,-122 694,-122 558,-122"/>
<polygon fill="none" stroke="#666666" points="558,0 558,-154 694,-154 694,0 558,0"/>
</a>
</g>
</g>
<!-- Node7&#45;&gt;Node8 -->
<g id="edge7_Node000007_Node000008" class="edge">
<title>Node7&#45;&gt;Node8</title>
<g id="a_edge7_Node000007_Node000008"><a xlink:title=" ">
<path fill="none" stroke="#63b8ff" d="M626,-179.66C626,-171.74 626,-162.97 626,-154.01"/>
<polygon fill="none" stroke="#63b8ff" points="622.5,-179.9 626,-189.9 629.5,-179.9 622.5,-179.9"/>
</a>
</g>
</g>
<!-- Node10 -->
<g id="Node000010" class="node">
<title>Node10</title>
<g id="a_Node000010"><a xlink:href="classnmr_1_1PheBenzeneRing.html" target="_top" xlink:title=" ">
<polygon fill="white" stroke="transparent" points="831.5,-146.5 712.5,-146.5 712.5,-7.5 831.5,-7.5 831.5,-146.5"/>
<text text-anchor="start" x="718.5" y="-134" font-family="Helvetica,sans-Serif" font-size="10.00">nmr::PheBenzeneRing</text>
<text text-anchor="start" x="770.5" y="-119" font-family="Helvetica,sans-Serif" font-size="10.00"> </text>
<text text-anchor="start" x="717" y="-104" font-family="Helvetica,sans-Serif" font-size="10.00">+</text>
<text text-anchor="start" x="730" y="-104" font-family="Helvetica,sans-Serif" font-size="10.00">PheBenzeneRing()</text>
<text text-anchor="start" x="717" y="-89" font-family="Helvetica,sans-Serif" font-size="10.00">+</text>
<text text-anchor="start" x="730" y="-89" font-family="Helvetica,sans-Serif" font-size="10.00">Intensity()</text>
<text text-anchor="start" x="717" y="-74" font-family="Helvetica,sans-Serif" font-size="10.00">+</text>
<text text-anchor="start" x="730" y="-74" font-family="Helvetica,sans-Serif" font-size="10.00">LiteratureIntensity()</text>
<text text-anchor="start" x="717" y="-59" font-family="Helvetica,sans-Serif" font-size="10.00">+</text>
<text text-anchor="start" x="730" y="-59" font-family="Helvetica,sans-Serif" font-size="10.00">JBLobeOffset()</text>
<text text-anchor="start" x="717" y="-44" font-family="Helvetica,sans-Serif" font-size="10.00">+</text>
<text text-anchor="start" x="730" y="-44" font-family="Helvetica,sans-Serif" font-size="10.00">NitrogenCount()</text>
<text text-anchor="start" x="717" y="-29" font-family="Helvetica,sans-Serif" font-size="10.00">+</text>
<text text-anchor="start" x="730" y="-29" font-family="Helvetica,sans-Serif" font-size="10.00">Aromaticity()</text>
<text text-anchor="start" x="717" y="-14" font-family="Helvetica,sans-Serif" font-size="10.00">+</text>
<text text-anchor="start" x="730" y="-14" font-family="Helvetica,sans-Serif" font-size="10.00">TypeName()</text>
<polygon fill="#666666" stroke="#666666" points="713,-129 713,-129 832,-129 832,-129 713,-129"/>
<polygon fill="#666666" stroke="#666666" points="713,-114 713,-114 832,-114 832,-114 713,-114"/>
<polygon fill="none" stroke="#666666" points="712.5,-7.5 712.5,-146.5 831.5,-146.5 831.5,-7.5 712.5,-7.5"/>
</a>
</g>
</g>
<!-- Node9&#45;&gt;Node10 -->
<g id="edge9_Node000009_Node000010" class="edge">
<title>Node9&#45;&gt;Node10</title>
<g id="a_edge9_Node000009_Node000010"><a xlink:title=" ">
<path fill="none" stroke="#63b8ff" d="M823.62,-180.86C818.42,-170.51 812.47,-158.65 806.5,-146.74"/>
<polygon fill="none" stroke="#63b8ff" points="820.54,-182.53 828.16,-189.9 826.8,-179.39 820.54,-182.53"/>
</a>
</g>
</g>
<!-- Node11 -->
<g id="Node000011" class="node">
<title>Node11</title>
<g id="a_Node000011"><a xlink:href="classnmr_1_1TrpBenzeneRing.html" target="_top" xlink:title=" ">
<polygon fill="white" stroke="transparent" points="968.5,-146.5 849.5,-146.5 849.5,-7.5 968.5,-7.5 968.5,-146.5"/>
<text text-anchor="start" x="857.5" y="-134" font-family="Helvetica,sans-Serif" font-size="10.00">nmr::TrpBenzeneRing</text>
<text text-anchor="start" x="907.5" y="-119" font-family="Helvetica,sans-Serif" font-size="10.00"> </text>
<text text-anchor="start" x="854" y="-104" font-family="Helvetica,sans-Serif" font-size="10.00">+</text>
<text text-anchor="start" x="867" y="-104" font-family="Helvetica,sans-Serif" font-size="10.00">TrpBenzeneRing()</text>
<text text-anchor="start" x="854" y="-89" font-family="Helvetica,sans-Serif" font-size="10.00">+</text>
<text text-anchor="start" x="867" y="-89" font-family="Helvetica,sans-Serif" font-size="10.00">Intensity()</text>
<text text-anchor="start" x="854" y="-74" font-family="Helvetica,sans-Serif" font-size="10.00">+</text>
<text text-anchor="start" x="867" y="-74" font-family="Helvetica,sans-Serif" font-size="10.00">LiteratureIntensity()</text>
<text text-anchor="start" x="854" y="-59" font-family="Helvetica,sans-Serif" font-size="10.00">+</text>
<text text-anchor="start" x="867" y="-59" font-family="Helvetica,sans-Serif" font-size="10.00">JBLobeOffset()</text>
<text text-anchor="start" x="854" y="-44" font-family="Helvetica,sans-Serif" font-size="10.00">+</text>
<text text-anchor="start" x="867" y="-44" font-family="Helvetica,sans-Serif" font-size="10.00">NitrogenCount()</text>
<text text-anchor="start" x="854" y="-29" font-family="Helvetica,sans-Serif" font-size="10.00">+</text>
<text text-anchor="start" x="867" y="-29" font-family="Helvetica,sans-Serif" font-size="10.00">Aromaticity()</text>
<text text-anchor="start" x="854" y="-14" font-family="Helvetica,sans-Serif" font-size="10.00">+</text>
<text text-anchor="start" x="867" y="-14" font-family="Helvetica,sans-Serif" font-size="10.00">TypeName()</text>
<polygon fill="#666666" stroke="#666666" points="850,-129 850,-129 969,-129 969,-129 850,-129"/>
<polygon fill="#666666" stroke="#666666" points="850,-114 850,-114 969,-114 969,-114 850,-114"/>
<polygon fill="none" stroke="#666666" points="849.5,-7.5 849.5,-146.5 968.5,-146.5 968.5,-7.5 849.5,-7.5"/>
</a>
</g>
</g>
<!-- Node9&#45;&gt;Node11 -->
<g id="edge10_Node000009_Node000011" class="edge">
<title>Node9&#45;&gt;Node11</title>
<g id="a_edge10_Node000009_Node000011"><a xlink:title=" ">
<path fill="none" stroke="#63b8ff" d="M856.62,-180.86C861.89,-170.51 867.93,-158.65 873.99,-146.74"/>
<polygon fill="none" stroke="#63b8ff" points="853.44,-179.4 852.02,-189.9 859.68,-182.57 853.44,-179.4"/>
</a>
</g>
</g>
<!-- Node12 -->
<g id="Node000012" class="node">
<title>Node12</title>
<g id="a_Node000012"><a xlink:href="classnmr_1_1TyrPhenolRing.html" target="_top" xlink:title=" ">
<polygon fill="white" stroke="transparent" points="1105.5,-146.5 986.5,-146.5 986.5,-7.5 1105.5,-7.5 1105.5,-146.5"/>
<text text-anchor="start" x="999" y="-134" font-family="Helvetica,sans-Serif" font-size="10.00">nmr::TyrPhenolRing</text>
<text text-anchor="start" x="1044.5" y="-119" font-family="Helvetica,sans-Serif" font-size="10.00"> </text>
<text text-anchor="start" x="991" y="-104" font-family="Helvetica,sans-Serif" font-size="10.00">+</text>
<text text-anchor="start" x="1004" y="-104" font-family="Helvetica,sans-Serif" font-size="10.00">TyrPhenolRing()</text>
<text text-anchor="start" x="991" y="-89" font-family="Helvetica,sans-Serif" font-size="10.00">+</text>
<text text-anchor="start" x="1004" y="-89" font-family="Helvetica,sans-Serif" font-size="10.00">Intensity()</text>
<text text-anchor="start" x="991" y="-74" font-family="Helvetica,sans-Serif" font-size="10.00">+</text>
<text text-anchor="start" x="1004" y="-74" font-family="Helvetica,sans-Serif" font-size="10.00">LiteratureIntensity()</text>
<text text-anchor="start" x="991" y="-59" font-family="Helvetica,sans-Serif" font-size="10.00">+</text>
<text text-anchor="start" x="1004" y="-59" font-family="Helvetica,sans-Serif" font-size="10.00">JBLobeOffset()</text>
<text text-anchor="start" x="991" y="-44" font-family="Helvetica,sans-Serif" font-size="10.00">+</text>
<text text-anchor="start" x="1004" y="-44" font-family="Helvetica,sans-Serif" font-size="10.00">NitrogenCount()</text>
<text text-anchor="start" x="991" y="-29" font-family="Helvetica,sans-Serif" font-size="10.00">+</text>
<text text-anchor="start" x="1004" y="-29" font-family="Helvetica,sans-Serif" font-size="10.00">Aromaticity()</text>
<text text-anchor="start" x="991" y="-14" font-family="Helvetica,sans-Serif" font-size="10.00">+</text>
<text text-anchor="start" x="1004" y="-14" font-family="Helvetica,sans-Serif" font-size="10.00">TypeName()</text>
<polygon fill="#666666" stroke="#666666" points="987,-129 987,-129 1106,-129 1106,-129 987,-129"/>
<polygon fill="#666666" stroke="#666666" points="987,-114 987,-114 1106,-114 1106,-114 987,-114"/>
<polygon fill="none" stroke="#666666" points="986.5,-7.5 986.5,-146.5 1105.5,-146.5 1105.5,-7.5 986.5,-7.5"/>
</a>
</g>
</g>
<!-- Node9&#45;&gt;Node12 -->
<g id="edge11_Node000009_Node000012" class="edge">
<title>Node9&#45;&gt;Node12</title>
<g id="a_edge11_Node000009_Node000012"><a xlink:title=" ">
<path fill="none" stroke="#63b8ff" d="M912.2,-189.28C934.39,-180.06 958.18,-168.27 978,-154 981.16,-151.72 984.28,-149.28 987.34,-146.71"/>
<polygon fill="none" stroke="#63b8ff" points="910.77,-186.08 902.8,-193.07 913.39,-192.58 910.77,-186.08"/>
</a>
</g>
</g>
</g>
</svg>
