<?xml version="1.0" encoding="UTF-8" standalone="no"?>
<!DOCTYPE svg PUBLIC "-//W3C//DTD SVG 1.1//EN"
 "http://www.w3.org/Graphics/SVG/1.1/DTD/svg11.dtd">
<!-- Generated by graphviz version 2.43.0 (0)
 -->
<!-- Title: nmr::SpatialIndexResult Pages: 1 -->
<svg width="143pt" height="382pt"
 viewBox="0.00 0.00 143.00 382.00" xmlns="http://www.w3.org/2000/svg" xmlns:xlink="http://www.w3.org/1999/xlink">
<g id="graph0" class="graph" transform="scale(1 1) rotate(0) translate(4 378)">
<title>nmr::SpatialIndexResult</title>
<!-- Node1 -->
<g id="Node000001" class="node">
<title>Node1</title>
<g id="a_Node000001"><a xlink:title=" ">
<polygon fill="#999999" stroke="transparent" points="131.5,-229 3.5,-229 3.5,0 131.5,0 131.5,-229"/>
<text text-anchor="start" x="8.5" y="-216.5" font-family="Helvetica,sans-Serif" font-size="10.00">nmr::SpatialIndexResult</text>
<text text-anchor="start" x="10.5" y="-201.5" font-family="Helvetica,sans-Serif" font-size="10.00">&#45;</text>
<text text-anchor="start" x="21.5" y="-201.5" font-family="Helvetica,sans-Serif" font-size="10.00">conf_</text>
<text text-anchor="start" x="10.5" y="-186.5" font-family="Helvetica,sans-Serif" font-size="10.00">&#45;</text>
<text text-anchor="start" x="21.5" y="-186.5" font-family="Helvetica,sans-Serif" font-size="10.00">atom_cloud_</text>
<text text-anchor="start" x="10.5" y="-171.5" font-family="Helvetica,sans-Serif" font-size="10.00">&#45;</text>
<text text-anchor="start" x="21.5" y="-171.5" font-family="Helvetica,sans-Serif" font-size="10.00">ring_cloud_</text>
<text text-anchor="start" x="10.5" y="-156.5" font-family="Helvetica,sans-Serif" font-size="10.00">&#45;</text>
<text text-anchor="start" x="21.5" y="-156.5" font-family="Helvetica,sans-Serif" font-size="10.00">bond_cloud_</text>
<text text-anchor="start" x="10.5" y="-141.5" font-family="Helvetica,sans-Serif" font-size="10.00">&#45;</text>
<text text-anchor="start" x="21.5" y="-141.5" font-family="Helvetica,sans-Serif" font-size="10.00">atom_tree_</text>
<text text-anchor="start" x="10.5" y="-126.5" font-family="Helvetica,sans-Serif" font-size="10.00">&#45;</text>
<text text-anchor="start" x="21.5" y="-126.5" font-family="Helvetica,sans-Serif" font-size="10.00">ring_tree_</text>
<text text-anchor="start" x="10.5" y="-111.5" font-family="Helvetica,sans-Serif" font-size="10.00">&#45;</text>
<text text-anchor="start" x="21.5" y="-111.5" font-family="Helvetica,sans-Serif" font-size="10.00">bond_tree_</text>
<text text-anchor="start" x="8" y="-96.5" font-family="Helvetica,sans-Serif" font-size="10.00">+</text>
<text text-anchor="start" x="21.5" y="-96.5" font-family="Helvetica,sans-Serif" font-size="10.00">Name()</text>
<text text-anchor="start" x="8" y="-81.5" font-family="Helvetica,sans-Serif" font-size="10.00">+</text>
<text text-anchor="start" x="21.5" y="-81.5" font-family="Helvetica,sans-Serif" font-size="10.00">Dependencies()</text>
<text text-anchor="start" x="8" y="-66.5" font-family="Helvetica,sans-Serif" font-size="10.00">+</text>
<text text-anchor="start" x="21.5" y="-66.5" font-family="Helvetica,sans-Serif" font-size="10.00">AtomsWithinRadius()</text>
<text text-anchor="start" x="8" y="-51.5" font-family="Helvetica,sans-Serif" font-size="10.00">+</text>
<text text-anchor="start" x="21.5" y="-51.5" font-family="Helvetica,sans-Serif" font-size="10.00">KNearestAtoms()</text>
<text text-anchor="start" x="8" y="-36.5" font-family="Helvetica,sans-Serif" font-size="10.00">+</text>
<text text-anchor="start" x="21.5" y="-36.5" font-family="Helvetica,sans-Serif" font-size="10.00">RingsWithinRadius()</text>
<text text-anchor="start" x="8" y="-21.5" font-family="Helvetica,sans-Serif" font-size="10.00">+</text>
<text text-anchor="start" x="21.5" y="-21.5" font-family="Helvetica,sans-Serif" font-size="10.00">BondsWithinRadius()</text>
<text text-anchor="start" x="8" y="-6.5" font-family="Helvetica,sans-Serif" font-size="10.00">+</text>
<text text-anchor="start" x="21.5" y="-6.5" font-family="Helvetica,sans-Serif" font-size="10.00">Compute()</text>
<polygon fill="#666666" stroke="#666666" points="3.5,-211.5 3.5,-211.5 131.5,-211.5 131.5,-211.5 3.5,-211.5"/>
<polygon fill="#666666" stroke="#666666" points="3.5,-106.5 3.5,-106.5 19.5,-106.5 19.5,-106.5 3.5,-106.5"/>
<polygon fill="#666666" stroke="#666666" points="19.5,-106.5 19.5,-106.5 131.5,-106.5 131.5,-106.5 19.5,-106.5"/>
<polygon fill="none" stroke="#666666" points="3.5,0 3.5,-229 131.5,-229 131.5,0 3.5,0"/>
</a>
</g>
</g>
<!-- Node2 -->
<g id="Node000002" class="node">
<title>Node2</title>
<g id="a_Node000002"><a xlink:href="classnmr_1_1ConformationResult.html" target="_top" xlink:title=" ">
<polygon fill="white" stroke="transparent" points="135,-374 0,-374 0,-265 135,-265 135,-374"/>
<text text-anchor="start" x="6" y="-361.5" font-family="Helvetica,sans-Serif" font-size="10.00">nmr::ConformationResult</text>
<text text-anchor="start" x="66" y="-346.5" font-family="Helvetica,sans-Serif" font-size="10.00"> </text>
<text text-anchor="start" x="4.5" y="-331.5" font-family="Helvetica,sans-Serif" font-size="10.00">+</text>
<text text-anchor="start" x="17.5" y="-331.5" font-family="Helvetica,sans-Serif" font-size="10.00">~ConformationResult()</text>
<text text-anchor="start" x="4.5" y="-316.5" font-family="Helvetica,sans-Serif" font-size="10.00">+</text>
<text text-anchor="start" x="17.5" y="-316.5" font-family="Helvetica,sans-Serif" font-size="10.00">Name()</text>
<text text-anchor="start" x="4.5" y="-301.5" font-family="Helvetica,sans-Serif" font-size="10.00">+</text>
<text text-anchor="start" x="17.5" y="-301.5" font-family="Helvetica,sans-Serif" font-size="10.00">Dependencies()</text>
<text text-anchor="start" x="4.5" y="-286.5" font-family="Helvetica,sans-Serif" font-size="10.00">+</text>
<text text-anchor="start" x="17.5" y="-286.5" font-family="Helvetica,sans-Serif" font-size="10.00">WriteFeatures()</text>
<text text-anchor="start" x="4.5" y="-271.5" font-family="Helvetica,sans-Serif" font-size="10.00">+</text>
<text text-anchor="start" x="17.5" y="-271.5" font-family="Helvetica,sans-Serif" font-size="10.00">WriteAllFeatures()</text>
<polygon fill="#666666" stroke="#666666" points="0.5,-356.5 0.5,-356.5 135.5,-356.5 135.5,-356.5 0.5,-356.5"/>
<polygon fill="#666666" stroke="#666666" points="0.5,-341.5 0.5,-341.5 135.5,-341.5 135.5,-341.5 0.5,-341.5"/>
<polygon fill="none" stroke="#666666" points="0,-265 0,-374 135,-374 135,-265 0,-265"/>
</a>
</g>
</g>
<!-- Node2&#45;&gt;Node1 -->
<g id="edge1_Node000001_Node000002" class="edge">
<title>Node2&#45;&gt;Node1</title>
<g id="a_edge1_Node000001_Node000002"><a xlink:title=" ">
<path fill="none" stroke="#63b8ff" d="M67.5,-254.71C67.5,-246.5 67.5,-237.89 67.5,-229.17"/>
<polygon fill="none" stroke="#63b8ff" points="64,-254.9 67.5,-264.9 71,-254.9 64,-254.9"/>
</a>
</g>
</g>
</g>
</svg>
