<?xml version="1.0" encoding="UTF-8" standalone="no"?>
<!DOCTYPE svg PUBLIC "-//W3C//DTD SVG 1.1//EN"
 "http://www.w3.org/Graphics/SVG/1.1/DTD/svg11.dtd">
<!-- Generated by graphviz version 2.43.0 (0)
 -->
<!-- Title: nmr::MutationDeltaResult Pages: 1 -->
<svg width="164pt" height="532pt"
 viewBox="0.00 0.00 164.00 532.00" xmlns="http://www.w3.org/2000/svg" xmlns:xlink="http://www.w3.org/1999/xlink">
<g id="graph0" class="graph" transform="scale(1 1) rotate(0) translate(4 528)">
<title>nmr::MutationDeltaResult</title>
<!-- Node1 -->
<g id="Node000001" class="node">
<title>Node1</title>
<g id="a_Node000001"><a xlink:title=" ">
<polygon fill="#999999" stroke="transparent" points="156,-379 0,-379 0,0 156,0 156,-379"/>
<text text-anchor="start" x="14.5" y="-366.5" font-family="Helvetica,sans-Serif" font-size="10.00">nmr::MutationDeltaResult</text>
<text text-anchor="start" x="6.5" y="-351.5" font-family="Helvetica,sans-Serif" font-size="10.00">&#45;</text>
<text text-anchor="start" x="17" y="-351.5" font-family="Helvetica,sans-Serif" font-size="10.00">wt_conf_</text>
<text text-anchor="start" x="6.5" y="-336.5" font-family="Helvetica,sans-Serif" font-size="10.00">&#45;</text>
<text text-anchor="start" x="17" y="-336.5" font-family="Helvetica,sans-Serif" font-size="10.00">wt_to_matched_</text>
<text text-anchor="start" x="6.5" y="-321.5" font-family="Helvetica,sans-Serif" font-size="10.00">&#45;</text>
<text text-anchor="start" x="17" y="-321.5" font-family="Helvetica,sans-Serif" font-size="10.00">matched_atoms_</text>
<text text-anchor="start" x="6.5" y="-306.5" font-family="Helvetica,sans-Serif" font-size="10.00">&#45;</text>
<text text-anchor="start" x="17" y="-306.5" font-family="Helvetica,sans-Serif" font-size="10.00">mutation_sites_</text>
<text text-anchor="start" x="6.5" y="-291.5" font-family="Helvetica,sans-Serif" font-size="10.00">&#45;</text>
<text text-anchor="start" x="17" y="-291.5" font-family="Helvetica,sans-Serif" font-size="10.00">summary_</text>
<text text-anchor="start" x="6.5" y="-276.5" font-family="Helvetica,sans-Serif" font-size="10.00">&#45;</text>
<text text-anchor="start" x="17" y="-276.5" font-family="Helvetica,sans-Serif" font-size="10.00">has_apbs_delta_</text>
<text text-anchor="start" x="6.5" y="-261.5" font-family="Helvetica,sans-Serif" font-size="10.00">&#45;</text>
<text text-anchor="start" x="17" y="-261.5" font-family="Helvetica,sans-Serif" font-size="10.00">has_mopac_delta_</text>
<text text-anchor="start" x="6.5" y="-246.5" font-family="Helvetica,sans-Serif" font-size="10.00">&#45;</text>
<text text-anchor="start" x="17" y="-246.5" font-family="Helvetica,sans-Serif" font-size="10.00">has_dssp_delta_</text>
<text text-anchor="start" x="6.5" y="-231.5" font-family="Helvetica,sans-Serif" font-size="10.00">&#45;</text>
<text text-anchor="start" x="17" y="-231.5" font-family="Helvetica,sans-Serif" font-size="10.00">has_graph_delta_</text>
<text text-anchor="start" x="6.5" y="-216.5" font-family="Helvetica,sans-Serif" font-size="10.00">&#45;</text>
<text text-anchor="start" x="17" y="-216.5" font-family="Helvetica,sans-Serif" font-size="10.00">zero_mat3_</text>
<text text-anchor="start" x="6.5" y="-201.5" font-family="Helvetica,sans-Serif" font-size="10.00">&#45;</text>
<text text-anchor="start" x="17" y="-201.5" font-family="Helvetica,sans-Serif" font-size="10.00">zero_spherical_</text>
<text text-anchor="start" x="6.5" y="-186.5" font-family="Helvetica,sans-Serif" font-size="10.00">&#45;</text>
<text text-anchor="start" x="17" y="-186.5" font-family="Helvetica,sans-Serif" font-size="10.00">empty_match_</text>
<text text-anchor="start" x="4" y="-171.5" font-family="Helvetica,sans-Serif" font-size="10.00">+</text>
<text text-anchor="start" x="17" y="-171.5" font-family="Helvetica,sans-Serif" font-size="10.00">Name()</text>
<text text-anchor="start" x="4" y="-156.5" font-family="Helvetica,sans-Serif" font-size="10.00">+</text>
<text text-anchor="start" x="17" y="-156.5" font-family="Helvetica,sans-Serif" font-size="10.00">Dependencies()</text>
<text text-anchor="start" x="4" y="-141.5" font-family="Helvetica,sans-Serif" font-size="10.00">+</text>
<text text-anchor="start" x="17" y="-141.5" font-family="Helvetica,sans-Serif" font-size="10.00">WriteFeatures()</text>
<text text-anchor="start" x="4" y="-126.5" font-family="Helvetica,sans-Serif" font-size="10.00">+</text>
<text text-anchor="start" x="17" y="-126.5" font-family="Helvetica,sans-Serif" font-size="10.00">MatchedAtomCount()</text>
<text text-anchor="start" x="4" y="-111.5" font-family="Helvetica,sans-Serif" font-size="10.00">+</text>
<text text-anchor="start" x="17" y="-111.5" font-family="Helvetica,sans-Serif" font-size="10.00">UnmatchedWtAtomCount()</text>
<text text-anchor="start" x="4" y="-96.5" font-family="Helvetica,sans-Serif" font-size="10.00">+</text>
<text text-anchor="start" x="17" y="-96.5" font-family="Helvetica,sans-Serif" font-size="10.00">HasMatch()</text>
<text text-anchor="start" x="4" y="-81.5" font-family="Helvetica,sans-Serif" font-size="10.00">+</text>
<text text-anchor="start" x="17" y="-81.5" font-family="Helvetica,sans-Serif" font-size="10.00">MatchedDataAt()</text>
<text text-anchor="start" x="4" y="-66.5" font-family="Helvetica,sans-Serif" font-size="10.00">+</text>
<text text-anchor="start" x="17" y="-66.5" font-family="Helvetica,sans-Serif" font-size="10.00">DeltaShieldingAt()</text>
<text text-anchor="start" x="4" y="-51.5" font-family="Helvetica,sans-Serif" font-size="10.00">+</text>
<text text-anchor="start" x="17" y="-51.5" font-family="Helvetica,sans-Serif" font-size="10.00">DeltaShieldingSphericalAt()</text>
<text text-anchor="start" x="4" y="-36.5" font-family="Helvetica,sans-Serif" font-size="10.00">+</text>
<text text-anchor="start" x="17" y="-36.5" font-family="Helvetica,sans-Serif" font-size="10.00">DeltaT0At()</text>
<text text-anchor="start" x="17" y="-21.5" font-family="Helvetica,sans-Serif" font-size="10.00">and 13 more...</text>
<text text-anchor="start" x="4" y="-6.5" font-family="Helvetica,sans-Serif" font-size="10.00">+</text>
<text text-anchor="start" x="17" y="-6.5" font-family="Helvetica,sans-Serif" font-size="10.00">Compute()</text>
<polygon fill="#666666" stroke="#666666" points="0,-361.5 0,-361.5 156,-361.5 156,-361.5 0,-361.5"/>
<polygon fill="#666666" stroke="#666666" points="0,-181.5 0,-181.5 15,-181.5 15,-181.5 0,-181.5"/>
<polygon fill="#666666" stroke="#666666" points="15,-181.5 15,-181.5 156,-181.5 156,-181.5 15,-181.5"/>
<polygon fill="none" stroke="#666666" points="0,0 0,-379 156,-379 156,0 0,0"/>
</a>
</g>
</g>
<!-- Node2 -->
<g id="Node000002" class="node">
<title>Node2</title>
<g id="a_Node000002"><a xlink:href="classnmr_1_1ConformationResult.html" target="_top" xlink:title=" ">
<polygon fill="white" stroke="transparent" points="145.5,-524 10.5,-524 10.5,-415 145.5,-415 145.5,-524"/>
<text text-anchor="start" x="16.5" y="-511.5" font-family="Helvetica,sans-Serif" font-size="10.00">nmr::ConformationResult</text>
<text text-anchor="start" x="76.5" y="-496.5" font-family="Helvetica,sans-Serif" font-size="10.00"> </text>
<text text-anchor="start" x="15" y="-481.5" font-family="Helvetica,sans-Serif" font-size="10.00">+</text>
<text text-anchor="start" x="28" y="-481.5" font-family="Helvetica,sans-Serif" font-size="10.00">~ConformationResult()</text>
<text text-anchor="start" x="15" y="-466.5" font-family="Helvetica,sans-Serif" font-size="10.00">+</text>
<text text-anchor="start" x="28" y="-466.5" font-family="Helvetica,sans-Serif" font-size="10.00">Name()</text>
<text text-anchor="start" x="15" y="-451.5" font-family="Helvetica,sans-Serif" font-size="10.00">+</text>
<text text-anchor="start" x="28" y="-451.5" font-family="Helvetica,sans-Serif" font-size="10.00">Dependencies()</text>
<text text-anchor="start" x="15" y="-436.5" font-family="Helvetica,sans-Serif" font-size="10.00">+</text>
<text text-anchor="start" x="28" y="-436.5" font-family="Helvetica,sans-Serif" font-size="10.00">WriteFeatures()</text>
<text text-anchor="start" x="15" y="-421.5" font-family="Helvetica,sans-Serif" font-size="10.00">+</text>
<text text-anchor="start" x="28" y="-421.5" font-family="Helvetica,sans-Serif" font-size="10.00">WriteAllFeatures()</text>
<polygon fill="#666666" stroke="#666666" points="11,-506.5 11,-506.5 146,-506.5 146,-506.5 11,-506.5"/>
<polygon fill="#666666" stroke="#666666" points="11,-491.5 11,-491.5 146,-491.5 146,-491.5 11,-491.5"/>
<polygon fill="none" stroke="#666666" points="10.5,-415 10.5,-524 145.5,-524 145.5,-415 10.5,-415"/>
</a>
</g>
</g>
<!-- Node2&#45;&gt;Node1 -->
<g id="edge1_Node000001_Node000002" class="edge">
<title>Node2&#45;&gt;Node1</title>
<g id="a_edge1_Node000001_Node000002"><a xlink:title=" ">
<path fill="none" stroke="#63b8ff" d="M78,-404.84C78,-396.68 78,-388.02 78,-379.04"/>
<polygon fill="none" stroke="#63b8ff" points="74.5,-404.9 78,-414.9 81.5,-404.9 74.5,-404.9"/>
</a>
</g>
</g>
</g>
</svg>
