<?xml version="1.0" encoding="UTF-8" standalone="no"?>
<!DOCTYPE svg PUBLIC "-//W3C//DTD SVG 1.1//EN"
 "http://www.w3.org/Graphics/SVG/1.1/DTD/svg11.dtd">
<!-- Generated by graphviz version 2.43.0 (0)
 -->
<!-- Title: nmr::GmxTprChargeSource Pages: 1 -->
<svg width="151pt" height="262pt"
 viewBox="0.00 0.00 151.00 262.00" xmlns="http://www.w3.org/2000/svg" xmlns:xlink="http://www.w3.org/1999/xlink">
<g id="graph0" class="graph" transform="scale(1 1) rotate(0) translate(4 258)">
<title>nmr::GmxTprChargeSource</title>
<!-- Node1 -->
<g id="Node000001" class="node">
<title>Node1</title>
<g id="a_Node000001"><a xlink:title=" ">
<polygon fill="#999999" stroke="transparent" points="143,-124 0,-124 0,0 143,0 143,-124"/>
<text text-anchor="start" x="5.5" y="-112" font-family="Helvetica,sans-Serif" font-size="10.00">nmr::GmxTprChargeSource</text>
<text text-anchor="start" x="8.5" y="-97" font-family="Helvetica,sans-Serif" font-size="10.00">&#45;</text>
<text text-anchor="start" x="20.5" y="-97" font-family="Helvetica,sans-Serif" font-size="10.00">gmx_</text>
<text text-anchor="start" x="8.5" y="-82" font-family="Helvetica,sans-Serif" font-size="10.00">&#45;</text>
<text text-anchor="start" x="20.5" y="-82" font-family="Helvetica,sans-Serif" font-size="10.00">tpr_</text>
<text text-anchor="start" x="8.5" y="-67" font-family="Helvetica,sans-Serif" font-size="10.00">&#45;</text>
<text text-anchor="start" x="20.5" y="-67" font-family="Helvetica,sans-Serif" font-size="10.00">ff_</text>
<text text-anchor="start" x="6" y="-52" font-family="Helvetica,sans-Serif" font-size="10.00">+</text>
<text text-anchor="start" x="20.5" y="-52" font-family="Helvetica,sans-Serif" font-size="10.00">GmxTprChargeSource()</text>
<text text-anchor="start" x="6" y="-37" font-family="Helvetica,sans-Serif" font-size="10.00">+</text>
<text text-anchor="start" x="20.5" y="-37" font-family="Helvetica,sans-Serif" font-size="10.00">SourceForceField()</text>
<text text-anchor="start" x="6" y="-22" font-family="Helvetica,sans-Serif" font-size="10.00">+</text>
<text text-anchor="start" x="20.5" y="-22" font-family="Helvetica,sans-Serif" font-size="10.00">Describe()</text>
<text text-anchor="start" x="6" y="-7" font-family="Helvetica,sans-Serif" font-size="10.00">+</text>
<text text-anchor="start" x="20.5" y="-7" font-family="Helvetica,sans-Serif" font-size="10.00">LoadCharges()</text>
<polygon fill="#666666" stroke="#666666" points="0.5,-107 0.5,-107 143.5,-107 143.5,-107 0.5,-107"/>
<polygon fill="#666666" stroke="#666666" points="0.5,-62 0.5,-62 18.5,-62 18.5,-62 0.5,-62"/>
<polygon fill="#666666" stroke="#666666" points="18.5,-62 18.5,-62 143.5,-62 143.5,-62 18.5,-62"/>
<polygon fill="none" stroke="#666666" points="0,0 0,-124 143,-124 143,0 0,0"/>
</a>
</g>
</g>
<!-- Node2 -->
<g id="Node000002" class="node">
<title>Node2</title>
<g id="a_Node000002"><a xlink:href="classnmr_1_1ChargeSource.html" target="_top" xlink:title=" ">
<polygon fill="white" stroke="transparent" points="127.5,-254 15.5,-254 15.5,-160 127.5,-160 127.5,-254"/>
<text text-anchor="start" x="24.5" y="-242" font-family="Helvetica,sans-Serif" font-size="10.00">nmr::ChargeSource</text>
<text text-anchor="start" x="69.5" y="-227" font-family="Helvetica,sans-Serif" font-size="10.00"> </text>
<text text-anchor="start" x="19.5" y="-212" font-family="Helvetica,sans-Serif" font-size="10.00">+</text>
<text text-anchor="start" x="32.5" y="-212" font-family="Helvetica,sans-Serif" font-size="10.00">~ChargeSource()</text>
<text text-anchor="start" x="19.5" y="-197" font-family="Helvetica,sans-Serif" font-size="10.00">+</text>
<text text-anchor="start" x="32.5" y="-197" font-family="Helvetica,sans-Serif" font-size="10.00">SourceForceField()</text>
<text text-anchor="start" x="19.5" y="-182" font-family="Helvetica,sans-Serif" font-size="10.00">+</text>
<text text-anchor="start" x="32.5" y="-182" font-family="Helvetica,sans-Serif" font-size="10.00">Describe()</text>
<text text-anchor="start" x="19.5" y="-167" font-family="Helvetica,sans-Serif" font-size="10.00">+</text>
<text text-anchor="start" x="32.5" y="-167" font-family="Helvetica,sans-Serif" font-size="10.00">LoadCharges()</text>
<polygon fill="#666666" stroke="#666666" points="15.5,-237 15.5,-237 127.5,-237 127.5,-237 15.5,-237"/>
<polygon fill="#666666" stroke="#666666" points="15.5,-222 15.5,-222 127.5,-222 127.5,-222 15.5,-222"/>
<polygon fill="none" stroke="#666666" points="15.5,-160 15.5,-254 127.5,-254 127.5,-160 15.5,-160"/>
</a>
</g>
</g>
<!-- Node2&#45;&gt;Node1 -->
<g id="edge1_Node000001_Node000002" class="edge">
<title>Node2&#45;&gt;Node1</title>
<g id="a_edge1_Node000001_Node000002"><a xlink:title=" ">
<path fill="none" stroke="#63b8ff" d="M71.5,-149.84C71.5,-141.38 71.5,-132.63 71.5,-124.08"/>
<polygon fill="none" stroke="#63b8ff" points="68,-149.97 71.5,-159.97 75,-149.97 68,-149.97"/>
</a>
</g>
</g>
</g>
</svg>
