<?xml version="1.0" encoding="UTF-8" standalone="no"?>
<!DOCTYPE svg PUBLIC "-//W3C//DTD SVG 1.1//EN"
 "http://www.w3.org/Graphics/SVG/1.1/DTD/svg11.dtd">
<!-- Generated by graphviz version 2.43.0 (0)
 -->
<!-- Title: nmr::MutationDeltaResult Pages: 1 -->
<svg width="725pt" height="1235pt"
 viewBox="0.00 0.00 724.50 1235.00" xmlns="http://www.w3.org/2000/svg" xmlns:xlink="http://www.w3.org/1999/xlink">
<g id="graph0" class="graph" transform="scale(1 1) rotate(0) translate(4 1231)">
<title>nmr::MutationDeltaResult</title>
<!-- Node1 -->
<g id="Node000001" class="node">
<title>Node1</title>
<g id="a_Node000001"><a xlink:title=" ">
<polygon fill="#999999" stroke="transparent" points="457.5,-319 301.5,-319 301.5,0 457.5,0 457.5,-319"/>
<text text-anchor="start" x="316" y="-306.5" font-family="Helvetica,sans-Serif" font-size="10.00">nmr::MutationDeltaResult</text>
<text text-anchor="start" x="308" y="-291.5" font-family="Helvetica,sans-Serif" font-size="10.00">&#45;</text>
<text text-anchor="start" x="318.5" y="-291.5" font-family="Helvetica,sans-Serif" font-size="10.00">wt_to_matched_</text>
<text text-anchor="start" x="308" y="-276.5" font-family="Helvetica,sans-Serif" font-size="10.00">&#45;</text>
<text text-anchor="start" x="318.5" y="-276.5" font-family="Helvetica,sans-Serif" font-size="10.00">matched_atoms_</text>
<text text-anchor="start" x="308" y="-261.5" font-family="Helvetica,sans-Serif" font-size="10.00">&#45;</text>
<text text-anchor="start" x="318.5" y="-261.5" font-family="Helvetica,sans-Serif" font-size="10.00">mutation_sites_</text>
<text text-anchor="start" x="308" y="-246.5" font-family="Helvetica,sans-Serif" font-size="10.00">&#45;</text>
<text text-anchor="start" x="318.5" y="-246.5" font-family="Helvetica,sans-Serif" font-size="10.00">has_apbs_delta_</text>
<text text-anchor="start" x="308" y="-231.5" font-family="Helvetica,sans-Serif" font-size="10.00">&#45;</text>
<text text-anchor="start" x="318.5" y="-231.5" font-family="Helvetica,sans-Serif" font-size="10.00">has_mopac_delta_</text>
<text text-anchor="start" x="308" y="-216.5" font-family="Helvetica,sans-Serif" font-size="10.00">&#45;</text>
<text text-anchor="start" x="318.5" y="-216.5" font-family="Helvetica,sans-Serif" font-size="10.00">has_dssp_delta_</text>
<text text-anchor="start" x="308" y="-201.5" font-family="Helvetica,sans-Serif" font-size="10.00">&#45;</text>
<text text-anchor="start" x="318.5" y="-201.5" font-family="Helvetica,sans-Serif" font-size="10.00">has_graph_delta_</text>
<text text-anchor="start" x="308" y="-186.5" font-family="Helvetica,sans-Serif" font-size="10.00">&#45;</text>
<text text-anchor="start" x="318.5" y="-186.5" font-family="Helvetica,sans-Serif" font-size="10.00">zero_mat3_</text>
<text text-anchor="start" x="305.5" y="-171.5" font-family="Helvetica,sans-Serif" font-size="10.00">+</text>
<text text-anchor="start" x="318.5" y="-171.5" font-family="Helvetica,sans-Serif" font-size="10.00">Name()</text>
<text text-anchor="start" x="305.5" y="-156.5" font-family="Helvetica,sans-Serif" font-size="10.00">+</text>
<text text-anchor="start" x="318.5" y="-156.5" font-family="Helvetica,sans-Serif" font-size="10.00">Dependencies()</text>
<text text-anchor="start" x="305.5" y="-141.5" font-family="Helvetica,sans-Serif" font-size="10.00">+</text>
<text text-anchor="start" x="318.5" y="-141.5" font-family="Helvetica,sans-Serif" font-size="10.00">WriteFeatures()</text>
<text text-anchor="start" x="305.5" y="-126.5" font-family="Helvetica,sans-Serif" font-size="10.00">+</text>
<text text-anchor="start" x="318.5" y="-126.5" font-family="Helvetica,sans-Serif" font-size="10.00">MatchedAtomCount()</text>
<text text-anchor="start" x="305.5" y="-111.5" font-family="Helvetica,sans-Serif" font-size="10.00">+</text>
<text text-anchor="start" x="318.5" y="-111.5" font-family="Helvetica,sans-Serif" font-size="10.00">UnmatchedWtAtomCount()</text>
<text text-anchor="start" x="305.5" y="-96.5" font-family="Helvetica,sans-Serif" font-size="10.00">+</text>
<text text-anchor="start" x="318.5" y="-96.5" font-family="Helvetica,sans-Serif" font-size="10.00">HasMatch()</text>
<text text-anchor="start" x="305.5" y="-81.5" font-family="Helvetica,sans-Serif" font-size="10.00">+</text>
<text text-anchor="start" x="318.5" y="-81.5" font-family="Helvetica,sans-Serif" font-size="10.00">MatchedDataAt()</text>
<text text-anchor="start" x="305.5" y="-66.5" font-family="Helvetica,sans-Serif" font-size="10.00">+</text>
<text text-anchor="start" x="318.5" y="-66.5" font-family="Helvetica,sans-Serif" font-size="10.00">DeltaShieldingAt()</text>
<text text-anchor="start" x="305.5" y="-51.5" font-family="Helvetica,sans-Serif" font-size="10.00">+</text>
<text text-anchor="start" x="318.5" y="-51.5" font-family="Helvetica,sans-Serif" font-size="10.00">DeltaShieldingSphericalAt()</text>
<text text-anchor="start" x="305.5" y="-36.5" font-family="Helvetica,sans-Serif" font-size="10.00">+</text>
<text text-anchor="start" x="318.5" y="-36.5" font-family="Helvetica,sans-Serif" font-size="10.00">DeltaT0At()</text>
<text text-anchor="start" x="318.5" y="-21.5" font-family="Helvetica,sans-Serif" font-size="10.00">and 13 more...</text>
<text text-anchor="start" x="305.5" y="-6.5" font-family="Helvetica,sans-Serif" font-size="10.00">+</text>
<text text-anchor="start" x="318.5" y="-6.5" font-family="Helvetica,sans-Serif" font-size="10.00">Compute()</text>
<polygon fill="#666666" stroke="#666666" points="301.5,-301.5 301.5,-301.5 457.5,-301.5 457.5,-301.5 301.5,-301.5"/>
<polygon fill="#666666" stroke="#666666" points="301.5,-181.5 301.5,-181.5 316.5,-181.5 316.5,-181.5 301.5,-181.5"/>
<polygon fill="#666666" stroke="#666666" points="316.5,-181.5 316.5,-181.5 457.5,-181.5 457.5,-181.5 316.5,-181.5"/>
<polygon fill="none" stroke="#666666" points="301.5,0 301.5,-319 457.5,-319 457.5,0 301.5,0"/>
</a>
</g>
</g>
<!-- Node2 -->
<g id="Node000002" class="node">
<title>Node2</title>
<g id="a_Node000002"><a xlink:href="classnmr_1_1ConformationResult.html" target="_top" xlink:title=" ">
<polygon fill="white" stroke="transparent" points="135,-662.5 0,-662.5 0,-553.5 135,-553.5 135,-662.5"/>
<text text-anchor="start" x="6" y="-650" font-family="Helvetica,sans-Serif" font-size="10.00">nmr::ConformationResult</text>
<text text-anchor="start" x="66" y="-635" font-family="Helvetica,sans-Serif" font-size="10.00"> </text>
<text text-anchor="start" x="4.5" y="-620" font-family="Helvetica,sans-Serif" font-size="10.00">+</text>
<text text-anchor="start" x="17.5" y="-620" font-family="Helvetica,sans-Serif" font-size="10.00">~ConformationResult()</text>
<text text-anchor="start" x="4.5" y="-605" font-family="Helvetica,sans-Serif" font-size="10.00">+</text>
<text text-anchor="start" x="17.5" y="-605" font-family="Helvetica,sans-Serif" font-size="10.00">Name()</text>
<text text-anchor="start" x="4.5" y="-590" font-family="Helvetica,sans-Serif" font-size="10.00">+</text>
<text text-anchor="start" x="17.5" y="-590" font-family="Helvetica,sans-Serif" font-size="10.00">Dependencies()</text>
<text text-anchor="start" x="4.5" y="-575" font-family="Helvetica,sans-Serif" font-size="10.00">+</text>
<text text-anchor="start" x="17.5" y="-575" font-family="Helvetica,sans-Serif" font-size="10.00">WriteFeatures()</text>
<text text-anchor="start" x="4.5" y="-560" font-family="Helvetica,sans-Serif" font-size="10.00">+</text>
<text text-anchor="start" x="17.5" y="-560" font-family="Helvetica,sans-Serif" font-size="10.00">WriteAllFeatures()</text>
<polygon fill="#666666" stroke="#666666" points="0.5,-645 0.5,-645 135.5,-645 135.5,-645 0.5,-645"/>
<polygon fill="#666666" stroke="#666666" points="0.5,-630 0.5,-630 135.5,-630 135.5,-630 0.5,-630"/>
<polygon fill="none" stroke="#666666" points="0,-553.5 0,-662.5 135,-662.5 135,-553.5 0,-553.5"/>
</a>
</g>
</g>
<!-- Node2&#45;&gt;Node1 -->
<g id="edge1_Node000001_Node000002" class="edge">
<title>Node2&#45;&gt;Node1</title>
<g id="a_edge1_Node000001_Node000002"><a xlink:title=" ">
<path fill="none" stroke="#63b8ff" d="M77.74,-543.16C88.17,-492.04 108,-420.19 143.5,-366 184.58,-303.28 249.95,-248.47 301.49,-211.26"/>
<polygon fill="none" stroke="#63b8ff" points="74.28,-542.6 75.78,-553.09 81.15,-543.96 74.28,-542.6"/>
</a>
</g>
</g>
<!-- Node3 -->
<g id="Node000003" class="node">
<title>Node3</title>
<g id="a_Node000003"><a xlink:href="classnmr_1_1ProteinConformation.html" target="_top" xlink:title=" ">
<polygon fill="white" stroke="transparent" points="292,-850 153,-850 153,-366 292,-366 292,-850"/>
<text text-anchor="start" x="159.5" y="-838" font-family="Helvetica,sans-Serif" font-size="10.00">nmr::ProteinConformation</text>
<text text-anchor="start" x="157.5" y="-823" font-family="Helvetica,sans-Serif" font-size="10.00">+</text>
<text text-anchor="start" x="170.5" y="-823" font-family="Helvetica,sans-Serif" font-size="10.00">ring_geometries</text>
<text text-anchor="start" x="157.5" y="-808" font-family="Helvetica,sans-Serif" font-size="10.00">+</text>
<text text-anchor="start" x="170.5" y="-808" font-family="Helvetica,sans-Serif" font-size="10.00">ring_pairs</text>
<text text-anchor="start" x="157.5" y="-793" font-family="Helvetica,sans-Serif" font-size="10.00">+</text>
<text text-anchor="start" x="170.5" y="-793" font-family="Helvetica,sans-Serif" font-size="10.00">bond_lengths</text>
<text text-anchor="start" x="157.5" y="-778" font-family="Helvetica,sans-Serif" font-size="10.00">+</text>
<text text-anchor="start" x="170.5" y="-778" font-family="Helvetica,sans-Serif" font-size="10.00">bond_directions</text>
<text text-anchor="start" x="157.5" y="-763" font-family="Helvetica,sans-Serif" font-size="10.00">+</text>
<text text-anchor="start" x="170.5" y="-763" font-family="Helvetica,sans-Serif" font-size="10.00">bond_midpoints</text>
<text text-anchor="start" x="157.5" y="-748" font-family="Helvetica,sans-Serif" font-size="10.00">+</text>
<text text-anchor="start" x="170.5" y="-748" font-family="Helvetica,sans-Serif" font-size="10.00">bounding_min</text>
<text text-anchor="start" x="157.5" y="-733" font-family="Helvetica,sans-Serif" font-size="10.00">+</text>
<text text-anchor="start" x="170.5" y="-733" font-family="Helvetica,sans-Serif" font-size="10.00">bounding_max</text>
<text text-anchor="start" x="157.5" y="-718" font-family="Helvetica,sans-Serif" font-size="10.00">+</text>
<text text-anchor="start" x="170.5" y="-718" font-family="Helvetica,sans-Serif" font-size="10.00">center_of_geometry</text>
<text text-anchor="start" x="157.5" y="-703" font-family="Helvetica,sans-Serif" font-size="10.00">+</text>
<text text-anchor="start" x="170.5" y="-703" font-family="Helvetica,sans-Serif" font-size="10.00">radius_of_gyration</text>
<text text-anchor="start" x="157.5" y="-688" font-family="Helvetica,sans-Serif" font-size="10.00">+</text>
<text text-anchor="start" x="170.5" y="-688" font-family="Helvetica,sans-Serif" font-size="10.00">rings_by_type</text>
<text text-anchor="start" x="157.5" y="-673" font-family="Helvetica,sans-Serif" font-size="10.00">+</text>
<text text-anchor="start" x="170.5" y="-673" font-family="Helvetica,sans-Serif" font-size="10.00">bonds_by_category</text>
<text text-anchor="start" x="157.5" y="-658" font-family="Helvetica,sans-Serif" font-size="10.00">+</text>
<text text-anchor="start" x="170.5" y="-658" font-family="Helvetica,sans-Serif" font-size="10.00">residues_by_type</text>
<text text-anchor="start" x="157.5" y="-643" font-family="Helvetica,sans-Serif" font-size="10.00">+</text>
<text text-anchor="start" x="170.5" y="-643" font-family="Helvetica,sans-Serif" font-size="10.00">geometry_choices</text>
<text text-anchor="start" x="157.5" y="-628" font-family="Helvetica,sans-Serif" font-size="10.00">#</text>
<text text-anchor="start" x="170.5" y="-628" font-family="Helvetica,sans-Serif" font-size="10.00">description_</text>
<text text-anchor="start" x="157.5" y="-613" font-family="Helvetica,sans-Serif" font-size="10.00">#</text>
<text text-anchor="start" x="170.5" y="-613" font-family="Helvetica,sans-Serif" font-size="10.00">positions_</text>
<text text-anchor="start" x="157.5" y="-598" font-family="Helvetica,sans-Serif" font-size="10.00">#</text>
<text text-anchor="start" x="170.5" y="-598" font-family="Helvetica,sans-Serif" font-size="10.00">atoms_</text>
<text text-anchor="start" x="157.5" y="-583" font-family="Helvetica,sans-Serif" font-size="10.00">#</text>
<text text-anchor="start" x="170.5" y="-583" font-family="Helvetica,sans-Serif" font-size="10.00">results_</text>
<text text-anchor="start" x="157.5" y="-568" font-family="Helvetica,sans-Serif" font-size="10.00">+</text>
<text text-anchor="start" x="170.5" y="-568" font-family="Helvetica,sans-Serif" font-size="10.00">ProteinConformation()</text>
<text text-anchor="start" x="157.5" y="-553" font-family="Helvetica,sans-Serif" font-size="10.00">+</text>
<text text-anchor="start" x="170.5" y="-553" font-family="Helvetica,sans-Serif" font-size="10.00">~ProteinConformation()</text>
<text text-anchor="start" x="157.5" y="-538" font-family="Helvetica,sans-Serif" font-size="10.00">+</text>
<text text-anchor="start" x="170.5" y="-538" font-family="Helvetica,sans-Serif" font-size="10.00">ProteinRef()</text>
<text text-anchor="start" x="157.5" y="-523" font-family="Helvetica,sans-Serif" font-size="10.00">+</text>
<text text-anchor="start" x="170.5" y="-523" font-family="Helvetica,sans-Serif" font-size="10.00">Description()</text>
<text text-anchor="start" x="157.5" y="-508" font-family="Helvetica,sans-Serif" font-size="10.00">+</text>
<text text-anchor="start" x="170.5" y="-508" font-family="Helvetica,sans-Serif" font-size="10.00">AtomCount()</text>
<text text-anchor="start" x="157.5" y="-493" font-family="Helvetica,sans-Serif" font-size="10.00">+</text>
<text text-anchor="start" x="170.5" y="-493" font-family="Helvetica,sans-Serif" font-size="10.00">PositionAt()</text>
<text text-anchor="start" x="157.5" y="-478" font-family="Helvetica,sans-Serif" font-size="10.00">+</text>
<text text-anchor="start" x="170.5" y="-478" font-family="Helvetica,sans-Serif" font-size="10.00">Positions()</text>
<text text-anchor="start" x="157.5" y="-463" font-family="Helvetica,sans-Serif" font-size="10.00">+</text>
<text text-anchor="start" x="170.5" y="-463" font-family="Helvetica,sans-Serif" font-size="10.00">AtomAt()</text>
<text text-anchor="start" x="157.5" y="-448" font-family="Helvetica,sans-Serif" font-size="10.00">+</text>
<text text-anchor="start" x="170.5" y="-448" font-family="Helvetica,sans-Serif" font-size="10.00">MutableAtomAt()</text>
<text text-anchor="start" x="157.5" y="-433" font-family="Helvetica,sans-Serif" font-size="10.00">+</text>
<text text-anchor="start" x="170.5" y="-433" font-family="Helvetica,sans-Serif" font-size="10.00">AttachResult()</text>
<text text-anchor="start" x="157.5" y="-418" font-family="Helvetica,sans-Serif" font-size="10.00">+</text>
<text text-anchor="start" x="170.5" y="-418" font-family="Helvetica,sans-Serif" font-size="10.00">Result()</text>
<text text-anchor="start" x="157.5" y="-403" font-family="Helvetica,sans-Serif" font-size="10.00">+</text>
<text text-anchor="start" x="170.5" y="-403" font-family="Helvetica,sans-Serif" font-size="10.00">Result()</text>
<text text-anchor="start" x="157.5" y="-388" font-family="Helvetica,sans-Serif" font-size="10.00">+</text>
<text text-anchor="start" x="170.5" y="-388" font-family="Helvetica,sans-Serif" font-size="10.00">HasResult()</text>
<text text-anchor="start" x="157.5" y="-373" font-family="Helvetica,sans-Serif" font-size="10.00">+</text>
<text text-anchor="start" x="170.5" y="-373" font-family="Helvetica,sans-Serif" font-size="10.00">AllResults()</text>
<polygon fill="#666666" stroke="#666666" points="153.5,-833 153.5,-833 292.5,-833 292.5,-833 153.5,-833"/>
<polygon fill="#666666" stroke="#666666" points="153.5,-578 153.5,-578 168.5,-578 168.5,-578 153.5,-578"/>
<polygon fill="#666666" stroke="#666666" points="168.5,-578 168.5,-578 292.5,-578 292.5,-578 168.5,-578"/>
<polygon fill="none" stroke="#666666" points="153,-366 153,-850 292,-850 292,-366 153,-366"/>
</a>
</g>
</g>
<!-- Node3&#45;&gt;Node1 -->
<g id="edge2_Node000001_Node000003" class="edge">
<title>Node3&#45;&gt;Node1</title>
<g id="a_edge2_Node000001_Node000003"><a xlink:title=" ">
<path fill="none" stroke="#63b8ff" d="M292.11,-390.04C294.91,-381.91 297.71,-373.88 300.5,-366 304.58,-354.46 308.88,-342.6 313.27,-330.67"/>
<polygon fill="none" stroke="#63b8ff" points="313.34,-330.47 311.68,-323.45 317.51,-319.21 319.18,-326.23 313.34,-330.47"/>
</a>
</g>
<text text-anchor="middle" x="337" y="-340" font-family="Helvetica,sans-Serif" font-size="10.00" fill="grey"> &#45;wt_conf_</text>
</g>
<!-- Node4 -->
<g id="Node000004" class="node">
<title>Node4</title>
<g id="a_Node000004"><a xlink:href="classnmr_1_1Protein.html" target="_top" xlink:title=" ">
<polygon fill="white" stroke="transparent" points="281,-1227 164,-1227 164,-908 281,-908 281,-1227"/>
<text text-anchor="start" x="192.5" y="-1214.5" font-family="Helvetica,sans-Serif" font-size="10.00">nmr::Protein</text>
<text text-anchor="start" x="171" y="-1199.5" font-family="Helvetica,sans-Serif" font-size="10.00">&#45;</text>
<text text-anchor="start" x="181.5" y="-1199.5" font-family="Helvetica,sans-Serif" font-size="10.00">atoms_</text>
<text text-anchor="start" x="171" y="-1184.5" font-family="Helvetica,sans-Serif" font-size="10.00">&#45;</text>
<text text-anchor="start" x="181.5" y="-1184.5" font-family="Helvetica,sans-Serif" font-size="10.00">residues_</text>
<text text-anchor="start" x="171" y="-1169.5" font-family="Helvetica,sans-Serif" font-size="10.00">&#45;</text>
<text text-anchor="start" x="181.5" y="-1169.5" font-family="Helvetica,sans-Serif" font-size="10.00">rings_</text>
<text text-anchor="start" x="171" y="-1154.5" font-family="Helvetica,sans-Serif" font-size="10.00">&#45;</text>
<text text-anchor="start" x="181.5" y="-1154.5" font-family="Helvetica,sans-Serif" font-size="10.00">topology_</text>
<text text-anchor="start" x="171" y="-1139.5" font-family="Helvetica,sans-Serif" font-size="10.00">&#45;</text>
<text text-anchor="start" x="181.5" y="-1139.5" font-family="Helvetica,sans-Serif" font-size="10.00">build_context_</text>
<text text-anchor="start" x="171" y="-1124.5" font-family="Helvetica,sans-Serif" font-size="10.00">&#45;</text>
<text text-anchor="start" x="181.5" y="-1124.5" font-family="Helvetica,sans-Serif" font-size="10.00">conformations_</text>
<text text-anchor="start" x="171" y="-1109.5" font-family="Helvetica,sans-Serif" font-size="10.00">&#45;</text>
<text text-anchor="start" x="181.5" y="-1109.5" font-family="Helvetica,sans-Serif" font-size="10.00">crystal_index_</text>
<text text-anchor="start" x="171" y="-1094.5" font-family="Helvetica,sans-Serif" font-size="10.00">&#45;</text>
<text text-anchor="start" x="181.5" y="-1094.5" font-family="Helvetica,sans-Serif" font-size="10.00">prediction_indices_</text>
<text text-anchor="start" x="171" y="-1079.5" font-family="Helvetica,sans-Serif" font-size="10.00">&#45;</text>
<text text-anchor="start" x="181.5" y="-1079.5" font-family="Helvetica,sans-Serif" font-size="10.00">md_frame_indices_</text>
<text text-anchor="start" x="168.5" y="-1064.5" font-family="Helvetica,sans-Serif" font-size="10.00">+</text>
<text text-anchor="start" x="181.5" y="-1064.5" font-family="Helvetica,sans-Serif" font-size="10.00">Protein()</text>
<text text-anchor="start" x="168.5" y="-1049.5" font-family="Helvetica,sans-Serif" font-size="10.00">+</text>
<text text-anchor="start" x="181.5" y="-1049.5" font-family="Helvetica,sans-Serif" font-size="10.00">~Protein()</text>
<text text-anchor="start" x="168.5" y="-1034.5" font-family="Helvetica,sans-Serif" font-size="10.00">+</text>
<text text-anchor="start" x="181.5" y="-1034.5" font-family="Helvetica,sans-Serif" font-size="10.00">Protein()</text>
<text text-anchor="start" x="168.5" y="-1019.5" font-family="Helvetica,sans-Serif" font-size="10.00">+</text>
<text text-anchor="start" x="181.5" y="-1019.5" font-family="Helvetica,sans-Serif" font-size="10.00">operator=()</text>
<text text-anchor="start" x="168.5" y="-1004.5" font-family="Helvetica,sans-Serif" font-size="10.00">+</text>
<text text-anchor="start" x="181.5" y="-1004.5" font-family="Helvetica,sans-Serif" font-size="10.00">Protein()</text>
<text text-anchor="start" x="168.5" y="-989.5" font-family="Helvetica,sans-Serif" font-size="10.00">+</text>
<text text-anchor="start" x="181.5" y="-989.5" font-family="Helvetica,sans-Serif" font-size="10.00">operator=()</text>
<text text-anchor="start" x="168.5" y="-974.5" font-family="Helvetica,sans-Serif" font-size="10.00">+</text>
<text text-anchor="start" x="181.5" y="-974.5" font-family="Helvetica,sans-Serif" font-size="10.00">AtomCount()</text>
<text text-anchor="start" x="168.5" y="-959.5" font-family="Helvetica,sans-Serif" font-size="10.00">+</text>
<text text-anchor="start" x="181.5" y="-959.5" font-family="Helvetica,sans-Serif" font-size="10.00">AtomAt()</text>
<text text-anchor="start" x="168.5" y="-944.5" font-family="Helvetica,sans-Serif" font-size="10.00">+</text>
<text text-anchor="start" x="181.5" y="-944.5" font-family="Helvetica,sans-Serif" font-size="10.00">Atoms()</text>
<text text-anchor="start" x="168.5" y="-929.5" font-family="Helvetica,sans-Serif" font-size="10.00">+</text>
<text text-anchor="start" x="181.5" y="-929.5" font-family="Helvetica,sans-Serif" font-size="10.00">AddAtom()</text>
<text text-anchor="start" x="181.5" y="-914.5" font-family="Helvetica,sans-Serif" font-size="10.00">and 35 more...</text>
<polygon fill="#666666" stroke="#666666" points="164.5,-1209.5 164.5,-1209.5 281.5,-1209.5 281.5,-1209.5 164.5,-1209.5"/>
<polygon fill="#666666" stroke="#666666" points="164.5,-1074.5 164.5,-1074.5 179.5,-1074.5 179.5,-1074.5 164.5,-1074.5"/>
<polygon fill="#666666" stroke="#666666" points="179.5,-1074.5 179.5,-1074.5 281.5,-1074.5 281.5,-1074.5 179.5,-1074.5"/>
<polygon fill="none" stroke="#666666" points="164,-908 164,-1227 281,-1227 281,-908 164,-908"/>
</a>
</g>
</g>
<!-- Node4&#45;&gt;Node3 -->
<g id="edge3_Node000003_Node000004" class="edge">
<title>Node4&#45;&gt;Node3</title>
<g id="a_edge3_Node000003_Node000004"><a xlink:title=" ">
<path fill="none" stroke="#63b8ff" d="M222.5,-907.77C222.5,-893.01 222.5,-877.81 222.5,-862.47"/>
<polygon fill="none" stroke="#63b8ff" points="222.5,-862.14 218.5,-856.14 222.5,-850.14 226.5,-856.14 222.5,-862.14"/>
</a>
</g>
<text text-anchor="middle" x="248.5" y="-876.5" font-family="Helvetica,sans-Serif" font-size="10.00" fill="grey"> #protein_</text>
</g>
<!-- Node5 -->
<g id="Node000005" class="node">
<title>Node5</title>
<g id="a_Node000005"><a xlink:href="structnmr_1_1DeltaSummary.html" target="_top" xlink:title=" ">
<polygon fill="white" stroke="transparent" points="449,-670 310,-670 310,-546 449,-546 449,-670"/>
<text text-anchor="start" x="330" y="-658" font-family="Helvetica,sans-Serif" font-size="10.00">nmr::DeltaSummary</text>
<text text-anchor="start" x="314.5" y="-643" font-family="Helvetica,sans-Serif" font-size="10.00">+</text>
<text text-anchor="start" x="327.5" y="-643" font-family="Helvetica,sans-Serif" font-size="10.00">by_element</text>
<text text-anchor="start" x="314.5" y="-628" font-family="Helvetica,sans-Serif" font-size="10.00">+</text>
<text text-anchor="start" x="327.5" y="-628" font-family="Helvetica,sans-Serif" font-size="10.00">by_distance</text>
<text text-anchor="start" x="314.5" y="-613" font-family="Helvetica,sans-Serif" font-size="10.00">+</text>
<text text-anchor="start" x="327.5" y="-613" font-family="Helvetica,sans-Serif" font-size="10.00">backbone_count</text>
<text text-anchor="start" x="314.5" y="-598" font-family="Helvetica,sans-Serif" font-size="10.00">+</text>
<text text-anchor="start" x="327.5" y="-598" font-family="Helvetica,sans-Serif" font-size="10.00">backbone_mean_abs_t0</text>
<text text-anchor="start" x="314.5" y="-583" font-family="Helvetica,sans-Serif" font-size="10.00">+</text>
<text text-anchor="start" x="327.5" y="-583" font-family="Helvetica,sans-Serif" font-size="10.00">sidechain_count</text>
<text text-anchor="start" x="314.5" y="-568" font-family="Helvetica,sans-Serif" font-size="10.00">+</text>
<text text-anchor="start" x="327.5" y="-568" font-family="Helvetica,sans-Serif" font-size="10.00">sidechain_mean_abs_t0</text>
<text text-anchor="start" x="378" y="-553" font-family="Helvetica,sans-Serif" font-size="10.00"> </text>
<polygon fill="#666666" stroke="#666666" points="310.5,-653 310.5,-653 449.5,-653 449.5,-653 310.5,-653"/>
<polygon fill="#666666" stroke="#666666" points="310.5,-563 310.5,-563 325.5,-563 325.5,-563 310.5,-563"/>
<polygon fill="#666666" stroke="#666666" points="325.5,-563 325.5,-563 449.5,-563 449.5,-563 325.5,-563"/>
<polygon fill="none" stroke="#666666" points="310,-546 310,-670 449,-670 449,-546 310,-546"/>
</a>
</g>
</g>
<!-- Node5&#45;&gt;Node1 -->
<g id="edge4_Node000001_Node000005" class="edge">
<title>Node5&#45;&gt;Node1</title>
<g id="a_edge4_Node000001_Node000005"><a xlink:title=" ">
<path fill="none" stroke="#63b8ff" d="M379.5,-545.85C379.5,-490.65 379.5,-406.75 379.5,-331.32"/>
<polygon fill="none" stroke="#63b8ff" points="379.5,-331.3 375.5,-325.3 379.5,-319.3 383.5,-325.3 379.5,-331.3"/>
</a>
</g>
<text text-anchor="middle" x="409" y="-340" font-family="Helvetica,sans-Serif" font-size="10.00" fill="grey"> &#45;summary_</text>
</g>
<!-- Node6 -->
<g id="Node000006" class="node">
<title>Node6</title>
<g id="a_Node000006"><a xlink:href="structnmr_1_1SphericalTensor.html" target="_top" xlink:title=" ">
<polygon fill="white" stroke="transparent" points="599,-1144.5 472,-1144.5 472,-990.5 599,-990.5 599,-1144.5"/>
<text text-anchor="start" x="484.5" y="-1132.5" font-family="Helvetica,sans-Serif" font-size="10.00">nmr::SphericalTensor</text>
<text text-anchor="start" x="476.5" y="-1117.5" font-family="Helvetica,sans-Serif" font-size="10.00">+</text>
<text text-anchor="start" x="489.5" y="-1117.5" font-family="Helvetica,sans-Serif" font-size="10.00">T0</text>
<text text-anchor="start" x="476.5" y="-1102.5" font-family="Helvetica,sans-Serif" font-size="10.00">+</text>
<text text-anchor="start" x="489.5" y="-1102.5" font-family="Helvetica,sans-Serif" font-size="10.00">T1</text>
<text text-anchor="start" x="476.5" y="-1087.5" font-family="Helvetica,sans-Serif" font-size="10.00">+</text>
<text text-anchor="start" x="489.5" y="-1087.5" font-family="Helvetica,sans-Serif" font-size="10.00">T2</text>
<text text-anchor="start" x="476.5" y="-1072.5" font-family="Helvetica,sans-Serif" font-size="10.00">+</text>
<text text-anchor="start" x="489.5" y="-1072.5" font-family="Helvetica,sans-Serif" font-size="10.00">Isotropic()</text>
<text text-anchor="start" x="476.5" y="-1057.5" font-family="Helvetica,sans-Serif" font-size="10.00">+</text>
<text text-anchor="start" x="489.5" y="-1057.5" font-family="Helvetica,sans-Serif" font-size="10.00">Antisymmetric()</text>
<text text-anchor="start" x="476.5" y="-1042.5" font-family="Helvetica,sans-Serif" font-size="10.00">+</text>
<text text-anchor="start" x="489.5" y="-1042.5" font-family="Helvetica,sans-Serif" font-size="10.00">TracelessSymmetric()</text>
<text text-anchor="start" x="476.5" y="-1027.5" font-family="Helvetica,sans-Serif" font-size="10.00">+</text>
<text text-anchor="start" x="489.5" y="-1027.5" font-family="Helvetica,sans-Serif" font-size="10.00">Reconstruct()</text>
<text text-anchor="start" x="476.5" y="-1012.5" font-family="Helvetica,sans-Serif" font-size="10.00">+</text>
<text text-anchor="start" x="489.5" y="-1012.5" font-family="Helvetica,sans-Serif" font-size="10.00">T2Magnitude()</text>
<text text-anchor="start" x="476.5" y="-997.5" font-family="Helvetica,sans-Serif" font-size="10.00">+</text>
<text text-anchor="start" x="489.5" y="-997.5" font-family="Helvetica,sans-Serif" font-size="10.00">Decompose()</text>
<polygon fill="#666666" stroke="#666666" points="472.5,-1127.5 472.5,-1127.5 599.5,-1127.5 599.5,-1127.5 472.5,-1127.5"/>
<polygon fill="#666666" stroke="#666666" points="472.5,-1082.5 472.5,-1082.5 487.5,-1082.5 487.5,-1082.5 472.5,-1082.5"/>
<polygon fill="#666666" stroke="#666666" points="487.5,-1082.5 487.5,-1082.5 599.5,-1082.5 599.5,-1082.5 487.5,-1082.5"/>
<polygon fill="none" stroke="#666666" points="472,-990.5 472,-1144.5 599,-1144.5 599,-990.5 472,-990.5"/>
</a>
</g>
</g>
<!-- Node6&#45;&gt;Node1 -->
<g id="edge5_Node000001_Node000006" class="edge">
<title>Node6&#45;&gt;Node1</title>
<g id="a_edge5_Node000001_Node000006"><a xlink:title=" ">
<path fill="none" stroke="#63b8ff" d="M518.96,-990.43C510.51,-949.08 500.72,-896.93 494.5,-850 466.16,-636.13 504.48,-576.56 457.5,-366 454.93,-354.48 451.84,-342.74 448.4,-331"/>
<polygon fill="none" stroke="#63b8ff" points="448.32,-330.76 442.75,-326.18 444.84,-319.28 450.41,-323.86 448.32,-330.76"/>
</a>
</g>
<text text-anchor="middle" x="536" y="-605.5" font-family="Helvetica,sans-Serif" font-size="10.00" fill="grey"> &#45;zero_spherical_</text>
</g>
<!-- Node7 -->
<g id="Node000007" class="node">
<title>Node7</title>
<g id="a_Node000007"><a xlink:href="structnmr_1_1MatchedAtomData.html" target="_top" xlink:title=" ">
<polygon fill="white" stroke="transparent" points="714.5,-707.5 586.5,-707.5 586.5,-508.5 714.5,-508.5 714.5,-707.5"/>
<text text-anchor="start" x="591.5" y="-695" font-family="Helvetica,sans-Serif" font-size="10.00">nmr::MatchedAtomData</text>
<text text-anchor="start" x="597.5" y="-680" font-family="Helvetica,sans-Serif" font-size="10.00">+</text>
<text text-anchor="start" x="617.5" y="-680" font-family="Helvetica,sans-Serif" font-size="10.00">wt_index</text>
<text text-anchor="start" x="597.5" y="-665" font-family="Helvetica,sans-Serif" font-size="10.00">+</text>
<text text-anchor="start" x="617.5" y="-665" font-family="Helvetica,sans-Serif" font-size="10.00">mut_index</text>
<text text-anchor="start" x="597.5" y="-650" font-family="Helvetica,sans-Serif" font-size="10.00">+</text>
<text text-anchor="start" x="617.5" y="-650" font-family="Helvetica,sans-Serif" font-size="10.00">match_distance</text>
<text text-anchor="start" x="597.5" y="-635" font-family="Helvetica,sans-Serif" font-size="10.00">+</text>
<text text-anchor="start" x="617.5" y="-635" font-family="Helvetica,sans-Serif" font-size="10.00">element</text>
<text text-anchor="start" x="597.5" y="-620" font-family="Helvetica,sans-Serif" font-size="10.00">+</text>
<text text-anchor="start" x="617.5" y="-620" font-family="Helvetica,sans-Serif" font-size="10.00">role</text>
<text text-anchor="start" x="597.5" y="-605" font-family="Helvetica,sans-Serif" font-size="10.00">+</text>
<text text-anchor="start" x="617.5" y="-605" font-family="Helvetica,sans-Serif" font-size="10.00">is_backbone</text>
<text text-anchor="start" x="597.5" y="-590" font-family="Helvetica,sans-Serif" font-size="10.00">+</text>
<text text-anchor="start" x="617.5" y="-590" font-family="Helvetica,sans-Serif" font-size="10.00">residue_index</text>
<text text-anchor="start" x="597.5" y="-575" font-family="Helvetica,sans-Serif" font-size="10.00">+</text>
<text text-anchor="start" x="617.5" y="-575" font-family="Helvetica,sans-Serif" font-size="10.00">delta_shielding</text>
<text text-anchor="start" x="597.5" y="-560" font-family="Helvetica,sans-Serif" font-size="10.00">+</text>
<text text-anchor="start" x="617.5" y="-560" font-family="Helvetica,sans-Serif" font-size="10.00">delta_efield</text>
<text text-anchor="start" x="597.5" y="-545" font-family="Helvetica,sans-Serif" font-size="10.00">+</text>
<text text-anchor="start" x="617.5" y="-545" font-family="Helvetica,sans-Serif" font-size="10.00">delta_efg</text>
<text text-anchor="start" x="617.5" y="-530" font-family="Helvetica,sans-Serif" font-size="10.00">and 14 more...</text>
<text text-anchor="start" x="648.5" y="-515" font-family="Helvetica,sans-Serif" font-size="10.00"> </text>
<polygon fill="#666666" stroke="#666666" points="586.5,-690 586.5,-690 714.5,-690 714.5,-690 586.5,-690"/>
<polygon fill="#666666" stroke="#666666" points="586.5,-525 586.5,-525 615.5,-525 615.5,-525 586.5,-525"/>
<polygon fill="#666666" stroke="#666666" points="615.5,-525 615.5,-525 714.5,-525 714.5,-525 615.5,-525"/>
<polygon fill="none" stroke="#666666" points="586.5,-508.5 586.5,-707.5 714.5,-707.5 714.5,-508.5 586.5,-508.5"/>
</a>
</g>
</g>
<!-- Node6&#45;&gt;Node7 -->
<g id="edge7_Node000007_Node000006" class="edge">
<title>Node6&#45;&gt;Node7</title>
<g id="a_edge7_Node000007_Node000006"><a xlink:title=" ">
<path fill="none" stroke="#63b8ff" d="M554.62,-990.44C573.2,-916.5 601.64,-803.39 622.72,-719.52"/>
<polygon fill="none" stroke="#63b8ff" points="622.78,-719.27 620.37,-712.47 625.71,-707.63 628.12,-714.42 622.78,-719.27"/>
</a>
</g>
<text text-anchor="middle" x="650" y="-882" font-family="Helvetica,sans-Serif" font-size="10.00" fill="grey"> +delta_efg_spherical</text>
<text text-anchor="middle" x="650" y="-871" font-family="Helvetica,sans-Serif" font-size="10.00" fill="grey">+delta_shielding_spherical</text>
</g>
<!-- Node7&#45;&gt;Node1 -->
<g id="edge6_Node000001_Node000007" class="edge">
<title>Node7&#45;&gt;Node1</title>
<g id="a_edge6_Node000001_Node000007"><a xlink:title=" ">
<path fill="none" stroke="#63b8ff" d="M629.15,-508.42C616.73,-463.06 598.33,-409.73 572.5,-366 544.39,-318.4 503.51,-272.8 466.61,-236.7"/>
<polygon fill="none" stroke="#63b8ff" points="466.45,-236.55 459.35,-235.26 457.82,-228.21 464.91,-229.5 466.45,-236.55"/>
</a>
</g>
<text text-anchor="middle" x="600.5" y="-340" font-family="Helvetica,sans-Serif" font-size="10.00" fill="grey"> &#45;empty_match_</text>
</g>
</g>
</svg>
