<?xml version="1.0" encoding="UTF-8" standalone="no"?>
<!DOCTYPE svg PUBLIC "-//W3C//DTD SVG 1.1//EN"
 "http://www.w3.org/Graphics/SVG/1.1/DTD/svg11.dtd">
<!-- Generated by graphviz version 2.43.0 (0)
 -->
<!-- Title: nmr::PrmtopChargeSource Pages: 1 -->
<svg width="155pt" height="262pt"
 viewBox="0.00 0.00 155.00 262.00" xmlns="http://www.w3.org/2000/svg" xmlns:xlink="http://www.w3.org/1999/xlink">
<g id="graph0" class="graph" transform="scale(1 1) rotate(0) translate(4 258)">
<title>nmr::PrmtopChargeSource</title>
<!-- Node1 -->
<g id="Node000001" class="node">
<title>Node1</title>
<g id="a_Node000001"><a xlink:title=" ">
<polygon fill="#999999" stroke="transparent" points="147,-124 0,-124 0,0 147,0 147,-124"/>
<text text-anchor="start" x="9.5" y="-112" font-family="Helvetica,sans-Serif" font-size="10.00">nmr::PrmtopChargeSource</text>
<text text-anchor="start" x="7" y="-97" font-family="Helvetica,sans-Serif" font-size="10.00">&#45;</text>
<text text-anchor="start" x="17.5" y="-97" font-family="Helvetica,sans-Serif" font-size="10.00">path_</text>
<text text-anchor="start" x="7" y="-82" font-family="Helvetica,sans-Serif" font-size="10.00">&#45;</text>
<text text-anchor="start" x="17.5" y="-82" font-family="Helvetica,sans-Serif" font-size="10.00">ff_</text>
<text text-anchor="start" x="7" y="-67" font-family="Helvetica,sans-Serif" font-size="10.00">&#45;</text>
<text text-anchor="start" x="17.5" y="-67" font-family="Helvetica,sans-Serif" font-size="10.00">AMBER_CHARGE_FACTOR</text>
<text text-anchor="start" x="4.5" y="-52" font-family="Helvetica,sans-Serif" font-size="10.00">+</text>
<text text-anchor="start" x="17.5" y="-52" font-family="Helvetica,sans-Serif" font-size="10.00">PrmtopChargeSource()</text>
<text text-anchor="start" x="4.5" y="-37" font-family="Helvetica,sans-Serif" font-size="10.00">+</text>
<text text-anchor="start" x="17.5" y="-37" font-family="Helvetica,sans-Serif" font-size="10.00">SourceForceField()</text>
<text text-anchor="start" x="4.5" y="-22" font-family="Helvetica,sans-Serif" font-size="10.00">+</text>
<text text-anchor="start" x="17.5" y="-22" font-family="Helvetica,sans-Serif" font-size="10.00">Describe()</text>
<text text-anchor="start" x="4.5" y="-7" font-family="Helvetica,sans-Serif" font-size="10.00">+</text>
<text text-anchor="start" x="17.5" y="-7" font-family="Helvetica,sans-Serif" font-size="10.00">LoadCharges()</text>
<polygon fill="#666666" stroke="#666666" points="0.5,-107 0.5,-107 147.5,-107 147.5,-107 0.5,-107"/>
<polygon fill="#666666" stroke="#666666" points="0.5,-62 0.5,-62 15.5,-62 15.5,-62 0.5,-62"/>
<polygon fill="#666666" stroke="#666666" points="15.5,-62 15.5,-62 147.5,-62 147.5,-62 15.5,-62"/>
<polygon fill="none" stroke="#666666" points="0,0 0,-124 147,-124 147,0 0,0"/>
</a>
</g>
</g>
<!-- Node2 -->
<g id="Node000002" class="node">
<title>Node2</title>
<g id="a_Node000002"><a xlink:href="classnmr_1_1ChargeSource.html" target="_top" xlink:title=" ">
<polygon fill="white" stroke="transparent" points="129.5,-254 17.5,-254 17.5,-160 129.5,-160 129.5,-254"/>
<text text-anchor="start" x="26.5" y="-242" font-family="Helvetica,sans-Serif" font-size="10.00">nmr::ChargeSource</text>
<text text-anchor="start" x="71.5" y="-227" font-family="Helvetica,sans-Serif" font-size="10.00"> </text>
<text text-anchor="start" x="21.5" y="-212" font-family="Helvetica,sans-Serif" font-size="10.00">+</text>
<text text-anchor="start" x="34.5" y="-212" font-family="Helvetica,sans-Serif" font-size="10.00">~ChargeSource()</text>
<text text-anchor="start" x="21.5" y="-197" font-family="Helvetica,sans-Serif" font-size="10.00">+</text>
<text text-anchor="start" x="34.5" y="-197" font-family="Helvetica,sans-Serif" font-size="10.00">SourceForceField()</text>
<text text-anchor="start" x="21.5" y="-182" font-family="Helvetica,sans-Serif" font-size="10.00">+</text>
<text text-anchor="start" x="34.5" y="-182" font-family="Helvetica,sans-Serif" font-size="10.00">Describe()</text>
<text text-anchor="start" x="21.5" y="-167" font-family="Helvetica,sans-Serif" font-size="10.00">+</text>
<text text-anchor="start" x="34.5" y="-167" font-family="Helvetica,sans-Serif" font-size="10.00">LoadCharges()</text>
<polygon fill="#666666" stroke="#666666" points="17.5,-237 17.5,-237 129.5,-237 129.5,-237 17.5,-237"/>
<polygon fill="#666666" stroke="#666666" points="17.5,-222 17.5,-222 129.5,-222 129.5,-222 17.5,-222"/>
<polygon fill="none" stroke="#666666" points="17.5,-160 17.5,-254 129.5,-254 129.5,-160 17.5,-160"/>
</a>
</g>
</g>
<!-- Node2&#45;&gt;Node1 -->
<g id="edge1_Node000001_Node000002" class="edge">
<title>Node2&#45;&gt;Node1</title>
<g id="a_edge1_Node000001_Node000002"><a xlink:title=" ">
<path fill="none" stroke="#63b8ff" d="M73.5,-149.84C73.5,-141.38 73.5,-132.63 73.5,-124.08"/>
<polygon fill="none" stroke="#63b8ff" points="70,-149.97 73.5,-159.97 77,-149.97 70,-149.97"/>
</a>
</g>
</g>
</g>
</svg>
