<?xml version="1.0" encoding="UTF-8" standalone="no"?>
<!DOCTYPE svg PUBLIC "-//W3C//DTD SVG 1.1//EN"
 "http://www.w3.org/Graphics/SVG/1.1/DTD/svg11.dtd">
<!-- Generated by graphviz version 2.43.0 (0)
 -->
<!-- Title: nmr::MDFrameConformation Pages: 1 -->
<svg width="158pt" height="1079pt"
 viewBox="0.00 0.00 158.00 1079.00" xmlns="http://www.w3.org/2000/svg" xmlns:xlink="http://www.w3.org/1999/xlink">
<g id="graph0" class="graph" transform="scale(1 1) rotate(0) translate(4 1075)">
<title>nmr::MDFrameConformation</title>
<!-- Node1 -->
<g id="Node000001" class="node">
<title>Node1</title>
<g id="a_Node000001"><a xlink:title=" ">
<polygon fill="#999999" stroke="transparent" points="150,-184 0,-184 0,0 150,0 150,-184"/>
<text text-anchor="start" x="5" y="-172" font-family="Helvetica,sans-Serif" font-size="10.00">nmr::MDFrameConformation</text>
<text text-anchor="start" x="8" y="-157" font-family="Helvetica,sans-Serif" font-size="10.00">&#45;</text>
<text text-anchor="start" x="20" y="-157" font-family="Helvetica,sans-Serif" font-size="10.00">walker_</text>
<text text-anchor="start" x="8" y="-142" font-family="Helvetica,sans-Serif" font-size="10.00">&#45;</text>
<text text-anchor="start" x="20" y="-142" font-family="Helvetica,sans-Serif" font-size="10.00">time_ps_</text>
<text text-anchor="start" x="8" y="-127" font-family="Helvetica,sans-Serif" font-size="10.00">&#45;</text>
<text text-anchor="start" x="20" y="-127" font-family="Helvetica,sans-Serif" font-size="10.00">weight_</text>
<text text-anchor="start" x="8" y="-112" font-family="Helvetica,sans-Serif" font-size="10.00">&#45;</text>
<text text-anchor="start" x="20" y="-112" font-family="Helvetica,sans-Serif" font-size="10.00">rmsd_nm_</text>
<text text-anchor="start" x="8" y="-97" font-family="Helvetica,sans-Serif" font-size="10.00">&#45;</text>
<text text-anchor="start" x="20" y="-97" font-family="Helvetica,sans-Serif" font-size="10.00">rg_nm_</text>
<text text-anchor="start" x="5.5" y="-82" font-family="Helvetica,sans-Serif" font-size="10.00">+</text>
<text text-anchor="start" x="20" y="-82" font-family="Helvetica,sans-Serif" font-size="10.00">MDFrameConformation()</text>
<text text-anchor="start" x="5.5" y="-67" font-family="Helvetica,sans-Serif" font-size="10.00">+</text>
<text text-anchor="start" x="20" y="-67" font-family="Helvetica,sans-Serif" font-size="10.00">Walker()</text>
<text text-anchor="start" x="5.5" y="-52" font-family="Helvetica,sans-Serif" font-size="10.00">+</text>
<text text-anchor="start" x="20" y="-52" font-family="Helvetica,sans-Serif" font-size="10.00">TimePicoseconds()</text>
<text text-anchor="start" x="5.5" y="-37" font-family="Helvetica,sans-Serif" font-size="10.00">+</text>
<text text-anchor="start" x="20" y="-37" font-family="Helvetica,sans-Serif" font-size="10.00">BoltzmannWeight()</text>
<text text-anchor="start" x="5.5" y="-22" font-family="Helvetica,sans-Serif" font-size="10.00">+</text>
<text text-anchor="start" x="20" y="-22" font-family="Helvetica,sans-Serif" font-size="10.00">RmsdNanometres()</text>
<text text-anchor="start" x="5.5" y="-7" font-family="Helvetica,sans-Serif" font-size="10.00">+</text>
<text text-anchor="start" x="20" y="-7" font-family="Helvetica,sans-Serif" font-size="10.00">RadiusOfGyrationNm()</text>
<polygon fill="#666666" stroke="#666666" points="0,-167 0,-167 150,-167 150,-167 0,-167"/>
<polygon fill="#666666" stroke="#666666" points="0,-92 0,-92 18,-92 18,-92 0,-92"/>
<polygon fill="#666666" stroke="#666666" points="18,-92 18,-92 150,-92 150,-92 18,-92"/>
<polygon fill="none" stroke="#666666" points="0,0 0,-184 150,-184 150,0 0,0"/>
</a>
</g>
</g>
<!-- Node2 -->
<g id="Node000002" class="node">
<title>Node2</title>
<g id="a_Node000002"><a xlink:href="classnmr_1_1ProteinConformation.html" target="_top" xlink:title=" ">
<polygon fill="white" stroke="transparent" points="144.5,-705 5.5,-705 5.5,-221 144.5,-221 144.5,-705"/>
<text text-anchor="start" x="12" y="-693" font-family="Helvetica,sans-Serif" font-size="10.00">nmr::ProteinConformation</text>
<text text-anchor="start" x="10" y="-678" font-family="Helvetica,sans-Serif" font-size="10.00">+</text>
<text text-anchor="start" x="23" y="-678" font-family="Helvetica,sans-Serif" font-size="10.00">ring_geometries</text>
<text text-anchor="start" x="10" y="-663" font-family="Helvetica,sans-Serif" font-size="10.00">+</text>
<text text-anchor="start" x="23" y="-663" font-family="Helvetica,sans-Serif" font-size="10.00">ring_pairs</text>
<text text-anchor="start" x="10" y="-648" font-family="Helvetica,sans-Serif" font-size="10.00">+</text>
<text text-anchor="start" x="23" y="-648" font-family="Helvetica,sans-Serif" font-size="10.00">bond_lengths</text>
<text text-anchor="start" x="10" y="-633" font-family="Helvetica,sans-Serif" font-size="10.00">+</text>
<text text-anchor="start" x="23" y="-633" font-family="Helvetica,sans-Serif" font-size="10.00">bond_directions</text>
<text text-anchor="start" x="10" y="-618" font-family="Helvetica,sans-Serif" font-size="10.00">+</text>
<text text-anchor="start" x="23" y="-618" font-family="Helvetica,sans-Serif" font-size="10.00">bond_midpoints</text>
<text text-anchor="start" x="10" y="-603" font-family="Helvetica,sans-Serif" font-size="10.00">+</text>
<text text-anchor="start" x="23" y="-603" font-family="Helvetica,sans-Serif" font-size="10.00">bounding_min</text>
<text text-anchor="start" x="10" y="-588" font-family="Helvetica,sans-Serif" font-size="10.00">+</text>
<text text-anchor="start" x="23" y="-588" font-family="Helvetica,sans-Serif" font-size="10.00">bounding_max</text>
<text text-anchor="start" x="10" y="-573" font-family="Helvetica,sans-Serif" font-size="10.00">+</text>
<text text-anchor="start" x="23" y="-573" font-family="Helvetica,sans-Serif" font-size="10.00">center_of_geometry</text>
<text text-anchor="start" x="10" y="-558" font-family="Helvetica,sans-Serif" font-size="10.00">+</text>
<text text-anchor="start" x="23" y="-558" font-family="Helvetica,sans-Serif" font-size="10.00">radius_of_gyration</text>
<text text-anchor="start" x="10" y="-543" font-family="Helvetica,sans-Serif" font-size="10.00">+</text>
<text text-anchor="start" x="23" y="-543" font-family="Helvetica,sans-Serif" font-size="10.00">rings_by_type</text>
<text text-anchor="start" x="10" y="-528" font-family="Helvetica,sans-Serif" font-size="10.00">+</text>
<text text-anchor="start" x="23" y="-528" font-family="Helvetica,sans-Serif" font-size="10.00">bonds_by_category</text>
<text text-anchor="start" x="10" y="-513" font-family="Helvetica,sans-Serif" font-size="10.00">+</text>
<text text-anchor="start" x="23" y="-513" font-family="Helvetica,sans-Serif" font-size="10.00">residues_by_type</text>
<text text-anchor="start" x="10" y="-498" font-family="Helvetica,sans-Serif" font-size="10.00">+</text>
<text text-anchor="start" x="23" y="-498" font-family="Helvetica,sans-Serif" font-size="10.00">geometry_choices</text>
<text text-anchor="start" x="10" y="-483" font-family="Helvetica,sans-Serif" font-size="10.00">#</text>
<text text-anchor="start" x="23" y="-483" font-family="Helvetica,sans-Serif" font-size="10.00">description_</text>
<text text-anchor="start" x="10" y="-468" font-family="Helvetica,sans-Serif" font-size="10.00">#</text>
<text text-anchor="start" x="23" y="-468" font-family="Helvetica,sans-Serif" font-size="10.00">positions_</text>
<text text-anchor="start" x="10" y="-453" font-family="Helvetica,sans-Serif" font-size="10.00">#</text>
<text text-anchor="start" x="23" y="-453" font-family="Helvetica,sans-Serif" font-size="10.00">atoms_</text>
<text text-anchor="start" x="10" y="-438" font-family="Helvetica,sans-Serif" font-size="10.00">#</text>
<text text-anchor="start" x="23" y="-438" font-family="Helvetica,sans-Serif" font-size="10.00">results_</text>
<text text-anchor="start" x="10" y="-423" font-family="Helvetica,sans-Serif" font-size="10.00">+</text>
<text text-anchor="start" x="23" y="-423" font-family="Helvetica,sans-Serif" font-size="10.00">ProteinConformation()</text>
<text text-anchor="start" x="10" y="-408" font-family="Helvetica,sans-Serif" font-size="10.00">+</text>
<text text-anchor="start" x="23" y="-408" font-family="Helvetica,sans-Serif" font-size="10.00">~ProteinConformation()</text>
<text text-anchor="start" x="10" y="-393" font-family="Helvetica,sans-Serif" font-size="10.00">+</text>
<text text-anchor="start" x="23" y="-393" font-family="Helvetica,sans-Serif" font-size="10.00">ProteinRef()</text>
<text text-anchor="start" x="10" y="-378" font-family="Helvetica,sans-Serif" font-size="10.00">+</text>
<text text-anchor="start" x="23" y="-378" font-family="Helvetica,sans-Serif" font-size="10.00">Description()</text>
<text text-anchor="start" x="10" y="-363" font-family="Helvetica,sans-Serif" font-size="10.00">+</text>
<text text-anchor="start" x="23" y="-363" font-family="Helvetica,sans-Serif" font-size="10.00">AtomCount()</text>
<text text-anchor="start" x="10" y="-348" font-family="Helvetica,sans-Serif" font-size="10.00">+</text>
<text text-anchor="start" x="23" y="-348" font-family="Helvetica,sans-Serif" font-size="10.00">PositionAt()</text>
<text text-anchor="start" x="10" y="-333" font-family="Helvetica,sans-Serif" font-size="10.00">+</text>
<text text-anchor="start" x="23" y="-333" font-family="Helvetica,sans-Serif" font-size="10.00">Positions()</text>
<text text-anchor="start" x="10" y="-318" font-family="Helvetica,sans-Serif" font-size="10.00">+</text>
<text text-anchor="start" x="23" y="-318" font-family="Helvetica,sans-Serif" font-size="10.00">AtomAt()</text>
<text text-anchor="start" x="10" y="-303" font-family="Helvetica,sans-Serif" font-size="10.00">+</text>
<text text-anchor="start" x="23" y="-303" font-family="Helvetica,sans-Serif" font-size="10.00">MutableAtomAt()</text>
<text text-anchor="start" x="10" y="-288" font-family="Helvetica,sans-Serif" font-size="10.00">+</text>
<text text-anchor="start" x="23" y="-288" font-family="Helvetica,sans-Serif" font-size="10.00">AttachResult()</text>
<text text-anchor="start" x="10" y="-273" font-family="Helvetica,sans-Serif" font-size="10.00">+</text>
<text text-anchor="start" x="23" y="-273" font-family="Helvetica,sans-Serif" font-size="10.00">Result()</text>
<text text-anchor="start" x="10" y="-258" font-family="Helvetica,sans-Serif" font-size="10.00">+</text>
<text text-anchor="start" x="23" y="-258" font-family="Helvetica,sans-Serif" font-size="10.00">Result()</text>
<text text-anchor="start" x="10" y="-243" font-family="Helvetica,sans-Serif" font-size="10.00">+</text>
<text text-anchor="start" x="23" y="-243" font-family="Helvetica,sans-Serif" font-size="10.00">HasResult()</text>
<text text-anchor="start" x="10" y="-228" font-family="Helvetica,sans-Serif" font-size="10.00">+</text>
<text text-anchor="start" x="23" y="-228" font-family="Helvetica,sans-Serif" font-size="10.00">AllResults()</text>
<polygon fill="#666666" stroke="#666666" points="6,-688 6,-688 145,-688 145,-688 6,-688"/>
<polygon fill="#666666" stroke="#666666" points="6,-433 6,-433 21,-433 21,-433 6,-433"/>
<polygon fill="#666666" stroke="#666666" points="21,-433 21,-433 145,-433 145,-433 21,-433"/>
<polygon fill="none" stroke="#666666" points="5.5,-221 5.5,-705 144.5,-705 144.5,-221 5.5,-221"/>
</a>
</g>
</g>
<!-- Node2&#45;&gt;Node1 -->
<g id="edge1_Node000001_Node000002" class="edge">
<title>Node2&#45;&gt;Node1</title>
<g id="a_edge1_Node000001_Node000002"><a xlink:title=" ">
<path fill="none" stroke="#63b8ff" d="M75,-210.74C75,-201.58 75,-192.68 75,-184.14"/>
<polygon fill="none" stroke="#63b8ff" points="71.5,-210.76 75,-220.76 78.5,-210.76 71.5,-210.76"/>
</a>
</g>
</g>
<!-- Node3 -->
<g id="Node000003" class="node">
<title>Node3</title>
<g id="a_Node000003"><a xlink:href="classnmr_1_1Protein.html" target="_top" xlink:title=" ">
<polygon fill="white" stroke="transparent" points="133.5,-1071 16.5,-1071 16.5,-752 133.5,-752 133.5,-1071"/>
<text text-anchor="start" x="45" y="-1058.5" font-family="Helvetica,sans-Serif" font-size="10.00">nmr::Protein</text>
<text text-anchor="start" x="23.5" y="-1043.5" font-family="Helvetica,sans-Serif" font-size="10.00">&#45;</text>
<text text-anchor="start" x="34" y="-1043.5" font-family="Helvetica,sans-Serif" font-size="10.00">atoms_</text>
<text text-anchor="start" x="23.5" y="-1028.5" font-family="Helvetica,sans-Serif" font-size="10.00">&#45;</text>
<text text-anchor="start" x="34" y="-1028.5" font-family="Helvetica,sans-Serif" font-size="10.00">residues_</text>
<text text-anchor="start" x="23.5" y="-1013.5" font-family="Helvetica,sans-Serif" font-size="10.00">&#45;</text>
<text text-anchor="start" x="34" y="-1013.5" font-family="Helvetica,sans-Serif" font-size="10.00">rings_</text>
<text text-anchor="start" x="23.5" y="-998.5" font-family="Helvetica,sans-Serif" font-size="10.00">&#45;</text>
<text text-anchor="start" x="34" y="-998.5" font-family="Helvetica,sans-Serif" font-size="10.00">topology_</text>
<text text-anchor="start" x="23.5" y="-983.5" font-family="Helvetica,sans-Serif" font-size="10.00">&#45;</text>
<text text-anchor="start" x="34" y="-983.5" font-family="Helvetica,sans-Serif" font-size="10.00">build_context_</text>
<text text-anchor="start" x="23.5" y="-968.5" font-family="Helvetica,sans-Serif" font-size="10.00">&#45;</text>
<text text-anchor="start" x="34" y="-968.5" font-family="Helvetica,sans-Serif" font-size="10.00">conformations_</text>
<text text-anchor="start" x="23.5" y="-953.5" font-family="Helvetica,sans-Serif" font-size="10.00">&#45;</text>
<text text-anchor="start" x="34" y="-953.5" font-family="Helvetica,sans-Serif" font-size="10.00">crystal_index_</text>
<text text-anchor="start" x="23.5" y="-938.5" font-family="Helvetica,sans-Serif" font-size="10.00">&#45;</text>
<text text-anchor="start" x="34" y="-938.5" font-family="Helvetica,sans-Serif" font-size="10.00">prediction_indices_</text>
<text text-anchor="start" x="23.5" y="-923.5" font-family="Helvetica,sans-Serif" font-size="10.00">&#45;</text>
<text text-anchor="start" x="34" y="-923.5" font-family="Helvetica,sans-Serif" font-size="10.00">md_frame_indices_</text>
<text text-anchor="start" x="21" y="-908.5" font-family="Helvetica,sans-Serif" font-size="10.00">+</text>
<text text-anchor="start" x="34" y="-908.5" font-family="Helvetica,sans-Serif" font-size="10.00">Protein()</text>
<text text-anchor="start" x="21" y="-893.5" font-family="Helvetica,sans-Serif" font-size="10.00">+</text>
<text text-anchor="start" x="34" y="-893.5" font-family="Helvetica,sans-Serif" font-size="10.00">~Protein()</text>
<text text-anchor="start" x="21" y="-878.5" font-family="Helvetica,sans-Serif" font-size="10.00">+</text>
<text text-anchor="start" x="34" y="-878.5" font-family="Helvetica,sans-Serif" font-size="10.00">Protein()</text>
<text text-anchor="start" x="21" y="-863.5" font-family="Helvetica,sans-Serif" font-size="10.00">+</text>
<text text-anchor="start" x="34" y="-863.5" font-family="Helvetica,sans-Serif" font-size="10.00">operator=()</text>
<text text-anchor="start" x="21" y="-848.5" font-family="Helvetica,sans-Serif" font-size="10.00">+</text>
<text text-anchor="start" x="34" y="-848.5" font-family="Helvetica,sans-Serif" font-size="10.00">Protein()</text>
<text text-anchor="start" x="21" y="-833.5" font-family="Helvetica,sans-Serif" font-size="10.00">+</text>
<text text-anchor="start" x="34" y="-833.5" font-family="Helvetica,sans-Serif" font-size="10.00">operator=()</text>
<text text-anchor="start" x="21" y="-818.5" font-family="Helvetica,sans-Serif" font-size="10.00">+</text>
<text text-anchor="start" x="34" y="-818.5" font-family="Helvetica,sans-Serif" font-size="10.00">AtomCount()</text>
<text text-anchor="start" x="21" y="-803.5" font-family="Helvetica,sans-Serif" font-size="10.00">+</text>
<text text-anchor="start" x="34" y="-803.5" font-family="Helvetica,sans-Serif" font-size="10.00">AtomAt()</text>
<text text-anchor="start" x="21" y="-788.5" font-family="Helvetica,sans-Serif" font-size="10.00">+</text>
<text text-anchor="start" x="34" y="-788.5" font-family="Helvetica,sans-Serif" font-size="10.00">Atoms()</text>
<text text-anchor="start" x="21" y="-773.5" font-family="Helvetica,sans-Serif" font-size="10.00">+</text>
<text text-anchor="start" x="34" y="-773.5" font-family="Helvetica,sans-Serif" font-size="10.00">AddAtom()</text>
<text text-anchor="start" x="34" y="-758.5" font-family="Helvetica,sans-Serif" font-size="10.00">and 35 more...</text>
<polygon fill="#666666" stroke="#666666" points="17,-1053.5 17,-1053.5 134,-1053.5 134,-1053.5 17,-1053.5"/>
<polygon fill="#666666" stroke="#666666" points="17,-918.5 17,-918.5 32,-918.5 32,-918.5 17,-918.5"/>
<polygon fill="#666666" stroke="#666666" points="32,-918.5 32,-918.5 134,-918.5 134,-918.5 32,-918.5"/>
<polygon fill="none" stroke="#666666" points="16.5,-752 16.5,-1071 133.5,-1071 133.5,-752 16.5,-752"/>
</a>
</g>
</g>
<!-- Node3&#45;&gt;Node2 -->
<g id="edge2_Node000002_Node000003" class="edge">
<title>Node3&#45;&gt;Node2</title>
<g id="a_edge2_Node000002_Node000003"><a xlink:title=" ">
<path fill="none" stroke="#63b8ff" d="M75,-751.82C75,-740.57 75,-729.07 75,-717.47"/>
<polygon fill="none" stroke="#63b8ff" points="75,-717.34 71,-711.34 75,-705.34 79,-711.34 75,-717.34"/>
</a>
</g>
<text text-anchor="middle" x="101" y="-726" font-family="Helvetica,sans-Serif" font-size="10.00" fill="grey"> #protein_</text>
</g>
</g>
</svg>
