<?xml version="1.0" encoding="UTF-8" standalone="no"?>
<!DOCTYPE svg PUBLIC "-//W3C//DTD SVG 1.1//EN"
 "http://www.w3.org/Graphics/SVG/1.1/DTD/svg11.dtd">
<!-- Generated by graphviz version 2.43.0 (0)
 -->
<!-- Title: nmr::ProtonationDetectionResult Pages: 1 -->
<svg width="148pt" height="333pt"
 viewBox="0.00 0.00 148.00 333.00" xmlns="http://www.w3.org/2000/svg" xmlns:xlink="http://www.w3.org/1999/xlink">
<g id="graph0" class="graph" transform="scale(1 1) rotate(0) translate(4 329)">
<title>nmr::ProtonationDetectionResult</title>
<!-- Node1 -->
<g id="Node000001" class="node">
<title>Node1</title>
<g id="a_Node000001"><a xlink:title=" ">
<polygon fill="#999999" stroke="transparent" points="140,-180 0,-180 0,0 140,0 140,-180"/>
<text text-anchor="start" x="5" y="-168" font-family="Helvetica,sans-Serif" font-size="10.00">nmr::ProtonationDetection</text>
<text text-anchor="start" x="54.5" y="-157" font-family="Helvetica,sans-Serif" font-size="10.00">Result</text>
<text text-anchor="start" x="13" y="-142" font-family="Helvetica,sans-Serif" font-size="10.00">&#45;</text>
<text text-anchor="start" x="30" y="-142" font-family="Helvetica,sans-Serif" font-size="10.00">conf_</text>
<text text-anchor="start" x="13" y="-127" font-family="Helvetica,sans-Serif" font-size="10.00">&#45;</text>
<text text-anchor="start" x="30" y="-127" font-family="Helvetica,sans-Serif" font-size="10.00">assigned_count_</text>
<text text-anchor="start" x="13" y="-112" font-family="Helvetica,sans-Serif" font-size="10.00">&#45;</text>
<text text-anchor="start" x="30" y="-112" font-family="Helvetica,sans-Serif" font-size="10.00">unresolved_count_</text>
<text text-anchor="start" x="13" y="-97" font-family="Helvetica,sans-Serif" font-size="10.00">&#45;</text>
<text text-anchor="start" x="30" y="-97" font-family="Helvetica,sans-Serif" font-size="10.00">variant_names_</text>
<text text-anchor="start" x="10.5" y="-82" font-family="Helvetica,sans-Serif" font-size="10.00">+</text>
<text text-anchor="start" x="30" y="-82" font-family="Helvetica,sans-Serif" font-size="10.00">Name()</text>
<text text-anchor="start" x="10.5" y="-67" font-family="Helvetica,sans-Serif" font-size="10.00">+</text>
<text text-anchor="start" x="30" y="-67" font-family="Helvetica,sans-Serif" font-size="10.00">Dependencies()</text>
<text text-anchor="start" x="10.5" y="-52" font-family="Helvetica,sans-Serif" font-size="10.00">+</text>
<text text-anchor="start" x="30" y="-52" font-family="Helvetica,sans-Serif" font-size="10.00">AssignedCount()</text>
<text text-anchor="start" x="10.5" y="-37" font-family="Helvetica,sans-Serif" font-size="10.00">+</text>
<text text-anchor="start" x="30" y="-37" font-family="Helvetica,sans-Serif" font-size="10.00">UnresolvedCount()</text>
<text text-anchor="start" x="10.5" y="-22" font-family="Helvetica,sans-Serif" font-size="10.00">+</text>
<text text-anchor="start" x="30" y="-22" font-family="Helvetica,sans-Serif" font-size="10.00">VariantNameAt()</text>
<text text-anchor="start" x="10.5" y="-7" font-family="Helvetica,sans-Serif" font-size="10.00">+</text>
<text text-anchor="start" x="30" y="-7" font-family="Helvetica,sans-Serif" font-size="10.00">Compute()</text>
<polygon fill="#666666" stroke="#666666" points="0,-152 0,-152 140,-152 140,-152 0,-152"/>
<polygon fill="#666666" stroke="#666666" points="0,-92 0,-92 28,-92 28,-92 0,-92"/>
<polygon fill="#666666" stroke="#666666" points="28,-92 28,-92 140,-92 140,-92 28,-92"/>
<polygon fill="none" stroke="#666666" points="0,0 0,-180 140,-180 140,0 0,0"/>
</a>
</g>
</g>
<!-- Node2 -->
<g id="Node000002" class="node">
<title>Node2</title>
<g id="a_Node000002"><a xlink:href="classnmr_1_1ConformationResult.html" target="_top" xlink:title=" ">
<polygon fill="white" stroke="transparent" points="137.5,-325 2.5,-325 2.5,-216 137.5,-216 137.5,-325"/>
<text text-anchor="start" x="8.5" y="-312.5" font-family="Helvetica,sans-Serif" font-size="10.00">nmr::ConformationResult</text>
<text text-anchor="start" x="68.5" y="-297.5" font-family="Helvetica,sans-Serif" font-size="10.00"> </text>
<text text-anchor="start" x="7" y="-282.5" font-family="Helvetica,sans-Serif" font-size="10.00">+</text>
<text text-anchor="start" x="20" y="-282.5" font-family="Helvetica,sans-Serif" font-size="10.00">~ConformationResult()</text>
<text text-anchor="start" x="7" y="-267.5" font-family="Helvetica,sans-Serif" font-size="10.00">+</text>
<text text-anchor="start" x="20" y="-267.5" font-family="Helvetica,sans-Serif" font-size="10.00">Name()</text>
<text text-anchor="start" x="7" y="-252.5" font-family="Helvetica,sans-Serif" font-size="10.00">+</text>
<text text-anchor="start" x="20" y="-252.5" font-family="Helvetica,sans-Serif" font-size="10.00">Dependencies()</text>
<text text-anchor="start" x="7" y="-237.5" font-family="Helvetica,sans-Serif" font-size="10.00">+</text>
<text text-anchor="start" x="20" y="-237.5" font-family="Helvetica,sans-Serif" font-size="10.00">WriteFeatures()</text>
<text text-anchor="start" x="7" y="-222.5" font-family="Helvetica,sans-Serif" font-size="10.00">+</text>
<text text-anchor="start" x="20" y="-222.5" font-family="Helvetica,sans-Serif" font-size="10.00">WriteAllFeatures()</text>
<polygon fill="#666666" stroke="#666666" points="3,-307.5 3,-307.5 138,-307.5 138,-307.5 3,-307.5"/>
<polygon fill="#666666" stroke="#666666" points="3,-292.5 3,-292.5 138,-292.5 138,-292.5 3,-292.5"/>
<polygon fill="none" stroke="#666666" points="2.5,-216 2.5,-325 137.5,-325 137.5,-216 2.5,-216"/>
</a>
</g>
</g>
<!-- Node2&#45;&gt;Node1 -->
<g id="edge1_Node000001_Node000002" class="edge">
<title>Node2&#45;&gt;Node1</title>
<g id="a_edge1_Node000001_Node000002"><a xlink:title=" ">
<path fill="none" stroke="#63b8ff" d="M70,-205.94C70,-197.59 70,-188.91 70,-180.23"/>
<polygon fill="none" stroke="#63b8ff" points="66.5,-205.94 70,-215.94 73.5,-205.94 66.5,-205.94"/>
</a>
</g>
</g>
</g>
</svg>
