<?xml version="1.0" encoding="UTF-8" standalone="no"?>
<!DOCTYPE svg PUBLIC "-//W3C//DTD SVG 1.1//EN"
 "http://www.w3.org/Graphics/SVG/1.1/DTD/svg11.dtd">
<!-- Generated by graphviz version 2.43.0 (0)
 -->
<!-- Title: nmr::ChargeAssignmentResult Pages: 1 -->
<svg width="167pt" height="427pt"
 viewBox="0.00 0.00 167.00 427.00" xmlns="http://www.w3.org/2000/svg" xmlns:xlink="http://www.w3.org/1999/xlink">
<g id="graph0" class="graph" transform="scale(1 1) rotate(0) translate(4 423)">
<title>nmr::ChargeAssignmentResult</title>
<!-- Node1 -->
<g id="Node000001" class="node">
<title>Node1</title>
<g id="a_Node000001"><a xlink:title=" ">
<polygon fill="#999999" stroke="transparent" points="159,-274 0,-274 0,0 159,0 159,-274"/>
<text text-anchor="start" x="5.5" y="-262" font-family="Helvetica,sans-Serif" font-size="10.00">nmr::ChargeAssignmentResult</text>
<text text-anchor="start" x="13.5" y="-247" font-family="Helvetica,sans-Serif" font-size="10.00">&#45;</text>
<text text-anchor="start" x="30.5" y="-247" font-family="Helvetica,sans-Serif" font-size="10.00">conf_</text>
<text text-anchor="start" x="13.5" y="-232" font-family="Helvetica,sans-Serif" font-size="10.00">&#45;</text>
<text text-anchor="start" x="30.5" y="-232" font-family="Helvetica,sans-Serif" font-size="10.00">total_charge_</text>
<text text-anchor="start" x="13.5" y="-217" font-family="Helvetica,sans-Serif" font-size="10.00">&#45;</text>
<text text-anchor="start" x="30.5" y="-217" font-family="Helvetica,sans-Serif" font-size="10.00">assigned_count_</text>
<text text-anchor="start" x="13.5" y="-202" font-family="Helvetica,sans-Serif" font-size="10.00">&#45;</text>
<text text-anchor="start" x="30.5" y="-202" font-family="Helvetica,sans-Serif" font-size="10.00">unassigned_count_</text>
<text text-anchor="start" x="13.5" y="-187" font-family="Helvetica,sans-Serif" font-size="10.00">&#45;</text>
<text text-anchor="start" x="30.5" y="-187" font-family="Helvetica,sans-Serif" font-size="10.00">source_</text>
<text text-anchor="start" x="11" y="-172" font-family="Helvetica,sans-Serif" font-size="10.00">+</text>
<text text-anchor="start" x="30.5" y="-172" font-family="Helvetica,sans-Serif" font-size="10.00">Name()</text>
<text text-anchor="start" x="11" y="-157" font-family="Helvetica,sans-Serif" font-size="10.00">+</text>
<text text-anchor="start" x="30.5" y="-157" font-family="Helvetica,sans-Serif" font-size="10.00">Dependencies()</text>
<text text-anchor="start" x="11" y="-142" font-family="Helvetica,sans-Serif" font-size="10.00">+</text>
<text text-anchor="start" x="30.5" y="-142" font-family="Helvetica,sans-Serif" font-size="10.00">ChargeAt()</text>
<text text-anchor="start" x="11" y="-127" font-family="Helvetica,sans-Serif" font-size="10.00">+</text>
<text text-anchor="start" x="30.5" y="-127" font-family="Helvetica,sans-Serif" font-size="10.00">RadiusAt()</text>
<text text-anchor="start" x="11" y="-112" font-family="Helvetica,sans-Serif" font-size="10.00">+</text>
<text text-anchor="start" x="30.5" y="-112" font-family="Helvetica,sans-Serif" font-size="10.00">TotalCharge()</text>
<text text-anchor="start" x="11" y="-97" font-family="Helvetica,sans-Serif" font-size="10.00">+</text>
<text text-anchor="start" x="30.5" y="-97" font-family="Helvetica,sans-Serif" font-size="10.00">AssignedCount()</text>
<text text-anchor="start" x="11" y="-82" font-family="Helvetica,sans-Serif" font-size="10.00">+</text>
<text text-anchor="start" x="30.5" y="-82" font-family="Helvetica,sans-Serif" font-size="10.00">UnassignedCount()</text>
<text text-anchor="start" x="11" y="-67" font-family="Helvetica,sans-Serif" font-size="10.00">+</text>
<text text-anchor="start" x="30.5" y="-67" font-family="Helvetica,sans-Serif" font-size="10.00">Source()</text>
<text text-anchor="start" x="11" y="-52" font-family="Helvetica,sans-Serif" font-size="10.00">+</text>
<text text-anchor="start" x="30.5" y="-52" font-family="Helvetica,sans-Serif" font-size="10.00">Compute()</text>
<text text-anchor="start" x="11" y="-37" font-family="Helvetica,sans-Serif" font-size="10.00">+</text>
<text text-anchor="start" x="30.5" y="-37" font-family="Helvetica,sans-Serif" font-size="10.00">Compute()</text>
<text text-anchor="start" x="11" y="-22" font-family="Helvetica,sans-Serif" font-size="10.00">+</text>
<text text-anchor="start" x="30.5" y="-22" font-family="Helvetica,sans-Serif" font-size="10.00">LoadParamFile()</text>
<text text-anchor="start" x="11" y="-7" font-family="Helvetica,sans-Serif" font-size="10.00">+</text>
<text text-anchor="start" x="30.5" y="-7" font-family="Helvetica,sans-Serif" font-size="10.00">VariantResidueName()</text>
<polygon fill="#666666" stroke="#666666" points="0.5,-257 0.5,-257 159.5,-257 159.5,-257 0.5,-257"/>
<polygon fill="#666666" stroke="#666666" points="0.5,-182 0.5,-182 28.5,-182 28.5,-182 0.5,-182"/>
<polygon fill="#666666" stroke="#666666" points="28.5,-182 28.5,-182 159.5,-182 159.5,-182 28.5,-182"/>
<polygon fill="none" stroke="#666666" points="0,0 0,-274 159,-274 159,0 0,0"/>
</a>
</g>
</g>
<!-- Node2 -->
<g id="Node000002" class="node">
<title>Node2</title>
<g id="a_Node000002"><a xlink:href="classnmr_1_1ConformationResult.html" target="_top" xlink:title=" ">
<polygon fill="white" stroke="transparent" points="147,-419 12,-419 12,-310 147,-310 147,-419"/>
<text text-anchor="start" x="18" y="-406.5" font-family="Helvetica,sans-Serif" font-size="10.00">nmr::ConformationResult</text>
<text text-anchor="start" x="78" y="-391.5" font-family="Helvetica,sans-Serif" font-size="10.00"> </text>
<text text-anchor="start" x="16.5" y="-376.5" font-family="Helvetica,sans-Serif" font-size="10.00">+</text>
<text text-anchor="start" x="29.5" y="-376.5" font-family="Helvetica,sans-Serif" font-size="10.00">~ConformationResult()</text>
<text text-anchor="start" x="16.5" y="-361.5" font-family="Helvetica,sans-Serif" font-size="10.00">+</text>
<text text-anchor="start" x="29.5" y="-361.5" font-family="Helvetica,sans-Serif" font-size="10.00">Name()</text>
<text text-anchor="start" x="16.5" y="-346.5" font-family="Helvetica,sans-Serif" font-size="10.00">+</text>
<text text-anchor="start" x="29.5" y="-346.5" font-family="Helvetica,sans-Serif" font-size="10.00">Dependencies()</text>
<text text-anchor="start" x="16.5" y="-331.5" font-family="Helvetica,sans-Serif" font-size="10.00">+</text>
<text text-anchor="start" x="29.5" y="-331.5" font-family="Helvetica,sans-Serif" font-size="10.00">WriteFeatures()</text>
<text text-anchor="start" x="16.5" y="-316.5" font-family="Helvetica,sans-Serif" font-size="10.00">+</text>
<text text-anchor="start" x="29.5" y="-316.5" font-family="Helvetica,sans-Serif" font-size="10.00">WriteAllFeatures()</text>
<polygon fill="#666666" stroke="#666666" points="12.5,-401.5 12.5,-401.5 147.5,-401.5 147.5,-401.5 12.5,-401.5"/>
<polygon fill="#666666" stroke="#666666" points="12.5,-386.5 12.5,-386.5 147.5,-386.5 147.5,-386.5 12.5,-386.5"/>
<polygon fill="none" stroke="#666666" points="12,-310 12,-419 147,-419 147,-310 12,-310"/>
</a>
</g>
</g>
<!-- Node2&#45;&gt;Node1 -->
<g id="edge1_Node000001_Node000002" class="edge">
<title>Node2&#45;&gt;Node1</title>
<g id="a_edge1_Node000001_Node000002"><a xlink:title=" ">
<path fill="none" stroke="#63b8ff" d="M79.5,-299.65C79.5,-291.46 79.5,-282.85 79.5,-274.04"/>
<polygon fill="none" stroke="#63b8ff" points="76,-299.77 79.5,-309.77 83,-299.77 76,-299.77"/>
</a>
</g>
</g>
</g>
</svg>
