<?xml version="1.0" encoding="UTF-8" standalone="no"?>
<!DOCTYPE svg PUBLIC "-//W3C//DTD SVG 1.1//EN"
 "http://www.w3.org/Graphics/SVG/1.1/DTD/svg11.dtd">
<!-- Generated by graphviz version 2.43.0 (0)
 -->
<!-- Title: nmr::PropkaProtonator Pages: 1 -->
<svg width="177pt" height="277pt"
 viewBox="0.00 0.00 177.00 277.00" xmlns="http://www.w3.org/2000/svg" xmlns:xlink="http://www.w3.org/1999/xlink">
<g id="graph0" class="graph" transform="scale(1 1) rotate(0) translate(4 273)">
<title>nmr::PropkaProtonator</title>
<!-- Node1 -->
<g id="Node000001" class="node">
<title>Node1</title>
<g id="a_Node000001"><a xlink:title=" ">
<polygon fill="#999999" stroke="transparent" points="169,-139 0,-139 0,0 169,0 169,-139"/>
<text text-anchor="start" x="30" y="-126.5" font-family="Helvetica,sans-Serif" font-size="10.00">nmr::PropkaProtonator</text>
<text text-anchor="start" x="83" y="-111.5" font-family="Helvetica,sans-Serif" font-size="10.00"> </text>
<text text-anchor="start" x="4.5" y="-96.5" font-family="Helvetica,sans-Serif" font-size="10.00">+</text>
<text text-anchor="start" x="17.5" y="-96.5" font-family="Helvetica,sans-Serif" font-size="10.00">Protonate()</text>
<text text-anchor="start" x="4.5" y="-81.5" font-family="Helvetica,sans-Serif" font-size="10.00">+</text>
<text text-anchor="start" x="17.5" y="-81.5" font-family="Helvetica,sans-Serif" font-size="10.00">ToolName()</text>
<text text-anchor="start" x="4.5" y="-66.5" font-family="Helvetica,sans-Serif" font-size="10.00">+</text>
<text text-anchor="start" x="17.5" y="-66.5" font-family="Helvetica,sans-Serif" font-size="10.00">ToolVersion()</text>
<text text-anchor="start" x="4.5" y="-51.5" font-family="Helvetica,sans-Serif" font-size="10.00">+</text>
<text text-anchor="start" x="17.5" y="-51.5" font-family="Helvetica,sans-Serif" font-size="10.00">PredictPka()</text>
<text text-anchor="start" x="7" y="-36.5" font-family="Helvetica,sans-Serif" font-size="10.00">&#45;</text>
<text text-anchor="start" x="17.5" y="-36.5" font-family="Helvetica,sans-Serif" font-size="10.00">WriteTempPdb()</text>
<text text-anchor="start" x="7" y="-21.5" font-family="Helvetica,sans-Serif" font-size="10.00">&#45;</text>
<text text-anchor="start" x="17.5" y="-21.5" font-family="Helvetica,sans-Serif" font-size="10.00">ParsePkaFile()</text>
<text text-anchor="start" x="7" y="-6.5" font-family="Helvetica,sans-Serif" font-size="10.00">&#45;</text>
<text text-anchor="start" x="17.5" y="-6.5" font-family="Helvetica,sans-Serif" font-size="10.00">ApplyHendersonHasselbalch()</text>
<polygon fill="#666666" stroke="#666666" points="0.5,-121.5 0.5,-121.5 169.5,-121.5 169.5,-121.5 0.5,-121.5"/>
<polygon fill="#666666" stroke="#666666" points="0.5,-106.5 0.5,-106.5 169.5,-106.5 169.5,-106.5 0.5,-106.5"/>
<polygon fill="none" stroke="#666666" points="0,0 0,-139 169,-139 169,0 0,0"/>
</a>
</g>
</g>
<!-- Node2 -->
<g id="Node000002" class="node">
<title>Node2</title>
<g id="a_Node000002"><a xlink:href="classnmr_1_1Protonator.html" target="_top" xlink:title=" ">
<polygon fill="white" stroke="transparent" points="128.5,-269 40.5,-269 40.5,-175 128.5,-175 128.5,-269"/>
<text text-anchor="start" x="46" y="-257" font-family="Helvetica,sans-Serif" font-size="10.00">nmr::Protonator</text>
<text text-anchor="start" x="82.5" y="-242" font-family="Helvetica,sans-Serif" font-size="10.00"> </text>
<text text-anchor="start" x="44.5" y="-227" font-family="Helvetica,sans-Serif" font-size="10.00">+</text>
<text text-anchor="start" x="57.5" y="-227" font-family="Helvetica,sans-Serif" font-size="10.00">~Protonator()</text>
<text text-anchor="start" x="44.5" y="-212" font-family="Helvetica,sans-Serif" font-size="10.00">+</text>
<text text-anchor="start" x="57.5" y="-212" font-family="Helvetica,sans-Serif" font-size="10.00">Protonate()</text>
<text text-anchor="start" x="44.5" y="-197" font-family="Helvetica,sans-Serif" font-size="10.00">+</text>
<text text-anchor="start" x="57.5" y="-197" font-family="Helvetica,sans-Serif" font-size="10.00">ToolName()</text>
<text text-anchor="start" x="44.5" y="-182" font-family="Helvetica,sans-Serif" font-size="10.00">+</text>
<text text-anchor="start" x="57.5" y="-182" font-family="Helvetica,sans-Serif" font-size="10.00">ToolVersion()</text>
<polygon fill="#666666" stroke="#666666" points="40.5,-252 40.5,-252 128.5,-252 128.5,-252 40.5,-252"/>
<polygon fill="#666666" stroke="#666666" points="40.5,-237 40.5,-237 128.5,-237 128.5,-237 40.5,-237"/>
<polygon fill="none" stroke="#666666" points="40.5,-175 40.5,-269 128.5,-269 128.5,-175 40.5,-175"/>
</a>
</g>
</g>
<!-- Node2&#45;&gt;Node1 -->
<g id="edge1_Node000001_Node000002" class="edge">
<title>Node2&#45;&gt;Node1</title>
<g id="a_edge1_Node000001_Node000002"><a xlink:title=" ">
<path fill="none" stroke="#63b8ff" d="M84.5,-164.38C84.5,-156.14 84.5,-147.58 84.5,-139.14"/>
<polygon fill="none" stroke="#63b8ff" points="81,-164.62 84.5,-174.62 88,-164.62 81,-164.62"/>
</a>
</g>
</g>
</g>
</svg>
