<?xml version="1.0" encoding="UTF-8" standalone="no"?>
<!DOCTYPE svg PUBLIC "-//W3C//DTD SVG 1.1//EN"
 "http://www.w3.org/Graphics/SVG/1.1/DTD/svg11.dtd">
<!-- Generated by graphviz version 2.43.0 (0)
 -->
<!-- Title: nmr::BiotSavartResult Pages: 1 -->
<svg width="143pt" height="277pt"
 viewBox="0.00 0.00 143.00 277.00" xmlns="http://www.w3.org/2000/svg" xmlns:xlink="http://www.w3.org/1999/xlink">
<g id="graph0" class="graph" transform="scale(1 1) rotate(0) translate(4 273)">
<title>nmr::BiotSavartResult</title>
<!-- Node1 -->
<g id="Node000001" class="node">
<title>Node1</title>
<g id="a_Node000001"><a xlink:title=" ">
<polygon fill="#999999" stroke="transparent" points="128,-124 7,-124 7,0 128,0 128,-124"/>
<text text-anchor="start" x="14" y="-112" font-family="Helvetica,sans-Serif" font-size="10.00">nmr::BiotSavartResult</text>
<text text-anchor="start" x="14" y="-97" font-family="Helvetica,sans-Serif" font-size="10.00">&#45;</text>
<text text-anchor="start" x="24.5" y="-97" font-family="Helvetica,sans-Serif" font-size="10.00">conf_</text>
<text text-anchor="start" x="11.5" y="-82" font-family="Helvetica,sans-Serif" font-size="10.00">+</text>
<text text-anchor="start" x="24.5" y="-82" font-family="Helvetica,sans-Serif" font-size="10.00">Name()</text>
<text text-anchor="start" x="11.5" y="-67" font-family="Helvetica,sans-Serif" font-size="10.00">+</text>
<text text-anchor="start" x="24.5" y="-67" font-family="Helvetica,sans-Serif" font-size="10.00">Dependencies()</text>
<text text-anchor="start" x="11.5" y="-52" font-family="Helvetica,sans-Serif" font-size="10.00">+</text>
<text text-anchor="start" x="24.5" y="-52" font-family="Helvetica,sans-Serif" font-size="10.00">SampleShieldingAt()</text>
<text text-anchor="start" x="11.5" y="-37" font-family="Helvetica,sans-Serif" font-size="10.00">+</text>
<text text-anchor="start" x="24.5" y="-37" font-family="Helvetica,sans-Serif" font-size="10.00">SampleBFieldAt()</text>
<text text-anchor="start" x="11.5" y="-22" font-family="Helvetica,sans-Serif" font-size="10.00">+</text>
<text text-anchor="start" x="24.5" y="-22" font-family="Helvetica,sans-Serif" font-size="10.00">WriteFeatures()</text>
<text text-anchor="start" x="11.5" y="-7" font-family="Helvetica,sans-Serif" font-size="10.00">+</text>
<text text-anchor="start" x="24.5" y="-7" font-family="Helvetica,sans-Serif" font-size="10.00">Compute()</text>
<polygon fill="#666666" stroke="#666666" points="7.5,-107 7.5,-107 128.5,-107 128.5,-107 7.5,-107"/>
<polygon fill="#666666" stroke="#666666" points="7.5,-92 7.5,-92 22.5,-92 22.5,-92 7.5,-92"/>
<polygon fill="#666666" stroke="#666666" points="22.5,-92 22.5,-92 128.5,-92 128.5,-92 22.5,-92"/>
<polygon fill="none" stroke="#666666" points="7,0 7,-124 128,-124 128,0 7,0"/>
</a>
</g>
</g>
<!-- Node2 -->
<g id="Node000002" class="node">
<title>Node2</title>
<g id="a_Node000002"><a xlink:href="classnmr_1_1ConformationResult.html" target="_top" xlink:title=" ">
<polygon fill="white" stroke="transparent" points="135,-269 0,-269 0,-160 135,-160 135,-269"/>
<text text-anchor="start" x="6" y="-256.5" font-family="Helvetica,sans-Serif" font-size="10.00">nmr::ConformationResult</text>
<text text-anchor="start" x="66" y="-241.5" font-family="Helvetica,sans-Serif" font-size="10.00"> </text>
<text text-anchor="start" x="4.5" y="-226.5" font-family="Helvetica,sans-Serif" font-size="10.00">+</text>
<text text-anchor="start" x="17.5" y="-226.5" font-family="Helvetica,sans-Serif" font-size="10.00">~ConformationResult()</text>
<text text-anchor="start" x="4.5" y="-211.5" font-family="Helvetica,sans-Serif" font-size="10.00">+</text>
<text text-anchor="start" x="17.5" y="-211.5" font-family="Helvetica,sans-Serif" font-size="10.00">Name()</text>
<text text-anchor="start" x="4.5" y="-196.5" font-family="Helvetica,sans-Serif" font-size="10.00">+</text>
<text text-anchor="start" x="17.5" y="-196.5" font-family="Helvetica,sans-Serif" font-size="10.00">Dependencies()</text>
<text text-anchor="start" x="4.5" y="-181.5" font-family="Helvetica,sans-Serif" font-size="10.00">+</text>
<text text-anchor="start" x="17.5" y="-181.5" font-family="Helvetica,sans-Serif" font-size="10.00">WriteFeatures()</text>
<text text-anchor="start" x="4.5" y="-166.5" font-family="Helvetica,sans-Serif" font-size="10.00">+</text>
<text text-anchor="start" x="17.5" y="-166.5" font-family="Helvetica,sans-Serif" font-size="10.00">WriteAllFeatures()</text>
<polygon fill="#666666" stroke="#666666" points="0.5,-251.5 0.5,-251.5 135.5,-251.5 135.5,-251.5 0.5,-251.5"/>
<polygon fill="#666666" stroke="#666666" points="0.5,-236.5 0.5,-236.5 135.5,-236.5 135.5,-236.5 0.5,-236.5"/>
<polygon fill="none" stroke="#666666" points="0,-160 0,-269 135,-269 135,-160 0,-160"/>
</a>
</g>
</g>
<!-- Node2&#45;&gt;Node1 -->
<g id="edge1_Node000001_Node000002" class="edge">
<title>Node2&#45;&gt;Node1</title>
<g id="a_edge1_Node000001_Node000002"><a xlink:title=" ">
<path fill="none" stroke="#63b8ff" d="M67.5,-149.49C67.5,-141.11 67.5,-132.54 67.5,-124.21"/>
<polygon fill="none" stroke="#63b8ff" points="64,-149.59 67.5,-159.59 71,-149.59 64,-149.59"/>
</a>
</g>
</g>
</g>
</svg>
