<?xml version="1.0" encoding="UTF-8" standalone="no"?>
<!DOCTYPE svg PUBLIC "-//W3C//DTD SVG 1.1//EN"
 "http://www.w3.org/Graphics/SVG/1.1/DTD/svg11.dtd">
<!-- Generated by graphviz version 2.43.0 (0)
 -->
<!-- Title: nmr::BiotSavartResult Pages: 1 -->
<svg width="300pt" height="1029pt"
 viewBox="0.00 0.00 300.00 1029.00" xmlns="http://www.w3.org/2000/svg" xmlns:xlink="http://www.w3.org/1999/xlink">
<g id="graph0" class="graph" transform="scale(1 1) rotate(0) translate(4 1025)">
<title>nmr::BiotSavartResult</title>
<!-- Node1 -->
<g id="Node000001" class="node">
<title>Node1</title>
<g id="a_Node000001"><a xlink:title=" ">
<polygon fill="#999999" stroke="transparent" points="175,-124 54,-124 54,0 175,0 175,-124"/>
<text text-anchor="start" x="61" y="-112" font-family="Helvetica,sans-Serif" font-size="10.00">nmr::BiotSavartResult</text>
<text text-anchor="start" x="113" y="-97" font-family="Helvetica,sans-Serif" font-size="10.00"> </text>
<text text-anchor="start" x="58.5" y="-82" font-family="Helvetica,sans-Serif" font-size="10.00">+</text>
<text text-anchor="start" x="71.5" y="-82" font-family="Helvetica,sans-Serif" font-size="10.00">Name()</text>
<text text-anchor="start" x="58.5" y="-67" font-family="Helvetica,sans-Serif" font-size="10.00">+</text>
<text text-anchor="start" x="71.5" y="-67" font-family="Helvetica,sans-Serif" font-size="10.00">Dependencies()</text>
<text text-anchor="start" x="58.5" y="-52" font-family="Helvetica,sans-Serif" font-size="10.00">+</text>
<text text-anchor="start" x="71.5" y="-52" font-family="Helvetica,sans-Serif" font-size="10.00">SampleShieldingAt()</text>
<text text-anchor="start" x="58.5" y="-37" font-family="Helvetica,sans-Serif" font-size="10.00">+</text>
<text text-anchor="start" x="71.5" y="-37" font-family="Helvetica,sans-Serif" font-size="10.00">SampleBFieldAt()</text>
<text text-anchor="start" x="58.5" y="-22" font-family="Helvetica,sans-Serif" font-size="10.00">+</text>
<text text-anchor="start" x="71.5" y="-22" font-family="Helvetica,sans-Serif" font-size="10.00">WriteFeatures()</text>
<text text-anchor="start" x="58.5" y="-7" font-family="Helvetica,sans-Serif" font-size="10.00">+</text>
<text text-anchor="start" x="71.5" y="-7" font-family="Helvetica,sans-Serif" font-size="10.00">Compute()</text>
<polygon fill="#666666" stroke="#666666" points="54.5,-107 54.5,-107 175.5,-107 175.5,-107 54.5,-107"/>
<polygon fill="#666666" stroke="#666666" points="54.5,-92 54.5,-92 175.5,-92 175.5,-92 54.5,-92"/>
<polygon fill="none" stroke="#666666" points="54,0 54,-124 175,-124 175,0 54,0"/>
</a>
</g>
</g>
<!-- Node2 -->
<g id="Node000002" class="node">
<title>Node2</title>
<g id="a_Node000002"><a xlink:href="classnmr_1_1ConformationResult.html" target="_top" xlink:title=" ">
<polygon fill="white" stroke="transparent" points="135,-467.5 0,-467.5 0,-358.5 135,-358.5 135,-467.5"/>
<text text-anchor="start" x="6" y="-455" font-family="Helvetica,sans-Serif" font-size="10.00">nmr::ConformationResult</text>
<text text-anchor="start" x="66" y="-440" font-family="Helvetica,sans-Serif" font-size="10.00"> </text>
<text text-anchor="start" x="4.5" y="-425" font-family="Helvetica,sans-Serif" font-size="10.00">+</text>
<text text-anchor="start" x="17.5" y="-425" font-family="Helvetica,sans-Serif" font-size="10.00">~ConformationResult()</text>
<text text-anchor="start" x="4.5" y="-410" font-family="Helvetica,sans-Serif" font-size="10.00">+</text>
<text text-anchor="start" x="17.5" y="-410" font-family="Helvetica,sans-Serif" font-size="10.00">Name()</text>
<text text-anchor="start" x="4.5" y="-395" font-family="Helvetica,sans-Serif" font-size="10.00">+</text>
<text text-anchor="start" x="17.5" y="-395" font-family="Helvetica,sans-Serif" font-size="10.00">Dependencies()</text>
<text text-anchor="start" x="4.5" y="-380" font-family="Helvetica,sans-Serif" font-size="10.00">+</text>
<text text-anchor="start" x="17.5" y="-380" font-family="Helvetica,sans-Serif" font-size="10.00">WriteFeatures()</text>
<text text-anchor="start" x="4.5" y="-365" font-family="Helvetica,sans-Serif" font-size="10.00">+</text>
<text text-anchor="start" x="17.5" y="-365" font-family="Helvetica,sans-Serif" font-size="10.00">WriteAllFeatures()</text>
<polygon fill="#666666" stroke="#666666" points="0.5,-450 0.5,-450 135.5,-450 135.5,-450 0.5,-450"/>
<polygon fill="#666666" stroke="#666666" points="0.5,-435 0.5,-435 135.5,-435 135.5,-435 0.5,-435"/>
<polygon fill="none" stroke="#666666" points="0,-358.5 0,-467.5 135,-467.5 135,-358.5 0,-358.5"/>
</a>
</g>
</g>
<!-- Node2&#45;&gt;Node1 -->
<g id="edge1_Node000001_Node000002" class="edge">
<title>Node2&#45;&gt;Node1</title>
<g id="a_edge1_Node000001_Node000002"><a xlink:title=" ">
<path fill="none" stroke="#63b8ff" d="M76.08,-348.3C84.67,-284.51 97.79,-187.05 106.26,-124.17"/>
<polygon fill="none" stroke="#63b8ff" points="72.61,-347.86 74.74,-358.23 79.54,-348.79 72.61,-347.86"/>
</a>
</g>
</g>
<!-- Node3 -->
<g id="Node000003" class="node">
<title>Node3</title>
<g id="a_Node000003"><a xlink:href="classnmr_1_1ProteinConformation.html" target="_top" xlink:title=" ">
<polygon fill="white" stroke="transparent" points="292,-655 153,-655 153,-171 292,-171 292,-655"/>
<text text-anchor="start" x="159.5" y="-643" font-family="Helvetica,sans-Serif" font-size="10.00">nmr::ProteinConformation</text>
<text text-anchor="start" x="157.5" y="-628" font-family="Helvetica,sans-Serif" font-size="10.00">+</text>
<text text-anchor="start" x="170.5" y="-628" font-family="Helvetica,sans-Serif" font-size="10.00">ring_geometries</text>
<text text-anchor="start" x="157.5" y="-613" font-family="Helvetica,sans-Serif" font-size="10.00">+</text>
<text text-anchor="start" x="170.5" y="-613" font-family="Helvetica,sans-Serif" font-size="10.00">ring_pairs</text>
<text text-anchor="start" x="157.5" y="-598" font-family="Helvetica,sans-Serif" font-size="10.00">+</text>
<text text-anchor="start" x="170.5" y="-598" font-family="Helvetica,sans-Serif" font-size="10.00">bond_lengths</text>
<text text-anchor="start" x="157.5" y="-583" font-family="Helvetica,sans-Serif" font-size="10.00">+</text>
<text text-anchor="start" x="170.5" y="-583" font-family="Helvetica,sans-Serif" font-size="10.00">bond_directions</text>
<text text-anchor="start" x="157.5" y="-568" font-family="Helvetica,sans-Serif" font-size="10.00">+</text>
<text text-anchor="start" x="170.5" y="-568" font-family="Helvetica,sans-Serif" font-size="10.00">bond_midpoints</text>
<text text-anchor="start" x="157.5" y="-553" font-family="Helvetica,sans-Serif" font-size="10.00">+</text>
<text text-anchor="start" x="170.5" y="-553" font-family="Helvetica,sans-Serif" font-size="10.00">bounding_min</text>
<text text-anchor="start" x="157.5" y="-538" font-family="Helvetica,sans-Serif" font-size="10.00">+</text>
<text text-anchor="start" x="170.5" y="-538" font-family="Helvetica,sans-Serif" font-size="10.00">bounding_max</text>
<text text-anchor="start" x="157.5" y="-523" font-family="Helvetica,sans-Serif" font-size="10.00">+</text>
<text text-anchor="start" x="170.5" y="-523" font-family="Helvetica,sans-Serif" font-size="10.00">center_of_geometry</text>
<text text-anchor="start" x="157.5" y="-508" font-family="Helvetica,sans-Serif" font-size="10.00">+</text>
<text text-anchor="start" x="170.5" y="-508" font-family="Helvetica,sans-Serif" font-size="10.00">radius_of_gyration</text>
<text text-anchor="start" x="157.5" y="-493" font-family="Helvetica,sans-Serif" font-size="10.00">+</text>
<text text-anchor="start" x="170.5" y="-493" font-family="Helvetica,sans-Serif" font-size="10.00">rings_by_type</text>
<text text-anchor="start" x="157.5" y="-478" font-family="Helvetica,sans-Serif" font-size="10.00">+</text>
<text text-anchor="start" x="170.5" y="-478" font-family="Helvetica,sans-Serif" font-size="10.00">bonds_by_category</text>
<text text-anchor="start" x="157.5" y="-463" font-family="Helvetica,sans-Serif" font-size="10.00">+</text>
<text text-anchor="start" x="170.5" y="-463" font-family="Helvetica,sans-Serif" font-size="10.00">residues_by_type</text>
<text text-anchor="start" x="157.5" y="-448" font-family="Helvetica,sans-Serif" font-size="10.00">+</text>
<text text-anchor="start" x="170.5" y="-448" font-family="Helvetica,sans-Serif" font-size="10.00">geometry_choices</text>
<text text-anchor="start" x="157.5" y="-433" font-family="Helvetica,sans-Serif" font-size="10.00">#</text>
<text text-anchor="start" x="170.5" y="-433" font-family="Helvetica,sans-Serif" font-size="10.00">description_</text>
<text text-anchor="start" x="157.5" y="-418" font-family="Helvetica,sans-Serif" font-size="10.00">#</text>
<text text-anchor="start" x="170.5" y="-418" font-family="Helvetica,sans-Serif" font-size="10.00">positions_</text>
<text text-anchor="start" x="157.5" y="-403" font-family="Helvetica,sans-Serif" font-size="10.00">#</text>
<text text-anchor="start" x="170.5" y="-403" font-family="Helvetica,sans-Serif" font-size="10.00">atoms_</text>
<text text-anchor="start" x="157.5" y="-388" font-family="Helvetica,sans-Serif" font-size="10.00">#</text>
<text text-anchor="start" x="170.5" y="-388" font-family="Helvetica,sans-Serif" font-size="10.00">results_</text>
<text text-anchor="start" x="157.5" y="-373" font-family="Helvetica,sans-Serif" font-size="10.00">+</text>
<text text-anchor="start" x="170.5" y="-373" font-family="Helvetica,sans-Serif" font-size="10.00">ProteinConformation()</text>
<text text-anchor="start" x="157.5" y="-358" font-family="Helvetica,sans-Serif" font-size="10.00">+</text>
<text text-anchor="start" x="170.5" y="-358" font-family="Helvetica,sans-Serif" font-size="10.00">~ProteinConformation()</text>
<text text-anchor="start" x="157.5" y="-343" font-family="Helvetica,sans-Serif" font-size="10.00">+</text>
<text text-anchor="start" x="170.5" y="-343" font-family="Helvetica,sans-Serif" font-size="10.00">ProteinRef()</text>
<text text-anchor="start" x="157.5" y="-328" font-family="Helvetica,sans-Serif" font-size="10.00">+</text>
<text text-anchor="start" x="170.5" y="-328" font-family="Helvetica,sans-Serif" font-size="10.00">Description()</text>
<text text-anchor="start" x="157.5" y="-313" font-family="Helvetica,sans-Serif" font-size="10.00">+</text>
<text text-anchor="start" x="170.5" y="-313" font-family="Helvetica,sans-Serif" font-size="10.00">AtomCount()</text>
<text text-anchor="start" x="157.5" y="-298" font-family="Helvetica,sans-Serif" font-size="10.00">+</text>
<text text-anchor="start" x="170.5" y="-298" font-family="Helvetica,sans-Serif" font-size="10.00">PositionAt()</text>
<text text-anchor="start" x="157.5" y="-283" font-family="Helvetica,sans-Serif" font-size="10.00">+</text>
<text text-anchor="start" x="170.5" y="-283" font-family="Helvetica,sans-Serif" font-size="10.00">Positions()</text>
<text text-anchor="start" x="157.5" y="-268" font-family="Helvetica,sans-Serif" font-size="10.00">+</text>
<text text-anchor="start" x="170.5" y="-268" font-family="Helvetica,sans-Serif" font-size="10.00">AtomAt()</text>
<text text-anchor="start" x="157.5" y="-253" font-family="Helvetica,sans-Serif" font-size="10.00">+</text>
<text text-anchor="start" x="170.5" y="-253" font-family="Helvetica,sans-Serif" font-size="10.00">MutableAtomAt()</text>
<text text-anchor="start" x="157.5" y="-238" font-family="Helvetica,sans-Serif" font-size="10.00">+</text>
<text text-anchor="start" x="170.5" y="-238" font-family="Helvetica,sans-Serif" font-size="10.00">AttachResult()</text>
<text text-anchor="start" x="157.5" y="-223" font-family="Helvetica,sans-Serif" font-size="10.00">+</text>
<text text-anchor="start" x="170.5" y="-223" font-family="Helvetica,sans-Serif" font-size="10.00">Result()</text>
<text text-anchor="start" x="157.5" y="-208" font-family="Helvetica,sans-Serif" font-size="10.00">+</text>
<text text-anchor="start" x="170.5" y="-208" font-family="Helvetica,sans-Serif" font-size="10.00">Result()</text>
<text text-anchor="start" x="157.5" y="-193" font-family="Helvetica,sans-Serif" font-size="10.00">+</text>
<text text-anchor="start" x="170.5" y="-193" font-family="Helvetica,sans-Serif" font-size="10.00">HasResult()</text>
<text text-anchor="start" x="157.5" y="-178" font-family="Helvetica,sans-Serif" font-size="10.00">+</text>
<text text-anchor="start" x="170.5" y="-178" font-family="Helvetica,sans-Serif" font-size="10.00">AllResults()</text>
<polygon fill="#666666" stroke="#666666" points="153.5,-638 153.5,-638 292.5,-638 292.5,-638 153.5,-638"/>
<polygon fill="#666666" stroke="#666666" points="153.5,-383 153.5,-383 168.5,-383 168.5,-383 153.5,-383"/>
<polygon fill="#666666" stroke="#666666" points="168.5,-383 168.5,-383 292.5,-383 292.5,-383 168.5,-383"/>
<polygon fill="none" stroke="#666666" points="153,-171 153,-655 292,-655 292,-171 153,-171"/>
</a>
</g>
</g>
<!-- Node3&#45;&gt;Node1 -->
<g id="edge2_Node000001_Node000003" class="edge">
<title>Node3&#45;&gt;Node1</title>
<g id="a_edge2_Node000001_Node000003"><a xlink:title=" ">
<path fill="none" stroke="#63b8ff" d="M152.88,-187.03C147.25,-168.84 141.87,-151.46 137.02,-135.77"/>
<polygon fill="none" stroke="#63b8ff" points="136.96,-135.57 131.36,-131.02 133.41,-124.11 139,-128.66 136.96,-135.57"/>
</a>
</g>
<text text-anchor="middle" x="157.5" y="-145" font-family="Helvetica,sans-Serif" font-size="10.00" fill="grey"> &#45;conf_</text>
</g>
<!-- Node4 -->
<g id="Node000004" class="node">
<title>Node4</title>
<g id="a_Node000004"><a xlink:href="classnmr_1_1Protein.html" target="_top" xlink:title=" ">
<polygon fill="white" stroke="transparent" points="281,-1021 164,-1021 164,-702 281,-702 281,-1021"/>
<text text-anchor="start" x="192.5" y="-1008.5" font-family="Helvetica,sans-Serif" font-size="10.00">nmr::Protein</text>
<text text-anchor="start" x="171" y="-993.5" font-family="Helvetica,sans-Serif" font-size="10.00">&#45;</text>
<text text-anchor="start" x="181.5" y="-993.5" font-family="Helvetica,sans-Serif" font-size="10.00">atoms_</text>
<text text-anchor="start" x="171" y="-978.5" font-family="Helvetica,sans-Serif" font-size="10.00">&#45;</text>
<text text-anchor="start" x="181.5" y="-978.5" font-family="Helvetica,sans-Serif" font-size="10.00">residues_</text>
<text text-anchor="start" x="171" y="-963.5" font-family="Helvetica,sans-Serif" font-size="10.00">&#45;</text>
<text text-anchor="start" x="181.5" y="-963.5" font-family="Helvetica,sans-Serif" font-size="10.00">rings_</text>
<text text-anchor="start" x="171" y="-948.5" font-family="Helvetica,sans-Serif" font-size="10.00">&#45;</text>
<text text-anchor="start" x="181.5" y="-948.5" font-family="Helvetica,sans-Serif" font-size="10.00">topology_</text>
<text text-anchor="start" x="171" y="-933.5" font-family="Helvetica,sans-Serif" font-size="10.00">&#45;</text>
<text text-anchor="start" x="181.5" y="-933.5" font-family="Helvetica,sans-Serif" font-size="10.00">build_context_</text>
<text text-anchor="start" x="171" y="-918.5" font-family="Helvetica,sans-Serif" font-size="10.00">&#45;</text>
<text text-anchor="start" x="181.5" y="-918.5" font-family="Helvetica,sans-Serif" font-size="10.00">conformations_</text>
<text text-anchor="start" x="171" y="-903.5" font-family="Helvetica,sans-Serif" font-size="10.00">&#45;</text>
<text text-anchor="start" x="181.5" y="-903.5" font-family="Helvetica,sans-Serif" font-size="10.00">crystal_index_</text>
<text text-anchor="start" x="171" y="-888.5" font-family="Helvetica,sans-Serif" font-size="10.00">&#45;</text>
<text text-anchor="start" x="181.5" y="-888.5" font-family="Helvetica,sans-Serif" font-size="10.00">prediction_indices_</text>
<text text-anchor="start" x="171" y="-873.5" font-family="Helvetica,sans-Serif" font-size="10.00">&#45;</text>
<text text-anchor="start" x="181.5" y="-873.5" font-family="Helvetica,sans-Serif" font-size="10.00">md_frame_indices_</text>
<text text-anchor="start" x="168.5" y="-858.5" font-family="Helvetica,sans-Serif" font-size="10.00">+</text>
<text text-anchor="start" x="181.5" y="-858.5" font-family="Helvetica,sans-Serif" font-size="10.00">Protein()</text>
<text text-anchor="start" x="168.5" y="-843.5" font-family="Helvetica,sans-Serif" font-size="10.00">+</text>
<text text-anchor="start" x="181.5" y="-843.5" font-family="Helvetica,sans-Serif" font-size="10.00">~Protein()</text>
<text text-anchor="start" x="168.5" y="-828.5" font-family="Helvetica,sans-Serif" font-size="10.00">+</text>
<text text-anchor="start" x="181.5" y="-828.5" font-family="Helvetica,sans-Serif" font-size="10.00">Protein()</text>
<text text-anchor="start" x="168.5" y="-813.5" font-family="Helvetica,sans-Serif" font-size="10.00">+</text>
<text text-anchor="start" x="181.5" y="-813.5" font-family="Helvetica,sans-Serif" font-size="10.00">operator=()</text>
<text text-anchor="start" x="168.5" y="-798.5" font-family="Helvetica,sans-Serif" font-size="10.00">+</text>
<text text-anchor="start" x="181.5" y="-798.5" font-family="Helvetica,sans-Serif" font-size="10.00">Protein()</text>
<text text-anchor="start" x="168.5" y="-783.5" font-family="Helvetica,sans-Serif" font-size="10.00">+</text>
<text text-anchor="start" x="181.5" y="-783.5" font-family="Helvetica,sans-Serif" font-size="10.00">operator=()</text>
<text text-anchor="start" x="168.5" y="-768.5" font-family="Helvetica,sans-Serif" font-size="10.00">+</text>
<text text-anchor="start" x="181.5" y="-768.5" font-family="Helvetica,sans-Serif" font-size="10.00">AtomCount()</text>
<text text-anchor="start" x="168.5" y="-753.5" font-family="Helvetica,sans-Serif" font-size="10.00">+</text>
<text text-anchor="start" x="181.5" y="-753.5" font-family="Helvetica,sans-Serif" font-size="10.00">AtomAt()</text>
<text text-anchor="start" x="168.5" y="-738.5" font-family="Helvetica,sans-Serif" font-size="10.00">+</text>
<text text-anchor="start" x="181.5" y="-738.5" font-family="Helvetica,sans-Serif" font-size="10.00">Atoms()</text>
<text text-anchor="start" x="168.5" y="-723.5" font-family="Helvetica,sans-Serif" font-size="10.00">+</text>
<text text-anchor="start" x="181.5" y="-723.5" font-family="Helvetica,sans-Serif" font-size="10.00">AddAtom()</text>
<text text-anchor="start" x="181.5" y="-708.5" font-family="Helvetica,sans-Serif" font-size="10.00">and 35 more...</text>
<polygon fill="#666666" stroke="#666666" points="164.5,-1003.5 164.5,-1003.5 281.5,-1003.5 281.5,-1003.5 164.5,-1003.5"/>
<polygon fill="#666666" stroke="#666666" points="164.5,-868.5 164.5,-868.5 179.5,-868.5 179.5,-868.5 164.5,-868.5"/>
<polygon fill="#666666" stroke="#666666" points="179.5,-868.5 179.5,-868.5 281.5,-868.5 281.5,-868.5 179.5,-868.5"/>
<polygon fill="none" stroke="#666666" points="164,-702 164,-1021 281,-1021 281,-702 164,-702"/>
</a>
</g>
</g>
<!-- Node4&#45;&gt;Node3 -->
<g id="edge3_Node000003_Node000004" class="edge">
<title>Node4&#45;&gt;Node3</title>
<g id="a_edge3_Node000003_Node000004"><a xlink:title=" ">
<path fill="none" stroke="#63b8ff" d="M222.5,-701.82C222.5,-690.57 222.5,-679.07 222.5,-667.47"/>
<polygon fill="none" stroke="#63b8ff" points="222.5,-667.34 218.5,-661.34 222.5,-655.34 226.5,-661.34 222.5,-667.34"/>
</a>
</g>
<text text-anchor="middle" x="248.5" y="-676" font-family="Helvetica,sans-Serif" font-size="10.00" fill="grey"> #protein_</text>
</g>
</g>
</svg>
