<?xml version="1.0" encoding="UTF-8" standalone="no"?>
<!DOCTYPE svg PUBLIC "-//W3C//DTD SVG 1.1//EN"
 "http://www.w3.org/Graphics/SVG/1.1/DTD/svg11.dtd">
<!-- Generated by graphviz version 2.43.0 (0)
 -->
<!-- Title: nmr::KamlProtonator Pages: 1 -->
<svg width="121pt" height="262pt"
 viewBox="0.00 0.00 121.00 262.00" xmlns="http://www.w3.org/2000/svg" xmlns:xlink="http://www.w3.org/1999/xlink">
<g id="graph0" class="graph" transform="scale(1 1) rotate(0) translate(4 258)">
<title>nmr::KamlProtonator</title>
<!-- Node1 -->
<g id="Node000001" class="node">
<title>Node1</title>
<g id="a_Node000001"><a xlink:title=" ">
<polygon fill="#999999" stroke="transparent" points="113,-124 0,-124 0,0 113,0 113,-124"/>
<text text-anchor="start" x="5.5" y="-112" font-family="Helvetica,sans-Serif" font-size="10.00">nmr::KamlProtonator</text>
<text text-anchor="start" x="55" y="-97" font-family="Helvetica,sans-Serif" font-size="10.00"> </text>
<text text-anchor="start" x="7.5" y="-82" font-family="Helvetica,sans-Serif" font-size="10.00">+</text>
<text text-anchor="start" x="23.5" y="-82" font-family="Helvetica,sans-Serif" font-size="10.00">Protonate()</text>
<text text-anchor="start" x="7.5" y="-67" font-family="Helvetica,sans-Serif" font-size="10.00">+</text>
<text text-anchor="start" x="23.5" y="-67" font-family="Helvetica,sans-Serif" font-size="10.00">ToolName()</text>
<text text-anchor="start" x="7.5" y="-52" font-family="Helvetica,sans-Serif" font-size="10.00">+</text>
<text text-anchor="start" x="23.5" y="-52" font-family="Helvetica,sans-Serif" font-size="10.00">ToolVersion()</text>
<text text-anchor="start" x="7.5" y="-37" font-family="Helvetica,sans-Serif" font-size="10.00">+</text>
<text text-anchor="start" x="23.5" y="-37" font-family="Helvetica,sans-Serif" font-size="10.00">PredictPka()</text>
<text text-anchor="start" x="10" y="-22" font-family="Helvetica,sans-Serif" font-size="10.00">&#45;</text>
<text text-anchor="start" x="23.5" y="-22" font-family="Helvetica,sans-Serif" font-size="10.00">WriteTempPdb()</text>
<text text-anchor="start" x="10" y="-7" font-family="Helvetica,sans-Serif" font-size="10.00">&#45;</text>
<text text-anchor="start" x="23.5" y="-7" font-family="Helvetica,sans-Serif" font-size="10.00">ParsePkaCsv()</text>
<polygon fill="#666666" stroke="#666666" points="0.5,-107 0.5,-107 113.5,-107 113.5,-107 0.5,-107"/>
<polygon fill="#666666" stroke="#666666" points="0.5,-92 0.5,-92 113.5,-92 113.5,-92 0.5,-92"/>
<polygon fill="none" stroke="#666666" points="0,0 0,-124 113,-124 113,0 0,0"/>
</a>
</g>
</g>
<!-- Node2 -->
<g id="Node000002" class="node">
<title>Node2</title>
<g id="a_Node000002"><a xlink:href="classnmr_1_1Protonator.html" target="_top" xlink:title=" ">
<polygon fill="white" stroke="transparent" points="100.5,-254 12.5,-254 12.5,-160 100.5,-160 100.5,-254"/>
<text text-anchor="start" x="18" y="-242" font-family="Helvetica,sans-Serif" font-size="10.00">nmr::Protonator</text>
<text text-anchor="start" x="54.5" y="-227" font-family="Helvetica,sans-Serif" font-size="10.00"> </text>
<text text-anchor="start" x="16.5" y="-212" font-family="Helvetica,sans-Serif" font-size="10.00">+</text>
<text text-anchor="start" x="29.5" y="-212" font-family="Helvetica,sans-Serif" font-size="10.00">~Protonator()</text>
<text text-anchor="start" x="16.5" y="-197" font-family="Helvetica,sans-Serif" font-size="10.00">+</text>
<text text-anchor="start" x="29.5" y="-197" font-family="Helvetica,sans-Serif" font-size="10.00">Protonate()</text>
<text text-anchor="start" x="16.5" y="-182" font-family="Helvetica,sans-Serif" font-size="10.00">+</text>
<text text-anchor="start" x="29.5" y="-182" font-family="Helvetica,sans-Serif" font-size="10.00">ToolName()</text>
<text text-anchor="start" x="16.5" y="-167" font-family="Helvetica,sans-Serif" font-size="10.00">+</text>
<text text-anchor="start" x="29.5" y="-167" font-family="Helvetica,sans-Serif" font-size="10.00">ToolVersion()</text>
<polygon fill="#666666" stroke="#666666" points="12.5,-237 12.5,-237 100.5,-237 100.5,-237 12.5,-237"/>
<polygon fill="#666666" stroke="#666666" points="12.5,-222 12.5,-222 100.5,-222 100.5,-222 12.5,-222"/>
<polygon fill="none" stroke="#666666" points="12.5,-160 12.5,-254 100.5,-254 100.5,-160 12.5,-160"/>
</a>
</g>
</g>
<!-- Node2&#45;&gt;Node1 -->
<g id="edge1_Node000001_Node000002" class="edge">
<title>Node2&#45;&gt;Node1</title>
<g id="a_edge1_Node000001_Node000002"><a xlink:title=" ">
<path fill="none" stroke="#63b8ff" d="M56.5,-149.84C56.5,-141.38 56.5,-132.63 56.5,-124.08"/>
<polygon fill="none" stroke="#63b8ff" points="53,-149.97 56.5,-159.97 60,-149.97 53,-149.97"/>
</a>
</g>
</g>
</g>
</svg>
