<?xml version="1.0" encoding="UTF-8" standalone="no"?>
<!DOCTYPE svg PUBLIC "-//W3C//DTD SVG 1.1//EN"
 "http://www.w3.org/Graphics/SVG/1.1/DTD/svg11.dtd">
<!-- Generated by graphviz version 2.43.0 (0)
 -->
<!-- Title: nmr::ConformationAtom Pages: 1 -->
<svg width="210pt" height="581pt"
 viewBox="0.00 0.00 209.50 581.00" xmlns="http://www.w3.org/2000/svg" xmlns:xlink="http://www.w3.org/1999/xlink">
<g id="graph0" class="graph" transform="scale(1 1) rotate(0) translate(4 577)">
<title>nmr::ConformationAtom</title>
<!-- Node1 -->
<g id="Node000001" class="node">
<title>Node1</title>
<g id="a_Node000001"><a xlink:title=" ">
<polygon fill="#999999" stroke="transparent" points="137,-229 0,-229 0,0 137,0 137,-229"/>
<text text-anchor="start" x="9.5" y="-216.5" font-family="Helvetica,sans-Serif" font-size="10.00">nmr::ConformationAtom</text>
<text text-anchor="start" x="4.5" y="-201.5" font-family="Helvetica,sans-Serif" font-size="10.00">+</text>
<text text-anchor="start" x="17.5" y="-201.5" font-family="Helvetica,sans-Serif" font-size="10.00">role</text>
<text text-anchor="start" x="4.5" y="-186.5" font-family="Helvetica,sans-Serif" font-size="10.00">+</text>
<text text-anchor="start" x="17.5" y="-186.5" font-family="Helvetica,sans-Serif" font-size="10.00">hybridisation</text>
<text text-anchor="start" x="4.5" y="-171.5" font-family="Helvetica,sans-Serif" font-size="10.00">+</text>
<text text-anchor="start" x="17.5" y="-171.5" font-family="Helvetica,sans-Serif" font-size="10.00">is_backbone</text>
<text text-anchor="start" x="4.5" y="-156.5" font-family="Helvetica,sans-Serif" font-size="10.00">+</text>
<text text-anchor="start" x="17.5" y="-156.5" font-family="Helvetica,sans-Serif" font-size="10.00">is_amide_H</text>
<text text-anchor="start" x="4.5" y="-141.5" font-family="Helvetica,sans-Serif" font-size="10.00">+</text>
<text text-anchor="start" x="17.5" y="-141.5" font-family="Helvetica,sans-Serif" font-size="10.00">is_alpha_H</text>
<text text-anchor="start" x="4.5" y="-126.5" font-family="Helvetica,sans-Serif" font-size="10.00">+</text>
<text text-anchor="start" x="17.5" y="-126.5" font-family="Helvetica,sans-Serif" font-size="10.00">is_methyl</text>
<text text-anchor="start" x="4.5" y="-111.5" font-family="Helvetica,sans-Serif" font-size="10.00">+</text>
<text text-anchor="start" x="17.5" y="-111.5" font-family="Helvetica,sans-Serif" font-size="10.00">is_aromatic_H</text>
<text text-anchor="start" x="4.5" y="-96.5" font-family="Helvetica,sans-Serif" font-size="10.00">+</text>
<text text-anchor="start" x="17.5" y="-96.5" font-family="Helvetica,sans-Serif" font-size="10.00">is_on_aromatic_residue</text>
<text text-anchor="start" x="4.5" y="-81.5" font-family="Helvetica,sans-Serif" font-size="10.00">+</text>
<text text-anchor="start" x="17.5" y="-81.5" font-family="Helvetica,sans-Serif" font-size="10.00">is_hbond_donor</text>
<text text-anchor="start" x="4.5" y="-66.5" font-family="Helvetica,sans-Serif" font-size="10.00">+</text>
<text text-anchor="start" x="17.5" y="-66.5" font-family="Helvetica,sans-Serif" font-size="10.00">is_hbond_acceptor</text>
<text text-anchor="start" x="17.5" y="-51.5" font-family="Helvetica,sans-Serif" font-size="10.00">and 129 more...</text>
<text text-anchor="start" x="7" y="-36.5" font-family="Helvetica,sans-Serif" font-size="10.00">&#45;</text>
<text text-anchor="start" x="17.5" y="-36.5" font-family="Helvetica,sans-Serif" font-size="10.00">position_</text>
<text text-anchor="start" x="4.5" y="-21.5" font-family="Helvetica,sans-Serif" font-size="10.00">+</text>
<text text-anchor="start" x="17.5" y="-21.5" font-family="Helvetica,sans-Serif" font-size="10.00">Position()</text>
<text text-anchor="start" x="7" y="-6.5" font-family="Helvetica,sans-Serif" font-size="10.00">&#45;</text>
<text text-anchor="start" x="17.5" y="-6.5" font-family="Helvetica,sans-Serif" font-size="10.00">ConformationAtom()</text>
<polygon fill="#666666" stroke="#666666" points="0.5,-211.5 0.5,-211.5 137.5,-211.5 137.5,-211.5 0.5,-211.5"/>
<polygon fill="#666666" stroke="#666666" points="0.5,-31.5 0.5,-31.5 15.5,-31.5 15.5,-31.5 0.5,-31.5"/>
<polygon fill="#666666" stroke="#666666" points="15.5,-31.5 15.5,-31.5 137.5,-31.5 137.5,-31.5 15.5,-31.5"/>
<polygon fill="none" stroke="#666666" points="0,0 0,-229 137,-229 137,0 0,0"/>
</a>
</g>
</g>
<!-- Node2 -->
<g id="Node000002" class="node">
<title>Node2</title>
<g id="a_Node000002"><a xlink:href="structnmr_1_1SphericalTensor.html" target="_top" xlink:title=" ">
<polygon fill="white" stroke="transparent" points="132,-573 5,-573 5,-419 132,-419 132,-573"/>
<text text-anchor="start" x="17.5" y="-561" font-family="Helvetica,sans-Serif" font-size="10.00">nmr::SphericalTensor</text>
<text text-anchor="start" x="9.5" y="-546" font-family="Helvetica,sans-Serif" font-size="10.00">+</text>
<text text-anchor="start" x="22.5" y="-546" font-family="Helvetica,sans-Serif" font-size="10.00">T0</text>
<text text-anchor="start" x="9.5" y="-531" font-family="Helvetica,sans-Serif" font-size="10.00">+</text>
<text text-anchor="start" x="22.5" y="-531" font-family="Helvetica,sans-Serif" font-size="10.00">T1</text>
<text text-anchor="start" x="9.5" y="-516" font-family="Helvetica,sans-Serif" font-size="10.00">+</text>
<text text-anchor="start" x="22.5" y="-516" font-family="Helvetica,sans-Serif" font-size="10.00">T2</text>
<text text-anchor="start" x="9.5" y="-501" font-family="Helvetica,sans-Serif" font-size="10.00">+</text>
<text text-anchor="start" x="22.5" y="-501" font-family="Helvetica,sans-Serif" font-size="10.00">Isotropic()</text>
<text text-anchor="start" x="9.5" y="-486" font-family="Helvetica,sans-Serif" font-size="10.00">+</text>
<text text-anchor="start" x="22.5" y="-486" font-family="Helvetica,sans-Serif" font-size="10.00">Antisymmetric()</text>
<text text-anchor="start" x="9.5" y="-471" font-family="Helvetica,sans-Serif" font-size="10.00">+</text>
<text text-anchor="start" x="22.5" y="-471" font-family="Helvetica,sans-Serif" font-size="10.00">TracelessSymmetric()</text>
<text text-anchor="start" x="9.5" y="-456" font-family="Helvetica,sans-Serif" font-size="10.00">+</text>
<text text-anchor="start" x="22.5" y="-456" font-family="Helvetica,sans-Serif" font-size="10.00">Reconstruct()</text>
<text text-anchor="start" x="9.5" y="-441" font-family="Helvetica,sans-Serif" font-size="10.00">+</text>
<text text-anchor="start" x="22.5" y="-441" font-family="Helvetica,sans-Serif" font-size="10.00">T2Magnitude()</text>
<text text-anchor="start" x="9.5" y="-426" font-family="Helvetica,sans-Serif" font-size="10.00">+</text>
<text text-anchor="start" x="22.5" y="-426" font-family="Helvetica,sans-Serif" font-size="10.00">Decompose()</text>
<polygon fill="#666666" stroke="#666666" points="5.5,-556 5.5,-556 132.5,-556 132.5,-556 5.5,-556"/>
<polygon fill="#666666" stroke="#666666" points="5.5,-511 5.5,-511 20.5,-511 20.5,-511 5.5,-511"/>
<polygon fill="#666666" stroke="#666666" points="20.5,-511 20.5,-511 132.5,-511 132.5,-511 20.5,-511"/>
<polygon fill="none" stroke="#666666" points="5,-419 5,-573 132,-573 132,-419 5,-419"/>
</a>
</g>
</g>
<!-- Node2&#45;&gt;Node1 -->
<g id="edge1_Node000001_Node000002" class="edge">
<title>Node2&#45;&gt;Node1</title>
<g id="a_edge1_Node000001_Node000002"><a xlink:title=" ">
<path fill="none" stroke="#63b8ff" d="M68.5,-418.66C68.5,-367.94 68.5,-300.14 68.5,-241.53"/>
<polygon fill="none" stroke="#63b8ff" points="68.5,-241.17 64.5,-235.17 68.5,-229.17 72.5,-235.17 68.5,-241.17"/>
</a>
</g>
<text text-anchor="middle" x="135" y="-393" font-family="Helvetica,sans-Serif" font-size="10.00" fill="grey"> +T2_CN_nearest</text>
<text text-anchor="middle" x="135" y="-382" font-family="Helvetica,sans-Serif" font-size="10.00" fill="grey">+T2_CO_nearest</text>
<text text-anchor="middle" x="135" y="-371" font-family="Helvetica,sans-Serif" font-size="10.00" fill="grey">+T2_aromatic_total</text>
<text text-anchor="middle" x="135" y="-360" font-family="Helvetica,sans-Serif" font-size="10.00" fill="grey">+T2_backbone_total</text>
<text text-anchor="middle" x="135" y="-349" font-family="Helvetica,sans-Serif" font-size="10.00" fill="grey">+T2_sidechain_total</text>
<text text-anchor="middle" x="135" y="-338" font-family="Helvetica,sans-Serif" font-size="10.00" fill="grey">+apbs_efg_spherical</text>
<text text-anchor="middle" x="135" y="-327" font-family="Helvetica,sans-Serif" font-size="10.00" fill="grey">+bs_shielding_contribution</text>
<text text-anchor="start" x="68.5" y="-316" font-family="Helvetica,sans-Serif" font-size="10.00" fill="grey">+correction_predicted</text>
<text text-anchor="middle" x="135" y="-305" font-family="Helvetica,sans-Serif" font-size="10.00" fill="grey">_delta</text>
<text text-anchor="start" x="68.5" y="-294" font-family="Helvetica,sans-Serif" font-size="10.00" fill="grey">+coulomb_EFG_aromatic</text>
<text text-anchor="middle" x="135" y="-283" font-family="Helvetica,sans-Serif" font-size="10.00" fill="grey">_spherical</text>
<text text-anchor="start" x="68.5" y="-272" font-family="Helvetica,sans-Serif" font-size="10.00" fill="grey">+coulomb_EFG_backbone</text>
<text text-anchor="middle" x="135" y="-261" font-family="Helvetica,sans-Serif" font-size="10.00" fill="grey">_spherical</text>
<text text-anchor="middle" x="135" y="-250" font-family="Helvetica,sans-Serif" font-size="10.00" fill="grey">...</text>
</g>
</g>
</svg>
