<?xml version="1.0" encoding="UTF-8" standalone="no"?>
<!DOCTYPE svg PUBLIC "-//W3C//DTD SVG 1.1//EN"
 "http://www.w3.org/Graphics/SVG/1.1/DTD/svg11.dtd">
<!-- Generated by graphviz version 2.43.0 (0)
 -->
<!-- Title: nmr::HidImidazoleRing Pages: 1 -->
<svg width="152pt" height="670pt"
 viewBox="0.00 0.00 151.50 670.00" xmlns="http://www.w3.org/2000/svg" xmlns:xlink="http://www.w3.org/1999/xlink">
<g id="graph0" class="graph" transform="scale(1 1) rotate(0) translate(4 666)">
<title>nmr::HidImidazoleRing</title>
<!-- Node1 -->
<g id="Node000001" class="node">
<title>Node1</title>
<g id="a_Node000001"><a xlink:title=" ">
<polygon fill="#999999" stroke="transparent" points="129.5,-139 7.5,-139 7.5,0 129.5,0 129.5,-139"/>
<text text-anchor="start" x="12.5" y="-126.5" font-family="Helvetica,sans-Serif" font-size="10.00">nmr::HidImidazoleRing</text>
<text text-anchor="start" x="66.5" y="-111.5" font-family="Helvetica,sans-Serif" font-size="10.00"> </text>
<text text-anchor="start" x="12" y="-96.5" font-family="Helvetica,sans-Serif" font-size="10.00">+</text>
<text text-anchor="start" x="25.5" y="-96.5" font-family="Helvetica,sans-Serif" font-size="10.00">HidImidazoleRing()</text>
<text text-anchor="start" x="12" y="-81.5" font-family="Helvetica,sans-Serif" font-size="10.00">+</text>
<text text-anchor="start" x="25.5" y="-81.5" font-family="Helvetica,sans-Serif" font-size="10.00">Intensity()</text>
<text text-anchor="start" x="12" y="-66.5" font-family="Helvetica,sans-Serif" font-size="10.00">+</text>
<text text-anchor="start" x="25.5" y="-66.5" font-family="Helvetica,sans-Serif" font-size="10.00">LiteratureIntensity()</text>
<text text-anchor="start" x="12" y="-51.5" font-family="Helvetica,sans-Serif" font-size="10.00">+</text>
<text text-anchor="start" x="25.5" y="-51.5" font-family="Helvetica,sans-Serif" font-size="10.00">JBLobeOffset()</text>
<text text-anchor="start" x="12" y="-36.5" font-family="Helvetica,sans-Serif" font-size="10.00">+</text>
<text text-anchor="start" x="25.5" y="-36.5" font-family="Helvetica,sans-Serif" font-size="10.00">NitrogenCount()</text>
<text text-anchor="start" x="12" y="-21.5" font-family="Helvetica,sans-Serif" font-size="10.00">+</text>
<text text-anchor="start" x="25.5" y="-21.5" font-family="Helvetica,sans-Serif" font-size="10.00">Aromaticity()</text>
<text text-anchor="start" x="12" y="-6.5" font-family="Helvetica,sans-Serif" font-size="10.00">+</text>
<text text-anchor="start" x="25.5" y="-6.5" font-family="Helvetica,sans-Serif" font-size="10.00">TypeName()</text>
<polygon fill="#666666" stroke="#666666" points="7.5,-121.5 7.5,-121.5 129.5,-121.5 129.5,-121.5 7.5,-121.5"/>
<polygon fill="#666666" stroke="#666666" points="7.5,-106.5 7.5,-106.5 129.5,-106.5 129.5,-106.5 7.5,-106.5"/>
<polygon fill="none" stroke="#666666" points="7.5,0 7.5,-139 129.5,-139 129.5,0 7.5,0"/>
</a>
</g>
</g>
<!-- Node2 -->
<g id="Node000002" class="node">
<title>Node2</title>
<g id="a_Node000002"><a xlink:href="classnmr_1_1FiveMemberedRing.html" target="_top" xlink:title=" ">
<polygon fill="white" stroke="transparent" points="134,-225 3,-225 3,-176 134,-176 134,-225"/>
<text text-anchor="start" x="8.5" y="-212.5" font-family="Helvetica,sans-Serif" font-size="10.00">nmr::FiveMemberedRing</text>
<text text-anchor="start" x="67" y="-197.5" font-family="Helvetica,sans-Serif" font-size="10.00"> </text>
<text text-anchor="start" x="15.5" y="-182.5" font-family="Helvetica,sans-Serif" font-size="10.00">+</text>
<text text-anchor="start" x="36.5" y="-182.5" font-family="Helvetica,sans-Serif" font-size="10.00">RingSizeValue()</text>
<polygon fill="#666666" stroke="#666666" points="3.5,-207.5 3.5,-207.5 134.5,-207.5 134.5,-207.5 3.5,-207.5"/>
<polygon fill="#666666" stroke="#666666" points="3.5,-192.5 3.5,-192.5 134.5,-192.5 134.5,-192.5 3.5,-192.5"/>
<polygon fill="none" stroke="#666666" points="3,-176 3,-225 134,-225 134,-176 3,-176"/>
</a>
</g>
</g>
<!-- Node2&#45;&gt;Node1 -->
<g id="edge1_Node000001_Node000002" class="edge">
<title>Node2&#45;&gt;Node1</title>
<g id="a_edge1_Node000001_Node000002"><a xlink:title=" ">
<path fill="none" stroke="#63b8ff" d="M68.5,-165.57C68.5,-157.34 68.5,-148.23 68.5,-139.02"/>
<polygon fill="none" stroke="#63b8ff" points="65,-165.84 68.5,-175.84 72,-165.84 65,-165.84"/>
</a>
</g>
</g>
<!-- Node3 -->
<g id="Node000003" class="node">
<title>Node3</title>
<g id="a_Node000003"><a xlink:href="classnmr_1_1Ring.html" target="_top" xlink:title=" ">
<polygon fill="white" stroke="transparent" points="137,-521 0,-521 0,-262 137,-262 137,-521"/>
<text text-anchor="start" x="45" y="-508.5" font-family="Helvetica,sans-Serif" font-size="10.00">nmr::Ring</text>
<text text-anchor="start" x="4.5" y="-493.5" font-family="Helvetica,sans-Serif" font-size="10.00">+</text>
<text text-anchor="start" x="17.5" y="-493.5" font-family="Helvetica,sans-Serif" font-size="10.00">atom_indices</text>
<text text-anchor="start" x="4.5" y="-478.5" font-family="Helvetica,sans-Serif" font-size="10.00">+</text>
<text text-anchor="start" x="17.5" y="-478.5" font-family="Helvetica,sans-Serif" font-size="10.00">type_index</text>
<text text-anchor="start" x="4.5" y="-463.5" font-family="Helvetica,sans-Serif" font-size="10.00">+</text>
<text text-anchor="start" x="17.5" y="-463.5" font-family="Helvetica,sans-Serif" font-size="10.00">parent_residue_index</text>
<text text-anchor="start" x="4.5" y="-448.5" font-family="Helvetica,sans-Serif" font-size="10.00">+</text>
<text text-anchor="start" x="17.5" y="-448.5" font-family="Helvetica,sans-Serif" font-size="10.00">parent_residue_number</text>
<text text-anchor="start" x="4.5" y="-433.5" font-family="Helvetica,sans-Serif" font-size="10.00">+</text>
<text text-anchor="start" x="17.5" y="-433.5" font-family="Helvetica,sans-Serif" font-size="10.00">fused_partner_index</text>
<text text-anchor="start" x="4.5" y="-418.5" font-family="Helvetica,sans-Serif" font-size="10.00">+</text>
<text text-anchor="start" x="17.5" y="-418.5" font-family="Helvetica,sans-Serif" font-size="10.00">~Ring()</text>
<text text-anchor="start" x="4.5" y="-403.5" font-family="Helvetica,sans-Serif" font-size="10.00">+</text>
<text text-anchor="start" x="17.5" y="-403.5" font-family="Helvetica,sans-Serif" font-size="10.00">Intensity()</text>
<text text-anchor="start" x="4.5" y="-388.5" font-family="Helvetica,sans-Serif" font-size="10.00">+</text>
<text text-anchor="start" x="17.5" y="-388.5" font-family="Helvetica,sans-Serif" font-size="10.00">LiteratureIntensity()</text>
<text text-anchor="start" x="4.5" y="-373.5" font-family="Helvetica,sans-Serif" font-size="10.00">+</text>
<text text-anchor="start" x="17.5" y="-373.5" font-family="Helvetica,sans-Serif" font-size="10.00">JBLobeOffset()</text>
<text text-anchor="start" x="4.5" y="-358.5" font-family="Helvetica,sans-Serif" font-size="10.00">+</text>
<text text-anchor="start" x="17.5" y="-358.5" font-family="Helvetica,sans-Serif" font-size="10.00">NitrogenCount()</text>
<text text-anchor="start" x="4.5" y="-343.5" font-family="Helvetica,sans-Serif" font-size="10.00">+</text>
<text text-anchor="start" x="17.5" y="-343.5" font-family="Helvetica,sans-Serif" font-size="10.00">Aromaticity()</text>
<text text-anchor="start" x="4.5" y="-328.5" font-family="Helvetica,sans-Serif" font-size="10.00">+</text>
<text text-anchor="start" x="17.5" y="-328.5" font-family="Helvetica,sans-Serif" font-size="10.00">RingSizeValue()</text>
<text text-anchor="start" x="4.5" y="-313.5" font-family="Helvetica,sans-Serif" font-size="10.00">+</text>
<text text-anchor="start" x="17.5" y="-313.5" font-family="Helvetica,sans-Serif" font-size="10.00">TypeName()</text>
<text text-anchor="start" x="4.5" y="-298.5" font-family="Helvetica,sans-Serif" font-size="10.00">+</text>
<text text-anchor="start" x="17.5" y="-298.5" font-family="Helvetica,sans-Serif" font-size="10.00">IsFused()</text>
<text text-anchor="start" x="4.5" y="-283.5" font-family="Helvetica,sans-Serif" font-size="10.00">+</text>
<text text-anchor="start" x="17.5" y="-283.5" font-family="Helvetica,sans-Serif" font-size="10.00">TypeIndexAsInt()</text>
<text text-anchor="start" x="4.5" y="-268.5" font-family="Helvetica,sans-Serif" font-size="10.00">+</text>
<text text-anchor="start" x="17.5" y="-268.5" font-family="Helvetica,sans-Serif" font-size="10.00">ComputeGeometry()</text>
<polygon fill="#666666" stroke="#666666" points="0.5,-503.5 0.5,-503.5 137.5,-503.5 137.5,-503.5 0.5,-503.5"/>
<polygon fill="#666666" stroke="#666666" points="0.5,-428.5 0.5,-428.5 15.5,-428.5 15.5,-428.5 0.5,-428.5"/>
<polygon fill="#666666" stroke="#666666" points="15.5,-428.5 15.5,-428.5 137.5,-428.5 137.5,-428.5 15.5,-428.5"/>
<polygon fill="none" stroke="#666666" points="0,-262 0,-521 137,-521 137,-262 0,-262"/>
</a>
</g>
</g>
<!-- Node3&#45;&gt;Node2 -->
<g id="edge2_Node000002_Node000003" class="edge">
<title>Node3&#45;&gt;Node2</title>
<g id="a_edge2_Node000002_Node000003"><a xlink:title=" ">
<path fill="none" stroke="#63b8ff" d="M68.5,-251.66C68.5,-241.76 68.5,-232.7 68.5,-225.09"/>
<polygon fill="none" stroke="#63b8ff" points="65,-251.82 68.5,-261.82 72,-251.82 65,-251.82"/>
</a>
</g>
</g>
<!-- Node4 -->
<g id="Node000004" class="node">
<title>Node4</title>
<g id="a_Node000004"><a xlink:href="structnmr_1_1RingAccumulated.html" target="_top" xlink:title=" ">
<polygon fill="white" stroke="transparent" points="133.5,-662 3.5,-662 3.5,-568 133.5,-568 133.5,-662"/>
<text text-anchor="start" x="12.5" y="-650" font-family="Helvetica,sans-Serif" font-size="10.00">nmr::RingAccumulated</text>
<text text-anchor="start" x="7.5" y="-635" font-family="Helvetica,sans-Serif" font-size="10.00">+</text>
<text text-anchor="start" x="20.5" y="-635" font-family="Helvetica,sans-Serif" font-size="10.00">total_B_at_center</text>
<text text-anchor="start" x="7.5" y="-620" font-family="Helvetica,sans-Serif" font-size="10.00">+</text>
<text text-anchor="start" x="20.5" y="-620" font-family="Helvetica,sans-Serif" font-size="10.00">intensity_used</text>
<text text-anchor="start" x="7.5" y="-605" font-family="Helvetica,sans-Serif" font-size="10.00">+</text>
<text text-anchor="start" x="20.5" y="-605" font-family="Helvetica,sans-Serif" font-size="10.00">total_G_T0_diagnostic</text>
<text text-anchor="start" x="7.5" y="-590" font-family="Helvetica,sans-Serif" font-size="10.00">+</text>
<text text-anchor="start" x="20.5" y="-590" font-family="Helvetica,sans-Serif" font-size="10.00">mutual_B_from</text>
<text text-anchor="start" x="66.5" y="-575" font-family="Helvetica,sans-Serif" font-size="10.00"> </text>
<polygon fill="#666666" stroke="#666666" points="3.5,-645 3.5,-645 133.5,-645 133.5,-645 3.5,-645"/>
<polygon fill="#666666" stroke="#666666" points="3.5,-585 3.5,-585 18.5,-585 18.5,-585 3.5,-585"/>
<polygon fill="#666666" stroke="#666666" points="18.5,-585 18.5,-585 133.5,-585 133.5,-585 18.5,-585"/>
<polygon fill="none" stroke="#666666" points="3.5,-568 3.5,-662 133.5,-662 133.5,-568 3.5,-568"/>
</a>
</g>
</g>
<!-- Node4&#45;&gt;Node3 -->
<g id="edge3_Node000003_Node000004" class="edge">
<title>Node4&#45;&gt;Node3</title>
<g id="a_edge3_Node000003_Node000004"><a xlink:title=" ">
<path fill="none" stroke="#63b8ff" d="M68.5,-567.84C68.5,-557.38 68.5,-545.73 68.5,-533.56"/>
<polygon fill="none" stroke="#63b8ff" points="68.5,-533.24 64.5,-527.24 68.5,-521.24 72.5,-527.24 68.5,-533.24"/>
</a>
</g>
<text text-anchor="middle" x="106" y="-542" font-family="Helvetica,sans-Serif" font-size="10.00" fill="grey"> +accumulated</text>
</g>
</g>
</svg>
