<?xml version="1.0" encoding="UTF-8" standalone="no"?>
<!DOCTYPE svg PUBLIC "-//W3C//DTD SVG 1.1//EN"
 "http://www.w3.org/Graphics/SVG/1.1/DTD/svg11.dtd">
<!-- Generated by graphviz version 2.43.0 (0)
 -->
<!-- Title: nmr::IndolePerimeterRing Pages: 1 -->
<svg width="152pt" height="685pt"
 viewBox="0.00 0.00 151.50 685.00" xmlns="http://www.w3.org/2000/svg" xmlns:xlink="http://www.w3.org/1999/xlink">
<g id="graph0" class="graph" transform="scale(1 1) rotate(0) translate(4 681)">
<title>nmr::IndolePerimeterRing</title>
<!-- Node1 -->
<g id="Node000001" class="node">
<title>Node1</title>
<g id="a_Node000001"><a xlink:title=" ">
<polygon fill="#999999" stroke="transparent" points="136.5,-154 0.5,-154 0.5,0 136.5,0 136.5,-154"/>
<text text-anchor="start" x="5.5" y="-142" font-family="Helvetica,sans-Serif" font-size="10.00">nmr::IndolePerimeterRing</text>
<text text-anchor="start" x="66.5" y="-127" font-family="Helvetica,sans-Serif" font-size="10.00"> </text>
<text text-anchor="start" x="6" y="-112" font-family="Helvetica,sans-Serif" font-size="10.00">+</text>
<text text-anchor="start" x="20.5" y="-112" font-family="Helvetica,sans-Serif" font-size="10.00">IndolePerimeterRing()</text>
<text text-anchor="start" x="6" y="-97" font-family="Helvetica,sans-Serif" font-size="10.00">+</text>
<text text-anchor="start" x="20.5" y="-97" font-family="Helvetica,sans-Serif" font-size="10.00">Intensity()</text>
<text text-anchor="start" x="6" y="-82" font-family="Helvetica,sans-Serif" font-size="10.00">+</text>
<text text-anchor="start" x="20.5" y="-82" font-family="Helvetica,sans-Serif" font-size="10.00">LiteratureIntensity()</text>
<text text-anchor="start" x="6" y="-67" font-family="Helvetica,sans-Serif" font-size="10.00">+</text>
<text text-anchor="start" x="20.5" y="-67" font-family="Helvetica,sans-Serif" font-size="10.00">JBLobeOffset()</text>
<text text-anchor="start" x="6" y="-52" font-family="Helvetica,sans-Serif" font-size="10.00">+</text>
<text text-anchor="start" x="20.5" y="-52" font-family="Helvetica,sans-Serif" font-size="10.00">NitrogenCount()</text>
<text text-anchor="start" x="6" y="-37" font-family="Helvetica,sans-Serif" font-size="10.00">+</text>
<text text-anchor="start" x="20.5" y="-37" font-family="Helvetica,sans-Serif" font-size="10.00">Aromaticity()</text>
<text text-anchor="start" x="6" y="-22" font-family="Helvetica,sans-Serif" font-size="10.00">+</text>
<text text-anchor="start" x="20.5" y="-22" font-family="Helvetica,sans-Serif" font-size="10.00">RingSizeValue()</text>
<text text-anchor="start" x="6" y="-7" font-family="Helvetica,sans-Serif" font-size="10.00">+</text>
<text text-anchor="start" x="20.5" y="-7" font-family="Helvetica,sans-Serif" font-size="10.00">TypeName()</text>
<polygon fill="#666666" stroke="#666666" points="0.5,-137 0.5,-137 136.5,-137 136.5,-137 0.5,-137"/>
<polygon fill="#666666" stroke="#666666" points="0.5,-122 0.5,-122 136.5,-122 136.5,-122 0.5,-122"/>
<polygon fill="none" stroke="#666666" points="0.5,0 0.5,-154 136.5,-154 136.5,0 0.5,0"/>
</a>
</g>
</g>
<!-- Node2 -->
<g id="Node000002" class="node">
<title>Node2</title>
<g id="a_Node000002"><a xlink:href="classnmr_1_1FusedRing.html" target="_top" xlink:title=" ">
<polygon fill="white" stroke="transparent" points="111.5,-240 25.5,-240 25.5,-191 111.5,-191 111.5,-240"/>
<text text-anchor="start" x="30.5" y="-227.5" font-family="Helvetica,sans-Serif" font-size="10.00">nmr::FusedRing</text>
<text text-anchor="start" x="66.5" y="-212.5" font-family="Helvetica,sans-Serif" font-size="10.00"> </text>
<text text-anchor="start" x="66.5" y="-197.5" font-family="Helvetica,sans-Serif" font-size="10.00"> </text>
<polygon fill="#666666" stroke="#666666" points="25.5,-222.5 25.5,-222.5 111.5,-222.5 111.5,-222.5 25.5,-222.5"/>
<polygon fill="#666666" stroke="#666666" points="25.5,-207.5 25.5,-207.5 111.5,-207.5 111.5,-207.5 25.5,-207.5"/>
<polygon fill="none" stroke="#666666" points="25.5,-191 25.5,-240 111.5,-240 111.5,-191 25.5,-191"/>
</a>
</g>
</g>
<!-- Node2&#45;&gt;Node1 -->
<g id="edge1_Node000001_Node000002" class="edge">
<title>Node2&#45;&gt;Node1</title>
<g id="a_edge1_Node000001_Node000002"><a xlink:title=" ">
<path fill="none" stroke="#63b8ff" d="M68.5,-180.61C68.5,-172.48 68.5,-163.48 68.5,-154.28"/>
<polygon fill="none" stroke="#63b8ff" points="65,-180.72 68.5,-190.72 72,-180.72 65,-180.72"/>
</a>
</g>
</g>
<!-- Node3 -->
<g id="Node000003" class="node">
<title>Node3</title>
<g id="a_Node000003"><a xlink:href="classnmr_1_1Ring.html" target="_top" xlink:title=" ">
<polygon fill="white" stroke="transparent" points="137,-536 0,-536 0,-277 137,-277 137,-536"/>
<text text-anchor="start" x="45" y="-523.5" font-family="Helvetica,sans-Serif" font-size="10.00">nmr::Ring</text>
<text text-anchor="start" x="4.5" y="-508.5" font-family="Helvetica,sans-Serif" font-size="10.00">+</text>
<text text-anchor="start" x="17.5" y="-508.5" font-family="Helvetica,sans-Serif" font-size="10.00">atom_indices</text>
<text text-anchor="start" x="4.5" y="-493.5" font-family="Helvetica,sans-Serif" font-size="10.00">+</text>
<text text-anchor="start" x="17.5" y="-493.5" font-family="Helvetica,sans-Serif" font-size="10.00">type_index</text>
<text text-anchor="start" x="4.5" y="-478.5" font-family="Helvetica,sans-Serif" font-size="10.00">+</text>
<text text-anchor="start" x="17.5" y="-478.5" font-family="Helvetica,sans-Serif" font-size="10.00">parent_residue_index</text>
<text text-anchor="start" x="4.5" y="-463.5" font-family="Helvetica,sans-Serif" font-size="10.00">+</text>
<text text-anchor="start" x="17.5" y="-463.5" font-family="Helvetica,sans-Serif" font-size="10.00">parent_residue_number</text>
<text text-anchor="start" x="4.5" y="-448.5" font-family="Helvetica,sans-Serif" font-size="10.00">+</text>
<text text-anchor="start" x="17.5" y="-448.5" font-family="Helvetica,sans-Serif" font-size="10.00">fused_partner_index</text>
<text text-anchor="start" x="4.5" y="-433.5" font-family="Helvetica,sans-Serif" font-size="10.00">+</text>
<text text-anchor="start" x="17.5" y="-433.5" font-family="Helvetica,sans-Serif" font-size="10.00">~Ring()</text>
<text text-anchor="start" x="4.5" y="-418.5" font-family="Helvetica,sans-Serif" font-size="10.00">+</text>
<text text-anchor="start" x="17.5" y="-418.5" font-family="Helvetica,sans-Serif" font-size="10.00">Intensity()</text>
<text text-anchor="start" x="4.5" y="-403.5" font-family="Helvetica,sans-Serif" font-size="10.00">+</text>
<text text-anchor="start" x="17.5" y="-403.5" font-family="Helvetica,sans-Serif" font-size="10.00">LiteratureIntensity()</text>
<text text-anchor="start" x="4.5" y="-388.5" font-family="Helvetica,sans-Serif" font-size="10.00">+</text>
<text text-anchor="start" x="17.5" y="-388.5" font-family="Helvetica,sans-Serif" font-size="10.00">JBLobeOffset()</text>
<text text-anchor="start" x="4.5" y="-373.5" font-family="Helvetica,sans-Serif" font-size="10.00">+</text>
<text text-anchor="start" x="17.5" y="-373.5" font-family="Helvetica,sans-Serif" font-size="10.00">NitrogenCount()</text>
<text text-anchor="start" x="4.5" y="-358.5" font-family="Helvetica,sans-Serif" font-size="10.00">+</text>
<text text-anchor="start" x="17.5" y="-358.5" font-family="Helvetica,sans-Serif" font-size="10.00">Aromaticity()</text>
<text text-anchor="start" x="4.5" y="-343.5" font-family="Helvetica,sans-Serif" font-size="10.00">+</text>
<text text-anchor="start" x="17.5" y="-343.5" font-family="Helvetica,sans-Serif" font-size="10.00">RingSizeValue()</text>
<text text-anchor="start" x="4.5" y="-328.5" font-family="Helvetica,sans-Serif" font-size="10.00">+</text>
<text text-anchor="start" x="17.5" y="-328.5" font-family="Helvetica,sans-Serif" font-size="10.00">TypeName()</text>
<text text-anchor="start" x="4.5" y="-313.5" font-family="Helvetica,sans-Serif" font-size="10.00">+</text>
<text text-anchor="start" x="17.5" y="-313.5" font-family="Helvetica,sans-Serif" font-size="10.00">IsFused()</text>
<text text-anchor="start" x="4.5" y="-298.5" font-family="Helvetica,sans-Serif" font-size="10.00">+</text>
<text text-anchor="start" x="17.5" y="-298.5" font-family="Helvetica,sans-Serif" font-size="10.00">TypeIndexAsInt()</text>
<text text-anchor="start" x="4.5" y="-283.5" font-family="Helvetica,sans-Serif" font-size="10.00">+</text>
<text text-anchor="start" x="17.5" y="-283.5" font-family="Helvetica,sans-Serif" font-size="10.00">ComputeGeometry()</text>
<polygon fill="#666666" stroke="#666666" points="0.5,-518.5 0.5,-518.5 137.5,-518.5 137.5,-518.5 0.5,-518.5"/>
<polygon fill="#666666" stroke="#666666" points="0.5,-443.5 0.5,-443.5 15.5,-443.5 15.5,-443.5 0.5,-443.5"/>
<polygon fill="#666666" stroke="#666666" points="15.5,-443.5 15.5,-443.5 137.5,-443.5 137.5,-443.5 15.5,-443.5"/>
<polygon fill="none" stroke="#666666" points="0,-277 0,-536 137,-536 137,-277 0,-277"/>
</a>
</g>
</g>
<!-- Node3&#45;&gt;Node2 -->
<g id="edge2_Node000002_Node000003" class="edge">
<title>Node3&#45;&gt;Node2</title>
<g id="a_edge2_Node000002_Node000003"><a xlink:title=" ">
<path fill="none" stroke="#63b8ff" d="M68.5,-266.66C68.5,-256.76 68.5,-247.7 68.5,-240.09"/>
<polygon fill="none" stroke="#63b8ff" points="65,-266.82 68.5,-276.82 72,-266.82 65,-266.82"/>
</a>
</g>
</g>
<!-- Node4 -->
<g id="Node000004" class="node">
<title>Node4</title>
<g id="a_Node000004"><a xlink:href="structnmr_1_1RingAccumulated.html" target="_top" xlink:title=" ">
<polygon fill="white" stroke="transparent" points="133.5,-677 3.5,-677 3.5,-583 133.5,-583 133.5,-677"/>
<text text-anchor="start" x="12.5" y="-665" font-family="Helvetica,sans-Serif" font-size="10.00">nmr::RingAccumulated</text>
<text text-anchor="start" x="7.5" y="-650" font-family="Helvetica,sans-Serif" font-size="10.00">+</text>
<text text-anchor="start" x="20.5" y="-650" font-family="Helvetica,sans-Serif" font-size="10.00">total_B_at_center</text>
<text text-anchor="start" x="7.5" y="-635" font-family="Helvetica,sans-Serif" font-size="10.00">+</text>
<text text-anchor="start" x="20.5" y="-635" font-family="Helvetica,sans-Serif" font-size="10.00">intensity_used</text>
<text text-anchor="start" x="7.5" y="-620" font-family="Helvetica,sans-Serif" font-size="10.00">+</text>
<text text-anchor="start" x="20.5" y="-620" font-family="Helvetica,sans-Serif" font-size="10.00">total_G_T0_diagnostic</text>
<text text-anchor="start" x="7.5" y="-605" font-family="Helvetica,sans-Serif" font-size="10.00">+</text>
<text text-anchor="start" x="20.5" y="-605" font-family="Helvetica,sans-Serif" font-size="10.00">mutual_B_from</text>
<text text-anchor="start" x="66.5" y="-590" font-family="Helvetica,sans-Serif" font-size="10.00"> </text>
<polygon fill="#666666" stroke="#666666" points="3.5,-660 3.5,-660 133.5,-660 133.5,-660 3.5,-660"/>
<polygon fill="#666666" stroke="#666666" points="3.5,-600 3.5,-600 18.5,-600 18.5,-600 3.5,-600"/>
<polygon fill="#666666" stroke="#666666" points="18.5,-600 18.5,-600 133.5,-600 133.5,-600 18.5,-600"/>
<polygon fill="none" stroke="#666666" points="3.5,-583 3.5,-677 133.5,-677 133.5,-583 3.5,-583"/>
</a>
</g>
</g>
<!-- Node4&#45;&gt;Node3 -->
<g id="edge3_Node000003_Node000004" class="edge">
<title>Node4&#45;&gt;Node3</title>
<g id="a_edge3_Node000003_Node000004"><a xlink:title=" ">
<path fill="none" stroke="#63b8ff" d="M68.5,-582.84C68.5,-572.38 68.5,-560.73 68.5,-548.56"/>
<polygon fill="none" stroke="#63b8ff" points="68.5,-548.24 64.5,-542.24 68.5,-536.24 72.5,-542.24 68.5,-548.24"/>
</a>
</g>
<text text-anchor="middle" x="106" y="-557" font-family="Helvetica,sans-Serif" font-size="10.00" fill="grey"> +accumulated</text>
</g>
</g>
</svg>
