<?xml version="1.0" encoding="UTF-8" standalone="no"?>
<!DOCTYPE svg PUBLIC "-//W3C//DTD SVG 1.1//EN"
 "http://www.w3.org/Graphics/SVG/1.1/DTD/svg11.dtd">
<!-- Generated by graphviz version 2.43.0 (0)
 -->
<!-- Title: nmr::ParamFileChargeSource Pages: 1 -->
<svg width="160pt" height="232pt"
 viewBox="0.00 0.00 160.00 232.00" xmlns="http://www.w3.org/2000/svg" xmlns:xlink="http://www.w3.org/1999/xlink">
<g id="graph0" class="graph" transform="scale(1 1) rotate(0) translate(4 228)">
<title>nmr::ParamFileChargeSource</title>
<!-- Node1 -->
<g id="Node000001" class="node">
<title>Node1</title>
<g id="a_Node000001"><a xlink:title=" ">
<polygon fill="#999999" stroke="transparent" points="152,-94 0,-94 0,0 152,0 152,-94"/>
<text text-anchor="start" x="5" y="-82" font-family="Helvetica,sans-Serif" font-size="10.00">nmr::ParamFileChargeSource</text>
<text text-anchor="start" x="8" y="-67" font-family="Helvetica,sans-Serif" font-size="10.00">&#45;</text>
<text text-anchor="start" x="20" y="-67" font-family="Helvetica,sans-Serif" font-size="10.00">path_</text>
<text text-anchor="start" x="5.5" y="-52" font-family="Helvetica,sans-Serif" font-size="10.00">+</text>
<text text-anchor="start" x="20" y="-52" font-family="Helvetica,sans-Serif" font-size="10.00">ParamFileChargeSource()</text>
<text text-anchor="start" x="5.5" y="-37" font-family="Helvetica,sans-Serif" font-size="10.00">+</text>
<text text-anchor="start" x="20" y="-37" font-family="Helvetica,sans-Serif" font-size="10.00">SourceForceField()</text>
<text text-anchor="start" x="5.5" y="-22" font-family="Helvetica,sans-Serif" font-size="10.00">+</text>
<text text-anchor="start" x="20" y="-22" font-family="Helvetica,sans-Serif" font-size="10.00">Describe()</text>
<text text-anchor="start" x="5.5" y="-7" font-family="Helvetica,sans-Serif" font-size="10.00">+</text>
<text text-anchor="start" x="20" y="-7" font-family="Helvetica,sans-Serif" font-size="10.00">LoadCharges()</text>
<polygon fill="#666666" stroke="#666666" points="0,-77 0,-77 152,-77 152,-77 0,-77"/>
<polygon fill="#666666" stroke="#666666" points="0,-62 0,-62 18,-62 18,-62 0,-62"/>
<polygon fill="#666666" stroke="#666666" points="18,-62 18,-62 152,-62 152,-62 18,-62"/>
<polygon fill="none" stroke="#666666" points="0,0 0,-94 152,-94 152,0 0,0"/>
</a>
</g>
</g>
<!-- Node2 -->
<g id="Node000002" class="node">
<title>Node2</title>
<g id="a_Node000002"><a xlink:href="classnmr_1_1ChargeSource.html" target="_top" xlink:title=" ">
<polygon fill="white" stroke="transparent" points="132,-224 20,-224 20,-130 132,-130 132,-224"/>
<text text-anchor="start" x="29" y="-212" font-family="Helvetica,sans-Serif" font-size="10.00">nmr::ChargeSource</text>
<text text-anchor="start" x="74" y="-197" font-family="Helvetica,sans-Serif" font-size="10.00"> </text>
<text text-anchor="start" x="24" y="-182" font-family="Helvetica,sans-Serif" font-size="10.00">+</text>
<text text-anchor="start" x="37" y="-182" font-family="Helvetica,sans-Serif" font-size="10.00">~ChargeSource()</text>
<text text-anchor="start" x="24" y="-167" font-family="Helvetica,sans-Serif" font-size="10.00">+</text>
<text text-anchor="start" x="37" y="-167" font-family="Helvetica,sans-Serif" font-size="10.00">SourceForceField()</text>
<text text-anchor="start" x="24" y="-152" font-family="Helvetica,sans-Serif" font-size="10.00">+</text>
<text text-anchor="start" x="37" y="-152" font-family="Helvetica,sans-Serif" font-size="10.00">Describe()</text>
<text text-anchor="start" x="24" y="-137" font-family="Helvetica,sans-Serif" font-size="10.00">+</text>
<text text-anchor="start" x="37" y="-137" font-family="Helvetica,sans-Serif" font-size="10.00">LoadCharges()</text>
<polygon fill="#666666" stroke="#666666" points="20,-207 20,-207 132,-207 132,-207 20,-207"/>
<polygon fill="#666666" stroke="#666666" points="20,-192 20,-192 132,-192 132,-192 20,-192"/>
<polygon fill="none" stroke="#666666" points="20,-130 20,-224 132,-224 132,-130 20,-130"/>
</a>
</g>
</g>
<!-- Node2&#45;&gt;Node1 -->
<g id="edge1_Node000001_Node000002" class="edge">
<title>Node2&#45;&gt;Node1</title>
<g id="a_edge1_Node000001_Node000002"><a xlink:title=" ">
<path fill="none" stroke="#63b8ff" d="M76,-119.56C76,-111.06 76,-102.39 76,-94.14"/>
<polygon fill="none" stroke="#63b8ff" points="72.5,-119.79 76,-129.79 79.5,-119.79 72.5,-119.79"/>
</a>
</g>
</g>
</g>
</svg>
