<?xml version="1.0" encoding="UTF-8" standalone="no"?>
<!DOCTYPE svg PUBLIC "-//W3C//DTD SVG 1.1//EN"
 "http://www.w3.org/Graphics/SVG/1.1/DTD/svg11.dtd">
<!-- Generated by graphviz version 2.43.0 (0)
 -->
<!-- Title: nmr::RingBondedExclusionFilter Pages: 1 -->
<svg width="167pt" height="273pt"
 viewBox="0.00 0.00 167.00 273.00" xmlns="http://www.w3.org/2000/svg" xmlns:xlink="http://www.w3.org/1999/xlink">
<g id="graph0" class="graph" transform="scale(1 1) rotate(0) translate(4 269)">
<title>nmr::RingBondedExclusionFilter</title>
<!-- Node1 -->
<g id="Node000001" class="node">
<title>Node1</title>
<g id="a_Node000001"><a xlink:title=" ">
<polygon fill="#999999" stroke="transparent" points="159,-120 0,-120 0,0 159,0 159,-120"/>
<text text-anchor="start" x="14.5" y="-108" font-family="Helvetica,sans-Serif" font-size="10.00">nmr::RingBondedExclusion</text>
<text text-anchor="start" x="67.5" y="-97" font-family="Helvetica,sans-Serif" font-size="10.00">Filter</text>
<text text-anchor="start" x="7" y="-82" font-family="Helvetica,sans-Serif" font-size="10.00">&#45;</text>
<text text-anchor="start" x="17.5" y="-82" font-family="Helvetica,sans-Serif" font-size="10.00">ring_bonded_</text>
<text text-anchor="start" x="4.5" y="-67" font-family="Helvetica,sans-Serif" font-size="10.00">+</text>
<text text-anchor="start" x="17.5" y="-67" font-family="Helvetica,sans-Serif" font-size="10.00">RingBondedExclusionFilter()</text>
<text text-anchor="start" x="4.5" y="-52" font-family="Helvetica,sans-Serif" font-size="10.00">+</text>
<text text-anchor="start" x="17.5" y="-52" font-family="Helvetica,sans-Serif" font-size="10.00">Accept()</text>
<text text-anchor="start" x="4.5" y="-37" font-family="Helvetica,sans-Serif" font-size="10.00">+</text>
<text text-anchor="start" x="17.5" y="-37" font-family="Helvetica,sans-Serif" font-size="10.00">Name()</text>
<text text-anchor="start" x="4.5" y="-22" font-family="Helvetica,sans-Serif" font-size="10.00">+</text>
<text text-anchor="start" x="17.5" y="-22" font-family="Helvetica,sans-Serif" font-size="10.00">Description()</text>
<text text-anchor="start" x="4.5" y="-7" font-family="Helvetica,sans-Serif" font-size="10.00">+</text>
<text text-anchor="start" x="17.5" y="-7" font-family="Helvetica,sans-Serif" font-size="10.00">RejectReason()</text>
<polygon fill="#666666" stroke="#666666" points="0.5,-92 0.5,-92 159.5,-92 159.5,-92 0.5,-92"/>
<polygon fill="#666666" stroke="#666666" points="0.5,-77 0.5,-77 15.5,-77 15.5,-77 0.5,-77"/>
<polygon fill="#666666" stroke="#666666" points="15.5,-77 15.5,-77 159.5,-77 159.5,-77 15.5,-77"/>
<polygon fill="none" stroke="#666666" points="0,0 0,-120 159,-120 159,0 0,0"/>
</a>
</g>
</g>
<!-- Node2 -->
<g id="Node000002" class="node">
<title>Node2</title>
<g id="a_Node000002"><a xlink:href="classnmr_1_1KernelEvaluationFilter.html" target="_top" xlink:title=" ">
<polygon fill="white" stroke="transparent" points="152,-265 7,-265 7,-156 152,-156 152,-265"/>
<text text-anchor="start" x="13.5" y="-252.5" font-family="Helvetica,sans-Serif" font-size="10.00">nmr::KernelEvaluationFilter</text>
<text text-anchor="start" x="78" y="-237.5" font-family="Helvetica,sans-Serif" font-size="10.00"> </text>
<text text-anchor="start" x="11.5" y="-222.5" font-family="Helvetica,sans-Serif" font-size="10.00">+</text>
<text text-anchor="start" x="24.5" y="-222.5" font-family="Helvetica,sans-Serif" font-size="10.00">~KernelEvaluationFilter()</text>
<text text-anchor="start" x="11.5" y="-207.5" font-family="Helvetica,sans-Serif" font-size="10.00">+</text>
<text text-anchor="start" x="24.5" y="-207.5" font-family="Helvetica,sans-Serif" font-size="10.00">Accept()</text>
<text text-anchor="start" x="11.5" y="-192.5" font-family="Helvetica,sans-Serif" font-size="10.00">+</text>
<text text-anchor="start" x="24.5" y="-192.5" font-family="Helvetica,sans-Serif" font-size="10.00">Name()</text>
<text text-anchor="start" x="11.5" y="-177.5" font-family="Helvetica,sans-Serif" font-size="10.00">+</text>
<text text-anchor="start" x="24.5" y="-177.5" font-family="Helvetica,sans-Serif" font-size="10.00">Description()</text>
<text text-anchor="start" x="11.5" y="-162.5" font-family="Helvetica,sans-Serif" font-size="10.00">+</text>
<text text-anchor="start" x="24.5" y="-162.5" font-family="Helvetica,sans-Serif" font-size="10.00">RejectReason()</text>
<polygon fill="#666666" stroke="#666666" points="7.5,-247.5 7.5,-247.5 152.5,-247.5 152.5,-247.5 7.5,-247.5"/>
<polygon fill="#666666" stroke="#666666" points="7.5,-232.5 7.5,-232.5 152.5,-232.5 152.5,-232.5 7.5,-232.5"/>
<polygon fill="none" stroke="#666666" points="7,-156 7,-265 152,-265 152,-156 7,-156"/>
</a>
</g>
</g>
<!-- Node2&#45;&gt;Node1 -->
<g id="edge1_Node000001_Node000002" class="edge">
<title>Node2&#45;&gt;Node1</title>
<g id="a_edge1_Node000001_Node000002"><a xlink:title=" ">
<path fill="none" stroke="#63b8ff" d="M79.5,-145.65C79.5,-137.15 79.5,-128.47 79.5,-120.06"/>
<polygon fill="none" stroke="#63b8ff" points="76,-145.89 79.5,-155.89 83,-145.89 76,-145.89"/>
</a>
</g>
</g>
</g>
</svg>
