<?xml version="1.0" encoding="UTF-8" standalone="no"?>
<!DOCTYPE svg PUBLIC "-//W3C//DTD SVG 1.1//EN"
 "http://www.w3.org/Graphics/SVG/1.1/DTD/svg11.dtd">
<!-- Generated by graphviz version 2.43.0 (0)
 -->
<!-- Title: nmr::KernelEvaluationFilter Pages: 1 -->
<svg width="771pt" height="288pt"
 viewBox="0.00 0.00 770.50 288.00" xmlns="http://www.w3.org/2000/svg" xmlns:xlink="http://www.w3.org/1999/xlink">
<g id="graph0" class="graph" transform="scale(1 1) rotate(0) translate(4 284)">
<title>nmr::KernelEvaluationFilter</title>
<!-- Node1 -->
<g id="Node000001" class="node">
<title>Node1</title>
<g id="a_Node000001"><a xlink:title=" ">
<polygon fill="#999999" stroke="transparent" points="454,-280 309,-280 309,-171 454,-171 454,-280"/>
<text text-anchor="start" x="315.5" y="-267.5" font-family="Helvetica,sans-Serif" font-size="10.00">nmr::KernelEvaluationFilter</text>
<text text-anchor="start" x="380" y="-252.5" font-family="Helvetica,sans-Serif" font-size="10.00"> </text>
<text text-anchor="start" x="313.5" y="-237.5" font-family="Helvetica,sans-Serif" font-size="10.00">+</text>
<text text-anchor="start" x="326.5" y="-237.5" font-family="Helvetica,sans-Serif" font-size="10.00">~KernelEvaluationFilter()</text>
<text text-anchor="start" x="313.5" y="-222.5" font-family="Helvetica,sans-Serif" font-size="10.00">+</text>
<text text-anchor="start" x="326.5" y="-222.5" font-family="Helvetica,sans-Serif" font-size="10.00">Accept()</text>
<text text-anchor="start" x="313.5" y="-207.5" font-family="Helvetica,sans-Serif" font-size="10.00">+</text>
<text text-anchor="start" x="326.5" y="-207.5" font-family="Helvetica,sans-Serif" font-size="10.00">Name()</text>
<text text-anchor="start" x="313.5" y="-192.5" font-family="Helvetica,sans-Serif" font-size="10.00">+</text>
<text text-anchor="start" x="326.5" y="-192.5" font-family="Helvetica,sans-Serif" font-size="10.00">Description()</text>
<text text-anchor="start" x="313.5" y="-177.5" font-family="Helvetica,sans-Serif" font-size="10.00">+</text>
<text text-anchor="start" x="326.5" y="-177.5" font-family="Helvetica,sans-Serif" font-size="10.00">RejectReason()</text>
<polygon fill="#666666" stroke="#666666" points="309.5,-262.5 309.5,-262.5 454.5,-262.5 454.5,-262.5 309.5,-262.5"/>
<polygon fill="#666666" stroke="#666666" points="309.5,-247.5 309.5,-247.5 454.5,-247.5 454.5,-247.5 309.5,-247.5"/>
<polygon fill="none" stroke="#666666" points="309,-171 309,-280 454,-280 454,-171 309,-171"/>
</a>
</g>
</g>
<!-- Node2 -->
<g id="Node000002" class="node">
<title>Node2</title>
<g id="a_Node000002"><a xlink:href="classnmr_1_1DipolarNearFieldFilter.html" target="_top" xlink:title=" ">
<polygon fill="white" stroke="transparent" points="143,-114.5 0,-114.5 0,-20.5 143,-20.5 143,-114.5"/>
<text text-anchor="start" x="5.5" y="-102.5" font-family="Helvetica,sans-Serif" font-size="10.00">nmr::DipolarNearFieldFilter</text>
<text text-anchor="start" x="70" y="-87.5" font-family="Helvetica,sans-Serif" font-size="10.00"> </text>
<text text-anchor="start" x="16" y="-72.5" font-family="Helvetica,sans-Serif" font-size="10.00">+</text>
<text text-anchor="start" x="40.5" y="-72.5" font-family="Helvetica,sans-Serif" font-size="10.00">Accept()</text>
<text text-anchor="start" x="16" y="-57.5" font-family="Helvetica,sans-Serif" font-size="10.00">+</text>
<text text-anchor="start" x="40.5" y="-57.5" font-family="Helvetica,sans-Serif" font-size="10.00">Name()</text>
<text text-anchor="start" x="16" y="-42.5" font-family="Helvetica,sans-Serif" font-size="10.00">+</text>
<text text-anchor="start" x="40.5" y="-42.5" font-family="Helvetica,sans-Serif" font-size="10.00">Description()</text>
<text text-anchor="start" x="16" y="-27.5" font-family="Helvetica,sans-Serif" font-size="10.00">+</text>
<text text-anchor="start" x="40.5" y="-27.5" font-family="Helvetica,sans-Serif" font-size="10.00">RejectReason()</text>
<polygon fill="#666666" stroke="#666666" points="0.5,-97.5 0.5,-97.5 143.5,-97.5 143.5,-97.5 0.5,-97.5"/>
<polygon fill="#666666" stroke="#666666" points="0.5,-82.5 0.5,-82.5 143.5,-82.5 143.5,-82.5 0.5,-82.5"/>
<polygon fill="none" stroke="#666666" points="0,-20.5 0,-114.5 143,-114.5 143,-20.5 0,-20.5"/>
</a>
</g>
</g>
<!-- Node1&#45;&gt;Node2 -->
<g id="edge1_Node000001_Node000002" class="edge">
<title>Node1&#45;&gt;Node2</title>
<g id="a_edge1_Node000001_Node000002"><a xlink:title=" ">
<path fill="none" stroke="#63b8ff" d="M299.22,-199.39C254.28,-183.97 198.56,-161.99 152.5,-135 142.45,-129.11 132.37,-122.01 122.89,-114.68"/>
<polygon fill="none" stroke="#63b8ff" points="298.34,-202.79 308.93,-202.68 300.58,-196.16 298.34,-202.79"/>
</a>
</g>
</g>
<!-- Node3 -->
<g id="Node000003" class="node">
<title>Node3</title>
<g id="a_Node000003"><a xlink:href="classnmr_1_1MinDistanceFilter.html" target="_top" xlink:title=" ">
<polygon fill="white" stroke="transparent" points="283.5,-114.5 161.5,-114.5 161.5,-20.5 283.5,-20.5 283.5,-114.5"/>
<text text-anchor="start" x="166.5" y="-102.5" font-family="Helvetica,sans-Serif" font-size="10.00">nmr::MinDistanceFilter</text>
<text text-anchor="start" x="220.5" y="-87.5" font-family="Helvetica,sans-Serif" font-size="10.00"> </text>
<text text-anchor="start" x="172" y="-72.5" font-family="Helvetica,sans-Serif" font-size="10.00">+</text>
<text text-anchor="start" x="191.5" y="-72.5" font-family="Helvetica,sans-Serif" font-size="10.00">Accept()</text>
<text text-anchor="start" x="172" y="-57.5" font-family="Helvetica,sans-Serif" font-size="10.00">+</text>
<text text-anchor="start" x="191.5" y="-57.5" font-family="Helvetica,sans-Serif" font-size="10.00">Name()</text>
<text text-anchor="start" x="172" y="-42.5" font-family="Helvetica,sans-Serif" font-size="10.00">+</text>
<text text-anchor="start" x="191.5" y="-42.5" font-family="Helvetica,sans-Serif" font-size="10.00">Description()</text>
<text text-anchor="start" x="172" y="-27.5" font-family="Helvetica,sans-Serif" font-size="10.00">+</text>
<text text-anchor="start" x="191.5" y="-27.5" font-family="Helvetica,sans-Serif" font-size="10.00">RejectReason()</text>
<polygon fill="#666666" stroke="#666666" points="161.5,-97.5 161.5,-97.5 283.5,-97.5 283.5,-97.5 161.5,-97.5"/>
<polygon fill="#666666" stroke="#666666" points="161.5,-82.5 161.5,-82.5 283.5,-82.5 283.5,-82.5 161.5,-82.5"/>
<polygon fill="none" stroke="#666666" points="161.5,-20.5 161.5,-114.5 283.5,-114.5 283.5,-20.5 161.5,-20.5"/>
</a>
</g>
</g>
<!-- Node1&#45;&gt;Node3 -->
<g id="edge2_Node000001_Node000003" class="edge">
<title>Node1&#45;&gt;Node3</title>
<g id="a_edge2_Node000001_Node000003"><a xlink:title=" ">
<path fill="none" stroke="#63b8ff" d="M319.28,-163.45C302.76,-147.25 285.2,-130.01 269.63,-114.74"/>
<polygon fill="none" stroke="#63b8ff" points="317.19,-166.31 326.78,-170.81 322.09,-161.31 317.19,-166.31"/>
</a>
</g>
</g>
<!-- Node4 -->
<g id="Node000004" class="node">
<title>Node4</title>
<g id="a_Node000004"><a xlink:href="classnmr_1_1RingBondedExclusionFilter.html" target="_top" xlink:title=" ">
<polygon fill="white" stroke="transparent" points="461,-127.5 302,-127.5 302,-7.5 461,-7.5 461,-127.5"/>
<text text-anchor="start" x="316.5" y="-115.5" font-family="Helvetica,sans-Serif" font-size="10.00">nmr::RingBondedExclusion</text>
<text text-anchor="start" x="369.5" y="-104.5" font-family="Helvetica,sans-Serif" font-size="10.00">Filter</text>
<text text-anchor="start" x="309" y="-89.5" font-family="Helvetica,sans-Serif" font-size="10.00">&#45;</text>
<text text-anchor="start" x="319.5" y="-89.5" font-family="Helvetica,sans-Serif" font-size="10.00">ring_bonded_</text>
<text text-anchor="start" x="306.5" y="-74.5" font-family="Helvetica,sans-Serif" font-size="10.00">+</text>
<text text-anchor="start" x="319.5" y="-74.5" font-family="Helvetica,sans-Serif" font-size="10.00">RingBondedExclusionFilter()</text>
<text text-anchor="start" x="306.5" y="-59.5" font-family="Helvetica,sans-Serif" font-size="10.00">+</text>
<text text-anchor="start" x="319.5" y="-59.5" font-family="Helvetica,sans-Serif" font-size="10.00">Accept()</text>
<text text-anchor="start" x="306.5" y="-44.5" font-family="Helvetica,sans-Serif" font-size="10.00">+</text>
<text text-anchor="start" x="319.5" y="-44.5" font-family="Helvetica,sans-Serif" font-size="10.00">Name()</text>
<text text-anchor="start" x="306.5" y="-29.5" font-family="Helvetica,sans-Serif" font-size="10.00">+</text>
<text text-anchor="start" x="319.5" y="-29.5" font-family="Helvetica,sans-Serif" font-size="10.00">Description()</text>
<text text-anchor="start" x="306.5" y="-14.5" font-family="Helvetica,sans-Serif" font-size="10.00">+</text>
<text text-anchor="start" x="319.5" y="-14.5" font-family="Helvetica,sans-Serif" font-size="10.00">RejectReason()</text>
<polygon fill="#666666" stroke="#666666" points="302.5,-99.5 302.5,-99.5 461.5,-99.5 461.5,-99.5 302.5,-99.5"/>
<polygon fill="#666666" stroke="#666666" points="302.5,-84.5 302.5,-84.5 317.5,-84.5 317.5,-84.5 302.5,-84.5"/>
<polygon fill="#666666" stroke="#666666" points="317.5,-84.5 317.5,-84.5 461.5,-84.5 461.5,-84.5 317.5,-84.5"/>
<polygon fill="none" stroke="#666666" points="302,-7.5 302,-127.5 461,-127.5 461,-7.5 302,-7.5"/>
</a>
</g>
</g>
<!-- Node1&#45;&gt;Node4 -->
<g id="edge3_Node000001_Node000004" class="edge">
<title>Node1&#45;&gt;Node4</title>
<g id="a_edge3_Node000001_Node000004"><a xlink:title=" ">
<path fill="none" stroke="#63b8ff" d="M381.5,-160.52C381.5,-149.64 381.5,-138.38 381.5,-127.63"/>
<polygon fill="none" stroke="#63b8ff" points="378,-160.81 381.5,-170.81 385,-160.81 378,-160.81"/>
</a>
</g>
</g>
<!-- Node5 -->
<g id="Node000005" class="node">
<title>Node5</title>
<g id="a_Node000005"><a xlink:href="classnmr_1_1SelfSourceFilter.html" target="_top" xlink:title=" ">
<polygon fill="white" stroke="transparent" points="592,-114.5 479,-114.5 479,-20.5 592,-20.5 592,-114.5"/>
<text text-anchor="start" x="484.5" y="-102.5" font-family="Helvetica,sans-Serif" font-size="10.00">nmr::SelfSourceFilter</text>
<text text-anchor="start" x="534" y="-87.5" font-family="Helvetica,sans-Serif" font-size="10.00"> </text>
<text text-anchor="start" x="487.5" y="-72.5" font-family="Helvetica,sans-Serif" font-size="10.00">+</text>
<text text-anchor="start" x="504.5" y="-72.5" font-family="Helvetica,sans-Serif" font-size="10.00">Accept()</text>
<text text-anchor="start" x="487.5" y="-57.5" font-family="Helvetica,sans-Serif" font-size="10.00">+</text>
<text text-anchor="start" x="504.5" y="-57.5" font-family="Helvetica,sans-Serif" font-size="10.00">Name()</text>
<text text-anchor="start" x="487.5" y="-42.5" font-family="Helvetica,sans-Serif" font-size="10.00">+</text>
<text text-anchor="start" x="504.5" y="-42.5" font-family="Helvetica,sans-Serif" font-size="10.00">Description()</text>
<text text-anchor="start" x="487.5" y="-27.5" font-family="Helvetica,sans-Serif" font-size="10.00">+</text>
<text text-anchor="start" x="504.5" y="-27.5" font-family="Helvetica,sans-Serif" font-size="10.00">RejectReason()</text>
<polygon fill="#666666" stroke="#666666" points="479.5,-97.5 479.5,-97.5 592.5,-97.5 592.5,-97.5 479.5,-97.5"/>
<polygon fill="#666666" stroke="#666666" points="479.5,-82.5 479.5,-82.5 592.5,-82.5 592.5,-82.5 479.5,-82.5"/>
<polygon fill="none" stroke="#666666" points="479,-20.5 479,-114.5 592,-114.5 592,-20.5 479,-20.5"/>
</a>
</g>
</g>
<!-- Node1&#45;&gt;Node5 -->
<g id="edge4_Node000001_Node000005" class="edge">
<title>Node1&#45;&gt;Node5</title>
<g id="a_edge4_Node000001_Node000005"><a xlink:title=" ">
<path fill="none" stroke="#63b8ff" d="M441.77,-163.45C457.76,-147.25 474.77,-130.01 489.85,-114.74"/>
<polygon fill="none" stroke="#63b8ff" points="439.03,-161.24 434.5,-170.81 444.01,-166.16 439.03,-161.24"/>
</a>
</g>
</g>
<!-- Node6 -->
<g id="Node000006" class="node">
<title>Node6</title>
<g id="a_Node000006"><a xlink:href="classnmr_1_1SequentialExclusionFilter.html" target="_top" xlink:title=" ">
<polygon fill="white" stroke="transparent" points="762.5,-135 610.5,-135 610.5,0 762.5,0 762.5,-135"/>
<text text-anchor="start" x="624.5" y="-122.5" font-family="Helvetica,sans-Serif" font-size="10.00">nmr::SequentialExclusion</text>
<text text-anchor="start" x="674" y="-111.5" font-family="Helvetica,sans-Serif" font-size="10.00">Filter</text>
<text text-anchor="start" x="617" y="-96.5" font-family="Helvetica,sans-Serif" font-size="10.00">&#45;</text>
<text text-anchor="start" x="627.5" y="-96.5" font-family="Helvetica,sans-Serif" font-size="10.00">min_separation_</text>
<text text-anchor="start" x="614.5" y="-81.5" font-family="Helvetica,sans-Serif" font-size="10.00">+</text>
<text text-anchor="start" x="627.5" y="-81.5" font-family="Helvetica,sans-Serif" font-size="10.00">SequentialExclusionFilter()</text>
<text text-anchor="start" x="614.5" y="-66.5" font-family="Helvetica,sans-Serif" font-size="10.00">+</text>
<text text-anchor="start" x="627.5" y="-66.5" font-family="Helvetica,sans-Serif" font-size="10.00">Accept()</text>
<text text-anchor="start" x="614.5" y="-51.5" font-family="Helvetica,sans-Serif" font-size="10.00">+</text>
<text text-anchor="start" x="627.5" y="-51.5" font-family="Helvetica,sans-Serif" font-size="10.00">Name()</text>
<text text-anchor="start" x="614.5" y="-36.5" font-family="Helvetica,sans-Serif" font-size="10.00">+</text>
<text text-anchor="start" x="627.5" y="-36.5" font-family="Helvetica,sans-Serif" font-size="10.00">Description()</text>
<text text-anchor="start" x="614.5" y="-21.5" font-family="Helvetica,sans-Serif" font-size="10.00">+</text>
<text text-anchor="start" x="627.5" y="-21.5" font-family="Helvetica,sans-Serif" font-size="10.00">RejectReason()</text>
<text text-anchor="start" x="614.5" y="-6.5" font-family="Helvetica,sans-Serif" font-size="10.00">+</text>
<text text-anchor="start" x="627.5" y="-6.5" font-family="Helvetica,sans-Serif" font-size="10.00">MinSeparation()</text>
<polygon fill="#666666" stroke="#666666" points="610.5,-106.5 610.5,-106.5 762.5,-106.5 762.5,-106.5 610.5,-106.5"/>
<polygon fill="#666666" stroke="#666666" points="610.5,-91.5 610.5,-91.5 625.5,-91.5 625.5,-91.5 610.5,-91.5"/>
<polygon fill="#666666" stroke="#666666" points="625.5,-91.5 625.5,-91.5 762.5,-91.5 762.5,-91.5 625.5,-91.5"/>
<polygon fill="none" stroke="#666666" points="610.5,0 610.5,-135 762.5,-135 762.5,0 610.5,0"/>
</a>
</g>
</g>
<!-- Node1&#45;&gt;Node6 -->
<g id="edge5_Node000001_Node000006" class="edge">
<title>Node1&#45;&gt;Node6</title>
<g id="a_edge5_Node000001_Node000006"><a xlink:title=" ">
<path fill="none" stroke="#63b8ff" d="M463.67,-197.25C506.15,-181.65 558.05,-160.18 601.5,-135 604.42,-133.31 607.35,-131.53 610.27,-129.68"/>
<polygon fill="none" stroke="#63b8ff" points="462.41,-193.99 454.2,-200.69 464.8,-200.57 462.41,-193.99"/>
</a>
</g>
</g>
</g>
</svg>
