<?xml version="1.0" encoding="UTF-8" standalone="no"?>
<!DOCTYPE svg PUBLIC "-//W3C//DTD SVG 1.1//EN"
 "http://www.w3.org/Graphics/SVG/1.1/DTD/svg11.dtd">
<!-- Generated by graphviz version 2.43.0 (0)
 -->
<!-- Title: nmr::TrpBenzeneRing Pages: 1 -->
<svg width="145pt" height="542pt"
 viewBox="0.00 0.00 145.00 542.00" xmlns="http://www.w3.org/2000/svg" xmlns:xlink="http://www.w3.org/1999/xlink">
<g id="graph0" class="graph" transform="scale(1 1) rotate(0) translate(4 538)">
<title>nmr::TrpBenzeneRing</title>
<!-- Node1 -->
<g id="Node000001" class="node">
<title>Node1</title>
<g id="a_Node000001"><a xlink:title=" ">
<polygon fill="#999999" stroke="transparent" points="128,-139 9,-139 9,0 128,0 128,-139"/>
<text text-anchor="start" x="17" y="-126.5" font-family="Helvetica,sans-Serif" font-size="10.00">nmr::TrpBenzeneRing</text>
<text text-anchor="start" x="67" y="-111.5" font-family="Helvetica,sans-Serif" font-size="10.00"> </text>
<text text-anchor="start" x="13.5" y="-96.5" font-family="Helvetica,sans-Serif" font-size="10.00">+</text>
<text text-anchor="start" x="26.5" y="-96.5" font-family="Helvetica,sans-Serif" font-size="10.00">TrpBenzeneRing()</text>
<text text-anchor="start" x="13.5" y="-81.5" font-family="Helvetica,sans-Serif" font-size="10.00">+</text>
<text text-anchor="start" x="26.5" y="-81.5" font-family="Helvetica,sans-Serif" font-size="10.00">Intensity()</text>
<text text-anchor="start" x="13.5" y="-66.5" font-family="Helvetica,sans-Serif" font-size="10.00">+</text>
<text text-anchor="start" x="26.5" y="-66.5" font-family="Helvetica,sans-Serif" font-size="10.00">LiteratureIntensity()</text>
<text text-anchor="start" x="13.5" y="-51.5" font-family="Helvetica,sans-Serif" font-size="10.00">+</text>
<text text-anchor="start" x="26.5" y="-51.5" font-family="Helvetica,sans-Serif" font-size="10.00">JBLobeOffset()</text>
<text text-anchor="start" x="13.5" y="-36.5" font-family="Helvetica,sans-Serif" font-size="10.00">+</text>
<text text-anchor="start" x="26.5" y="-36.5" font-family="Helvetica,sans-Serif" font-size="10.00">NitrogenCount()</text>
<text text-anchor="start" x="13.5" y="-21.5" font-family="Helvetica,sans-Serif" font-size="10.00">+</text>
<text text-anchor="start" x="26.5" y="-21.5" font-family="Helvetica,sans-Serif" font-size="10.00">Aromaticity()</text>
<text text-anchor="start" x="13.5" y="-6.5" font-family="Helvetica,sans-Serif" font-size="10.00">+</text>
<text text-anchor="start" x="26.5" y="-6.5" font-family="Helvetica,sans-Serif" font-size="10.00">TypeName()</text>
<polygon fill="#666666" stroke="#666666" points="9.5,-121.5 9.5,-121.5 128.5,-121.5 128.5,-121.5 9.5,-121.5"/>
<polygon fill="#666666" stroke="#666666" points="9.5,-106.5 9.5,-106.5 128.5,-106.5 128.5,-106.5 9.5,-106.5"/>
<polygon fill="none" stroke="#666666" points="9,0 9,-139 128,-139 128,0 9,0"/>
</a>
</g>
</g>
<!-- Node2 -->
<g id="Node000002" class="node">
<title>Node2</title>
<g id="a_Node000002"><a xlink:href="classnmr_1_1SixMemberedRing.html" target="_top" xlink:title=" ">
<polygon fill="white" stroke="transparent" points="131,-224 6,-224 6,-175 131,-175 131,-224"/>
<text text-anchor="start" x="11.5" y="-211.5" font-family="Helvetica,sans-Serif" font-size="10.00">nmr::SixMemberedRing</text>
<text text-anchor="start" x="67" y="-196.5" font-family="Helvetica,sans-Serif" font-size="10.00"> </text>
<text text-anchor="start" x="17" y="-181.5" font-family="Helvetica,sans-Serif" font-size="10.00">+</text>
<text text-anchor="start" x="36.5" y="-181.5" font-family="Helvetica,sans-Serif" font-size="10.00">RingSizeValue()</text>
<polygon fill="#666666" stroke="#666666" points="6.5,-206.5 6.5,-206.5 131.5,-206.5 131.5,-206.5 6.5,-206.5"/>
<polygon fill="#666666" stroke="#666666" points="6.5,-191.5 6.5,-191.5 131.5,-191.5 131.5,-191.5 6.5,-191.5"/>
<polygon fill="none" stroke="#666666" points="6,-175 6,-224 131,-224 131,-175 6,-175"/>
</a>
</g>
</g>
<!-- Node2&#45;&gt;Node1 -->
<g id="edge1_Node000001_Node000002" class="edge">
<title>Node2&#45;&gt;Node1</title>
<g id="a_edge1_Node000001_Node000002"><a xlink:title=" ">
<path fill="none" stroke="#63b8ff" d="M68.5,-164.48C68.5,-156.57 68.5,-147.86 68.5,-139.04"/>
<polygon fill="none" stroke="#63b8ff" points="65,-164.72 68.5,-174.72 72,-164.72 65,-164.72"/>
</a>
</g>
</g>
<!-- Node3 -->
<g id="Node000003" class="node">
<title>Node3</title>
<g id="a_Node000003"><a xlink:href="classnmr_1_1Ring.html" target="_top" xlink:title=" ">
<polygon fill="white" stroke="transparent" points="137,-534 0,-534 0,-260 137,-260 137,-534"/>
<text text-anchor="start" x="45" y="-522" font-family="Helvetica,sans-Serif" font-size="10.00">nmr::Ring</text>
<text text-anchor="start" x="4.5" y="-507" font-family="Helvetica,sans-Serif" font-size="10.00">+</text>
<text text-anchor="start" x="17.5" y="-507" font-family="Helvetica,sans-Serif" font-size="10.00">atom_indices</text>
<text text-anchor="start" x="4.5" y="-492" font-family="Helvetica,sans-Serif" font-size="10.00">+</text>
<text text-anchor="start" x="17.5" y="-492" font-family="Helvetica,sans-Serif" font-size="10.00">type_index</text>
<text text-anchor="start" x="4.5" y="-477" font-family="Helvetica,sans-Serif" font-size="10.00">+</text>
<text text-anchor="start" x="17.5" y="-477" font-family="Helvetica,sans-Serif" font-size="10.00">parent_residue_index</text>
<text text-anchor="start" x="4.5" y="-462" font-family="Helvetica,sans-Serif" font-size="10.00">+</text>
<text text-anchor="start" x="17.5" y="-462" font-family="Helvetica,sans-Serif" font-size="10.00">parent_residue_number</text>
<text text-anchor="start" x="4.5" y="-447" font-family="Helvetica,sans-Serif" font-size="10.00">+</text>
<text text-anchor="start" x="17.5" y="-447" font-family="Helvetica,sans-Serif" font-size="10.00">fused_partner_index</text>
<text text-anchor="start" x="4.5" y="-432" font-family="Helvetica,sans-Serif" font-size="10.00">+</text>
<text text-anchor="start" x="17.5" y="-432" font-family="Helvetica,sans-Serif" font-size="10.00">accumulated</text>
<text text-anchor="start" x="4.5" y="-417" font-family="Helvetica,sans-Serif" font-size="10.00">+</text>
<text text-anchor="start" x="17.5" y="-417" font-family="Helvetica,sans-Serif" font-size="10.00">~Ring()</text>
<text text-anchor="start" x="4.5" y="-402" font-family="Helvetica,sans-Serif" font-size="10.00">+</text>
<text text-anchor="start" x="17.5" y="-402" font-family="Helvetica,sans-Serif" font-size="10.00">Intensity()</text>
<text text-anchor="start" x="4.5" y="-387" font-family="Helvetica,sans-Serif" font-size="10.00">+</text>
<text text-anchor="start" x="17.5" y="-387" font-family="Helvetica,sans-Serif" font-size="10.00">LiteratureIntensity()</text>
<text text-anchor="start" x="4.5" y="-372" font-family="Helvetica,sans-Serif" font-size="10.00">+</text>
<text text-anchor="start" x="17.5" y="-372" font-family="Helvetica,sans-Serif" font-size="10.00">JBLobeOffset()</text>
<text text-anchor="start" x="4.5" y="-357" font-family="Helvetica,sans-Serif" font-size="10.00">+</text>
<text text-anchor="start" x="17.5" y="-357" font-family="Helvetica,sans-Serif" font-size="10.00">NitrogenCount()</text>
<text text-anchor="start" x="4.5" y="-342" font-family="Helvetica,sans-Serif" font-size="10.00">+</text>
<text text-anchor="start" x="17.5" y="-342" font-family="Helvetica,sans-Serif" font-size="10.00">Aromaticity()</text>
<text text-anchor="start" x="4.5" y="-327" font-family="Helvetica,sans-Serif" font-size="10.00">+</text>
<text text-anchor="start" x="17.5" y="-327" font-family="Helvetica,sans-Serif" font-size="10.00">RingSizeValue()</text>
<text text-anchor="start" x="4.5" y="-312" font-family="Helvetica,sans-Serif" font-size="10.00">+</text>
<text text-anchor="start" x="17.5" y="-312" font-family="Helvetica,sans-Serif" font-size="10.00">TypeName()</text>
<text text-anchor="start" x="4.5" y="-297" font-family="Helvetica,sans-Serif" font-size="10.00">+</text>
<text text-anchor="start" x="17.5" y="-297" font-family="Helvetica,sans-Serif" font-size="10.00">IsFused()</text>
<text text-anchor="start" x="4.5" y="-282" font-family="Helvetica,sans-Serif" font-size="10.00">+</text>
<text text-anchor="start" x="17.5" y="-282" font-family="Helvetica,sans-Serif" font-size="10.00">TypeIndexAsInt()</text>
<text text-anchor="start" x="4.5" y="-267" font-family="Helvetica,sans-Serif" font-size="10.00">+</text>
<text text-anchor="start" x="17.5" y="-267" font-family="Helvetica,sans-Serif" font-size="10.00">ComputeGeometry()</text>
<polygon fill="#666666" stroke="#666666" points="0.5,-517 0.5,-517 137.5,-517 137.5,-517 0.5,-517"/>
<polygon fill="#666666" stroke="#666666" points="0.5,-427 0.5,-427 15.5,-427 15.5,-427 0.5,-427"/>
<polygon fill="#666666" stroke="#666666" points="15.5,-427 15.5,-427 137.5,-427 137.5,-427 15.5,-427"/>
<polygon fill="none" stroke="#666666" points="0,-260 0,-534 137,-534 137,-260 0,-260"/>
</a>
</g>
</g>
<!-- Node3&#45;&gt;Node2 -->
<g id="edge2_Node000002_Node000003" class="edge">
<title>Node3&#45;&gt;Node2</title>
<g id="a_edge2_Node000002_Node000003"><a xlink:title=" ">
<path fill="none" stroke="#63b8ff" d="M68.5,-249.76C68.5,-240.25 68.5,-231.56 68.5,-224.21"/>
<polygon fill="none" stroke="#63b8ff" points="65,-249.95 68.5,-259.95 72,-249.95 65,-249.95"/>
</a>
</g>
</g>
</g>
</svg>
