<?xml version="1.0" encoding="UTF-8" standalone="no"?>
<!DOCTYPE svg PUBLIC "-//W3C//DTD SVG 1.1//EN"
 "http://www.w3.org/Graphics/SVG/1.1/DTD/svg11.dtd">
<!-- Generated by graphviz version 2.43.0 (0)
 -->
<!-- Title: nmr::Residue Pages: 1 -->
<svg width="141pt" height="434pt"
 viewBox="0.00 0.00 141.00 434.00" xmlns="http://www.w3.org/2000/svg" xmlns:xlink="http://www.w3.org/1999/xlink">
<g id="graph0" class="graph" transform="scale(1 1) rotate(0) translate(4 430)">
<title>nmr::Residue</title>
<!-- Node1 -->
<g id="Node000001" class="node">
<title>Node1</title>
<g id="a_Node000001"><a xlink:title=" ">
<polygon fill="#999999" stroke="transparent" points="133,-330 0,-330 0,0 133,0 133,-330"/>
<text text-anchor="start" x="34.5" y="-318" font-family="Helvetica,sans-Serif" font-size="10.00">nmr::Residue</text>
<text text-anchor="start" x="4.5" y="-303" font-family="Helvetica,sans-Serif" font-size="10.00">+</text>
<text text-anchor="start" x="17.5" y="-303" font-family="Helvetica,sans-Serif" font-size="10.00">type</text>
<text text-anchor="start" x="4.5" y="-288" font-family="Helvetica,sans-Serif" font-size="10.00">+</text>
<text text-anchor="start" x="17.5" y="-288" font-family="Helvetica,sans-Serif" font-size="10.00">sequence_number</text>
<text text-anchor="start" x="4.5" y="-273" font-family="Helvetica,sans-Serif" font-size="10.00">+</text>
<text text-anchor="start" x="17.5" y="-273" font-family="Helvetica,sans-Serif" font-size="10.00">chain_id</text>
<text text-anchor="start" x="4.5" y="-258" font-family="Helvetica,sans-Serif" font-size="10.00">+</text>
<text text-anchor="start" x="17.5" y="-258" font-family="Helvetica,sans-Serif" font-size="10.00">insertion_code</text>
<text text-anchor="start" x="4.5" y="-243" font-family="Helvetica,sans-Serif" font-size="10.00">+</text>
<text text-anchor="start" x="17.5" y="-243" font-family="Helvetica,sans-Serif" font-size="10.00">atom_indices</text>
<text text-anchor="start" x="4.5" y="-228" font-family="Helvetica,sans-Serif" font-size="10.00">+</text>
<text text-anchor="start" x="17.5" y="-228" font-family="Helvetica,sans-Serif" font-size="10.00">protonation_variant</text>
<text text-anchor="start" x="17.5" y="-217" font-family="Helvetica,sans-Serif" font-size="10.00">_index</text>
<text text-anchor="start" x="4.5" y="-202" font-family="Helvetica,sans-Serif" font-size="10.00">+</text>
<text text-anchor="start" x="17.5" y="-202" font-family="Helvetica,sans-Serif" font-size="10.00">N</text>
<text text-anchor="start" x="4.5" y="-187" font-family="Helvetica,sans-Serif" font-size="10.00">+</text>
<text text-anchor="start" x="17.5" y="-187" font-family="Helvetica,sans-Serif" font-size="10.00">CA</text>
<text text-anchor="start" x="4.5" y="-172" font-family="Helvetica,sans-Serif" font-size="10.00">+</text>
<text text-anchor="start" x="17.5" y="-172" font-family="Helvetica,sans-Serif" font-size="10.00">C</text>
<text text-anchor="start" x="4.5" y="-157" font-family="Helvetica,sans-Serif" font-size="10.00">+</text>
<text text-anchor="start" x="17.5" y="-157" font-family="Helvetica,sans-Serif" font-size="10.00">O</text>
<text text-anchor="start" x="4.5" y="-142" font-family="Helvetica,sans-Serif" font-size="10.00">+</text>
<text text-anchor="start" x="17.5" y="-142" font-family="Helvetica,sans-Serif" font-size="10.00">H</text>
<text text-anchor="start" x="4.5" y="-127" font-family="Helvetica,sans-Serif" font-size="10.00">+</text>
<text text-anchor="start" x="17.5" y="-127" font-family="Helvetica,sans-Serif" font-size="10.00">HA</text>
<text text-anchor="start" x="4.5" y="-112" font-family="Helvetica,sans-Serif" font-size="10.00">+</text>
<text text-anchor="start" x="17.5" y="-112" font-family="Helvetica,sans-Serif" font-size="10.00">CB</text>
<text text-anchor="start" x="4.5" y="-97" font-family="Helvetica,sans-Serif" font-size="10.00">+</text>
<text text-anchor="start" x="17.5" y="-97" font-family="Helvetica,sans-Serif" font-size="10.00">NONE</text>
<text text-anchor="start" x="4.5" y="-82" font-family="Helvetica,sans-Serif" font-size="10.00">+</text>
<text text-anchor="start" x="17.5" y="-82" font-family="Helvetica,sans-Serif" font-size="10.00">AminoAcidInfo()</text>
<text text-anchor="start" x="4.5" y="-67" font-family="Helvetica,sans-Serif" font-size="10.00">+</text>
<text text-anchor="start" x="17.5" y="-67" font-family="Helvetica,sans-Serif" font-size="10.00">IsAromatic()</text>
<text text-anchor="start" x="4.5" y="-52" font-family="Helvetica,sans-Serif" font-size="10.00">+</text>
<text text-anchor="start" x="17.5" y="-52" font-family="Helvetica,sans-Serif" font-size="10.00">IsTitratable()</text>
<text text-anchor="start" x="4.5" y="-37" font-family="Helvetica,sans-Serif" font-size="10.00">+</text>
<text text-anchor="start" x="17.5" y="-37" font-family="Helvetica,sans-Serif" font-size="10.00">HasAmideH()</text>
<text text-anchor="start" x="4.5" y="-22" font-family="Helvetica,sans-Serif" font-size="10.00">+</text>
<text text-anchor="start" x="17.5" y="-22" font-family="Helvetica,sans-Serif" font-size="10.00">ChiAngleCount()</text>
<text text-anchor="start" x="4.5" y="-7" font-family="Helvetica,sans-Serif" font-size="10.00">+</text>
<text text-anchor="start" x="17.5" y="-7" font-family="Helvetica,sans-Serif" font-size="10.00">GetSequenceAddress()</text>
<polygon fill="#666666" stroke="#666666" points="0.5,-313 0.5,-313 133.5,-313 133.5,-313 0.5,-313"/>
<polygon fill="#666666" stroke="#666666" points="0.5,-92 0.5,-92 15.5,-92 15.5,-92 0.5,-92"/>
<polygon fill="#666666" stroke="#666666" points="15.5,-92 15.5,-92 133.5,-92 133.5,-92 15.5,-92"/>
<polygon fill="none" stroke="#666666" points="0,0 0,-330 133,-330 133,0 0,0"/>
</a>
</g>
</g>
<!-- Node2 -->
<g id="Node000002" class="node">
<title>Node2</title>
<g id="a_Node000002"><a xlink:href="structnmr_1_1Residue_1_1ChiAtoms.html" target="_top" xlink:title=" ">
<polygon fill="white" stroke="transparent" points="130.5,-426 2.5,-426 2.5,-377 130.5,-377 130.5,-426"/>
<text text-anchor="start" x="7.5" y="-413.5" font-family="Helvetica,sans-Serif" font-size="10.00">nmr::Residue::ChiAtoms</text>
<text text-anchor="start" x="25" y="-398.5" font-family="Helvetica,sans-Serif" font-size="10.00">+</text>
<text text-anchor="start" x="56.5" y="-398.5" font-family="Helvetica,sans-Serif" font-size="10.00">a</text>
<text text-anchor="start" x="25" y="-383.5" font-family="Helvetica,sans-Serif" font-size="10.00">+</text>
<text text-anchor="start" x="56.5" y="-383.5" font-family="Helvetica,sans-Serif" font-size="10.00">Valid()</text>
<polygon fill="#666666" stroke="#666666" points="2.5,-408.5 2.5,-408.5 130.5,-408.5 130.5,-408.5 2.5,-408.5"/>
<polygon fill="#666666" stroke="#666666" points="2.5,-393.5 2.5,-393.5 54.5,-393.5 54.5,-393.5 2.5,-393.5"/>
<polygon fill="#666666" stroke="#666666" points="54.5,-393.5 54.5,-393.5 130.5,-393.5 130.5,-393.5 54.5,-393.5"/>
<polygon fill="none" stroke="#666666" points="2.5,-377 2.5,-426 130.5,-426 130.5,-377 2.5,-377"/>
</a>
</g>
</g>
<!-- Node2&#45;&gt;Node1 -->
<g id="edge1_Node000001_Node000002" class="edge">
<title>Node2&#45;&gt;Node1</title>
<g id="a_edge1_Node000001_Node000002"><a xlink:title=" ">
<path fill="none" stroke="#63b8ff" d="M66.5,-376.72C66.5,-367.27 66.5,-355.53 66.5,-342.45"/>
<polygon fill="none" stroke="#63b8ff" points="66.5,-342.09 62.5,-336.09 66.5,-330.09 70.5,-336.09 66.5,-342.09"/>
</a>
</g>
<text text-anchor="middle" x="79.5" y="-351" font-family="Helvetica,sans-Serif" font-size="10.00" fill="grey"> +chi</text>
</g>
</g>
</svg>
