<?xml version="1.0" encoding="UTF-8" standalone="no"?>
<!DOCTYPE svg PUBLIC "-//W3C//DTD SVG 1.1//EN"
 "http://www.w3.org/Graphics/SVG/1.1/DTD/svg11.dtd">
<!-- Generated by graphviz version 2.43.0 (0)
 -->
<!-- Title: nmr::Protonator Pages: 1 -->
<svg width="308pt" height="277pt"
 viewBox="0.00 0.00 308.00 277.00" xmlns="http://www.w3.org/2000/svg" xmlns:xlink="http://www.w3.org/1999/xlink">
<g id="graph0" class="graph" transform="scale(1 1) rotate(0) translate(4 273)">
<title>nmr::Protonator</title>
<!-- Node1 -->
<g id="Node000001" class="node">
<title>Node1</title>
<g id="a_Node000001"><a xlink:title=" ">
<polygon fill="#999999" stroke="transparent" points="179.5,-269 91.5,-269 91.5,-175 179.5,-175 179.5,-269"/>
<text text-anchor="start" x="97" y="-257" font-family="Helvetica,sans-Serif" font-size="10.00">nmr::Protonator</text>
<text text-anchor="start" x="133.5" y="-242" font-family="Helvetica,sans-Serif" font-size="10.00"> </text>
<text text-anchor="start" x="95.5" y="-227" font-family="Helvetica,sans-Serif" font-size="10.00">+</text>
<text text-anchor="start" x="108.5" y="-227" font-family="Helvetica,sans-Serif" font-size="10.00">~Protonator()</text>
<text text-anchor="start" x="95.5" y="-212" font-family="Helvetica,sans-Serif" font-size="10.00">+</text>
<text text-anchor="start" x="108.5" y="-212" font-family="Helvetica,sans-Serif" font-size="10.00">Protonate()</text>
<text text-anchor="start" x="95.5" y="-197" font-family="Helvetica,sans-Serif" font-size="10.00">+</text>
<text text-anchor="start" x="108.5" y="-197" font-family="Helvetica,sans-Serif" font-size="10.00">ToolName()</text>
<text text-anchor="start" x="95.5" y="-182" font-family="Helvetica,sans-Serif" font-size="10.00">+</text>
<text text-anchor="start" x="108.5" y="-182" font-family="Helvetica,sans-Serif" font-size="10.00">ToolVersion()</text>
<polygon fill="#666666" stroke="#666666" points="91.5,-252 91.5,-252 179.5,-252 179.5,-252 91.5,-252"/>
<polygon fill="#666666" stroke="#666666" points="91.5,-237 91.5,-237 179.5,-237 179.5,-237 91.5,-237"/>
<polygon fill="none" stroke="#666666" points="91.5,-175 91.5,-269 179.5,-269 179.5,-175 91.5,-175"/>
</a>
</g>
</g>
<!-- Node2 -->
<g id="Node000002" class="node">
<title>Node2</title>
<g id="a_Node000002"><a xlink:href="classnmr_1_1KamlProtonator.html" target="_top" xlink:title=" ">
<polygon fill="white" stroke="transparent" points="113,-131.5 0,-131.5 0,-7.5 113,-7.5 113,-131.5"/>
<text text-anchor="start" x="5.5" y="-119.5" font-family="Helvetica,sans-Serif" font-size="10.00">nmr::KamlProtonator</text>
<text text-anchor="start" x="55" y="-104.5" font-family="Helvetica,sans-Serif" font-size="10.00"> </text>
<text text-anchor="start" x="7.5" y="-89.5" font-family="Helvetica,sans-Serif" font-size="10.00">+</text>
<text text-anchor="start" x="23.5" y="-89.5" font-family="Helvetica,sans-Serif" font-size="10.00">Protonate()</text>
<text text-anchor="start" x="7.5" y="-74.5" font-family="Helvetica,sans-Serif" font-size="10.00">+</text>
<text text-anchor="start" x="23.5" y="-74.5" font-family="Helvetica,sans-Serif" font-size="10.00">ToolName()</text>
<text text-anchor="start" x="7.5" y="-59.5" font-family="Helvetica,sans-Serif" font-size="10.00">+</text>
<text text-anchor="start" x="23.5" y="-59.5" font-family="Helvetica,sans-Serif" font-size="10.00">ToolVersion()</text>
<text text-anchor="start" x="7.5" y="-44.5" font-family="Helvetica,sans-Serif" font-size="10.00">+</text>
<text text-anchor="start" x="23.5" y="-44.5" font-family="Helvetica,sans-Serif" font-size="10.00">PredictPka()</text>
<text text-anchor="start" x="10" y="-29.5" font-family="Helvetica,sans-Serif" font-size="10.00">&#45;</text>
<text text-anchor="start" x="23.5" y="-29.5" font-family="Helvetica,sans-Serif" font-size="10.00">WriteTempPdb()</text>
<text text-anchor="start" x="10" y="-14.5" font-family="Helvetica,sans-Serif" font-size="10.00">&#45;</text>
<text text-anchor="start" x="23.5" y="-14.5" font-family="Helvetica,sans-Serif" font-size="10.00">ParsePkaCsv()</text>
<polygon fill="#666666" stroke="#666666" points="0.5,-114.5 0.5,-114.5 113.5,-114.5 113.5,-114.5 0.5,-114.5"/>
<polygon fill="#666666" stroke="#666666" points="0.5,-99.5 0.5,-99.5 113.5,-99.5 113.5,-99.5 0.5,-99.5"/>
<polygon fill="none" stroke="#666666" points="0,-7.5 0,-131.5 113,-131.5 113,-7.5 0,-7.5"/>
</a>
</g>
</g>
<!-- Node1&#45;&gt;Node2 -->
<g id="edge1_Node000001_Node000002" class="edge">
<title>Node1&#45;&gt;Node2</title>
<g id="a_edge1_Node000001_Node000002"><a xlink:title=" ">
<path fill="none" stroke="#63b8ff" d="M106.38,-165.53C100.6,-154.51 94.5,-142.89 88.62,-131.69"/>
<polygon fill="none" stroke="#63b8ff" points="103.41,-167.39 111.15,-174.62 109.6,-164.14 103.41,-167.39"/>
</a>
</g>
</g>
<!-- Node3 -->
<g id="Node000003" class="node">
<title>Node3</title>
<g id="a_Node000003"><a xlink:href="classnmr_1_1PropkaProtonator.html" target="_top" xlink:title=" ">
<polygon fill="white" stroke="transparent" points="300,-139 131,-139 131,0 300,0 300,-139"/>
<text text-anchor="start" x="161" y="-126.5" font-family="Helvetica,sans-Serif" font-size="10.00">nmr::PropkaProtonator</text>
<text text-anchor="start" x="214" y="-111.5" font-family="Helvetica,sans-Serif" font-size="10.00"> </text>
<text text-anchor="start" x="135.5" y="-96.5" font-family="Helvetica,sans-Serif" font-size="10.00">+</text>
<text text-anchor="start" x="148.5" y="-96.5" font-family="Helvetica,sans-Serif" font-size="10.00">Protonate()</text>
<text text-anchor="start" x="135.5" y="-81.5" font-family="Helvetica,sans-Serif" font-size="10.00">+</text>
<text text-anchor="start" x="148.5" y="-81.5" font-family="Helvetica,sans-Serif" font-size="10.00">ToolName()</text>
<text text-anchor="start" x="135.5" y="-66.5" font-family="Helvetica,sans-Serif" font-size="10.00">+</text>
<text text-anchor="start" x="148.5" y="-66.5" font-family="Helvetica,sans-Serif" font-size="10.00">ToolVersion()</text>
<text text-anchor="start" x="135.5" y="-51.5" font-family="Helvetica,sans-Serif" font-size="10.00">+</text>
<text text-anchor="start" x="148.5" y="-51.5" font-family="Helvetica,sans-Serif" font-size="10.00">PredictPka()</text>
<text text-anchor="start" x="138" y="-36.5" font-family="Helvetica,sans-Serif" font-size="10.00">&#45;</text>
<text text-anchor="start" x="148.5" y="-36.5" font-family="Helvetica,sans-Serif" font-size="10.00">WriteTempPdb()</text>
<text text-anchor="start" x="138" y="-21.5" font-family="Helvetica,sans-Serif" font-size="10.00">&#45;</text>
<text text-anchor="start" x="148.5" y="-21.5" font-family="Helvetica,sans-Serif" font-size="10.00">ParsePkaFile()</text>
<text text-anchor="start" x="138" y="-6.5" font-family="Helvetica,sans-Serif" font-size="10.00">&#45;</text>
<text text-anchor="start" x="148.5" y="-6.5" font-family="Helvetica,sans-Serif" font-size="10.00">ApplyHendersonHasselbalch()</text>
<polygon fill="#666666" stroke="#666666" points="131.5,-121.5 131.5,-121.5 300.5,-121.5 300.5,-121.5 131.5,-121.5"/>
<polygon fill="#666666" stroke="#666666" points="131.5,-106.5 131.5,-106.5 300.5,-106.5 300.5,-106.5 131.5,-106.5"/>
<polygon fill="none" stroke="#666666" points="131,0 131,-139 300,-139 300,0 131,0"/>
</a>
</g>
</g>
<!-- Node1&#45;&gt;Node3 -->
<g id="edge2_Node000001_Node000003" class="edge">
<title>Node1&#45;&gt;Node3</title>
<g id="a_edge2_Node000001_Node000003"><a xlink:title=" ">
<path fill="none" stroke="#63b8ff" d="M164.87,-165.75C169.47,-157.09 174.28,-148.05 179.01,-139.14"/>
<polygon fill="none" stroke="#63b8ff" points="161.76,-164.14 160.16,-174.62 167.94,-167.43 161.76,-164.14"/>
</a>
</g>
</g>
</g>
</svg>
