<?xml version="1.0" encoding="UTF-8" standalone="no"?>
<!DOCTYPE svg PUBLIC "-//W3C//DTD SVG 1.1//EN"
 "http://www.w3.org/Graphics/SVG/1.1/DTD/svg11.dtd">
<!-- Generated by graphviz version 2.43.0 (0)
 -->
<!-- Title: nmr::MolecularGraphResult Pages: 1 -->
<svg width="300pt" height="984pt"
 viewBox="0.00 0.00 300.00 984.00" xmlns="http://www.w3.org/2000/svg" xmlns:xlink="http://www.w3.org/1999/xlink">
<g id="graph0" class="graph" transform="scale(1 1) rotate(0) translate(4 980)">
<title>nmr::MolecularGraphResult</title>
<!-- Node1 -->
<g id="Node000001" class="node">
<title>Node1</title>
<g id="a_Node000001"><a xlink:title=" ">
<polygon fill="#999999" stroke="transparent" points="186.5,-79 42.5,-79 42.5,0 186.5,0 186.5,-79"/>
<text text-anchor="start" x="47.5" y="-66.5" font-family="Helvetica,sans-Serif" font-size="10.00">nmr::MolecularGraphResult</text>
<text text-anchor="start" x="112.5" y="-51.5" font-family="Helvetica,sans-Serif" font-size="10.00"> </text>
<text text-anchor="start" x="58" y="-36.5" font-family="Helvetica,sans-Serif" font-size="10.00">+</text>
<text text-anchor="start" x="82.5" y="-36.5" font-family="Helvetica,sans-Serif" font-size="10.00">Name()</text>
<text text-anchor="start" x="58" y="-21.5" font-family="Helvetica,sans-Serif" font-size="10.00">+</text>
<text text-anchor="start" x="82.5" y="-21.5" font-family="Helvetica,sans-Serif" font-size="10.00">Dependencies()</text>
<text text-anchor="start" x="58" y="-6.5" font-family="Helvetica,sans-Serif" font-size="10.00">+</text>
<text text-anchor="start" x="82.5" y="-6.5" font-family="Helvetica,sans-Serif" font-size="10.00">Compute()</text>
<polygon fill="#666666" stroke="#666666" points="42.5,-61.5 42.5,-61.5 186.5,-61.5 186.5,-61.5 42.5,-61.5"/>
<polygon fill="#666666" stroke="#666666" points="42.5,-46.5 42.5,-46.5 186.5,-46.5 186.5,-46.5 42.5,-46.5"/>
<polygon fill="none" stroke="#666666" points="42.5,0 42.5,-79 186.5,-79 186.5,0 42.5,0"/>
</a>
</g>
</g>
<!-- Node2 -->
<g id="Node000002" class="node">
<title>Node2</title>
<g id="a_Node000002"><a xlink:href="classnmr_1_1ConformationResult.html" target="_top" xlink:title=" ">
<polygon fill="white" stroke="transparent" points="135,-422.5 0,-422.5 0,-313.5 135,-313.5 135,-422.5"/>
<text text-anchor="start" x="6" y="-410" font-family="Helvetica,sans-Serif" font-size="10.00">nmr::ConformationResult</text>
<text text-anchor="start" x="66" y="-395" font-family="Helvetica,sans-Serif" font-size="10.00"> </text>
<text text-anchor="start" x="4.5" y="-380" font-family="Helvetica,sans-Serif" font-size="10.00">+</text>
<text text-anchor="start" x="17.5" y="-380" font-family="Helvetica,sans-Serif" font-size="10.00">~ConformationResult()</text>
<text text-anchor="start" x="4.5" y="-365" font-family="Helvetica,sans-Serif" font-size="10.00">+</text>
<text text-anchor="start" x="17.5" y="-365" font-family="Helvetica,sans-Serif" font-size="10.00">Name()</text>
<text text-anchor="start" x="4.5" y="-350" font-family="Helvetica,sans-Serif" font-size="10.00">+</text>
<text text-anchor="start" x="17.5" y="-350" font-family="Helvetica,sans-Serif" font-size="10.00">Dependencies()</text>
<text text-anchor="start" x="4.5" y="-335" font-family="Helvetica,sans-Serif" font-size="10.00">+</text>
<text text-anchor="start" x="17.5" y="-335" font-family="Helvetica,sans-Serif" font-size="10.00">WriteFeatures()</text>
<text text-anchor="start" x="4.5" y="-320" font-family="Helvetica,sans-Serif" font-size="10.00">+</text>
<text text-anchor="start" x="17.5" y="-320" font-family="Helvetica,sans-Serif" font-size="10.00">WriteAllFeatures()</text>
<polygon fill="#666666" stroke="#666666" points="0.5,-405 0.5,-405 135.5,-405 135.5,-405 0.5,-405"/>
<polygon fill="#666666" stroke="#666666" points="0.5,-390 0.5,-390 135.5,-390 135.5,-390 0.5,-390"/>
<polygon fill="none" stroke="#666666" points="0,-313.5 0,-422.5 135,-422.5 135,-313.5 0,-313.5"/>
</a>
</g>
</g>
<!-- Node2&#45;&gt;Node1 -->
<g id="edge1_Node000001_Node000002" class="edge">
<title>Node2&#45;&gt;Node1</title>
<g id="a_edge1_Node000001_Node000002"><a xlink:title=" ">
<path fill="none" stroke="#63b8ff" d="M76.64,-303.5C86.22,-236.96 100.96,-134.58 108.93,-79.23"/>
<polygon fill="none" stroke="#63b8ff" points="73.17,-303.05 75.21,-313.45 80.1,-304.05 73.17,-303.05"/>
</a>
</g>
</g>
<!-- Node3 -->
<g id="Node000003" class="node">
<title>Node3</title>
<g id="a_Node000003"><a xlink:href="classnmr_1_1ProteinConformation.html" target="_top" xlink:title=" ">
<polygon fill="white" stroke="transparent" points="292,-610 153,-610 153,-126 292,-126 292,-610"/>
<text text-anchor="start" x="159.5" y="-598" font-family="Helvetica,sans-Serif" font-size="10.00">nmr::ProteinConformation</text>
<text text-anchor="start" x="157.5" y="-583" font-family="Helvetica,sans-Serif" font-size="10.00">+</text>
<text text-anchor="start" x="170.5" y="-583" font-family="Helvetica,sans-Serif" font-size="10.00">ring_geometries</text>
<text text-anchor="start" x="157.5" y="-568" font-family="Helvetica,sans-Serif" font-size="10.00">+</text>
<text text-anchor="start" x="170.5" y="-568" font-family="Helvetica,sans-Serif" font-size="10.00">ring_pairs</text>
<text text-anchor="start" x="157.5" y="-553" font-family="Helvetica,sans-Serif" font-size="10.00">+</text>
<text text-anchor="start" x="170.5" y="-553" font-family="Helvetica,sans-Serif" font-size="10.00">bond_lengths</text>
<text text-anchor="start" x="157.5" y="-538" font-family="Helvetica,sans-Serif" font-size="10.00">+</text>
<text text-anchor="start" x="170.5" y="-538" font-family="Helvetica,sans-Serif" font-size="10.00">bond_directions</text>
<text text-anchor="start" x="157.5" y="-523" font-family="Helvetica,sans-Serif" font-size="10.00">+</text>
<text text-anchor="start" x="170.5" y="-523" font-family="Helvetica,sans-Serif" font-size="10.00">bond_midpoints</text>
<text text-anchor="start" x="157.5" y="-508" font-family="Helvetica,sans-Serif" font-size="10.00">+</text>
<text text-anchor="start" x="170.5" y="-508" font-family="Helvetica,sans-Serif" font-size="10.00">bounding_min</text>
<text text-anchor="start" x="157.5" y="-493" font-family="Helvetica,sans-Serif" font-size="10.00">+</text>
<text text-anchor="start" x="170.5" y="-493" font-family="Helvetica,sans-Serif" font-size="10.00">bounding_max</text>
<text text-anchor="start" x="157.5" y="-478" font-family="Helvetica,sans-Serif" font-size="10.00">+</text>
<text text-anchor="start" x="170.5" y="-478" font-family="Helvetica,sans-Serif" font-size="10.00">center_of_geometry</text>
<text text-anchor="start" x="157.5" y="-463" font-family="Helvetica,sans-Serif" font-size="10.00">+</text>
<text text-anchor="start" x="170.5" y="-463" font-family="Helvetica,sans-Serif" font-size="10.00">radius_of_gyration</text>
<text text-anchor="start" x="157.5" y="-448" font-family="Helvetica,sans-Serif" font-size="10.00">+</text>
<text text-anchor="start" x="170.5" y="-448" font-family="Helvetica,sans-Serif" font-size="10.00">rings_by_type</text>
<text text-anchor="start" x="157.5" y="-433" font-family="Helvetica,sans-Serif" font-size="10.00">+</text>
<text text-anchor="start" x="170.5" y="-433" font-family="Helvetica,sans-Serif" font-size="10.00">bonds_by_category</text>
<text text-anchor="start" x="157.5" y="-418" font-family="Helvetica,sans-Serif" font-size="10.00">+</text>
<text text-anchor="start" x="170.5" y="-418" font-family="Helvetica,sans-Serif" font-size="10.00">residues_by_type</text>
<text text-anchor="start" x="157.5" y="-403" font-family="Helvetica,sans-Serif" font-size="10.00">+</text>
<text text-anchor="start" x="170.5" y="-403" font-family="Helvetica,sans-Serif" font-size="10.00">geometry_choices</text>
<text text-anchor="start" x="157.5" y="-388" font-family="Helvetica,sans-Serif" font-size="10.00">#</text>
<text text-anchor="start" x="170.5" y="-388" font-family="Helvetica,sans-Serif" font-size="10.00">description_</text>
<text text-anchor="start" x="157.5" y="-373" font-family="Helvetica,sans-Serif" font-size="10.00">#</text>
<text text-anchor="start" x="170.5" y="-373" font-family="Helvetica,sans-Serif" font-size="10.00">positions_</text>
<text text-anchor="start" x="157.5" y="-358" font-family="Helvetica,sans-Serif" font-size="10.00">#</text>
<text text-anchor="start" x="170.5" y="-358" font-family="Helvetica,sans-Serif" font-size="10.00">atoms_</text>
<text text-anchor="start" x="157.5" y="-343" font-family="Helvetica,sans-Serif" font-size="10.00">#</text>
<text text-anchor="start" x="170.5" y="-343" font-family="Helvetica,sans-Serif" font-size="10.00">results_</text>
<text text-anchor="start" x="157.5" y="-328" font-family="Helvetica,sans-Serif" font-size="10.00">+</text>
<text text-anchor="start" x="170.5" y="-328" font-family="Helvetica,sans-Serif" font-size="10.00">ProteinConformation()</text>
<text text-anchor="start" x="157.5" y="-313" font-family="Helvetica,sans-Serif" font-size="10.00">+</text>
<text text-anchor="start" x="170.5" y="-313" font-family="Helvetica,sans-Serif" font-size="10.00">~ProteinConformation()</text>
<text text-anchor="start" x="157.5" y="-298" font-family="Helvetica,sans-Serif" font-size="10.00">+</text>
<text text-anchor="start" x="170.5" y="-298" font-family="Helvetica,sans-Serif" font-size="10.00">ProteinRef()</text>
<text text-anchor="start" x="157.5" y="-283" font-family="Helvetica,sans-Serif" font-size="10.00">+</text>
<text text-anchor="start" x="170.5" y="-283" font-family="Helvetica,sans-Serif" font-size="10.00">Description()</text>
<text text-anchor="start" x="157.5" y="-268" font-family="Helvetica,sans-Serif" font-size="10.00">+</text>
<text text-anchor="start" x="170.5" y="-268" font-family="Helvetica,sans-Serif" font-size="10.00">AtomCount()</text>
<text text-anchor="start" x="157.5" y="-253" font-family="Helvetica,sans-Serif" font-size="10.00">+</text>
<text text-anchor="start" x="170.5" y="-253" font-family="Helvetica,sans-Serif" font-size="10.00">PositionAt()</text>
<text text-anchor="start" x="157.5" y="-238" font-family="Helvetica,sans-Serif" font-size="10.00">+</text>
<text text-anchor="start" x="170.5" y="-238" font-family="Helvetica,sans-Serif" font-size="10.00">Positions()</text>
<text text-anchor="start" x="157.5" y="-223" font-family="Helvetica,sans-Serif" font-size="10.00">+</text>
<text text-anchor="start" x="170.5" y="-223" font-family="Helvetica,sans-Serif" font-size="10.00">AtomAt()</text>
<text text-anchor="start" x="157.5" y="-208" font-family="Helvetica,sans-Serif" font-size="10.00">+</text>
<text text-anchor="start" x="170.5" y="-208" font-family="Helvetica,sans-Serif" font-size="10.00">MutableAtomAt()</text>
<text text-anchor="start" x="157.5" y="-193" font-family="Helvetica,sans-Serif" font-size="10.00">+</text>
<text text-anchor="start" x="170.5" y="-193" font-family="Helvetica,sans-Serif" font-size="10.00">AttachResult()</text>
<text text-anchor="start" x="157.5" y="-178" font-family="Helvetica,sans-Serif" font-size="10.00">+</text>
<text text-anchor="start" x="170.5" y="-178" font-family="Helvetica,sans-Serif" font-size="10.00">Result()</text>
<text text-anchor="start" x="157.5" y="-163" font-family="Helvetica,sans-Serif" font-size="10.00">+</text>
<text text-anchor="start" x="170.5" y="-163" font-family="Helvetica,sans-Serif" font-size="10.00">Result()</text>
<text text-anchor="start" x="157.5" y="-148" font-family="Helvetica,sans-Serif" font-size="10.00">+</text>
<text text-anchor="start" x="170.5" y="-148" font-family="Helvetica,sans-Serif" font-size="10.00">HasResult()</text>
<text text-anchor="start" x="157.5" y="-133" font-family="Helvetica,sans-Serif" font-size="10.00">+</text>
<text text-anchor="start" x="170.5" y="-133" font-family="Helvetica,sans-Serif" font-size="10.00">AllResults()</text>
<polygon fill="#666666" stroke="#666666" points="153.5,-593 153.5,-593 292.5,-593 292.5,-593 153.5,-593"/>
<polygon fill="#666666" stroke="#666666" points="153.5,-338 153.5,-338 168.5,-338 168.5,-338 153.5,-338"/>
<polygon fill="#666666" stroke="#666666" points="168.5,-338 168.5,-338 292.5,-338 292.5,-338 168.5,-338"/>
<polygon fill="none" stroke="#666666" points="153,-126 153,-610 292,-610 292,-126 153,-126"/>
</a>
</g>
</g>
<!-- Node3&#45;&gt;Node1 -->
<g id="edge2_Node000001_Node000003" class="edge">
<title>Node3&#45;&gt;Node1</title>
<g id="a_edge2_Node000001_Node000003"><a xlink:title=" ">
<path fill="none" stroke="#63b8ff" d="M152.91,-151.11C150.09,-142.62 147.28,-134.23 144.5,-126 140.62,-114.48 136.35,-102.13 132.27,-90.5"/>
<polygon fill="none" stroke="#63b8ff" points="132.27,-90.48 126.51,-86.15 128.29,-79.16 134.05,-83.5 132.27,-90.48"/>
</a>
</g>
<text text-anchor="middle" x="154.5" y="-100" font-family="Helvetica,sans-Serif" font-size="10.00" fill="grey"> &#45;conf_</text>
</g>
<!-- Node4 -->
<g id="Node000004" class="node">
<title>Node4</title>
<g id="a_Node000004"><a xlink:href="classnmr_1_1Protein.html" target="_top" xlink:title=" ">
<polygon fill="white" stroke="transparent" points="281,-976 164,-976 164,-657 281,-657 281,-976"/>
<text text-anchor="start" x="192.5" y="-963.5" font-family="Helvetica,sans-Serif" font-size="10.00">nmr::Protein</text>
<text text-anchor="start" x="171" y="-948.5" font-family="Helvetica,sans-Serif" font-size="10.00">&#45;</text>
<text text-anchor="start" x="181.5" y="-948.5" font-family="Helvetica,sans-Serif" font-size="10.00">atoms_</text>
<text text-anchor="start" x="171" y="-933.5" font-family="Helvetica,sans-Serif" font-size="10.00">&#45;</text>
<text text-anchor="start" x="181.5" y="-933.5" font-family="Helvetica,sans-Serif" font-size="10.00">residues_</text>
<text text-anchor="start" x="171" y="-918.5" font-family="Helvetica,sans-Serif" font-size="10.00">&#45;</text>
<text text-anchor="start" x="181.5" y="-918.5" font-family="Helvetica,sans-Serif" font-size="10.00">rings_</text>
<text text-anchor="start" x="171" y="-903.5" font-family="Helvetica,sans-Serif" font-size="10.00">&#45;</text>
<text text-anchor="start" x="181.5" y="-903.5" font-family="Helvetica,sans-Serif" font-size="10.00">topology_</text>
<text text-anchor="start" x="171" y="-888.5" font-family="Helvetica,sans-Serif" font-size="10.00">&#45;</text>
<text text-anchor="start" x="181.5" y="-888.5" font-family="Helvetica,sans-Serif" font-size="10.00">build_context_</text>
<text text-anchor="start" x="171" y="-873.5" font-family="Helvetica,sans-Serif" font-size="10.00">&#45;</text>
<text text-anchor="start" x="181.5" y="-873.5" font-family="Helvetica,sans-Serif" font-size="10.00">conformations_</text>
<text text-anchor="start" x="171" y="-858.5" font-family="Helvetica,sans-Serif" font-size="10.00">&#45;</text>
<text text-anchor="start" x="181.5" y="-858.5" font-family="Helvetica,sans-Serif" font-size="10.00">crystal_index_</text>
<text text-anchor="start" x="171" y="-843.5" font-family="Helvetica,sans-Serif" font-size="10.00">&#45;</text>
<text text-anchor="start" x="181.5" y="-843.5" font-family="Helvetica,sans-Serif" font-size="10.00">prediction_indices_</text>
<text text-anchor="start" x="171" y="-828.5" font-family="Helvetica,sans-Serif" font-size="10.00">&#45;</text>
<text text-anchor="start" x="181.5" y="-828.5" font-family="Helvetica,sans-Serif" font-size="10.00">md_frame_indices_</text>
<text text-anchor="start" x="168.5" y="-813.5" font-family="Helvetica,sans-Serif" font-size="10.00">+</text>
<text text-anchor="start" x="181.5" y="-813.5" font-family="Helvetica,sans-Serif" font-size="10.00">Protein()</text>
<text text-anchor="start" x="168.5" y="-798.5" font-family="Helvetica,sans-Serif" font-size="10.00">+</text>
<text text-anchor="start" x="181.5" y="-798.5" font-family="Helvetica,sans-Serif" font-size="10.00">~Protein()</text>
<text text-anchor="start" x="168.5" y="-783.5" font-family="Helvetica,sans-Serif" font-size="10.00">+</text>
<text text-anchor="start" x="181.5" y="-783.5" font-family="Helvetica,sans-Serif" font-size="10.00">Protein()</text>
<text text-anchor="start" x="168.5" y="-768.5" font-family="Helvetica,sans-Serif" font-size="10.00">+</text>
<text text-anchor="start" x="181.5" y="-768.5" font-family="Helvetica,sans-Serif" font-size="10.00">operator=()</text>
<text text-anchor="start" x="168.5" y="-753.5" font-family="Helvetica,sans-Serif" font-size="10.00">+</text>
<text text-anchor="start" x="181.5" y="-753.5" font-family="Helvetica,sans-Serif" font-size="10.00">Protein()</text>
<text text-anchor="start" x="168.5" y="-738.5" font-family="Helvetica,sans-Serif" font-size="10.00">+</text>
<text text-anchor="start" x="181.5" y="-738.5" font-family="Helvetica,sans-Serif" font-size="10.00">operator=()</text>
<text text-anchor="start" x="168.5" y="-723.5" font-family="Helvetica,sans-Serif" font-size="10.00">+</text>
<text text-anchor="start" x="181.5" y="-723.5" font-family="Helvetica,sans-Serif" font-size="10.00">AtomCount()</text>
<text text-anchor="start" x="168.5" y="-708.5" font-family="Helvetica,sans-Serif" font-size="10.00">+</text>
<text text-anchor="start" x="181.5" y="-708.5" font-family="Helvetica,sans-Serif" font-size="10.00">AtomAt()</text>
<text text-anchor="start" x="168.5" y="-693.5" font-family="Helvetica,sans-Serif" font-size="10.00">+</text>
<text text-anchor="start" x="181.5" y="-693.5" font-family="Helvetica,sans-Serif" font-size="10.00">Atoms()</text>
<text text-anchor="start" x="168.5" y="-678.5" font-family="Helvetica,sans-Serif" font-size="10.00">+</text>
<text text-anchor="start" x="181.5" y="-678.5" font-family="Helvetica,sans-Serif" font-size="10.00">AddAtom()</text>
<text text-anchor="start" x="181.5" y="-663.5" font-family="Helvetica,sans-Serif" font-size="10.00">and 35 more...</text>
<polygon fill="#666666" stroke="#666666" points="164.5,-958.5 164.5,-958.5 281.5,-958.5 281.5,-958.5 164.5,-958.5"/>
<polygon fill="#666666" stroke="#666666" points="164.5,-823.5 164.5,-823.5 179.5,-823.5 179.5,-823.5 164.5,-823.5"/>
<polygon fill="#666666" stroke="#666666" points="179.5,-823.5 179.5,-823.5 281.5,-823.5 281.5,-823.5 179.5,-823.5"/>
<polygon fill="none" stroke="#666666" points="164,-657 164,-976 281,-976 281,-657 164,-657"/>
</a>
</g>
</g>
<!-- Node4&#45;&gt;Node3 -->
<g id="edge3_Node000003_Node000004" class="edge">
<title>Node4&#45;&gt;Node3</title>
<g id="a_edge3_Node000003_Node000004"><a xlink:title=" ">
<path fill="none" stroke="#63b8ff" d="M222.5,-656.82C222.5,-645.57 222.5,-634.07 222.5,-622.47"/>
<polygon fill="none" stroke="#63b8ff" points="222.5,-622.34 218.5,-616.34 222.5,-610.34 226.5,-616.34 222.5,-622.34"/>
</a>
</g>
<text text-anchor="middle" x="248.5" y="-631" font-family="Helvetica,sans-Serif" font-size="10.00" fill="grey"> #protein_</text>
</g>
</g>
</svg>
