<?xml version="1.0" encoding="UTF-8" standalone="no"?>
<!DOCTYPE svg PUBLIC "-//W3C//DTD SVG 1.1//EN"
 "http://www.w3.org/Graphics/SVG/1.1/DTD/svg11.dtd">
<!-- Generated by graphviz version 2.43.0 (0)
 -->
<!-- Title: nmr::ProteinBuildContext Pages: 1 -->
<svg width="142pt" height="222pt"
 viewBox="0.00 0.00 142.00 222.00" xmlns="http://www.w3.org/2000/svg" xmlns:xlink="http://www.w3.org/1999/xlink">
<g id="graph0" class="graph" transform="scale(1 1) rotate(0) translate(4 218)">
<title>nmr::ProteinBuildContext</title>
<!-- Node1 -->
<g id="Node000001" class="node">
<title>Node1</title>
<g id="a_Node000001"><a xlink:title=" ">
<polygon fill="#999999" stroke="transparent" points="134,-214 0,-214 0,0 134,0 134,-214"/>
<text text-anchor="start" x="5" y="-202" font-family="Helvetica,sans-Serif" font-size="10.00">nmr::ProteinBuildContext</text>
<text text-anchor="start" x="10" y="-187" font-family="Helvetica,sans-Serif" font-size="10.00">+</text>
<text text-anchor="start" x="29" y="-187" font-family="Helvetica,sans-Serif" font-size="10.00">pdb_source</text>
<text text-anchor="start" x="10" y="-172" font-family="Helvetica,sans-Serif" font-size="10.00">+</text>
<text text-anchor="start" x="29" y="-172" font-family="Helvetica,sans-Serif" font-size="10.00">deposition_date</text>
<text text-anchor="start" x="10" y="-157" font-family="Helvetica,sans-Serif" font-size="10.00">+</text>
<text text-anchor="start" x="29" y="-157" font-family="Helvetica,sans-Serif" font-size="10.00">organism</text>
<text text-anchor="start" x="10" y="-142" font-family="Helvetica,sans-Serif" font-size="10.00">+</text>
<text text-anchor="start" x="29" y="-142" font-family="Helvetica,sans-Serif" font-size="10.00">crystal_resolution</text>
<text text-anchor="start" x="10" y="-127" font-family="Helvetica,sans-Serif" font-size="10.00">+</text>
<text text-anchor="start" x="29" y="-127" font-family="Helvetica,sans-Serif" font-size="10.00">protonation_tool</text>
<text text-anchor="start" x="10" y="-112" font-family="Helvetica,sans-Serif" font-size="10.00">+</text>
<text text-anchor="start" x="29" y="-112" font-family="Helvetica,sans-Serif" font-size="10.00">protonation_pH</text>
<text text-anchor="start" x="10" y="-97" font-family="Helvetica,sans-Serif" font-size="10.00">+</text>
<text text-anchor="start" x="29" y="-97" font-family="Helvetica,sans-Serif" font-size="10.00">force_field</text>
<text text-anchor="start" x="10" y="-82" font-family="Helvetica,sans-Serif" font-size="10.00">+</text>
<text text-anchor="start" x="29" y="-82" font-family="Helvetica,sans-Serif" font-size="10.00">prmtop_path</text>
<text text-anchor="start" x="10" y="-67" font-family="Helvetica,sans-Serif" font-size="10.00">+</text>
<text text-anchor="start" x="29" y="-67" font-family="Helvetica,sans-Serif" font-size="10.00">tleap_script_path</text>
<text text-anchor="start" x="10" y="-52" font-family="Helvetica,sans-Serif" font-size="10.00">+</text>
<text text-anchor="start" x="29" y="-52" font-family="Helvetica,sans-Serif" font-size="10.00">stripped</text>
<text text-anchor="start" x="10" y="-37" font-family="Helvetica,sans-Serif" font-size="10.00">+</text>
<text text-anchor="start" x="29" y="-37" font-family="Helvetica,sans-Serif" font-size="10.00">assumptions</text>
<text text-anchor="start" x="10" y="-22" font-family="Helvetica,sans-Serif" font-size="10.00">+</text>
<text text-anchor="start" x="29" y="-22" font-family="Helvetica,sans-Serif" font-size="10.00">Clone()</text>
<text text-anchor="start" x="10" y="-7" font-family="Helvetica,sans-Serif" font-size="10.00">+</text>
<text text-anchor="start" x="29" y="-7" font-family="Helvetica,sans-Serif" font-size="10.00">Describe()</text>
<polygon fill="#666666" stroke="#666666" points="0,-197 0,-197 134,-197 134,-197 0,-197"/>
<polygon fill="#666666" stroke="#666666" points="0,-32 0,-32 27,-32 27,-32 0,-32"/>
<polygon fill="#666666" stroke="#666666" points="27,-32 27,-32 134,-32 134,-32 27,-32"/>
<polygon fill="none" stroke="#666666" points="0,0 0,-214 134,-214 134,0 0,0"/>
</a>
</g>
</g>
</g>
</svg>
