<?xml version="1.0" encoding="UTF-8" standalone="no"?>
<!DOCTYPE svg PUBLIC "-//W3C//DTD SVG 1.1//EN"
 "http://www.w3.org/Graphics/SVG/1.1/DTD/svg11.dtd">
<!-- Generated by graphviz version 2.43.0 (0)
 -->
<!-- Title: nmr::ChargeSource Pages: 1 -->
<svg width="657pt" height="262pt"
 viewBox="0.00 0.00 657.00 262.00" xmlns="http://www.w3.org/2000/svg" xmlns:xlink="http://www.w3.org/1999/xlink">
<g id="graph0" class="graph" transform="scale(1 1) rotate(0) translate(4 258)">
<title>nmr::ChargeSource</title>
<!-- Node1 -->
<g id="Node000001" class="node">
<title>Node1</title>
<g id="a_Node000001"><a xlink:title=" ">
<polygon fill="#999999" stroke="transparent" points="378.5,-254 266.5,-254 266.5,-160 378.5,-160 378.5,-254"/>
<text text-anchor="start" x="275.5" y="-242" font-family="Helvetica,sans-Serif" font-size="10.00">nmr::ChargeSource</text>
<text text-anchor="start" x="320.5" y="-227" font-family="Helvetica,sans-Serif" font-size="10.00"> </text>
<text text-anchor="start" x="270.5" y="-212" font-family="Helvetica,sans-Serif" font-size="10.00">+</text>
<text text-anchor="start" x="283.5" y="-212" font-family="Helvetica,sans-Serif" font-size="10.00">~ChargeSource()</text>
<text text-anchor="start" x="270.5" y="-197" font-family="Helvetica,sans-Serif" font-size="10.00">+</text>
<text text-anchor="start" x="283.5" y="-197" font-family="Helvetica,sans-Serif" font-size="10.00">SourceForceField()</text>
<text text-anchor="start" x="270.5" y="-182" font-family="Helvetica,sans-Serif" font-size="10.00">+</text>
<text text-anchor="start" x="283.5" y="-182" font-family="Helvetica,sans-Serif" font-size="10.00">Describe()</text>
<text text-anchor="start" x="270.5" y="-167" font-family="Helvetica,sans-Serif" font-size="10.00">+</text>
<text text-anchor="start" x="283.5" y="-167" font-family="Helvetica,sans-Serif" font-size="10.00">LoadCharges()</text>
<polygon fill="#666666" stroke="#666666" points="266.5,-237 266.5,-237 378.5,-237 378.5,-237 266.5,-237"/>
<polygon fill="#666666" stroke="#666666" points="266.5,-222 266.5,-222 378.5,-222 378.5,-222 266.5,-222"/>
<polygon fill="none" stroke="#666666" points="266.5,-160 266.5,-254 378.5,-254 378.5,-160 266.5,-160"/>
</a>
</g>
</g>
<!-- Node2 -->
<g id="Node000002" class="node">
<title>Node2</title>
<g id="a_Node000002"><a xlink:href="classnmr_1_1GmxTprChargeSource.html" target="_top" xlink:title=" ">
<polygon fill="white" stroke="transparent" points="143,-124 0,-124 0,0 143,0 143,-124"/>
<text text-anchor="start" x="5.5" y="-112" font-family="Helvetica,sans-Serif" font-size="10.00">nmr::GmxTprChargeSource</text>
<text text-anchor="start" x="8.5" y="-97" font-family="Helvetica,sans-Serif" font-size="10.00">&#45;</text>
<text text-anchor="start" x="20.5" y="-97" font-family="Helvetica,sans-Serif" font-size="10.00">gmx_</text>
<text text-anchor="start" x="8.5" y="-82" font-family="Helvetica,sans-Serif" font-size="10.00">&#45;</text>
<text text-anchor="start" x="20.5" y="-82" font-family="Helvetica,sans-Serif" font-size="10.00">tpr_</text>
<text text-anchor="start" x="8.5" y="-67" font-family="Helvetica,sans-Serif" font-size="10.00">&#45;</text>
<text text-anchor="start" x="20.5" y="-67" font-family="Helvetica,sans-Serif" font-size="10.00">ff_</text>
<text text-anchor="start" x="6" y="-52" font-family="Helvetica,sans-Serif" font-size="10.00">+</text>
<text text-anchor="start" x="20.5" y="-52" font-family="Helvetica,sans-Serif" font-size="10.00">GmxTprChargeSource()</text>
<text text-anchor="start" x="6" y="-37" font-family="Helvetica,sans-Serif" font-size="10.00">+</text>
<text text-anchor="start" x="20.5" y="-37" font-family="Helvetica,sans-Serif" font-size="10.00">SourceForceField()</text>
<text text-anchor="start" x="6" y="-22" font-family="Helvetica,sans-Serif" font-size="10.00">+</text>
<text text-anchor="start" x="20.5" y="-22" font-family="Helvetica,sans-Serif" font-size="10.00">Describe()</text>
<text text-anchor="start" x="6" y="-7" font-family="Helvetica,sans-Serif" font-size="10.00">+</text>
<text text-anchor="start" x="20.5" y="-7" font-family="Helvetica,sans-Serif" font-size="10.00">LoadCharges()</text>
<polygon fill="#666666" stroke="#666666" points="0.5,-107 0.5,-107 143.5,-107 143.5,-107 0.5,-107"/>
<polygon fill="#666666" stroke="#666666" points="0.5,-62 0.5,-62 18.5,-62 18.5,-62 0.5,-62"/>
<polygon fill="#666666" stroke="#666666" points="18.5,-62 18.5,-62 143.5,-62 143.5,-62 18.5,-62"/>
<polygon fill="none" stroke="#666666" points="0,0 0,-124 143,-124 143,0 0,0"/>
</a>
</g>
</g>
<!-- Node1&#45;&gt;Node2 -->
<g id="edge1_Node000001_Node000002" class="edge">
<title>Node1&#45;&gt;Node2</title>
<g id="a_edge1_Node000001_Node000002"><a xlink:title=" ">
<path fill="none" stroke="#63b8ff" d="M256.97,-178.04C224.72,-163.37 185.73,-144.26 152.5,-124 149.49,-122.17 146.46,-120.25 143.43,-118.27"/>
<polygon fill="none" stroke="#63b8ff" points="255.76,-181.33 266.32,-182.25 258.64,-174.95 255.76,-181.33"/>
</a>
</g>
</g>
<!-- Node3 -->
<g id="Node000003" class="node">
<title>Node3</title>
<g id="a_Node000003"><a xlink:href="classnmr_1_1ParamFileChargeSource.html" target="_top" xlink:title=" ">
<polygon fill="white" stroke="transparent" points="313.5,-109 161.5,-109 161.5,-15 313.5,-15 313.5,-109"/>
<text text-anchor="start" x="166.5" y="-97" font-family="Helvetica,sans-Serif" font-size="10.00">nmr::ParamFileChargeSource</text>
<text text-anchor="start" x="169.5" y="-82" font-family="Helvetica,sans-Serif" font-size="10.00">&#45;</text>
<text text-anchor="start" x="181.5" y="-82" font-family="Helvetica,sans-Serif" font-size="10.00">path_</text>
<text text-anchor="start" x="167" y="-67" font-family="Helvetica,sans-Serif" font-size="10.00">+</text>
<text text-anchor="start" x="181.5" y="-67" font-family="Helvetica,sans-Serif" font-size="10.00">ParamFileChargeSource()</text>
<text text-anchor="start" x="167" y="-52" font-family="Helvetica,sans-Serif" font-size="10.00">+</text>
<text text-anchor="start" x="181.5" y="-52" font-family="Helvetica,sans-Serif" font-size="10.00">SourceForceField()</text>
<text text-anchor="start" x="167" y="-37" font-family="Helvetica,sans-Serif" font-size="10.00">+</text>
<text text-anchor="start" x="181.5" y="-37" font-family="Helvetica,sans-Serif" font-size="10.00">Describe()</text>
<text text-anchor="start" x="167" y="-22" font-family="Helvetica,sans-Serif" font-size="10.00">+</text>
<text text-anchor="start" x="181.5" y="-22" font-family="Helvetica,sans-Serif" font-size="10.00">LoadCharges()</text>
<polygon fill="#666666" stroke="#666666" points="161.5,-92 161.5,-92 313.5,-92 313.5,-92 161.5,-92"/>
<polygon fill="#666666" stroke="#666666" points="161.5,-77 161.5,-77 179.5,-77 179.5,-77 161.5,-77"/>
<polygon fill="#666666" stroke="#666666" points="179.5,-77 179.5,-77 313.5,-77 313.5,-77 179.5,-77"/>
<polygon fill="none" stroke="#666666" points="161.5,-15 161.5,-109 313.5,-109 313.5,-15 161.5,-15"/>
</a>
</g>
</g>
<!-- Node1&#45;&gt;Node3 -->
<g id="edge2_Node000001_Node000003" class="edge">
<title>Node1&#45;&gt;Node3</title>
<g id="a_edge2_Node000001_Node000003"><a xlink:title=" ">
<path fill="none" stroke="#63b8ff" d="M289.86,-151.08C281.69,-137.34 273,-122.73 265.1,-109.44"/>
<polygon fill="none" stroke="#63b8ff" points="287.02,-153.16 295.14,-159.97 293.04,-149.58 287.02,-153.16"/>
</a>
</g>
</g>
<!-- Node4 -->
<g id="Node000004" class="node">
<title>Node4</title>
<g id="a_Node000004"><a xlink:href="classnmr_1_1PreloadedChargeSource.html" target="_top" xlink:title=" ">
<polygon fill="white" stroke="transparent" points="483.5,-116.5 331.5,-116.5 331.5,-7.5 483.5,-7.5 483.5,-116.5"/>
<text text-anchor="start" x="336.5" y="-104" font-family="Helvetica,sans-Serif" font-size="10.00">nmr::PreloadedChargeSource</text>
<text text-anchor="start" x="339.5" y="-89" font-family="Helvetica,sans-Serif" font-size="10.00">&#45;</text>
<text text-anchor="start" x="351.5" y="-89" font-family="Helvetica,sans-Serif" font-size="10.00">charges_</text>
<text text-anchor="start" x="339.5" y="-74" font-family="Helvetica,sans-Serif" font-size="10.00">&#45;</text>
<text text-anchor="start" x="351.5" y="-74" font-family="Helvetica,sans-Serif" font-size="10.00">ff_</text>
<text text-anchor="start" x="337" y="-59" font-family="Helvetica,sans-Serif" font-size="10.00">+</text>
<text text-anchor="start" x="351.5" y="-59" font-family="Helvetica,sans-Serif" font-size="10.00">PreloadedChargeSource()</text>
<text text-anchor="start" x="337" y="-44" font-family="Helvetica,sans-Serif" font-size="10.00">+</text>
<text text-anchor="start" x="351.5" y="-44" font-family="Helvetica,sans-Serif" font-size="10.00">SourceForceField()</text>
<text text-anchor="start" x="337" y="-29" font-family="Helvetica,sans-Serif" font-size="10.00">+</text>
<text text-anchor="start" x="351.5" y="-29" font-family="Helvetica,sans-Serif" font-size="10.00">Describe()</text>
<text text-anchor="start" x="337" y="-14" font-family="Helvetica,sans-Serif" font-size="10.00">+</text>
<text text-anchor="start" x="351.5" y="-14" font-family="Helvetica,sans-Serif" font-size="10.00">LoadCharges()</text>
<polygon fill="#666666" stroke="#666666" points="331.5,-99 331.5,-99 483.5,-99 483.5,-99 331.5,-99"/>
<polygon fill="#666666" stroke="#666666" points="331.5,-69 331.5,-69 349.5,-69 349.5,-69 331.5,-69"/>
<polygon fill="#666666" stroke="#666666" points="349.5,-69 349.5,-69 483.5,-69 483.5,-69 349.5,-69"/>
<polygon fill="none" stroke="#666666" points="331.5,-7.5 331.5,-116.5 483.5,-116.5 483.5,-7.5 331.5,-7.5"/>
</a>
</g>
</g>
<!-- Node1&#45;&gt;Node4 -->
<g id="edge3_Node000001_Node000004" class="edge">
<title>Node1&#45;&gt;Node4</title>
<g id="a_edge3_Node000001_Node000004"><a xlink:title=" ">
<path fill="none" stroke="#63b8ff" d="M355.15,-151.06C361.86,-139.78 368.92,-127.91 375.6,-116.67"/>
<polygon fill="none" stroke="#63b8ff" points="351.96,-149.58 349.86,-159.97 357.98,-153.16 351.96,-149.58"/>
</a>
</g>
</g>
<!-- Node5 -->
<g id="Node000005" class="node">
<title>Node5</title>
<g id="a_Node000005"><a xlink:href="classnmr_1_1PrmtopChargeSource.html" target="_top" xlink:title=" ">
<polygon fill="white" stroke="transparent" points="649,-124 502,-124 502,0 649,0 649,-124"/>
<text text-anchor="start" x="511.5" y="-112" font-family="Helvetica,sans-Serif" font-size="10.00">nmr::PrmtopChargeSource</text>
<text text-anchor="start" x="509" y="-97" font-family="Helvetica,sans-Serif" font-size="10.00">&#45;</text>
<text text-anchor="start" x="519.5" y="-97" font-family="Helvetica,sans-Serif" font-size="10.00">path_</text>
<text text-anchor="start" x="509" y="-82" font-family="Helvetica,sans-Serif" font-size="10.00">&#45;</text>
<text text-anchor="start" x="519.5" y="-82" font-family="Helvetica,sans-Serif" font-size="10.00">ff_</text>
<text text-anchor="start" x="509" y="-67" font-family="Helvetica,sans-Serif" font-size="10.00">&#45;</text>
<text text-anchor="start" x="519.5" y="-67" font-family="Helvetica,sans-Serif" font-size="10.00">AMBER_CHARGE_FACTOR</text>
<text text-anchor="start" x="506.5" y="-52" font-family="Helvetica,sans-Serif" font-size="10.00">+</text>
<text text-anchor="start" x="519.5" y="-52" font-family="Helvetica,sans-Serif" font-size="10.00">PrmtopChargeSource()</text>
<text text-anchor="start" x="506.5" y="-37" font-family="Helvetica,sans-Serif" font-size="10.00">+</text>
<text text-anchor="start" x="519.5" y="-37" font-family="Helvetica,sans-Serif" font-size="10.00">SourceForceField()</text>
<text text-anchor="start" x="506.5" y="-22" font-family="Helvetica,sans-Serif" font-size="10.00">+</text>
<text text-anchor="start" x="519.5" y="-22" font-family="Helvetica,sans-Serif" font-size="10.00">Describe()</text>
<text text-anchor="start" x="506.5" y="-7" font-family="Helvetica,sans-Serif" font-size="10.00">+</text>
<text text-anchor="start" x="519.5" y="-7" font-family="Helvetica,sans-Serif" font-size="10.00">LoadCharges()</text>
<polygon fill="#666666" stroke="#666666" points="502.5,-107 502.5,-107 649.5,-107 649.5,-107 502.5,-107"/>
<polygon fill="#666666" stroke="#666666" points="502.5,-62 502.5,-62 517.5,-62 517.5,-62 502.5,-62"/>
<polygon fill="#666666" stroke="#666666" points="517.5,-62 517.5,-62 649.5,-62 649.5,-62 517.5,-62"/>
<polygon fill="none" stroke="#666666" points="502,0 502,-124 649,-124 649,0 502,0"/>
</a>
</g>
</g>
<!-- Node1&#45;&gt;Node5 -->
<g id="edge4_Node000001_Node000005" class="edge">
<title>Node1&#45;&gt;Node5</title>
<g id="a_edge4_Node000001_Node000005"><a xlink:title=" ">
<path fill="none" stroke="#63b8ff" d="M387.93,-177.87C420.15,-163.16 459.15,-144.06 492.5,-124 495.56,-122.16 498.66,-120.23 501.75,-118.24"/>
<polygon fill="none" stroke="#63b8ff" points="386.26,-174.78 378.59,-182.09 389.15,-181.16 386.26,-174.78"/>
</a>
</g>
</g>
</g>
</svg>
