<?xml version="1.0" encoding="UTF-8" standalone="no"?>
<!DOCTYPE svg PUBLIC "-//W3C//DTD SVG 1.1//EN"
 "http://www.w3.org/Graphics/SVG/1.1/DTD/svg11.dtd">
<!-- Generated by graphviz version 2.43.0 (0)
 -->
<!-- Title: nmr::ProteinConformation Pages: 1 -->
<svg width="643pt" height="727pt"
 viewBox="0.00 0.00 642.50 727.00" xmlns="http://www.w3.org/2000/svg" xmlns:xlink="http://www.w3.org/1999/xlink">
<g id="graph0" class="graph" transform="scale(1 1) rotate(0) translate(4 723)">
<title>nmr::ProteinConformation</title>
<!-- Node1 -->
<g id="Node000001" class="node">
<title>Node1</title>
<g id="a_Node000001"><a xlink:title=" ">
<polygon fill="#999999" stroke="transparent" points="377,-719 238,-719 238,-220 377,-220 377,-719"/>
<text text-anchor="start" x="244.5" y="-706.5" font-family="Helvetica,sans-Serif" font-size="10.00">nmr::ProteinConformation</text>
<text text-anchor="start" x="242.5" y="-691.5" font-family="Helvetica,sans-Serif" font-size="10.00">+</text>
<text text-anchor="start" x="255.5" y="-691.5" font-family="Helvetica,sans-Serif" font-size="10.00">ring_geometries</text>
<text text-anchor="start" x="242.5" y="-676.5" font-family="Helvetica,sans-Serif" font-size="10.00">+</text>
<text text-anchor="start" x="255.5" y="-676.5" font-family="Helvetica,sans-Serif" font-size="10.00">ring_pairs</text>
<text text-anchor="start" x="242.5" y="-661.5" font-family="Helvetica,sans-Serif" font-size="10.00">+</text>
<text text-anchor="start" x="255.5" y="-661.5" font-family="Helvetica,sans-Serif" font-size="10.00">bond_lengths</text>
<text text-anchor="start" x="242.5" y="-646.5" font-family="Helvetica,sans-Serif" font-size="10.00">+</text>
<text text-anchor="start" x="255.5" y="-646.5" font-family="Helvetica,sans-Serif" font-size="10.00">bond_directions</text>
<text text-anchor="start" x="242.5" y="-631.5" font-family="Helvetica,sans-Serif" font-size="10.00">+</text>
<text text-anchor="start" x="255.5" y="-631.5" font-family="Helvetica,sans-Serif" font-size="10.00">bond_midpoints</text>
<text text-anchor="start" x="242.5" y="-616.5" font-family="Helvetica,sans-Serif" font-size="10.00">+</text>
<text text-anchor="start" x="255.5" y="-616.5" font-family="Helvetica,sans-Serif" font-size="10.00">bounding_min</text>
<text text-anchor="start" x="242.5" y="-601.5" font-family="Helvetica,sans-Serif" font-size="10.00">+</text>
<text text-anchor="start" x="255.5" y="-601.5" font-family="Helvetica,sans-Serif" font-size="10.00">bounding_max</text>
<text text-anchor="start" x="242.5" y="-586.5" font-family="Helvetica,sans-Serif" font-size="10.00">+</text>
<text text-anchor="start" x="255.5" y="-586.5" font-family="Helvetica,sans-Serif" font-size="10.00">center_of_geometry</text>
<text text-anchor="start" x="242.5" y="-571.5" font-family="Helvetica,sans-Serif" font-size="10.00">+</text>
<text text-anchor="start" x="255.5" y="-571.5" font-family="Helvetica,sans-Serif" font-size="10.00">radius_of_gyration</text>
<text text-anchor="start" x="242.5" y="-556.5" font-family="Helvetica,sans-Serif" font-size="10.00">+</text>
<text text-anchor="start" x="255.5" y="-556.5" font-family="Helvetica,sans-Serif" font-size="10.00">rings_by_type</text>
<text text-anchor="start" x="242.5" y="-541.5" font-family="Helvetica,sans-Serif" font-size="10.00">+</text>
<text text-anchor="start" x="255.5" y="-541.5" font-family="Helvetica,sans-Serif" font-size="10.00">bonds_by_category</text>
<text text-anchor="start" x="242.5" y="-526.5" font-family="Helvetica,sans-Serif" font-size="10.00">+</text>
<text text-anchor="start" x="255.5" y="-526.5" font-family="Helvetica,sans-Serif" font-size="10.00">residues_by_type</text>
<text text-anchor="start" x="242.5" y="-511.5" font-family="Helvetica,sans-Serif" font-size="10.00">+</text>
<text text-anchor="start" x="255.5" y="-511.5" font-family="Helvetica,sans-Serif" font-size="10.00">geometry_choices</text>
<text text-anchor="start" x="242.5" y="-496.5" font-family="Helvetica,sans-Serif" font-size="10.00">#</text>
<text text-anchor="start" x="255.5" y="-496.5" font-family="Helvetica,sans-Serif" font-size="10.00">protein_</text>
<text text-anchor="start" x="242.5" y="-481.5" font-family="Helvetica,sans-Serif" font-size="10.00">#</text>
<text text-anchor="start" x="255.5" y="-481.5" font-family="Helvetica,sans-Serif" font-size="10.00">description_</text>
<text text-anchor="start" x="242.5" y="-466.5" font-family="Helvetica,sans-Serif" font-size="10.00">#</text>
<text text-anchor="start" x="255.5" y="-466.5" font-family="Helvetica,sans-Serif" font-size="10.00">positions_</text>
<text text-anchor="start" x="242.5" y="-451.5" font-family="Helvetica,sans-Serif" font-size="10.00">#</text>
<text text-anchor="start" x="255.5" y="-451.5" font-family="Helvetica,sans-Serif" font-size="10.00">atoms_</text>
<text text-anchor="start" x="242.5" y="-436.5" font-family="Helvetica,sans-Serif" font-size="10.00">#</text>
<text text-anchor="start" x="255.5" y="-436.5" font-family="Helvetica,sans-Serif" font-size="10.00">results_</text>
<text text-anchor="start" x="242.5" y="-421.5" font-family="Helvetica,sans-Serif" font-size="10.00">+</text>
<text text-anchor="start" x="255.5" y="-421.5" font-family="Helvetica,sans-Serif" font-size="10.00">ProteinConformation()</text>
<text text-anchor="start" x="242.5" y="-406.5" font-family="Helvetica,sans-Serif" font-size="10.00">+</text>
<text text-anchor="start" x="255.5" y="-406.5" font-family="Helvetica,sans-Serif" font-size="10.00">~ProteinConformation()</text>
<text text-anchor="start" x="242.5" y="-391.5" font-family="Helvetica,sans-Serif" font-size="10.00">+</text>
<text text-anchor="start" x="255.5" y="-391.5" font-family="Helvetica,sans-Serif" font-size="10.00">ProteinRef()</text>
<text text-anchor="start" x="242.5" y="-376.5" font-family="Helvetica,sans-Serif" font-size="10.00">+</text>
<text text-anchor="start" x="255.5" y="-376.5" font-family="Helvetica,sans-Serif" font-size="10.00">Description()</text>
<text text-anchor="start" x="242.5" y="-361.5" font-family="Helvetica,sans-Serif" font-size="10.00">+</text>
<text text-anchor="start" x="255.5" y="-361.5" font-family="Helvetica,sans-Serif" font-size="10.00">AtomCount()</text>
<text text-anchor="start" x="242.5" y="-346.5" font-family="Helvetica,sans-Serif" font-size="10.00">+</text>
<text text-anchor="start" x="255.5" y="-346.5" font-family="Helvetica,sans-Serif" font-size="10.00">PositionAt()</text>
<text text-anchor="start" x="242.5" y="-331.5" font-family="Helvetica,sans-Serif" font-size="10.00">+</text>
<text text-anchor="start" x="255.5" y="-331.5" font-family="Helvetica,sans-Serif" font-size="10.00">Positions()</text>
<text text-anchor="start" x="242.5" y="-316.5" font-family="Helvetica,sans-Serif" font-size="10.00">+</text>
<text text-anchor="start" x="255.5" y="-316.5" font-family="Helvetica,sans-Serif" font-size="10.00">AtomAt()</text>
<text text-anchor="start" x="242.5" y="-301.5" font-family="Helvetica,sans-Serif" font-size="10.00">+</text>
<text text-anchor="start" x="255.5" y="-301.5" font-family="Helvetica,sans-Serif" font-size="10.00">MutableAtomAt()</text>
<text text-anchor="start" x="242.5" y="-286.5" font-family="Helvetica,sans-Serif" font-size="10.00">+</text>
<text text-anchor="start" x="255.5" y="-286.5" font-family="Helvetica,sans-Serif" font-size="10.00">AttachResult()</text>
<text text-anchor="start" x="242.5" y="-271.5" font-family="Helvetica,sans-Serif" font-size="10.00">+</text>
<text text-anchor="start" x="255.5" y="-271.5" font-family="Helvetica,sans-Serif" font-size="10.00">Result()</text>
<text text-anchor="start" x="242.5" y="-256.5" font-family="Helvetica,sans-Serif" font-size="10.00">+</text>
<text text-anchor="start" x="255.5" y="-256.5" font-family="Helvetica,sans-Serif" font-size="10.00">Result()</text>
<text text-anchor="start" x="242.5" y="-241.5" font-family="Helvetica,sans-Serif" font-size="10.00">+</text>
<text text-anchor="start" x="255.5" y="-241.5" font-family="Helvetica,sans-Serif" font-size="10.00">HasResult()</text>
<text text-anchor="start" x="242.5" y="-226.5" font-family="Helvetica,sans-Serif" font-size="10.00">+</text>
<text text-anchor="start" x="255.5" y="-226.5" font-family="Helvetica,sans-Serif" font-size="10.00">AllResults()</text>
<polygon fill="#666666" stroke="#666666" points="238.5,-701.5 238.5,-701.5 377.5,-701.5 377.5,-701.5 238.5,-701.5"/>
<polygon fill="#666666" stroke="#666666" points="238.5,-431.5 238.5,-431.5 253.5,-431.5 253.5,-431.5 238.5,-431.5"/>
<polygon fill="#666666" stroke="#666666" points="253.5,-431.5 253.5,-431.5 377.5,-431.5 377.5,-431.5 253.5,-431.5"/>
<polygon fill="none" stroke="#666666" points="238,-220 238,-719 377,-719 377,-220 238,-220"/>
</a>
</g>
</g>
<!-- Node2 -->
<g id="Node000002" class="node">
<title>Node2</title>
<g id="a_Node000002"><a xlink:href="classnmr_1_1CrystalConformation.html" target="_top" xlink:title=" ">
<polygon fill="white" stroke="transparent" points="137,-169 0,-169 0,-15 137,-15 137,-169"/>
<text text-anchor="start" x="5.5" y="-157" font-family="Helvetica,sans-Serif" font-size="10.00">nmr::CrystalConformation</text>
<text text-anchor="start" x="8" y="-142" font-family="Helvetica,sans-Serif" font-size="10.00">&#45;</text>
<text text-anchor="start" x="19.5" y="-142" font-family="Helvetica,sans-Serif" font-size="10.00">resolution_angstroms_</text>
<text text-anchor="start" x="8" y="-127" font-family="Helvetica,sans-Serif" font-size="10.00">&#45;</text>
<text text-anchor="start" x="19.5" y="-127" font-family="Helvetica,sans-Serif" font-size="10.00">r_factor_</text>
<text text-anchor="start" x="8" y="-112" font-family="Helvetica,sans-Serif" font-size="10.00">&#45;</text>
<text text-anchor="start" x="19.5" y="-112" font-family="Helvetica,sans-Serif" font-size="10.00">temperature_kelvin_</text>
<text text-anchor="start" x="8" y="-97" font-family="Helvetica,sans-Serif" font-size="10.00">&#45;</text>
<text text-anchor="start" x="19.5" y="-97" font-family="Helvetica,sans-Serif" font-size="10.00">pdb_id_</text>
<text text-anchor="start" x="5.5" y="-82" font-family="Helvetica,sans-Serif" font-size="10.00">+</text>
<text text-anchor="start" x="19.5" y="-82" font-family="Helvetica,sans-Serif" font-size="10.00">CrystalConformation()</text>
<text text-anchor="start" x="5.5" y="-67" font-family="Helvetica,sans-Serif" font-size="10.00">+</text>
<text text-anchor="start" x="19.5" y="-67" font-family="Helvetica,sans-Serif" font-size="10.00">ResolutionAngstroms()</text>
<text text-anchor="start" x="5.5" y="-52" font-family="Helvetica,sans-Serif" font-size="10.00">+</text>
<text text-anchor="start" x="19.5" y="-52" font-family="Helvetica,sans-Serif" font-size="10.00">RFactor()</text>
<text text-anchor="start" x="5.5" y="-37" font-family="Helvetica,sans-Serif" font-size="10.00">+</text>
<text text-anchor="start" x="19.5" y="-37" font-family="Helvetica,sans-Serif" font-size="10.00">TemperatureKelvin()</text>
<text text-anchor="start" x="5.5" y="-22" font-family="Helvetica,sans-Serif" font-size="10.00">+</text>
<text text-anchor="start" x="19.5" y="-22" font-family="Helvetica,sans-Serif" font-size="10.00">PdbId()</text>
<polygon fill="#666666" stroke="#666666" points="0.5,-152 0.5,-152 137.5,-152 137.5,-152 0.5,-152"/>
<polygon fill="#666666" stroke="#666666" points="0.5,-92 0.5,-92 17.5,-92 17.5,-92 0.5,-92"/>
<polygon fill="#666666" stroke="#666666" points="17.5,-92 17.5,-92 137.5,-92 137.5,-92 17.5,-92"/>
<polygon fill="none" stroke="#666666" points="0,-15 0,-169 137,-169 137,-15 0,-15"/>
</a>
</g>
</g>
<!-- Node1&#45;&gt;Node2 -->
<g id="edge1_Node000001_Node000002" class="edge">
<title>Node1&#45;&gt;Node2</title>
<g id="a_edge1_Node000001_Node000002"><a xlink:title=" ">
<path fill="none" stroke="#63b8ff" d="M232.38,-350.48C194.69,-291.26 150.13,-221.25 117,-169.19"/>
<polygon fill="none" stroke="#63b8ff" points="229.57,-352.58 237.89,-359.13 235.47,-348.82 229.57,-352.58"/>
</a>
</g>
</g>
<!-- Node3 -->
<g id="Node000003" class="node">
<title>Node3</title>
<g id="a_Node000003"><a xlink:href="classnmr_1_1DerivedConformation.html" target="_top" xlink:title=" ">
<polygon fill="white" stroke="transparent" points="296,-124 155,-124 155,-60 296,-60 296,-124"/>
<text text-anchor="start" x="160.5" y="-112" font-family="Helvetica,sans-Serif" font-size="10.00">nmr::DerivedConformation</text>
<text text-anchor="start" x="163" y="-97" font-family="Helvetica,sans-Serif" font-size="10.00">&#45;</text>
<text text-anchor="start" x="174.5" y="-97" font-family="Helvetica,sans-Serif" font-size="10.00">derivation_description_</text>
<text text-anchor="start" x="160.5" y="-82" font-family="Helvetica,sans-Serif" font-size="10.00">+</text>
<text text-anchor="start" x="174.5" y="-82" font-family="Helvetica,sans-Serif" font-size="10.00">DerivedConformation()</text>
<text text-anchor="start" x="160.5" y="-67" font-family="Helvetica,sans-Serif" font-size="10.00">+</text>
<text text-anchor="start" x="174.5" y="-67" font-family="Helvetica,sans-Serif" font-size="10.00">DerivationDescription()</text>
<polygon fill="#666666" stroke="#666666" points="155.5,-107 155.5,-107 296.5,-107 296.5,-107 155.5,-107"/>
<polygon fill="#666666" stroke="#666666" points="155.5,-92 155.5,-92 172.5,-92 172.5,-92 155.5,-92"/>
<polygon fill="#666666" stroke="#666666" points="172.5,-92 172.5,-92 296.5,-92 296.5,-92 172.5,-92"/>
<polygon fill="none" stroke="#666666" points="155,-60 155,-124 296,-124 296,-60 155,-60"/>
</a>
</g>
</g>
<!-- Node1&#45;&gt;Node3 -->
<g id="edge2_Node000001_Node000003" class="edge">
<title>Node1&#45;&gt;Node3</title>
<g id="a_edge2_Node000001_Node000003"><a xlink:title=" ">
<path fill="none" stroke="#63b8ff" d="M250.98,-209.69C243.55,-175.66 236.92,-145.28 232.28,-124.06"/>
<polygon fill="none" stroke="#63b8ff" points="247.65,-210.84 253.2,-219.87 254.49,-209.35 247.65,-210.84"/>
</a>
</g>
</g>
<!-- Node4 -->
<g id="Node000004" class="node">
<title>Node4</title>
<g id="a_Node000004"><a xlink:href="classnmr_1_1MDFrameConformation.html" target="_top" xlink:title=" ">
<polygon fill="white" stroke="transparent" points="464.5,-184 314.5,-184 314.5,0 464.5,0 464.5,-184"/>
<text text-anchor="start" x="319.5" y="-172" font-family="Helvetica,sans-Serif" font-size="10.00">nmr::MDFrameConformation</text>
<text text-anchor="start" x="322.5" y="-157" font-family="Helvetica,sans-Serif" font-size="10.00">&#45;</text>
<text text-anchor="start" x="334.5" y="-157" font-family="Helvetica,sans-Serif" font-size="10.00">walker_</text>
<text text-anchor="start" x="322.5" y="-142" font-family="Helvetica,sans-Serif" font-size="10.00">&#45;</text>
<text text-anchor="start" x="334.5" y="-142" font-family="Helvetica,sans-Serif" font-size="10.00">time_ps_</text>
<text text-anchor="start" x="322.5" y="-127" font-family="Helvetica,sans-Serif" font-size="10.00">&#45;</text>
<text text-anchor="start" x="334.5" y="-127" font-family="Helvetica,sans-Serif" font-size="10.00">weight_</text>
<text text-anchor="start" x="322.5" y="-112" font-family="Helvetica,sans-Serif" font-size="10.00">&#45;</text>
<text text-anchor="start" x="334.5" y="-112" font-family="Helvetica,sans-Serif" font-size="10.00">rmsd_nm_</text>
<text text-anchor="start" x="322.5" y="-97" font-family="Helvetica,sans-Serif" font-size="10.00">&#45;</text>
<text text-anchor="start" x="334.5" y="-97" font-family="Helvetica,sans-Serif" font-size="10.00">rg_nm_</text>
<text text-anchor="start" x="320" y="-82" font-family="Helvetica,sans-Serif" font-size="10.00">+</text>
<text text-anchor="start" x="334.5" y="-82" font-family="Helvetica,sans-Serif" font-size="10.00">MDFrameConformation()</text>
<text text-anchor="start" x="320" y="-67" font-family="Helvetica,sans-Serif" font-size="10.00">+</text>
<text text-anchor="start" x="334.5" y="-67" font-family="Helvetica,sans-Serif" font-size="10.00">Walker()</text>
<text text-anchor="start" x="320" y="-52" font-family="Helvetica,sans-Serif" font-size="10.00">+</text>
<text text-anchor="start" x="334.5" y="-52" font-family="Helvetica,sans-Serif" font-size="10.00">TimePicoseconds()</text>
<text text-anchor="start" x="320" y="-37" font-family="Helvetica,sans-Serif" font-size="10.00">+</text>
<text text-anchor="start" x="334.5" y="-37" font-family="Helvetica,sans-Serif" font-size="10.00">BoltzmannWeight()</text>
<text text-anchor="start" x="320" y="-22" font-family="Helvetica,sans-Serif" font-size="10.00">+</text>
<text text-anchor="start" x="334.5" y="-22" font-family="Helvetica,sans-Serif" font-size="10.00">RmsdNanometres()</text>
<text text-anchor="start" x="320" y="-7" font-family="Helvetica,sans-Serif" font-size="10.00">+</text>
<text text-anchor="start" x="334.5" y="-7" font-family="Helvetica,sans-Serif" font-size="10.00">RadiusOfGyrationNm()</text>
<polygon fill="#666666" stroke="#666666" points="314.5,-167 314.5,-167 464.5,-167 464.5,-167 314.5,-167"/>
<polygon fill="#666666" stroke="#666666" points="314.5,-92 314.5,-92 332.5,-92 332.5,-92 314.5,-92"/>
<polygon fill="#666666" stroke="#666666" points="332.5,-92 332.5,-92 464.5,-92 464.5,-92 332.5,-92"/>
<polygon fill="none" stroke="#666666" points="314.5,0 314.5,-184 464.5,-184 464.5,0 314.5,0"/>
</a>
</g>
</g>
<!-- Node1&#45;&gt;Node4 -->
<g id="edge3_Node000001_Node000004" class="edge">
<title>Node1&#45;&gt;Node4</title>
<g id="a_edge3_Node000001_Node000004"><a xlink:title=" ">
<path fill="none" stroke="#63b8ff" d="M363.93,-210.08C365.88,-201.15 367.78,-192.47 369.6,-184.14"/>
<polygon fill="none" stroke="#63b8ff" points="360.51,-209.35 361.8,-219.87 367.35,-210.84 360.51,-209.35"/>
</a>
</g>
</g>
<!-- Node5 -->
<g id="Node000005" class="node">
<title>Node5</title>
<g id="a_Node000005"><a xlink:href="classnmr_1_1PredictionConformation.html" target="_top" xlink:title=" ">
<polygon fill="white" stroke="transparent" points="634.5,-139 482.5,-139 482.5,-45 634.5,-45 634.5,-139"/>
<text text-anchor="start" x="487.5" y="-127" font-family="Helvetica,sans-Serif" font-size="10.00">nmr::PredictionConformation</text>
<text text-anchor="start" x="490.5" y="-112" font-family="Helvetica,sans-Serif" font-size="10.00">&#45;</text>
<text text-anchor="start" x="502.5" y="-112" font-family="Helvetica,sans-Serif" font-size="10.00">method_</text>
<text text-anchor="start" x="490.5" y="-97" font-family="Helvetica,sans-Serif" font-size="10.00">&#45;</text>
<text text-anchor="start" x="502.5" y="-97" font-family="Helvetica,sans-Serif" font-size="10.00">confidence_</text>
<text text-anchor="start" x="488" y="-82" font-family="Helvetica,sans-Serif" font-size="10.00">+</text>
<text text-anchor="start" x="502.5" y="-82" font-family="Helvetica,sans-Serif" font-size="10.00">PredictionConformation()</text>
<text text-anchor="start" x="488" y="-67" font-family="Helvetica,sans-Serif" font-size="10.00">+</text>
<text text-anchor="start" x="502.5" y="-67" font-family="Helvetica,sans-Serif" font-size="10.00">PredictionMethod()</text>
<text text-anchor="start" x="488" y="-52" font-family="Helvetica,sans-Serif" font-size="10.00">+</text>
<text text-anchor="start" x="502.5" y="-52" font-family="Helvetica,sans-Serif" font-size="10.00">Confidence()</text>
<polygon fill="#666666" stroke="#666666" points="482.5,-122 482.5,-122 634.5,-122 634.5,-122 482.5,-122"/>
<polygon fill="#666666" stroke="#666666" points="482.5,-92 482.5,-92 500.5,-92 500.5,-92 482.5,-92"/>
<polygon fill="#666666" stroke="#666666" points="500.5,-92 500.5,-92 634.5,-92 634.5,-92 500.5,-92"/>
<polygon fill="none" stroke="#666666" points="482.5,-45 482.5,-139 634.5,-139 634.5,-45 482.5,-45"/>
</a>
</g>
</g>
<!-- Node1&#45;&gt;Node5 -->
<g id="edge4_Node000001_Node000005" class="edge">
<title>Node1&#45;&gt;Node5</title>
<g id="a_edge4_Node000001_Node000005"><a xlink:title=" ">
<path fill="none" stroke="#63b8ff" d="M382.93,-355.66C431.36,-283.21 491.68,-192.96 527.54,-139.32"/>
<polygon fill="none" stroke="#63b8ff" points="379.73,-354.14 377.08,-364.4 385.55,-358.03 379.73,-354.14"/>
</a>
</g>
</g>
</g>
</svg>
