<?xml version="1.0" encoding="UTF-8" standalone="no"?>
<!DOCTYPE svg PUBLIC "-//W3C//DTD SVG 1.1//EN"
 "http://www.w3.org/Graphics/SVG/1.1/DTD/svg11.dtd">
<!-- Generated by graphviz version 2.43.0 (0)
 -->
<!-- Title: nmr::DsspResult Pages: 1 -->
<svg width="143pt" height="307pt"
 viewBox="0.00 0.00 143.00 307.00" xmlns="http://www.w3.org/2000/svg" xmlns:xlink="http://www.w3.org/1999/xlink">
<g id="graph0" class="graph" transform="scale(1 1) rotate(0) translate(4 303)">
<title>nmr::DsspResult</title>
<!-- Node1 -->
<g id="Node000001" class="node">
<title>Node1</title>
<g id="a_Node000001"><a xlink:title=" ">
<polygon fill="#999999" stroke="transparent" points="129.5,-154 5.5,-154 5.5,0 129.5,0 129.5,-154"/>
<text text-anchor="start" x="27" y="-142" font-family="Helvetica,sans-Serif" font-size="10.00">nmr::DsspResult</text>
<text text-anchor="start" x="12" y="-127" font-family="Helvetica,sans-Serif" font-size="10.00">&#45;</text>
<text text-anchor="start" x="22.5" y="-127" font-family="Helvetica,sans-Serif" font-size="10.00">residues_</text>
<text text-anchor="start" x="9.5" y="-112" font-family="Helvetica,sans-Serif" font-size="10.00">+</text>
<text text-anchor="start" x="22.5" y="-112" font-family="Helvetica,sans-Serif" font-size="10.00">Name()</text>
<text text-anchor="start" x="9.5" y="-97" font-family="Helvetica,sans-Serif" font-size="10.00">+</text>
<text text-anchor="start" x="22.5" y="-97" font-family="Helvetica,sans-Serif" font-size="10.00">Dependencies()</text>
<text text-anchor="start" x="9.5" y="-82" font-family="Helvetica,sans-Serif" font-size="10.00">+</text>
<text text-anchor="start" x="22.5" y="-82" font-family="Helvetica,sans-Serif" font-size="10.00">SecondaryStructure()</text>
<text text-anchor="start" x="9.5" y="-67" font-family="Helvetica,sans-Serif" font-size="10.00">+</text>
<text text-anchor="start" x="22.5" y="-67" font-family="Helvetica,sans-Serif" font-size="10.00">Phi()</text>
<text text-anchor="start" x="9.5" y="-52" font-family="Helvetica,sans-Serif" font-size="10.00">+</text>
<text text-anchor="start" x="22.5" y="-52" font-family="Helvetica,sans-Serif" font-size="10.00">Psi()</text>
<text text-anchor="start" x="9.5" y="-37" font-family="Helvetica,sans-Serif" font-size="10.00">+</text>
<text text-anchor="start" x="22.5" y="-37" font-family="Helvetica,sans-Serif" font-size="10.00">SASA()</text>
<text text-anchor="start" x="9.5" y="-22" font-family="Helvetica,sans-Serif" font-size="10.00">+</text>
<text text-anchor="start" x="22.5" y="-22" font-family="Helvetica,sans-Serif" font-size="10.00">AllResidues()</text>
<text text-anchor="start" x="9.5" y="-7" font-family="Helvetica,sans-Serif" font-size="10.00">+</text>
<text text-anchor="start" x="22.5" y="-7" font-family="Helvetica,sans-Serif" font-size="10.00">Compute()</text>
<polygon fill="#666666" stroke="#666666" points="5.5,-137 5.5,-137 129.5,-137 129.5,-137 5.5,-137"/>
<polygon fill="#666666" stroke="#666666" points="5.5,-122 5.5,-122 20.5,-122 20.5,-122 5.5,-122"/>
<polygon fill="#666666" stroke="#666666" points="20.5,-122 20.5,-122 129.5,-122 129.5,-122 20.5,-122"/>
<polygon fill="none" stroke="#666666" points="5.5,0 5.5,-154 129.5,-154 129.5,0 5.5,0"/>
</a>
</g>
</g>
<!-- Node2 -->
<g id="Node000002" class="node">
<title>Node2</title>
<g id="a_Node000002"><a xlink:href="classnmr_1_1ConformationResult.html" target="_top" xlink:title=" ">
<polygon fill="white" stroke="transparent" points="135,-299 0,-299 0,-190 135,-190 135,-299"/>
<text text-anchor="start" x="6" y="-286.5" font-family="Helvetica,sans-Serif" font-size="10.00">nmr::ConformationResult</text>
<text text-anchor="start" x="66" y="-271.5" font-family="Helvetica,sans-Serif" font-size="10.00"> </text>
<text text-anchor="start" x="4.5" y="-256.5" font-family="Helvetica,sans-Serif" font-size="10.00">+</text>
<text text-anchor="start" x="17.5" y="-256.5" font-family="Helvetica,sans-Serif" font-size="10.00">~ConformationResult()</text>
<text text-anchor="start" x="4.5" y="-241.5" font-family="Helvetica,sans-Serif" font-size="10.00">+</text>
<text text-anchor="start" x="17.5" y="-241.5" font-family="Helvetica,sans-Serif" font-size="10.00">Name()</text>
<text text-anchor="start" x="4.5" y="-226.5" font-family="Helvetica,sans-Serif" font-size="10.00">+</text>
<text text-anchor="start" x="17.5" y="-226.5" font-family="Helvetica,sans-Serif" font-size="10.00">Dependencies()</text>
<text text-anchor="start" x="4.5" y="-211.5" font-family="Helvetica,sans-Serif" font-size="10.00">+</text>
<text text-anchor="start" x="17.5" y="-211.5" font-family="Helvetica,sans-Serif" font-size="10.00">WriteFeatures()</text>
<text text-anchor="start" x="4.5" y="-196.5" font-family="Helvetica,sans-Serif" font-size="10.00">+</text>
<text text-anchor="start" x="17.5" y="-196.5" font-family="Helvetica,sans-Serif" font-size="10.00">WriteAllFeatures()</text>
<polygon fill="#666666" stroke="#666666" points="0.5,-281.5 0.5,-281.5 135.5,-281.5 135.5,-281.5 0.5,-281.5"/>
<polygon fill="#666666" stroke="#666666" points="0.5,-266.5 0.5,-266.5 135.5,-266.5 135.5,-266.5 0.5,-266.5"/>
<polygon fill="none" stroke="#666666" points="0,-190 0,-299 135,-299 135,-190 0,-190"/>
</a>
</g>
</g>
<!-- Node2&#45;&gt;Node1 -->
<g id="edge1_Node000001_Node000002" class="edge">
<title>Node2&#45;&gt;Node1</title>
<g id="a_edge1_Node000001_Node000002"><a xlink:title=" ">
<path fill="none" stroke="#63b8ff" d="M67.5,-179.68C67.5,-171.27 67.5,-162.59 67.5,-154.01"/>
<polygon fill="none" stroke="#63b8ff" points="64,-179.77 67.5,-189.77 71,-179.77 64,-179.77"/>
</a>
</g>
</g>
</g>
</svg>
