<?xml version="1.0" encoding="UTF-8" standalone="no"?>
<!DOCTYPE svg PUBLIC "-//W3C//DTD SVG 1.1//EN"
 "http://www.w3.org/Graphics/SVG/1.1/DTD/svg11.dtd">
<!-- Generated by graphviz version 2.43.0 (0)
 -->
<!-- Title: nmr::FusedRing Pages: 1 -->
<svg width="152pt" height="494pt"
 viewBox="0.00 0.00 151.50 494.00" xmlns="http://www.w3.org/2000/svg" xmlns:xlink="http://www.w3.org/1999/xlink">
<g id="graph0" class="graph" transform="scale(1 1) rotate(0) translate(4 490)">
<title>nmr::FusedRing</title>
<!-- Node1 -->
<g id="Node000001" class="node">
<title>Node1</title>
<g id="a_Node000001"><a xlink:title=" ">
<polygon fill="#999999" stroke="transparent" points="111.5,-49 25.5,-49 25.5,0 111.5,0 111.5,-49"/>
<text text-anchor="start" x="30.5" y="-36.5" font-family="Helvetica,sans-Serif" font-size="10.00">nmr::FusedRing</text>
<text text-anchor="start" x="66.5" y="-21.5" font-family="Helvetica,sans-Serif" font-size="10.00"> </text>
<text text-anchor="start" x="66.5" y="-6.5" font-family="Helvetica,sans-Serif" font-size="10.00"> </text>
<polygon fill="#666666" stroke="#666666" points="25.5,-31.5 25.5,-31.5 111.5,-31.5 111.5,-31.5 25.5,-31.5"/>
<polygon fill="#666666" stroke="#666666" points="25.5,-16.5 25.5,-16.5 111.5,-16.5 111.5,-16.5 25.5,-16.5"/>
<polygon fill="none" stroke="#666666" points="25.5,0 25.5,-49 111.5,-49 111.5,0 25.5,0"/>
</a>
</g>
</g>
<!-- Node2 -->
<g id="Node000002" class="node">
<title>Node2</title>
<g id="a_Node000002"><a xlink:href="classnmr_1_1Ring.html" target="_top" xlink:title=" ">
<polygon fill="white" stroke="transparent" points="137,-345 0,-345 0,-86 137,-86 137,-345"/>
<text text-anchor="start" x="45" y="-332.5" font-family="Helvetica,sans-Serif" font-size="10.00">nmr::Ring</text>
<text text-anchor="start" x="4.5" y="-317.5" font-family="Helvetica,sans-Serif" font-size="10.00">+</text>
<text text-anchor="start" x="17.5" y="-317.5" font-family="Helvetica,sans-Serif" font-size="10.00">atom_indices</text>
<text text-anchor="start" x="4.5" y="-302.5" font-family="Helvetica,sans-Serif" font-size="10.00">+</text>
<text text-anchor="start" x="17.5" y="-302.5" font-family="Helvetica,sans-Serif" font-size="10.00">type_index</text>
<text text-anchor="start" x="4.5" y="-287.5" font-family="Helvetica,sans-Serif" font-size="10.00">+</text>
<text text-anchor="start" x="17.5" y="-287.5" font-family="Helvetica,sans-Serif" font-size="10.00">parent_residue_index</text>
<text text-anchor="start" x="4.5" y="-272.5" font-family="Helvetica,sans-Serif" font-size="10.00">+</text>
<text text-anchor="start" x="17.5" y="-272.5" font-family="Helvetica,sans-Serif" font-size="10.00">parent_residue_number</text>
<text text-anchor="start" x="4.5" y="-257.5" font-family="Helvetica,sans-Serif" font-size="10.00">+</text>
<text text-anchor="start" x="17.5" y="-257.5" font-family="Helvetica,sans-Serif" font-size="10.00">fused_partner_index</text>
<text text-anchor="start" x="4.5" y="-242.5" font-family="Helvetica,sans-Serif" font-size="10.00">+</text>
<text text-anchor="start" x="17.5" y="-242.5" font-family="Helvetica,sans-Serif" font-size="10.00">~Ring()</text>
<text text-anchor="start" x="4.5" y="-227.5" font-family="Helvetica,sans-Serif" font-size="10.00">+</text>
<text text-anchor="start" x="17.5" y="-227.5" font-family="Helvetica,sans-Serif" font-size="10.00">Intensity()</text>
<text text-anchor="start" x="4.5" y="-212.5" font-family="Helvetica,sans-Serif" font-size="10.00">+</text>
<text text-anchor="start" x="17.5" y="-212.5" font-family="Helvetica,sans-Serif" font-size="10.00">LiteratureIntensity()</text>
<text text-anchor="start" x="4.5" y="-197.5" font-family="Helvetica,sans-Serif" font-size="10.00">+</text>
<text text-anchor="start" x="17.5" y="-197.5" font-family="Helvetica,sans-Serif" font-size="10.00">JBLobeOffset()</text>
<text text-anchor="start" x="4.5" y="-182.5" font-family="Helvetica,sans-Serif" font-size="10.00">+</text>
<text text-anchor="start" x="17.5" y="-182.5" font-family="Helvetica,sans-Serif" font-size="10.00">NitrogenCount()</text>
<text text-anchor="start" x="4.5" y="-167.5" font-family="Helvetica,sans-Serif" font-size="10.00">+</text>
<text text-anchor="start" x="17.5" y="-167.5" font-family="Helvetica,sans-Serif" font-size="10.00">Aromaticity()</text>
<text text-anchor="start" x="4.5" y="-152.5" font-family="Helvetica,sans-Serif" font-size="10.00">+</text>
<text text-anchor="start" x="17.5" y="-152.5" font-family="Helvetica,sans-Serif" font-size="10.00">RingSizeValue()</text>
<text text-anchor="start" x="4.5" y="-137.5" font-family="Helvetica,sans-Serif" font-size="10.00">+</text>
<text text-anchor="start" x="17.5" y="-137.5" font-family="Helvetica,sans-Serif" font-size="10.00">TypeName()</text>
<text text-anchor="start" x="4.5" y="-122.5" font-family="Helvetica,sans-Serif" font-size="10.00">+</text>
<text text-anchor="start" x="17.5" y="-122.5" font-family="Helvetica,sans-Serif" font-size="10.00">IsFused()</text>
<text text-anchor="start" x="4.5" y="-107.5" font-family="Helvetica,sans-Serif" font-size="10.00">+</text>
<text text-anchor="start" x="17.5" y="-107.5" font-family="Helvetica,sans-Serif" font-size="10.00">TypeIndexAsInt()</text>
<text text-anchor="start" x="4.5" y="-92.5" font-family="Helvetica,sans-Serif" font-size="10.00">+</text>
<text text-anchor="start" x="17.5" y="-92.5" font-family="Helvetica,sans-Serif" font-size="10.00">ComputeGeometry()</text>
<polygon fill="#666666" stroke="#666666" points="0.5,-327.5 0.5,-327.5 137.5,-327.5 137.5,-327.5 0.5,-327.5"/>
<polygon fill="#666666" stroke="#666666" points="0.5,-252.5 0.5,-252.5 15.5,-252.5 15.5,-252.5 0.5,-252.5"/>
<polygon fill="#666666" stroke="#666666" points="15.5,-252.5 15.5,-252.5 137.5,-252.5 137.5,-252.5 15.5,-252.5"/>
<polygon fill="none" stroke="#666666" points="0,-86 0,-345 137,-345 137,-86 0,-86"/>
</a>
</g>
</g>
<!-- Node2&#45;&gt;Node1 -->
<g id="edge1_Node000001_Node000002" class="edge">
<title>Node2&#45;&gt;Node1</title>
<g id="a_edge1_Node000001_Node000002"><a xlink:title=" ">
<path fill="none" stroke="#63b8ff" d="M68.5,-75.66C68.5,-65.76 68.5,-56.7 68.5,-49.09"/>
<polygon fill="none" stroke="#63b8ff" points="65,-75.82 68.5,-85.82 72,-75.82 65,-75.82"/>
</a>
</g>
</g>
<!-- Node3 -->
<g id="Node000003" class="node">
<title>Node3</title>
<g id="a_Node000003"><a xlink:href="structnmr_1_1RingAccumulated.html" target="_top" xlink:title=" ">
<polygon fill="white" stroke="transparent" points="133.5,-486 3.5,-486 3.5,-392 133.5,-392 133.5,-486"/>
<text text-anchor="start" x="12.5" y="-474" font-family="Helvetica,sans-Serif" font-size="10.00">nmr::RingAccumulated</text>
<text text-anchor="start" x="7.5" y="-459" font-family="Helvetica,sans-Serif" font-size="10.00">+</text>
<text text-anchor="start" x="20.5" y="-459" font-family="Helvetica,sans-Serif" font-size="10.00">total_B_at_center</text>
<text text-anchor="start" x="7.5" y="-444" font-family="Helvetica,sans-Serif" font-size="10.00">+</text>
<text text-anchor="start" x="20.5" y="-444" font-family="Helvetica,sans-Serif" font-size="10.00">intensity_used</text>
<text text-anchor="start" x="7.5" y="-429" font-family="Helvetica,sans-Serif" font-size="10.00">+</text>
<text text-anchor="start" x="20.5" y="-429" font-family="Helvetica,sans-Serif" font-size="10.00">total_G_T0_diagnostic</text>
<text text-anchor="start" x="7.5" y="-414" font-family="Helvetica,sans-Serif" font-size="10.00">+</text>
<text text-anchor="start" x="20.5" y="-414" font-family="Helvetica,sans-Serif" font-size="10.00">mutual_B_from</text>
<text text-anchor="start" x="66.5" y="-399" font-family="Helvetica,sans-Serif" font-size="10.00"> </text>
<polygon fill="#666666" stroke="#666666" points="3.5,-469 3.5,-469 133.5,-469 133.5,-469 3.5,-469"/>
<polygon fill="#666666" stroke="#666666" points="3.5,-409 3.5,-409 18.5,-409 18.5,-409 3.5,-409"/>
<polygon fill="#666666" stroke="#666666" points="18.5,-409 18.5,-409 133.5,-409 133.5,-409 18.5,-409"/>
<polygon fill="none" stroke="#666666" points="3.5,-392 3.5,-486 133.5,-486 133.5,-392 3.5,-392"/>
</a>
</g>
</g>
<!-- Node3&#45;&gt;Node2 -->
<g id="edge2_Node000002_Node000003" class="edge">
<title>Node3&#45;&gt;Node2</title>
<g id="a_edge2_Node000002_Node000003"><a xlink:title=" ">
<path fill="none" stroke="#63b8ff" d="M68.5,-391.84C68.5,-381.38 68.5,-369.73 68.5,-357.56"/>
<polygon fill="none" stroke="#63b8ff" points="68.5,-357.24 64.5,-351.24 68.5,-345.24 72.5,-351.24 68.5,-357.24"/>
</a>
</g>
<text text-anchor="middle" x="106" y="-366" font-family="Helvetica,sans-Serif" font-size="10.00" fill="grey"> +accumulated</text>
</g>
</g>
</svg>
