<?xml version="1.0" encoding="UTF-8" standalone="no"?>
<!DOCTYPE svg PUBLIC "-//W3C//DTD SVG 1.1//EN"
 "http://www.w3.org/Graphics/SVG/1.1/DTD/svg11.dtd">
<!-- Generated by graphviz version 2.43.0 (0)
 -->
<!-- Title: nmr::MolecularGraphResult Pages: 1 -->
<svg width="152pt" height="232pt"
 viewBox="0.00 0.00 152.00 232.00" xmlns="http://www.w3.org/2000/svg" xmlns:xlink="http://www.w3.org/1999/xlink">
<g id="graph0" class="graph" transform="scale(1 1) rotate(0) translate(4 228)">
<title>nmr::MolecularGraphResult</title>
<!-- Node1 -->
<g id="Node000001" class="node">
<title>Node1</title>
<g id="a_Node000001"><a xlink:title=" ">
<polygon fill="#999999" stroke="transparent" points="144,-79 0,-79 0,0 144,0 144,-79"/>
<text text-anchor="start" x="5" y="-66.5" font-family="Helvetica,sans-Serif" font-size="10.00">nmr::MolecularGraphResult</text>
<text text-anchor="start" x="18" y="-51.5" font-family="Helvetica,sans-Serif" font-size="10.00">&#45;</text>
<text text-anchor="start" x="40" y="-51.5" font-family="Helvetica,sans-Serif" font-size="10.00">conf_</text>
<text text-anchor="start" x="15.5" y="-36.5" font-family="Helvetica,sans-Serif" font-size="10.00">+</text>
<text text-anchor="start" x="40" y="-36.5" font-family="Helvetica,sans-Serif" font-size="10.00">Name()</text>
<text text-anchor="start" x="15.5" y="-21.5" font-family="Helvetica,sans-Serif" font-size="10.00">+</text>
<text text-anchor="start" x="40" y="-21.5" font-family="Helvetica,sans-Serif" font-size="10.00">Dependencies()</text>
<text text-anchor="start" x="15.5" y="-6.5" font-family="Helvetica,sans-Serif" font-size="10.00">+</text>
<text text-anchor="start" x="40" y="-6.5" font-family="Helvetica,sans-Serif" font-size="10.00">Compute()</text>
<polygon fill="#666666" stroke="#666666" points="0,-61.5 0,-61.5 144,-61.5 144,-61.5 0,-61.5"/>
<polygon fill="#666666" stroke="#666666" points="0,-46.5 0,-46.5 38,-46.5 38,-46.5 0,-46.5"/>
<polygon fill="#666666" stroke="#666666" points="38,-46.5 38,-46.5 144,-46.5 144,-46.5 38,-46.5"/>
<polygon fill="none" stroke="#666666" points="0,0 0,-79 144,-79 144,0 0,0"/>
</a>
</g>
</g>
<!-- Node2 -->
<g id="Node000002" class="node">
<title>Node2</title>
<g id="a_Node000002"><a xlink:href="classnmr_1_1ConformationResult.html" target="_top" xlink:title=" ">
<polygon fill="white" stroke="transparent" points="139.5,-224 4.5,-224 4.5,-115 139.5,-115 139.5,-224"/>
<text text-anchor="start" x="10.5" y="-211.5" font-family="Helvetica,sans-Serif" font-size="10.00">nmr::ConformationResult</text>
<text text-anchor="start" x="70.5" y="-196.5" font-family="Helvetica,sans-Serif" font-size="10.00"> </text>
<text text-anchor="start" x="9" y="-181.5" font-family="Helvetica,sans-Serif" font-size="10.00">+</text>
<text text-anchor="start" x="22" y="-181.5" font-family="Helvetica,sans-Serif" font-size="10.00">~ConformationResult()</text>
<text text-anchor="start" x="9" y="-166.5" font-family="Helvetica,sans-Serif" font-size="10.00">+</text>
<text text-anchor="start" x="22" y="-166.5" font-family="Helvetica,sans-Serif" font-size="10.00">Name()</text>
<text text-anchor="start" x="9" y="-151.5" font-family="Helvetica,sans-Serif" font-size="10.00">+</text>
<text text-anchor="start" x="22" y="-151.5" font-family="Helvetica,sans-Serif" font-size="10.00">Dependencies()</text>
<text text-anchor="start" x="9" y="-136.5" font-family="Helvetica,sans-Serif" font-size="10.00">+</text>
<text text-anchor="start" x="22" y="-136.5" font-family="Helvetica,sans-Serif" font-size="10.00">WriteFeatures()</text>
<text text-anchor="start" x="9" y="-121.5" font-family="Helvetica,sans-Serif" font-size="10.00">+</text>
<text text-anchor="start" x="22" y="-121.5" font-family="Helvetica,sans-Serif" font-size="10.00">WriteAllFeatures()</text>
<polygon fill="#666666" stroke="#666666" points="5,-206.5 5,-206.5 140,-206.5 140,-206.5 5,-206.5"/>
<polygon fill="#666666" stroke="#666666" points="5,-191.5 5,-191.5 140,-191.5 140,-191.5 5,-191.5"/>
<polygon fill="none" stroke="#666666" points="4.5,-115 4.5,-224 139.5,-224 139.5,-115 4.5,-115"/>
</a>
</g>
</g>
<!-- Node2&#45;&gt;Node1 -->
<g id="edge1_Node000001_Node000002" class="edge">
<title>Node2&#45;&gt;Node1</title>
<g id="a_edge1_Node000001_Node000002"><a xlink:title=" ">
<path fill="none" stroke="#63b8ff" d="M72,-104.7C72,-95.93 72,-87.16 72,-79.03"/>
<polygon fill="none" stroke="#63b8ff" points="68.5,-104.96 72,-114.96 75.5,-104.96 68.5,-104.96"/>
</a>
</g>
</g>
</g>
</svg>
