<?xml version="1.0" encoding="UTF-8" standalone="no"?>
<!DOCTYPE svg PUBLIC "-//W3C//DTD SVG 1.1//EN"
 "http://www.w3.org/Graphics/SVG/1.1/DTD/svg11.dtd">
<!-- Generated by graphviz version 2.43.0 (0)
 -->
<!-- Title: src/ConformationResult.h Pages: 1 -->
<svg width="2241pt" height="313pt"
 viewBox="0.00 0.00 2240.57 313.00" xmlns="http://www.w3.org/2000/svg" xmlns:xlink="http://www.w3.org/1999/xlink">
<g id="graph0" class="graph" transform="scale(1 1) rotate(0) translate(4 309)">
<title>src/ConformationResult.h</title>
<!-- Node1 -->
<g id="Node000001" class="node">
<title>Node1</title>
<g id="a_Node000001"><a xlink:title=" ">
<polygon fill="#999999" stroke="#666666" points="956.07,-305 816.07,-305 816.07,-286 956.07,-286 956.07,-305"/>
<text text-anchor="middle" x="886.07" y="-293" font-family="Helvetica,sans-Serif" font-size="10.00">src/ConformationResult.h</text>
</a>
</g>
</g>
<!-- Node2 -->
<g id="Node000002" class="node">
<title>Node2</title>
<g id="a_Node000002"><a xlink:href="ApbsFieldResult_8h.html" target="_top" xlink:title=" ">
<polygon fill="white" stroke="#666666" points="587.57,-129 466.57,-129 466.57,-110 587.57,-110 587.57,-129"/>
<text text-anchor="middle" x="527.07" y="-117" font-family="Helvetica,sans-Serif" font-size="10.00">src/ApbsFieldResult.h</text>
</a>
</g>
</g>
<!-- Node1&#45;&gt;Node2 -->
<g id="edge1_Node000001_Node000002" class="edge">
<title>Node1&#45;&gt;Node2</title>
<g id="a_edge1_Node000001_Node000002"><a xlink:title=" ">
<path fill="none" stroke="#63b8ff" d="M805.84,-292.66C735.09,-289.03 630.01,-278.75 543.07,-250 526.63,-244.57 525.55,-236.3 509.07,-231 441.58,-209.28 239.29,-247.88 192.07,-195 183.19,-185.05 183.28,-175.03 192.07,-165 209.83,-144.73 374.68,-130.63 466.32,-124.29"/>
<polygon fill="#63b8ff" stroke="#63b8ff" points="805.87,-296.16 816.02,-293.14 806.2,-289.17 805.87,-296.16"/>
</a>
</g>
</g>
<!-- Node3 -->
<g id="Node000003" class="node">
<title>Node3</title>
<g id="a_Node000003"><a xlink:href="BiotSavartResult_8h.html" target="_top" xlink:title=" ">
<polygon fill="white" stroke="#666666" points="144.57,-250 19.57,-250 19.57,-231 144.57,-231 144.57,-250"/>
<text text-anchor="middle" x="82.07" y="-238" font-family="Helvetica,sans-Serif" font-size="10.00">src/BiotSavartResult.h</text>
</a>
</g>
</g>
<!-- Node1&#45;&gt;Node3 -->
<g id="edge2_Node000001_Node000003" class="edge">
<title>Node1&#45;&gt;Node3</title>
<g id="a_edge2_Node000001_Node000003"><a xlink:title=" ">
<path fill="none" stroke="#63b8ff" d="M805.88,-290.87C671.81,-284.52 393.75,-270.12 159.07,-250 154.38,-249.6 149.53,-249.15 144.66,-248.67"/>
<polygon fill="#63b8ff" stroke="#63b8ff" points="805.9,-294.38 816.06,-291.35 806.23,-287.39 805.9,-294.38"/>
</a>
</g>
</g>
<!-- Node4 -->
<g id="Node000004" class="node">
<title>Node4</title>
<g id="a_Node000004"><a xlink:href="ChargeAssignmentResult_8h.html" target="_top" xlink:title=" ">
<polygon fill="white" stroke="#666666" points="631.07,-189.5 465.07,-189.5 465.07,-170.5 631.07,-170.5 631.07,-189.5"/>
<text text-anchor="middle" x="548.07" y="-177.5" font-family="Helvetica,sans-Serif" font-size="10.00">src/ChargeAssignmentResult.h</text>
</a>
</g>
</g>
<!-- Node1&#45;&gt;Node4 -->
<g id="edge3_Node000001_Node000004" class="edge">
<title>Node1&#45;&gt;Node4</title>
<g id="a_edge3_Node000001_Node000004"><a xlink:title=" ">
<path fill="none" stroke="#63b8ff" d="M805.62,-292.51C751.87,-288.44 680.88,-277.63 624.07,-250 593.94,-235.35 567.07,-205 554.93,-189.92"/>
<polygon fill="#63b8ff" stroke="#63b8ff" points="805.57,-296.01 815.79,-293.21 806.06,-289.03 805.57,-296.01"/>
</a>
</g>
</g>
<!-- Node5 -->
<g id="Node000005" class="node">
<title>Node5</title>
<g id="a_Node000005"><a xlink:href="CoulombResult_8h.html" target="_top" xlink:title=" ">
<polygon fill="white" stroke="#666666" points="318.57,-250 201.57,-250 201.57,-231 318.57,-231 318.57,-250"/>
<text text-anchor="middle" x="260.07" y="-238" font-family="Helvetica,sans-Serif" font-size="10.00">src/CoulombResult.h</text>
</a>
</g>
</g>
<!-- Node1&#45;&gt;Node5 -->
<g id="edge5_Node000001_Node000005" class="edge">
<title>Node1&#45;&gt;Node5</title>
<g id="a_edge5_Node000001_Node000005"><a xlink:title=" ">
<path fill="none" stroke="#63b8ff" d="M805.58,-288.93C697.86,-281.26 500.91,-266.52 333.07,-250 328.37,-249.54 323.5,-249.03 318.62,-248.5"/>
<polygon fill="#63b8ff" stroke="#63b8ff" points="805.5,-292.43 815.72,-289.65 806,-285.45 805.5,-292.43"/>
</a>
</g>
</g>
<!-- Node6 -->
<g id="Node000006" class="node">
<title>Node6</title>
<g id="a_Node000006"><a xlink:href="DemoResult_8h.html" target="_top" xlink:title=" ">
<polygon fill="white" stroke="#666666" points="845.57,-74 742.57,-74 742.57,-55 845.57,-55 845.57,-74"/>
<text text-anchor="middle" x="794.07" y="-62" font-family="Helvetica,sans-Serif" font-size="10.00">src/DemoResult.h</text>
</a>
</g>
</g>
<!-- Node1&#45;&gt;Node6 -->
<g id="edge6_Node000001_Node000006" class="edge">
<title>Node1&#45;&gt;Node6</title>
<g id="a_edge6_Node000001_Node000006"><a xlink:title=" ">
<path fill="none" stroke="#63b8ff" d="M858.08,-281.32C834.66,-268.59 807.54,-248.69 824.07,-231 904.35,-145.06 1271.79,-280.94 1352.07,-195 1361.17,-185.26 1360.95,-174.95 1352.07,-165 1304.85,-112.12 1103.04,-149.16 1035.07,-129 1016.96,-123.63 1014.87,-116.29 997.07,-110 947.06,-92.33 887.55,-80.28 845.94,-73.22"/>
<polygon fill="#63b8ff" stroke="#63b8ff" points="856.6,-284.5 867.09,-285.99 859.82,-278.28 856.6,-284.5"/>
</a>
</g>
</g>
<!-- Node7 -->
<g id="Node000007" class="node">
<title>Node7</title>
<g id="a_Node000007"><a xlink:href="DispersionResult_8h.html" target="_top" xlink:title=" ">
<polygon fill="white" stroke="#666666" points="500.57,-250 375.57,-250 375.57,-231 500.57,-231 500.57,-250"/>
<text text-anchor="middle" x="438.07" y="-238" font-family="Helvetica,sans-Serif" font-size="10.00">src/DispersionResult.h</text>
</a>
</g>
</g>
<!-- Node1&#45;&gt;Node7 -->
<g id="edge7_Node000001_Node000007" class="edge">
<title>Node1&#45;&gt;Node7</title>
<g id="a_edge7_Node000001_Node000007"><a xlink:title=" ">
<path fill="none" stroke="#63b8ff" d="M805.44,-284.96C718.1,-274.63 580.61,-258.36 500.92,-248.94"/>
<polygon fill="#63b8ff" stroke="#63b8ff" points="805.23,-288.46 815.57,-286.16 806.05,-281.51 805.23,-288.46"/>
</a>
</g>
</g>
<!-- Node8 -->
<g id="Node000008" class="node">
<title>Node8</title>
<g id="a_Node000008"><a xlink:href="DsspResult_8h.html" target="_top" xlink:title=" ">
<polygon fill="white" stroke="#666666" points="299.07,-189.5 201.07,-189.5 201.07,-170.5 299.07,-170.5 299.07,-189.5"/>
<text text-anchor="middle" x="250.07" y="-177.5" font-family="Helvetica,sans-Serif" font-size="10.00">src/DsspResult.h</text>
</a>
</g>
</g>
<!-- Node1&#45;&gt;Node8 -->
<g id="edge8_Node000001_Node000008" class="edge">
<title>Node1&#45;&gt;Node8</title>
<g id="a_edge8_Node000001_Node000008"><a xlink:title=" ">
<path fill="none" stroke="#63b8ff" d="M805.78,-292.02C680.77,-287.41 445.67,-275.59 366.07,-250 344.32,-243.01 288.4,-206.63 262.98,-189.7"/>
<polygon fill="#63b8ff" stroke="#63b8ff" points="805.94,-295.52 816.06,-292.39 806.19,-288.53 805.94,-295.52"/>
</a>
</g>
</g>
<!-- Node9 -->
<g id="Node000009" class="node">
<title>Node9</title>
<g id="a_Node000009"><a xlink:href="EnrichmentResult_8h.html" target="_top" xlink:title=" ">
<polygon fill="white" stroke="#666666" points="446.57,-189.5 317.57,-189.5 317.57,-170.5 446.57,-170.5 446.57,-189.5"/>
<text text-anchor="middle" x="382.07" y="-177.5" font-family="Helvetica,sans-Serif" font-size="10.00">src/EnrichmentResult.h</text>
</a>
</g>
</g>
<!-- Node1&#45;&gt;Node9 -->
<g id="edge9_Node000001_Node000009" class="edge">
<title>Node1&#45;&gt;Node9</title>
<g id="a_edge9_Node000001_Node000009"><a xlink:title=" ">
<path fill="none" stroke="#63b8ff" d="M805.87,-287.17C746.21,-280.56 663.16,-268.92 592.07,-250 569.49,-243.99 565.12,-238.69 543.07,-231 497.61,-215.15 444.09,-199.02 411.64,-189.52"/>
<polygon fill="#63b8ff" stroke="#63b8ff" points="805.66,-290.67 815.98,-288.27 806.42,-283.71 805.66,-290.67"/>
</a>
</g>
</g>
<!-- Node10 -->
<g id="Node000010" class="node">
<title>Node10</title>
<g id="a_Node000010"><a xlink:href="GeometryResult_8h.html" target="_top" xlink:title=" ">
<polygon fill="white" stroke="#666666" points="766.07,-129 644.07,-129 644.07,-110 766.07,-110 766.07,-129"/>
<text text-anchor="middle" x="705.07" y="-117" font-family="Helvetica,sans-Serif" font-size="10.00">src/GeometryResult.h</text>
</a>
</g>
</g>
<!-- Node1&#45;&gt;Node10 -->
<g id="edge10_Node000001_Node000010" class="edge">
<title>Node1&#45;&gt;Node10</title>
<g id="a_edge10_Node000001_Node000010"><a xlink:title=" ">
<path fill="none" stroke="#63b8ff" d="M805.88,-292.26C627.69,-286.9 212.79,-272.1 192.07,-250 166.22,-222.45 166.53,-192.84 192.07,-165 195.86,-160.87 508.78,-135.88 643.97,-125.27"/>
<polygon fill="#63b8ff" stroke="#63b8ff" points="805.89,-295.76 815.99,-292.56 806.1,-288.77 805.89,-295.76"/>
</a>
</g>
</g>
<!-- Node11 -->
<g id="Node000011" class="node">
<title>Node11</title>
<g id="a_Node000011"><a xlink:href="SpatialIndexResult_8h.html" target="_top" xlink:title=" ">
<polygon fill="white" stroke="#666666" points="704.07,-74 570.07,-74 570.07,-55 704.07,-55 704.07,-74"/>
<text text-anchor="middle" x="637.07" y="-62" font-family="Helvetica,sans-Serif" font-size="10.00">src/SpatialIndexResult.h</text>
</a>
</g>
</g>
<!-- Node1&#45;&gt;Node11 -->
<g id="edge46_Node000001_Node000011" class="edge">
<title>Node1&#45;&gt;Node11</title>
<g id="a_edge46_Node000001_Node000011"><a xlink:title=" ">
<path fill="none" stroke="#63b8ff" d="M805.76,-293.38C594.45,-290.05 37.24,-278.59 10.07,-250 -71.14,-164.57 392.38,-96.29 569.99,-73.59"/>
<polygon fill="#63b8ff" stroke="#63b8ff" points="805.81,-296.88 815.86,-293.54 805.92,-289.89 805.81,-296.88"/>
</a>
</g>
</g>
<!-- Node12 -->
<g id="Node000012" class="node">
<title>Node12</title>
<g id="a_Node000012"><a xlink:href="MolecularGraphResult_8h.html" target="_top" xlink:title=" ">
<polygon fill="white" stroke="#666666" points="1297.57,-19 1146.57,-19 1146.57,0 1297.57,0 1297.57,-19"/>
<text text-anchor="middle" x="1222.07" y="-7" font-family="Helvetica,sans-Serif" font-size="10.00">src/MolecularGraphResult.h</text>
</a>
</g>
</g>
<!-- Node1&#45;&gt;Node12 -->
<g id="edge17_Node000001_Node000012" class="edge">
<title>Node1&#45;&gt;Node12</title>
<g id="a_edge17_Node000001_Node000012"><a xlink:title=" ">
<path fill="none" stroke="#63b8ff" d="M966.46,-293.39C1215.12,-289.67 1957.73,-276.41 2002.07,-250 2032.71,-231.74 2043.07,-216.67 2043.07,-181 2043.07,-181 2043.07,-181 2043.07,-118.5 2043.07,-43.74 1501.08,-19.17 1297.83,-12.58"/>
<polygon fill="#63b8ff" stroke="#63b8ff" points="966.36,-289.89 956.41,-293.54 966.46,-296.89 966.36,-289.89"/>
</a>
</g>
</g>
<!-- Node13 -->
<g id="Node000013" class="node">
<title>Node13</title>
<g id="a_Node000013"><a xlink:href="HBondResult_8h.html" target="_top" xlink:title=" ">
<polygon fill="white" stroke="#666666" points="939.07,-250 833.07,-250 833.07,-231 939.07,-231 939.07,-250"/>
<text text-anchor="middle" x="886.07" y="-238" font-family="Helvetica,sans-Serif" font-size="10.00">src/HBondResult.h</text>
</a>
</g>
</g>
<!-- Node1&#45;&gt;Node13 -->
<g id="edge14_Node000001_Node000013" class="edge">
<title>Node1&#45;&gt;Node13</title>
<g id="a_edge14_Node000001_Node000013"><a xlink:title=" ">
<path fill="none" stroke="#63b8ff" d="M886.07,-275.66C886.07,-266.93 886.07,-256.99 886.07,-250.09"/>
<polygon fill="#63b8ff" stroke="#63b8ff" points="882.57,-275.75 886.07,-285.75 889.57,-275.75 882.57,-275.75"/>
</a>
</g>
</g>
<!-- Node14 -->
<g id="Node000014" class="node">
<title>Node14</title>
<g id="a_Node000014"><a xlink:href="HaighMallionResult_8h.html" target="_top" xlink:title=" ">
<polygon fill="white" stroke="#666666" points="1095.07,-250 957.07,-250 957.07,-231 1095.07,-231 1095.07,-250"/>
<text text-anchor="middle" x="1026.07" y="-238" font-family="Helvetica,sans-Serif" font-size="10.00">src/HaighMallionResult.h</text>
</a>
</g>
</g>
<!-- Node1&#45;&gt;Node14 -->
<g id="edge15_Node000001_Node000014" class="edge">
<title>Node1&#45;&gt;Node14</title>
<g id="a_edge15_Node000001_Node000014"><a xlink:title=" ">
<path fill="none" stroke="#63b8ff" d="M917.97,-282.42C943.95,-272.59 979.98,-258.95 1003.16,-250.17"/>
<polygon fill="#63b8ff" stroke="#63b8ff" points="916.67,-279.17 908.56,-285.98 919.15,-285.72 916.67,-279.17"/>
</a>
</g>
</g>
<!-- Node15 -->
<g id="Node000015" class="node">
<title>Node15</title>
<g id="a_Node000015"><a xlink:href="McConnellResult_8h.html" target="_top" xlink:title=" ">
<polygon fill="white" stroke="#666666" points="1238.57,-250 1113.57,-250 1113.57,-231 1238.57,-231 1238.57,-250"/>
<text text-anchor="middle" x="1176.07" y="-238" font-family="Helvetica,sans-Serif" font-size="10.00">src/McConnellResult.h</text>
</a>
</g>
</g>
<!-- Node1&#45;&gt;Node15 -->
<g id="edge16_Node000001_Node000015" class="edge">
<title>Node1&#45;&gt;Node15</title>
<g id="a_edge16_Node000001_Node000015"><a xlink:title=" ">
<path fill="none" stroke="#63b8ff" d="M942.82,-284.13C997.19,-274.19 1078.27,-259.37 1129.11,-250.08"/>
<polygon fill="#63b8ff" stroke="#63b8ff" points="941.87,-280.74 932.66,-285.98 943.13,-287.63 941.87,-280.74"/>
</a>
</g>
</g>
<!-- Node16 -->
<g id="Node000016" class="node">
<title>Node16</title>
<g id="a_Node000016"><a xlink:href="MopacCoulombResult_8h.html" target="_top" xlink:title=" ">
<polygon fill="white" stroke="#666666" points="1405.57,-250 1256.57,-250 1256.57,-231 1405.57,-231 1405.57,-250"/>
<text text-anchor="middle" x="1331.07" y="-238" font-family="Helvetica,sans-Serif" font-size="10.00">src/MopacCoulombResult.h</text>
</a>
</g>
</g>
<!-- Node1&#45;&gt;Node16 -->
<g id="edge18_Node000001_Node000016" class="edge">
<title>Node1&#45;&gt;Node16</title>
<g id="a_edge18_Node000001_Node000016"><a xlink:title=" ">
<path fill="none" stroke="#63b8ff" d="M966.04,-284.98C1049.58,-275.03 1179.4,-259.56 1259.61,-250.01"/>
<polygon fill="#63b8ff" stroke="#63b8ff" points="965.6,-281.5 956.09,-286.16 966.43,-288.45 965.6,-281.5"/>
</a>
</g>
</g>
<!-- Node17 -->
<g id="Node000017" class="node">
<title>Node17</title>
<g id="a_Node000017"><a xlink:href="MopacMcConnellResult_8h.html" target="_top" xlink:title=" ">
<polygon fill="white" stroke="#666666" points="1580.57,-250 1423.57,-250 1423.57,-231 1580.57,-231 1580.57,-250"/>
<text text-anchor="middle" x="1502.07" y="-238" font-family="Helvetica,sans-Serif" font-size="10.00">src/MopacMcConnellResult.h</text>
</a>
</g>
</g>
<!-- Node1&#45;&gt;Node17 -->
<g id="edge19_Node000001_Node000017" class="edge">
<title>Node1&#45;&gt;Node17</title>
<g id="a_edge19_Node000001_Node000017"><a xlink:title=" ">
<path fill="none" stroke="#63b8ff" d="M966.19,-288.05C1069.67,-279.66 1255.36,-264.35 1414.07,-250 1417.12,-249.72 1420.24,-249.44 1423.39,-249.15"/>
<polygon fill="#63b8ff" stroke="#63b8ff" points="965.81,-284.57 956.13,-288.87 966.38,-291.55 965.81,-284.57"/>
</a>
</g>
</g>
<!-- Node18 -->
<g id="Node000018" class="node">
<title>Node18</title>
<g id="a_Node000018"><a xlink:href="MopacResult_8h.html" target="_top" xlink:title=" ">
<polygon fill="white" stroke="#666666" points="1184.07,-189.5 1078.07,-189.5 1078.07,-170.5 1184.07,-170.5 1184.07,-189.5"/>
<text text-anchor="middle" x="1131.07" y="-177.5" font-family="Helvetica,sans-Serif" font-size="10.00">src/MopacResult.h</text>
</a>
</g>
</g>
<!-- Node1&#45;&gt;Node18 -->
<g id="edge20_Node000001_Node000018" class="edge">
<title>Node1&#45;&gt;Node18</title>
<g id="a_edge20_Node000001_Node000018"><a xlink:title=" ">
<path fill="none" stroke="#63b8ff" d="M966.41,-292.33C1146.62,-287.09 1569,-272.44 1590.07,-250 1651.03,-185.07 1281.05,-208.86 1193.07,-195 1183.91,-193.56 1174.09,-191.55 1165.02,-189.51"/>
<polygon fill="#63b8ff" stroke="#63b8ff" points="966.09,-288.84 956.2,-292.63 966.3,-295.84 966.09,-288.84"/>
</a>
</g>
</g>
<!-- Node19 -->
<g id="Node000019" class="node">
<title>Node19</title>
<g id="a_Node000019"><a xlink:href="MutationDeltaResult_8h.html" target="_top" xlink:title=" ">
<polygon fill="white" stroke="#666666" points="1780.57,-250 1637.57,-250 1637.57,-231 1780.57,-231 1780.57,-250"/>
<text text-anchor="middle" x="1709.07" y="-238" font-family="Helvetica,sans-Serif" font-size="10.00">src/MutationDeltaResult.h</text>
</a>
</g>
</g>
<!-- Node1&#45;&gt;Node19 -->
<g id="edge21_Node000001_Node000019" class="edge">
<title>Node1&#45;&gt;Node19</title>
<g id="a_edge21_Node000001_Node000019"><a xlink:title=" ">
<path fill="none" stroke="#63b8ff" d="M966.54,-290.65C1102.1,-283.94 1384.58,-268.98 1623.07,-250 1627.7,-249.63 1632.48,-249.23 1637.29,-248.8"/>
<polygon fill="#63b8ff" stroke="#63b8ff" points="966.06,-287.17 956.25,-291.16 966.41,-294.16 966.06,-287.17"/>
</a>
</g>
</g>
<!-- Node20 -->
<g id="Node000020" class="node">
<title>Node20</title>
<g id="a_Node000020"><a xlink:href="OrcaShieldingResult_8h.html" target="_top" xlink:title=" ">
<polygon fill="white" stroke="#666666" points="1343.57,-189.5 1202.57,-189.5 1202.57,-170.5 1343.57,-170.5 1343.57,-189.5"/>
<text text-anchor="middle" x="1273.07" y="-177.5" font-family="Helvetica,sans-Serif" font-size="10.00">src/OrcaShieldingResult.h</text>
</a>
</g>
</g>
<!-- Node1&#45;&gt;Node20 -->
<g id="edge22_Node000001_Node000020" class="edge">
<title>Node1&#45;&gt;Node20</title>
<g id="a_edge22_Node000001_Node000020"><a xlink:title=" ">
<path fill="none" stroke="#63b8ff" d="M966.3,-293.52C1182.32,-290.48 1761.89,-279.6 1790.07,-250 1795.89,-243.88 1795.74,-237.25 1790.07,-231 1760.63,-198.58 1478.2,-186.57 1343.66,-182.66"/>
<polygon fill="#63b8ff" stroke="#63b8ff" points="966.24,-290.02 956.29,-293.66 966.34,-297.02 966.24,-290.02"/>
</a>
</g>
</g>
<!-- Node21 -->
<g id="Node000021" class="node">
<title>Node21</title>
<g id="a_Node000021"><a xlink:href="PiQuadrupoleResult_8h.html" target="_top" xlink:title=" ">
<polygon fill="white" stroke="#666666" points="1976.57,-250 1837.57,-250 1837.57,-231 1976.57,-231 1976.57,-250"/>
<text text-anchor="middle" x="1907.07" y="-238" font-family="Helvetica,sans-Serif" font-size="10.00">src/PiQuadrupoleResult.h</text>
</a>
</g>
</g>
<!-- Node1&#45;&gt;Node21 -->
<g id="edge23_Node000001_Node000021" class="edge">
<title>Node1&#45;&gt;Node21</title>
<g id="a_edge23_Node000001_Node000021"><a xlink:title=" ">
<path fill="none" stroke="#63b8ff" d="M966.45,-292.13C1128.6,-287.03 1506.42,-273.52 1823.07,-250 1827.74,-249.65 1832.57,-249.26 1837.42,-248.84"/>
<polygon fill="#63b8ff" stroke="#63b8ff" points="965.97,-288.64 956.08,-292.45 966.19,-295.64 965.97,-288.64"/>
</a>
</g>
</g>
<!-- Node22 -->
<g id="Node000022" class="node">
<title>Node22</title>
<g id="a_Node000022"><a xlink:href="ProteinConformation_8h.html" target="_top" xlink:title=" ">
<polygon fill="white" stroke="#666666" points="777.07,-250 633.07,-250 633.07,-231 777.07,-231 777.07,-250"/>
<text text-anchor="middle" x="705.07" y="-238" font-family="Helvetica,sans-Serif" font-size="10.00">src/ProteinConformation.h</text>
</a>
</g>
</g>
<!-- Node1&#45;&gt;Node22 -->
<g id="edge24_Node000001_Node000022" class="edge">
<title>Node1&#45;&gt;Node22</title>
<g id="a_edge24_Node000001_Node000022"><a xlink:title=" ">
<path fill="none" stroke="#63b8ff" d="M846.98,-283.06C813.16,-273.15 764.98,-259.04 734.38,-250.08"/>
<polygon fill="#63b8ff" stroke="#63b8ff" points="846.41,-286.53 856.99,-285.98 848.37,-279.82 846.41,-286.53"/>
</a>
</g>
</g>
<!-- Node28 -->
<g id="Node000028" class="node">
<title>Node28</title>
<g id="a_Node000028"><a xlink:href="ProtonationDetectionResult_8h.html" target="_top" xlink:title=" ">
<polygon fill="white" stroke="#666666" points="1776.57,-195 1639.57,-195 1639.57,-165 1776.57,-165 1776.57,-195"/>
<text text-anchor="start" x="1647.57" y="-183" font-family="Helvetica,sans-Serif" font-size="10.00">src/ProtonationDetection</text>
<text text-anchor="middle" x="1708.07" y="-172" font-family="Helvetica,sans-Serif" font-size="10.00">Result.h</text>
</a>
</g>
</g>
<!-- Node1&#45;&gt;Node28 -->
<g id="edge44_Node000001_Node000028" class="edge">
<title>Node1&#45;&gt;Node28</title>
<g id="a_edge44_Node000001_Node000028"><a xlink:title=" ">
<path fill="none" stroke="#63b8ff" d="M966.46,-294.26C1214.11,-293.12 1950.85,-286.67 1986.07,-250 1991.92,-243.91 1991.48,-237.48 1986.07,-231 1959.88,-199.68 1850.16,-187.95 1776.64,-183.58"/>
<polygon fill="#63b8ff" stroke="#63b8ff" points="966.43,-290.76 956.45,-294.3 966.46,-297.76 966.43,-290.76"/>
</a>
</g>
</g>
<!-- Node29 -->
<g id="Node000029" class="node">
<title>Node29</title>
<g id="a_Node000029"><a xlink:href="RingSusceptibilityResult_8h.html" target="_top" xlink:title=" ">
<polygon fill="white" stroke="#666666" points="2232.57,-250 2071.57,-250 2071.57,-231 2232.57,-231 2232.57,-250"/>
<text text-anchor="middle" x="2152.07" y="-238" font-family="Helvetica,sans-Serif" font-size="10.00">src/RingSusceptibilityResult.h</text>
</a>
</g>
</g>
<!-- Node1&#45;&gt;Node29 -->
<g id="edge45_Node000001_Node000029" class="edge">
<title>Node1&#45;&gt;Node29</title>
<g id="a_edge45_Node000001_Node000029"><a xlink:title=" ">
<path fill="none" stroke="#63b8ff" d="M966.25,-292.87C1155.99,-288.7 1647.37,-276.1 2057.07,-250 2061.78,-249.7 2066.62,-249.36 2071.5,-249"/>
<polygon fill="#63b8ff" stroke="#63b8ff" points="966.01,-289.37 956.08,-293.09 966.16,-296.37 966.01,-289.37"/>
</a>
</g>
</g>
<!-- Node4&#45;&gt;Node2 -->
<g id="edge4_Node000004_Node000002" class="edge">
<title>Node4&#45;&gt;Node2</title>
<g id="a_edge4_Node000004_Node000002"><a xlink:title=" ">
<path fill="none" stroke="#63b8ff" d="M541.54,-160.82C537.76,-150.28 533.16,-137.48 530.18,-129.17"/>
<polygon fill="#63b8ff" stroke="#63b8ff" points="538.3,-162.14 544.97,-170.37 544.88,-159.77 538.3,-162.14"/>
</a>
</g>
</g>
<!-- Node10&#45;&gt;Node6 -->
<g id="edge11_Node000010_Node000006" class="edge">
<title>Node10&#45;&gt;Node6</title>
<g id="a_edge11_Node000010_Node000006"><a xlink:title=" ">
<path fill="none" stroke="#63b8ff" d="M728.25,-104.7C744.46,-95.04 765.61,-82.44 779.51,-74.17"/>
<polygon fill="#63b8ff" stroke="#63b8ff" points="726.17,-101.86 719.37,-109.98 729.75,-107.88 726.17,-101.86"/>
</a>
</g>
</g>
<!-- Node10&#45;&gt;Node11 -->
<g id="edge12_Node000010_Node000011" class="edge">
<title>Node10&#45;&gt;Node11</title>
<g id="a_edge12_Node000010_Node000011"><a xlink:title=" ">
<path fill="none" stroke="#63b8ff" d="M685.95,-103.6C673.77,-94.11 658.41,-82.13 648.19,-74.17"/>
<polygon fill="#63b8ff" stroke="#63b8ff" points="684.1,-106.6 694.14,-109.98 688.41,-101.08 684.1,-106.6"/>
</a>
</g>
</g>
<!-- Node11&#45;&gt;Node12 -->
<g id="edge13_Node000011_Node000012" class="edge">
<title>Node11&#45;&gt;Node12</title>
<g id="a_edge13_Node000011_Node000012"><a xlink:title=" ">
<path fill="none" stroke="#63b8ff" d="M714.44,-56.49C827.09,-46.28 1034.95,-27.45 1146.54,-17.34"/>
<polygon fill="#63b8ff" stroke="#63b8ff" points="713.82,-53.03 704.17,-57.42 714.45,-60 713.82,-53.03"/>
</a>
</g>
</g>
<!-- Node22&#45;&gt;Node2 -->
<g id="edge25_Node000022_Node000002" class="edge">
<title>Node22&#45;&gt;Node2</title>
<g id="a_edge25_Node000022_Node000002"><a xlink:title=" ">
<path fill="none" stroke="#63b8ff" d="M693.71,-222.24C682,-205.61 662.35,-180.71 640.07,-165 615.86,-147.93 584.19,-136.19 560.53,-129.07"/>
<polygon fill="#63b8ff" stroke="#63b8ff" points="691.12,-224.66 699.65,-230.95 696.91,-220.71 691.12,-224.66"/>
</a>
</g>
</g>
<!-- Node22&#45;&gt;Node4 -->
<g id="edge26_Node000022_Node000004" class="edge">
<title>Node22&#45;&gt;Node4</title>
<g id="a_edge26_Node000022_Node000004"><a xlink:title=" ">
<path fill="none" stroke="#63b8ff" d="M672.53,-227.38C642.18,-216.07 597.68,-199.49 570.92,-189.52"/>
<polygon fill="#63b8ff" stroke="#63b8ff" points="671.65,-230.78 682.24,-230.99 674.09,-224.22 671.65,-230.78"/>
</a>
</g>
</g>
<!-- Node22&#45;&gt;Node6 -->
<g id="edge27_Node000022_Node000006" class="edge">
<title>Node22&#45;&gt;Node6</title>
<g id="a_edge27_Node000022_Node000006"><a xlink:title=" ">
<path fill="none" stroke="#63b8ff" d="M717.84,-222.63C733.22,-201.65 758.98,-164.28 775.07,-129 783.56,-110.36 789.43,-86.94 792.22,-74.4"/>
<polygon fill="#63b8ff" stroke="#63b8ff" points="714.92,-220.7 711.76,-230.81 720.53,-224.87 714.92,-220.7"/>
</a>
</g>
</g>
<!-- Node22&#45;&gt;Node8 -->
<g id="edge28_Node000022_Node000008" class="edge">
<title>Node22&#45;&gt;Node8</title>
<g id="a_edge28_Node000022_Node000008"><a xlink:title=" ">
<path fill="none" stroke="#63b8ff" d="M622.88,-233.31C542.29,-226.53 416.15,-214.02 308.07,-195 299.7,-193.53 290.74,-191.56 282.43,-189.57"/>
<polygon fill="#63b8ff" stroke="#63b8ff" points="622.71,-236.81 632.96,-234.15 623.29,-229.83 622.71,-236.81"/>
</a>
</g>
</g>
<!-- Node22&#45;&gt;Node9 -->
<g id="edge29_Node000022_Node000009" class="edge">
<title>Node22&#45;&gt;Node9</title>
<g id="a_edge29_Node000022_Node000009"><a xlink:title=" ">
<path fill="none" stroke="#63b8ff" d="M646.3,-229.17C595.82,-220.26 521.12,-206.97 456.07,-195 446.55,-193.25 436.35,-191.34 426.66,-189.51"/>
<polygon fill="#63b8ff" stroke="#63b8ff" points="645.92,-232.66 656.37,-230.95 647.13,-225.76 645.92,-232.66"/>
</a>
</g>
</g>
<!-- Node22&#45;&gt;Node10 -->
<g id="edge30_Node000022_Node000010" class="edge">
<title>Node22&#45;&gt;Node10</title>
<g id="a_edge30_Node000022_Node000010"><a xlink:title=" ">
<path fill="none" stroke="#63b8ff" d="M708.18,-220.66C709.33,-212.76 710.5,-203.46 711.07,-195 711.96,-181.7 711.96,-178.3 711.07,-165 710.23,-152.56 708.1,-138.28 706.61,-129.33"/>
<polygon fill="#63b8ff" stroke="#63b8ff" points="704.7,-220.25 706.61,-230.67 711.61,-221.33 704.7,-220.25"/>
</a>
</g>
</g>
<!-- Node22&#45;&gt;Node11 -->
<g id="edge43_Node000022_Node000011" class="edge">
<title>Node22&#45;&gt;Node11</title>
<g id="a_edge43_Node000022_Node000011"><a xlink:title=" ">
<path fill="none" stroke="#63b8ff" d="M698.44,-221.18C692.33,-205.51 682.35,-182.76 670.07,-165 657.37,-146.65 643.46,-149.68 635.07,-129 627.6,-110.6 631.62,-86.68 634.67,-74.1"/>
<polygon fill="#63b8ff" stroke="#63b8ff" points="695.24,-222.61 702.04,-230.74 701.8,-220.15 695.24,-222.61"/>
</a>
</g>
</g>
<!-- Node22&#45;&gt;Node12 -->
<g id="edge31_Node000022_Node000012" class="edge">
<title>Node22&#45;&gt;Node12</title>
<g id="a_edge31_Node000022_Node000012"><a xlink:title=" ">
<path fill="none" stroke="#63b8ff" d="M787.39,-233.08C868.92,-225.86 987.55,-212.77 1030.07,-195 1050.24,-186.57 1049.69,-175.14 1069.07,-165 1115.77,-140.56 1144.48,-165.95 1182.07,-129 1213.81,-97.8 1220.36,-40.58 1221.72,-19.02"/>
<polygon fill="#63b8ff" stroke="#63b8ff" points="786.8,-229.62 777.14,-233.97 787.41,-236.59 786.8,-229.62"/>
</a>
</g>
</g>
<!-- Node22&#45;&gt;Node18 -->
<g id="edge32_Node000022_Node000018" class="edge">
<title>Node22&#45;&gt;Node18</title>
<g id="a_edge32_Node000022_Node000018"><a xlink:title=" ">
<path fill="none" stroke="#63b8ff" d="M787.22,-231.27C860.17,-223.5 969.54,-210.71 1064.07,-195 1073.45,-193.44 1083.5,-191.49 1092.9,-189.54"/>
<polygon fill="#63b8ff" stroke="#63b8ff" points="786.75,-227.8 777.18,-232.33 787.49,-234.76 786.75,-227.8"/>
</a>
</g>
</g>
<!-- Node22&#45;&gt;Node20 -->
<g id="edge35_Node000022_Node000020" class="edge">
<title>Node22&#45;&gt;Node20</title>
<g id="a_edge35_Node000022_Node000020"><a xlink:title=" ">
<path fill="none" stroke="#63b8ff" d="M787.68,-231.32C788.82,-231.21 789.95,-231.11 791.07,-231 969.66,-214.18 1015.23,-218.48 1193.07,-195 1204.53,-193.49 1216.86,-191.51 1228.32,-189.51"/>
<polygon fill="#63b8ff" stroke="#63b8ff" points="786.95,-227.87 777.32,-232.31 787.61,-234.84 786.95,-227.87"/>
</a>
</g>
</g>
<!-- Node23 -->
<g id="Node000023" class="node">
<title>Node23</title>
<g id="a_Node000023"><a xlink:href="OperationRunner_8h.html" target="_top" xlink:title=" ">
<polygon fill="white" stroke="#666666" points="926.57,-189.5 801.57,-189.5 801.57,-170.5 926.57,-170.5 926.57,-189.5"/>
<text text-anchor="middle" x="864.07" y="-177.5" font-family="Helvetica,sans-Serif" font-size="10.00">src/OperationRunner.h</text>
</a>
</g>
</g>
<!-- Node22&#45;&gt;Node23 -->
<g id="edge33_Node000022_Node000023" class="edge">
<title>Node22&#45;&gt;Node23</title>
<g id="a_edge33_Node000022_Node000023"><a xlink:title=" ">
<path fill="none" stroke="#63b8ff" d="M737.61,-227.52C768.36,-216.21 813.71,-199.53 840.92,-189.52"/>
<polygon fill="#63b8ff" stroke="#63b8ff" points="736.36,-224.26 728.19,-230.99 738.78,-230.83 736.36,-224.26"/>
</a>
</g>
</g>
<!-- Node25 -->
<g id="Node000025" class="node">
<title>Node25</title>
<g id="a_Node000025"><a xlink:href="Protein_8h.html" target="_top" xlink:title=" ">
<polygon fill="white" stroke="#666666" points="1021.57,-189.5 944.57,-189.5 944.57,-170.5 1021.57,-170.5 1021.57,-189.5"/>
<text text-anchor="middle" x="983.07" y="-177.5" font-family="Helvetica,sans-Serif" font-size="10.00">src/Protein.h</text>
</a>
</g>
</g>
<!-- Node22&#45;&gt;Node25 -->
<g id="edge36_Node000022_Node000025" class="edge">
<title>Node22&#45;&gt;Node25</title>
<g id="a_edge36_Node000022_Node000025"><a xlink:title=" ">
<path fill="none" stroke="#63b8ff" d="M766.44,-229.22C812.97,-221.04 878.35,-208.73 935.07,-195 941.73,-193.39 948.85,-191.44 955.52,-189.51"/>
<polygon fill="#63b8ff" stroke="#63b8ff" points="765.77,-225.79 756.52,-230.95 766.97,-232.68 765.77,-225.79"/>
</a>
</g>
</g>
<!-- Node22&#45;&gt;Node28 -->
<g id="edge42_Node000022_Node000028" class="edge">
<title>Node22&#45;&gt;Node28</title>
<g id="a_edge42_Node000022_Node000028"><a xlink:title=" ">
<path fill="none" stroke="#63b8ff" d="M787.37,-233.46C799.67,-232.61 812.2,-231.76 824.07,-231 1128,-211.55 1490.97,-192.26 1639.55,-184.53"/>
<polygon fill="#63b8ff" stroke="#63b8ff" points="786.84,-229.99 777.11,-234.18 787.33,-236.97 786.84,-229.99"/>
</a>
</g>
</g>
<!-- Node24 -->
<g id="Node000024" class="node">
<title>Node24</title>
<g id="a_Node000024"><a xlink:href="GromacsEnsembleLoader_8h.html" target="_top" xlink:title=" ">
<polygon fill="white" stroke="#666666" points="988.57,-129 821.57,-129 821.57,-110 988.57,-110 988.57,-129"/>
<text text-anchor="middle" x="905.07" y="-117" font-family="Helvetica,sans-Serif" font-size="10.00">src/GromacsEnsembleLoader.h</text>
</a>
</g>
</g>
<!-- Node23&#45;&gt;Node24 -->
<g id="edge34_Node000023_Node000024" class="edge">
<title>Node23&#45;&gt;Node24</title>
<g id="a_edge34_Node000023_Node000024"><a xlink:title=" ">
<path fill="none" stroke="#63b8ff" d="M875.89,-162.13C883.45,-151.35 892.93,-137.82 898.99,-129.17"/>
<polygon fill="#63b8ff" stroke="#63b8ff" points="872.99,-160.17 870.12,-170.37 878.72,-164.19 872.99,-160.17"/>
</a>
</g>
</g>
<!-- Node25&#45;&gt;Node10 -->
<g id="edge37_Node000025_Node000010" class="edge">
<title>Node25&#45;&gt;Node10</title>
<g id="a_edge37_Node000025_Node000010"><a xlink:title=" ">
<path fill="none" stroke="#63b8ff" d="M945.62,-167.71C942.06,-166.75 938.5,-165.83 935.07,-165 874.19,-150.27 803.32,-137.16 756.52,-129.05"/>
<polygon fill="#63b8ff" stroke="#63b8ff" points="944.94,-171.16 955.52,-170.49 946.83,-164.42 944.94,-171.16"/>
</a>
</g>
</g>
<!-- Node25&#45;&gt;Node24 -->
<g id="edge38_Node000025_Node000024" class="edge">
<title>Node25&#45;&gt;Node24</title>
<g id="a_edge38_Node000025_Node000024"><a xlink:title=" ">
<path fill="none" stroke="#63b8ff" d="M963.53,-164.35C948.76,-153.27 928.97,-138.43 916.62,-129.17"/>
<polygon fill="#63b8ff" stroke="#63b8ff" points="961.46,-167.17 971.56,-170.37 965.66,-161.57 961.46,-167.17"/>
</a>
</g>
</g>
<!-- Node26 -->
<g id="Node000026" class="node">
<title>Node26</title>
<g id="a_Node000026"><a xlink:href="OrcaRunLoader_8h.html" target="_top" xlink:title=" ">
<polygon fill="white" stroke="#666666" points="1176.07,-74 1060.07,-74 1060.07,-55 1176.07,-55 1176.07,-74"/>
<text text-anchor="middle" x="1118.07" y="-62" font-family="Helvetica,sans-Serif" font-size="10.00">src/OrcaRunLoader.h</text>
</a>
</g>
</g>
<!-- Node25&#45;&gt;Node26 -->
<g id="edge39_Node000025_Node000026" class="edge">
<title>Node25&#45;&gt;Node26</title>
<g id="a_edge39_Node000025_Node000026"><a xlink:title=" ">
<path fill="none" stroke="#63b8ff" d="M1025.25,-167.74C1078.67,-153.44 1163.98,-130.43 1165.07,-129 1179.87,-109.58 1151.36,-86.47 1132.62,-74.19"/>
<polygon fill="#63b8ff" stroke="#63b8ff" points="1024.11,-164.43 1015.35,-170.39 1025.92,-171.19 1024.11,-164.43"/>
</a>
</g>
</g>
<!-- Node27 -->
<g id="Node000027" class="node">
<title>Node27</title>
<g id="a_Node000027"><a xlink:href="PdbFileReader_8h.html" target="_top" xlink:title=" ">
<polygon fill="white" stroke="#666666" points="1156.07,-129 1044.07,-129 1044.07,-110 1156.07,-110 1156.07,-129"/>
<text text-anchor="middle" x="1100.07" y="-117" font-family="Helvetica,sans-Serif" font-size="10.00">src/PdbFileReader.h</text>
</a>
</g>
</g>
<!-- Node25&#45;&gt;Node27 -->
<g id="edge40_Node000025_Node000027" class="edge">
<title>Node25&#45;&gt;Node27</title>
<g id="a_edge40_Node000025_Node000027"><a xlink:title=" ">
<path fill="none" stroke="#63b8ff" d="M1009.1,-165.98C1031.65,-154.71 1063.62,-138.73 1083.03,-129.02"/>
<polygon fill="#63b8ff" stroke="#63b8ff" points="1007.46,-162.89 1000.08,-170.49 1010.59,-169.15 1007.46,-162.89"/>
</a>
</g>
</g>
<!-- Node27&#45;&gt;Node26 -->
<g id="edge41_Node000027_Node000026" class="edge">
<title>Node27&#45;&gt;Node26</title>
<g id="a_edge41_Node000027_Node000026"><a xlink:title=" ">
<path fill="none" stroke="#63b8ff" d="M1106.27,-100.24C1109.28,-91.37 1112.76,-81.14 1115.15,-74.09"/>
<polygon fill="#63b8ff" stroke="#63b8ff" points="1102.94,-99.15 1103.04,-109.75 1109.57,-101.4 1102.94,-99.15"/>
</a>
</g>
</g>
</g>
</svg>
