<?xml version="1.0" encoding="UTF-8" standalone="no"?>
<!DOCTYPE svg PUBLIC "-//W3C//DTD SVG 1.1//EN"
 "http://www.w3.org/Graphics/SVG/1.1/DTD/svg11.dtd">
<!-- Generated by graphviz version 2.43.0 (0)
 -->
<!-- Title: src/DemoResult.h Pages: 1 -->
<svg width="1692pt" height="357pt"
 viewBox="0.00 0.00 1691.70 357.00" xmlns="http://www.w3.org/2000/svg" xmlns:xlink="http://www.w3.org/1999/xlink">
<g id="graph0" class="graph" transform="scale(1 1) rotate(0) translate(4 353)">
<title>src/DemoResult.h</title>
<!-- Node1 -->
<g id="Node000001" class="node">
<title>Node1</title>
<g id="a_Node000001"><a xlink:title=" ">
<polygon fill="#999999" stroke="#666666" points="738,-349 635,-349 635,-330 738,-330 738,-349"/>
<text text-anchor="middle" x="686.5" y="-337" font-family="Helvetica,sans-Serif" font-size="10.00">src/DemoResult.h</text>
</a>
</g>
</g>
<!-- Node2 -->
<g id="Node000002" class="node">
<title>Node2</title>
<g id="a_Node000002"><a xlink:href="ConformationResult_8h.html" target="_top" xlink:title=" ">
<polygon fill="white" stroke="#666666" points="379,-129 256,-129 256,-110 379,-110 379,-129"/>
<text text-anchor="middle" x="317.5" y="-117" font-family="Helvetica,sans-Serif" font-size="10.00">ConformationResult.h</text>
</a>
</g>
</g>
<!-- Node1&#45;&gt;Node2 -->
<g id="edge1_Node000001_Node000002" class="edge">
<title>Node1&#45;&gt;Node2</title>
<g id="a_edge1_Node000001_Node000002"><a xlink:title=" ">
<path fill="none" stroke="#63b8ff" d="M671.5,-329.89C631,-306.64 516.17,-240.49 421.5,-184 393.17,-167.1 360.77,-147.23 339.77,-134.28"/>
<polygon fill="#63b8ff" stroke="#63b8ff" points="341.59,-131.29 331.24,-129.01 337.91,-137.24 341.59,-131.29"/>
</a>
</g>
</g>
<!-- Node7 -->
<g id="Node000007" class="node">
<title>Node7</title>
<g id="a_Node000007"><a xlink:href="GeometryResult_8h.html" target="_top" xlink:title=" ">
<polygon fill="white" stroke="#666666" points="739,-294 634,-294 634,-275 739,-275 739,-294"/>
<text text-anchor="middle" x="686.5" y="-282" font-family="Helvetica,sans-Serif" font-size="10.00">GeometryResult.h</text>
</a>
</g>
</g>
<!-- Node1&#45;&gt;Node7 -->
<g id="edge6_Node000001_Node000007" class="edge">
<title>Node1&#45;&gt;Node7</title>
<g id="a_edge6_Node000001_Node000007"><a xlink:title=" ">
<path fill="none" stroke="#63b8ff" d="M686.5,-329.75C686.5,-322.8 686.5,-312.85 686.5,-304.13"/>
<polygon fill="#63b8ff" stroke="#63b8ff" points="690,-304.09 686.5,-294.09 683,-304.09 690,-304.09"/>
</a>
</g>
</g>
<!-- Node8 -->
<g id="Node000008" class="node">
<title>Node8</title>
<g id="a_Node000008"><a xlink:href="ProteinConformation_8h.html" target="_top" xlink:title=" ">
<polygon fill="white" stroke="#666666" points="1263,-184 1136,-184 1136,-165 1263,-165 1263,-184"/>
<text text-anchor="middle" x="1199.5" y="-172" font-family="Helvetica,sans-Serif" font-size="10.00">ProteinConformation.h</text>
</a>
</g>
</g>
<!-- Node1&#45;&gt;Node8 -->
<g id="edge71_Node000001_Node000008" class="edge">
<title>Node1&#45;&gt;Node8</title>
<g id="a_edge71_Node000001_Node000008"><a xlink:title=" ">
<path fill="none" stroke="#63b8ff" d="M713.36,-329.97C798.88,-302.79 1064.93,-218.26 1162.85,-187.15"/>
<polygon fill="#63b8ff" stroke="#63b8ff" points="1164.13,-190.41 1172.6,-184.05 1162.01,-183.74 1164.13,-190.41"/>
</a>
</g>
</g>
<!-- Node3 -->
<g id="Node000003" class="node">
<title>Node3</title>
<g id="a_Node000003"><a xlink:title=" ">
<polygon fill="#e0e0e0" stroke="#999999" points="939.5,-19 895.5,-19 895.5,0 939.5,0 939.5,-19"/>
<text text-anchor="middle" x="917.5" y="-7" font-family="Helvetica,sans-Serif" font-size="10.00">string</text>
</a>
</g>
</g>
<!-- Node2&#45;&gt;Node3 -->
<g id="edge2_Node000002_Node000003" class="edge">
<title>Node2&#45;&gt;Node3</title>
<g id="a_edge2_Node000002_Node000003"><a xlink:title=" ">
<path fill="none" stroke="#63b8ff" d="M320.19,-109.67C325.04,-95.38 336.76,-67.54 357.5,-55 402.72,-27.65 772.84,-14.71 885.25,-11.39"/>
<polygon fill="#63b8ff" stroke="#63b8ff" points="885.41,-14.89 895.3,-11.1 885.2,-7.89 885.41,-14.89"/>
</a>
</g>
</g>
<!-- Node4 -->
<g id="Node000004" class="node">
<title>Node4</title>
<g id="a_Node000004"><a xlink:title=" ">
<polygon fill="#e0e0e0" stroke="#999999" points="687,-74 640,-74 640,-55 687,-55 687,-74"/>
<text text-anchor="middle" x="663.5" y="-62" font-family="Helvetica,sans-Serif" font-size="10.00">vector</text>
</a>
</g>
</g>
<!-- Node2&#45;&gt;Node4 -->
<g id="edge3_Node000002_Node000004" class="edge">
<title>Node2&#45;&gt;Node4</title>
<g id="a_edge3_Node000002_Node000004"><a xlink:title=" ">
<path fill="none" stroke="#63b8ff" d="M373.09,-109.98C445.53,-98.89 569.98,-79.82 629.66,-70.68"/>
<polygon fill="#63b8ff" stroke="#63b8ff" points="630.32,-74.12 639.68,-69.15 629.26,-67.2 630.32,-74.12"/>
</a>
</g>
</g>
<!-- Node5 -->
<g id="Node000005" class="node">
<title>Node5</title>
<g id="a_Node000005"><a xlink:title=" ">
<polygon fill="#e0e0e0" stroke="#999999" points="432,-74 367,-74 367,-55 432,-55 432,-74"/>
<text text-anchor="middle" x="399.5" y="-62" font-family="Helvetica,sans-Serif" font-size="10.00">typeindex</text>
</a>
</g>
</g>
<!-- Node2&#45;&gt;Node5 -->
<g id="edge4_Node000002_Node000005" class="edge">
<title>Node2&#45;&gt;Node5</title>
<g id="a_edge4_Node000002_Node000005"><a xlink:title=" ">
<path fill="none" stroke="#63b8ff" d="M330.67,-109.98C343.27,-101.84 362.5,-89.41 377.44,-79.76"/>
<polygon fill="#63b8ff" stroke="#63b8ff" points="379.59,-82.54 386.09,-74.17 375.79,-76.66 379.59,-82.54"/>
</a>
</g>
</g>
<!-- Node6 -->
<g id="Node000006" class="node">
<title>Node6</title>
<g id="a_Node000006"><a xlink:title=" ">
<polygon fill="#e0e0e0" stroke="#999999" points="256.5,-74 198.5,-74 198.5,-55 256.5,-55 256.5,-74"/>
<text text-anchor="middle" x="227.5" y="-62" font-family="Helvetica,sans-Serif" font-size="10.00">memory</text>
</a>
</g>
</g>
<!-- Node2&#45;&gt;Node6 -->
<g id="edge5_Node000002_Node000006" class="edge">
<title>Node2&#45;&gt;Node6</title>
<g id="a_edge5_Node000002_Node000006"><a xlink:title=" ">
<path fill="none" stroke="#63b8ff" d="M303.04,-109.98C289.08,-101.77 267.71,-89.18 251.25,-79.49"/>
<polygon fill="#63b8ff" stroke="#63b8ff" points="252.62,-76.23 242.22,-74.17 249.06,-82.26 252.62,-76.23"/>
</a>
</g>
</g>
<!-- Node7&#45;&gt;Node2 -->
<g id="edge7_Node000007_Node000002" class="edge">
<title>Node7&#45;&gt;Node2</title>
<g id="a_edge7_Node000007_Node000002"><a xlink:title=" ">
<path fill="none" stroke="#63b8ff" d="M667.18,-274.97C606.42,-248.13 418.97,-165.32 346.51,-133.31"/>
<polygon fill="#63b8ff" stroke="#63b8ff" points="347.63,-129.99 337.07,-129.15 344.81,-136.39 347.63,-129.99"/>
</a>
</g>
</g>
<!-- Node7&#45;&gt;Node8 -->
<g id="edge8_Node000007_Node000008" class="edge">
<title>Node7&#45;&gt;Node8</title>
<g id="a_edge8_Node000007_Node000008"><a xlink:title=" ">
<path fill="none" stroke="#63b8ff" d="M727.18,-274.94C819.97,-255.4 1047.07,-207.59 1148.79,-186.18"/>
<polygon fill="#63b8ff" stroke="#63b8ff" points="1149.75,-189.55 1158.81,-184.07 1148.31,-182.7 1149.75,-189.55"/>
</a>
</g>
</g>
<!-- Node20 -->
<g id="Node000020" class="node">
<title>Node20</title>
<g id="a_Node000020"><a xlink:href="Protein_8h.html" target="_top" xlink:title=" ">
<polygon fill="white" stroke="#666666" points="716.5,-239 656.5,-239 656.5,-220 716.5,-220 716.5,-239"/>
<text text-anchor="middle" x="686.5" y="-227" font-family="Helvetica,sans-Serif" font-size="10.00">Protein.h</text>
</a>
</g>
</g>
<!-- Node7&#45;&gt;Node20 -->
<g id="edge37_Node000007_Node000020" class="edge">
<title>Node7&#45;&gt;Node20</title>
<g id="a_edge37_Node000007_Node000020"><a xlink:title=" ">
<path fill="none" stroke="#63b8ff" d="M686.5,-274.75C686.5,-267.8 686.5,-257.85 686.5,-249.13"/>
<polygon fill="#63b8ff" stroke="#63b8ff" points="690,-249.09 686.5,-239.09 683,-249.09 690,-249.09"/>
</a>
</g>
</g>
<!-- Node8&#45;&gt;Node2 -->
<g id="edge18_Node000008_Node000002" class="edge">
<title>Node8&#45;&gt;Node2</title>
<g id="a_edge18_Node000008_Node000002"><a xlink:title=" ">
<path fill="none" stroke="#63b8ff" d="M1135.94,-171.21C999.7,-166.02 669.5,-152.03 393.5,-129 392.2,-128.89 390.88,-128.78 389.56,-128.66"/>
<polygon fill="#63b8ff" stroke="#63b8ff" points="389.56,-125.15 379.27,-127.7 388.91,-132.12 389.56,-125.15"/>
</a>
</g>
</g>
<!-- Node8&#45;&gt;Node3 -->
<g id="edge35_Node000008_Node000003" class="edge">
<title>Node8&#45;&gt;Node3</title>
<g id="a_edge35_Node000008_Node000003"><a xlink:title=" ">
<path fill="none" stroke="#63b8ff" d="M1263.24,-171.49C1330.91,-167.86 1431.4,-157.65 1455.5,-129 1476.67,-103.83 1477.78,-79.2 1455.5,-55 1451.18,-50.31 1065.13,-21.41 949.73,-12.87"/>
<polygon fill="#63b8ff" stroke="#63b8ff" points="949.96,-9.38 939.73,-12.14 949.44,-16.36 949.96,-9.38"/>
</a>
</g>
</g>
<!-- Node8&#45;&gt;Node4 -->
<g id="edge30_Node000008_Node000004" class="edge">
<title>Node8&#45;&gt;Node4</title>
<g id="a_edge30_Node000008_Node000004"><a xlink:title=" ">
<path fill="none" stroke="#63b8ff" d="M1135.69,-169.87C1034.85,-163.6 843.44,-149.44 778.5,-129 773.65,-127.47 719.72,-97.24 687.46,-79.05"/>
<polygon fill="#63b8ff" stroke="#63b8ff" points="689.04,-75.92 678.61,-74.05 685.6,-82.02 689.04,-75.92"/>
</a>
</g>
</g>
<!-- Node8&#45;&gt;Node5 -->
<g id="edge33_Node000008_Node000005" class="edge">
<title>Node8&#45;&gt;Node5</title>
<g id="a_edge33_Node000008_Node000005"><a xlink:title=" ">
<path fill="none" stroke="#63b8ff" d="M1135.75,-171.65C955.84,-166.2 455.32,-149.28 426.5,-129 411.98,-118.78 405.22,-99.11 402.11,-84.36"/>
<polygon fill="#63b8ff" stroke="#63b8ff" points="405.51,-83.53 400.36,-74.27 398.62,-84.72 405.51,-83.53"/>
</a>
</g>
</g>
<!-- Node8&#45;&gt;Node6 -->
<g id="edge34_Node000008_Node000006" class="edge">
<title>Node8&#45;&gt;Node6</title>
<g id="a_edge34_Node000008_Node000006"><a xlink:title=" ">
<path fill="none" stroke="#63b8ff" d="M1135.71,-171.51C925.07,-164.8 264.05,-142.71 246.5,-129 233.06,-118.5 228.81,-98.87 227.62,-84.2"/>
<polygon fill="#63b8ff" stroke="#63b8ff" points="231.12,-84.04 227.2,-74.19 224.12,-84.33 231.12,-84.04"/>
</a>
</g>
</g>
<!-- Node9 -->
<g id="Node000009" class="node">
<title>Node9</title>
<g id="a_Node000009"><a xlink:href="Types_8h.html" target="_top" xlink:title=" ">
<polygon fill="white" stroke="#666666" points="1096,-74 1043,-74 1043,-55 1096,-55 1096,-74"/>
<text text-anchor="middle" x="1069.5" y="-62" font-family="Helvetica,sans-Serif" font-size="10.00">Types.h</text>
</a>
</g>
</g>
<!-- Node8&#45;&gt;Node9 -->
<g id="edge9_Node000008_Node000009" class="edge">
<title>Node8&#45;&gt;Node9</title>
<g id="a_edge9_Node000008_Node000009"><a xlink:title=" ">
<path fill="none" stroke="#63b8ff" d="M1232.27,-165C1266.36,-154.57 1312.1,-135.14 1291.5,-110 1279.84,-95.77 1166.45,-78.55 1106.4,-70.32"/>
<polygon fill="#63b8ff" stroke="#63b8ff" points="1106.58,-66.82 1096.2,-68.94 1105.64,-73.75 1106.58,-66.82"/>
</a>
</g>
</g>
<!-- Node13 -->
<g id="Node000013" class="node">
<title>Node13</title>
<g id="a_Node000013"><a xlink:href="ConformationAtom_8h.html" target="_top" xlink:title=" ">
<polygon fill="white" stroke="#666666" points="1282,-129 1163,-129 1163,-110 1282,-110 1282,-129"/>
<text text-anchor="middle" x="1222.5" y="-117" font-family="Helvetica,sans-Serif" font-size="10.00">ConformationAtom.h</text>
</a>
</g>
</g>
<!-- Node8&#45;&gt;Node13 -->
<g id="edge14_Node000008_Node000013" class="edge">
<title>Node8&#45;&gt;Node13</title>
<g id="a_edge14_Node000008_Node000013"><a xlink:title=" ">
<path fill="none" stroke="#63b8ff" d="M1203.3,-164.75C1206.41,-157.57 1210.92,-147.18 1214.79,-138.27"/>
<polygon fill="#63b8ff" stroke="#63b8ff" points="1218,-139.66 1218.77,-129.09 1211.58,-136.87 1218,-139.66"/>
</a>
</g>
</g>
<!-- Node14 -->
<g id="Node000014" class="node">
<title>Node14</title>
<g id="a_Node000014"><a xlink:href="GeometryChoice_8h.html" target="_top" xlink:title=" ">
<polygon fill="white" stroke="#666666" points="1446,-129 1339,-129 1339,-110 1446,-110 1446,-129"/>
<text text-anchor="middle" x="1392.5" y="-117" font-family="Helvetica,sans-Serif" font-size="10.00">GeometryChoice.h</text>
</a>
</g>
</g>
<!-- Node8&#45;&gt;Node14 -->
<g id="edge19_Node000008_Node000014" class="edge">
<title>Node8&#45;&gt;Node14</title>
<g id="a_edge19_Node000008_Node000014"><a xlink:title=" ">
<path fill="none" stroke="#63b8ff" d="M1230.51,-164.98C1263.33,-155.97 1315.3,-141.7 1351.49,-131.76"/>
<polygon fill="#63b8ff" stroke="#63b8ff" points="1352.53,-135.11 1361.25,-129.08 1350.68,-128.36 1352.53,-135.11"/>
</a>
</g>
</g>
<!-- Node16 -->
<g id="Node000016" class="node">
<title>Node16</title>
<g id="a_Node000016"><a xlink:href="Ring_8h.html" target="_top" xlink:title=" ">
<polygon fill="white" stroke="#666666" points="1145,-129 1098,-129 1098,-110 1145,-110 1145,-129"/>
<text text-anchor="middle" x="1121.5" y="-117" font-family="Helvetica,sans-Serif" font-size="10.00">Ring.h</text>
</a>
</g>
</g>
<!-- Node8&#45;&gt;Node16 -->
<g id="edge24_Node000008_Node000016" class="edge">
<title>Node8&#45;&gt;Node16</title>
<g id="a_edge24_Node000008_Node000016"><a xlink:title=" ">
<path fill="none" stroke="#63b8ff" d="M1186.97,-164.98C1175.1,-156.92 1157.04,-144.65 1142.89,-135.03"/>
<polygon fill="#63b8ff" stroke="#63b8ff" points="1144.5,-131.9 1134.26,-129.17 1140.56,-137.69 1144.5,-131.9"/>
</a>
</g>
</g>
<!-- Node17 -->
<g id="Node000017" class="node">
<title>Node17</title>
<g id="a_Node000017"><a xlink:title=" ">
<polygon fill="#e0e0e0" stroke="#999999" points="1446.5,-74 1408.5,-74 1408.5,-55 1446.5,-55 1446.5,-74"/>
<text text-anchor="middle" x="1427.5" y="-62" font-family="Helvetica,sans-Serif" font-size="10.00">map</text>
</a>
</g>
</g>
<!-- Node8&#45;&gt;Node17 -->
<g id="edge31_Node000008_Node000017" class="edge">
<title>Node8&#45;&gt;Node17</title>
<g id="a_edge31_Node000008_Node000017"><a xlink:title=" ">
<path fill="none" stroke="#63b8ff" d="M1263.11,-172.27C1387.22,-169.21 1651.98,-159.19 1679.5,-129 1685.19,-122.76 1684.93,-116.47 1679.5,-110 1651.35,-76.45 1517.09,-68.18 1456.86,-66.15"/>
<polygon fill="#63b8ff" stroke="#63b8ff" points="1456.95,-62.66 1446.85,-65.85 1456.74,-69.65 1456.95,-62.66"/>
</a>
</g>
</g>
<!-- Node18 -->
<g id="Node000018" class="node">
<title>Node18</title>
<g id="a_Node000018"><a xlink:title=" ">
<polygon fill="#e0e0e0" stroke="#999999" points="1596,-129 1503,-129 1503,-110 1596,-110 1596,-129"/>
<text text-anchor="middle" x="1549.5" y="-117" font-family="Helvetica,sans-Serif" font-size="10.00">unordered_map</text>
</a>
</g>
</g>
<!-- Node8&#45;&gt;Node18 -->
<g id="edge32_Node000008_Node000018" class="edge">
<title>Node8&#45;&gt;Node18</title>
<g id="a_edge32_Node000008_Node000018"><a xlink:title=" ">
<path fill="none" stroke="#63b8ff" d="M1255.73,-164.98C1320.85,-155.12 1427.5,-138.97 1492.81,-129.08"/>
<polygon fill="#63b8ff" stroke="#63b8ff" points="1493.56,-132.51 1502.92,-127.55 1492.51,-125.59 1493.56,-132.51"/>
</a>
</g>
</g>
<!-- Node19 -->
<g id="Node000019" class="node">
<title>Node19</title>
<g id="a_Node000019"><a xlink:title=" ">
<polygon fill="#e0e0e0" stroke="#999999" points="1670.5,-129 1614.5,-129 1614.5,-110 1670.5,-110 1670.5,-129"/>
<text text-anchor="middle" x="1642.5" y="-117" font-family="Helvetica,sans-Serif" font-size="10.00">sstream</text>
</a>
</g>
</g>
<!-- Node8&#45;&gt;Node19 -->
<g id="edge36_Node000008_Node000019" class="edge">
<title>Node8&#45;&gt;Node19</title>
<g id="a_edge36_Node000008_Node000019"><a xlink:title=" ">
<path fill="none" stroke="#63b8ff" d="M1263.11,-168.84C1341.19,-162.6 1477.8,-150.02 1604.05,-129.06"/>
<polygon fill="#63b8ff" stroke="#63b8ff" points="1605.01,-132.45 1614.29,-127.34 1603.84,-125.55 1605.01,-132.45"/>
</a>
</g>
</g>
<!-- Node9&#45;&gt;Node3 -->
<g id="edge13_Node000009_Node000003" class="edge">
<title>Node9&#45;&gt;Node3</title>
<g id="a_edge13_Node000009_Node000003"><a xlink:title=" ">
<path fill="none" stroke="#63b8ff" d="M1045.08,-54.98C1019.1,-45.93 977.91,-31.56 949.39,-21.62"/>
<polygon fill="#63b8ff" stroke="#63b8ff" points="950.47,-18.29 939.88,-18.3 948.17,-24.9 950.47,-18.29"/>
</a>
</g>
</g>
<!-- Node10 -->
<g id="Node000010" class="node">
<title>Node10</title>
<g id="a_Node000010"><a xlink:title=" ">
<polygon fill="#e0e0e0" stroke="#999999" points="1124,-19 1047,-19 1047,0 1124,0 1124,-19"/>
<text text-anchor="middle" x="1085.5" y="-7" font-family="Helvetica,sans-Serif" font-size="10.00">Eigen/Dense</text>
</a>
</g>
</g>
<!-- Node9&#45;&gt;Node10 -->
<g id="edge10_Node000009_Node000010" class="edge">
<title>Node9&#45;&gt;Node10</title>
<g id="a_edge10_Node000009_Node000010"><a xlink:title=" ">
<path fill="none" stroke="#63b8ff" d="M1072.14,-54.75C1074.26,-47.72 1077.31,-37.62 1079.96,-28.84"/>
<polygon fill="#63b8ff" stroke="#63b8ff" points="1083.37,-29.67 1082.91,-19.09 1076.67,-27.65 1083.37,-29.67"/>
</a>
</g>
</g>
<!-- Node11 -->
<g id="Node000011" class="node">
<title>Node11</title>
<g id="a_Node000011"><a xlink:title=" ">
<polygon fill="#e0e0e0" stroke="#999999" points="1216.5,-19 1174.5,-19 1174.5,0 1216.5,0 1216.5,-19"/>
<text text-anchor="middle" x="1195.5" y="-7" font-family="Helvetica,sans-Serif" font-size="10.00">array</text>
</a>
</g>
</g>
<!-- Node9&#45;&gt;Node11 -->
<g id="edge11_Node000009_Node000011" class="edge">
<title>Node9&#45;&gt;Node11</title>
<g id="a_edge11_Node000009_Node000011"><a xlink:title=" ">
<path fill="none" stroke="#63b8ff" d="M1089.74,-54.98C1110.2,-46.38 1142.03,-32.99 1165.43,-23.15"/>
<polygon fill="#63b8ff" stroke="#63b8ff" points="1167.03,-26.27 1174.89,-19.17 1164.31,-19.82 1167.03,-26.27"/>
</a>
</g>
</g>
<!-- Node12 -->
<g id="Node000012" class="node">
<title>Node12</title>
<g id="a_Node000012"><a xlink:title=" ">
<polygon fill="#e0e0e0" stroke="#999999" points="490,-19 443,-19 443,0 490,0 490,-19"/>
<text text-anchor="middle" x="466.5" y="-7" font-family="Helvetica,sans-Serif" font-size="10.00">cmath</text>
</a>
</g>
</g>
<!-- Node9&#45;&gt;Node12 -->
<g id="edge12_Node000009_Node000012" class="edge">
<title>Node9&#45;&gt;Node12</title>
<g id="a_edge12_Node000009_Node000012"><a xlink:title=" ">
<path fill="none" stroke="#63b8ff" d="M1042.81,-61.15C945.31,-52.58 608.47,-22.98 500.25,-13.47"/>
<polygon fill="#63b8ff" stroke="#63b8ff" points="500.49,-9.97 490.22,-12.59 499.88,-16.95 500.49,-9.97"/>
</a>
</g>
</g>
<!-- Node13&#45;&gt;Node4 -->
<g id="edge16_Node000013_Node000004" class="edge">
<title>Node13&#45;&gt;Node4</title>
<g id="a_edge16_Node000013_Node000004"><a xlink:title=" ">
<path fill="none" stroke="#63b8ff" d="M1162.81,-110.92C1160,-110.6 1157.22,-110.29 1154.5,-110 983.01,-91.52 777.25,-74.56 697.44,-68.18"/>
<polygon fill="#63b8ff" stroke="#63b8ff" points="697.28,-64.65 687.04,-67.35 696.73,-71.63 697.28,-64.65"/>
</a>
</g>
</g>
<!-- Node13&#45;&gt;Node9 -->
<g id="edge15_Node000013_Node000009" class="edge">
<title>Node13&#45;&gt;Node9</title>
<g id="a_edge15_Node000013_Node000009"><a xlink:title=" ">
<path fill="none" stroke="#63b8ff" d="M1197.92,-109.98C1172.45,-101.16 1132.46,-87.31 1103.87,-77.41"/>
<polygon fill="#63b8ff" stroke="#63b8ff" points="1104.87,-74.05 1094.27,-74.08 1102.58,-80.66 1104.87,-74.05"/>
</a>
</g>
</g>
<!-- Node13&#45;&gt;Node11 -->
<g id="edge17_Node000013_Node000011" class="edge">
<title>Node13&#45;&gt;Node11</title>
<g id="a_edge17_Node000013_Node000011"><a xlink:title=" ">
<path fill="none" stroke="#63b8ff" d="M1220.29,-109.66C1215.9,-92.09 1205.99,-52.45 1200.11,-28.95"/>
<polygon fill="#63b8ff" stroke="#63b8ff" points="1203.49,-28.01 1197.66,-19.16 1196.69,-29.71 1203.49,-28.01"/>
</a>
</g>
</g>
<!-- Node14&#45;&gt;Node3 -->
<g id="edge21_Node000014_Node000003" class="edge">
<title>Node14&#45;&gt;Node3</title>
<g id="a_edge21_Node000014_Node000003"><a xlink:title=" ">
<path fill="none" stroke="#63b8ff" d="M1354.83,-109.94C1263.94,-89.27 1033.87,-36.96 949.31,-17.73"/>
<polygon fill="#63b8ff" stroke="#63b8ff" points="950.04,-14.31 939.51,-15.5 948.49,-21.13 950.04,-14.31"/>
</a>
</g>
</g>
<!-- Node14&#45;&gt;Node4 -->
<g id="edge22_Node000014_Node000004" class="edge">
<title>Node14&#45;&gt;Node4</title>
<g id="a_edge22_Node000014_Node000004"><a xlink:title=" ">
<path fill="none" stroke="#63b8ff" d="M1338.78,-113.85C1323.51,-112.56 1306.85,-111.19 1291.5,-110 1064.59,-92.41 791.33,-74 697.24,-67.73"/>
<polygon fill="#63b8ff" stroke="#63b8ff" points="697.39,-64.24 687.18,-67.06 696.92,-71.22 697.39,-64.24"/>
</a>
</g>
</g>
<!-- Node14&#45;&gt;Node9 -->
<g id="edge20_Node000014_Node000009" class="edge">
<title>Node14&#45;&gt;Node9</title>
<g id="a_edge20_Node000014_Node000009"><a xlink:title=" ">
<path fill="none" stroke="#63b8ff" d="M1340.6,-109.98C1274.96,-99.21 1163.58,-80.94 1106.16,-71.51"/>
<polygon fill="#63b8ff" stroke="#63b8ff" points="1106.52,-68.03 1096.08,-69.86 1105.39,-74.94 1106.52,-68.03"/>
</a>
</g>
</g>
<!-- Node15 -->
<g id="Node000015" class="node">
<title>Node15</title>
<g id="a_Node000015"><a xlink:title=" ">
<polygon fill="#e0e0e0" stroke="#999999" points="1390,-74 1325,-74 1325,-55 1390,-55 1390,-74"/>
<text text-anchor="middle" x="1357.5" y="-62" font-family="Helvetica,sans-Serif" font-size="10.00">functional</text>
</a>
</g>
</g>
<!-- Node14&#45;&gt;Node15 -->
<g id="edge23_Node000014_Node000015" class="edge">
<title>Node14&#45;&gt;Node15</title>
<g id="a_edge23_Node000014_Node000015"><a xlink:title=" ">
<path fill="none" stroke="#63b8ff" d="M1386.72,-109.75C1381.88,-102.42 1374.82,-91.73 1368.86,-82.7"/>
<polygon fill="#63b8ff" stroke="#63b8ff" points="1371.6,-80.5 1363.17,-74.09 1365.76,-84.36 1371.6,-80.5"/>
</a>
</g>
</g>
<!-- Node16&#45;&gt;Node4 -->
<g id="edge27_Node000016_Node000004" class="edge">
<title>Node16&#45;&gt;Node4</title>
<g id="a_edge27_Node000016_Node000004"><a xlink:title=" ">
<path fill="none" stroke="#63b8ff" d="M1097.84,-115.76C1022.06,-106.99 785.19,-79.58 697.01,-69.38"/>
<polygon fill="#63b8ff" stroke="#63b8ff" points="697.35,-65.89 687.02,-68.22 696.55,-72.85 697.35,-65.89"/>
</a>
</g>
</g>
<!-- Node16&#45;&gt;Node6 -->
<g id="edge29_Node000016_Node000006" class="edge">
<title>Node16&#45;&gt;Node6</title>
<g id="a_edge29_Node000016_Node000006"><a xlink:title=" ">
<path fill="none" stroke="#63b8ff" d="M1097.73,-117.18C1003.79,-111.94 649.24,-92.03 357.5,-74 327.04,-72.12 292.58,-69.86 266.8,-68.14"/>
<polygon fill="#63b8ff" stroke="#63b8ff" points="266.88,-64.64 256.67,-67.47 266.41,-71.62 266.88,-64.64"/>
</a>
</g>
</g>
<!-- Node16&#45;&gt;Node9 -->
<g id="edge25_Node000016_Node000009" class="edge">
<title>Node16&#45;&gt;Node9</title>
<g id="a_edge25_Node000016_Node000009"><a xlink:title=" ">
<path fill="none" stroke="#63b8ff" d="M1112.91,-109.75C1105.34,-102.03 1094.12,-90.6 1084.99,-81.28"/>
<polygon fill="#63b8ff" stroke="#63b8ff" points="1087.43,-78.78 1077.93,-74.09 1082.43,-83.68 1087.43,-78.78"/>
</a>
</g>
</g>
<!-- Node16&#45;&gt;Node10 -->
<g id="edge26_Node000016_Node000010" class="edge">
<title>Node16&#45;&gt;Node10</title>
<g id="a_edge26_Node000016_Node000010"><a xlink:title=" ">
<path fill="none" stroke="#63b8ff" d="M1119.57,-109.75C1116.76,-97.4 1111.13,-74.2 1104.5,-55 1101.41,-46.07 1097.37,-36.39 1093.81,-28.35"/>
<polygon fill="#63b8ff" stroke="#63b8ff" points="1096.98,-26.88 1089.66,-19.22 1090.61,-29.77 1096.98,-26.88"/>
</a>
</g>
</g>
<!-- Node16&#45;&gt;Node17 -->
<g id="edge28_Node000016_Node000017" class="edge">
<title>Node16&#45;&gt;Node17</title>
<g id="a_edge28_Node000016_Node000017"><a xlink:title=" ">
<path fill="none" stroke="#63b8ff" d="M1145.22,-112.07C1148.33,-111.32 1151.48,-110.61 1154.5,-110 1259.23,-88.88 1290.29,-97.5 1398.32,-73.96"/>
<polygon fill="#63b8ff" stroke="#63b8ff" points="1399.32,-77.32 1408.32,-71.73 1397.8,-70.49 1399.32,-77.32"/>
</a>
</g>
</g>
<!-- Node20&#45;&gt;Node3 -->
<g id="edge70_Node000020_Node000003" class="edge">
<title>Node20&#45;&gt;Node3</title>
<g id="a_edge70_Node000020_Node000003"><a xlink:title=" ">
<path fill="none" stroke="#63b8ff" d="M716.81,-225.08C767.52,-217.6 868.8,-194.81 917.5,-129 937.52,-101.95 939.28,-88.15 933.5,-55 931.93,-46 928.7,-36.42 925.56,-28.46"/>
<polygon fill="#63b8ff" stroke="#63b8ff" points="928.73,-26.97 921.61,-19.12 922.28,-29.69 928.73,-26.97"/>
</a>
</g>
</g>
<!-- Node20&#45;&gt;Node4 -->
<g id="edge68_Node000020_Node000004" class="edge">
<title>Node20&#45;&gt;Node4</title>
<g id="a_edge68_Node000020_Node000004"><a xlink:title=" ">
<path fill="none" stroke="#63b8ff" d="M656.33,-229.26C621.29,-228.31 564.84,-220.7 537.5,-184 520.1,-160.65 550.15,-124.68 565.5,-110 583.6,-92.69 609.62,-81.3 630.3,-74.39"/>
<polygon fill="#63b8ff" stroke="#63b8ff" points="631.48,-77.68 639.97,-71.34 629.38,-71.01 631.48,-77.68"/>
</a>
</g>
</g>
<!-- Node20&#45;&gt;Node6 -->
<g id="edge69_Node000020_Node000006" class="edge">
<title>Node20&#45;&gt;Node6</title>
<g id="a_edge69_Node000020_Node000006"><a xlink:title=" ">
<path fill="none" stroke="#63b8ff" d="M656.5,-222.83C552.27,-203.08 211.81,-137.97 204.5,-129 193.44,-115.43 203.11,-96.09 213.08,-82.33"/>
<polygon fill="#63b8ff" stroke="#63b8ff" points="216.04,-84.23 219.47,-74.2 210.54,-79.9 216.04,-84.23"/>
</a>
</g>
</g>
<!-- Node20&#45;&gt;Node8 -->
<g id="edge67_Node000020_Node000008" class="edge">
<title>Node20&#45;&gt;Node8</title>
<g id="a_edge67_Node000020_Node000008"><a xlink:title=" ">
<path fill="none" stroke="#63b8ff" d="M716.57,-225.49C787.23,-218.41 969.38,-200.07 1121.5,-184 1122.8,-183.86 1124.1,-183.72 1125.42,-183.58"/>
<polygon fill="#63b8ff" stroke="#63b8ff" points="1126.08,-187.03 1135.65,-182.49 1125.34,-180.07 1126.08,-187.03"/>
</a>
</g>
</g>
<!-- Node20&#45;&gt;Node9 -->
<g id="edge38_Node000020_Node000009" class="edge">
<title>Node20&#45;&gt;Node9</title>
<g id="a_edge38_Node000020_Node000009"><a xlink:title=" ">
<path fill="none" stroke="#63b8ff" d="M716.51,-226.77C798.45,-221.77 1021.48,-206.25 1045.5,-184 1073,-158.53 1073.81,-110.93 1071.79,-84.47"/>
<polygon fill="#63b8ff" stroke="#63b8ff" points="1075.25,-83.86 1070.78,-74.25 1068.28,-84.55 1075.25,-83.86"/>
</a>
</g>
</g>
<!-- Node20&#45;&gt;Node16 -->
<g id="edge56_Node000020_Node000016" class="edge">
<title>Node20&#45;&gt;Node16</title>
<g id="a_edge56_Node000020_Node000016"><a xlink:title=" ">
<path fill="none" stroke="#63b8ff" d="M716.74,-228.51C798.67,-228.01 1022.84,-223.02 1083.5,-184 1099.67,-173.6 1109.92,-153.65 1115.65,-138.88"/>
<polygon fill="#63b8ff" stroke="#63b8ff" points="1119.02,-139.84 1119.04,-129.25 1112.42,-137.52 1119.02,-139.84"/>
</a>
</g>
</g>
<!-- Node21 -->
<g id="Node000021" class="node">
<title>Node21</title>
<g id="a_Node000021"><a xlink:href="Atom_8h.html" target="_top" xlink:title=" ">
<polygon fill="white" stroke="#666666" points="487.5,-129 435.5,-129 435.5,-110 487.5,-110 487.5,-129"/>
<text text-anchor="middle" x="461.5" y="-117" font-family="Helvetica,sans-Serif" font-size="10.00">Atom.h</text>
</a>
</g>
</g>
<!-- Node20&#45;&gt;Node21 -->
<g id="edge39_Node000020_Node000021" class="edge">
<title>Node20&#45;&gt;Node21</title>
<g id="a_edge39_Node000020_Node000021"><a xlink:title=" ">
<path fill="none" stroke="#63b8ff" d="M656.43,-228.06C617.28,-226.07 548.34,-217.6 501.5,-184 485.83,-172.75 474.9,-153.28 468.48,-138.85"/>
<polygon fill="#63b8ff" stroke="#63b8ff" points="471.64,-137.34 464.59,-129.43 465.17,-140.01 471.64,-137.34"/>
</a>
</g>
</g>
<!-- Node22 -->
<g id="Node000022" class="node">
<title>Node22</title>
<g id="a_Node000022"><a xlink:href="Residue_8h.html" target="_top" xlink:title=" ">
<polygon fill="white" stroke="#666666" points="825,-184 760,-184 760,-165 825,-165 825,-184"/>
<text text-anchor="middle" x="792.5" y="-172" font-family="Helvetica,sans-Serif" font-size="10.00">Residue.h</text>
</a>
</g>
</g>
<!-- Node20&#45;&gt;Node22 -->
<g id="edge44_Node000020_Node000022" class="edge">
<title>Node20&#45;&gt;Node22</title>
<g id="a_edge44_Node000020_Node000022"><a xlink:title=" ">
<path fill="none" stroke="#63b8ff" d="M703.53,-219.98C720.43,-211.54 746.56,-198.47 766.14,-188.68"/>
<polygon fill="#63b8ff" stroke="#63b8ff" points="767.78,-191.77 775.16,-184.17 764.65,-185.51 767.78,-191.77"/>
</a>
</g>
</g>
<!-- Node25 -->
<g id="Node000025" class="node">
<title>Node25</title>
<g id="a_Node000025"><a xlink:href="Bond_8h.html" target="_top" xlink:title=" ">
<polygon fill="white" stroke="#666666" points="631.5,-129 581.5,-129 581.5,-110 631.5,-110 631.5,-129"/>
<text text-anchor="middle" x="606.5" y="-117" font-family="Helvetica,sans-Serif" font-size="10.00">Bond.h</text>
</a>
</g>
</g>
<!-- Node20&#45;&gt;Node25 -->
<g id="edge53_Node000020_Node000025" class="edge">
<title>Node20&#45;&gt;Node25</title>
<g id="a_edge53_Node000020_Node000025"><a xlink:title=" ">
<path fill="none" stroke="#63b8ff" d="M685.51,-219.94C683.66,-207 678.7,-182.13 666.5,-165 657.57,-152.46 644.01,-141.98 632.05,-134.34"/>
<polygon fill="#63b8ff" stroke="#63b8ff" points="633.68,-131.24 623.31,-129.07 630.06,-137.24 633.68,-131.24"/>
</a>
</g>
</g>
<!-- Node26 -->
<g id="Node000026" class="node">
<title>Node26</title>
<g id="a_Node000026"><a xlink:href="CovalentTopology_8h.html" target="_top" xlink:title=" ">
<polygon fill="white" stroke="#666666" points="658,-184 547,-184 547,-165 658,-165 658,-184"/>
<text text-anchor="middle" x="602.5" y="-172" font-family="Helvetica,sans-Serif" font-size="10.00">CovalentTopology.h</text>
</a>
</g>
</g>
<!-- Node20&#45;&gt;Node26 -->
<g id="edge57_Node000020_Node000026" class="edge">
<title>Node20&#45;&gt;Node26</title>
<g id="a_edge57_Node000020_Node000026"><a xlink:title=" ">
<path fill="none" stroke="#63b8ff" d="M673,-219.98C660.1,-211.84 640.4,-199.41 625.1,-189.76"/>
<polygon fill="#63b8ff" stroke="#63b8ff" points="626.57,-186.55 616.24,-184.17 622.83,-192.47 626.57,-186.55"/>
</a>
</g>
</g>
<!-- Node27 -->
<g id="Node000027" class="node">
<title>Node27</title>
<g id="a_Node000027"><a xlink:href="ProteinBuildContext_8h.html" target="_top" xlink:title=" ">
<polygon fill="white" stroke="#666666" points="123,-129 0,-129 0,-110 123,-110 123,-129"/>
<text text-anchor="middle" x="61.5" y="-117" font-family="Helvetica,sans-Serif" font-size="10.00">ProteinBuildContext.h</text>
</a>
</g>
</g>
<!-- Node20&#45;&gt;Node27 -->
<g id="edge62_Node000020_Node000027" class="edge">
<title>Node20&#45;&gt;Node27</title>
<g id="a_edge62_Node000020_Node000027"><a xlink:title=" ">
<path fill="none" stroke="#63b8ff" d="M656.35,-224.67C601.24,-217.55 480.61,-201.41 379.5,-184 284.11,-167.57 173.42,-144.57 111,-131.23"/>
<polygon fill="#63b8ff" stroke="#63b8ff" points="111.55,-127.77 101.03,-129.1 110.08,-134.62 111.55,-127.77"/>
</a>
</g>
</g>
<!-- Node21&#45;&gt;Node3 -->
<g id="edge42_Node000021_Node000003" class="edge">
<title>Node21&#45;&gt;Node3</title>
<g id="a_edge42_Node000021_Node000003"><a xlink:title=" ">
<path fill="none" stroke="#63b8ff" d="M480.35,-109.95C511.13,-96.33 574.41,-69.72 630.5,-55 721.07,-31.23 831.27,-18.53 884.95,-13.35"/>
<polygon fill="#63b8ff" stroke="#63b8ff" points="885.59,-16.8 895.22,-12.38 884.94,-9.83 885.59,-16.8"/>
</a>
</g>
</g>
<!-- Node21&#45;&gt;Node4 -->
<g id="edge43_Node000021_Node000004" class="edge">
<title>Node21&#45;&gt;Node4</title>
<g id="a_edge43_Node000021_Node000004"><a xlink:title=" ">
<path fill="none" stroke="#63b8ff" d="M487.91,-111.57C524.41,-101.99 590.27,-84.71 630.13,-74.26"/>
<polygon fill="#63b8ff" stroke="#63b8ff" points="631.13,-77.61 639.91,-71.69 629.35,-70.84 631.13,-77.61"/>
</a>
</g>
</g>
<!-- Node21&#45;&gt;Node6 -->
<g id="edge41_Node000021_Node000006" class="edge">
<title>Node21&#45;&gt;Node6</title>
<g id="a_edge41_Node000021_Node000006"><a xlink:title=" ">
<path fill="none" stroke="#63b8ff" d="M435.11,-112.52C394.02,-103.22 314.51,-85.21 266.7,-74.38"/>
<polygon fill="#63b8ff" stroke="#63b8ff" points="267.24,-70.91 256.72,-72.12 265.7,-77.74 267.24,-70.91"/>
</a>
</g>
</g>
<!-- Node21&#45;&gt;Node9 -->
<g id="edge40_Node000021_Node000009" class="edge">
<title>Node21&#45;&gt;Node9</title>
<g id="a_edge40_Node000021_Node000009"><a xlink:title=" ">
<path fill="none" stroke="#63b8ff" d="M487.62,-116.22C584.07,-107.82 920.29,-78.51 1032.63,-68.71"/>
<polygon fill="#63b8ff" stroke="#63b8ff" points="1033.13,-72.18 1042.79,-67.83 1032.52,-65.21 1033.13,-72.18"/>
</a>
</g>
</g>
<!-- Node22&#45;&gt;Node3 -->
<g id="edge50_Node000022_Node000003" class="edge">
<title>Node22&#45;&gt;Node3</title>
<g id="a_edge50_Node000022_Node000003"><a xlink:title=" ">
<path fill="none" stroke="#63b8ff" d="M825.06,-168.25C848.81,-162.66 879.83,-151.37 897.5,-129 920.38,-100.04 921.19,-54.51 919.5,-29.15"/>
<polygon fill="#63b8ff" stroke="#63b8ff" points="922.98,-28.71 918.63,-19.05 916.01,-29.31 922.98,-28.71"/>
</a>
</g>
</g>
<!-- Node22&#45;&gt;Node4 -->
<g id="edge51_Node000022_Node000004" class="edge">
<title>Node22&#45;&gt;Node4</title>
<g id="a_edge51_Node000022_Node000004"><a xlink:title=" ">
<path fill="none" stroke="#63b8ff" d="M781.94,-164.66C760.01,-146.3 709.26,-103.81 681.85,-80.87"/>
<polygon fill="#63b8ff" stroke="#63b8ff" points="683.76,-77.89 673.84,-74.16 679.26,-83.26 683.76,-77.89"/>
</a>
</g>
</g>
<!-- Node22&#45;&gt;Node9 -->
<g id="edge45_Node000022_Node000009" class="edge">
<title>Node22&#45;&gt;Node9</title>
<g id="a_edge45_Node000022_Node000009"><a xlink:title=" ">
<path fill="none" stroke="#63b8ff" d="M825.16,-168.51C861.46,-162.24 921.32,-149.71 969.5,-129 999.65,-116.04 1031.06,-94.57 1050.45,-80.23"/>
<polygon fill="#63b8ff" stroke="#63b8ff" points="1052.58,-83.01 1058.47,-74.2 1048.37,-77.41 1052.58,-83.01"/>
</a>
</g>
</g>
<!-- Node23 -->
<g id="Node000023" class="node">
<title>Node23</title>
<g id="a_Node000023"><a xlink:href="AminoAcidType_8h.html" target="_top" xlink:title=" ">
<polygon fill="white" stroke="#666666" points="889,-129 788,-129 788,-110 889,-110 889,-129"/>
<text text-anchor="middle" x="838.5" y="-117" font-family="Helvetica,sans-Serif" font-size="10.00">AminoAcidType.h</text>
</a>
</g>
</g>
<!-- Node22&#45;&gt;Node23 -->
<g id="edge46_Node000022_Node000023" class="edge">
<title>Node22&#45;&gt;Node23</title>
<g id="a_edge46_Node000022_Node000023"><a xlink:title=" ">
<path fill="none" stroke="#63b8ff" d="M800.1,-164.75C806.66,-157.18 816.32,-146.05 824.31,-136.84"/>
<polygon fill="#63b8ff" stroke="#63b8ff" points="827.13,-138.94 831.05,-129.09 821.85,-134.35 827.13,-138.94"/>
</a>
</g>
</g>
<!-- Node24 -->
<g id="Node000024" class="node">
<title>Node24</title>
<g id="a_Node000024"><a xlink:title=" ">
<polygon fill="#e0e0e0" stroke="#999999" points="693.5,-129 649.5,-129 649.5,-110 693.5,-110 693.5,-129"/>
<text text-anchor="middle" x="671.5" y="-117" font-family="Helvetica,sans-Serif" font-size="10.00">limits</text>
</a>
</g>
</g>
<!-- Node22&#45;&gt;Node24 -->
<g id="edge52_Node000022_Node000024" class="edge">
<title>Node22&#45;&gt;Node24</title>
<g id="a_edge52_Node000022_Node000024"><a xlink:title=" ">
<path fill="none" stroke="#63b8ff" d="M773.06,-164.98C753.51,-156.42 723.12,-143.11 700.68,-133.28"/>
<polygon fill="#63b8ff" stroke="#63b8ff" points="701.86,-129.98 691.29,-129.17 699.05,-136.39 701.86,-129.98"/>
</a>
</g>
</g>
<!-- Node23&#45;&gt;Node3 -->
<g id="edge48_Node000023_Node000003" class="edge">
<title>Node23&#45;&gt;Node3</title>
<g id="a_edge48_Node000023_Node000003"><a xlink:title=" ">
<path fill="none" stroke="#63b8ff" d="M844.96,-109.66C858.11,-91.69 888.14,-50.64 905.15,-27.38"/>
<polygon fill="#63b8ff" stroke="#63b8ff" points="908.09,-29.3 911.17,-19.16 902.44,-25.16 908.09,-29.3"/>
</a>
</g>
</g>
<!-- Node23&#45;&gt;Node4 -->
<g id="edge49_Node000023_Node000004" class="edge">
<title>Node23&#45;&gt;Node4</title>
<g id="a_edge49_Node000023_Node000004"><a xlink:title=" ">
<path fill="none" stroke="#63b8ff" d="M810.38,-109.98C779.39,-100.6 729.57,-85.51 696.68,-75.55"/>
<polygon fill="#63b8ff" stroke="#63b8ff" points="697.64,-72.18 687.06,-72.63 695.61,-78.88 697.64,-72.18"/>
</a>
</g>
</g>
<!-- Node23&#45;&gt;Node9 -->
<g id="edge47_Node000023_Node000009" class="edge">
<title>Node23&#45;&gt;Node9</title>
<g id="a_edge47_Node000023_Node000009"><a xlink:title=" ">
<path fill="none" stroke="#63b8ff" d="M875.61,-109.98C918.95,-100.04 990.15,-83.71 1033.15,-73.84"/>
<polygon fill="#63b8ff" stroke="#63b8ff" points="1033.95,-77.25 1042.92,-71.6 1032.39,-70.42 1033.95,-77.25"/>
</a>
</g>
</g>
<!-- Node25&#45;&gt;Node4 -->
<g id="edge55_Node000025_Node000004" class="edge">
<title>Node25&#45;&gt;Node4</title>
<g id="a_edge55_Node000025_Node000004"><a xlink:title=" ">
<path fill="none" stroke="#63b8ff" d="M615.66,-109.98C624,-102.23 636.53,-90.58 646.68,-81.14"/>
<polygon fill="#63b8ff" stroke="#63b8ff" points="649.24,-83.54 654.18,-74.17 644.47,-78.42 649.24,-83.54"/>
</a>
</g>
</g>
<!-- Node25&#45;&gt;Node9 -->
<g id="edge54_Node000025_Node000009" class="edge">
<title>Node25&#45;&gt;Node9</title>
<g id="a_edge54_Node000025_Node000009"><a xlink:title=" ">
<path fill="none" stroke="#63b8ff" d="M631.67,-111.79C634.63,-111.12 637.62,-110.51 640.5,-110 784.24,-84.71 957.79,-72.13 1032.43,-67.57"/>
<polygon fill="#63b8ff" stroke="#63b8ff" points="1032.94,-71.05 1042.71,-66.96 1032.52,-64.06 1032.94,-71.05"/>
</a>
</g>
</g>
<!-- Node26&#45;&gt;Node4 -->
<g id="edge60_Node000026_Node000004" class="edge">
<title>Node26&#45;&gt;Node4</title>
<g id="a_edge60_Node000026_Node000004"><a xlink:title=" ">
<path fill="none" stroke="#63b8ff" d="M593.07,-164.96C580.43,-152.45 560.88,-128.62 572.5,-110 585.01,-89.96 609.44,-78.7 629.84,-72.52"/>
<polygon fill="#63b8ff" stroke="#63b8ff" points="631.04,-75.82 639.76,-69.81 629.19,-69.07 631.04,-75.82"/>
</a>
</g>
</g>
<!-- Node26&#45;&gt;Node6 -->
<g id="edge61_Node000026_Node000006" class="edge">
<title>Node26&#45;&gt;Node6</title>
<g id="a_edge61_Node000026_Node000006"><a xlink:title=" ">
<path fill="none" stroke="#63b8ff" d="M546.99,-171.17C444.8,-166.31 235.31,-153.44 213.5,-129 202.26,-116.41 208.93,-96.87 216.41,-82.79"/>
<polygon fill="#63b8ff" stroke="#63b8ff" points="219.49,-84.46 221.52,-74.07 213.45,-80.93 219.49,-84.46"/>
</a>
</g>
</g>
<!-- Node26&#45;&gt;Node9 -->
<g id="edge58_Node000026_Node000009" class="edge">
<title>Node26&#45;&gt;Node9</title>
<g id="a_edge58_Node000026_Node000009"><a xlink:title=" ">
<path fill="none" stroke="#63b8ff" d="M658.09,-168.53C717.9,-162.39 815.48,-150.09 897.5,-129 949.41,-115.65 1007.44,-92.39 1041.09,-78.03"/>
<polygon fill="#63b8ff" stroke="#63b8ff" points="1042.51,-81.23 1050.31,-74.06 1039.74,-74.8 1042.51,-81.23"/>
</a>
</g>
</g>
<!-- Node26&#45;&gt;Node25 -->
<g id="edge59_Node000026_Node000025" class="edge">
<title>Node26&#45;&gt;Node25</title>
<g id="a_edge59_Node000026_Node000025"><a xlink:title=" ">
<path fill="none" stroke="#63b8ff" d="M603.16,-164.75C603.68,-157.8 604.44,-147.85 605.09,-139.13"/>
<polygon fill="#63b8ff" stroke="#63b8ff" points="608.59,-139.32 605.85,-129.09 601.61,-138.8 608.59,-139.32"/>
</a>
</g>
</g>
<!-- Node27&#45;&gt;Node3 -->
<g id="edge63_Node000027_Node000003" class="edge">
<title>Node27&#45;&gt;Node3</title>
<g id="a_edge63_Node000027_Node000003"><a xlink:title=" ">
<path fill="none" stroke="#63b8ff" d="M74.26,-109.98C96.53,-95.63 144.44,-67.02 189.5,-55 323.55,-19.23 761.54,-12.09 884.9,-10.78"/>
<polygon fill="#63b8ff" stroke="#63b8ff" points="885.23,-14.27 895.19,-10.67 885.16,-7.27 885.23,-14.27"/>
</a>
</g>
</g>
<!-- Node27&#45;&gt;Node4 -->
<g id="edge64_Node000027_Node000004" class="edge">
<title>Node27&#45;&gt;Node4</title>
<g id="a_edge64_Node000027_Node000004"><a xlink:title=" ">
<path fill="none" stroke="#63b8ff" d="M123.1,-113.08C249.03,-101.99 532.3,-77.05 629.79,-68.47"/>
<polygon fill="#63b8ff" stroke="#63b8ff" points="630.3,-71.94 639.95,-67.57 629.68,-64.96 630.3,-71.94"/>
</a>
</g>
</g>
<!-- Node27&#45;&gt;Node6 -->
<g id="edge65_Node000027_Node000006" class="edge">
<title>Node27&#45;&gt;Node6</title>
<g id="a_edge65_Node000027_Node000006"><a xlink:title=" ">
<path fill="none" stroke="#63b8ff" d="M88.17,-109.98C116.04,-101.09 159.95,-87.07 191.02,-77.15"/>
<polygon fill="#63b8ff" stroke="#63b8ff" points="192.16,-80.46 200.62,-74.08 190.03,-73.79 192.16,-80.46"/>
</a>
</g>
</g>
<!-- Node27&#45;&gt;Node12 -->
<g id="edge66_Node000027_Node000012" class="edge">
<title>Node27&#45;&gt;Node12</title>
<g id="a_edge66_Node000027_Node000012"><a xlink:title=" ">
<path fill="none" stroke="#63b8ff" d="M69,-109.75C81.7,-95.58 108.97,-67.91 138.5,-55 190.94,-32.07 360.37,-17.88 432.97,-12.71"/>
<polygon fill="#63b8ff" stroke="#63b8ff" points="433.22,-16.2 442.96,-12.02 432.74,-9.22 433.22,-16.2"/>
</a>
</g>
</g>
</g>
</svg>
