<?xml version="1.0" encoding="UTF-8" standalone="no"?>
<!DOCTYPE svg PUBLIC "-//W3C//DTD SVG 1.1//EN"
 "http://www.w3.org/Graphics/SVG/1.1/DTD/svg11.dtd">
<!-- Generated by graphviz version 2.43.0 (0)
 -->
<!-- Title: src/DsspResult.h Pages: 1 -->
<svg width="865pt" height="247pt"
 viewBox="0.00 0.00 864.53 247.00" xmlns="http://www.w3.org/2000/svg" xmlns:xlink="http://www.w3.org/1999/xlink">
<g id="graph0" class="graph" transform="scale(1 1) rotate(0) translate(4 243)">
<title>src/DsspResult.h</title>
<!-- Node1 -->
<g id="Node000001" class="node">
<title>Node1</title>
<g id="a_Node000001"><a xlink:title=" ">
<polygon fill="#999999" stroke="#666666" points="520.5,-239 422.5,-239 422.5,-220 520.5,-220 520.5,-239"/>
<text text-anchor="middle" x="471.5" y="-227" font-family="Helvetica,sans-Serif" font-size="10.00">src/DsspResult.h</text>
</a>
</g>
</g>
<!-- Node2 -->
<g id="Node000002" class="node">
<title>Node2</title>
<g id="a_Node000002"><a xlink:href="ConformationResult_8h.html" target="_top" xlink:title=" ">
<polygon fill="white" stroke="#666666" points="828,-129 705,-129 705,-110 828,-110 828,-129"/>
<text text-anchor="middle" x="766.5" y="-117" font-family="Helvetica,sans-Serif" font-size="10.00">ConformationResult.h</text>
</a>
</g>
</g>
<!-- Node1&#45;&gt;Node2 -->
<g id="edge1_Node000001_Node000002" class="edge">
<title>Node1&#45;&gt;Node2</title>
<g id="a_edge1_Node000001_Node000002"><a xlink:title=" ">
<path fill="none" stroke="#63b8ff" d="M495.14,-219.84C547.49,-200.68 673.28,-154.63 733.41,-132.62"/>
<polygon fill="#63b8ff" stroke="#63b8ff" points="734.97,-135.77 743.15,-129.05 732.56,-129.2 734.97,-135.77"/>
</a>
</g>
</g>
<!-- Node4 -->
<g id="Node000004" class="node">
<title>Node4</title>
<g id="a_Node000004"><a xlink:title=" ">
<polygon fill="#e0e0e0" stroke="#999999" points="251,-74 204,-74 204,-55 251,-55 251,-74"/>
<text text-anchor="middle" x="227.5" y="-62" font-family="Helvetica,sans-Serif" font-size="10.00">vector</text>
</a>
</g>
</g>
<!-- Node1&#45;&gt;Node4 -->
<g id="edge35_Node000001_Node000004" class="edge">
<title>Node1&#45;&gt;Node4</title>
<g id="a_edge35_Node000001_Node000004"><a xlink:title=" ">
<path fill="none" stroke="#63b8ff" d="M422.45,-224.03C365.01,-215.88 272.19,-193.01 228.5,-129 219.66,-116.05 220.33,-97.9 222.68,-84.32"/>
<polygon fill="#63b8ff" stroke="#63b8ff" points="226.17,-84.71 224.87,-74.2 219.33,-83.23 226.17,-84.71"/>
</a>
</g>
</g>
<!-- Node7 -->
<g id="Node000007" class="node">
<title>Node7</title>
<g id="a_Node000007"><a xlink:href="ProteinConformation_8h.html" target="_top" xlink:title=" ">
<polygon fill="white" stroke="#666666" points="535,-184 408,-184 408,-165 535,-165 535,-184"/>
<text text-anchor="middle" x="471.5" y="-172" font-family="Helvetica,sans-Serif" font-size="10.00">ProteinConformation.h</text>
</a>
</g>
</g>
<!-- Node1&#45;&gt;Node7 -->
<g id="edge6_Node000001_Node000007" class="edge">
<title>Node1&#45;&gt;Node7</title>
<g id="a_edge6_Node000001_Node000007"><a xlink:title=" ">
<path fill="none" stroke="#63b8ff" d="M471.5,-219.75C471.5,-212.8 471.5,-202.85 471.5,-194.13"/>
<polygon fill="#63b8ff" stroke="#63b8ff" points="475,-194.09 471.5,-184.09 468,-194.09 475,-194.09"/>
</a>
</g>
</g>
<!-- Node3 -->
<g id="Node000003" class="node">
<title>Node3</title>
<g id="a_Node000003"><a xlink:title=" ">
<polygon fill="#e0e0e0" stroke="#999999" points="453.5,-19 409.5,-19 409.5,0 453.5,0 453.5,-19"/>
<text text-anchor="middle" x="431.5" y="-7" font-family="Helvetica,sans-Serif" font-size="10.00">string</text>
</a>
</g>
</g>
<!-- Node2&#45;&gt;Node3 -->
<g id="edge2_Node000002_Node000003" class="edge">
<title>Node2&#45;&gt;Node3</title>
<g id="a_edge2_Node000002_Node000003"><a xlink:title=" ">
<path fill="none" stroke="#63b8ff" d="M739.93,-109.94C678.97,-90.28 529.24,-42.01 463.42,-20.79"/>
<polygon fill="#63b8ff" stroke="#63b8ff" points="464.19,-17.36 453.6,-17.63 462.04,-24.02 464.19,-17.36"/>
</a>
</g>
</g>
<!-- Node2&#45;&gt;Node4 -->
<g id="edge3_Node000002_Node000004" class="edge">
<title>Node2&#45;&gt;Node4</title>
<g id="a_edge3_Node000002_Node000004"><a xlink:title=" ">
<path fill="none" stroke="#63b8ff" d="M704.94,-110.99C701.75,-110.64 698.59,-110.31 695.5,-110 505.36,-90.77 452.88,-106.53 261.28,-74.03"/>
<polygon fill="#63b8ff" stroke="#63b8ff" points="261.61,-70.53 251.16,-72.29 260.42,-77.43 261.61,-70.53"/>
</a>
</g>
</g>
<!-- Node5 -->
<g id="Node000005" class="node">
<title>Node5</title>
<g id="a_Node000005"><a xlink:title=" ">
<polygon fill="#e0e0e0" stroke="#999999" points="832,-74 767,-74 767,-55 832,-55 832,-74"/>
<text text-anchor="middle" x="799.5" y="-62" font-family="Helvetica,sans-Serif" font-size="10.00">typeindex</text>
</a>
</g>
</g>
<!-- Node2&#45;&gt;Node5 -->
<g id="edge4_Node000002_Node000005" class="edge">
<title>Node2&#45;&gt;Node5</title>
<g id="a_edge4_Node000002_Node000005"><a xlink:title=" ">
<path fill="none" stroke="#63b8ff" d="M771.95,-109.75C776.51,-102.42 783.17,-91.73 788.79,-82.7"/>
<polygon fill="#63b8ff" stroke="#63b8ff" points="791.84,-84.43 794.15,-74.09 785.9,-80.73 791.84,-84.43"/>
</a>
</g>
</g>
<!-- Node6 -->
<g id="Node000006" class="node">
<title>Node6</title>
<g id="a_Node000006"><a xlink:title=" ">
<polygon fill="#e0e0e0" stroke="#999999" points="542.5,-74 484.5,-74 484.5,-55 542.5,-55 542.5,-74"/>
<text text-anchor="middle" x="513.5" y="-62" font-family="Helvetica,sans-Serif" font-size="10.00">memory</text>
</a>
</g>
</g>
<!-- Node2&#45;&gt;Node6 -->
<g id="edge5_Node000002_Node000006" class="edge">
<title>Node2&#45;&gt;Node6</title>
<g id="a_edge5_Node000002_Node000006"><a xlink:title=" ">
<path fill="none" stroke="#63b8ff" d="M725.85,-109.98C678.09,-99.98 599.42,-83.5 552.42,-73.65"/>
<polygon fill="#63b8ff" stroke="#63b8ff" points="553.12,-70.22 542.61,-71.6 551.68,-77.07 553.12,-70.22"/>
</a>
</g>
</g>
<!-- Node7&#45;&gt;Node2 -->
<g id="edge16_Node000007_Node000002" class="edge">
<title>Node7&#45;&gt;Node2</title>
<g id="a_edge16_Node000007_Node000002"><a xlink:title=" ">
<path fill="none" stroke="#63b8ff" d="M518.9,-164.98C570.57,-155.7 653.27,-140.84 708.71,-130.88"/>
<polygon fill="#63b8ff" stroke="#63b8ff" points="709.51,-134.3 718.73,-129.08 708.27,-127.41 709.51,-134.3"/>
</a>
</g>
</g>
<!-- Node7&#45;&gt;Node3 -->
<g id="edge33_Node000007_Node000003" class="edge">
<title>Node7&#45;&gt;Node3</title>
<g id="a_edge33_Node000007_Node000003"><a xlink:title=" ">
<path fill="none" stroke="#63b8ff" d="M535.27,-170.63C638.48,-165.31 832.74,-152.31 853.5,-129 859.12,-122.69 854.41,-118.4 853.5,-110 850.82,-85.12 860.11,-71.72 841.5,-55 813.55,-29.88 555.71,-16.03 463.83,-11.86"/>
<polygon fill="#63b8ff" stroke="#63b8ff" points="463.87,-8.36 453.72,-11.41 463.56,-15.36 463.87,-8.36"/>
</a>
</g>
</g>
<!-- Node7&#45;&gt;Node4 -->
<g id="edge28_Node000007_Node000004" class="edge">
<title>Node7&#45;&gt;Node4</title>
<g id="a_edge28_Node000007_Node000004"><a xlink:title=" ">
<path fill="none" stroke="#63b8ff" d="M407.78,-168.78C348.43,-163.07 265.72,-151.31 242.5,-129 230.64,-117.61 227.41,-98.71 226.83,-84.49"/>
<polygon fill="#63b8ff" stroke="#63b8ff" points="230.33,-84.31 226.83,-74.32 223.33,-84.32 230.33,-84.31"/>
</a>
</g>
</g>
<!-- Node7&#45;&gt;Node5 -->
<g id="edge31_Node000007_Node000005" class="edge">
<title>Node7&#45;&gt;Node5</title>
<g id="a_edge31_Node000007_Node000005"><a xlink:title=" ">
<path fill="none" stroke="#63b8ff" d="M535.01,-170.29C634.49,-164.6 817.82,-151.22 837.5,-129 850.63,-114.18 834.17,-94.18 819,-80.62"/>
<polygon fill="#63b8ff" stroke="#63b8ff" points="821.25,-77.94 811.34,-74.18 816.74,-83.29 821.25,-77.94"/>
</a>
</g>
</g>
<!-- Node7&#45;&gt;Node6 -->
<g id="edge32_Node000007_Node000006" class="edge">
<title>Node7&#45;&gt;Node6</title>
<g id="a_edge32_Node000007_Node000006"><a xlink:title=" ">
<path fill="none" stroke="#63b8ff" d="M474.94,-164.66C481.8,-147.01 497.33,-107.09 506.45,-83.64"/>
<polygon fill="#63b8ff" stroke="#63b8ff" points="509.77,-84.75 510.13,-74.16 503.25,-82.21 509.77,-84.75"/>
</a>
</g>
</g>
<!-- Node8 -->
<g id="Node000008" class="node">
<title>Node8</title>
<g id="a_Node000008"><a xlink:href="Types_8h.html" target="_top" xlink:title=" ">
<polygon fill="white" stroke="#666666" points="186,-74 133,-74 133,-55 186,-55 186,-74"/>
<text text-anchor="middle" x="159.5" y="-62" font-family="Helvetica,sans-Serif" font-size="10.00">Types.h</text>
</a>
</g>
</g>
<!-- Node7&#45;&gt;Node8 -->
<g id="edge7_Node000007_Node000008" class="edge">
<title>Node7&#45;&gt;Node8</title>
<g id="a_edge7_Node000007_Node000008"><a xlink:title=" ">
<path fill="none" stroke="#63b8ff" d="M407.8,-171.49C356.92,-167.66 285.02,-157.18 228.5,-129 205.85,-117.71 185.26,-96.71 172.58,-81.96"/>
<polygon fill="#63b8ff" stroke="#63b8ff" points="175.16,-79.58 166.08,-74.12 169.77,-84.05 175.16,-79.58"/>
</a>
</g>
</g>
<!-- Node12 -->
<g id="Node000012" class="node">
<title>Node12</title>
<g id="a_Node000012"><a xlink:href="ConformationAtom_8h.html" target="_top" xlink:title=" ">
<polygon fill="white" stroke="#666666" points="119,-129 0,-129 0,-110 119,-110 119,-129"/>
<text text-anchor="middle" x="59.5" y="-117" font-family="Helvetica,sans-Serif" font-size="10.00">ConformationAtom.h</text>
</a>
</g>
</g>
<!-- Node7&#45;&gt;Node12 -->
<g id="edge12_Node000007_Node000012" class="edge">
<title>Node7&#45;&gt;Node12</title>
<g id="a_edge12_Node000007_Node000012"><a xlink:title=" ">
<path fill="none" stroke="#63b8ff" d="M407.58,-165.28C332.19,-155.58 207.32,-139.52 129.42,-129.49"/>
<polygon fill="#63b8ff" stroke="#63b8ff" points="129.58,-125.99 119.22,-128.18 128.69,-132.93 129.58,-125.99"/>
</a>
</g>
</g>
<!-- Node13 -->
<g id="Node000013" class="node">
<title>Node13</title>
<g id="a_Node000013"><a xlink:href="GeometryChoice_8h.html" target="_top" xlink:title=" ">
<polygon fill="white" stroke="#666666" points="359,-129 252,-129 252,-110 359,-110 359,-129"/>
<text text-anchor="middle" x="305.5" y="-117" font-family="Helvetica,sans-Serif" font-size="10.00">GeometryChoice.h</text>
</a>
</g>
</g>
<!-- Node7&#45;&gt;Node13 -->
<g id="edge17_Node000007_Node000013" class="edge">
<title>Node7&#45;&gt;Node13</title>
<g id="a_edge17_Node000007_Node000013"><a xlink:title=" ">
<path fill="none" stroke="#63b8ff" d="M444.83,-164.98C416.96,-156.09 373.05,-142.07 341.98,-132.15"/>
<polygon fill="#63b8ff" stroke="#63b8ff" points="342.97,-128.79 332.38,-129.08 340.84,-135.46 342.97,-128.79"/>
</a>
</g>
</g>
<!-- Node15 -->
<g id="Node000015" class="node">
<title>Node15</title>
<g id="a_Node000015"><a xlink:href="Ring_8h.html" target="_top" xlink:title=" ">
<polygon fill="white" stroke="#666666" points="424,-129 377,-129 377,-110 424,-110 424,-129"/>
<text text-anchor="middle" x="400.5" y="-117" font-family="Helvetica,sans-Serif" font-size="10.00">Ring.h</text>
</a>
</g>
</g>
<!-- Node7&#45;&gt;Node15 -->
<g id="edge22_Node000007_Node000015" class="edge">
<title>Node7&#45;&gt;Node15</title>
<g id="a_edge22_Node000007_Node000015"><a xlink:title=" ">
<path fill="none" stroke="#63b8ff" d="M460.09,-164.98C449.39,-157 433.16,-144.88 420.34,-135.31"/>
<polygon fill="#63b8ff" stroke="#63b8ff" points="422.22,-132.35 412.11,-129.17 418.03,-137.96 422.22,-132.35"/>
</a>
</g>
</g>
<!-- Node16 -->
<g id="Node000016" class="node">
<title>Node16</title>
<g id="a_Node000016"><a xlink:title=" ">
<polygon fill="#e0e0e0" stroke="#999999" points="466.5,-74 428.5,-74 428.5,-55 466.5,-55 466.5,-74"/>
<text text-anchor="middle" x="447.5" y="-62" font-family="Helvetica,sans-Serif" font-size="10.00">map</text>
</a>
</g>
</g>
<!-- Node7&#45;&gt;Node16 -->
<g id="edge29_Node000007_Node000016" class="edge">
<title>Node7&#45;&gt;Node16</title>
<g id="a_edge29_Node000007_Node000016"><a xlink:title=" ">
<path fill="none" stroke="#63b8ff" d="M469.54,-164.66C465.63,-147.09 456.82,-107.45 451.6,-83.95"/>
<polygon fill="#63b8ff" stroke="#63b8ff" points="455.01,-83.16 449.42,-74.16 448.18,-84.68 455.01,-83.16"/>
</a>
</g>
</g>
<!-- Node17 -->
<g id="Node000017" class="node">
<title>Node17</title>
<g id="a_Node000017"><a xlink:title=" ">
<polygon fill="#e0e0e0" stroke="#999999" points="612,-129 519,-129 519,-110 612,-110 612,-129"/>
<text text-anchor="middle" x="565.5" y="-117" font-family="Helvetica,sans-Serif" font-size="10.00">unordered_map</text>
</a>
</g>
</g>
<!-- Node7&#45;&gt;Node17 -->
<g id="edge30_Node000007_Node000017" class="edge">
<title>Node7&#45;&gt;Node17</title>
<g id="a_edge30_Node000007_Node000017"><a xlink:title=" ">
<path fill="none" stroke="#63b8ff" d="M486.6,-164.98C501.32,-156.69 523.92,-143.94 541.17,-134.22"/>
<polygon fill="#63b8ff" stroke="#63b8ff" points="543.13,-137.13 550.12,-129.17 539.69,-131.03 543.13,-137.13"/>
</a>
</g>
</g>
<!-- Node18 -->
<g id="Node000018" class="node">
<title>Node18</title>
<g id="a_Node000018"><a xlink:title=" ">
<polygon fill="#e0e0e0" stroke="#999999" points="686.5,-129 630.5,-129 630.5,-110 686.5,-110 686.5,-129"/>
<text text-anchor="middle" x="658.5" y="-117" font-family="Helvetica,sans-Serif" font-size="10.00">sstream</text>
</a>
</g>
</g>
<!-- Node7&#45;&gt;Node18 -->
<g id="edge34_Node000007_Node000018" class="edge">
<title>Node7&#45;&gt;Node18</title>
<g id="a_edge34_Node000007_Node000018"><a xlink:title=" ">
<path fill="none" stroke="#63b8ff" d="M501.54,-164.98C533.87,-155.82 585.35,-141.23 620.48,-131.28"/>
<polygon fill="#63b8ff" stroke="#63b8ff" points="621.7,-134.57 630.37,-128.47 619.79,-127.83 621.7,-134.57"/>
</a>
</g>
</g>
<!-- Node8&#45;&gt;Node3 -->
<g id="edge11_Node000008_Node000003" class="edge">
<title>Node8&#45;&gt;Node3</title>
<g id="a_edge11_Node000008_Node000003"><a xlink:title=" ">
<path fill="none" stroke="#63b8ff" d="M186.22,-56.86C189.01,-56.21 191.81,-55.58 194.5,-55 267.4,-39.31 353.6,-23.91 399.29,-15.99"/>
<polygon fill="#63b8ff" stroke="#63b8ff" points="399.94,-19.43 409.2,-14.28 398.75,-12.53 399.94,-19.43"/>
</a>
</g>
</g>
<!-- Node9 -->
<g id="Node000009" class="node">
<title>Node9</title>
<g id="a_Node000009"><a xlink:title=" ">
<polygon fill="#e0e0e0" stroke="#999999" points="369,-19 292,-19 292,0 369,0 369,-19"/>
<text text-anchor="middle" x="330.5" y="-7" font-family="Helvetica,sans-Serif" font-size="10.00">Eigen/Dense</text>
</a>
</g>
</g>
<!-- Node8&#45;&gt;Node9 -->
<g id="edge8_Node000008_Node000009" class="edge">
<title>Node8&#45;&gt;Node9</title>
<g id="a_edge8_Node000008_Node000009"><a xlink:title=" ">
<path fill="none" stroke="#63b8ff" d="M186.22,-55.22C214.99,-46.3 260.98,-32.05 293.28,-22.03"/>
<polygon fill="#63b8ff" stroke="#63b8ff" points="294.32,-25.38 302.84,-19.07 292.25,-18.69 294.32,-25.38"/>
</a>
</g>
</g>
<!-- Node10 -->
<g id="Node000010" class="node">
<title>Node10</title>
<g id="a_Node000010"><a xlink:title=" ">
<polygon fill="#e0e0e0" stroke="#999999" points="108.5,-19 66.5,-19 66.5,0 108.5,0 108.5,-19"/>
<text text-anchor="middle" x="87.5" y="-7" font-family="Helvetica,sans-Serif" font-size="10.00">array</text>
</a>
</g>
</g>
<!-- Node8&#45;&gt;Node10 -->
<g id="edge9_Node000008_Node000010" class="edge">
<title>Node8&#45;&gt;Node10</title>
<g id="a_edge9_Node000008_Node000010"><a xlink:title=" ">
<path fill="none" stroke="#63b8ff" d="M147.93,-54.98C137.08,-47 120.62,-34.88 107.62,-25.31"/>
<polygon fill="#63b8ff" stroke="#63b8ff" points="109.41,-22.28 99.28,-19.17 105.26,-27.92 109.41,-22.28"/>
</a>
</g>
</g>
<!-- Node11 -->
<g id="Node000011" class="node">
<title>Node11</title>
<g id="a_Node000011"><a xlink:title=" ">
<polygon fill="#e0e0e0" stroke="#999999" points="183,-19 136,-19 136,0 183,0 183,-19"/>
<text text-anchor="middle" x="159.5" y="-7" font-family="Helvetica,sans-Serif" font-size="10.00">cmath</text>
</a>
</g>
</g>
<!-- Node8&#45;&gt;Node11 -->
<g id="edge10_Node000008_Node000011" class="edge">
<title>Node8&#45;&gt;Node11</title>
<g id="a_edge10_Node000008_Node000011"><a xlink:title=" ">
<path fill="none" stroke="#63b8ff" d="M159.5,-54.75C159.5,-47.8 159.5,-37.85 159.5,-29.13"/>
<polygon fill="#63b8ff" stroke="#63b8ff" points="163,-29.09 159.5,-19.09 156,-29.09 163,-29.09"/>
</a>
</g>
</g>
<!-- Node12&#45;&gt;Node4 -->
<g id="edge14_Node000012_Node000004" class="edge">
<title>Node12&#45;&gt;Node4</title>
<g id="a_edge14_Node000012_Node000004"><a xlink:title=" ">
<path fill="none" stroke="#63b8ff" d="M86.49,-109.98C115.79,-100.74 162.59,-85.98 194.16,-76.02"/>
<polygon fill="#63b8ff" stroke="#63b8ff" points="195.35,-79.31 203.83,-72.97 193.24,-72.64 195.35,-79.31"/>
</a>
</g>
</g>
<!-- Node12&#45;&gt;Node8 -->
<g id="edge13_Node000012_Node000008" class="edge">
<title>Node12&#45;&gt;Node8</title>
<g id="a_edge13_Node000012_Node000008"><a xlink:title=" ">
<path fill="none" stroke="#63b8ff" d="M75.57,-109.98C91.36,-101.61 115.72,-88.7 134.13,-78.95"/>
<polygon fill="#63b8ff" stroke="#63b8ff" points="135.94,-81.95 143.14,-74.17 132.67,-75.76 135.94,-81.95"/>
</a>
</g>
</g>
<!-- Node12&#45;&gt;Node10 -->
<g id="edge15_Node000012_Node000010" class="edge">
<title>Node12&#45;&gt;Node10</title>
<g id="a_edge15_Node000012_Node000010"><a xlink:title=" ">
<path fill="none" stroke="#63b8ff" d="M61.79,-109.66C66.35,-92.09 76.62,-52.45 82.72,-28.95"/>
<polygon fill="#63b8ff" stroke="#63b8ff" points="86.13,-29.72 85.26,-19.16 79.36,-27.96 86.13,-29.72"/>
</a>
</g>
</g>
<!-- Node13&#45;&gt;Node3 -->
<g id="edge19_Node000013_Node000003" class="edge">
<title>Node13&#45;&gt;Node3</title>
<g id="a_edge19_Node000013_Node000003"><a xlink:title=" ">
<path fill="none" stroke="#63b8ff" d="M315.81,-109.66C337.24,-91.3 386.8,-48.81 413.57,-25.87"/>
<polygon fill="#63b8ff" stroke="#63b8ff" points="416.08,-28.32 421.4,-19.16 411.53,-23.01 416.08,-28.32"/>
</a>
</g>
</g>
<!-- Node13&#45;&gt;Node4 -->
<g id="edge20_Node000013_Node000004" class="edge">
<title>Node13&#45;&gt;Node4</title>
<g id="a_edge20_Node000013_Node000004"><a xlink:title=" ">
<path fill="none" stroke="#63b8ff" d="M292.97,-109.98C281.1,-101.92 263.04,-89.65 248.89,-80.03"/>
<polygon fill="#63b8ff" stroke="#63b8ff" points="250.5,-76.9 240.26,-74.17 246.56,-82.69 250.5,-76.9"/>
</a>
</g>
</g>
<!-- Node13&#45;&gt;Node8 -->
<g id="edge18_Node000013_Node000008" class="edge">
<title>Node13&#45;&gt;Node8</title>
<g id="a_edge18_Node000013_Node000008"><a xlink:title=" ">
<path fill="none" stroke="#63b8ff" d="M282.04,-109.98C257.92,-101.23 220.13,-87.51 192.9,-77.62"/>
<polygon fill="#63b8ff" stroke="#63b8ff" points="193.98,-74.29 183.38,-74.17 191.59,-80.87 193.98,-74.29"/>
</a>
</g>
</g>
<!-- Node14 -->
<g id="Node000014" class="node">
<title>Node14</title>
<g id="a_Node000014"><a xlink:title=" ">
<polygon fill="#e0e0e0" stroke="#999999" points="334,-74 269,-74 269,-55 334,-55 334,-74"/>
<text text-anchor="middle" x="301.5" y="-62" font-family="Helvetica,sans-Serif" font-size="10.00">functional</text>
</a>
</g>
</g>
<!-- Node13&#45;&gt;Node14 -->
<g id="edge21_Node000013_Node000014" class="edge">
<title>Node13&#45;&gt;Node14</title>
<g id="a_edge21_Node000013_Node000014"><a xlink:title=" ">
<path fill="none" stroke="#63b8ff" d="M304.84,-109.75C304.32,-102.8 303.56,-92.85 302.91,-84.13"/>
<polygon fill="#63b8ff" stroke="#63b8ff" points="306.39,-83.8 302.15,-74.09 299.41,-84.32 306.39,-83.8"/>
</a>
</g>
</g>
<!-- Node15&#45;&gt;Node4 -->
<g id="edge25_Node000015_Node000004" class="edge">
<title>Node15&#45;&gt;Node4</title>
<g id="a_edge25_Node000015_Node000004"><a xlink:title=" ">
<path fill="none" stroke="#63b8ff" d="M376.81,-111.24C346.87,-102.07 295.15,-86.22 261.13,-75.8"/>
<polygon fill="#63b8ff" stroke="#63b8ff" points="261.77,-72.34 251.18,-72.76 259.72,-79.03 261.77,-72.34"/>
</a>
</g>
</g>
<!-- Node15&#45;&gt;Node6 -->
<g id="edge27_Node000015_Node000006" class="edge">
<title>Node15&#45;&gt;Node6</title>
<g id="a_edge27_Node000015_Node000006"><a xlink:title=" ">
<path fill="none" stroke="#63b8ff" d="M418.66,-109.98C436.75,-101.5 464.78,-88.35 485.69,-78.54"/>
<polygon fill="#63b8ff" stroke="#63b8ff" points="487.45,-81.59 495.01,-74.17 484.47,-75.25 487.45,-81.59"/>
</a>
</g>
</g>
<!-- Node15&#45;&gt;Node8 -->
<g id="edge23_Node000015_Node000008" class="edge">
<title>Node15&#45;&gt;Node8</title>
<g id="a_edge23_Node000015_Node000008"><a xlink:title=" ">
<path fill="none" stroke="#63b8ff" d="M376.74,-112.24C373.64,-111.46 370.5,-110.7 367.5,-110 294.15,-92.93 272.84,-91.37 196.36,-74.36"/>
<polygon fill="#63b8ff" stroke="#63b8ff" points="196.76,-70.86 186.23,-72.09 195.22,-77.69 196.76,-70.86"/>
</a>
</g>
</g>
<!-- Node15&#45;&gt;Node9 -->
<g id="edge24_Node000015_Node000009" class="edge">
<title>Node15&#45;&gt;Node9</title>
<g id="a_edge24_Node000015_Node000009"><a xlink:title=" ">
<path fill="none" stroke="#63b8ff" d="M394.77,-109.66C383.18,-91.77 356.75,-51 341.64,-27.69"/>
<polygon fill="#63b8ff" stroke="#63b8ff" points="344.49,-25.65 336.11,-19.16 338.61,-29.45 344.49,-25.65"/>
</a>
</g>
</g>
<!-- Node15&#45;&gt;Node16 -->
<g id="edge26_Node000015_Node000016" class="edge">
<title>Node15&#45;&gt;Node16</title>
<g id="a_edge26_Node000015_Node000016"><a xlink:title=" ">
<path fill="none" stroke="#63b8ff" d="M408.26,-109.75C414.97,-102.18 424.84,-91.05 433.01,-81.84"/>
<polygon fill="#63b8ff" stroke="#63b8ff" points="435.87,-83.89 439.88,-74.09 430.63,-79.25 435.87,-83.89"/>
</a>
</g>
</g>
</g>
</svg>
