<?xml version="1.0" encoding="UTF-8" standalone="no"?>
<!DOCTYPE svg PUBLIC "-//W3C//DTD SVG 1.1//EN"
 "http://www.w3.org/Graphics/SVG/1.1/DTD/svg11.dtd">
<!-- Generated by graphviz version 2.43.0 (0)
 -->
<!-- Title: src/EnrichmentResult.h Pages: 1 -->
<svg width="945pt" height="247pt"
 viewBox="0.00 0.00 944.50 247.00" xmlns="http://www.w3.org/2000/svg" xmlns:xlink="http://www.w3.org/1999/xlink">
<g id="graph0" class="graph" transform="scale(1 1) rotate(0) translate(4 243)">
<title>src/EnrichmentResult.h</title>
<!-- Node1 -->
<g id="Node000001" class="node">
<title>Node1</title>
<g id="a_Node000001"><a xlink:title=" ">
<polygon fill="#999999" stroke="#666666" points="277,-239 148,-239 148,-220 277,-220 277,-239"/>
<text text-anchor="middle" x="212.5" y="-227" font-family="Helvetica,sans-Serif" font-size="10.00">src/EnrichmentResult.h</text>
</a>
</g>
</g>
<!-- Node2 -->
<g id="Node000002" class="node">
<title>Node2</title>
<g id="a_Node000002"><a xlink:href="ConformationResult_8h.html" target="_top" xlink:title=" ">
<polygon fill="white" stroke="#666666" points="184,-129 61,-129 61,-110 184,-110 184,-129"/>
<text text-anchor="middle" x="122.5" y="-117" font-family="Helvetica,sans-Serif" font-size="10.00">ConformationResult.h</text>
</a>
</g>
</g>
<!-- Node1&#45;&gt;Node2 -->
<g id="edge1_Node000001_Node000002" class="edge">
<title>Node1&#45;&gt;Node2</title>
<g id="a_edge1_Node000001_Node000002"><a xlink:title=" ">
<path fill="none" stroke="#63b8ff" d="M205.13,-219.66C190.1,-201.61 155.65,-160.28 136.31,-137.08"/>
<polygon fill="#63b8ff" stroke="#63b8ff" points="138.81,-134.6 129.72,-129.16 133.43,-139.08 138.81,-134.6"/>
</a>
</g>
</g>
<!-- Node4 -->
<g id="Node000004" class="node">
<title>Node4</title>
<g id="a_Node000004"><a xlink:title=" ">
<polygon fill="#e0e0e0" stroke="#999999" points="264,-74 217,-74 217,-55 264,-55 264,-74"/>
<text text-anchor="middle" x="240.5" y="-62" font-family="Helvetica,sans-Serif" font-size="10.00">vector</text>
</a>
</g>
</g>
<!-- Node1&#45;&gt;Node4 -->
<g id="edge36_Node000001_Node000004" class="edge">
<title>Node1&#45;&gt;Node4</title>
<g id="a_edge36_Node000001_Node000004"><a xlink:title=" ">
<path fill="none" stroke="#63b8ff" d="M214.01,-219.74C218.39,-194.2 231.24,-119.43 237.28,-84.23"/>
<polygon fill="#63b8ff" stroke="#63b8ff" points="240.74,-84.76 238.99,-74.31 233.84,-83.57 240.74,-84.76"/>
</a>
</g>
</g>
<!-- Node5 -->
<g id="Node000005" class="node">
<title>Node5</title>
<g id="a_Node000005"><a xlink:title=" ">
<polygon fill="#e0e0e0" stroke="#999999" points="65,-74 0,-74 0,-55 65,-55 65,-74"/>
<text text-anchor="middle" x="32.5" y="-62" font-family="Helvetica,sans-Serif" font-size="10.00">typeindex</text>
</a>
</g>
</g>
<!-- Node1&#45;&gt;Node5 -->
<g id="edge37_Node000001_Node000005" class="edge">
<title>Node1&#45;&gt;Node5</title>
<g id="a_edge37_Node000001_Node000005"><a xlink:title=" ">
<path fill="none" stroke="#63b8ff" d="M177.76,-219.95C135.9,-207.62 67.25,-180.45 35.5,-129 27.26,-115.65 27.25,-97.54 28.86,-84.07"/>
<polygon fill="#63b8ff" stroke="#63b8ff" points="32.34,-84.49 30.46,-74.07 25.43,-83.39 32.34,-84.49"/>
</a>
</g>
</g>
<!-- Node7 -->
<g id="Node000007" class="node">
<title>Node7</title>
<g id="a_Node000007"><a xlink:href="ProteinConformation_8h.html" target="_top" xlink:title=" ">
<polygon fill="white" stroke="#666666" points="566,-184 439,-184 439,-165 566,-165 566,-184"/>
<text text-anchor="middle" x="502.5" y="-172" font-family="Helvetica,sans-Serif" font-size="10.00">ProteinConformation.h</text>
</a>
</g>
</g>
<!-- Node1&#45;&gt;Node7 -->
<g id="edge6_Node000001_Node000007" class="edge">
<title>Node1&#45;&gt;Node7</title>
<g id="a_edge6_Node000001_Node000007"><a xlink:title=" ">
<path fill="none" stroke="#63b8ff" d="M259.09,-219.98C309.89,-210.7 391.19,-195.84 445.69,-185.88"/>
<polygon fill="#63b8ff" stroke="#63b8ff" points="446.33,-189.32 455.54,-184.08 445.07,-182.44 446.33,-189.32"/>
</a>
</g>
</g>
<!-- Node16 -->
<g id="Node000016" class="node">
<title>Node16</title>
<g id="a_Node000016"><a xlink:title=" ">
<polygon fill="#e0e0e0" stroke="#999999" points="936.5,-74 898.5,-74 898.5,-55 936.5,-55 936.5,-74"/>
<text text-anchor="middle" x="917.5" y="-62" font-family="Helvetica,sans-Serif" font-size="10.00">map</text>
</a>
</g>
</g>
<!-- Node1&#45;&gt;Node16 -->
<g id="edge35_Node000001_Node000016" class="edge">
<title>Node1&#45;&gt;Node16</title>
<g id="a_edge35_Node000001_Node000016"><a xlink:title=" ">
<path fill="none" stroke="#63b8ff" d="M277.22,-227.97C430.28,-225.38 808.52,-210.65 899.5,-129 911.88,-117.89 916.01,-98.96 917.26,-84.65"/>
<polygon fill="#63b8ff" stroke="#63b8ff" points="920.77,-84.56 917.75,-74.4 913.78,-84.22 920.77,-84.56"/>
</a>
</g>
</g>
<!-- Node3 -->
<g id="Node000003" class="node">
<title>Node3</title>
<g id="a_Node000003"><a xlink:title=" ">
<polygon fill="#e0e0e0" stroke="#999999" points="375.5,-19 331.5,-19 331.5,0 375.5,0 375.5,-19"/>
<text text-anchor="middle" x="353.5" y="-7" font-family="Helvetica,sans-Serif" font-size="10.00">string</text>
</a>
</g>
</g>
<!-- Node2&#45;&gt;Node3 -->
<g id="edge2_Node000002_Node000003" class="edge">
<title>Node2&#45;&gt;Node3</title>
<g id="a_edge2_Node000002_Node000003"><a xlink:title=" ">
<path fill="none" stroke="#63b8ff" d="M131.85,-109.9C146.92,-96.45 178.01,-70.37 208.5,-55 245.31,-36.45 291.32,-23.94 321.52,-17.03"/>
<polygon fill="#63b8ff" stroke="#63b8ff" points="322.49,-20.4 331.5,-14.82 320.98,-13.56 322.49,-20.4"/>
</a>
</g>
</g>
<!-- Node2&#45;&gt;Node4 -->
<g id="edge3_Node000002_Node000004" class="edge">
<title>Node2&#45;&gt;Node4</title>
<g id="a_edge3_Node000002_Node000004"><a xlink:title=" ">
<path fill="none" stroke="#63b8ff" d="M141.46,-109.98C160.53,-101.42 190.16,-88.11 212.05,-78.28"/>
<polygon fill="#63b8ff" stroke="#63b8ff" points="213.51,-81.46 221.2,-74.17 210.64,-75.07 213.51,-81.46"/>
</a>
</g>
</g>
<!-- Node2&#45;&gt;Node5 -->
<g id="edge4_Node000002_Node000005" class="edge">
<title>Node2&#45;&gt;Node5</title>
<g id="a_edge4_Node000002_Node000005"><a xlink:title=" ">
<path fill="none" stroke="#63b8ff" d="M108.04,-109.98C94.08,-101.77 72.71,-89.18 56.25,-79.49"/>
<polygon fill="#63b8ff" stroke="#63b8ff" points="57.62,-76.23 47.22,-74.17 54.06,-82.26 57.62,-76.23"/>
</a>
</g>
</g>
<!-- Node6 -->
<g id="Node000006" class="node">
<title>Node6</title>
<g id="a_Node000006"><a xlink:title=" ">
<polygon fill="#e0e0e0" stroke="#999999" points="856.5,-74 798.5,-74 798.5,-55 856.5,-55 856.5,-74"/>
<text text-anchor="middle" x="827.5" y="-62" font-family="Helvetica,sans-Serif" font-size="10.00">memory</text>
</a>
</g>
</g>
<!-- Node2&#45;&gt;Node6 -->
<g id="edge5_Node000002_Node000006" class="edge">
<title>Node2&#45;&gt;Node6</title>
<g id="a_edge5_Node000002_Node000006"><a xlink:title=" ">
<path fill="none" stroke="#63b8ff" d="M184.14,-113.87C325.83,-103.21 671.49,-77.23 788.24,-68.45"/>
<polygon fill="#63b8ff" stroke="#63b8ff" points="788.78,-71.92 798.49,-67.68 788.26,-64.94 788.78,-71.92"/>
</a>
</g>
</g>
<!-- Node7&#45;&gt;Node2 -->
<g id="edge16_Node000007_Node000002" class="edge">
<title>Node7&#45;&gt;Node2</title>
<g id="a_edge16_Node000007_Node000002"><a xlink:title=" ">
<path fill="none" stroke="#63b8ff" d="M441.45,-164.98C373.96,-155.57 265.37,-140.43 193.97,-130.47"/>
<polygon fill="#63b8ff" stroke="#63b8ff" points="194.1,-126.95 183.72,-129.04 193.14,-133.89 194.1,-126.95"/>
</a>
</g>
</g>
<!-- Node7&#45;&gt;Node3 -->
<g id="edge33_Node000007_Node000003" class="edge">
<title>Node7&#45;&gt;Node3</title>
<g id="a_edge33_Node000007_Node000003"><a xlink:title=" ">
<path fill="none" stroke="#63b8ff" d="M484.5,-164.98C469.64,-157.24 448.74,-144.65 434.5,-129 409.48,-101.5 417.12,-85.24 395.5,-55 388.1,-44.65 378.44,-34.25 370.24,-26.11"/>
<polygon fill="#63b8ff" stroke="#63b8ff" points="372.58,-23.5 362.96,-19.07 367.72,-28.54 372.58,-23.5"/>
</a>
</g>
</g>
<!-- Node7&#45;&gt;Node4 -->
<g id="edge28_Node000007_Node000004" class="edge">
<title>Node7&#45;&gt;Node4</title>
<g id="a_edge28_Node000007_Node000004"><a xlink:title=" ">
<path fill="none" stroke="#63b8ff" d="M438.92,-167.78C379.52,-161.3 296.27,-148.98 270.5,-129 256.22,-117.93 248.42,-98.39 244.38,-83.9"/>
<polygon fill="#63b8ff" stroke="#63b8ff" points="247.74,-82.92 241.98,-74.03 240.94,-84.57 247.74,-82.92"/>
</a>
</g>
</g>
<!-- Node7&#45;&gt;Node5 -->
<g id="edge31_Node000007_Node000005" class="edge">
<title>Node7&#45;&gt;Node5</title>
<g id="a_edge31_Node000007_Node000005"><a xlink:title=" ">
<path fill="none" stroke="#63b8ff" d="M438.87,-171.11C321.63,-166.14 80.76,-153.11 51.5,-129 38.47,-118.26 34.13,-98.96 32.81,-84.45"/>
<polygon fill="#63b8ff" stroke="#63b8ff" points="36.28,-83.9 32.28,-74.09 29.29,-84.26 36.28,-83.9"/>
</a>
</g>
</g>
<!-- Node7&#45;&gt;Node6 -->
<g id="edge32_Node000007_Node000006" class="edge">
<title>Node7&#45;&gt;Node6</title>
<g id="a_edge32_Node000007_Node000006"><a xlink:title=" ">
<path fill="none" stroke="#63b8ff" d="M566.2,-170.09C663.87,-164.21 841.37,-150.65 860.5,-129 873.13,-114.7 858.73,-94.71 845.19,-81"/>
<polygon fill="#63b8ff" stroke="#63b8ff" points="847.59,-78.45 837.93,-74.1 842.77,-83.53 847.59,-78.45"/>
</a>
</g>
</g>
<!-- Node8 -->
<g id="Node000008" class="node">
<title>Node8</title>
<g id="a_Node000008"><a xlink:href="Types_8h.html" target="_top" xlink:title=" ">
<polygon fill="white" stroke="#666666" points="588,-74 535,-74 535,-55 588,-55 588,-74"/>
<text text-anchor="middle" x="561.5" y="-62" font-family="Helvetica,sans-Serif" font-size="10.00">Types.h</text>
</a>
</g>
</g>
<!-- Node7&#45;&gt;Node8 -->
<g id="edge7_Node000007_Node000008" class="edge">
<title>Node7&#45;&gt;Node8</title>
<g id="a_edge7_Node000007_Node000008"><a xlink:title=" ">
<path fill="none" stroke="#63b8ff" d="M566.05,-171.4C633.2,-167.69 732.64,-157.41 756.5,-129 761.93,-122.53 761.77,-116.6 756.5,-110 737.1,-85.67 649.26,-73.59 598.34,-68.54"/>
<polygon fill="#63b8ff" stroke="#63b8ff" points="598.36,-65.03 588.07,-67.57 597.7,-71.99 598.36,-65.03"/>
</a>
</g>
</g>
<!-- Node12 -->
<g id="Node000012" class="node">
<title>Node12</title>
<g id="a_Node000012"><a xlink:href="ConformationAtom_8h.html" target="_top" xlink:title=" ">
<polygon fill="white" stroke="#666666" points="562,-129 443,-129 443,-110 562,-110 562,-129"/>
<text text-anchor="middle" x="502.5" y="-117" font-family="Helvetica,sans-Serif" font-size="10.00">ConformationAtom.h</text>
</a>
</g>
</g>
<!-- Node7&#45;&gt;Node12 -->
<g id="edge12_Node000007_Node000012" class="edge">
<title>Node7&#45;&gt;Node12</title>
<g id="a_edge12_Node000007_Node000012"><a xlink:title=" ">
<path fill="none" stroke="#63b8ff" d="M502.5,-164.75C502.5,-157.8 502.5,-147.85 502.5,-139.13"/>
<polygon fill="#63b8ff" stroke="#63b8ff" points="506,-139.09 502.5,-129.09 499,-139.09 506,-139.09"/>
</a>
</g>
</g>
<!-- Node13 -->
<g id="Node000013" class="node">
<title>Node13</title>
<g id="a_Node000013"><a xlink:href="GeometryChoice_8h.html" target="_top" xlink:title=" ">
<polygon fill="white" stroke="#666666" points="386,-129 279,-129 279,-110 386,-110 386,-129"/>
<text text-anchor="middle" x="332.5" y="-117" font-family="Helvetica,sans-Serif" font-size="10.00">GeometryChoice.h</text>
</a>
</g>
</g>
<!-- Node7&#45;&gt;Node13 -->
<g id="edge17_Node000007_Node000013" class="edge">
<title>Node7&#45;&gt;Node13</title>
<g id="a_edge17_Node000007_Node000013"><a xlink:title=" ">
<path fill="none" stroke="#63b8ff" d="M475.19,-164.98C446.65,-156.09 401.67,-142.07 369.86,-132.15"/>
<polygon fill="#63b8ff" stroke="#63b8ff" points="370.62,-128.72 360.03,-129.08 368.53,-135.4 370.62,-128.72"/>
</a>
</g>
</g>
<!-- Node15 -->
<g id="Node000015" class="node">
<title>Node15</title>
<g id="a_Node000015"><a xlink:href="Ring_8h.html" target="_top" xlink:title=" ">
<polygon fill="white" stroke="#666666" points="851,-129 804,-129 804,-110 851,-110 851,-129"/>
<text text-anchor="middle" x="827.5" y="-117" font-family="Helvetica,sans-Serif" font-size="10.00">Ring.h</text>
</a>
</g>
</g>
<!-- Node7&#45;&gt;Node15 -->
<g id="edge22_Node000007_Node000015" class="edge">
<title>Node7&#45;&gt;Node15</title>
<g id="a_edge22_Node000007_Node000015"><a xlink:title=" ">
<path fill="none" stroke="#63b8ff" d="M565.41,-164.97C623.69,-156.77 712.71,-143.53 789.5,-129 790.95,-128.73 792.44,-128.44 793.93,-128.13"/>
<polygon fill="#63b8ff" stroke="#63b8ff" points="794.77,-131.53 803.83,-126.05 793.33,-124.69 794.77,-131.53"/>
</a>
</g>
</g>
<!-- Node7&#45;&gt;Node16 -->
<g id="edge29_Node000007_Node000016" class="edge">
<title>Node7&#45;&gt;Node16</title>
<g id="a_edge29_Node000007_Node000016"><a xlink:title=" ">
<path fill="none" stroke="#63b8ff" d="M566.3,-172.37C659.21,-169.65 826.16,-160.42 876.5,-129 893.16,-118.6 904.36,-98.66 910.78,-83.88"/>
<polygon fill="#63b8ff" stroke="#63b8ff" points="914.17,-84.83 914.62,-74.25 907.67,-82.24 914.17,-84.83"/>
</a>
</g>
</g>
<!-- Node17 -->
<g id="Node000017" class="node">
<title>Node17</title>
<g id="a_Node000017"><a xlink:title=" ">
<polygon fill="#e0e0e0" stroke="#999999" points="673,-129 580,-129 580,-110 673,-110 673,-129"/>
<text text-anchor="middle" x="626.5" y="-117" font-family="Helvetica,sans-Serif" font-size="10.00">unordered_map</text>
</a>
</g>
</g>
<!-- Node7&#45;&gt;Node17 -->
<g id="edge30_Node000007_Node000017" class="edge">
<title>Node7&#45;&gt;Node17</title>
<g id="a_edge30_Node000007_Node000017"><a xlink:title=" ">
<path fill="none" stroke="#63b8ff" d="M522.42,-164.98C542.55,-156.38 573.88,-142.99 596.91,-133.15"/>
<polygon fill="#63b8ff" stroke="#63b8ff" points="598.4,-136.32 606.21,-129.17 595.64,-129.88 598.4,-136.32"/>
</a>
</g>
</g>
<!-- Node18 -->
<g id="Node000018" class="node">
<title>Node18</title>
<g id="a_Node000018"><a xlink:title=" ">
<polygon fill="#e0e0e0" stroke="#999999" points="747.5,-129 691.5,-129 691.5,-110 747.5,-110 747.5,-129"/>
<text text-anchor="middle" x="719.5" y="-117" font-family="Helvetica,sans-Serif" font-size="10.00">sstream</text>
</a>
</g>
</g>
<!-- Node7&#45;&gt;Node18 -->
<g id="edge34_Node000007_Node000018" class="edge">
<title>Node7&#45;&gt;Node18</title>
<g id="a_edge34_Node000007_Node000018"><a xlink:title=" ">
<path fill="none" stroke="#63b8ff" d="M537.36,-164.98C576.79,-155.35 640.79,-139.72 681.48,-129.79"/>
<polygon fill="#63b8ff" stroke="#63b8ff" points="682.41,-133.16 691.29,-127.39 680.74,-126.36 682.41,-133.16"/>
</a>
</g>
</g>
<!-- Node8&#45;&gt;Node3 -->
<g id="edge11_Node000008_Node000003" class="edge">
<title>Node8&#45;&gt;Node3</title>
<g id="a_edge11_Node000008_Node000003"><a xlink:title=" ">
<path fill="none" stroke="#63b8ff" d="M534.73,-56.68C496.5,-46.94 426.36,-29.06 385.45,-18.64"/>
<polygon fill="#63b8ff" stroke="#63b8ff" points="386.28,-15.24 375.72,-16.16 384.55,-22.02 386.28,-15.24"/>
</a>
</g>
</g>
<!-- Node9 -->
<g id="Node000009" class="node">
<title>Node9</title>
<g id="a_Node000009"><a xlink:title=" ">
<polygon fill="#e0e0e0" stroke="#999999" points="715,-19 638,-19 638,0 715,0 715,-19"/>
<text text-anchor="middle" x="676.5" y="-7" font-family="Helvetica,sans-Serif" font-size="10.00">Eigen/Dense</text>
</a>
</g>
</g>
<!-- Node8&#45;&gt;Node9 -->
<g id="edge8_Node000008_Node000009" class="edge">
<title>Node8&#45;&gt;Node9</title>
<g id="a_edge8_Node000008_Node000009"><a xlink:title=" ">
<path fill="none" stroke="#63b8ff" d="M579.98,-54.98C598.48,-46.46 627.18,-33.23 648.48,-23.41"/>
<polygon fill="#63b8ff" stroke="#63b8ff" points="650.07,-26.53 657.69,-19.17 647.14,-20.18 650.07,-26.53"/>
</a>
</g>
</g>
<!-- Node10 -->
<g id="Node000010" class="node">
<title>Node10</title>
<g id="a_Node000010"><a xlink:title=" ">
<polygon fill="#e0e0e0" stroke="#999999" points="523.5,-19 481.5,-19 481.5,0 523.5,0 523.5,-19"/>
<text text-anchor="middle" x="502.5" y="-7" font-family="Helvetica,sans-Serif" font-size="10.00">array</text>
</a>
</g>
</g>
<!-- Node8&#45;&gt;Node10 -->
<g id="edge9_Node000008_Node000010" class="edge">
<title>Node8&#45;&gt;Node10</title>
<g id="a_edge9_Node000008_Node000010"><a xlink:title=" ">
<path fill="none" stroke="#63b8ff" d="M552.02,-54.98C543.3,-47.15 530.16,-35.34 519.6,-25.86"/>
<polygon fill="#63b8ff" stroke="#63b8ff" points="521.93,-23.25 512.15,-19.17 517.25,-28.46 521.93,-23.25"/>
</a>
</g>
</g>
<!-- Node11 -->
<g id="Node000011" class="node">
<title>Node11</title>
<g id="a_Node000011"><a xlink:title=" ">
<polygon fill="#e0e0e0" stroke="#999999" points="589,-19 542,-19 542,0 589,0 589,-19"/>
<text text-anchor="middle" x="565.5" y="-7" font-family="Helvetica,sans-Serif" font-size="10.00">cmath</text>
</a>
</g>
</g>
<!-- Node8&#45;&gt;Node11 -->
<g id="edge10_Node000008_Node000011" class="edge">
<title>Node8&#45;&gt;Node11</title>
<g id="a_edge10_Node000008_Node000011"><a xlink:title=" ">
<path fill="none" stroke="#63b8ff" d="M562.16,-54.75C562.68,-47.8 563.44,-37.85 564.09,-29.13"/>
<polygon fill="#63b8ff" stroke="#63b8ff" points="567.59,-29.32 564.85,-19.09 560.61,-28.8 567.59,-29.32"/>
</a>
</g>
</g>
<!-- Node12&#45;&gt;Node4 -->
<g id="edge14_Node000012_Node000004" class="edge">
<title>Node12&#45;&gt;Node4</title>
<g id="a_edge14_Node000012_Node000004"><a xlink:title=" ">
<path fill="none" stroke="#63b8ff" d="M460.41,-109.98C408.63,-99.51 321.77,-81.94 274.19,-72.32"/>
<polygon fill="#63b8ff" stroke="#63b8ff" points="274.59,-68.83 264.1,-70.27 273.21,-75.69 274.59,-68.83"/>
</a>
</g>
</g>
<!-- Node12&#45;&gt;Node8 -->
<g id="edge13_Node000012_Node000008" class="edge">
<title>Node12&#45;&gt;Node8</title>
<g id="a_edge13_Node000012_Node000008"><a xlink:title=" ">
<path fill="none" stroke="#63b8ff" d="M511.98,-109.98C520.7,-102.15 533.84,-90.34 544.4,-80.86"/>
<polygon fill="#63b8ff" stroke="#63b8ff" points="546.75,-83.46 551.85,-74.17 542.07,-78.25 546.75,-83.46"/>
</a>
</g>
</g>
<!-- Node12&#45;&gt;Node10 -->
<g id="edge15_Node000012_Node000010" class="edge">
<title>Node12&#45;&gt;Node10</title>
<g id="a_edge15_Node000012_Node000010"><a xlink:title=" ">
<path fill="none" stroke="#63b8ff" d="M502.5,-109.66C502.5,-92.17 502.5,-52.8 502.5,-29.27"/>
<polygon fill="#63b8ff" stroke="#63b8ff" points="506,-29.16 502.5,-19.16 499,-29.16 506,-29.16"/>
</a>
</g>
</g>
<!-- Node13&#45;&gt;Node3 -->
<g id="edge19_Node000013_Node000003" class="edge">
<title>Node13&#45;&gt;Node3</title>
<g id="a_edge19_Node000013_Node000003"><a xlink:title=" ">
<path fill="none" stroke="#63b8ff" d="M325.98,-109.74C317.61,-97.38 305.02,-74.16 312.5,-55 316.9,-43.73 325.64,-33.59 333.93,-25.85"/>
<polygon fill="#63b8ff" stroke="#63b8ff" points="336.32,-28.4 341.57,-19.2 331.73,-23.12 336.32,-28.4"/>
</a>
</g>
</g>
<!-- Node13&#45;&gt;Node4 -->
<g id="edge20_Node000013_Node000004" class="edge">
<title>Node13&#45;&gt;Node4</title>
<g id="a_edge20_Node000013_Node000004"><a xlink:title=" ">
<path fill="none" stroke="#63b8ff" d="M317.72,-109.98C303.32,-101.69 281.19,-88.94 264.31,-79.22"/>
<polygon fill="#63b8ff" stroke="#63b8ff" points="265.96,-76.13 255.55,-74.17 262.47,-82.19 265.96,-76.13"/>
</a>
</g>
</g>
<!-- Node13&#45;&gt;Node8 -->
<g id="edge18_Node000013_Node000008" class="edge">
<title>Node13&#45;&gt;Node8</title>
<g id="a_edge18_Node000013_Node000008"><a xlink:title=" ">
<path fill="none" stroke="#63b8ff" d="M369.29,-109.98C412.04,-100.09 482.15,-83.86 524.84,-73.98"/>
<polygon fill="#63b8ff" stroke="#63b8ff" points="525.86,-77.34 534.81,-71.68 524.28,-70.52 525.86,-77.34"/>
</a>
</g>
</g>
<!-- Node14 -->
<g id="Node000014" class="node">
<title>Node14</title>
<g id="a_Node000014"><a xlink:title=" ">
<polygon fill="#e0e0e0" stroke="#999999" points="386,-74 321,-74 321,-55 386,-55 386,-74"/>
<text text-anchor="middle" x="353.5" y="-62" font-family="Helvetica,sans-Serif" font-size="10.00">functional</text>
</a>
</g>
</g>
<!-- Node13&#45;&gt;Node14 -->
<g id="edge21_Node000013_Node000014" class="edge">
<title>Node13&#45;&gt;Node14</title>
<g id="a_edge21_Node000013_Node000014"><a xlink:title=" ">
<path fill="none" stroke="#63b8ff" d="M335.97,-109.75C338.78,-102.65 342.84,-92.4 346.35,-83.56"/>
<polygon fill="#63b8ff" stroke="#63b8ff" points="349.67,-84.68 350.1,-74.09 343.16,-82.1 349.67,-84.68"/>
</a>
</g>
</g>
<!-- Node15&#45;&gt;Node4 -->
<g id="edge25_Node000015_Node000004" class="edge">
<title>Node15&#45;&gt;Node4</title>
<g id="a_edge25_Node000015_Node000004"><a xlink:title=" ">
<path fill="none" stroke="#63b8ff" d="M803.86,-115.44C790.06,-113.71 772.31,-111.59 756.5,-110 559.51,-90.23 509.51,-93.61 312.5,-74 300,-72.76 286.31,-71.19 274.25,-69.74"/>
<polygon fill="#63b8ff" stroke="#63b8ff" points="274.5,-66.25 264.15,-68.51 273.65,-73.2 274.5,-66.25"/>
</a>
</g>
</g>
<!-- Node15&#45;&gt;Node6 -->
<g id="edge27_Node000015_Node000006" class="edge">
<title>Node15&#45;&gt;Node6</title>
<g id="a_edge27_Node000015_Node000006"><a xlink:title=" ">
<path fill="none" stroke="#63b8ff" d="M827.5,-109.75C827.5,-102.8 827.5,-92.85 827.5,-84.13"/>
<polygon fill="#63b8ff" stroke="#63b8ff" points="831,-84.09 827.5,-74.09 824,-84.09 831,-84.09"/>
</a>
</g>
</g>
<!-- Node15&#45;&gt;Node8 -->
<g id="edge23_Node000015_Node000008" class="edge">
<title>Node15&#45;&gt;Node8</title>
<g id="a_edge23_Node000015_Node000008"><a xlink:title=" ">
<path fill="none" stroke="#63b8ff" d="M803.8,-113.09C799.07,-112.04 794.13,-110.97 789.5,-110 722.12,-95.89 643.22,-80.81 598.13,-72.33"/>
<polygon fill="#63b8ff" stroke="#63b8ff" points="598.7,-68.88 588.22,-70.47 597.41,-75.76 598.7,-68.88"/>
</a>
</g>
</g>
<!-- Node15&#45;&gt;Node9 -->
<g id="edge24_Node000015_Node000009" class="edge">
<title>Node15&#45;&gt;Node9</title>
<g id="a_edge24_Node000015_Node000009"><a xlink:title=" ">
<path fill="none" stroke="#63b8ff" d="M815.4,-109.84C789.55,-91.36 728.73,-47.86 696.84,-25.05"/>
<polygon fill="#63b8ff" stroke="#63b8ff" points="698.83,-22.17 688.66,-19.2 694.76,-27.86 698.83,-22.17"/>
</a>
</g>
</g>
<!-- Node15&#45;&gt;Node16 -->
<g id="edge26_Node000015_Node000016" class="edge">
<title>Node15&#45;&gt;Node16</title>
<g id="a_edge26_Node000015_Node000016"><a xlink:title=" ">
<path fill="none" stroke="#63b8ff" d="M841.96,-109.98C855.92,-101.77 877.29,-89.18 893.75,-79.49"/>
<polygon fill="#63b8ff" stroke="#63b8ff" points="895.94,-82.26 902.78,-74.17 892.38,-76.23 895.94,-82.26"/>
</a>
</g>
</g>
</g>
</svg>
