<?xml version="1.0" encoding="UTF-8" standalone="no"?>
<!DOCTYPE svg PUBLIC "-//W3C//DTD SVG 1.1//EN"
 "http://www.w3.org/Graphics/SVG/1.1/DTD/svg11.dtd">
<!-- Generated by graphviz version 2.43.0 (0)
 -->
<!-- Title: src/GeometryResult.h Pages: 1 -->
<svg width="1603pt" height="302pt"
 viewBox="0.00 0.00 1603.47 302.00" xmlns="http://www.w3.org/2000/svg" xmlns:xlink="http://www.w3.org/1999/xlink">
<g id="graph0" class="graph" transform="scale(1 1) rotate(0) translate(4 298)">
<title>src/GeometryResult.h</title>
<!-- Node1 -->
<g id="Node000001" class="node">
<title>Node1</title>
<g id="a_Node000001"><a xlink:title=" ">
<polygon fill="#999999" stroke="#666666" points="516.53,-294 394.53,-294 394.53,-275 516.53,-275 516.53,-294"/>
<text text-anchor="middle" x="455.53" y="-282" font-family="Helvetica,sans-Serif" font-size="10.00">src/GeometryResult.h</text>
</a>
</g>
</g>
<!-- Node2 -->
<g id="Node000002" class="node">
<title>Node2</title>
<g id="a_Node000002"><a xlink:href="ConformationResult_8h.html" target="_top" xlink:title=" ">
<polygon fill="white" stroke="#666666" points="170.03,-129 47.03,-129 47.03,-110 170.03,-110 170.03,-129"/>
<text text-anchor="middle" x="108.53" y="-117" font-family="Helvetica,sans-Serif" font-size="10.00">ConformationResult.h</text>
</a>
</g>
</g>
<!-- Node1&#45;&gt;Node2 -->
<g id="edge1_Node000001_Node000002" class="edge">
<title>Node1&#45;&gt;Node2</title>
<g id="a_edge1_Node000001_Node000002"><a xlink:title=" ">
<path fill="none" stroke="#63b8ff" d="M437.36,-274.97C380.34,-248.18 204.67,-165.66 136.23,-133.51"/>
<polygon fill="#63b8ff" stroke="#63b8ff" points="137.48,-130.23 126.94,-129.15 134.5,-136.57 137.48,-130.23"/>
</a>
</g>
</g>
<!-- Node7 -->
<g id="Node000007" class="node">
<title>Node7</title>
<g id="a_Node000007"><a xlink:href="ProteinConformation_8h.html" target="_top" xlink:title=" ">
<polygon fill="white" stroke="#666666" points="519.03,-184 392.03,-184 392.03,-165 519.03,-165 519.03,-184"/>
<text text-anchor="middle" x="455.53" y="-172" font-family="Helvetica,sans-Serif" font-size="10.00">ProteinConformation.h</text>
</a>
</g>
</g>
<!-- Node1&#45;&gt;Node7 -->
<g id="edge6_Node000001_Node000007" class="edge">
<title>Node1&#45;&gt;Node7</title>
<g id="a_edge6_Node000001_Node000007"><a xlink:title=" ">
<path fill="none" stroke="#63b8ff" d="M455.53,-274.66C455.53,-257.17 455.53,-217.8 455.53,-194.27"/>
<polygon fill="#63b8ff" stroke="#63b8ff" points="459.03,-194.16 455.53,-184.16 452.03,-194.16 459.03,-194.16"/>
</a>
</g>
</g>
<!-- Node19 -->
<g id="Node000019" class="node">
<title>Node19</title>
<g id="a_Node000019"><a xlink:href="Protein_8h.html" target="_top" xlink:title=" ">
<polygon fill="white" stroke="#666666" points="898.53,-239 838.53,-239 838.53,-220 898.53,-220 898.53,-239"/>
<text text-anchor="middle" x="868.53" y="-227" font-family="Helvetica,sans-Serif" font-size="10.00">Protein.h</text>
</a>
</g>
</g>
<!-- Node1&#45;&gt;Node19 -->
<g id="edge35_Node000001_Node000019" class="edge">
<title>Node1&#45;&gt;Node19</title>
<g id="a_edge35_Node000001_Node000019"><a xlink:title=" ">
<path fill="none" stroke="#63b8ff" d="M516.92,-275.62C602.58,-264.63 755.63,-244.99 828.21,-235.67"/>
<polygon fill="#63b8ff" stroke="#63b8ff" points="828.85,-239.12 838.32,-234.38 827.96,-232.18 828.85,-239.12"/>
</a>
</g>
</g>
<!-- Node3 -->
<g id="Node000003" class="node">
<title>Node3</title>
<g id="a_Node000003"><a xlink:title=" ">
<polygon fill="#e0e0e0" stroke="#999999" points="697.53,-19 653.53,-19 653.53,0 697.53,0 697.53,-19"/>
<text text-anchor="middle" x="675.53" y="-7" font-family="Helvetica,sans-Serif" font-size="10.00">string</text>
</a>
</g>
</g>
<!-- Node2&#45;&gt;Node3 -->
<g id="edge2_Node000002_Node000003" class="edge">
<title>Node2&#45;&gt;Node3</title>
<g id="a_edge2_Node000002_Node000003"><a xlink:title=" ">
<path fill="none" stroke="#63b8ff" d="M142.05,-109.98C193.97,-96.98 297.09,-71.9 385.53,-55 478.64,-37.21 589.62,-21.77 643.3,-14.66"/>
<polygon fill="#63b8ff" stroke="#63b8ff" points="643.79,-18.13 653.24,-13.35 642.87,-11.19 643.79,-18.13"/>
</a>
</g>
</g>
<!-- Node4 -->
<g id="Node000004" class="node">
<title>Node4</title>
<g id="a_Node000004"><a xlink:title=" ">
<polygon fill="#e0e0e0" stroke="#999999" points="996.03,-74 949.03,-74 949.03,-55 996.03,-55 996.03,-74"/>
<text text-anchor="middle" x="972.53" y="-62" font-family="Helvetica,sans-Serif" font-size="10.00">vector</text>
</a>
</g>
</g>
<!-- Node2&#45;&gt;Node4 -->
<g id="edge3_Node000002_Node000004" class="edge">
<title>Node2&#45;&gt;Node4</title>
<g id="a_edge3_Node000002_Node000004"><a xlink:title=" ">
<path fill="none" stroke="#63b8ff" d="M170.34,-110.76C173.11,-110.48 175.85,-110.23 178.53,-110 493.77,-82.91 574.05,-98.13 889.53,-74 905.69,-72.76 923.57,-70.99 938.59,-69.37"/>
<polygon fill="#63b8ff" stroke="#63b8ff" points="939.39,-72.81 948.95,-68.24 938.63,-65.85 939.39,-72.81"/>
</a>
</g>
</g>
<!-- Node5 -->
<g id="Node000005" class="node">
<title>Node5</title>
<g id="a_Node000005"><a xlink:title=" ">
<polygon fill="#e0e0e0" stroke="#999999" points="107.03,-74 42.03,-74 42.03,-55 107.03,-55 107.03,-74"/>
<text text-anchor="middle" x="74.53" y="-62" font-family="Helvetica,sans-Serif" font-size="10.00">typeindex</text>
</a>
</g>
</g>
<!-- Node2&#45;&gt;Node5 -->
<g id="edge4_Node000002_Node000005" class="edge">
<title>Node2&#45;&gt;Node5</title>
<g id="a_edge4_Node000002_Node000005"><a xlink:title=" ">
<path fill="none" stroke="#63b8ff" d="M102.92,-109.75C98.21,-102.42 91.36,-91.73 85.56,-82.7"/>
<polygon fill="#63b8ff" stroke="#63b8ff" points="88.39,-80.62 80.04,-74.09 82.5,-84.4 88.39,-80.62"/>
</a>
</g>
</g>
<!-- Node6 -->
<g id="Node000006" class="node">
<title>Node6</title>
<g id="a_Node000006"><a xlink:title=" ">
<polygon fill="#e0e0e0" stroke="#999999" points="614.53,-74 556.53,-74 556.53,-55 614.53,-55 614.53,-74"/>
<text text-anchor="middle" x="585.53" y="-62" font-family="Helvetica,sans-Serif" font-size="10.00">memory</text>
</a>
</g>
</g>
<!-- Node2&#45;&gt;Node6 -->
<g id="edge5_Node000002_Node000006" class="edge">
<title>Node2&#45;&gt;Node6</title>
<g id="a_edge5_Node000002_Node000006"><a xlink:title=" ">
<path fill="none" stroke="#63b8ff" d="M170.36,-110.95C173.12,-110.63 175.86,-110.31 178.53,-110 313.47,-94.43 473.75,-77.31 546.34,-69.63"/>
<polygon fill="#63b8ff" stroke="#63b8ff" points="546.82,-73.1 556.4,-68.56 546.09,-66.14 546.82,-73.1"/>
</a>
</g>
</g>
<!-- Node7&#45;&gt;Node2 -->
<g id="edge16_Node000007_Node000002" class="edge">
<title>Node7&#45;&gt;Node2</title>
<g id="a_edge16_Node000007_Node000002"><a xlink:title=" ">
<path fill="none" stroke="#63b8ff" d="M399.78,-164.98C338.41,-155.61 239.81,-140.55 174.6,-130.59"/>
<polygon fill="#63b8ff" stroke="#63b8ff" points="174.85,-127.09 164.43,-129.04 173.79,-134.01 174.85,-127.09"/>
</a>
</g>
</g>
<!-- Node7&#45;&gt;Node3 -->
<g id="edge33_Node000007_Node000003" class="edge">
<title>Node7&#45;&gt;Node3</title>
<g id="a_edge33_Node000007_Node000003"><a xlink:title=" ">
<path fill="none" stroke="#63b8ff" d="M391.68,-171.45C278.74,-167.17 53.3,-155.38 29.53,-129 18.63,-116.9 5.37,-82.56 32.53,-55 75.7,-11.2 518.92,-9.81 643.26,-10.29"/>
<polygon fill="#63b8ff" stroke="#63b8ff" points="643.28,-13.79 653.3,-10.34 643.31,-6.79 643.28,-13.79"/>
</a>
</g>
</g>
<!-- Node7&#45;&gt;Node4 -->
<g id="edge28_Node000007_Node000004" class="edge">
<title>Node7&#45;&gt;Node4</title>
<g id="a_edge28_Node000007_Node000004"><a xlink:title=" ">
<path fill="none" stroke="#63b8ff" d="M519.2,-173.38C629.93,-172.19 852.64,-165.21 920.53,-129 939.71,-118.77 954.5,-98.18 963.32,-83.21"/>
<polygon fill="#63b8ff" stroke="#63b8ff" points="966.44,-84.79 968.24,-74.35 960.32,-81.39 966.44,-84.79"/>
</a>
</g>
</g>
<!-- Node7&#45;&gt;Node5 -->
<g id="edge31_Node000007_Node000005" class="edge">
<title>Node7&#45;&gt;Node5</title>
<g id="a_edge31_Node000007_Node000005"><a xlink:title=" ">
<path fill="none" stroke="#63b8ff" d="M392.01,-171.33C280.89,-166.87 60.77,-154.84 37.53,-129 24.43,-114.43 40.36,-94.49 55.21,-80.87"/>
<polygon fill="#63b8ff" stroke="#63b8ff" points="57.86,-83.2 63.15,-74.02 53.29,-77.9 57.86,-83.2"/>
</a>
</g>
</g>
<!-- Node7&#45;&gt;Node6 -->
<g id="edge32_Node000007_Node000006" class="edge">
<title>Node7&#45;&gt;Node6</title>
<g id="a_edge32_Node000007_Node000006"><a xlink:title=" ">
<path fill="none" stroke="#63b8ff" d="M466.17,-164.66C488.37,-146.22 539.86,-103.45 567.39,-80.57"/>
<polygon fill="#63b8ff" stroke="#63b8ff" points="569.65,-83.24 575.11,-74.16 565.18,-77.86 569.65,-83.24"/>
</a>
</g>
</g>
<!-- Node8 -->
<g id="Node000008" class="node">
<title>Node8</title>
<g id="a_Node000008"><a xlink:href="Types_8h.html" target="_top" xlink:title=" ">
<polygon fill="white" stroke="#666666" points="1253.03,-74 1200.03,-74 1200.03,-55 1253.03,-55 1253.03,-74"/>
<text text-anchor="middle" x="1226.53" y="-62" font-family="Helvetica,sans-Serif" font-size="10.00">Types.h</text>
</a>
</g>
</g>
<!-- Node7&#45;&gt;Node8 -->
<g id="edge7_Node000007_Node000008" class="edge">
<title>Node7&#45;&gt;Node8</title>
<g id="a_edge7_Node000007_Node000008"><a xlink:title=" ">
<path fill="none" stroke="#63b8ff" d="M519.26,-172.2C700.3,-168.19 1206.24,-154.72 1230.53,-129 1241.65,-117.22 1238.72,-98.11 1234.19,-83.92"/>
<polygon fill="#63b8ff" stroke="#63b8ff" points="1237.36,-82.41 1230.61,-74.24 1230.79,-84.83 1237.36,-82.41"/>
</a>
</g>
</g>
<!-- Node12 -->
<g id="Node000012" class="node">
<title>Node12</title>
<g id="a_Node000012"><a xlink:href="ConformationAtom_8h.html" target="_top" xlink:title=" ">
<polygon fill="white" stroke="#666666" points="1397.03,-129 1278.03,-129 1278.03,-110 1397.03,-110 1397.03,-129"/>
<text text-anchor="middle" x="1337.53" y="-117" font-family="Helvetica,sans-Serif" font-size="10.00">ConformationAtom.h</text>
</a>
</g>
</g>
<!-- Node7&#45;&gt;Node12 -->
<g id="edge12_Node000007_Node000012" class="edge">
<title>Node7&#45;&gt;Node12</title>
<g id="a_edge12_Node000007_Node000012"><a xlink:title=" ">
<path fill="none" stroke="#63b8ff" d="M519.26,-171.28C655.84,-166.23 986.88,-152.49 1263.53,-129 1264.84,-128.89 1266.15,-128.77 1267.48,-128.65"/>
<polygon fill="#63b8ff" stroke="#63b8ff" points="1268.17,-132.11 1277.79,-127.67 1267.5,-125.14 1268.17,-132.11"/>
</a>
</g>
</g>
<!-- Node13 -->
<g id="Node000013" class="node">
<title>Node13</title>
<g id="a_Node000013"><a xlink:href="GeometryChoice_8h.html" target="_top" xlink:title=" ">
<polygon fill="white" stroke="#666666" points="481.03,-129 374.03,-129 374.03,-110 481.03,-110 481.03,-129"/>
<text text-anchor="middle" x="427.53" y="-117" font-family="Helvetica,sans-Serif" font-size="10.00">GeometryChoice.h</text>
</a>
</g>
</g>
<!-- Node7&#45;&gt;Node13 -->
<g id="edge17_Node000007_Node000013" class="edge">
<title>Node7&#45;&gt;Node13</title>
<g id="a_edge17_Node000007_Node000013"><a xlink:title=" ">
<path fill="none" stroke="#63b8ff" d="M450.91,-164.75C447.08,-157.49 441.51,-146.95 436.77,-137.98"/>
<polygon fill="#63b8ff" stroke="#63b8ff" points="439.84,-136.3 432.07,-129.09 433.65,-139.57 439.84,-136.3"/>
</a>
</g>
</g>
<!-- Node15 -->
<g id="Node000015" class="node">
<title>Node15</title>
<g id="a_Node000015"><a xlink:href="Ring_8h.html" target="_top" xlink:title=" ">
<polygon fill="white" stroke="#666666" points="911.03,-129 864.03,-129 864.03,-110 911.03,-110 911.03,-129"/>
<text text-anchor="middle" x="887.53" y="-117" font-family="Helvetica,sans-Serif" font-size="10.00">Ring.h</text>
</a>
</g>
</g>
<!-- Node7&#45;&gt;Node15 -->
<g id="edge22_Node000007_Node000015" class="edge">
<title>Node7&#45;&gt;Node15</title>
<g id="a_edge22_Node000007_Node000015"><a xlink:title=" ">
<path fill="none" stroke="#63b8ff" d="M519.17,-169.19C596.17,-163.34 729.85,-151.22 853.78,-128.87"/>
<polygon fill="#63b8ff" stroke="#63b8ff" points="854.62,-132.27 863.83,-127.03 853.36,-125.39 854.62,-132.27"/>
</a>
</g>
</g>
<!-- Node16 -->
<g id="Node000016" class="node">
<title>Node16</title>
<g id="a_Node000016"><a xlink:title=" ">
<polygon fill="#e0e0e0" stroke="#999999" points="880.53,-74 842.53,-74 842.53,-55 880.53,-55 880.53,-74"/>
<text text-anchor="middle" x="861.53" y="-62" font-family="Helvetica,sans-Serif" font-size="10.00">map</text>
</a>
</g>
</g>
<!-- Node7&#45;&gt;Node16 -->
<g id="edge29_Node000007_Node000016" class="edge">
<title>Node7&#45;&gt;Node16</title>
<g id="a_edge29_Node000007_Node000016"><a xlink:title=" ">
<path fill="none" stroke="#63b8ff" d="M519.21,-170.22C579.21,-165.63 670.94,-154.74 746.53,-129 756.02,-125.77 806.72,-97.03 837.54,-79.34"/>
<polygon fill="#63b8ff" stroke="#63b8ff" points="839.48,-82.26 846.41,-74.24 835.99,-76.19 839.48,-82.26"/>
</a>
</g>
</g>
<!-- Node17 -->
<g id="Node000017" class="node">
<title>Node17</title>
<g id="a_Node000017"><a xlink:title=" ">
<polygon fill="#e0e0e0" stroke="#999999" points="281.03,-129 188.03,-129 188.03,-110 281.03,-110 281.03,-129"/>
<text text-anchor="middle" x="234.53" y="-117" font-family="Helvetica,sans-Serif" font-size="10.00">unordered_map</text>
</a>
</g>
</g>
<!-- Node7&#45;&gt;Node17 -->
<g id="edge30_Node000007_Node000017" class="edge">
<title>Node7&#45;&gt;Node17</title>
<g id="a_edge30_Node000007_Node000017"><a xlink:title=" ">
<path fill="none" stroke="#63b8ff" d="M420.02,-164.98C382.04,-155.87 321.66,-141.4 280.17,-131.45"/>
<polygon fill="#63b8ff" stroke="#63b8ff" points="280.86,-128.01 270.32,-129.08 279.23,-134.82 280.86,-128.01"/>
</a>
</g>
</g>
<!-- Node18 -->
<g id="Node000018" class="node">
<title>Node18</title>
<g id="a_Node000018"><a xlink:title=" ">
<polygon fill="#e0e0e0" stroke="#999999" points="355.53,-129 299.53,-129 299.53,-110 355.53,-110 355.53,-129"/>
<text text-anchor="middle" x="327.53" y="-117" font-family="Helvetica,sans-Serif" font-size="10.00">sstream</text>
</a>
</g>
</g>
<!-- Node7&#45;&gt;Node18 -->
<g id="edge34_Node000007_Node000018" class="edge">
<title>Node7&#45;&gt;Node18</title>
<g id="a_edge34_Node000007_Node000018"><a xlink:title=" ">
<path fill="none" stroke="#63b8ff" d="M434.97,-164.98C414.1,-156.34 381.56,-142.87 357.76,-133.02"/>
<polygon fill="#63b8ff" stroke="#63b8ff" points="359.05,-129.76 348.47,-129.17 356.37,-136.23 359.05,-129.76"/>
</a>
</g>
</g>
<!-- Node8&#45;&gt;Node3 -->
<g id="edge11_Node000008_Node000003" class="edge">
<title>Node8&#45;&gt;Node3</title>
<g id="a_edge11_Node000008_Node000003"><a xlink:title=" ">
<path fill="none" stroke="#63b8ff" d="M1199.89,-59.65C1188.68,-58.09 1175.49,-56.35 1163.53,-55 992.37,-35.66 786.68,-19.07 708.16,-12.99"/>
<polygon fill="#63b8ff" stroke="#63b8ff" points="708.18,-9.48 697.94,-12.2 707.64,-16.46 708.18,-9.48"/>
</a>
</g>
</g>
<!-- Node9 -->
<g id="Node000009" class="node">
<title>Node9</title>
<g id="a_Node000009"><a xlink:title=" ">
<polygon fill="#e0e0e0" stroke="#999999" points="1089.03,-19 1012.03,-19 1012.03,0 1089.03,0 1089.03,-19"/>
<text text-anchor="middle" x="1050.53" y="-7" font-family="Helvetica,sans-Serif" font-size="10.00">Eigen/Dense</text>
</a>
</g>
</g>
<!-- Node8&#45;&gt;Node9 -->
<g id="edge8_Node000008_Node000009" class="edge">
<title>Node8&#45;&gt;Node9</title>
<g id="a_edge8_Node000008_Node000009"><a xlink:title=" ">
<path fill="none" stroke="#63b8ff" d="M1199.8,-55.45C1170.26,-46.55 1122.43,-32.15 1088.89,-22.05"/>
<polygon fill="#63b8ff" stroke="#63b8ff" points="1089.56,-18.6 1078.98,-19.07 1087.54,-25.3 1089.56,-18.6"/>
</a>
</g>
</g>
<!-- Node10 -->
<g id="Node000010" class="node">
<title>Node10</title>
<g id="a_Node000010"><a xlink:title=" ">
<polygon fill="#e0e0e0" stroke="#999999" points="1288.53,-19 1246.53,-19 1246.53,0 1288.53,0 1288.53,-19"/>
<text text-anchor="middle" x="1267.53" y="-7" font-family="Helvetica,sans-Serif" font-size="10.00">array</text>
</a>
</g>
</g>
<!-- Node8&#45;&gt;Node10 -->
<g id="edge9_Node000008_Node000010" class="edge">
<title>Node8&#45;&gt;Node10</title>
<g id="a_edge9_Node000008_Node000010"><a xlink:title=" ">
<path fill="none" stroke="#63b8ff" d="M1233.3,-54.75C1239.09,-47.26 1247.59,-36.28 1254.67,-27.13"/>
<polygon fill="#63b8ff" stroke="#63b8ff" points="1257.54,-29.14 1260.89,-19.09 1252,-24.86 1257.54,-29.14"/>
</a>
</g>
</g>
<!-- Node11 -->
<g id="Node000011" class="node">
<title>Node11</title>
<g id="a_Node000011"><a xlink:title=" ">
<polygon fill="#e0e0e0" stroke="#999999" points="914.03,-19 867.03,-19 867.03,0 914.03,0 914.03,-19"/>
<text text-anchor="middle" x="890.53" y="-7" font-family="Helvetica,sans-Serif" font-size="10.00">cmath</text>
</a>
</g>
</g>
<!-- Node8&#45;&gt;Node11 -->
<g id="edge10_Node000008_Node000011" class="edge">
<title>Node8&#45;&gt;Node11</title>
<g id="a_edge10_Node000008_Node000011"><a xlink:title=" ">
<path fill="none" stroke="#63b8ff" d="M1199.89,-59.3C1139.33,-49.75 991.45,-26.42 924.48,-15.85"/>
<polygon fill="#63b8ff" stroke="#63b8ff" points="924.87,-12.37 914.45,-14.27 923.78,-19.29 924.87,-12.37"/>
</a>
</g>
</g>
<!-- Node12&#45;&gt;Node4 -->
<g id="edge14_Node000012_Node000004" class="edge">
<title>Node12&#45;&gt;Node4</title>
<g id="a_edge14_Node000012_Node000004"><a xlink:title=" ">
<path fill="none" stroke="#63b8ff" d="M1278.89,-109.98C1201.74,-98.78 1068.67,-79.46 1006.45,-70.42"/>
<polygon fill="#63b8ff" stroke="#63b8ff" points="1006.78,-66.94 996.39,-68.96 1005.78,-73.86 1006.78,-66.94"/>
</a>
</g>
</g>
<!-- Node12&#45;&gt;Node8 -->
<g id="edge13_Node000012_Node000008" class="edge">
<title>Node12&#45;&gt;Node8</title>
<g id="a_edge13_Node000012_Node000008"><a xlink:title=" ">
<path fill="none" stroke="#63b8ff" d="M1319.7,-109.98C1301.92,-101.5 1274.38,-88.35 1253.85,-78.54"/>
<polygon fill="#63b8ff" stroke="#63b8ff" points="1255.22,-75.32 1244.69,-74.17 1252.21,-81.64 1255.22,-75.32"/>
</a>
</g>
</g>
<!-- Node12&#45;&gt;Node10 -->
<g id="edge15_Node000012_Node000010" class="edge">
<title>Node12&#45;&gt;Node10</title>
<g id="a_edge15_Node000012_Node000010"><a xlink:title=" ">
<path fill="none" stroke="#63b8ff" d="M1331.8,-109.66C1320.21,-91.77 1293.78,-51 1278.68,-27.69"/>
<polygon fill="#63b8ff" stroke="#63b8ff" points="1281.52,-25.65 1273.14,-19.16 1275.65,-29.45 1281.52,-25.65"/>
</a>
</g>
</g>
<!-- Node13&#45;&gt;Node3 -->
<g id="edge19_Node000013_Node000003" class="edge">
<title>Node13&#45;&gt;Node3</title>
<g id="a_edge19_Node000013_Node000003"><a xlink:title=" ">
<path fill="none" stroke="#63b8ff" d="M441.96,-109.94C464.14,-97 508.2,-72.13 547.53,-55 579.52,-41.07 617.41,-28.34 643.62,-20.1"/>
<polygon fill="#63b8ff" stroke="#63b8ff" points="644.89,-23.37 653.4,-17.07 642.81,-16.69 644.89,-23.37"/>
</a>
</g>
</g>
<!-- Node13&#45;&gt;Node4 -->
<g id="edge20_Node000013_Node000004" class="edge">
<title>Node13&#45;&gt;Node4</title>
<g id="a_edge20_Node000013_Node000004"><a xlink:title=" ">
<path fill="none" stroke="#63b8ff" d="M481.25,-113.43C567.4,-105.28 741.79,-88.68 889.53,-74 905.65,-72.4 923.53,-70.57 938.56,-69.03"/>
<polygon fill="#63b8ff" stroke="#63b8ff" points="939.34,-72.46 948.92,-67.96 938.62,-65.5 939.34,-72.46"/>
</a>
</g>
</g>
<!-- Node13&#45;&gt;Node8 -->
<g id="edge18_Node000013_Node000008" class="edge">
<title>Node13&#45;&gt;Node8</title>
<g id="a_edge18_Node000013_Node000008"><a xlink:title=" ">
<path fill="none" stroke="#63b8ff" d="M481.2,-114.94C632.81,-104.88 1061.65,-76.44 1189.88,-67.93"/>
<polygon fill="#63b8ff" stroke="#63b8ff" points="1190.22,-71.42 1199.97,-67.26 1189.76,-64.43 1190.22,-71.42"/>
</a>
</g>
</g>
<!-- Node14 -->
<g id="Node000014" class="node">
<title>Node14</title>
<g id="a_Node000014"><a xlink:title=" ">
<polygon fill="#e0e0e0" stroke="#999999" points="460.03,-74 395.03,-74 395.03,-55 460.03,-55 460.03,-74"/>
<text text-anchor="middle" x="427.53" y="-62" font-family="Helvetica,sans-Serif" font-size="10.00">functional</text>
</a>
</g>
</g>
<!-- Node13&#45;&gt;Node14 -->
<g id="edge21_Node000013_Node000014" class="edge">
<title>Node13&#45;&gt;Node14</title>
<g id="a_edge21_Node000013_Node000014"><a xlink:title=" ">
<path fill="none" stroke="#63b8ff" d="M427.53,-109.75C427.53,-102.8 427.53,-92.85 427.53,-84.13"/>
<polygon fill="#63b8ff" stroke="#63b8ff" points="431.03,-84.09 427.53,-74.09 424.03,-84.09 431.03,-84.09"/>
</a>
</g>
</g>
<!-- Node15&#45;&gt;Node4 -->
<g id="edge25_Node000015_Node000004" class="edge">
<title>Node15&#45;&gt;Node4</title>
<g id="a_edge25_Node000015_Node000004"><a xlink:title=" ">
<path fill="none" stroke="#63b8ff" d="M901.19,-109.98C914.37,-101.77 934.56,-89.18 950.1,-79.49"/>
<polygon fill="#63b8ff" stroke="#63b8ff" points="951.99,-82.43 958.63,-74.17 948.29,-76.49 951.99,-82.43"/>
</a>
</g>
</g>
<!-- Node15&#45;&gt;Node6 -->
<g id="edge27_Node000015_Node000006" class="edge">
<title>Node15&#45;&gt;Node6</title>
<g id="a_edge27_Node000015_Node000006"><a xlink:title=" ">
<path fill="none" stroke="#63b8ff" d="M863.8,-112.12C860.69,-111.36 857.54,-110.64 854.53,-110 773.33,-92.86 677.19,-78.33 624.66,-70.87"/>
<polygon fill="#63b8ff" stroke="#63b8ff" points="625.14,-67.4 614.75,-69.47 624.16,-74.33 625.14,-67.4"/>
</a>
</g>
</g>
<!-- Node15&#45;&gt;Node8 -->
<g id="edge23_Node000015_Node000008" class="edge">
<title>Node15&#45;&gt;Node8</title>
<g id="a_edge23_Node000015_Node000008"><a xlink:title=" ">
<path fill="none" stroke="#63b8ff" d="M911.1,-114.82C969.23,-105.73 1119.79,-82.19 1189.77,-71.25"/>
<polygon fill="#63b8ff" stroke="#63b8ff" points="1190.55,-74.67 1199.88,-69.67 1189.46,-67.75 1190.55,-74.67"/>
</a>
</g>
</g>
<!-- Node15&#45;&gt;Node9 -->
<g id="edge24_Node000015_Node000009" class="edge">
<title>Node15&#45;&gt;Node9</title>
<g id="a_edge24_Node000015_Node000009"><a xlink:title=" ">
<path fill="none" stroke="#63b8ff" d="M892.68,-109.95C901.14,-96.56 919.18,-70.56 940.53,-55 960.89,-40.16 986.89,-29.35 1008.51,-22.1"/>
<polygon fill="#63b8ff" stroke="#63b8ff" points="1009.64,-25.41 1018.09,-19.01 1007.5,-18.74 1009.64,-25.41"/>
</a>
</g>
</g>
<!-- Node15&#45;&gt;Node16 -->
<g id="edge26_Node000015_Node000016" class="edge">
<title>Node15&#45;&gt;Node16</title>
<g id="a_edge26_Node000015_Node000016"><a xlink:title=" ">
<path fill="none" stroke="#63b8ff" d="M883.24,-109.75C879.72,-102.57 874.62,-92.18 870.25,-83.27"/>
<polygon fill="#63b8ff" stroke="#63b8ff" points="873.29,-81.53 865.75,-74.09 867.01,-84.61 873.29,-81.53"/>
</a>
</g>
</g>
<!-- Node19&#45;&gt;Node3 -->
<g id="edge68_Node000019_Node000003" class="edge">
<title>Node19&#45;&gt;Node3</title>
<g id="a_edge68_Node000019_Node000003"><a xlink:title=" ">
<path fill="none" stroke="#63b8ff" d="M838.43,-227.35C693.41,-221.49 71.43,-192.76 16.53,-129 -4.93,-104.08 -5.93,-79.03 16.53,-55 59.66,-8.86 516.69,-9.18 643.22,-10.16"/>
<polygon fill="#63b8ff" stroke="#63b8ff" points="643.4,-13.67 653.43,-10.25 643.46,-6.67 643.4,-13.67"/>
</a>
</g>
</g>
<!-- Node19&#45;&gt;Node4 -->
<g id="edge66_Node000019_Node000004" class="edge">
<title>Node19&#45;&gt;Node4</title>
<g id="a_edge66_Node000019_Node000004"><a xlink:title=" ">
<path fill="none" stroke="#63b8ff" d="M876.35,-220C891.27,-203.45 924.21,-165.37 945.53,-129 954.05,-114.47 961.36,-96.74 966.21,-83.71"/>
<polygon fill="#63b8ff" stroke="#63b8ff" points="969.6,-84.64 969.69,-74.05 963.01,-82.27 969.6,-84.64"/>
</a>
</g>
</g>
<!-- Node19&#45;&gt;Node6 -->
<g id="edge67_Node000019_Node000006" class="edge">
<title>Node19&#45;&gt;Node6</title>
<g id="a_edge67_Node000019_Node000006"><a xlink:title=" ">
<path fill="none" stroke="#63b8ff" d="M838.41,-228.12C778.94,-225.56 647.07,-210.49 587.53,-129 578.28,-116.34 578.69,-98.15 580.88,-84.48"/>
<polygon fill="#63b8ff" stroke="#63b8ff" points="584.39,-84.79 582.97,-74.29 577.53,-83.38 584.39,-84.79"/>
</a>
</g>
</g>
<!-- Node19&#45;&gt;Node7 -->
<g id="edge65_Node000019_Node000007" class="edge">
<title>Node19&#45;&gt;Node7</title>
<g id="a_edge65_Node000019_Node000007"><a xlink:title=" ">
<path fill="none" stroke="#63b8ff" d="M838.5,-224.65C774.09,-216.38 621.08,-196.75 529.15,-184.95"/>
<polygon fill="#63b8ff" stroke="#63b8ff" points="529.44,-181.46 519.08,-183.66 528.55,-188.4 529.44,-181.46"/>
</a>
</g>
</g>
<!-- Node19&#45;&gt;Node8 -->
<g id="edge36_Node000019_Node000008" class="edge">
<title>Node19&#45;&gt;Node8</title>
<g id="a_edge36_Node000019_Node000008"><a xlink:title=" ">
<path fill="none" stroke="#63b8ff" d="M898.72,-226.68C1029.78,-218.47 1544.92,-182.92 1590.53,-129 1633.84,-77.79 1363.56,-67.87 1263.07,-65.96"/>
<polygon fill="#63b8ff" stroke="#63b8ff" points="1263.12,-62.46 1253.06,-65.78 1263,-69.46 1263.12,-62.46"/>
</a>
</g>
</g>
<!-- Node19&#45;&gt;Node15 -->
<g id="edge54_Node000019_Node000015" class="edge">
<title>Node19&#45;&gt;Node15</title>
<g id="a_edge54_Node000019_Node000015"><a xlink:title=" ">
<path fill="none" stroke="#63b8ff" d="M870.09,-219.66C873.16,-202.17 880.09,-162.8 884.23,-139.27"/>
<polygon fill="#63b8ff" stroke="#63b8ff" points="887.72,-139.61 886.01,-129.16 880.83,-138.4 887.72,-139.61"/>
</a>
</g>
</g>
<!-- Node20 -->
<g id="Node000020" class="node">
<title>Node20</title>
<g id="a_Node000020"><a xlink:href="Atom_8h.html" target="_top" xlink:title=" ">
<polygon fill="white" stroke="#666666" points="845.53,-129 793.53,-129 793.53,-110 845.53,-110 845.53,-129"/>
<text text-anchor="middle" x="819.53" y="-117" font-family="Helvetica,sans-Serif" font-size="10.00">Atom.h</text>
</a>
</g>
</g>
<!-- Node19&#45;&gt;Node20 -->
<g id="edge37_Node000019_Node000020" class="edge">
<title>Node19&#45;&gt;Node20</title>
<g id="a_edge37_Node000019_Node000020"><a xlink:title=" ">
<path fill="none" stroke="#63b8ff" d="M864.52,-219.66C856.48,-201.93 838.24,-161.73 827.62,-138.32"/>
<polygon fill="#63b8ff" stroke="#63b8ff" points="830.78,-136.82 823.46,-129.16 824.4,-139.71 830.78,-136.82"/>
</a>
</g>
</g>
<!-- Node21 -->
<g id="Node000021" class="node">
<title>Node21</title>
<g id="a_Node000021"><a xlink:href="Residue_8h.html" target="_top" xlink:title=" ">
<polygon fill="white" stroke="#666666" points="1202.03,-184 1137.03,-184 1137.03,-165 1202.03,-165 1202.03,-184"/>
<text text-anchor="middle" x="1169.53" y="-172" font-family="Helvetica,sans-Serif" font-size="10.00">Residue.h</text>
</a>
</g>
</g>
<!-- Node19&#45;&gt;Node21 -->
<g id="edge42_Node000019_Node000021" class="edge">
<title>Node19&#45;&gt;Node21</title>
<g id="a_edge42_Node000019_Node000021"><a xlink:title=" ">
<path fill="none" stroke="#63b8ff" d="M898.76,-223.53C946.99,-215.55 1044.29,-199.22 1126.53,-184 1126.63,-183.98 1126.74,-183.96 1126.84,-183.94"/>
<polygon fill="#63b8ff" stroke="#63b8ff" points="1127.51,-187.38 1136.68,-182.08 1126.2,-180.5 1127.51,-187.38"/>
</a>
</g>
</g>
<!-- Node24 -->
<g id="Node000024" class="node">
<title>Node24</title>
<g id="a_Node000024"><a xlink:href="Bond_8h.html" target="_top" xlink:title=" ">
<polygon fill="white" stroke="#666666" points="1465.53,-129 1415.53,-129 1415.53,-110 1465.53,-110 1465.53,-129"/>
<text text-anchor="middle" x="1440.53" y="-117" font-family="Helvetica,sans-Serif" font-size="10.00">Bond.h</text>
</a>
</g>
</g>
<!-- Node19&#45;&gt;Node24 -->
<g id="edge51_Node000019_Node000024" class="edge">
<title>Node19&#45;&gt;Node24</title>
<g id="a_edge51_Node000019_Node000024"><a xlink:title=" ">
<path fill="none" stroke="#63b8ff" d="M898.59,-226.04C958.54,-220.82 1097.06,-207.18 1211.53,-184 1281.31,-169.87 1361.07,-145.94 1405.64,-131.84"/>
<polygon fill="#63b8ff" stroke="#63b8ff" points="1406.93,-135.1 1415.4,-128.73 1404.81,-128.43 1406.93,-135.1"/>
</a>
</g>
</g>
<!-- Node25 -->
<g id="Node000025" class="node">
<title>Node25</title>
<g id="a_Node000025"><a xlink:href="CovalentTopology_8h.html" target="_top" xlink:title=" ">
<polygon fill="white" stroke="#666666" points="1117.03,-184 1006.03,-184 1006.03,-165 1117.03,-165 1117.03,-184"/>
<text text-anchor="middle" x="1061.53" y="-172" font-family="Helvetica,sans-Serif" font-size="10.00">CovalentTopology.h</text>
</a>
</g>
</g>
<!-- Node19&#45;&gt;Node25 -->
<g id="edge55_Node000019_Node000025" class="edge">
<title>Node19&#45;&gt;Node25</title>
<g id="a_edge55_Node000019_Node000025"><a xlink:title=" ">
<path fill="none" stroke="#63b8ff" d="M898.69,-220.22C931.44,-211.22 983.96,-196.8 1020.47,-186.78"/>
<polygon fill="#63b8ff" stroke="#63b8ff" points="1021.59,-190.1 1030.31,-184.07 1019.74,-183.35 1021.59,-190.1"/>
</a>
</g>
</g>
<!-- Node26 -->
<g id="Node000026" class="node">
<title>Node26</title>
<g id="a_Node000026"><a xlink:href="ProteinBuildContext_8h.html" target="_top" xlink:title=" ">
<polygon fill="white" stroke="#666666" points="737.03,-129 614.03,-129 614.03,-110 737.03,-110 737.03,-129"/>
<text text-anchor="middle" x="675.53" y="-117" font-family="Helvetica,sans-Serif" font-size="10.00">ProteinBuildContext.h</text>
</a>
</g>
</g>
<!-- Node19&#45;&gt;Node26 -->
<g id="edge60_Node000019_Node000026" class="edge">
<title>Node19&#45;&gt;Node26</title>
<g id="a_edge60_Node000019_Node000026"><a xlink:title=" ">
<path fill="none" stroke="#63b8ff" d="M853.06,-219.84C819.53,-201.08 739.9,-156.52 699.68,-134.01"/>
<polygon fill="#63b8ff" stroke="#63b8ff" points="701.24,-130.88 690.81,-129.05 697.82,-136.98 701.24,-130.88"/>
</a>
</g>
</g>
<!-- Node20&#45;&gt;Node3 -->
<g id="edge40_Node000020_Node000003" class="edge">
<title>Node20&#45;&gt;Node3</title>
<g id="a_edge40_Node000020_Node000003"><a xlink:title=" ">
<path fill="none" stroke="#63b8ff" d="M807.75,-109.66C783.05,-91.14 725.63,-48.08 695.23,-25.28"/>
<polygon fill="#63b8ff" stroke="#63b8ff" points="697.18,-22.36 687.08,-19.16 692.98,-27.96 697.18,-22.36"/>
</a>
</g>
</g>
<!-- Node20&#45;&gt;Node4 -->
<g id="edge41_Node000020_Node000004" class="edge">
<title>Node20&#45;&gt;Node4</title>
<g id="a_edge41_Node000020_Node000004"><a xlink:title=" ">
<path fill="none" stroke="#63b8ff" d="M844.11,-109.98C869.96,-101.03 910.76,-86.9 939.43,-76.97"/>
<polygon fill="#63b8ff" stroke="#63b8ff" points="940.71,-80.23 949.02,-73.65 938.42,-73.61 940.71,-80.23"/>
</a>
</g>
</g>
<!-- Node20&#45;&gt;Node6 -->
<g id="edge39_Node000020_Node000006" class="edge">
<title>Node20&#45;&gt;Node6</title>
<g id="a_edge39_Node000020_Node000006"><a xlink:title=" ">
<path fill="none" stroke="#63b8ff" d="M793.14,-112.52C752.05,-103.22 672.55,-85.21 624.73,-74.38"/>
<polygon fill="#63b8ff" stroke="#63b8ff" points="625.28,-70.91 614.75,-72.12 623.73,-77.74 625.28,-70.91"/>
</a>
</g>
</g>
<!-- Node20&#45;&gt;Node8 -->
<g id="edge38_Node000020_Node000008" class="edge">
<title>Node20&#45;&gt;Node8</title>
<g id="a_edge38_Node000020_Node000008"><a xlink:title=" ">
<path fill="none" stroke="#63b8ff" d="M845.81,-111.94C849.07,-111.23 852.37,-110.56 855.53,-110 977.09,-88.43 1122.96,-74.34 1189.8,-68.52"/>
<polygon fill="#63b8ff" stroke="#63b8ff" points="1190.17,-72.01 1199.84,-67.66 1189.58,-65.03 1190.17,-72.01"/>
</a>
</g>
</g>
<!-- Node21&#45;&gt;Node3 -->
<g id="edge48_Node000021_Node000003" class="edge">
<title>Node21&#45;&gt;Node3</title>
<g id="a_edge48_Node000021_Node000003"><a xlink:title=" ">
<path fill="none" stroke="#63b8ff" d="M1158.2,-164.81C1123.94,-138.64 1022.82,-61.9 1005.53,-55 902.46,-13.85 768.4,-9.39 707.79,-9.74"/>
<polygon fill="#63b8ff" stroke="#63b8ff" points="707.65,-6.24 697.69,-9.84 707.73,-13.24 707.65,-6.24"/>
</a>
</g>
</g>
<!-- Node21&#45;&gt;Node4 -->
<g id="edge49_Node000021_Node000004" class="edge">
<title>Node21&#45;&gt;Node4</title>
<g id="a_edge49_Node000021_Node000004"><a xlink:title=" ">
<path fill="none" stroke="#63b8ff" d="M1150.6,-164.97C1131.81,-156.36 1102.33,-142.46 1077.53,-129 1048.17,-113.07 1015.39,-92.83 994.39,-79.54"/>
<polygon fill="#63b8ff" stroke="#63b8ff" points="996.2,-76.55 985.89,-74.13 992.45,-82.45 996.2,-76.55"/>
</a>
</g>
</g>
<!-- Node21&#45;&gt;Node8 -->
<g id="edge43_Node000021_Node000008" class="edge">
<title>Node21&#45;&gt;Node8</title>
<g id="a_edge43_Node000021_Node000008"><a xlink:title=" ">
<path fill="none" stroke="#63b8ff" d="M1202.32,-172.36C1294.32,-168.83 1549.81,-156.59 1574.53,-129 1617.14,-81.45 1360.97,-69.25 1263.25,-66.35"/>
<polygon fill="#63b8ff" stroke="#63b8ff" points="1263.32,-62.85 1253.22,-66.06 1263.12,-69.84 1263.32,-62.85"/>
</a>
</g>
</g>
<!-- Node22 -->
<g id="Node000022" class="node">
<title>Node22</title>
<g id="a_Node000022"><a xlink:href="AminoAcidType_8h.html" target="_top" xlink:title=" ">
<polygon fill="white" stroke="#666666" points="1221.03,-129 1120.03,-129 1120.03,-110 1221.03,-110 1221.03,-129"/>
<text text-anchor="middle" x="1170.53" y="-117" font-family="Helvetica,sans-Serif" font-size="10.00">AminoAcidType.h</text>
</a>
</g>
</g>
<!-- Node21&#45;&gt;Node22 -->
<g id="edge44_Node000021_Node000022" class="edge">
<title>Node21&#45;&gt;Node22</title>
<g id="a_edge44_Node000021_Node000022"><a xlink:title=" ">
<path fill="none" stroke="#63b8ff" d="M1169.7,-164.75C1169.83,-157.8 1170.02,-147.85 1170.18,-139.13"/>
<polygon fill="#63b8ff" stroke="#63b8ff" points="1173.68,-139.15 1170.37,-129.09 1166.68,-139.02 1173.68,-139.15"/>
</a>
</g>
</g>
<!-- Node23 -->
<g id="Node000023" class="node">
<title>Node23</title>
<g id="a_Node000023"><a xlink:title=" ">
<polygon fill="#e0e0e0" stroke="#999999" points="1565.53,-129 1521.53,-129 1521.53,-110 1565.53,-110 1565.53,-129"/>
<text text-anchor="middle" x="1543.53" y="-117" font-family="Helvetica,sans-Serif" font-size="10.00">limits</text>
</a>
</g>
</g>
<!-- Node21&#45;&gt;Node23 -->
<g id="edge50_Node000021_Node000023" class="edge">
<title>Node21&#45;&gt;Node23</title>
<g id="a_edge50_Node000021_Node000023"><a xlink:title=" ">
<path fill="none" stroke="#63b8ff" d="M1202.33,-170.29C1262.92,-164.13 1396.34,-149.39 1507.53,-129 1508.81,-128.77 1510.11,-128.51 1511.43,-128.25"/>
<polygon fill="#63b8ff" stroke="#63b8ff" points="1512.49,-131.6 1521.52,-126.07 1511.01,-124.76 1512.49,-131.6"/>
</a>
</g>
</g>
<!-- Node22&#45;&gt;Node3 -->
<g id="edge46_Node000022_Node000003" class="edge">
<title>Node22&#45;&gt;Node3</title>
<g id="a_edge46_Node000022_Node000003"><a xlink:title=" ">
<path fill="none" stroke="#63b8ff" d="M1164.57,-109.65C1154.37,-95.33 1132.1,-67.46 1105.53,-55 1069.71,-38.2 801.14,-18.88 707.57,-12.6"/>
<polygon fill="#63b8ff" stroke="#63b8ff" points="707.76,-9.1 697.55,-11.93 707.3,-16.08 707.76,-9.1"/>
</a>
</g>
</g>
<!-- Node22&#45;&gt;Node4 -->
<g id="edge47_Node000022_Node000004" class="edge">
<title>Node22&#45;&gt;Node4</title>
<g id="a_edge47_Node000022_Node000004"><a xlink:title=" ">
<path fill="none" stroke="#63b8ff" d="M1138.72,-109.98C1102.35,-100.25 1043.07,-84.38 1006.01,-74.46"/>
<polygon fill="#63b8ff" stroke="#63b8ff" points="1006.75,-71.04 996.19,-71.83 1004.94,-77.8 1006.75,-71.04"/>
</a>
</g>
</g>
<!-- Node22&#45;&gt;Node8 -->
<g id="edge45_Node000022_Node000008" class="edge">
<title>Node22&#45;&gt;Node8</title>
<g id="a_edge45_Node000022_Node000008"><a xlink:title=" ">
<path fill="none" stroke="#63b8ff" d="M1179.53,-109.98C1187.73,-102.23 1200.04,-90.58 1210,-81.14"/>
<polygon fill="#63b8ff" stroke="#63b8ff" points="1212.51,-83.59 1217.37,-74.17 1207.7,-78.5 1212.51,-83.59"/>
</a>
</g>
</g>
<!-- Node24&#45;&gt;Node4 -->
<g id="edge53_Node000024_Node000004" class="edge">
<title>Node24&#45;&gt;Node4</title>
<g id="a_edge53_Node000024_Node000004"><a xlink:title=" ">
<path fill="none" stroke="#63b8ff" d="M1415.37,-111.78C1412.4,-111.12 1409.41,-110.5 1406.53,-110 1258.63,-84.07 1079.52,-71.61 1006.24,-67.31"/>
<polygon fill="#63b8ff" stroke="#63b8ff" points="1006.4,-63.82 996.22,-66.74 1006,-70.8 1006.4,-63.82"/>
</a>
</g>
</g>
<!-- Node24&#45;&gt;Node8 -->
<g id="edge52_Node000024_Node000008" class="edge">
<title>Node24&#45;&gt;Node8</title>
<g id="a_edge52_Node000024_Node000008"><a xlink:title=" ">
<path fill="none" stroke="#63b8ff" d="M1415.28,-112.18C1412.33,-111.44 1409.37,-110.7 1406.53,-110 1356.92,-97.66 1299.58,-83.51 1263.2,-74.54"/>
<polygon fill="#63b8ff" stroke="#63b8ff" points="1263.62,-71.03 1253.07,-72.04 1261.94,-77.83 1263.62,-71.03"/>
</a>
</g>
</g>
<!-- Node25&#45;&gt;Node4 -->
<g id="edge58_Node000025_Node000004" class="edge">
<title>Node25&#45;&gt;Node4</title>
<g id="a_edge58_Node000025_Node000004"><a xlink:title=" ">
<path fill="none" stroke="#63b8ff" d="M1054.25,-164.66C1039.38,-146.61 1005.31,-105.28 986.19,-82.08"/>
<polygon fill="#63b8ff" stroke="#63b8ff" points="988.73,-79.65 979.67,-74.16 983.33,-84.1 988.73,-79.65"/>
</a>
</g>
</g>
<!-- Node25&#45;&gt;Node6 -->
<g id="edge59_Node000025_Node000006" class="edge">
<title>Node25&#45;&gt;Node6</title>
<g id="a_edge59_Node000025_Node000006"><a xlink:title=" ">
<path fill="none" stroke="#63b8ff" d="M1005.76,-171.47C890.88,-166.79 636.03,-153.74 605.53,-129 592.36,-118.31 587.71,-99.01 586.15,-84.48"/>
<polygon fill="#63b8ff" stroke="#63b8ff" points="589.62,-83.85 585.45,-74.11 582.63,-84.32 589.62,-83.85"/>
</a>
</g>
</g>
<!-- Node25&#45;&gt;Node8 -->
<g id="edge56_Node000025_Node000008" class="edge">
<title>Node25&#45;&gt;Node8</title>
<g id="a_edge56_Node000025_Node000008"><a xlink:title=" ">
<path fill="none" stroke="#63b8ff" d="M1117.09,-166.35C1120.96,-165.89 1124.8,-165.43 1128.53,-165 1166.93,-160.57 1448.65,-157.71 1474.53,-129 1480.19,-122.73 1479.95,-116.48 1474.53,-110 1448.07,-78.36 1326,-69.19 1263.56,-66.55"/>
<polygon fill="#63b8ff" stroke="#63b8ff" points="1263.48,-63.04 1253.35,-66.16 1263.21,-70.04 1263.48,-63.04"/>
</a>
</g>
</g>
<!-- Node25&#45;&gt;Node24 -->
<g id="edge57_Node000025_Node000024" class="edge">
<title>Node25&#45;&gt;Node24</title>
<g id="a_edge57_Node000025_Node000024"><a xlink:title=" ">
<path fill="none" stroke="#63b8ff" d="M1117.1,-166.42C1202.94,-155.46 1361.82,-135.15 1405.23,-128.76"/>
<polygon fill="#63b8ff" stroke="#63b8ff" points="1406.03,-132.18 1415.35,-127.14 1404.93,-125.27 1406.03,-132.18"/>
</a>
</g>
</g>
<!-- Node26&#45;&gt;Node3 -->
<g id="edge61_Node000026_Node000003" class="edge">
<title>Node26&#45;&gt;Node3</title>
<g id="a_edge61_Node000026_Node000003"><a xlink:title=" ">
<path fill="none" stroke="#63b8ff" d="M675.53,-109.66C675.53,-92.17 675.53,-52.8 675.53,-29.27"/>
<polygon fill="#63b8ff" stroke="#63b8ff" points="679.03,-29.16 675.53,-19.16 672.03,-29.16 679.03,-29.16"/>
</a>
</g>
</g>
<!-- Node26&#45;&gt;Node4 -->
<g id="edge62_Node000026_Node000004" class="edge">
<title>Node26&#45;&gt;Node4</title>
<g id="a_edge62_Node000026_Node000004"><a xlink:title=" ">
<path fill="none" stroke="#63b8ff" d="M723.25,-109.98C783.66,-99.2 886.22,-80.9 938.98,-71.49"/>
<polygon fill="#63b8ff" stroke="#63b8ff" points="939.61,-74.93 948.84,-69.73 938.38,-68.04 939.61,-74.93"/>
</a>
</g>
</g>
<!-- Node26&#45;&gt;Node6 -->
<g id="edge63_Node000026_Node000006" class="edge">
<title>Node26&#45;&gt;Node6</title>
<g id="a_edge63_Node000026_Node000006"><a xlink:title=" ">
<path fill="none" stroke="#63b8ff" d="M661.07,-109.98C647.12,-101.77 625.74,-89.18 609.28,-79.49"/>
<polygon fill="#63b8ff" stroke="#63b8ff" points="610.65,-76.23 600.25,-74.17 607.1,-82.26 610.65,-76.23"/>
</a>
</g>
</g>
<!-- Node26&#45;&gt;Node11 -->
<g id="edge64_Node000026_Node000011" class="edge">
<title>Node26&#45;&gt;Node11</title>
<g id="a_edge64_Node000026_Node000011"><a xlink:title=" ">
<path fill="none" stroke="#63b8ff" d="M692.76,-109.84C730.36,-90.96 819.95,-45.96 864.48,-23.59"/>
<polygon fill="#63b8ff" stroke="#63b8ff" points="866.15,-26.66 873.52,-19.05 863.01,-20.41 866.15,-26.66"/>
</a>
</g>
</g>
</g>
</svg>
