<?xml version="1.0" encoding="UTF-8" standalone="no"?>
<!DOCTYPE svg PUBLIC "-//W3C//DTD SVG 1.1//EN"
 "http://www.w3.org/Graphics/SVG/1.1/DTD/svg11.dtd">
<!-- Generated by graphviz version 2.43.0 (0)
 -->
<!-- Title: src/GromacsEnsembleLoader.h Pages: 1 -->
<svg width="2071pt" height="302pt"
 viewBox="0.00 0.00 2070.50 302.00" xmlns="http://www.w3.org/2000/svg" xmlns:xlink="http://www.w3.org/1999/xlink">
<g id="graph0" class="graph" transform="scale(1 1) rotate(0) translate(4 298)">
<title>src/GromacsEnsembleLoader.h</title>
<!-- Node1 -->
<g id="Node000001" class="node">
<title>Node1</title>
<g id="a_Node000001"><a xlink:title=" ">
<polygon fill="#999999" stroke="#666666" points="1396,-294 1229,-294 1229,-275 1396,-275 1396,-294"/>
<text text-anchor="middle" x="1312.5" y="-282" font-family="Helvetica,sans-Serif" font-size="10.00">src/GromacsEnsembleLoader.h</text>
</a>
</g>
</g>
<!-- Node2 -->
<g id="Node000002" class="node">
<title>Node2</title>
<g id="a_Node000002"><a xlink:href="Protein_8h.html" target="_top" xlink:title=" ">
<polygon fill="white" stroke="#666666" points="652.5,-239 592.5,-239 592.5,-220 652.5,-220 652.5,-239"/>
<text text-anchor="middle" x="622.5" y="-227" font-family="Helvetica,sans-Serif" font-size="10.00">Protein.h</text>
</a>
</g>
</g>
<!-- Node1&#45;&gt;Node2 -->
<g id="edge1_Node000001_Node000002" class="edge">
<title>Node1&#45;&gt;Node2</title>
<g id="a_edge1_Node000001_Node000002"><a xlink:title=" ">
<path fill="none" stroke="#63b8ff" d="M1228.93,-277.08C1079.64,-265.61 772.5,-242.02 662.66,-233.58"/>
<polygon fill="#63b8ff" stroke="#63b8ff" points="662.9,-230.09 652.66,-232.82 662.36,-237.07 662.9,-230.09"/>
</a>
</g>
</g>
<!-- Node7 -->
<g id="Node000007" class="node">
<title>Node7</title>
<g id="a_Node000007"><a xlink:title=" ">
<polygon fill="#e0e0e0" stroke="#999999" points="1402.5,-19 1358.5,-19 1358.5,0 1402.5,0 1402.5,-19"/>
<text text-anchor="middle" x="1380.5" y="-7" font-family="Helvetica,sans-Serif" font-size="10.00">string</text>
</a>
</g>
</g>
<!-- Node1&#45;&gt;Node7 -->
<g id="edge79_Node000001_Node000007" class="edge">
<title>Node1&#45;&gt;Node7</title>
<g id="a_edge79_Node000001_Node000007"><a xlink:title=" ">
<path fill="none" stroke="#63b8ff" d="M1396.35,-280.08C1592.06,-270.98 2062.5,-242.18 2062.5,-175.5 2062.5,-175.5 2062.5,-175.5 2062.5,-118.5 2062.5,-84.66 2049.73,-72.05 2020.5,-55 1967.73,-24.23 1535.41,-13.52 1412.8,-11.08"/>
<polygon fill="#63b8ff" stroke="#63b8ff" points="1412.63,-7.58 1402.57,-10.88 1412.5,-14.58 1412.63,-7.58"/>
</a>
</g>
</g>
<!-- Node10 -->
<g id="Node000010" class="node">
<title>Node10</title>
<g id="a_Node000010"><a xlink:title=" ">
<polygon fill="#e0e0e0" stroke="#999999" points="1176,-74 1129,-74 1129,-55 1176,-55 1176,-74"/>
<text text-anchor="middle" x="1152.5" y="-62" font-family="Helvetica,sans-Serif" font-size="10.00">vector</text>
</a>
</g>
</g>
<!-- Node1&#45;&gt;Node10 -->
<g id="edge80_Node000001_Node000010" class="edge">
<title>Node1&#45;&gt;Node10</title>
<g id="a_edge80_Node000001_Node000010"><a xlink:title=" ">
<path fill="none" stroke="#63b8ff" d="M1396.15,-277.05C1544.62,-262.67 1829.41,-220.11 1727.5,-110 1690.65,-70.19 1304.06,-65.89 1186.33,-65.51"/>
<polygon fill="#63b8ff" stroke="#63b8ff" points="1186.12,-62.01 1176.11,-65.48 1186.1,-69.01 1186.12,-62.01"/>
</a>
</g>
</g>
<!-- Node27 -->
<g id="Node000027" class="node">
<title>Node27</title>
<g id="a_Node000027"><a xlink:href="BuildResult_8h.html" target="_top" xlink:title=" ">
<polygon fill="white" stroke="#666666" points="81,-184 0,-184 0,-165 81,-165 81,-184"/>
<text text-anchor="middle" x="40.5" y="-172" font-family="Helvetica,sans-Serif" font-size="10.00">BuildResult.h</text>
</a>
</g>
</g>
<!-- Node1&#45;&gt;Node27 -->
<g id="edge67_Node000001_Node000027" class="edge">
<title>Node1&#45;&gt;Node27</title>
<g id="a_edge67_Node000001_Node000027"><a xlink:title=" ">
<path fill="none" stroke="#63b8ff" d="M1228.76,-279.79C1093.09,-273.45 816.88,-259.26 583.5,-239 366.06,-220.12 311.84,-212.9 95.5,-184 94.03,-183.8 92.55,-183.6 91.04,-183.39"/>
<polygon fill="#63b8ff" stroke="#63b8ff" points="91.42,-179.91 81.02,-181.96 90.42,-186.84 91.42,-179.91"/>
</a>
</g>
</g>
<!-- Node29 -->
<g id="Node000029" class="node">
<title>Node29</title>
<g id="a_Node000029"><a xlink:href="OperationRunner_8h.html" target="_top" xlink:title=" ">
<polygon fill="white" stroke="#666666" points="1366,-239 1259,-239 1259,-220 1366,-220 1366,-239"/>
<text text-anchor="middle" x="1312.5" y="-227" font-family="Helvetica,sans-Serif" font-size="10.00">OperationRunner.h</text>
</a>
</g>
</g>
<!-- Node1&#45;&gt;Node29 -->
<g id="edge74_Node000001_Node000029" class="edge">
<title>Node1&#45;&gt;Node29</title>
<g id="a_edge74_Node000001_Node000029"><a xlink:title=" ">
<path fill="none" stroke="#63b8ff" d="M1312.5,-274.75C1312.5,-267.8 1312.5,-257.85 1312.5,-249.13"/>
<polygon fill="#63b8ff" stroke="#63b8ff" points="1316,-249.09 1312.5,-239.09 1309,-249.09 1316,-249.09"/>
</a>
</g>
</g>
<!-- Node3 -->
<g id="Node000003" class="node">
<title>Node3</title>
<g id="a_Node000003"><a xlink:href="Types_8h.html" target="_top" xlink:title=" ">
<polygon fill="white" stroke="#666666" points="709,-74 656,-74 656,-55 709,-55 709,-74"/>
<text text-anchor="middle" x="682.5" y="-62" font-family="Helvetica,sans-Serif" font-size="10.00">Types.h</text>
</a>
</g>
</g>
<!-- Node2&#45;&gt;Node3 -->
<g id="edge2_Node000002_Node000003" class="edge">
<title>Node2&#45;&gt;Node3</title>
<g id="a_edge2_Node000002_Node000003"><a xlink:title=" ">
<path fill="none" stroke="#63b8ff" d="M592.1,-229.42C540.19,-229.48 441.34,-222.21 455.5,-165 462.14,-138.18 462.56,-126.8 484.5,-110 509.44,-90.91 595.7,-76.82 645.76,-70.03"/>
<polygon fill="#63b8ff" stroke="#63b8ff" points="646.4,-73.48 655.86,-68.69 645.48,-66.54 646.4,-73.48"/>
</a>
</g>
</g>
<!-- Node2&#45;&gt;Node7 -->
<g id="edge66_Node000002_Node000007" class="edge">
<title>Node2&#45;&gt;Node7</title>
<g id="a_edge66_Node000002_Node000007"><a xlink:title=" ">
<path fill="none" stroke="#63b8ff" d="M652.69,-227.37C844.29,-220.06 1884.44,-178.21 1928.5,-129 1961.42,-92.23 1924.42,-79.56 1869.5,-55 1787.36,-18.26 1508.14,-11.85 1412.75,-10.74"/>
<polygon fill="#63b8ff" stroke="#63b8ff" points="1412.6,-7.23 1402.56,-10.63 1412.53,-14.23 1412.6,-7.23"/>
</a>
</g>
</g>
<!-- Node8 -->
<g id="Node000008" class="node">
<title>Node8</title>
<g id="a_Node000008"><a xlink:href="Atom_8h.html" target="_top" xlink:title=" ">
<polygon fill="white" stroke="#666666" points="407.5,-129 355.5,-129 355.5,-110 407.5,-110 407.5,-129"/>
<text text-anchor="middle" x="381.5" y="-117" font-family="Helvetica,sans-Serif" font-size="10.00">Atom.h</text>
</a>
</g>
</g>
<!-- Node2&#45;&gt;Node8 -->
<g id="edge7_Node000002_Node000008" class="edge">
<title>Node2&#45;&gt;Node8</title>
<g id="a_edge7_Node000002_Node000008"><a xlink:title=" ">
<path fill="none" stroke="#63b8ff" d="M592.38,-228.82C550.38,-227.83 473.53,-220.62 421.5,-184 405.55,-172.78 394.58,-152.97 388.22,-138.45"/>
<polygon fill="#63b8ff" stroke="#63b8ff" points="391.39,-136.97 384.39,-129.02 384.9,-139.6 391.39,-136.97"/>
</a>
</g>
</g>
<!-- Node9 -->
<g id="Node000009" class="node">
<title>Node9</title>
<g id="a_Node000009"><a xlink:title=" ">
<polygon fill="#e0e0e0" stroke="#999999" points="238.5,-74 180.5,-74 180.5,-55 238.5,-55 238.5,-74"/>
<text text-anchor="middle" x="209.5" y="-62" font-family="Helvetica,sans-Serif" font-size="10.00">memory</text>
</a>
</g>
</g>
<!-- Node2&#45;&gt;Node9 -->
<g id="edge65_Node000002_Node000009" class="edge">
<title>Node2&#45;&gt;Node9</title>
<g id="a_edge65_Node000002_Node000009"><a xlink:title=" ">
<path fill="none" stroke="#63b8ff" d="M592.41,-226.9C498.75,-221.23 215.57,-198.49 163.5,-129 151.01,-112.34 169.87,-92.91 187.08,-79.98"/>
<polygon fill="#63b8ff" stroke="#63b8ff" points="189.11,-82.83 195.24,-74.19 185.06,-77.12 189.11,-82.83"/>
</a>
</g>
</g>
<!-- Node2&#45;&gt;Node10 -->
<g id="edge64_Node000002_Node000010" class="edge">
<title>Node2&#45;&gt;Node10</title>
<g id="a_edge64_Node000002_Node000010"><a xlink:title=" ">
<path fill="none" stroke="#63b8ff" d="M652.85,-228.09C759.65,-225.92 1115.3,-212.45 1182.5,-129 1194.13,-114.55 1181.34,-94.85 1169.05,-81.24"/>
<polygon fill="#63b8ff" stroke="#63b8ff" points="1171.53,-78.77 1162.06,-74.02 1166.5,-83.64 1171.53,-78.77"/>
</a>
</g>
</g>
<!-- Node11 -->
<g id="Node000011" class="node">
<title>Node11</title>
<g id="a_Node000011"><a xlink:href="Residue_8h.html" target="_top" xlink:title=" ">
<polygon fill="white" stroke="#666666" points="921,-184 856,-184 856,-165 921,-165 921,-184"/>
<text text-anchor="middle" x="888.5" y="-172" font-family="Helvetica,sans-Serif" font-size="10.00">Residue.h</text>
</a>
</g>
</g>
<!-- Node2&#45;&gt;Node11 -->
<g id="edge12_Node000002_Node000011" class="edge">
<title>Node2&#45;&gt;Node11</title>
<g id="a_edge12_Node000002_Node000011"><a xlink:title=" ">
<path fill="none" stroke="#63b8ff" d="M652.75,-222.47C700.09,-213.04 791.81,-194.77 845.83,-184"/>
<polygon fill="#63b8ff" stroke="#63b8ff" points="846.66,-187.41 855.78,-182.02 845.29,-180.54 846.66,-187.41"/>
</a>
</g>
</g>
<!-- Node14 -->
<g id="Node000014" class="node">
<title>Node14</title>
<g id="a_Node000014"><a xlink:href="Bond_8h.html" target="_top" xlink:title=" ">
<polygon fill="white" stroke="#666666" points="617.5,-129 567.5,-129 567.5,-110 617.5,-110 617.5,-129"/>
<text text-anchor="middle" x="592.5" y="-117" font-family="Helvetica,sans-Serif" font-size="10.00">Bond.h</text>
</a>
</g>
</g>
<!-- Node2&#45;&gt;Node14 -->
<g id="edge21_Node000002_Node000014" class="edge">
<title>Node2&#45;&gt;Node14</title>
<g id="a_edge21_Node000002_Node000014"><a xlink:title=" ">
<path fill="none" stroke="#63b8ff" d="M622.99,-219.65C623.41,-207.18 623.23,-183.83 617.5,-165 614.57,-155.37 609.32,-145.53 604.39,-137.56"/>
<polygon fill="#63b8ff" stroke="#63b8ff" points="607.31,-135.63 598.9,-129.18 601.45,-139.46 607.31,-135.63"/>
</a>
</g>
</g>
<!-- Node15 -->
<g id="Node000015" class="node">
<title>Node15</title>
<g id="a_Node000015"><a xlink:href="Ring_8h.html" target="_top" xlink:title=" ">
<polygon fill="white" stroke="#666666" points="549,-129 502,-129 502,-110 549,-110 549,-129"/>
<text text-anchor="middle" x="525.5" y="-117" font-family="Helvetica,sans-Serif" font-size="10.00">Ring.h</text>
</a>
</g>
</g>
<!-- Node2&#45;&gt;Node15 -->
<g id="edge24_Node000002_Node000015" class="edge">
<title>Node2&#45;&gt;Node15</title>
<g id="a_edge24_Node000002_Node000015"><a xlink:title=" ">
<path fill="none" stroke="#63b8ff" d="M618.53,-219.58C612.46,-206.61 599.95,-182.2 584.5,-165 573.98,-153.29 559.99,-142.58 548.27,-134.6"/>
<polygon fill="#63b8ff" stroke="#63b8ff" points="550.13,-131.63 539.85,-129.06 546.28,-137.48 550.13,-131.63"/>
</a>
</g>
</g>
<!-- Node17 -->
<g id="Node000017" class="node">
<title>Node17</title>
<g id="a_Node000017"><a xlink:href="CovalentTopology_8h.html" target="_top" xlink:title=" ">
<polygon fill="white" stroke="#666666" points="575,-184 464,-184 464,-165 575,-165 575,-184"/>
<text text-anchor="middle" x="519.5" y="-172" font-family="Helvetica,sans-Serif" font-size="10.00">CovalentTopology.h</text>
</a>
</g>
</g>
<!-- Node2&#45;&gt;Node17 -->
<g id="edge30_Node000002_Node000017" class="edge">
<title>Node2&#45;&gt;Node17</title>
<g id="a_edge30_Node000002_Node000017"><a xlink:title=" ">
<path fill="none" stroke="#63b8ff" d="M605.95,-219.98C589.61,-211.57 564.37,-198.59 545.37,-188.81"/>
<polygon fill="#63b8ff" stroke="#63b8ff" points="546.84,-185.63 536.35,-184.17 543.64,-191.86 546.84,-185.63"/>
</a>
</g>
</g>
<!-- Node18 -->
<g id="Node000018" class="node">
<title>Node18</title>
<g id="a_Node000018"><a xlink:href="ProteinBuildContext_8h.html" target="_top" xlink:title=" ">
<polygon fill="white" stroke="#666666" points="337,-129 214,-129 214,-110 337,-110 337,-129"/>
<text text-anchor="middle" x="275.5" y="-117" font-family="Helvetica,sans-Serif" font-size="10.00">ProteinBuildContext.h</text>
</a>
</g>
</g>
<!-- Node2&#45;&gt;Node18 -->
<g id="edge35_Node000002_Node000018" class="edge">
<title>Node2&#45;&gt;Node18</title>
<g id="a_edge35_Node000002_Node000018"><a xlink:title=" ">
<path fill="none" stroke="#63b8ff" d="M592.44,-225.25C548.78,-219.92 465.68,-207.49 398.5,-184 361.45,-171.05 321.61,-148.78 297.62,-134.35"/>
<polygon fill="#63b8ff" stroke="#63b8ff" points="299.31,-131.28 288.95,-129.06 295.66,-137.25 299.31,-131.28"/>
</a>
</g>
</g>
<!-- Node19 -->
<g id="Node000019" class="node">
<title>Node19</title>
<g id="a_Node000019"><a xlink:href="ProteinConformation_8h.html" target="_top" xlink:title=" ">
<polygon fill="white" stroke="#666666" points="1422,-184 1295,-184 1295,-165 1422,-165 1422,-184"/>
<text text-anchor="middle" x="1358.5" y="-172" font-family="Helvetica,sans-Serif" font-size="10.00">ProteinConformation.h</text>
</a>
</g>
</g>
<!-- Node2&#45;&gt;Node19 -->
<g id="edge40_Node000002_Node000019" class="edge">
<title>Node2&#45;&gt;Node19</title>
<g id="a_edge40_Node000002_Node000019"><a xlink:title=" ">
<path fill="none" stroke="#63b8ff" d="M652.5,-226.36C742.12,-219.97 1015.66,-200.45 1242.5,-184 1256.19,-183.01 1270.8,-181.94 1284.86,-180.91"/>
<polygon fill="#63b8ff" stroke="#63b8ff" points="1285.27,-184.39 1294.99,-180.17 1284.76,-177.41 1285.27,-184.39"/>
</a>
</g>
</g>
<!-- Node4 -->
<g id="Node000004" class="node">
<title>Node4</title>
<g id="a_Node000004"><a xlink:title=" ">
<polygon fill="#e0e0e0" stroke="#999999" points="678,-19 601,-19 601,0 678,0 678,-19"/>
<text text-anchor="middle" x="639.5" y="-7" font-family="Helvetica,sans-Serif" font-size="10.00">Eigen/Dense</text>
</a>
</g>
</g>
<!-- Node3&#45;&gt;Node4 -->
<g id="edge3_Node000003_Node000004" class="edge">
<title>Node3&#45;&gt;Node4</title>
<g id="a_edge3_Node000003_Node000004"><a xlink:title=" ">
<path fill="none" stroke="#63b8ff" d="M675.4,-54.75C669.33,-47.26 660.41,-36.28 652.99,-27.13"/>
<polygon fill="#63b8ff" stroke="#63b8ff" points="655.49,-24.65 646.47,-19.09 650.05,-29.06 655.49,-24.65"/>
</a>
</g>
</g>
<!-- Node5 -->
<g id="Node000005" class="node">
<title>Node5</title>
<g id="a_Node000005"><a xlink:title=" ">
<polygon fill="#e0e0e0" stroke="#999999" points="900.5,-19 858.5,-19 858.5,0 900.5,0 900.5,-19"/>
<text text-anchor="middle" x="879.5" y="-7" font-family="Helvetica,sans-Serif" font-size="10.00">array</text>
</a>
</g>
</g>
<!-- Node3&#45;&gt;Node5 -->
<g id="edge4_Node000003_Node000005" class="edge">
<title>Node3&#45;&gt;Node5</title>
<g id="a_edge4_Node000003_Node000005"><a xlink:title=" ">
<path fill="none" stroke="#63b8ff" d="M709.07,-56.35C745.26,-46.62 809.94,-29.21 848.36,-18.88"/>
<polygon fill="#63b8ff" stroke="#63b8ff" points="849.71,-22.14 858.46,-16.16 847.89,-15.38 849.71,-22.14"/>
</a>
</g>
</g>
<!-- Node6 -->
<g id="Node000006" class="node">
<title>Node6</title>
<g id="a_Node000006"><a xlink:title=" ">
<polygon fill="#e0e0e0" stroke="#999999" points="462,-19 415,-19 415,0 462,0 462,-19"/>
<text text-anchor="middle" x="438.5" y="-7" font-family="Helvetica,sans-Serif" font-size="10.00">cmath</text>
</a>
</g>
</g>
<!-- Node3&#45;&gt;Node6 -->
<g id="edge5_Node000003_Node000006" class="edge">
<title>Node3&#45;&gt;Node6</title>
<g id="a_edge5_Node000003_Node000006"><a xlink:title=" ">
<path fill="none" stroke="#63b8ff" d="M655.92,-57.73C611.18,-48.01 520.92,-28.4 471.94,-17.76"/>
<polygon fill="#63b8ff" stroke="#63b8ff" points="472.66,-14.34 462.15,-15.64 471.18,-21.18 472.66,-14.34"/>
</a>
</g>
</g>
<!-- Node3&#45;&gt;Node7 -->
<g id="edge6_Node000003_Node000007" class="edge">
<title>Node3&#45;&gt;Node7</title>
<g id="a_edge6_Node000003_Node000007"><a xlink:title=" ">
<path fill="none" stroke="#63b8ff" d="M709.13,-58.37C716.36,-57.11 724.21,-55.88 731.5,-55 967.13,-26.56 1253.25,-14.83 1348.18,-11.53"/>
<polygon fill="#63b8ff" stroke="#63b8ff" points="1348.41,-15.03 1358.29,-11.19 1348.18,-8.03 1348.41,-15.03"/>
</a>
</g>
</g>
<!-- Node8&#45;&gt;Node3 -->
<g id="edge8_Node000008_Node000003" class="edge">
<title>Node8&#45;&gt;Node3</title>
<g id="a_edge8_Node000008_Node000003"><a xlink:title=" ">
<path fill="none" stroke="#63b8ff" d="M407.72,-112.77C412.31,-111.81 417.04,-110.85 421.5,-110 501.16,-94.75 595,-79.38 645.63,-71.3"/>
<polygon fill="#63b8ff" stroke="#63b8ff" points="646.43,-74.72 655.76,-69.69 645.33,-67.81 646.43,-74.72"/>
</a>
</g>
</g>
<!-- Node8&#45;&gt;Node7 -->
<g id="edge10_Node000008_Node000007" class="edge">
<title>Node8&#45;&gt;Node7</title>
<g id="a_edge10_Node000008_Node000007"><a xlink:title=" ">
<path fill="none" stroke="#63b8ff" d="M407.63,-110.66C454.97,-96.81 558.27,-68.26 647.5,-55 916.37,-15.06 1245.81,-10.78 1348.44,-10.47"/>
<polygon fill="#63b8ff" stroke="#63b8ff" points="1348.48,-13.97 1358.47,-10.45 1348.46,-6.97 1348.48,-13.97"/>
</a>
</g>
</g>
<!-- Node8&#45;&gt;Node9 -->
<g id="edge9_Node000008_Node000009" class="edge">
<title>Node8&#45;&gt;Node9</title>
<g id="a_edge9_Node000008_Node000009"><a xlink:title=" ">
<path fill="none" stroke="#63b8ff" d="M355.38,-110.45C326.51,-101.55 279.76,-87.15 246.99,-77.05"/>
<polygon fill="#63b8ff" stroke="#63b8ff" points="247.88,-73.67 237.3,-74.07 245.82,-80.36 247.88,-73.67"/>
</a>
</g>
</g>
<!-- Node8&#45;&gt;Node10 -->
<g id="edge11_Node000008_Node000010" class="edge">
<title>Node8&#45;&gt;Node10</title>
<g id="a_edge11_Node000008_Node000010"><a xlink:title=" ">
<path fill="none" stroke="#63b8ff" d="M407.75,-116.45C430.44,-114.68 464.13,-112.11 493.5,-110 733,-92.83 1021.61,-73.97 1118.75,-67.68"/>
<polygon fill="#63b8ff" stroke="#63b8ff" points="1119.1,-71.16 1128.85,-67.03 1118.65,-64.18 1119.1,-71.16"/>
</a>
</g>
</g>
<!-- Node11&#45;&gt;Node3 -->
<g id="edge13_Node000011_Node000003" class="edge">
<title>Node11&#45;&gt;Node3</title>
<g id="a_edge13_Node000011_Node000003"><a xlink:title=" ">
<path fill="none" stroke="#63b8ff" d="M862.44,-164.95C839.28,-156.93 804.8,-143.96 776.5,-129 749.27,-114.61 720.22,-94.1 701.75,-80.32"/>
<polygon fill="#63b8ff" stroke="#63b8ff" points="703.67,-77.39 693.58,-74.15 699.45,-82.97 703.67,-77.39"/>
</a>
</g>
</g>
<!-- Node11&#45;&gt;Node7 -->
<g id="edge18_Node000011_Node000007" class="edge">
<title>Node11&#45;&gt;Node7</title>
<g id="a_edge18_Node000011_Node000007"><a xlink:title=" ">
<path fill="none" stroke="#63b8ff" d="M921.26,-172.65C976.65,-170.33 1091.65,-161.63 1182.5,-129 1253.8,-103.4 1327.8,-50.96 1361.61,-25.3"/>
<polygon fill="#63b8ff" stroke="#63b8ff" points="1363.88,-27.97 1369.68,-19.1 1359.62,-22.42 1363.88,-27.97"/>
</a>
</g>
</g>
<!-- Node11&#45;&gt;Node10 -->
<g id="edge19_Node000011_Node000010" class="edge">
<title>Node11&#45;&gt;Node10</title>
<g id="a_edge19_Node000011_Node000010"><a xlink:title=" ">
<path fill="none" stroke="#63b8ff" d="M921.01,-173.34C987.48,-172.24 1135.26,-165.64 1166.5,-129 1177.33,-116.3 1170.98,-97.08 1163.68,-83.12"/>
<polygon fill="#63b8ff" stroke="#63b8ff" points="1166.7,-81.35 1158.67,-74.43 1160.63,-84.84 1166.7,-81.35"/>
</a>
</g>
</g>
<!-- Node12 -->
<g id="Node000012" class="node">
<title>Node12</title>
<g id="a_Node000012"><a xlink:href="AminoAcidType_8h.html" target="_top" xlink:title=" ">
<polygon fill="white" stroke="#666666" points="987,-129 886,-129 886,-110 987,-110 987,-129"/>
<text text-anchor="middle" x="936.5" y="-117" font-family="Helvetica,sans-Serif" font-size="10.00">AminoAcidType.h</text>
</a>
</g>
</g>
<!-- Node11&#45;&gt;Node12 -->
<g id="edge14_Node000011_Node000012" class="edge">
<title>Node11&#45;&gt;Node12</title>
<g id="a_edge14_Node000011_Node000012"><a xlink:title=" ">
<path fill="none" stroke="#63b8ff" d="M896.43,-164.75C903.35,-157.11 913.57,-145.82 921.95,-136.56"/>
<polygon fill="#63b8ff" stroke="#63b8ff" points="924.6,-138.85 928.72,-129.09 919.41,-134.15 924.6,-138.85"/>
</a>
</g>
</g>
<!-- Node13 -->
<g id="Node000013" class="node">
<title>Node13</title>
<g id="a_Node000013"><a xlink:title=" ">
<polygon fill="#e0e0e0" stroke="#999999" points="829.5,-129 785.5,-129 785.5,-110 829.5,-110 829.5,-129"/>
<text text-anchor="middle" x="807.5" y="-117" font-family="Helvetica,sans-Serif" font-size="10.00">limits</text>
</a>
</g>
</g>
<!-- Node11&#45;&gt;Node13 -->
<g id="edge20_Node000011_Node000013" class="edge">
<title>Node11&#45;&gt;Node13</title>
<g id="a_edge20_Node000011_Node000013"><a xlink:title=" ">
<path fill="none" stroke="#63b8ff" d="M875.49,-164.98C863.04,-156.84 844.04,-144.41 829.29,-134.76"/>
<polygon fill="#63b8ff" stroke="#63b8ff" points="831.04,-131.72 820.75,-129.17 827.2,-137.57 831.04,-131.72"/>
</a>
</g>
</g>
<!-- Node12&#45;&gt;Node3 -->
<g id="edge15_Node000012_Node000003" class="edge">
<title>Node12&#45;&gt;Node3</title>
<g id="a_edge15_Node000012_Node000003"><a xlink:title=" ">
<path fill="none" stroke="#63b8ff" d="M895.69,-109.98C846.93,-99.81 766.08,-82.94 719.21,-73.16"/>
<polygon fill="#63b8ff" stroke="#63b8ff" points="719.69,-69.68 709.18,-71.07 718.26,-76.54 719.69,-69.68"/>
</a>
</g>
</g>
<!-- Node12&#45;&gt;Node7 -->
<g id="edge16_Node000012_Node000007" class="edge">
<title>Node12&#45;&gt;Node7</title>
<g id="a_edge16_Node000012_Node000007"><a xlink:title=" ">
<path fill="none" stroke="#63b8ff" d="M957.68,-109.92C991.56,-96.49 1060.27,-70.44 1120.5,-55 1201.3,-34.29 1298.73,-20.52 1348.23,-14.3"/>
<polygon fill="#63b8ff" stroke="#63b8ff" points="1348.84,-17.76 1358.33,-13.06 1347.98,-10.81 1348.84,-17.76"/>
</a>
</g>
</g>
<!-- Node12&#45;&gt;Node10 -->
<g id="edge17_Node000012_Node000010" class="edge">
<title>Node12&#45;&gt;Node10</title>
<g id="a_edge17_Node000012_Node000010"><a xlink:title=" ">
<path fill="none" stroke="#63b8ff" d="M971.2,-109.98C1011.9,-100 1078.9,-83.56 1119.05,-73.71"/>
<polygon fill="#63b8ff" stroke="#63b8ff" points="1120.01,-77.08 1128.89,-71.29 1118.34,-70.28 1120.01,-77.08"/>
</a>
</g>
</g>
<!-- Node14&#45;&gt;Node3 -->
<g id="edge22_Node000014_Node000003" class="edge">
<title>Node14&#45;&gt;Node3</title>
<g id="a_edge22_Node000014_Node000003"><a xlink:title=" ">
<path fill="none" stroke="#63b8ff" d="M606.96,-109.98C620.92,-101.77 642.29,-89.18 658.75,-79.49"/>
<polygon fill="#63b8ff" stroke="#63b8ff" points="660.94,-82.26 667.78,-74.17 657.38,-76.23 660.94,-82.26"/>
</a>
</g>
</g>
<!-- Node14&#45;&gt;Node10 -->
<g id="edge23_Node000014_Node000010" class="edge">
<title>Node14&#45;&gt;Node10</title>
<g id="a_edge23_Node000014_Node000010"><a xlink:title=" ">
<path fill="none" stroke="#63b8ff" d="M617.64,-111.91C620.94,-111.18 624.29,-110.52 627.5,-110 811.3,-80.07 1034.77,-69.6 1118.59,-66.57"/>
<polygon fill="#63b8ff" stroke="#63b8ff" points="1118.92,-70.06 1128.79,-66.21 1118.68,-63.06 1118.92,-70.06"/>
</a>
</g>
</g>
<!-- Node15&#45;&gt;Node3 -->
<g id="edge25_Node000015_Node000003" class="edge">
<title>Node15&#45;&gt;Node3</title>
<g id="a_edge25_Node000015_Node000003"><a xlink:title=" ">
<path fill="none" stroke="#63b8ff" d="M549,-110.57C575.14,-101.74 617.6,-87.41 647.61,-77.28"/>
<polygon fill="#63b8ff" stroke="#63b8ff" points="648.92,-80.53 657.27,-74.02 646.68,-73.9 648.92,-80.53"/>
</a>
</g>
</g>
<!-- Node15&#45;&gt;Node4 -->
<g id="edge26_Node000015_Node000004" class="edge">
<title>Node15&#45;&gt;Node4</title>
<g id="a_edge26_Node000015_Node000004"><a xlink:title=" ">
<path fill="none" stroke="#63b8ff" d="M534.83,-109.66C554.13,-91.38 598.67,-49.18 622.96,-26.17"/>
<polygon fill="#63b8ff" stroke="#63b8ff" points="625.51,-28.58 630.36,-19.16 620.69,-23.5 625.51,-28.58"/>
</a>
</g>
</g>
<!-- Node15&#45;&gt;Node9 -->
<g id="edge29_Node000015_Node000009" class="edge">
<title>Node15&#45;&gt;Node9</title>
<g id="a_edge29_Node000015_Node000009"><a xlink:title=" ">
<path fill="none" stroke="#63b8ff" d="M501.75,-114.52C447.8,-105.47 315.54,-83.29 249.04,-72.13"/>
<polygon fill="#63b8ff" stroke="#63b8ff" points="249.39,-68.64 238.95,-70.44 248.24,-75.55 249.39,-68.64"/>
</a>
</g>
</g>
<!-- Node15&#45;&gt;Node10 -->
<g id="edge27_Node000015_Node000010" class="edge">
<title>Node15&#45;&gt;Node10</title>
<g id="a_edge27_Node000015_Node000010"><a xlink:title=" ">
<path fill="none" stroke="#63b8ff" d="M549.19,-111.86C552.3,-111.15 555.46,-110.5 558.5,-110 769.77,-75.16 1027.86,-67.57 1118.83,-65.94"/>
<polygon fill="#63b8ff" stroke="#63b8ff" points="1118.89,-69.44 1128.83,-65.77 1118.78,-62.44 1118.89,-69.44"/>
</a>
</g>
</g>
<!-- Node16 -->
<g id="Node000016" class="node">
<title>Node16</title>
<g id="a_Node000016"><a xlink:title=" ">
<polygon fill="#e0e0e0" stroke="#999999" points="778.5,-74 740.5,-74 740.5,-55 778.5,-55 778.5,-74"/>
<text text-anchor="middle" x="759.5" y="-62" font-family="Helvetica,sans-Serif" font-size="10.00">map</text>
</a>
</g>
</g>
<!-- Node15&#45;&gt;Node16 -->
<g id="edge28_Node000015_Node000016" class="edge">
<title>Node15&#45;&gt;Node16</title>
<g id="a_edge28_Node000015_Node000016"><a xlink:title=" ">
<path fill="none" stroke="#63b8ff" d="M549.27,-112.27C552.37,-111.49 555.51,-110.72 558.5,-110 619.47,-95.4 691.26,-79.92 730.41,-71.61"/>
<polygon fill="#63b8ff" stroke="#63b8ff" points="731.27,-75.01 740.33,-69.52 729.82,-68.16 731.27,-75.01"/>
</a>
</g>
</g>
<!-- Node17&#45;&gt;Node3 -->
<g id="edge31_Node000017_Node000003" class="edge">
<title>Node17&#45;&gt;Node3</title>
<g id="a_edge31_Node000017_Node000003"><a xlink:title=" ">
<path fill="none" stroke="#63b8ff" d="M510.86,-164.91C498.86,-151.92 480.04,-127 493.5,-110 512.16,-86.44 596.52,-74.11 646.01,-68.8"/>
<polygon fill="#63b8ff" stroke="#63b8ff" points="646.41,-72.27 656,-67.77 645.69,-65.31 646.41,-72.27"/>
</a>
</g>
</g>
<!-- Node17&#45;&gt;Node9 -->
<g id="edge34_Node000017_Node000009" class="edge">
<title>Node17&#45;&gt;Node9</title>
<g id="a_edge34_Node000017_Node000009"><a xlink:title=" ">
<path fill="none" stroke="#63b8ff" d="M463.63,-170.34C370.18,-164.49 190.47,-150.54 171.5,-129 158.54,-114.27 174.56,-94.52 189.61,-80.98"/>
<polygon fill="#63b8ff" stroke="#63b8ff" points="192.29,-83.29 197.67,-74.16 187.77,-77.94 192.29,-83.29"/>
</a>
</g>
</g>
<!-- Node17&#45;&gt;Node10 -->
<g id="edge33_Node000017_Node000010" class="edge">
<title>Node17&#45;&gt;Node10</title>
<g id="a_edge33_Node000017_Node000010"><a xlink:title=" ">
<path fill="none" stroke="#63b8ff" d="M575.2,-171.17C722.39,-164.79 1111.89,-146.34 1133.5,-129 1146.67,-118.43 1150.99,-99.11 1152.27,-84.54"/>
<polygon fill="#63b8ff" stroke="#63b8ff" points="1155.78,-84.3 1152.76,-74.14 1148.79,-83.97 1155.78,-84.3"/>
</a>
</g>
</g>
<!-- Node17&#45;&gt;Node14 -->
<g id="edge32_Node000017_Node000014" class="edge">
<title>Node17&#45;&gt;Node14</title>
<g id="a_edge32_Node000017_Node000014"><a xlink:title=" ">
<path fill="none" stroke="#63b8ff" d="M531.23,-164.98C542.23,-157 558.92,-144.88 572.1,-135.31"/>
<polygon fill="#63b8ff" stroke="#63b8ff" points="574.52,-137.88 580.56,-129.17 570.41,-132.21 574.52,-137.88"/>
</a>
</g>
</g>
<!-- Node18&#45;&gt;Node6 -->
<g id="edge39_Node000018_Node000006" class="edge">
<title>Node18&#45;&gt;Node6</title>
<g id="a_edge39_Node000018_Node000006"><a xlink:title=" ">
<path fill="none" stroke="#63b8ff" d="M288.56,-109.84C316.58,-91.28 382.68,-47.49 416.99,-24.75"/>
<polygon fill="#63b8ff" stroke="#63b8ff" points="418.97,-27.64 425.37,-19.2 415.1,-21.8 418.97,-27.64"/>
</a>
</g>
</g>
<!-- Node18&#45;&gt;Node7 -->
<g id="edge36_Node000018_Node000007" class="edge">
<title>Node18&#45;&gt;Node7</title>
<g id="a_edge36_Node000018_Node000007"><a xlink:title=" ">
<path fill="none" stroke="#63b8ff" d="M304.56,-109.93C353.97,-95.77 457.72,-67.78 547.5,-55 856.93,-10.97 1236.65,-9.55 1348.24,-10.19"/>
<polygon fill="#63b8ff" stroke="#63b8ff" points="1348.46,-13.69 1358.48,-10.26 1348.51,-6.69 1348.46,-13.69"/>
</a>
</g>
</g>
<!-- Node18&#45;&gt;Node9 -->
<g id="edge38_Node000018_Node000009" class="edge">
<title>Node18&#45;&gt;Node9</title>
<g id="a_edge38_Node000018_Node000009"><a xlink:title=" ">
<path fill="none" stroke="#63b8ff" d="M264.9,-109.98C255.04,-102.07 240.15,-90.11 228.28,-80.58"/>
<polygon fill="#63b8ff" stroke="#63b8ff" points="230.29,-77.7 220.3,-74.17 225.9,-83.16 230.29,-77.7"/>
</a>
</g>
</g>
<!-- Node18&#45;&gt;Node10 -->
<g id="edge37_Node000018_Node000010" class="edge">
<title>Node18&#45;&gt;Node10</title>
<g id="a_edge37_Node000018_Node000010"><a xlink:title=" ">
<path fill="none" stroke="#63b8ff" d="M337.05,-110.89C340.24,-110.57 343.41,-110.27 346.5,-110 645.1,-83.91 1007.35,-70.35 1118.47,-66.6"/>
<polygon fill="#63b8ff" stroke="#63b8ff" points="1118.85,-70.09 1128.72,-66.26 1118.61,-63.09 1118.85,-70.09"/>
</a>
</g>
</g>
<!-- Node19&#45;&gt;Node3 -->
<g id="edge41_Node000019_Node000003" class="edge">
<title>Node19&#45;&gt;Node3</title>
<g id="a_edge41_Node000019_Node000003"><a xlink:title=" ">
<path fill="none" stroke="#63b8ff" d="M1294.81,-170.45C1182.62,-164.62 954.33,-150.49 877.5,-129 858.93,-123.81 856.51,-116.89 838.5,-110 798.51,-94.69 750.99,-81.87 719,-73.98"/>
<polygon fill="#63b8ff" stroke="#63b8ff" points="719.73,-70.56 709.18,-71.6 718.07,-77.36 719.73,-70.56"/>
</a>
</g>
</g>
<!-- Node19&#45;&gt;Node7 -->
<g id="edge62_Node000019_Node000007" class="edge">
<title>Node19&#45;&gt;Node7</title>
<g id="a_edge62_Node000019_Node000007"><a xlink:title=" ">
<path fill="none" stroke="#63b8ff" d="M1422.2,-173.08C1559.82,-171.5 1875.17,-164.06 1907.5,-129 1948.97,-84.04 1926.89,-91.27 1829.5,-55 1752.87,-26.47 1502.63,-14.88 1412.89,-11.57"/>
<polygon fill="#63b8ff" stroke="#63b8ff" points="1412.89,-8.07 1402.77,-11.21 1412.64,-15.06 1412.89,-8.07"/>
</a>
</g>
</g>
<!-- Node19&#45;&gt;Node9 -->
<g id="edge61_Node000019_Node000009" class="edge">
<title>Node19&#45;&gt;Node9</title>
<g id="a_edge61_Node000019_Node000009"><a xlink:title=" ">
<path fill="none" stroke="#63b8ff" d="M1294.75,-172.23C1055.48,-167.3 223.54,-148.79 204.5,-129 193.26,-117.32 196.53,-98.19 201.39,-83.97"/>
<polygon fill="#63b8ff" stroke="#63b8ff" points="204.8,-84.85 205.19,-74.26 198.28,-82.3 204.8,-84.85"/>
</a>
</g>
</g>
<!-- Node19&#45;&gt;Node10 -->
<g id="edge57_Node000019_Node000010" class="edge">
<title>Node19&#45;&gt;Node10</title>
<g id="a_edge57_Node000019_Node000010"><a xlink:title=" ">
<path fill="none" stroke="#63b8ff" d="M1355.37,-164.63C1350.02,-150.81 1337.8,-124.23 1318.5,-110 1279.16,-80.99 1222.18,-70.89 1186.26,-67.37"/>
<polygon fill="#63b8ff" stroke="#63b8ff" points="1186.54,-63.88 1176.27,-66.51 1185.94,-70.86 1186.54,-63.88"/>
</a>
</g>
</g>
<!-- Node19&#45;&gt;Node15 -->
<g id="edge56_Node000019_Node000015" class="edge">
<title>Node19&#45;&gt;Node15</title>
<g id="a_edge56_Node000019_Node000015"><a xlink:title=" ">
<path fill="none" stroke="#63b8ff" d="M1294.77,-171.57C1134.81,-166.48 718.41,-151.6 559.28,-128.71"/>
<polygon fill="#63b8ff" stroke="#63b8ff" points="559.59,-125.22 549.18,-127.19 558.55,-132.14 559.59,-125.22"/>
</a>
</g>
</g>
<!-- Node19&#45;&gt;Node16 -->
<g id="edge58_Node000019_Node000016" class="edge">
<title>Node19&#45;&gt;Node16</title>
<g id="a_edge58_Node000019_Node000016"><a xlink:title=" ">
<path fill="none" stroke="#63b8ff" d="M1333.17,-164.94C1291.85,-151.3 1207.14,-124.68 1133.5,-110 1006.5,-84.69 852.17,-71.91 788.8,-67.42"/>
<polygon fill="#63b8ff" stroke="#63b8ff" points="788.96,-63.92 778.74,-66.72 788.47,-70.9 788.96,-63.92"/>
</a>
</g>
</g>
<!-- Node20 -->
<g id="Node000020" class="node">
<title>Node20</title>
<g id="a_Node000020"><a xlink:href="ConformationAtom_8h.html" target="_top" xlink:title=" ">
<polygon fill="white" stroke="#666666" points="1124,-129 1005,-129 1005,-110 1124,-110 1124,-129"/>
<text text-anchor="middle" x="1064.5" y="-117" font-family="Helvetica,sans-Serif" font-size="10.00">ConformationAtom.h</text>
</a>
</g>
</g>
<!-- Node19&#45;&gt;Node20 -->
<g id="edge42_Node000019_Node000020" class="edge">
<title>Node19&#45;&gt;Node20</title>
<g id="a_edge42_Node000019_Node000020"><a xlink:title=" ">
<path fill="none" stroke="#63b8ff" d="M1311.26,-164.98C1259.77,-155.7 1177.34,-140.84 1122.09,-130.88"/>
<polygon fill="#63b8ff" stroke="#63b8ff" points="1122.57,-127.41 1112.11,-129.08 1121.33,-134.3 1122.57,-127.41"/>
</a>
</g>
</g>
<!-- Node21 -->
<g id="Node000021" class="node">
<title>Node21</title>
<g id="a_Node000021"><a xlink:href="ConformationResult_8h.html" target="_top" xlink:title=" ">
<polygon fill="white" stroke="#666666" points="1718,-129 1595,-129 1595,-110 1718,-110 1718,-129"/>
<text text-anchor="middle" x="1656.5" y="-117" font-family="Helvetica,sans-Serif" font-size="10.00">ConformationResult.h</text>
</a>
</g>
</g>
<!-- Node19&#45;&gt;Node21 -->
<g id="edge46_Node000019_Node000021" class="edge">
<title>Node19&#45;&gt;Node21</title>
<g id="a_edge46_Node000019_Node000021"><a xlink:title=" ">
<path fill="none" stroke="#63b8ff" d="M1406.38,-164.98C1458.58,-155.7 1542.12,-140.84 1598.12,-130.88"/>
<polygon fill="#63b8ff" stroke="#63b8ff" points="1599.01,-134.28 1608.25,-129.08 1597.79,-127.39 1599.01,-134.28"/>
</a>
</g>
</g>
<!-- Node22 -->
<g id="Node000022" class="node">
<title>Node22</title>
<g id="a_Node000022"><a xlink:title=" ">
<polygon fill="#e0e0e0" stroke="#999999" points="1703,-74 1638,-74 1638,-55 1703,-55 1703,-74"/>
<text text-anchor="middle" x="1670.5" y="-62" font-family="Helvetica,sans-Serif" font-size="10.00">typeindex</text>
</a>
</g>
</g>
<!-- Node19&#45;&gt;Node22 -->
<g id="edge60_Node000019_Node000022" class="edge">
<title>Node19&#45;&gt;Node22</title>
<g id="a_edge60_Node000019_Node000022"><a xlink:title=" ">
<path fill="none" stroke="#63b8ff" d="M1422.11,-172.91C1556.65,-171 1860.28,-162.93 1891.5,-129 1897.22,-122.79 1896.85,-116.53 1891.5,-110 1885.85,-103.1 1776.12,-83.45 1713.45,-72.72"/>
<polygon fill="#63b8ff" stroke="#63b8ff" points="1713.89,-69.24 1703.45,-71.01 1712.71,-76.14 1713.89,-69.24"/>
</a>
</g>
</g>
<!-- Node23 -->
<g id="Node000023" class="node">
<title>Node23</title>
<g id="a_Node000023"><a xlink:href="GeometryChoice_8h.html" target="_top" xlink:title=" ">
<polygon fill="white" stroke="#666666" points="1882,-129 1775,-129 1775,-110 1882,-110 1882,-129"/>
<text text-anchor="middle" x="1828.5" y="-117" font-family="Helvetica,sans-Serif" font-size="10.00">GeometryChoice.h</text>
</a>
</g>
</g>
<!-- Node19&#45;&gt;Node23 -->
<g id="edge51_Node000019_Node000023" class="edge">
<title>Node19&#45;&gt;Node23</title>
<g id="a_edge51_Node000019_Node000023"><a xlink:title=" ">
<path fill="none" stroke="#63b8ff" d="M1422.38,-166.3C1512.28,-156.16 1675.16,-137.79 1764.91,-127.67"/>
<polygon fill="#63b8ff" stroke="#63b8ff" points="1765.41,-131.14 1774.95,-126.54 1764.62,-124.18 1765.41,-131.14"/>
</a>
</g>
</g>
<!-- Node25 -->
<g id="Node000025" class="node">
<title>Node25</title>
<g id="a_Node000025"><a xlink:title=" ">
<polygon fill="#e0e0e0" stroke="#999999" points="1502,-129 1409,-129 1409,-110 1502,-110 1502,-129"/>
<text text-anchor="middle" x="1455.5" y="-117" font-family="Helvetica,sans-Serif" font-size="10.00">unordered_map</text>
</a>
</g>
</g>
<!-- Node19&#45;&gt;Node25 -->
<g id="edge59_Node000019_Node000025" class="edge">
<title>Node19&#45;&gt;Node25</title>
<g id="a_edge59_Node000019_Node000025"><a xlink:title=" ">
<path fill="none" stroke="#63b8ff" d="M1374.08,-164.98C1389.27,-156.69 1412.6,-143.94 1430.4,-134.22"/>
<polygon fill="#63b8ff" stroke="#63b8ff" points="1432.53,-137.04 1439.63,-129.17 1429.18,-130.89 1432.53,-137.04"/>
</a>
</g>
</g>
<!-- Node26 -->
<g id="Node000026" class="node">
<title>Node26</title>
<g id="a_Node000026"><a xlink:title=" ">
<polygon fill="#e0e0e0" stroke="#999999" points="1576.5,-129 1520.5,-129 1520.5,-110 1576.5,-110 1576.5,-129"/>
<text text-anchor="middle" x="1548.5" y="-117" font-family="Helvetica,sans-Serif" font-size="10.00">sstream</text>
</a>
</g>
</g>
<!-- Node19&#45;&gt;Node26 -->
<g id="edge63_Node000019_Node000026" class="edge">
<title>Node19&#45;&gt;Node26</title>
<g id="a_edge63_Node000019_Node000026"><a xlink:title=" ">
<path fill="none" stroke="#63b8ff" d="M1389.03,-164.98C1421.97,-155.8 1474.48,-141.15 1510.18,-131.19"/>
<polygon fill="#63b8ff" stroke="#63b8ff" points="1511.53,-134.45 1520.22,-128.39 1509.65,-127.7 1511.53,-134.45"/>
</a>
</g>
</g>
<!-- Node20&#45;&gt;Node3 -->
<g id="edge43_Node000020_Node000003" class="edge">
<title>Node20&#45;&gt;Node3</title>
<g id="a_edge43_Node000020_Node000003"><a xlink:title=" ">
<path fill="none" stroke="#63b8ff" d="M1004.89,-110.82C923.76,-100.31 782.81,-81.88 731.5,-74 727.53,-73.39 723.39,-72.72 719.27,-72.04"/>
<polygon fill="#63b8ff" stroke="#63b8ff" points="719.62,-68.55 709.17,-70.32 718.44,-75.45 719.62,-68.55"/>
</a>
</g>
</g>
<!-- Node20&#45;&gt;Node5 -->
<g id="edge45_Node000020_Node000005" class="edge">
<title>Node20&#45;&gt;Node5</title>
<g id="a_edge45_Node000020_Node000005"><a xlink:title=" ">
<path fill="none" stroke="#63b8ff" d="M1049.67,-109.84C1017.66,-91.16 941.85,-46.9 903.13,-24.3"/>
<polygon fill="#63b8ff" stroke="#63b8ff" points="904.54,-21.07 894.14,-19.05 901.01,-27.11 904.54,-21.07"/>
</a>
</g>
</g>
<!-- Node20&#45;&gt;Node10 -->
<g id="edge44_Node000020_Node000010" class="edge">
<title>Node20&#45;&gt;Node10</title>
<g id="a_edge44_Node000020_Node000010"><a xlink:title=" ">
<path fill="none" stroke="#63b8ff" d="M1078.64,-109.98C1092.29,-101.77 1113.19,-89.18 1129.28,-79.49"/>
<polygon fill="#63b8ff" stroke="#63b8ff" points="1131.34,-82.33 1138.1,-74.17 1127.73,-76.33 1131.34,-82.33"/>
</a>
</g>
</g>
<!-- Node21&#45;&gt;Node7 -->
<g id="edge47_Node000021_Node000007" class="edge">
<title>Node21&#45;&gt;Node7</title>
<g id="a_edge47_Node000021_Node000007"><a xlink:title=" ">
<path fill="none" stroke="#63b8ff" d="M1634.38,-109.84C1585.51,-90.72 1468.21,-44.82 1411.81,-22.75"/>
<polygon fill="#63b8ff" stroke="#63b8ff" points="1412.93,-19.43 1402.34,-19.05 1410.38,-25.95 1412.93,-19.43"/>
</a>
</g>
</g>
<!-- Node21&#45;&gt;Node9 -->
<g id="edge50_Node000021_Node000009" class="edge">
<title>Node21&#45;&gt;Node9</title>
<g id="a_edge50_Node000021_Node000009"><a xlink:title=" ">
<path fill="none" stroke="#63b8ff" d="M1594.96,-110.8C1591.76,-110.5 1588.59,-110.23 1585.5,-110 1315.35,-89.5 444.58,-70.41 248.82,-66.31"/>
<polygon fill="#63b8ff" stroke="#63b8ff" points="248.78,-62.81 238.71,-66.1 248.64,-69.81 248.78,-62.81"/>
</a>
</g>
</g>
<!-- Node21&#45;&gt;Node10 -->
<g id="edge48_Node000021_Node000010" class="edge">
<title>Node21&#45;&gt;Node10</title>
<g id="a_edge48_Node000021_Node000010"><a xlink:title=" ">
<path fill="none" stroke="#63b8ff" d="M1594.93,-111.07C1591.74,-110.7 1588.58,-110.34 1585.5,-110 1436.96,-93.48 1259.5,-75.92 1186.46,-68.79"/>
<polygon fill="#63b8ff" stroke="#63b8ff" points="1186.75,-65.31 1176.45,-67.82 1186.07,-72.27 1186.75,-65.31"/>
</a>
</g>
</g>
<!-- Node21&#45;&gt;Node22 -->
<g id="edge49_Node000021_Node000022" class="edge">
<title>Node21&#45;&gt;Node22</title>
<g id="a_edge49_Node000021_Node000022"><a xlink:title=" ">
<path fill="none" stroke="#63b8ff" d="M1658.81,-109.75C1660.67,-102.72 1663.34,-92.62 1665.65,-83.84"/>
<polygon fill="#63b8ff" stroke="#63b8ff" points="1669.06,-84.65 1668.23,-74.09 1662.29,-82.86 1669.06,-84.65"/>
</a>
</g>
</g>
<!-- Node23&#45;&gt;Node3 -->
<g id="edge52_Node000023_Node000003" class="edge">
<title>Node23&#45;&gt;Node3</title>
<g id="a_edge52_Node000023_Node000003"><a xlink:title=" ">
<path fill="none" stroke="#63b8ff" d="M1774.81,-113.5C1759.53,-112.21 1742.87,-110.92 1727.5,-110 1285.34,-83.42 1172.06,-119.96 731.5,-74 727.51,-73.58 723.35,-73.04 719.22,-72.42"/>
<polygon fill="#63b8ff" stroke="#63b8ff" points="719.54,-68.93 709.11,-70.79 718.42,-75.84 719.54,-68.93"/>
</a>
</g>
</g>
<!-- Node23&#45;&gt;Node7 -->
<g id="edge53_Node000023_Node000007" class="edge">
<title>Node23&#45;&gt;Node7</title>
<g id="a_edge53_Node000023_Node000007"><a xlink:title=" ">
<path fill="none" stroke="#63b8ff" d="M1828.71,-109.92C1828.54,-95.99 1825.98,-68.65 1809.5,-55 1779.06,-29.79 1507.08,-15.9 1412.63,-11.8"/>
<polygon fill="#63b8ff" stroke="#63b8ff" points="1412.67,-8.3 1402.53,-11.37 1412.37,-15.29 1412.67,-8.3"/>
</a>
</g>
</g>
<!-- Node23&#45;&gt;Node10 -->
<g id="edge54_Node000023_Node000010" class="edge">
<title>Node23&#45;&gt;Node10</title>
<g id="a_edge54_Node000023_Node000010"><a xlink:title=" ">
<path fill="none" stroke="#63b8ff" d="M1774.71,-111.52C1769.91,-110.97 1765.12,-110.46 1760.5,-110 1541.92,-88.35 1278.16,-72.56 1186.12,-67.35"/>
<polygon fill="#63b8ff" stroke="#63b8ff" points="1186.19,-63.85 1176.01,-66.79 1185.8,-70.84 1186.19,-63.85"/>
</a>
</g>
</g>
<!-- Node24 -->
<g id="Node000024" class="node">
<title>Node24</title>
<g id="a_Node000024"><a xlink:title=" ">
<polygon fill="#e0e0e0" stroke="#999999" points="1800,-74 1735,-74 1735,-55 1800,-55 1800,-74"/>
<text text-anchor="middle" x="1767.5" y="-62" font-family="Helvetica,sans-Serif" font-size="10.00">functional</text>
</a>
</g>
</g>
<!-- Node23&#45;&gt;Node24 -->
<g id="edge55_Node000023_Node000024" class="edge">
<title>Node23&#45;&gt;Node24</title>
<g id="a_edge55_Node000023_Node000024"><a xlink:title=" ">
<path fill="none" stroke="#63b8ff" d="M1818.7,-109.98C1809.68,-102.15 1796.09,-90.34 1785.18,-80.86"/>
<polygon fill="#63b8ff" stroke="#63b8ff" points="1787.32,-78.09 1777.48,-74.17 1782.73,-83.37 1787.32,-78.09"/>
</a>
</g>
</g>
<!-- Node27&#45;&gt;Node7 -->
<g id="edge73_Node000027_Node000007" class="edge">
<title>Node27&#45;&gt;Node7</title>
<g id="a_edge73_Node000027_Node000007"><a xlink:title=" ">
<path fill="none" stroke="#63b8ff" d="M42.91,-164.7C46.93,-151.44 56.1,-126.17 71.5,-110 106.48,-73.27 122.61,-68.52 171.5,-55 229.77,-38.88 1161.54,-15.75 1348.12,-11.27"/>
<polygon fill="#63b8ff" stroke="#63b8ff" points="1348.46,-14.76 1358.37,-11.02 1348.29,-7.76 1348.46,-14.76"/>
</a>
</g>
</g>
<!-- Node27&#45;&gt;Node9 -->
<g id="edge72_Node000027_Node000009" class="edge">
<title>Node27&#45;&gt;Node9</title>
<g id="a_edge72_Node000027_Node000009"><a xlink:title=" ">
<path fill="none" stroke="#63b8ff" d="M45.9,-164.93C54.75,-151.51 73.57,-125.47 95.5,-110 118.18,-93.99 147.41,-82.73 170.59,-75.54"/>
<polygon fill="#63b8ff" stroke="#63b8ff" points="171.85,-78.82 180.44,-72.62 169.86,-72.11 171.85,-78.82"/>
</a>
</g>
</g>
<!-- Node28 -->
<g id="Node000028" class="node">
<title>Node28</title>
<g id="a_Node000028"><a xlink:href="ChargeSource_8h.html" target="_top" xlink:title=" ">
<polygon fill="white" stroke="#666666" points="729,-129 636,-129 636,-110 729,-110 729,-129"/>
<text text-anchor="middle" x="682.5" y="-117" font-family="Helvetica,sans-Serif" font-size="10.00">ChargeSource.h</text>
</a>
</g>
</g>
<!-- Node27&#45;&gt;Node28 -->
<g id="edge68_Node000027_Node000028" class="edge">
<title>Node27&#45;&gt;Node28</title>
<g id="a_edge68_Node000027_Node000028"><a xlink:title=" ">
<path fill="none" stroke="#63b8ff" d="M81.09,-171.47C174.98,-166.54 414.58,-152.67 625.75,-128.99"/>
<polygon fill="#63b8ff" stroke="#63b8ff" points="626.24,-132.46 635.78,-127.86 625.45,-125.5 626.24,-132.46"/>
</a>
</g>
</g>
<!-- Node28&#45;&gt;Node3 -->
<g id="edge69_Node000028_Node000003" class="edge">
<title>Node28&#45;&gt;Node3</title>
<g id="a_edge69_Node000028_Node000003"><a xlink:title=" ">
<path fill="none" stroke="#63b8ff" d="M682.5,-109.75C682.5,-102.8 682.5,-92.85 682.5,-84.13"/>
<polygon fill="#63b8ff" stroke="#63b8ff" points="686,-84.09 682.5,-74.09 679,-84.09 686,-84.09"/>
</a>
</g>
</g>
<!-- Node28&#45;&gt;Node7 -->
<g id="edge70_Node000028_Node000007" class="edge">
<title>Node28&#45;&gt;Node7</title>
<g id="a_edge70_Node000028_Node000007"><a xlink:title=" ">
<path fill="none" stroke="#63b8ff" d="M729.11,-110.03C799.48,-97.36 937.13,-73.02 1054.5,-55 1161.87,-38.51 1289.61,-21.97 1348.21,-14.54"/>
<polygon fill="#63b8ff" stroke="#63b8ff" points="1348.84,-17.99 1358.33,-13.27 1347.97,-11.05 1348.84,-17.99"/>
</a>
</g>
</g>
<!-- Node28&#45;&gt;Node10 -->
<g id="edge71_Node000028_Node000010" class="edge">
<title>Node28&#45;&gt;Node10</title>
<g id="a_edge71_Node000028_Node000010"><a xlink:title=" ">
<path fill="none" stroke="#63b8ff" d="M729.28,-113.22C823.93,-102.55 1036.13,-78.62 1118.71,-69.31"/>
<polygon fill="#63b8ff" stroke="#63b8ff" points="1119.26,-72.77 1128.8,-68.17 1118.47,-65.81 1119.26,-72.77"/>
</a>
</g>
</g>
<!-- Node29&#45;&gt;Node7 -->
<g id="edge78_Node000029_Node000007" class="edge">
<title>Node29&#45;&gt;Node7</title>
<g id="a_edge78_Node000029_Node000007"><a xlink:title=" ">
<path fill="none" stroke="#63b8ff" d="M1366.15,-224.84C1521,-213.72 1960.18,-178.07 2000.5,-129 2021.38,-103.59 2022.91,-79.07 2000.5,-55 1960.22,-11.72 1534.6,-9.93 1412.86,-10.31"/>
<polygon fill="#63b8ff" stroke="#63b8ff" points="1412.67,-6.81 1402.69,-10.35 1412.7,-13.81 1412.67,-6.81"/>
</a>
</g>
</g>
<!-- Node29&#45;&gt;Node10 -->
<g id="edge77_Node000029_Node000010" class="edge">
<title>Node29&#45;&gt;Node10</title>
<g id="a_edge77_Node000029_Node000010"><a xlink:title=" ">
<path fill="none" stroke="#63b8ff" d="M1307.34,-219.68C1291.35,-192.4 1243.67,-111.08 1242.5,-110 1226.26,-94.92 1203.95,-83.84 1185.6,-76.51"/>
<polygon fill="#63b8ff" stroke="#63b8ff" points="1186.75,-73.2 1176.16,-72.92 1184.26,-79.75 1186.75,-73.2"/>
</a>
</g>
</g>
<!-- Node29&#45;&gt;Node19 -->
<g id="edge75_Node000029_Node000019" class="edge">
<title>Node29&#45;&gt;Node19</title>
<g id="a_edge75_Node000029_Node000019"><a xlink:title=" ">
<path fill="none" stroke="#63b8ff" d="M1320.1,-219.75C1326.66,-212.18 1336.32,-201.05 1344.31,-191.84"/>
<polygon fill="#63b8ff" stroke="#63b8ff" points="1347.13,-193.94 1351.05,-184.09 1341.85,-189.35 1347.13,-193.94"/>
</a>
</g>
</g>
<!-- Node29&#45;&gt;Node28 -->
<g id="edge76_Node000029_Node000028" class="edge">
<title>Node29&#45;&gt;Node28</title>
<g id="a_edge76_Node000029_Node000028"><a xlink:title=" ">
<path fill="none" stroke="#63b8ff" d="M1258.74,-228.07C1171.34,-226.32 993.53,-218.41 847.5,-184 797.14,-172.13 741.56,-148.36 709.47,-133.51"/>
<polygon fill="#63b8ff" stroke="#63b8ff" points="710.84,-130.29 700.3,-129.21 707.87,-136.62 710.84,-130.29"/>
</a>
</g>
</g>
</g>
</svg>
