<?xml version="1.0" encoding="UTF-8" standalone="no"?>
<!DOCTYPE svg PUBLIC "-//W3C//DTD SVG 1.1//EN"
 "http://www.w3.org/Graphics/SVG/1.1/DTD/svg11.dtd">
<!-- Generated by graphviz version 2.43.0 (0)
 -->
<!-- Title: Graphical Class Hierarchy Pages: 1 -->
<svg width="312pt" height="138pt"
 viewBox="0.00 0.00 312.00 138.00" xmlns="http://www.w3.org/2000/svg" xmlns:xlink="http://www.w3.org/1999/xlink">
<g id="graph0" class="graph" transform="scale(1 1) rotate(0) translate(4 134)">
<title>Graphical Class Hierarchy</title>
<!-- Node0 -->
<g id="Node000000" class="node">
<title>Node0</title>
<g id="a_Node000000"><a xlink:href="classnmr_1_1ChargeSource.html" target="_top" xlink:title=" ">
<polygon fill="white" stroke="#666666" points="110,-74 0,-74 0,-55 110,-55 110,-74"/>
<text text-anchor="middle" x="55" y="-62" font-family="Helvetica,sans-Serif" font-size="10.00">nmr::ChargeSource</text>
</a>
</g>
</g>
<!-- Node1 -->
<g id="Node000001" class="node">
<title>Node1</title>
<g id="a_Node000001"><a xlink:href="classnmr_1_1GmxTprChargeSource.html" target="_top" xlink:title=" ">
<polygon fill="white" stroke="#666666" points="299.5,-130 150.5,-130 150.5,-111 299.5,-111 299.5,-130"/>
<text text-anchor="middle" x="225" y="-118" font-family="Helvetica,sans-Serif" font-size="10.00">nmr::GmxTprChargeSource</text>
</a>
</g>
</g>
<!-- Node0&#45;&gt;Node1 -->
<g id="edge1_Node000000_Node000001" class="edge">
<title>Node0&#45;&gt;Node1</title>
<g id="a_edge1_Node000000_Node000001"><a xlink:title=" ">
<path fill="none" stroke="#63b8ff" d="M85.55,-78.5C102.88,-86.33 125.36,-95.82 146,-102.5 155.78,-105.67 166.43,-108.51 176.62,-110.95"/>
<polygon fill="#63b8ff" stroke="#63b8ff" points="86.54,-75.11 75.99,-74.12 83.63,-81.47 86.54,-75.11"/>
</a>
</g>
</g>
<!-- Node2 -->
<g id="Node000002" class="node">
<title>Node2</title>
<g id="a_Node000002"><a xlink:href="classnmr_1_1ParamFileChargeSource.html" target="_top" xlink:title=" ">
<polygon fill="white" stroke="#666666" points="304,-93 146,-93 146,-74 304,-74 304,-93"/>
<text text-anchor="middle" x="225" y="-81" font-family="Helvetica,sans-Serif" font-size="10.00">nmr::ParamFileChargeSource</text>
</a>
</g>
</g>
<!-- Node0&#45;&gt;Node2 -->
<g id="edge2_Node000000_Node000002" class="edge">
<title>Node0&#45;&gt;Node2</title>
<g id="a_edge2_Node000000_Node000002"><a xlink:title=" ">
<path fill="none" stroke="#63b8ff" d="M120.17,-71.76C128.57,-72.71 137.26,-73.69 145.86,-74.66"/>
<polygon fill="#63b8ff" stroke="#63b8ff" points="120.41,-68.26 110.08,-70.62 119.62,-75.22 120.41,-68.26"/>
</a>
</g>
</g>
<!-- Node3 -->
<g id="Node000003" class="node">
<title>Node3</title>
<g id="a_Node000003"><a xlink:href="classnmr_1_1PreloadedChargeSource.html" target="_top" xlink:title=" ">
<polygon fill="white" stroke="#666666" points="304,-56 146,-56 146,-37 304,-37 304,-56"/>
<text text-anchor="middle" x="225" y="-44" font-family="Helvetica,sans-Serif" font-size="10.00">nmr::PreloadedChargeSource</text>
</a>
</g>
</g>
<!-- Node0&#45;&gt;Node3 -->
<g id="edge3_Node000000_Node000003" class="edge">
<title>Node0&#45;&gt;Node3</title>
<g id="a_edge3_Node000000_Node000003"><a xlink:title=" ">
<path fill="none" stroke="#63b8ff" d="M120.17,-57.62C128.57,-56.72 137.26,-55.79 145.86,-54.87"/>
<polygon fill="#63b8ff" stroke="#63b8ff" points="119.65,-54.16 110.08,-58.71 120.4,-61.12 119.65,-54.16"/>
</a>
</g>
</g>
<!-- Node4 -->
<g id="Node000004" class="node">
<title>Node4</title>
<g id="a_Node000004"><a xlink:href="classnmr_1_1PrmtopChargeSource.html" target="_top" xlink:title=" ">
<polygon fill="white" stroke="#666666" points="297.5,-19 152.5,-19 152.5,0 297.5,0 297.5,-19"/>
<text text-anchor="middle" x="225" y="-7" font-family="Helvetica,sans-Serif" font-size="10.00">nmr::PrmtopChargeSource</text>
</a>
</g>
</g>
<!-- Node0&#45;&gt;Node4 -->
<g id="edge4_Node000000_Node000004" class="edge">
<title>Node0&#45;&gt;Node4</title>
<g id="a_edge4_Node000000_Node000004"><a xlink:title=" ">
<path fill="none" stroke="#63b8ff" d="M87.03,-50.83C104.19,-43.58 126.04,-34.89 146,-28.5 156.89,-25.02 168.8,-21.82 179.97,-19.07"/>
<polygon fill="#63b8ff" stroke="#63b8ff" points="85.33,-47.75 77.51,-54.9 88.08,-54.18 85.33,-47.75"/>
</a>
</g>
</g>
</g>
</svg>
