<?xml version="1.0" encoding="UTF-8" standalone="no"?>
<!DOCTYPE svg PUBLIC "-//W3C//DTD SVG 1.1//EN"
 "http://www.w3.org/Graphics/SVG/1.1/DTD/svg11.dtd">
<!-- Generated by graphviz version 2.43.0 (0)
 -->
<!-- Title: Graphical Class Hierarchy Pages: 1 -->
<svg width="263pt" height="64pt"
 viewBox="0.00 0.00 263.00 64.00" xmlns="http://www.w3.org/2000/svg" xmlns:xlink="http://www.w3.org/1999/xlink">
<g id="graph0" class="graph" transform="scale(1 1) rotate(0) translate(4 60)">
<title>Graphical Class Hierarchy</title>
<!-- Node0 -->
<g id="Node000000" class="node">
<title>Node0</title>
<g id="a_Node000000"><a xlink:href="classnmr_1_1Protonator.html" target="_top" xlink:title=" ">
<polygon fill="white" stroke="#666666" points="93,-37 0,-37 0,-18 93,-18 93,-37"/>
<text text-anchor="middle" x="46.5" y="-25" font-family="Helvetica,sans-Serif" font-size="10.00">nmr::Protonator</text>
</a>
</g>
</g>
<!-- Node1 -->
<g id="Node000001" class="node">
<title>Node1</title>
<g id="a_Node000001"><a xlink:href="classnmr_1_1KamlProtonator.html" target="_top" xlink:title=" ">
<polygon fill="white" stroke="#666666" points="251.5,-56 132.5,-56 132.5,-37 251.5,-37 251.5,-56"/>
<text text-anchor="middle" x="192" y="-44" font-family="Helvetica,sans-Serif" font-size="10.00">nmr::KamlProtonator</text>
</a>
</g>
</g>
<!-- Node0&#45;&gt;Node1 -->
<g id="edge36_Node000000_Node000001" class="edge">
<title>Node0&#45;&gt;Node1</title>
<g id="a_edge36_Node000000_Node000001"><a xlink:title=" ">
<path fill="none" stroke="#63b8ff" d="M103.39,-34.9C112.86,-36.15 122.71,-37.46 132.25,-38.72"/>
<polygon fill="#63b8ff" stroke="#63b8ff" points="103.67,-31.41 93.3,-33.56 102.75,-38.35 103.67,-31.41"/>
</a>
</g>
</g>
<!-- Node2 -->
<g id="Node000002" class="node">
<title>Node2</title>
<g id="a_Node000002"><a xlink:href="classnmr_1_1PropkaProtonator.html" target="_top" xlink:title=" ">
<polygon fill="white" stroke="#666666" points="255,-19 129,-19 129,0 255,0 255,-19"/>
<text text-anchor="middle" x="192" y="-7" font-family="Helvetica,sans-Serif" font-size="10.00">nmr::PropkaProtonator</text>
</a>
</g>
</g>
<!-- Node0&#45;&gt;Node2 -->
<g id="edge37_Node000000_Node000002" class="edge">
<title>Node0&#45;&gt;Node2</title>
<g id="a_edge37_Node000000_Node000002"><a xlink:title=" ">
<path fill="none" stroke="#63b8ff" d="M103.33,-20.5C111.71,-19.45 120.39,-18.36 128.89,-17.29"/>
<polygon fill="#63b8ff" stroke="#63b8ff" points="102.79,-17.04 93.3,-21.76 103.66,-23.98 102.79,-17.04"/>
</a>
</g>
</g>
</g>
</svg>
