<?xml version="1.0" encoding="UTF-8" standalone="no"?>
<!DOCTYPE svg PUBLIC "-//W3C//DTD SVG 1.1//EN"
 "http://www.w3.org/Graphics/SVG/1.1/DTD/svg11.dtd">
<!-- Generated by graphviz version 2.43.0 (0)
 -->
<!-- Title: Graphical Class Hierarchy Pages: 1 -->
<svg width="342pt" height="199pt"
 viewBox="0.00 0.00 342.00 198.50" xmlns="http://www.w3.org/2000/svg" xmlns:xlink="http://www.w3.org/1999/xlink">
<g id="graph0" class="graph" transform="scale(1 1) rotate(0) translate(4 194.5)">
<title>Graphical Class Hierarchy</title>
<!-- Node0 -->
<g id="Node000000" class="node">
<title>Node0</title>
<g id="a_Node000000"><a xlink:href="classnmr_1_1KernelEvaluationFilter.html" target="_top" xlink:title=" ">
<polygon fill="white" stroke="#666666" points="149,-110.5 0,-110.5 0,-91.5 149,-91.5 149,-110.5"/>
<text text-anchor="middle" x="74.5" y="-98.5" font-family="Helvetica,sans-Serif" font-size="10.00">nmr::KernelEvaluationFilter</text>
</a>
</g>
</g>
<!-- Node1 -->
<g id="Node000001" class="node">
<title>Node1</title>
<g id="a_Node000001"><a xlink:href="classnmr_1_1DipolarNearFieldFilter.html" target="_top" xlink:title=" ">
<polygon fill="white" stroke="#666666" points="334,-190.5 185,-190.5 185,-171.5 334,-171.5 334,-190.5"/>
<text text-anchor="middle" x="259.5" y="-178.5" font-family="Helvetica,sans-Serif" font-size="10.00">nmr::DipolarNearFieldFilter</text>
</a>
</g>
</g>
<!-- Node0&#45;&gt;Node1 -->
<g id="edge27_Node000000_Node000001" class="edge">
<title>Node0&#45;&gt;Node1</title>
<g id="a_edge27_Node000000_Node000001"><a xlink:title=" ">
<path fill="none" stroke="#63b8ff" d="M97.81,-116.07C119.32,-130 153.19,-150.38 185,-163 193.3,-166.29 202.38,-169.11 211.24,-171.47"/>
<polygon fill="#63b8ff" stroke="#63b8ff" points="99.67,-113.11 89.39,-110.54 95.83,-118.96 99.67,-113.11"/>
</a>
</g>
</g>
<!-- Node2 -->
<g id="Node000002" class="node">
<title>Node2</title>
<g id="a_Node000002"><a xlink:href="classnmr_1_1MinDistanceFilter.html" target="_top" xlink:title=" ">
<polygon fill="white" stroke="#666666" points="323.5,-153.5 195.5,-153.5 195.5,-134.5 323.5,-134.5 323.5,-153.5"/>
<text text-anchor="middle" x="259.5" y="-141.5" font-family="Helvetica,sans-Serif" font-size="10.00">nmr::MinDistanceFilter</text>
</a>
</g>
</g>
<!-- Node0&#45;&gt;Node2 -->
<g id="edge28_Node000000_Node000002" class="edge">
<title>Node0&#45;&gt;Node2</title>
<g id="a_edge28_Node000000_Node000002"><a xlink:title=" ">
<path fill="none" stroke="#63b8ff" d="M126.05,-112.88C155.02,-119.69 190.9,-128.12 218,-134.48"/>
<polygon fill="#63b8ff" stroke="#63b8ff" points="126.65,-109.42 116.11,-110.54 125.05,-116.24 126.65,-109.42"/>
</a>
</g>
</g>
<!-- Node3 -->
<g id="Node000003" class="node">
<title>Node3</title>
<g id="a_Node000003"><a xlink:href="classnmr_1_1RingBondedExclusionFilter.html" target="_top" xlink:title=" ">
<polygon fill="white" stroke="#666666" points="333,-116 186,-116 186,-86 333,-86 333,-116"/>
<text text-anchor="start" x="194" y="-104" font-family="Helvetica,sans-Serif" font-size="10.00">nmr::RingBondedExclusion</text>
<text text-anchor="middle" x="259.5" y="-93" font-family="Helvetica,sans-Serif" font-size="10.00">Filter</text>
</a>
</g>
</g>
<!-- Node0&#45;&gt;Node3 -->
<g id="edge29_Node000000_Node000003" class="edge">
<title>Node0&#45;&gt;Node3</title>
<g id="a_edge29_Node000000_Node000003"><a xlink:title=" ">
<path fill="none" stroke="#63b8ff" d="M159.16,-101C168.09,-101 177.12,-101 185.9,-101"/>
<polygon fill="#63b8ff" stroke="#63b8ff" points="159.14,-97.5 149.14,-101 159.14,-104.5 159.14,-97.5"/>
</a>
</g>
</g>
<!-- Node4 -->
<g id="Node000004" class="node">
<title>Node4</title>
<g id="a_Node000004"><a xlink:href="classnmr_1_1SelfSourceFilter.html" target="_top" xlink:title=" ">
<polygon fill="white" stroke="#666666" points="319,-67.5 200,-67.5 200,-48.5 319,-48.5 319,-67.5"/>
<text text-anchor="middle" x="259.5" y="-55.5" font-family="Helvetica,sans-Serif" font-size="10.00">nmr::SelfSourceFilter</text>
</a>
</g>
</g>
<!-- Node0&#45;&gt;Node4 -->
<g id="edge30_Node000000_Node000004" class="edge">
<title>Node0&#45;&gt;Node4</title>
<g id="a_edge30_Node000000_Node000004"><a xlink:title=" ">
<path fill="none" stroke="#63b8ff" d="M126.05,-89.12C155.02,-82.31 190.9,-73.88 218,-67.52"/>
<polygon fill="#63b8ff" stroke="#63b8ff" points="125.05,-85.76 116.11,-91.46 126.65,-92.58 125.05,-85.76"/>
</a>
</g>
</g>
<!-- Node5 -->
<g id="Node000005" class="node">
<title>Node5</title>
<g id="a_Node000005"><a xlink:href="classnmr_1_1SequentialExclusionFilter.html" target="_top" xlink:title=" ">
<polygon fill="white" stroke="#666666" points="329.5,-30 189.5,-30 189.5,0 329.5,0 329.5,-30"/>
<text text-anchor="start" x="197.5" y="-18" font-family="Helvetica,sans-Serif" font-size="10.00">nmr::SequentialExclusion</text>
<text text-anchor="middle" x="259.5" y="-7" font-family="Helvetica,sans-Serif" font-size="10.00">Filter</text>
</a>
</g>
</g>
<!-- Node0&#45;&gt;Node5 -->
<g id="edge31_Node000000_Node000005" class="edge">
<title>Node0&#45;&gt;Node5</title>
<g id="a_edge31_Node000000_Node000005"><a xlink:title=" ">
<path fill="none" stroke="#63b8ff" d="M99.21,-86.14C120.97,-72.92 154.37,-53.61 185,-40 193.01,-36.44 201.69,-33.08 210.18,-30.04"/>
<polygon fill="#63b8ff" stroke="#63b8ff" points="97.33,-83.19 90.64,-91.41 101,-89.16 97.33,-83.19"/>
</a>
</g>
</g>
</g>
</svg>
