<?xml version="1.0" encoding="UTF-8" standalone="no"?>
<!DOCTYPE svg PUBLIC "-//W3C//DTD SVG 1.1//EN"
 "http://www.w3.org/Graphics/SVG/1.1/DTD/svg11.dtd">
<!-- Generated by graphviz version 2.43.0 (0)
 -->
<!-- Title: Graphical Class Hierarchy Pages: 1 -->
<svg width="423pt" height="286pt"
 viewBox="0.00 0.00 423.00 286.00" xmlns="http://www.w3.org/2000/svg" xmlns:xlink="http://www.w3.org/1999/xlink">
<g id="graph0" class="graph" transform="scale(1 1) rotate(0) translate(4 282)">
<title>Graphical Class Hierarchy</title>
<!-- Node0 -->
<g id="Node000000" class="node">
<title>Node0</title>
<g id="a_Node000000"><a xlink:href="classnmr_1_1Ring.html" target="_top" xlink:title=" ">
<polygon fill="white" stroke="#666666" points="64,-130 0,-130 0,-111 64,-111 64,-130"/>
<text text-anchor="middle" x="32" y="-118" font-family="Helvetica,sans-Serif" font-size="10.00">nmr::Ring</text>
</a>
</g>
</g>
<!-- Node1 -->
<g id="Node000001" class="node">
<title>Node1</title>
<g id="a_Node000001"><a xlink:href="classnmr_1_1FiveMemberedRing.html" target="_top" xlink:title=" ">
<polygon fill="white" stroke="#666666" points="237,-204 100,-204 100,-185 237,-185 237,-204"/>
<text text-anchor="middle" x="168.5" y="-192" font-family="Helvetica,sans-Serif" font-size="10.00">nmr::FiveMemberedRing</text>
</a>
</g>
</g>
<!-- Node0&#45;&gt;Node1 -->
<g id="edge38_Node000000_Node000001" class="edge">
<title>Node0&#45;&gt;Node1</title>
<g id="a_edge38_Node000000_Node000001"><a xlink:title=" ">
<path fill="none" stroke="#63b8ff" d="M59.13,-134.87C85.86,-149.58 126.67,-172.04 149.83,-184.78"/>
<polygon fill="#63b8ff" stroke="#63b8ff" points="60.76,-131.78 50.31,-130.02 57.38,-137.91 60.76,-131.78"/>
</a>
</g>
</g>
<!-- Node6 -->
<g id="Node000006" class="node">
<title>Node6</title>
<g id="a_Node000006"><a xlink:href="classnmr_1_1FusedRing.html" target="_top" xlink:title=" ">
<polygon fill="white" stroke="#666666" points="214.5,-130 122.5,-130 122.5,-111 214.5,-111 214.5,-130"/>
<text text-anchor="middle" x="168.5" y="-118" font-family="Helvetica,sans-Serif" font-size="10.00">nmr::FusedRing</text>
</a>
</g>
</g>
<!-- Node0&#45;&gt;Node6 -->
<g id="edge43_Node000000_Node000006" class="edge">
<title>Node0&#45;&gt;Node6</title>
<g id="a_edge43_Node000000_Node000006"><a xlink:title=" ">
<path fill="none" stroke="#63b8ff" d="M74.36,-120.5C89.59,-120.5 106.91,-120.5 122.46,-120.5"/>
<polygon fill="#63b8ff" stroke="#63b8ff" points="74.2,-117 64.2,-120.5 74.2,-124 74.2,-117"/>
</a>
</g>
</g>
<!-- Node8 -->
<g id="Node000008" class="node">
<title>Node8</title>
<g id="a_Node000008"><a xlink:href="classnmr_1_1SixMemberedRing.html" target="_top" xlink:title=" ">
<polygon fill="white" stroke="#666666" points="234,-75 103,-75 103,-56 234,-56 234,-75"/>
<text text-anchor="middle" x="168.5" y="-63" font-family="Helvetica,sans-Serif" font-size="10.00">nmr::SixMemberedRing</text>
</a>
</g>
</g>
<!-- Node0&#45;&gt;Node8 -->
<g id="edge45_Node000000_Node000008" class="edge">
<title>Node0&#45;&gt;Node8</title>
<g id="a_edge45_Node000000_Node000008"><a xlink:title=" ">
<path fill="none" stroke="#63b8ff" d="M65.9,-107.05C90.04,-97.17 122.26,-84 143.89,-75.16"/>
<polygon fill="#63b8ff" stroke="#63b8ff" points="64.36,-103.9 56.43,-110.92 67.01,-110.37 64.36,-103.9"/>
</a>
</g>
</g>
<!-- Node2 -->
<g id="Node000002" class="node">
<title>Node2</title>
<g id="a_Node000002"><a xlink:href="classnmr_1_1HidImidazoleRing.html" target="_top" xlink:title=" ">
<polygon fill="white" stroke="#666666" points="408,-278 280,-278 280,-259 408,-259 408,-278"/>
<text text-anchor="middle" x="344" y="-266" font-family="Helvetica,sans-Serif" font-size="10.00">nmr::HidImidazoleRing</text>
</a>
</g>
</g>
<!-- Node1&#45;&gt;Node2 -->
<g id="edge39_Node000001_Node000002" class="edge">
<title>Node1&#45;&gt;Node2</title>
<g id="a_edge39_Node000001_Node000002"><a xlink:title=" ">
<path fill="none" stroke="#63b8ff" d="M193,-209.38C213.48,-221.8 244.3,-239.24 273,-250.5 281.29,-253.75 290.37,-256.59 299.16,-258.98"/>
<polygon fill="#63b8ff" stroke="#63b8ff" points="194.72,-206.32 184.37,-204.06 191.05,-212.28 194.72,-206.32"/>
</a>
</g>
</g>
<!-- Node3 -->
<g id="Node000003" class="node">
<title>Node3</title>
<g id="a_Node000003"><a xlink:href="classnmr_1_1HieImidazoleRing.html" target="_top" xlink:title=" ">
<polygon fill="white" stroke="#666666" points="408,-241 280,-241 280,-222 408,-222 408,-241"/>
<text text-anchor="middle" x="344" y="-229" font-family="Helvetica,sans-Serif" font-size="10.00">nmr::HieImidazoleRing</text>
</a>
</g>
</g>
<!-- Node1&#45;&gt;Node3 -->
<g id="edge40_Node000001_Node000003" class="edge">
<title>Node1&#45;&gt;Node3</title>
<g id="a_edge40_Node000001_Node000003"><a xlink:title=" ">
<path fill="none" stroke="#63b8ff" d="M224.14,-206.15C247.97,-211.23 275.57,-217.12 298.17,-221.94"/>
<polygon fill="#63b8ff" stroke="#63b8ff" points="224.69,-202.69 214.18,-204.03 223.23,-209.54 224.69,-202.69"/>
</a>
</g>
</g>
<!-- Node4 -->
<g id="Node000004" class="node">
<title>Node4</title>
<g id="a_Node000004"><a xlink:href="classnmr_1_1HisImidazoleRing.html" target="_top" xlink:title=" ">
<polygon fill="white" stroke="#666666" points="408,-204 280,-204 280,-185 408,-185 408,-204"/>
<text text-anchor="middle" x="344" y="-192" font-family="Helvetica,sans-Serif" font-size="10.00">nmr::HisImidazoleRing</text>
</a>
</g>
</g>
<!-- Node1&#45;&gt;Node4 -->
<g id="edge41_Node000001_Node000004" class="edge">
<title>Node1&#45;&gt;Node4</title>
<g id="a_edge41_Node000001_Node000004"><a xlink:title=" ">
<path fill="none" stroke="#63b8ff" d="M247.41,-194.5C258.27,-194.5 269.32,-194.5 279.86,-194.5"/>
<polygon fill="#63b8ff" stroke="#63b8ff" points="247.08,-191 237.08,-194.5 247.08,-198 247.08,-191"/>
</a>
</g>
</g>
<!-- Node5 -->
<g id="Node000005" class="node">
<title>Node5</title>
<g id="a_Node000005"><a xlink:href="classnmr_1_1TrpPyrroleRing.html" target="_top" xlink:title=" ">
<polygon fill="white" stroke="#666666" points="400.5,-167 287.5,-167 287.5,-148 400.5,-148 400.5,-167"/>
<text text-anchor="middle" x="344" y="-155" font-family="Helvetica,sans-Serif" font-size="10.00">nmr::TrpPyrroleRing</text>
</a>
</g>
</g>
<!-- Node1&#45;&gt;Node5 -->
<g id="edge42_Node000001_Node000005" class="edge">
<title>Node1&#45;&gt;Node5</title>
<g id="a_edge42_Node000001_Node000005"><a xlink:title=" ">
<path fill="none" stroke="#63b8ff" d="M224.14,-182.85C247.97,-177.77 275.57,-171.88 298.17,-167.06"/>
<polygon fill="#63b8ff" stroke="#63b8ff" points="223.23,-179.46 214.18,-184.97 224.69,-186.31 223.23,-179.46"/>
</a>
</g>
</g>
<!-- Node7 -->
<g id="Node000007" class="node">
<title>Node7</title>
<g id="a_Node000007"><a xlink:href="classnmr_1_1IndolePerimeterRing.html" target="_top" xlink:title=" ">
<polygon fill="white" stroke="#666666" points="415,-130 273,-130 273,-111 415,-111 415,-130"/>
<text text-anchor="middle" x="344" y="-118" font-family="Helvetica,sans-Serif" font-size="10.00">nmr::IndolePerimeterRing</text>
</a>
</g>
</g>
<!-- Node6&#45;&gt;Node7 -->
<g id="edge44_Node000006_Node000007" class="edge">
<title>Node6&#45;&gt;Node7</title>
<g id="a_edge44_Node000006_Node000007"><a xlink:title=" ">
<path fill="none" stroke="#63b8ff" d="M224.92,-120.5C240.17,-120.5 256.91,-120.5 272.87,-120.5"/>
<polygon fill="#63b8ff" stroke="#63b8ff" points="224.63,-117 214.63,-120.5 224.63,-124 224.63,-117"/>
</a>
</g>
</g>
<!-- Node9 -->
<g id="Node000009" class="node">
<title>Node9</title>
<g id="a_Node000009"><a xlink:href="classnmr_1_1PheBenzeneRing.html" target="_top" xlink:title=" ">
<polygon fill="white" stroke="#666666" points="406,-93 282,-93 282,-74 406,-74 406,-93"/>
<text text-anchor="middle" x="344" y="-81" font-family="Helvetica,sans-Serif" font-size="10.00">nmr::PheBenzeneRing</text>
</a>
</g>
</g>
<!-- Node8&#45;&gt;Node9 -->
<g id="edge46_Node000008_Node000009" class="edge">
<title>Node8&#45;&gt;Node9</title>
<g id="a_edge46_Node000008_Node000009"><a xlink:title=" ">
<path fill="none" stroke="#63b8ff" d="M244.1,-73.24C256.68,-74.54 269.6,-75.89 281.79,-77.15"/>
<polygon fill="#63b8ff" stroke="#63b8ff" points="244.41,-69.75 234.1,-72.2 243.69,-76.72 244.41,-69.75"/>
</a>
</g>
</g>
<!-- Node10 -->
<g id="Node000010" class="node">
<title>Node10</title>
<g id="a_Node000010"><a xlink:href="classnmr_1_1TrpBenzeneRing.html" target="_top" xlink:title=" ">
<polygon fill="white" stroke="#666666" points="404,-56 284,-56 284,-37 404,-37 404,-56"/>
<text text-anchor="middle" x="344" y="-44" font-family="Helvetica,sans-Serif" font-size="10.00">nmr::TrpBenzeneRing</text>
</a>
</g>
</g>
<!-- Node8&#45;&gt;Node10 -->
<g id="edge47_Node000008_Node000010" class="edge">
<title>Node8&#45;&gt;Node10</title>
<g id="a_edge47_Node000008_Node000010"><a xlink:title=" ">
<path fill="none" stroke="#63b8ff" d="M244.14,-57.33C257.4,-55.87 271.04,-54.38 283.79,-52.98"/>
<polygon fill="#63b8ff" stroke="#63b8ff" points="243.66,-53.86 234.1,-58.43 244.43,-60.82 243.66,-53.86"/>
</a>
</g>
</g>
<!-- Node11 -->
<g id="Node000011" class="node">
<title>Node11</title>
<g id="a_Node000011"><a xlink:href="classnmr_1_1TyrPhenolRing.html" target="_top" xlink:title=" ">
<polygon fill="white" stroke="#666666" points="399.5,-19 288.5,-19 288.5,0 399.5,0 399.5,-19"/>
<text text-anchor="middle" x="344" y="-7" font-family="Helvetica,sans-Serif" font-size="10.00">nmr::TyrPhenolRing</text>
</a>
</g>
</g>
<!-- Node8&#45;&gt;Node11 -->
<g id="edge48_Node000008_Node000011" class="edge">
<title>Node8&#45;&gt;Node11</title>
<g id="a_edge48_Node000008_Node000011"><a xlink:title=" ">
<path fill="none" stroke="#63b8ff" d="M204.02,-52.39C224.04,-44.99 249.79,-35.79 273,-28.5 283.57,-25.18 295.15,-21.9 305.79,-19.02"/>
<polygon fill="#63b8ff" stroke="#63b8ff" points="202.56,-49.2 194.41,-55.98 205,-55.76 202.56,-49.2"/>
</a>
</g>
</g>
</g>
</svg>
