<?xml version="1.0" encoding="UTF-8" standalone="no"?>
<!DOCTYPE svg PUBLIC "-//W3C//DTD SVG 1.1//EN"
 "http://www.w3.org/Graphics/SVG/1.1/DTD/svg11.dtd">
<!-- Generated by graphviz version 2.43.0 (0)
 -->
<!-- Title: Graphical Class Hierarchy Pages: 1 -->
<svg width="345pt" height="138pt"
 viewBox="0.00 0.00 345.00 138.00" xmlns="http://www.w3.org/2000/svg" xmlns:xlink="http://www.w3.org/1999/xlink">
<g id="graph0" class="graph" transform="scale(1 1) rotate(0) translate(4 134)">
<title>Graphical Class Hierarchy</title>
<!-- Node0 -->
<g id="Node000000" class="node">
<title>Node0</title>
<g id="a_Node000000"><a xlink:href="classnmr_1_1ProteinConformation.html" target="_top" xlink:title=" ">
<polygon fill="white" stroke="#666666" points="143,-74 0,-74 0,-55 143,-55 143,-74"/>
<text text-anchor="middle" x="71.5" y="-62" font-family="Helvetica,sans-Serif" font-size="10.00">nmr::ProteinConformation</text>
</a>
</g>
</g>
<!-- Node1 -->
<g id="Node000001" class="node">
<title>Node1</title>
<g id="a_Node000001"><a xlink:href="classnmr_1_1CrystalConformation.html" target="_top" xlink:title=" ">
<polygon fill="white" stroke="#666666" points="329.5,-130 186.5,-130 186.5,-111 329.5,-111 329.5,-130"/>
<text text-anchor="middle" x="258" y="-118" font-family="Helvetica,sans-Serif" font-size="10.00">nmr::CrystalConformation</text>
</a>
</g>
</g>
<!-- Node0&#45;&gt;Node1 -->
<g id="edge32_Node000000_Node000001" class="edge">
<title>Node0&#45;&gt;Node1</title>
<g id="a_edge32_Node000000_Node000001"><a xlink:title=" ">
<path fill="none" stroke="#63b8ff" d="M106.12,-77.63C126.92,-85.46 154.28,-95.26 179,-102.5 189.4,-105.55 200.71,-108.41 211.4,-110.91"/>
<polygon fill="#63b8ff" stroke="#63b8ff" points="107.36,-74.35 96.77,-74.07 104.87,-80.9 107.36,-74.35"/>
</a>
</g>
</g>
<!-- Node2 -->
<g id="Node000002" class="node">
<title>Node2</title>
<g id="a_Node000002"><a xlink:href="classnmr_1_1DerivedConformation.html" target="_top" xlink:title=" ">
<polygon fill="white" stroke="#666666" points="331.5,-93 184.5,-93 184.5,-74 331.5,-74 331.5,-93"/>
<text text-anchor="middle" x="258" y="-81" font-family="Helvetica,sans-Serif" font-size="10.00">nmr::DerivedConformation</text>
</a>
</g>
</g>
<!-- Node0&#45;&gt;Node2 -->
<g id="edge33_Node000000_Node000002" class="edge">
<title>Node0&#45;&gt;Node2</title>
<g id="a_edge33_Node000000_Node000002"><a xlink:title=" ">
<path fill="none" stroke="#63b8ff" d="M153.29,-72.82C163.63,-73.88 174.16,-74.97 184.36,-76.02"/>
<polygon fill="#63b8ff" stroke="#63b8ff" points="153.35,-69.31 143.04,-71.76 152.63,-76.27 153.35,-69.31"/>
</a>
</g>
</g>
<!-- Node3 -->
<g id="Node000003" class="node">
<title>Node3</title>
<g id="a_Node000003"><a xlink:href="classnmr_1_1MDFrameConformation.html" target="_top" xlink:title=" ">
<polygon fill="white" stroke="#666666" points="336,-56 180,-56 180,-37 336,-37 336,-56"/>
<text text-anchor="middle" x="258" y="-44" font-family="Helvetica,sans-Serif" font-size="10.00">nmr::MDFrameConformation</text>
</a>
</g>
</g>
<!-- Node0&#45;&gt;Node3 -->
<g id="edge34_Node000000_Node000003" class="edge">
<title>Node0&#45;&gt;Node3</title>
<g id="a_edge34_Node000000_Node000003"><a xlink:title=" ">
<path fill="none" stroke="#63b8ff" d="M153.27,-56.62C162.06,-55.76 170.99,-54.89 179.74,-54.04"/>
<polygon fill="#63b8ff" stroke="#63b8ff" points="152.65,-53.16 143.04,-57.62 153.33,-60.13 152.65,-53.16"/>
</a>
</g>
</g>
<!-- Node4 -->
<g id="Node000004" class="node">
<title>Node4</title>
<g id="a_Node000004"><a xlink:href="classnmr_1_1PredictionConformation.html" target="_top" xlink:title=" ">
<polygon fill="white" stroke="#666666" points="337,-19 179,-19 179,0 337,0 337,-19"/>
<text text-anchor="middle" x="258" y="-7" font-family="Helvetica,sans-Serif" font-size="10.00">nmr::PredictionConformation</text>
</a>
</g>
</g>
<!-- Node0&#45;&gt;Node4 -->
<g id="edge35_Node000000_Node000004" class="edge">
<title>Node0&#45;&gt;Node4</title>
<g id="a_edge35_Node000000_Node000004"><a xlink:title=" ">
<path fill="none" stroke="#63b8ff" d="M108.15,-51.58C128.72,-44.35 155.16,-35.42 179,-28.5 190.51,-25.16 203.09,-21.92 214.72,-19.09"/>
<polygon fill="#63b8ff" stroke="#63b8ff" points="106.82,-48.34 98.56,-54.98 109.15,-54.94 106.82,-48.34"/>
</a>
</g>
</g>
</g>
</svg>
