<?xml version="1.0" encoding="UTF-8" standalone="no"?>
<!DOCTYPE svg PUBLIC "-//W3C//DTD SVG 1.1//EN"
 "http://www.w3.org/Graphics/SVG/1.1/DTD/svg11.dtd">
<!-- Generated by graphviz version 2.43.0 (0)
 -->
<!-- Title: Graphical Class Hierarchy Pages: 1 -->
<svg width="349pt" height="816pt"
 viewBox="0.00 0.00 349.00 816.00" xmlns="http://www.w3.org/2000/svg" xmlns:xlink="http://www.w3.org/1999/xlink">
<g id="graph0" class="graph" transform="scale(1 1) rotate(0) translate(4 812)">
<title>Graphical Class Hierarchy</title>
<!-- Node0 -->
<g id="Node000000" class="node">
<title>Node0</title>
<g id="a_Node000000"><a xlink:href="classnmr_1_1ConformationResult.html" target="_top" xlink:title=" ">
<polygon fill="white" stroke="#666666" points="140,-419 0,-419 0,-400 140,-400 140,-419"/>
<text text-anchor="middle" x="70" y="-407" font-family="Helvetica,sans-Serif" font-size="10.00">nmr::ConformationResult</text>
</a>
</g>
</g>
<!-- Node1 -->
<g id="Node000001" class="node">
<title>Node1</title>
<g id="a_Node000001"><a xlink:href="classnmr_1_1ApbsFieldResult.html" target="_top" xlink:title=" ">
<polygon fill="white" stroke="#666666" points="318.5,-808 198.5,-808 198.5,-789 318.5,-789 318.5,-808"/>
<text text-anchor="middle" x="258.5" y="-796" font-family="Helvetica,sans-Serif" font-size="10.00">nmr::ApbsFieldResult</text>
</a>
</g>
</g>
<!-- Node0&#45;&gt;Node1 -->
<g id="edge5_Node000000_Node000001" class="edge">
<title>Node0&#45;&gt;Node1</title>
<g id="a_edge5_Node000000_Node000001"><a xlink:title=" ">
<path fill="none" stroke="#63b8ff" d="M73.9,-429.31C84.48,-498.91 123.18,-730.68 176,-780.5 182.32,-786.47 190.16,-790.62 198.45,-793.49"/>
<polygon fill="#63b8ff" stroke="#63b8ff" points="77.34,-428.63 72.4,-419.26 70.41,-429.66 77.34,-428.63"/>
</a>
</g>
</g>
<!-- Node2 -->
<g id="Node000002" class="node">
<title>Node2</title>
<g id="a_Node000002"><a xlink:href="classnmr_1_1BiotSavartResult.html" target="_top" xlink:title=" ">
<polygon fill="white" stroke="#666666" points="320.5,-771 196.5,-771 196.5,-752 320.5,-752 320.5,-771"/>
<text text-anchor="middle" x="258.5" y="-759" font-family="Helvetica,sans-Serif" font-size="10.00">nmr::BiotSavartResult</text>
</a>
</g>
</g>
<!-- Node0&#45;&gt;Node2 -->
<g id="edge6_Node000000_Node000002" class="edge">
<title>Node0&#45;&gt;Node2</title>
<g id="a_edge6_Node000000_Node000002"><a xlink:title=" ">
<path fill="none" stroke="#63b8ff" d="M70.84,-429.6C71.52,-487.71 81.88,-657.25 176,-743.5 181.77,-748.79 188.73,-752.64 196.12,-755.44"/>
<polygon fill="#63b8ff" stroke="#63b8ff" points="74.34,-429.23 70.81,-419.24 67.34,-429.25 74.34,-429.23"/>
</a>
</g>
</g>
<!-- Node3 -->
<g id="Node000003" class="node">
<title>Node3</title>
<g id="a_Node000003"><a xlink:href="classnmr_1_1ChargeAssignmentResult.html" target="_top" xlink:title=" ">
<polygon fill="white" stroke="#666666" points="341,-734 176,-734 176,-715 341,-715 341,-734"/>
<text text-anchor="middle" x="258.5" y="-722" font-family="Helvetica,sans-Serif" font-size="10.00">nmr::ChargeAssignmentResult</text>
</a>
</g>
</g>
<!-- Node0&#45;&gt;Node3 -->
<g id="edge7_Node000000_Node000003" class="edge">
<title>Node0&#45;&gt;Node3</title>
<g id="a_edge7_Node000000_Node000003"><a xlink:title=" ">
<path fill="none" stroke="#63b8ff" d="M71.71,-429.15C74.77,-482.52 90.89,-631.22 176,-706.5 179.8,-709.86 184.08,-712.64 188.65,-714.93"/>
<polygon fill="#63b8ff" stroke="#63b8ff" points="75.2,-428.83 71.23,-419.01 68.21,-429.16 75.2,-428.83"/>
</a>
</g>
</g>
<!-- Node4 -->
<g id="Node000004" class="node">
<title>Node4</title>
<g id="a_Node000004"><a xlink:href="classnmr_1_1CoulombResult.html" target="_top" xlink:title=" ">
<polygon fill="white" stroke="#666666" points="316.5,-697 200.5,-697 200.5,-678 316.5,-678 316.5,-697"/>
<text text-anchor="middle" x="258.5" y="-685" font-family="Helvetica,sans-Serif" font-size="10.00">nmr::CoulombResult</text>
</a>
</g>
</g>
<!-- Node0&#45;&gt;Node4 -->
<g id="edge8_Node000000_Node000004" class="edge">
<title>Node0&#45;&gt;Node4</title>
<g id="a_edge8_Node000000_Node000004"><a xlink:title=" ">
<path fill="none" stroke="#63b8ff" d="M72.84,-429.29C78.49,-478.17 100.13,-605.32 176,-669.5 182.97,-675.4 191.44,-679.48 200.26,-682.29"/>
<polygon fill="#63b8ff" stroke="#63b8ff" points="76.3,-428.69 71.77,-419.11 69.34,-429.42 76.3,-428.69"/>
</a>
</g>
</g>
<!-- Node5 -->
<g id="Node000005" class="node">
<title>Node5</title>
<g id="a_Node000005"><a xlink:href="classnmr_1_1DemoResult.html" target="_top" xlink:title=" ">
<polygon fill="white" stroke="#666666" points="309.5,-660 207.5,-660 207.5,-641 309.5,-641 309.5,-660"/>
<text text-anchor="middle" x="258.5" y="-648" font-family="Helvetica,sans-Serif" font-size="10.00">nmr::DemoResult</text>
</a>
</g>
</g>
<!-- Node0&#45;&gt;Node5 -->
<g id="edge9_Node000000_Node000005" class="edge">
<title>Node0&#45;&gt;Node5</title>
<g id="a_edge9_Node000000_Node000005"><a xlink:title=" ">
<path fill="none" stroke="#63b8ff" d="M74.32,-429.42C82.76,-473.42 109.26,-579.18 176,-632.5 184.94,-639.64 196.13,-644.09 207.32,-646.83"/>
<polygon fill="#63b8ff" stroke="#63b8ff" points="77.74,-428.63 72.52,-419.41 70.85,-429.88 77.74,-428.63"/>
</a>
</g>
</g>
<!-- Node6 -->
<g id="Node000006" class="node">
<title>Node6</title>
<g id="a_Node000006"><a xlink:href="classnmr_1_1DispersionResult.html" target="_top" xlink:title=" ">
<polygon fill="white" stroke="#666666" points="321,-623 196,-623 196,-604 321,-604 321,-623"/>
<text text-anchor="middle" x="258.5" y="-611" font-family="Helvetica,sans-Serif" font-size="10.00">nmr::DispersionResult</text>
</a>
</g>
</g>
<!-- Node0&#45;&gt;Node6 -->
<g id="edge10_Node000000_Node000006" class="edge">
<title>Node0&#45;&gt;Node6</title>
<g id="a_edge10_Node000000_Node000006"><a xlink:title=" ">
<path fill="none" stroke="#63b8ff" d="M76.18,-428.96C87.45,-467.28 117.94,-552.53 176,-595.5 181.94,-599.9 188.75,-603.26 195.84,-605.82"/>
<polygon fill="#63b8ff" stroke="#63b8ff" points="79.48,-427.74 73.4,-419.06 72.74,-429.64 79.48,-427.74"/>
</a>
</g>
</g>
<!-- Node7 -->
<g id="Node000007" class="node">
<title>Node7</title>
<g id="a_Node000007"><a xlink:href="classnmr_1_1DsspResult.html" target="_top" xlink:title=" ">
<polygon fill="white" stroke="#666666" points="307,-586 210,-586 210,-567 307,-567 307,-586"/>
<text text-anchor="middle" x="258.5" y="-574" font-family="Helvetica,sans-Serif" font-size="10.00">nmr::DsspResult</text>
</a>
</g>
</g>
<!-- Node0&#45;&gt;Node7 -->
<g id="edge11_Node000000_Node000007" class="edge">
<title>Node0&#45;&gt;Node7</title>
<g id="a_edge11_Node000000_Node000007"><a xlink:title=" ">
<path fill="none" stroke="#63b8ff" d="M78.86,-428.59C93.14,-460.79 126.53,-525.58 176,-558.5 186.01,-565.16 198.1,-569.4 209.86,-572.08"/>
<polygon fill="#63b8ff" stroke="#63b8ff" points="81.91,-426.83 74.75,-419.02 75.48,-429.59 81.91,-426.83"/>
</a>
</g>
</g>
<!-- Node8 -->
<g id="Node000008" class="node">
<title>Node8</title>
<g id="a_Node000008"><a xlink:href="classnmr_1_1EnrichmentResult.html" target="_top" xlink:title=" ">
<polygon fill="white" stroke="#666666" points="322.5,-549 194.5,-549 194.5,-530 322.5,-530 322.5,-549"/>
<text text-anchor="middle" x="258.5" y="-537" font-family="Helvetica,sans-Serif" font-size="10.00">nmr::EnrichmentResult</text>
</a>
</g>
</g>
<!-- Node0&#45;&gt;Node8 -->
<g id="edge12_Node000000_Node000008" class="edge">
<title>Node0&#45;&gt;Node8</title>
<g id="a_edge12_Node000000_Node000008"><a xlink:title=" ">
<path fill="none" stroke="#63b8ff" d="M82.75,-427.72C100.02,-452.93 134.72,-498 176,-521.5 182.04,-524.94 188.69,-527.72 195.49,-529.98"/>
<polygon fill="#63b8ff" stroke="#63b8ff" points="85.47,-425.49 77.01,-419.12 79.65,-429.38 85.47,-425.49"/>
</a>
</g>
</g>
<!-- Node9 -->
<g id="Node000009" class="node">
<title>Node9</title>
<g id="a_Node000009"><a xlink:href="classnmr_1_1GeometryResult.html" target="_top" xlink:title=" ">
<polygon fill="white" stroke="#666666" points="319.5,-512 197.5,-512 197.5,-493 319.5,-493 319.5,-512"/>
<text text-anchor="middle" x="258.5" y="-500" font-family="Helvetica,sans-Serif" font-size="10.00">nmr::GeometryResult</text>
</a>
</g>
</g>
<!-- Node0&#45;&gt;Node9 -->
<g id="edge13_Node000000_Node000009" class="edge">
<title>Node0&#45;&gt;Node9</title>
<g id="a_edge13_Node000000_Node000009"><a xlink:title=" ">
<path fill="none" stroke="#63b8ff" d="M89.07,-425.93C108.94,-443.1 142.51,-469.59 176,-484.5 183.68,-487.92 192.06,-490.71 200.43,-492.99"/>
<polygon fill="#63b8ff" stroke="#63b8ff" points="91.25,-423.18 81.43,-419.2 86.62,-428.43 91.25,-423.18"/>
</a>
</g>
</g>
<!-- Node10 -->
<g id="Node000010" class="node">
<title>Node10</title>
<g id="a_Node000010"><a xlink:href="classnmr_1_1HBondResult.html" target="_top" xlink:title=" ">
<polygon fill="white" stroke="#666666" points="311,-475 206,-475 206,-456 311,-456 311,-475"/>
<text text-anchor="middle" x="258.5" y="-463" font-family="Helvetica,sans-Serif" font-size="10.00">nmr::HBondResult</text>
</a>
</g>
</g>
<!-- Node0&#45;&gt;Node10 -->
<g id="edge14_Node000000_Node000010" class="edge">
<title>Node0&#45;&gt;Node10</title>
<g id="a_edge14_Node000000_Node000010"><a xlink:title=" ">
<path fill="none" stroke="#63b8ff" d="M104.39,-422.84C124.84,-430.7 151.68,-440.45 176,-447.5 186.72,-450.61 198.36,-453.48 209.4,-455.96"/>
<polygon fill="#63b8ff" stroke="#63b8ff" points="105.48,-419.51 94.9,-419.15 102.95,-426.04 105.48,-419.51"/>
</a>
</g>
</g>
<!-- Node11 -->
<g id="Node000011" class="node">
<title>Node11</title>
<g id="a_Node000011"><a xlink:href="classnmr_1_1HaighMallionResult.html" target="_top" xlink:title=" ">
<polygon fill="white" stroke="#666666" points="327,-438 190,-438 190,-419 327,-419 327,-438"/>
<text text-anchor="middle" x="258.5" y="-426" font-family="Helvetica,sans-Serif" font-size="10.00">nmr::HaighMallionResult</text>
</a>
</g>
</g>
<!-- Node0&#45;&gt;Node11 -->
<g id="edge15_Node000000_Node000011" class="edge">
<title>Node0&#45;&gt;Node11</title>
<g id="a_edge15_Node000000_Node000011"><a xlink:title=" ">
<path fill="none" stroke="#63b8ff" d="M150.21,-417.57C163.45,-418.92 177.07,-420.31 189.98,-421.62"/>
<polygon fill="#63b8ff" stroke="#63b8ff" points="150.48,-414.08 140.18,-416.55 149.77,-421.04 150.48,-414.08"/>
</a>
</g>
</g>
<!-- Node12 -->
<g id="Node000012" class="node">
<title>Node12</title>
<g id="a_Node000012"><a xlink:href="classnmr_1_1McConnellResult.html" target="_top" xlink:title=" ">
<polygon fill="white" stroke="#666666" points="320.5,-401 196.5,-401 196.5,-382 320.5,-382 320.5,-401"/>
<text text-anchor="middle" x="258.5" y="-389" font-family="Helvetica,sans-Serif" font-size="10.00">nmr::McConnellResult</text>
</a>
</g>
</g>
<!-- Node0&#45;&gt;Node12 -->
<g id="edge16_Node000000_Node000012" class="edge">
<title>Node0&#45;&gt;Node12</title>
<g id="a_edge16_Node000000_Node000012"><a xlink:title=" ">
<path fill="none" stroke="#63b8ff" d="M150.24,-401.85C165.69,-400.36 181.67,-398.82 196.42,-397.4"/>
<polygon fill="#63b8ff" stroke="#63b8ff" points="149.8,-398.38 140.18,-402.82 150.47,-405.35 149.8,-398.38"/>
</a>
</g>
</g>
<!-- Node13 -->
<g id="Node000013" class="node">
<title>Node13</title>
<g id="a_Node000013"><a xlink:href="classnmr_1_1MolecularGraphResult.html" target="_top" xlink:title=" ">
<polygon fill="white" stroke="#666666" points="333.5,-364 183.5,-364 183.5,-345 333.5,-345 333.5,-364"/>
<text text-anchor="middle" x="258.5" y="-352" font-family="Helvetica,sans-Serif" font-size="10.00">nmr::MolecularGraphResult</text>
</a>
</g>
</g>
<!-- Node0&#45;&gt;Node13 -->
<g id="edge17_Node000000_Node000013" class="edge">
<title>Node0&#45;&gt;Node13</title>
<g id="a_edge17_Node000000_Node000013"><a xlink:title=" ">
<path fill="none" stroke="#63b8ff" d="M106.11,-396.47C126.37,-389.19 152.44,-380.27 176,-373.5 187.87,-370.09 200.84,-366.85 212.88,-364.04"/>
<polygon fill="#63b8ff" stroke="#63b8ff" points="104.87,-393.19 96.66,-399.89 107.25,-399.77 104.87,-393.19"/>
</a>
</g>
</g>
<!-- Node14 -->
<g id="Node000014" class="node">
<title>Node14</title>
<g id="a_Node000014"><a xlink:href="classnmr_1_1MopacCoulombResult.html" target="_top" xlink:title=" ">
<polygon fill="white" stroke="#666666" points="333,-327 184,-327 184,-308 333,-308 333,-327"/>
<text text-anchor="middle" x="258.5" y="-315" font-family="Helvetica,sans-Serif" font-size="10.00">nmr::MopacCoulombResult</text>
</a>
</g>
</g>
<!-- Node0&#45;&gt;Node14 -->
<g id="edge18_Node000000_Node000014" class="edge">
<title>Node0&#45;&gt;Node14</title>
<g id="a_edge18_Node000000_Node000014"><a xlink:title=" ">
<path fill="none" stroke="#63b8ff" d="M89.5,-393.34C109.51,-376.7 142.98,-351.18 176,-336.5 184.63,-332.66 194.13,-329.55 203.51,-327.04"/>
<polygon fill="#63b8ff" stroke="#63b8ff" points="87.16,-390.74 81.79,-399.87 91.69,-396.08 87.16,-390.74"/>
</a>
</g>
</g>
<!-- Node15 -->
<g id="Node000015" class="node">
<title>Node15</title>
<g id="a_Node000015"><a xlink:href="classnmr_1_1MopacMcConnellResult.html" target="_top" xlink:title=" ">
<polygon fill="white" stroke="#666666" points="336.5,-290 180.5,-290 180.5,-271 336.5,-271 336.5,-290"/>
<text text-anchor="middle" x="258.5" y="-278" font-family="Helvetica,sans-Serif" font-size="10.00">nmr::MopacMcConnellResult</text>
</a>
</g>
</g>
<!-- Node0&#45;&gt;Node15 -->
<g id="edge19_Node000000_Node000015" class="edge">
<title>Node0&#45;&gt;Node15</title>
<g id="a_edge19_Node000000_Node000015"><a xlink:title=" ">
<path fill="none" stroke="#63b8ff" d="M83.13,-391.3C100.63,-366.56 135.34,-322.72 176,-299.5 182.81,-295.61 190.38,-292.52 198.07,-290.05"/>
<polygon fill="#63b8ff" stroke="#63b8ff" points="80.09,-389.55 77.29,-399.77 85.85,-393.52 80.09,-389.55"/>
</a>
</g>
</g>
<!-- Node16 -->
<g id="Node000016" class="node">
<title>Node16</title>
<g id="a_Node000016"><a xlink:href="classnmr_1_1MopacResult.html" target="_top" xlink:title=" ">
<polygon fill="white" stroke="#666666" points="311,-253 206,-253 206,-234 311,-234 311,-253"/>
<text text-anchor="middle" x="258.5" y="-241" font-family="Helvetica,sans-Serif" font-size="10.00">nmr::MopacResult</text>
</a>
</g>
</g>
<!-- Node0&#45;&gt;Node16 -->
<g id="edge20_Node000000_Node000016" class="edge">
<title>Node0&#45;&gt;Node16</title>
<g id="a_edge20_Node000000_Node000016"><a xlink:title=" ">
<path fill="none" stroke="#63b8ff" d="M79.18,-390.26C93.74,-358.44 127.29,-295.1 176,-262.5 184.81,-256.6 195.23,-252.52 205.61,-249.7"/>
<polygon fill="#63b8ff" stroke="#63b8ff" points="75.82,-389.2 74.97,-399.76 82.22,-392.04 75.82,-389.2"/>
</a>
</g>
</g>
<!-- Node17 -->
<g id="Node000017" class="node">
<title>Node17</title>
<g id="a_Node000017"><a xlink:href="classnmr_1_1MutationDeltaResult.html" target="_top" xlink:title=" ">
<polygon fill="white" stroke="#666666" points="330,-216 187,-216 187,-197 330,-197 330,-216"/>
<text text-anchor="middle" x="258.5" y="-204" font-family="Helvetica,sans-Serif" font-size="10.00">nmr::MutationDeltaResult</text>
</a>
</g>
</g>
<!-- Node0&#45;&gt;Node17 -->
<g id="edge21_Node000000_Node000017" class="edge">
<title>Node0&#45;&gt;Node17</title>
<g id="a_edge21_Node000000_Node000017"><a xlink:title=" ">
<path fill="none" stroke="#63b8ff" d="M76.45,-389.77C88.04,-351.71 118.84,-268.12 176,-225.5 181.13,-221.68 186.9,-218.61 192.94,-216.15"/>
<polygon fill="#63b8ff" stroke="#63b8ff" points="73.02,-389.05 73.58,-399.63 79.74,-391.01 73.02,-389.05"/>
</a>
</g>
</g>
<!-- Node18 -->
<g id="Node000018" class="node">
<title>Node18</title>
<g id="a_Node000018"><a xlink:href="classnmr_1_1OrcaShieldingResult.html" target="_top" xlink:title=" ">
<polygon fill="white" stroke="#666666" points="328.5,-179 188.5,-179 188.5,-160 328.5,-160 328.5,-179"/>
<text text-anchor="middle" x="258.5" y="-167" font-family="Helvetica,sans-Serif" font-size="10.00">nmr::OrcaShieldingResult</text>
</a>
</g>
</g>
<!-- Node0&#45;&gt;Node18 -->
<g id="edge22_Node000000_Node000018" class="edge">
<title>Node0&#45;&gt;Node18</title>
<g id="a_edge22_Node000000_Node000018"><a xlink:title=" ">
<path fill="none" stroke="#63b8ff" d="M74.43,-389.81C83.07,-346.31 109.97,-241.7 176,-188.5 180.75,-184.67 186.14,-181.59 191.82,-179.11"/>
<polygon fill="#63b8ff" stroke="#63b8ff" points="70.97,-389.23 72.57,-399.7 77.85,-390.52 70.97,-389.23"/>
</a>
</g>
</g>
<!-- Node19 -->
<g id="Node000019" class="node">
<title>Node19</title>
<g id="a_Node000019"><a xlink:href="classnmr_1_1PiQuadrupoleResult.html" target="_top" xlink:title=" ">
<polygon fill="white" stroke="#666666" points="327.5,-142 189.5,-142 189.5,-123 327.5,-123 327.5,-142"/>
<text text-anchor="middle" x="258.5" y="-130" font-family="Helvetica,sans-Serif" font-size="10.00">nmr::PiQuadrupoleResult</text>
</a>
</g>
</g>
<!-- Node0&#45;&gt;Node19 -->
<g id="edge23_Node000000_Node000019" class="edge">
<title>Node0&#45;&gt;Node19</title>
<g id="a_edge23_Node000000_Node000019"><a xlink:title=" ">
<path fill="none" stroke="#63b8ff" d="M72.94,-389.91C78.81,-341.52 100.92,-215.6 176,-151.5 180.53,-147.63 185.7,-144.52 191.19,-142.01"/>
<polygon fill="#63b8ff" stroke="#63b8ff" points="69.44,-389.66 71.82,-399.99 76.4,-390.43 69.44,-389.66"/>
</a>
</g>
</g>
<!-- Node20 -->
<g id="Node000020" class="node">
<title>Node20</title>
<g id="a_Node000020"><a xlink:href="classnmr_1_1ProtonationDetectionResult.html" target="_top" xlink:title=" ">
<polygon fill="white" stroke="#666666" points="331.5,-104.5 185.5,-104.5 185.5,-74.5 331.5,-74.5 331.5,-104.5"/>
<text text-anchor="start" x="193.5" y="-92.5" font-family="Helvetica,sans-Serif" font-size="10.00">nmr::ProtonationDetection</text>
<text text-anchor="middle" x="258.5" y="-81.5" font-family="Helvetica,sans-Serif" font-size="10.00">Result</text>
</a>
</g>
</g>
<!-- Node0&#45;&gt;Node20 -->
<g id="edge24_Node000000_Node000020" class="edge">
<title>Node0&#45;&gt;Node20</title>
<g id="a_edge24_Node000000_Node000020"><a xlink:title=" ">
<path fill="none" stroke="#63b8ff" d="M72.11,-389.98C76.17,-337.56 94.57,-192.4 176,-114.5 180.06,-110.61 184.72,-107.33 189.7,-104.55"/>
<polygon fill="#63b8ff" stroke="#63b8ff" points="68.62,-389.75 71.43,-399.96 75.61,-390.22 68.62,-389.75"/>
</a>
</g>
</g>
<!-- Node21 -->
<g id="Node000021" class="node">
<title>Node21</title>
<g id="a_Node000021"><a xlink:href="classnmr_1_1RingSusceptibilityResult.html" target="_top" xlink:title=" ">
<polygon fill="white" stroke="#666666" points="339,-56 178,-56 178,-37 339,-37 339,-56"/>
<text text-anchor="middle" x="258.5" y="-44" font-family="Helvetica,sans-Serif" font-size="10.00">nmr::RingSusceptibilityResult</text>
</a>
</g>
</g>
<!-- Node0&#45;&gt;Node21 -->
<g id="edge25_Node000000_Node000021" class="edge">
<title>Node0&#45;&gt;Node21</title>
<g id="a_edge25_Node000000_Node000021"><a xlink:title=" ">
<path fill="none" stroke="#63b8ff" d="M70.67,-389.64C70.84,-330.72 79.79,-155.45 176,-65.5 180.03,-61.73 184.66,-58.66 189.63,-56.17"/>
<polygon fill="#63b8ff" stroke="#63b8ff" points="67.17,-389.83 70.73,-399.81 74.17,-389.79 67.17,-389.83"/>
</a>
</g>
</g>
<!-- Node22 -->
<g id="Node000022" class="node">
<title>Node22</title>
<g id="a_Node000022"><a xlink:href="classnmr_1_1SpatialIndexResult.html" target="_top" xlink:title=" ">
<polygon fill="white" stroke="#666666" points="325.5,-19 191.5,-19 191.5,0 325.5,0 325.5,-19"/>
<text text-anchor="middle" x="258.5" y="-7" font-family="Helvetica,sans-Serif" font-size="10.00">nmr::SpatialIndexResult</text>
</a>
</g>
</g>
<!-- Node0&#45;&gt;Node22 -->
<g id="edge26_Node000000_Node000022" class="edge">
<title>Node0&#45;&gt;Node22</title>
<g id="a_edge26_Node000000_Node000022"><a xlink:title=" ">
<path fill="none" stroke="#63b8ff" d="M73.77,-389.65C84.06,-318.84 122.22,-80.17 176,-28.5 180.5,-24.17 185.8,-20.76 191.48,-18.08"/>
<polygon fill="#63b8ff" stroke="#63b8ff" points="70.27,-389.46 72.32,-399.85 77.2,-390.45 70.27,-389.46"/>
</a>
</g>
</g>
</g>
</svg>
