<?xml version="1.0" encoding="UTF-8" standalone="no"?>
<!DOCTYPE svg PUBLIC "-//W3C//DTD SVG 1.1//EN"
 "http://www.w3.org/Graphics/SVG/1.1/DTD/svg11.dtd">
<!-- Generated by graphviz version 2.43.0 (0)
 -->
<!-- Title: src/KamlProtonator.h Pages: 1 -->
<svg width="333pt" height="302pt"
 viewBox="0.00 0.00 333.00 302.00" xmlns="http://www.w3.org/2000/svg" xmlns:xlink="http://www.w3.org/1999/xlink">
<g id="graph0" class="graph" transform="scale(1 1) rotate(0) translate(4 298)">
<title>src/KamlProtonator.h</title>
<!-- Node1 -->
<g id="Node000001" class="node">
<title>Node1</title>
<g id="a_Node000001"><a xlink:title=" ">
<polygon fill="#999999" stroke="#666666" points="288,-294 169,-294 169,-275 288,-275 288,-294"/>
<text text-anchor="middle" x="228.5" y="-282" font-family="Helvetica,sans-Serif" font-size="10.00">src/KamlProtonator.h</text>
</a>
</g>
</g>
<!-- Node2 -->
<g id="Node000002" class="node">
<title>Node2</title>
<g id="a_Node000002"><a xlink:href="Protonator_8h.html" target="_top" xlink:title=" ">
<polygon fill="white" stroke="#666666" points="266.5,-184 190.5,-184 190.5,-165 266.5,-165 266.5,-184"/>
<text text-anchor="middle" x="228.5" y="-172" font-family="Helvetica,sans-Serif" font-size="10.00">Protonator.h</text>
</a>
</g>
</g>
<!-- Node1&#45;&gt;Node2 -->
<g id="edge1_Node000001_Node000002" class="edge">
<title>Node1&#45;&gt;Node2</title>
<g id="a_edge1_Node000001_Node000002"><a xlink:title=" ">
<path fill="none" stroke="#63b8ff" d="M222.03,-274.63C213.98,-262.51 201.83,-240 206.5,-220 208.7,-210.57 213.21,-200.85 217.57,-192.91"/>
<polygon fill="#63b8ff" stroke="#63b8ff" points="220.62,-194.64 222.66,-184.24 214.58,-191.09 220.62,-194.64"/>
</a>
</g>
</g>
<!-- Node11 -->
<g id="Node000011" class="node">
<title>Node11</title>
<g id="a_Node000011"><a xlink:href="PropkaProtonator_8h.html" target="_top" xlink:title=" ">
<polygon fill="white" stroke="#666666" points="325,-239 216,-239 216,-220 325,-220 325,-239"/>
<text text-anchor="middle" x="270.5" y="-227" font-family="Helvetica,sans-Serif" font-size="10.00">PropkaProtonator.h</text>
</a>
</g>
</g>
<!-- Node1&#45;&gt;Node11 -->
<g id="edge13_Node000001_Node000011" class="edge">
<title>Node1&#45;&gt;Node11</title>
<g id="a_edge13_Node000001_Node000011"><a xlink:title=" ">
<path fill="none" stroke="#63b8ff" d="M235.44,-274.75C241.37,-267.26 250.07,-256.28 257.32,-247.13"/>
<polygon fill="#63b8ff" stroke="#63b8ff" points="260.23,-249.1 263.69,-239.09 254.74,-244.75 260.23,-249.1"/>
</a>
</g>
</g>
<!-- Node3 -->
<g id="Node000003" class="node">
<title>Node3</title>
<g id="a_Node000003"><a xlink:href="ProtonationState_8h.html" target="_top" xlink:title=" ">
<polygon fill="white" stroke="#666666" points="238,-129 131,-129 131,-110 238,-110 238,-129"/>
<text text-anchor="middle" x="184.5" y="-117" font-family="Helvetica,sans-Serif" font-size="10.00">ProtonationState.h</text>
</a>
</g>
</g>
<!-- Node2&#45;&gt;Node3 -->
<g id="edge2_Node000002_Node000003" class="edge">
<title>Node2&#45;&gt;Node3</title>
<g id="a_edge2_Node000002_Node000003"><a xlink:title=" ">
<path fill="none" stroke="#63b8ff" d="M221.23,-164.75C214.96,-157.18 205.71,-146.05 198.07,-136.84"/>
<polygon fill="#63b8ff" stroke="#63b8ff" points="200.71,-134.55 191.63,-129.09 195.33,-139.02 200.71,-134.55"/>
</a>
</g>
</g>
<!-- Node8 -->
<g id="Node000008" class="node">
<title>Node8</title>
<g id="a_Node000008"><a xlink:title=" ">
<polygon fill="#e0e0e0" stroke="#999999" points="288.5,-19 244.5,-19 244.5,0 288.5,0 288.5,-19"/>
<text text-anchor="middle" x="266.5" y="-7" font-family="Helvetica,sans-Serif" font-size="10.00">string</text>
</a>
</g>
</g>
<!-- Node2&#45;&gt;Node8 -->
<g id="edge12_Node000002_Node000008" class="edge">
<title>Node2&#45;&gt;Node8</title>
<g id="a_edge12_Node000002_Node000008"><a xlink:title=" ">
<path fill="none" stroke="#63b8ff" d="M233.15,-164.77C241.85,-147.85 260.31,-109.15 266.5,-74 269.11,-59.2 268.94,-42.17 268.21,-29.47"/>
<polygon fill="#63b8ff" stroke="#63b8ff" points="271.68,-28.92 267.45,-19.21 264.7,-29.44 271.68,-28.92"/>
</a>
</g>
</g>
<!-- Node4 -->
<g id="Node000004" class="node">
<title>Node4</title>
<g id="a_Node000004"><a xlink:href="Types_8h.html" target="_top" xlink:title=" ">
<polygon fill="white" stroke="#666666" points="111,-74 58,-74 58,-55 111,-55 111,-74"/>
<text text-anchor="middle" x="84.5" y="-62" font-family="Helvetica,sans-Serif" font-size="10.00">Types.h</text>
</a>
</g>
</g>
<!-- Node3&#45;&gt;Node4 -->
<g id="edge3_Node000003_Node000004" class="edge">
<title>Node3&#45;&gt;Node4</title>
<g id="a_edge3_Node000003_Node000004"><a xlink:title=" ">
<path fill="none" stroke="#63b8ff" d="M168.43,-109.98C152.64,-101.61 128.28,-88.7 109.87,-78.95"/>
<polygon fill="#63b8ff" stroke="#63b8ff" points="111.33,-75.76 100.86,-74.17 108.06,-81.95 111.33,-75.76"/>
</a>
</g>
</g>
<!-- Node7 -->
<g id="Node000007" class="node">
<title>Node7</title>
<g id="a_Node000007"><a xlink:title=" ">
<polygon fill="#e0e0e0" stroke="#999999" points="47,-19 0,-19 0,0 47,0 47,-19"/>
<text text-anchor="middle" x="23.5" y="-7" font-family="Helvetica,sans-Serif" font-size="10.00">cmath</text>
</a>
</g>
</g>
<!-- Node3&#45;&gt;Node7 -->
<g id="edge10_Node000003_Node000007" class="edge">
<title>Node3&#45;&gt;Node7</title>
<g id="a_edge10_Node000003_Node000007"><a xlink:title=" ">
<path fill="none" stroke="#63b8ff" d="M130.86,-111.99C103.26,-106.14 70.82,-95.05 48.5,-74 35.98,-62.2 29.62,-43.36 26.46,-29.26"/>
<polygon fill="#63b8ff" stroke="#63b8ff" points="29.86,-28.37 24.56,-19.19 22.98,-29.67 29.86,-28.37"/>
</a>
</g>
</g>
<!-- Node3&#45;&gt;Node8 -->
<g id="edge8_Node000003_Node000008" class="edge">
<title>Node3&#45;&gt;Node8</title>
<g id="a_edge8_Node000003_Node000008"><a xlink:title=" ">
<path fill="none" stroke="#63b8ff" d="M202.79,-109.86C216.94,-102.28 236.01,-89.98 247.5,-74 257.05,-60.71 261.85,-42.6 264.24,-29.12"/>
<polygon fill="#63b8ff" stroke="#63b8ff" points="267.72,-29.49 265.72,-19.09 260.79,-28.47 267.72,-29.49"/>
</a>
</g>
</g>
<!-- Node9 -->
<g id="Node000009" class="node">
<title>Node9</title>
<g id="a_Node000009"><a xlink:title=" ">
<polygon fill="#e0e0e0" stroke="#999999" points="176,-74 129,-74 129,-55 176,-55 176,-74"/>
<text text-anchor="middle" x="152.5" y="-62" font-family="Helvetica,sans-Serif" font-size="10.00">vector</text>
</a>
</g>
</g>
<!-- Node3&#45;&gt;Node9 -->
<g id="edge9_Node000003_Node000009" class="edge">
<title>Node3&#45;&gt;Node9</title>
<g id="a_edge9_Node000003_Node000009"><a xlink:title=" ">
<path fill="none" stroke="#63b8ff" d="M179.22,-109.75C174.79,-102.42 168.34,-91.73 162.88,-82.7"/>
<polygon fill="#63b8ff" stroke="#63b8ff" points="165.85,-80.84 157.69,-74.09 159.86,-84.46 165.85,-80.84"/>
</a>
</g>
</g>
<!-- Node10 -->
<g id="Node000010" class="node">
<title>Node10</title>
<g id="a_Node000010"><a xlink:title=" ">
<polygon fill="#e0e0e0" stroke="#999999" points="238.5,-74 194.5,-74 194.5,-55 238.5,-55 238.5,-74"/>
<text text-anchor="middle" x="216.5" y="-62" font-family="Helvetica,sans-Serif" font-size="10.00">limits</text>
</a>
</g>
</g>
<!-- Node3&#45;&gt;Node10 -->
<g id="edge11_Node000003_Node000010" class="edge">
<title>Node3&#45;&gt;Node10</title>
<g id="a_edge11_Node000003_Node000010"><a xlink:title=" ">
<path fill="none" stroke="#63b8ff" d="M189.78,-109.75C194.21,-102.42 200.66,-91.73 206.12,-82.7"/>
<polygon fill="#63b8ff" stroke="#63b8ff" points="209.14,-84.46 211.31,-74.09 203.15,-80.84 209.14,-84.46"/>
</a>
</g>
</g>
<!-- Node5 -->
<g id="Node000005" class="node">
<title>Node5</title>
<g id="a_Node000005"><a xlink:title=" ">
<polygon fill="#e0e0e0" stroke="#999999" points="203,-19 126,-19 126,0 203,0 203,-19"/>
<text text-anchor="middle" x="164.5" y="-7" font-family="Helvetica,sans-Serif" font-size="10.00">Eigen/Dense</text>
</a>
</g>
</g>
<!-- Node4&#45;&gt;Node5 -->
<g id="edge4_Node000004_Node000005" class="edge">
<title>Node4&#45;&gt;Node5</title>
<g id="a_edge4_Node000004_Node000005"><a xlink:title=" ">
<path fill="none" stroke="#63b8ff" d="M97.35,-54.98C109.64,-46.84 128.41,-34.41 142.98,-24.76"/>
<polygon fill="#63b8ff" stroke="#63b8ff" points="145.01,-27.61 151.41,-19.17 141.14,-21.78 145.01,-27.61"/>
</a>
</g>
</g>
<!-- Node6 -->
<g id="Node000006" class="node">
<title>Node6</title>
<g id="a_Node000006"><a xlink:title=" ">
<polygon fill="#e0e0e0" stroke="#999999" points="107.5,-19 65.5,-19 65.5,0 107.5,0 107.5,-19"/>
<text text-anchor="middle" x="86.5" y="-7" font-family="Helvetica,sans-Serif" font-size="10.00">array</text>
</a>
</g>
</g>
<!-- Node4&#45;&gt;Node6 -->
<g id="edge5_Node000004_Node000006" class="edge">
<title>Node4&#45;&gt;Node6</title>
<g id="a_edge5_Node000004_Node000006"><a xlink:title=" ">
<path fill="none" stroke="#63b8ff" d="M84.83,-54.75C85.09,-47.8 85.47,-37.85 85.8,-29.13"/>
<polygon fill="#63b8ff" stroke="#63b8ff" points="89.3,-29.21 86.18,-19.09 82.3,-28.95 89.3,-29.21"/>
</a>
</g>
</g>
<!-- Node4&#45;&gt;Node7 -->
<g id="edge6_Node000004_Node000007" class="edge">
<title>Node4&#45;&gt;Node7</title>
<g id="a_edge6_Node000004_Node000007"><a xlink:title=" ">
<path fill="none" stroke="#63b8ff" d="M74.7,-54.98C65.68,-47.15 52.09,-35.34 41.18,-25.86"/>
<polygon fill="#63b8ff" stroke="#63b8ff" points="43.32,-23.09 33.48,-19.17 38.73,-28.37 43.32,-23.09"/>
</a>
</g>
</g>
<!-- Node4&#45;&gt;Node8 -->
<g id="edge7_Node000004_Node000008" class="edge">
<title>Node4&#45;&gt;Node8</title>
<g id="a_edge7_Node000004_Node000008"><a xlink:title=" ">
<path fill="none" stroke="#63b8ff" d="M111.35,-55.68C144.2,-46.11 199.74,-29.94 234.69,-19.76"/>
<polygon fill="#63b8ff" stroke="#63b8ff" points="235.78,-23.09 244.4,-16.94 233.82,-16.37 235.78,-23.09"/>
</a>
</g>
</g>
<!-- Node11&#45;&gt;Node2 -->
<g id="edge14_Node000011_Node000002" class="edge">
<title>Node11&#45;&gt;Node2</title>
<g id="a_edge14_Node000011_Node000002"><a xlink:title=" ">
<path fill="none" stroke="#63b8ff" d="M263.56,-219.75C257.63,-212.26 248.93,-201.28 241.68,-192.13"/>
<polygon fill="#63b8ff" stroke="#63b8ff" points="244.26,-189.75 235.31,-184.09 238.77,-194.1 244.26,-189.75"/>
</a>
</g>
</g>
</g>
</svg>
