<?xml version="1.0" encoding="UTF-8" standalone="no"?>
<!DOCTYPE svg PUBLIC "-//W3C//DTD SVG 1.1//EN"
 "http://www.w3.org/Graphics/SVG/1.1/DTD/svg11.dtd">
<!-- Generated by graphviz version 2.43.0 (0)
 -->
<!-- Title: src/MolecularGraphResult.h Pages: 1 -->
<svg width="1820pt" height="412pt"
 viewBox="0.00 0.00 1819.50 412.00" xmlns="http://www.w3.org/2000/svg" xmlns:xlink="http://www.w3.org/1999/xlink">
<g id="graph0" class="graph" transform="scale(1 1) rotate(0) translate(4 408)">
<title>src/MolecularGraphResult.h</title>
<!-- Node1 -->
<g id="Node000001" class="node">
<title>Node1</title>
<g id="a_Node000001"><a xlink:title=" ">
<polygon fill="#999999" stroke="#666666" points="196.5,-404 45.5,-404 45.5,-385 196.5,-385 196.5,-404"/>
<text text-anchor="middle" x="121" y="-392" font-family="Helvetica,sans-Serif" font-size="10.00">src/MolecularGraphResult.h</text>
</a>
</g>
</g>
<!-- Node2 -->
<g id="Node000002" class="node">
<title>Node2</title>
<g id="a_Node000002"><a xlink:href="ConformationResult_8h.html" target="_top" xlink:title=" ">
<polygon fill="white" stroke="#666666" points="227.5,-129 104.5,-129 104.5,-110 227.5,-110 227.5,-129"/>
<text text-anchor="middle" x="166" y="-117" font-family="Helvetica,sans-Serif" font-size="10.00">ConformationResult.h</text>
</a>
</g>
</g>
<!-- Node1&#45;&gt;Node2 -->
<g id="edge1_Node000001_Node000002" class="edge">
<title>Node1&#45;&gt;Node2</title>
<g id="a_edge1_Node000001_Node000002"><a xlink:title=" ">
<path fill="none" stroke="#63b8ff" d="M107.66,-384.88C84.2,-368.56 38,-330.67 38,-285.5 38,-285.5 38,-285.5 38,-228.5 38,-179.92 92.52,-148.75 130.39,-132.96"/>
<polygon fill="#63b8ff" stroke="#63b8ff" points="132.1,-136.04 140.1,-129.09 129.51,-129.54 132.1,-136.04"/>
</a>
</g>
</g>
<!-- Node5 -->
<g id="Node000005" class="node">
<title>Node5</title>
<g id="a_Node000005"><a xlink:title=" ">
<polygon fill="#e0e0e0" stroke="#999999" points="89.5,-74 24.5,-74 24.5,-55 89.5,-55 89.5,-74"/>
<text text-anchor="middle" x="57" y="-62" font-family="Helvetica,sans-Serif" font-size="10.00">typeindex</text>
</a>
</g>
</g>
<!-- Node1&#45;&gt;Node5 -->
<g id="edge78_Node000001_Node000005" class="edge">
<title>Node1&#45;&gt;Node5</title>
<g id="a_edge78_Node000001_Node000005"><a xlink:title=" ">
<path fill="none" stroke="#63b8ff" d="M97.67,-384.97C62.51,-370.44 0,-337.31 0,-285.5 0,-285.5 0,-285.5 0,-173.5 0,-137.51 25.06,-101.76 41.95,-81.76"/>
<polygon fill="#63b8ff" stroke="#63b8ff" points="44.62,-84.02 48.59,-74.2 39.36,-79.4 44.62,-84.02"/>
</a>
</g>
</g>
<!-- Node7 -->
<g id="Node000007" class="node">
<title>Node7</title>
<g id="a_Node000007"><a xlink:href="ProteinConformation_8h.html" target="_top" xlink:title=" ">
<polygon fill="white" stroke="#666666" points="605.5,-184 478.5,-184 478.5,-165 605.5,-165 605.5,-184"/>
<text text-anchor="middle" x="542" y="-172" font-family="Helvetica,sans-Serif" font-size="10.00">ProteinConformation.h</text>
</a>
</g>
</g>
<!-- Node1&#45;&gt;Node7 -->
<g id="edge6_Node000001_Node000007" class="edge">
<title>Node1&#45;&gt;Node7</title>
<g id="a_edge6_Node000001_Node000007"><a xlink:title=" ">
<path fill="none" stroke="#63b8ff" d="M134.13,-384.89C165.43,-364.53 247.2,-312.33 319,-275 386,-240.16 467.72,-205.63 511.25,-187.85"/>
<polygon fill="#63b8ff" stroke="#63b8ff" points="512.75,-191.02 520.7,-184.01 510.12,-184.53 512.75,-191.02"/>
</a>
</g>
</g>
<!-- Node19 -->
<g id="Node000019" class="node">
<title>Node19</title>
<g id="a_Node000019"><a xlink:href="SpatialIndexResult_8h.html" target="_top" xlink:title=" ">
<polygon fill="white" stroke="#666666" points="429.5,-349 312.5,-349 312.5,-330 429.5,-330 429.5,-349"/>
<text text-anchor="middle" x="371" y="-337" font-family="Helvetica,sans-Serif" font-size="10.00">SpatialIndexResult.h</text>
</a>
</g>
</g>
<!-- Node1&#45;&gt;Node19 -->
<g id="edge35_Node000001_Node000019" class="edge">
<title>Node1&#45;&gt;Node19</title>
<g id="a_edge35_Node000001_Node000019"><a xlink:title=" ">
<path fill="none" stroke="#63b8ff" d="M161.17,-384.98C204.5,-375.8 273.59,-361.15 320.56,-351.19"/>
<polygon fill="#63b8ff" stroke="#63b8ff" points="321.46,-354.58 330.52,-349.08 320.01,-347.73 321.46,-354.58"/>
</a>
</g>
</g>
<!-- Node3 -->
<g id="Node000003" class="node">
<title>Node3</title>
<g id="a_Node000003"><a xlink:title=" ">
<polygon fill="#e0e0e0" stroke="#999999" points="741,-19 697,-19 697,0 741,0 741,-19"/>
<text text-anchor="middle" x="719" y="-7" font-family="Helvetica,sans-Serif" font-size="10.00">string</text>
</a>
</g>
</g>
<!-- Node2&#45;&gt;Node3 -->
<g id="edge2_Node000002_Node000003" class="edge">
<title>Node2&#45;&gt;Node3</title>
<g id="a_edge2_Node000002_Node000003"><a xlink:title=" ">
<path fill="none" stroke="#63b8ff" d="M175.15,-109.63C190.57,-95.29 223.37,-67.38 257,-55 336.29,-25.82 595.67,-14.59 686.91,-11.48"/>
<polygon fill="#63b8ff" stroke="#63b8ff" points="687.05,-14.97 696.93,-11.15 686.82,-7.98 687.05,-14.97"/>
</a>
</g>
</g>
<!-- Node4 -->
<g id="Node000004" class="node">
<title>Node4</title>
<g id="a_Node000004"><a xlink:title=" ">
<polygon fill="#e0e0e0" stroke="#999999" points="1035.5,-74 988.5,-74 988.5,-55 1035.5,-55 1035.5,-74"/>
<text text-anchor="middle" x="1012" y="-62" font-family="Helvetica,sans-Serif" font-size="10.00">vector</text>
</a>
</g>
</g>
<!-- Node2&#45;&gt;Node4 -->
<g id="edge3_Node000002_Node000004" class="edge">
<title>Node2&#45;&gt;Node4</title>
<g id="a_edge3_Node000002_Node000004"><a xlink:title=" ">
<path fill="none" stroke="#63b8ff" d="M227.81,-110.76C230.58,-110.49 233.32,-110.23 236,-110 538.83,-83.66 615.81,-95.84 919,-74 938.55,-72.59 960.38,-70.62 977.97,-68.93"/>
<polygon fill="#63b8ff" stroke="#63b8ff" points="978.71,-72.37 988.32,-67.92 978.03,-65.4 978.71,-72.37"/>
</a>
</g>
</g>
<!-- Node2&#45;&gt;Node5 -->
<g id="edge4_Node000002_Node000005" class="edge">
<title>Node2&#45;&gt;Node5</title>
<g id="a_edge4_Node000002_Node000005"><a xlink:title=" ">
<path fill="none" stroke="#63b8ff" d="M148.49,-109.98C131.03,-101.5 103.99,-88.35 83.83,-78.54"/>
<polygon fill="#63b8ff" stroke="#63b8ff" points="85.36,-75.4 74.83,-74.17 82.29,-81.69 85.36,-75.4"/>
</a>
</g>
</g>
<!-- Node6 -->
<g id="Node000006" class="node">
<title>Node6</title>
<g id="a_Node000006"><a xlink:title=" ">
<polygon fill="#e0e0e0" stroke="#999999" points="1543,-74 1485,-74 1485,-55 1543,-55 1543,-74"/>
<text text-anchor="middle" x="1514" y="-62" font-family="Helvetica,sans-Serif" font-size="10.00">memory</text>
</a>
</g>
</g>
<!-- Node2&#45;&gt;Node6 -->
<g id="edge5_Node000002_Node000006" class="edge">
<title>Node2&#45;&gt;Node6</title>
<g id="a_edge5_Node000002_Node000006"><a xlink:title=" ">
<path fill="none" stroke="#63b8ff" d="M227.81,-110.7C230.57,-110.45 233.31,-110.21 236,-110 361.92,-100.18 1273.74,-72.66 1474.83,-66.66"/>
<polygon fill="#63b8ff" stroke="#63b8ff" points="1475.04,-70.16 1484.93,-66.36 1474.83,-63.16 1475.04,-70.16"/>
</a>
</g>
</g>
<!-- Node7&#45;&gt;Node2 -->
<g id="edge16_Node000007_Node000002" class="edge">
<title>Node7&#45;&gt;Node2</title>
<g id="a_edge16_Node000007_Node000002"><a xlink:title=" ">
<path fill="none" stroke="#63b8ff" d="M481.59,-164.98C414.81,-155.57 307.37,-140.43 236.72,-130.47"/>
<polygon fill="#63b8ff" stroke="#63b8ff" points="236.96,-126.97 226.57,-129.04 235.99,-133.9 236.96,-126.97"/>
</a>
</g>
</g>
<!-- Node7&#45;&gt;Node3 -->
<g id="edge33_Node000007_Node000003" class="edge">
<title>Node7&#45;&gt;Node3</title>
<g id="a_edge33_Node000007_Node000003"><a xlink:title=" ">
<path fill="none" stroke="#63b8ff" d="M550.95,-164.72C571.27,-144.84 622.56,-95.03 667,-55 678.04,-45.06 690.69,-34.22 700.76,-25.72"/>
<polygon fill="#63b8ff" stroke="#63b8ff" points="703.1,-28.32 708.51,-19.21 698.6,-22.96 703.1,-28.32"/>
</a>
</g>
</g>
<!-- Node7&#45;&gt;Node4 -->
<g id="edge28_Node000007_Node000004" class="edge">
<title>Node7&#45;&gt;Node4</title>
<g id="a_edge28_Node000007_Node000004"><a xlink:title=" ">
<path fill="none" stroke="#63b8ff" d="M564.73,-164.94C601.07,-151.53 674.72,-125.5 739,-110 824.16,-89.46 926.59,-75.59 978.42,-69.32"/>
<polygon fill="#63b8ff" stroke="#63b8ff" points="978.88,-72.79 988.39,-68.14 978.05,-65.84 978.88,-72.79"/>
</a>
</g>
</g>
<!-- Node7&#45;&gt;Node5 -->
<g id="edge31_Node000007_Node000005" class="edge">
<title>Node7&#45;&gt;Node5</title>
<g id="a_edge31_Node000007_Node000005"><a xlink:title=" ">
<path fill="none" stroke="#63b8ff" d="M478.1,-174.06C370.08,-173.89 157.07,-168.38 95,-129 78.76,-118.7 68.52,-98.74 62.82,-83.93"/>
<polygon fill="#63b8ff" stroke="#63b8ff" points="66.05,-82.56 59.44,-74.28 59.44,-84.87 66.05,-82.56"/>
</a>
</g>
</g>
<!-- Node7&#45;&gt;Node6 -->
<g id="edge32_Node000007_Node000006" class="edge">
<title>Node7&#45;&gt;Node6</title>
<g id="a_edge32_Node000007_Node000006"><a xlink:title=" ">
<path fill="none" stroke="#63b8ff" d="M605.58,-174.2C717.99,-174.26 958.7,-169.13 1157,-129 1182.76,-123.79 1187.45,-116.17 1213,-110 1305.33,-87.7 1416.45,-74.78 1474.42,-69.05"/>
<polygon fill="#63b8ff" stroke="#63b8ff" points="1474.99,-72.52 1484.61,-68.07 1474.32,-65.55 1474.99,-72.52"/>
</a>
</g>
</g>
<!-- Node8 -->
<g id="Node000008" class="node">
<title>Node8</title>
<g id="a_Node000008"><a xlink:href="Types_8h.html" target="_top" xlink:title=" ">
<polygon fill="white" stroke="#666666" points="1183.5,-74 1130.5,-74 1130.5,-55 1183.5,-55 1183.5,-74"/>
<text text-anchor="middle" x="1157" y="-62" font-family="Helvetica,sans-Serif" font-size="10.00">Types.h</text>
</a>
</g>
</g>
<!-- Node7&#45;&gt;Node8 -->
<g id="edge7_Node000007_Node000008" class="edge">
<title>Node7&#45;&gt;Node8</title>
<g id="a_edge7_Node000007_Node000008"><a xlink:title=" ">
<path fill="none" stroke="#63b8ff" d="M605.59,-172.72C750.53,-170.38 1096.08,-161.43 1137,-129 1150.29,-118.46 1154.92,-99.14 1156.44,-84.56"/>
<polygon fill="#63b8ff" stroke="#63b8ff" points="1159.97,-84.35 1157.11,-74.15 1152.98,-83.91 1159.97,-84.35"/>
</a>
</g>
</g>
<!-- Node12 -->
<g id="Node000012" class="node">
<title>Node12</title>
<g id="a_Node000012"><a xlink:href="ConformationAtom_8h.html" target="_top" xlink:title=" ">
<polygon fill="white" stroke="#666666" points="866.5,-129 747.5,-129 747.5,-110 866.5,-110 866.5,-129"/>
<text text-anchor="middle" x="807" y="-117" font-family="Helvetica,sans-Serif" font-size="10.00">ConformationAtom.h</text>
</a>
</g>
</g>
<!-- Node7&#45;&gt;Node12 -->
<g id="edge12_Node000007_Node000012" class="edge">
<title>Node7&#45;&gt;Node12</title>
<g id="a_edge12_Node000007_Node000012"><a xlink:title=" ">
<path fill="none" stroke="#63b8ff" d="M584.58,-164.98C630.7,-155.76 704.36,-141.03 754.16,-131.07"/>
<polygon fill="#63b8ff" stroke="#63b8ff" points="754.97,-134.48 764.09,-129.08 753.6,-127.61 754.97,-134.48"/>
</a>
</g>
</g>
<!-- Node13 -->
<g id="Node000013" class="node">
<title>Node13</title>
<g id="a_Node000013"><a xlink:href="GeometryChoice_8h.html" target="_top" xlink:title=" ">
<polygon fill="white" stroke="#666666" points="352.5,-129 245.5,-129 245.5,-110 352.5,-110 352.5,-129"/>
<text text-anchor="middle" x="299" y="-117" font-family="Helvetica,sans-Serif" font-size="10.00">GeometryChoice.h</text>
</a>
</g>
</g>
<!-- Node7&#45;&gt;Node13 -->
<g id="edge17_Node000007_Node000013" class="edge">
<title>Node7&#45;&gt;Node13</title>
<g id="a_edge17_Node000007_Node000013"><a xlink:title=" ">
<path fill="none" stroke="#63b8ff" d="M502.96,-164.98C460.92,-155.82 393.96,-141.21 348.32,-131.26"/>
<polygon fill="#63b8ff" stroke="#63b8ff" points="348.86,-127.79 338.35,-129.08 347.37,-134.63 348.86,-127.79"/>
</a>
</g>
</g>
<!-- Node15 -->
<g id="Node000015" class="node">
<title>Node15</title>
<g id="a_Node000015"><a xlink:href="Ring_8h.html" target="_top" xlink:title=" ">
<polygon fill="white" stroke="#666666" points="1127.5,-129 1080.5,-129 1080.5,-110 1127.5,-110 1127.5,-129"/>
<text text-anchor="middle" x="1104" y="-117" font-family="Helvetica,sans-Serif" font-size="10.00">Ring.h</text>
</a>
</g>
</g>
<!-- Node7&#45;&gt;Node15 -->
<g id="edge22_Node000007_Node000015" class="edge">
<title>Node7&#45;&gt;Node15</title>
<g id="a_edge22_Node000007_Node000015"><a xlink:title=" ">
<path fill="none" stroke="#63b8ff" d="M605.69,-171.77C703.77,-168.3 897.71,-158.3 1070.31,-129.01"/>
<polygon fill="#63b8ff" stroke="#63b8ff" points="1071.08,-132.43 1080.34,-127.28 1069.89,-125.53 1071.08,-132.43"/>
</a>
</g>
</g>
<!-- Node16 -->
<g id="Node000016" class="node">
<title>Node16</title>
<g id="a_Node000016"><a xlink:title=" ">
<polygon fill="#e0e0e0" stroke="#999999" points="910,-74 872,-74 872,-55 910,-55 910,-74"/>
<text text-anchor="middle" x="891" y="-62" font-family="Helvetica,sans-Serif" font-size="10.00">map</text>
</a>
</g>
</g>
<!-- Node7&#45;&gt;Node16 -->
<g id="edge29_Node000007_Node000016" class="edge">
<title>Node7&#45;&gt;Node16</title>
<g id="a_edge29_Node000007_Node000016"><a xlink:title=" ">
<path fill="none" stroke="#63b8ff" d="M478.44,-165.66C429.07,-157.09 373.3,-140.33 401,-110 432.16,-75.88 760.67,-67.65 861.64,-65.92"/>
<polygon fill="#63b8ff" stroke="#63b8ff" points="861.81,-69.41 871.75,-65.75 861.69,-62.42 861.81,-69.41"/>
</a>
</g>
</g>
<!-- Node17 -->
<g id="Node000017" class="node">
<title>Node17</title>
<g id="a_Node000017"><a xlink:title=" ">
<polygon fill="#e0e0e0" stroke="#999999" points="502.5,-129 409.5,-129 409.5,-110 502.5,-110 502.5,-129"/>
<text text-anchor="middle" x="456" y="-117" font-family="Helvetica,sans-Serif" font-size="10.00">unordered_map</text>
</a>
</g>
</g>
<!-- Node7&#45;&gt;Node17 -->
<g id="edge30_Node000007_Node000017" class="edge">
<title>Node7&#45;&gt;Node17</title>
<g id="a_edge30_Node000007_Node000017"><a xlink:title=" ">
<path fill="none" stroke="#63b8ff" d="M528.18,-164.98C514.85,-156.77 494.42,-144.18 478.69,-134.49"/>
<polygon fill="#63b8ff" stroke="#63b8ff" points="480.42,-131.44 470.07,-129.17 476.75,-137.4 480.42,-131.44"/>
</a>
</g>
</g>
<!-- Node18 -->
<g id="Node000018" class="node">
<title>Node18</title>
<g id="a_Node000018"><a xlink:title=" ">
<polygon fill="#e0e0e0" stroke="#999999" points="577,-129 521,-129 521,-110 577,-110 577,-129"/>
<text text-anchor="middle" x="549" y="-117" font-family="Helvetica,sans-Serif" font-size="10.00">sstream</text>
</a>
</g>
</g>
<!-- Node7&#45;&gt;Node18 -->
<g id="edge34_Node000007_Node000018" class="edge">
<title>Node7&#45;&gt;Node18</title>
<g id="a_edge34_Node000007_Node000018"><a xlink:title=" ">
<path fill="none" stroke="#63b8ff" d="M543.16,-164.75C544.07,-157.8 545.39,-147.85 546.54,-139.13"/>
<polygon fill="#63b8ff" stroke="#63b8ff" points="550.03,-139.46 547.87,-129.09 543.09,-138.54 550.03,-139.46"/>
</a>
</g>
</g>
<!-- Node8&#45;&gt;Node3 -->
<g id="edge11_Node000008_Node000003" class="edge">
<title>Node8&#45;&gt;Node3</title>
<g id="a_edge11_Node000008_Node000003"><a xlink:title=" ">
<path fill="none" stroke="#63b8ff" d="M1130.26,-60.26C1053.75,-51.01 834.13,-24.43 751.21,-14.4"/>
<polygon fill="#63b8ff" stroke="#63b8ff" points="751.47,-10.9 741.12,-13.18 750.63,-17.85 751.47,-10.9"/>
</a>
</g>
</g>
<!-- Node9 -->
<g id="Node000009" class="node">
<title>Node9</title>
<g id="a_Node000009"><a xlink:title=" ">
<polygon fill="#e0e0e0" stroke="#999999" points="1167.5,-19 1090.5,-19 1090.5,0 1167.5,0 1167.5,-19"/>
<text text-anchor="middle" x="1129" y="-7" font-family="Helvetica,sans-Serif" font-size="10.00">Eigen/Dense</text>
</a>
</g>
</g>
<!-- Node8&#45;&gt;Node9 -->
<g id="edge8_Node000008_Node000009" class="edge">
<title>Node8&#45;&gt;Node9</title>
<g id="a_edge8_Node000008_Node000009"><a xlink:title=" ">
<path fill="none" stroke="#63b8ff" d="M1152.38,-54.75C1148.54,-47.49 1142.98,-36.95 1138.24,-27.98"/>
<polygon fill="#63b8ff" stroke="#63b8ff" points="1141.3,-26.3 1133.54,-19.09 1135.11,-29.57 1141.3,-26.3"/>
</a>
</g>
</g>
<!-- Node10 -->
<g id="Node000010" class="node">
<title>Node10</title>
<g id="a_Node000010"><a xlink:title=" ">
<polygon fill="#e0e0e0" stroke="#999999" points="994,-19 952,-19 952,0 994,0 994,-19"/>
<text text-anchor="middle" x="973" y="-7" font-family="Helvetica,sans-Serif" font-size="10.00">array</text>
</a>
</g>
</g>
<!-- Node8&#45;&gt;Node10 -->
<g id="edge9_Node000008_Node000010" class="edge">
<title>Node8&#45;&gt;Node10</title>
<g id="a_edge9_Node000008_Node000010"><a xlink:title=" ">
<path fill="none" stroke="#63b8ff" d="M1130.24,-55.79C1096.68,-46.13 1039.24,-29.58 1003.86,-19.39"/>
<polygon fill="#63b8ff" stroke="#63b8ff" points="1004.64,-15.97 994.07,-16.57 1002.71,-22.7 1004.64,-15.97"/>
</a>
</g>
</g>
<!-- Node11 -->
<g id="Node000011" class="node">
<title>Node11</title>
<g id="a_Node000011"><a xlink:title=" ">
<polygon fill="#e0e0e0" stroke="#999999" points="1465.5,-19 1418.5,-19 1418.5,0 1465.5,0 1465.5,-19"/>
<text text-anchor="middle" x="1442" y="-7" font-family="Helvetica,sans-Serif" font-size="10.00">cmath</text>
</a>
</g>
</g>
<!-- Node8&#45;&gt;Node11 -->
<g id="edge10_Node000008_Node000011" class="edge">
<title>Node8&#45;&gt;Node11</title>
<g id="a_edge10_Node000008_Node000011"><a xlink:title=" ">
<path fill="none" stroke="#63b8ff" d="M1183.56,-58.56C1235.59,-48.88 1350.88,-27.44 1408.24,-16.78"/>
<polygon fill="#63b8ff" stroke="#63b8ff" points="1409.05,-20.19 1418.24,-14.92 1407.77,-13.31 1409.05,-20.19"/>
</a>
</g>
</g>
<!-- Node12&#45;&gt;Node4 -->
<g id="edge14_Node000012_Node000004" class="edge">
<title>Node12&#45;&gt;Node4</title>
<g id="a_edge14_Node000012_Node000004"><a xlink:title=" ">
<path fill="none" stroke="#63b8ff" d="M839.94,-109.98C877.9,-100.17 939.98,-84.12 978.28,-74.22"/>
<polygon fill="#63b8ff" stroke="#63b8ff" points="979.6,-77.49 988.41,-71.6 977.85,-70.71 979.6,-77.49"/>
</a>
</g>
</g>
<!-- Node12&#45;&gt;Node8 -->
<g id="edge13_Node000012_Node000008" class="edge">
<title>Node12&#45;&gt;Node8</title>
<g id="a_edge13_Node000012_Node000008"><a xlink:title=" ">
<path fill="none" stroke="#63b8ff" d="M863.23,-109.98C935.57,-99.03 1059.17,-80.31 1120.4,-71.04"/>
<polygon fill="#63b8ff" stroke="#63b8ff" points="1121.02,-74.49 1130.38,-69.53 1119.97,-67.57 1121.02,-74.49"/>
</a>
</g>
</g>
<!-- Node12&#45;&gt;Node10 -->
<g id="edge15_Node000012_Node000010" class="edge">
<title>Node12&#45;&gt;Node10</title>
<g id="a_edge15_Node000012_Node000010"><a xlink:title=" ">
<path fill="none" stroke="#63b8ff" d="M812.56,-109.97C821.66,-96.6 840.93,-70.63 863,-55 887.16,-37.89 918.87,-25.96 942.03,-18.79"/>
<polygon fill="#63b8ff" stroke="#63b8ff" points="943.11,-22.13 951.7,-15.92 941.12,-15.42 943.11,-22.13"/>
</a>
</g>
</g>
<!-- Node13&#45;&gt;Node3 -->
<g id="edge19_Node000013_Node000003" class="edge">
<title>Node13&#45;&gt;Node3</title>
<g id="a_edge19_Node000013_Node000003"><a xlink:title=" ">
<path fill="none" stroke="#63b8ff" d="M332.31,-109.94C411.41,-89.59 609.72,-38.6 687.24,-18.67"/>
<polygon fill="#63b8ff" stroke="#63b8ff" points="688.12,-22.06 696.93,-16.17 686.37,-15.28 688.12,-22.06"/>
</a>
</g>
</g>
<!-- Node13&#45;&gt;Node4 -->
<g id="edge20_Node000013_Node000004" class="edge">
<title>Node13&#45;&gt;Node4</title>
<g id="a_edge20_Node000013_Node000004"><a xlink:title=" ">
<path fill="none" stroke="#63b8ff" d="M352.72,-113.88C368.29,-112.58 385.32,-111.2 401,-110 631.11,-92.42 688.97,-92.5 919,-74 938.54,-72.43 960.37,-70.45 977.96,-68.79"/>
<polygon fill="#63b8ff" stroke="#63b8ff" points="978.69,-72.24 988.31,-67.81 978.03,-65.27 978.69,-72.24"/>
</a>
</g>
</g>
<!-- Node13&#45;&gt;Node8 -->
<g id="edge18_Node000013_Node000008" class="edge">
<title>Node13&#45;&gt;Node8</title>
<g id="a_edge18_Node000013_Node000008"><a xlink:title=" ">
<path fill="none" stroke="#63b8ff" d="M352.71,-113.75C368.28,-112.44 385.31,-111.09 401,-110 686.98,-90.09 758.95,-92.85 1045,-74 1070.08,-72.35 1098.3,-70.2 1120.14,-68.48"/>
<polygon fill="#63b8ff" stroke="#63b8ff" points="1120.62,-71.96 1130.31,-67.68 1120.06,-64.98 1120.62,-71.96"/>
</a>
</g>
</g>
<!-- Node14 -->
<g id="Node000014" class="node">
<title>Node14</title>
<g id="a_Node000014"><a xlink:title=" ">
<polygon fill="#e0e0e0" stroke="#999999" points="331.5,-74 266.5,-74 266.5,-55 331.5,-55 331.5,-74"/>
<text text-anchor="middle" x="299" y="-62" font-family="Helvetica,sans-Serif" font-size="10.00">functional</text>
</a>
</g>
</g>
<!-- Node13&#45;&gt;Node14 -->
<g id="edge21_Node000013_Node000014" class="edge">
<title>Node13&#45;&gt;Node14</title>
<g id="a_edge21_Node000013_Node000014"><a xlink:title=" ">
<path fill="none" stroke="#63b8ff" d="M299,-109.75C299,-102.8 299,-92.85 299,-84.13"/>
<polygon fill="#63b8ff" stroke="#63b8ff" points="302.5,-84.09 299,-74.09 295.5,-84.09 302.5,-84.09"/>
</a>
</g>
</g>
<!-- Node15&#45;&gt;Node4 -->
<g id="edge25_Node000015_Node000004" class="edge">
<title>Node15&#45;&gt;Node4</title>
<g id="a_edge25_Node000015_Node000004"><a xlink:title=" ">
<path fill="none" stroke="#63b8ff" d="M1089.22,-109.98C1074.82,-101.69 1052.69,-88.94 1035.81,-79.22"/>
<polygon fill="#63b8ff" stroke="#63b8ff" points="1037.46,-76.13 1027.05,-74.17 1033.97,-82.19 1037.46,-76.13"/>
</a>
</g>
</g>
<!-- Node15&#45;&gt;Node6 -->
<g id="edge27_Node000015_Node000006" class="edge">
<title>Node15&#45;&gt;Node6</title>
<g id="a_edge27_Node000015_Node000006"><a xlink:title=" ">
<path fill="none" stroke="#63b8ff" d="M1127.52,-115.46C1195.15,-106.72 1390.72,-81.44 1474.81,-70.57"/>
<polygon fill="#63b8ff" stroke="#63b8ff" points="1475.5,-74.01 1484.97,-69.25 1474.6,-67.06 1475.5,-74.01"/>
</a>
</g>
</g>
<!-- Node15&#45;&gt;Node8 -->
<g id="edge23_Node000015_Node000008" class="edge">
<title>Node15&#45;&gt;Node8</title>
<g id="a_edge23_Node000015_Node000008"><a xlink:title=" ">
<path fill="none" stroke="#63b8ff" d="M1112.75,-109.75C1120.47,-102.03 1131.9,-90.6 1141.22,-81.28"/>
<polygon fill="#63b8ff" stroke="#63b8ff" points="1143.81,-83.64 1148.41,-74.09 1138.86,-78.69 1143.81,-83.64"/>
</a>
</g>
</g>
<!-- Node15&#45;&gt;Node9 -->
<g id="edge24_Node000015_Node000009" class="edge">
<title>Node15&#45;&gt;Node9</title>
<g id="a_edge24_Node000015_Node000009"><a xlink:title=" ">
<path fill="none" stroke="#63b8ff" d="M1106.05,-109.66C1110.11,-92.09 1119.29,-52.45 1124.73,-28.95"/>
<polygon fill="#63b8ff" stroke="#63b8ff" points="1128.15,-29.69 1127,-19.16 1121.33,-28.11 1128.15,-29.69"/>
</a>
</g>
</g>
<!-- Node15&#45;&gt;Node16 -->
<g id="edge26_Node000015_Node000016" class="edge">
<title>Node15&#45;&gt;Node16</title>
<g id="a_edge26_Node000015_Node000016"><a xlink:title=" ">
<path fill="none" stroke="#63b8ff" d="M1080.25,-112.14C1077.47,-111.41 1074.67,-110.68 1072,-110 1018.36,-96.28 955.56,-81.02 919.81,-72.41"/>
<polygon fill="#63b8ff" stroke="#63b8ff" points="920.59,-69 910.05,-70.06 918.96,-75.8 920.59,-69"/>
</a>
</g>
</g>
<!-- Node19&#45;&gt;Node2 -->
<g id="edge36_Node000019_Node000002" class="edge">
<title>Node19&#45;&gt;Node2</title>
<g id="a_edge36_Node000019_Node000002"><a xlink:title=" ">
<path fill="none" stroke="#63b8ff" d="M359.85,-329.72C349.05,-321.04 332.37,-307.18 319,-294 263.82,-239.64 204.94,-168.71 179.26,-137.03"/>
<polygon fill="#63b8ff" stroke="#63b8ff" points="181.93,-134.77 172.93,-129.19 176.48,-139.17 181.93,-134.77"/>
</a>
</g>
</g>
<!-- Node19&#45;&gt;Node4 -->
<g id="edge76_Node000019_Node000004" class="edge">
<title>Node19&#45;&gt;Node4</title>
<g id="a_edge76_Node000019_Node000004"><a xlink:title=" ">
<path fill="none" stroke="#63b8ff" d="M429.58,-334.82C646.2,-320.6 1392.77,-265.91 1457,-184 1486.09,-146.9 1439.21,-128.5 1400,-110 1368.25,-95.02 1133.98,-75.16 1045.61,-68.11"/>
<polygon fill="#63b8ff" stroke="#63b8ff" points="1045.82,-64.62 1035.58,-67.32 1045.27,-71.6 1045.82,-64.62"/>
</a>
</g>
</g>
<!-- Node19&#45;&gt;Node5 -->
<g id="edge77_Node000019_Node000005" class="edge">
<title>Node19&#45;&gt;Node5</title>
<g id="a_edge77_Node000019_Node000005"><a xlink:title=" ">
<path fill="none" stroke="#63b8ff" d="M349.26,-329.85C293.66,-306.53 145.57,-236.81 73,-129 63.97,-115.59 60.04,-97.49 58.32,-84.04"/>
<polygon fill="#63b8ff" stroke="#63b8ff" points="61.8,-83.66 57.34,-74.05 54.84,-84.34 61.8,-83.66"/>
</a>
</g>
</g>
<!-- Node19&#45;&gt;Node7 -->
<g id="edge37_Node000019_Node000007" class="edge">
<title>Node19&#45;&gt;Node7</title>
<g id="a_edge37_Node000019_Node000007"><a xlink:title=" ">
<path fill="none" stroke="#63b8ff" d="M381.56,-329.86C392.21,-321.06 409.03,-306.9 423,-294 461.52,-258.44 504.63,-214.37 526.88,-191.29"/>
<polygon fill="#63b8ff" stroke="#63b8ff" points="529.44,-193.69 533.84,-184.05 524.39,-188.84 529.44,-193.69"/>
</a>
</g>
</g>
<!-- Node20 -->
<g id="Node000020" class="node">
<title>Node20</title>
<g id="a_Node000020"><a xlink:href="GeometryResult_8h.html" target="_top" xlink:title=" ">
<polygon fill="white" stroke="#666666" points="589.5,-294 484.5,-294 484.5,-275 589.5,-275 589.5,-294"/>
<text text-anchor="middle" x="537" y="-282" font-family="Helvetica,sans-Serif" font-size="10.00">GeometryResult.h</text>
</a>
</g>
</g>
<!-- Node19&#45;&gt;Node20 -->
<g id="edge38_Node000019_Node000020" class="edge">
<title>Node19&#45;&gt;Node20</title>
<g id="a_edge38_Node000019_Node000020"><a xlink:title=" ">
<path fill="none" stroke="#63b8ff" d="M397.67,-329.98C425.54,-321.09 469.45,-307.07 500.52,-297.15"/>
<polygon fill="#63b8ff" stroke="#63b8ff" points="501.66,-300.46 510.12,-294.08 499.53,-293.79 501.66,-300.46"/>
</a>
</g>
</g>
<!-- Node29 -->
<g id="Node000029" class="node">
<title>Node29</title>
<g id="a_Node000029"><a xlink:title=" ">
<polygon fill="#e0e0e0" stroke="#999999" points="414,-294 328,-294 328,-275 414,-275 414,-294"/>
<text text-anchor="middle" x="371" y="-282" font-family="Helvetica,sans-Serif" font-size="10.00">nanoflann.hpp</text>
</a>
</g>
</g>
<!-- Node19&#45;&gt;Node29 -->
<g id="edge75_Node000019_Node000029" class="edge">
<title>Node19&#45;&gt;Node29</title>
<g id="a_edge75_Node000019_Node000029"><a xlink:title=" ">
<path fill="none" stroke="#63b8ff" d="M371,-329.75C371,-322.8 371,-312.85 371,-304.13"/>
<polygon fill="#63b8ff" stroke="#63b8ff" points="374.5,-304.09 371,-294.09 367.5,-304.09 374.5,-304.09"/>
</a>
</g>
</g>
<!-- Node20&#45;&gt;Node2 -->
<g id="edge39_Node000020_Node000002" class="edge">
<title>Node20&#45;&gt;Node2</title>
<g id="a_edge39_Node000020_Node000002"><a xlink:title=" ">
<path fill="none" stroke="#63b8ff" d="M517.58,-274.97C456.49,-248.13 268.02,-165.32 195.17,-133.31"/>
<polygon fill="#63b8ff" stroke="#63b8ff" points="196.24,-129.96 185.68,-129.15 193.43,-136.37 196.24,-129.96"/>
</a>
</g>
</g>
<!-- Node20&#45;&gt;Node7 -->
<g id="edge40_Node000020_Node000007" class="edge">
<title>Node20&#45;&gt;Node7</title>
<g id="a_edge40_Node000020_Node000007"><a xlink:title=" ">
<path fill="none" stroke="#63b8ff" d="M537.41,-274.66C538.22,-257.17 540.04,-217.8 541.13,-194.27"/>
<polygon fill="#63b8ff" stroke="#63b8ff" points="544.63,-194.31 541.6,-184.16 537.64,-193.99 544.63,-194.31"/>
</a>
</g>
</g>
<!-- Node21 -->
<g id="Node000021" class="node">
<title>Node21</title>
<g id="a_Node000021"><a xlink:href="Protein_8h.html" target="_top" xlink:title=" ">
<polygon fill="white" stroke="#666666" points="1224,-239 1164,-239 1164,-220 1224,-220 1224,-239"/>
<text text-anchor="middle" x="1194" y="-227" font-family="Helvetica,sans-Serif" font-size="10.00">Protein.h</text>
</a>
</g>
</g>
<!-- Node20&#45;&gt;Node21 -->
<g id="edge41_Node000020_Node000021" class="edge">
<title>Node20&#45;&gt;Node21</title>
<g id="a_edge41_Node000020_Node000021"><a xlink:title=" ">
<path fill="none" stroke="#63b8ff" d="M589.65,-279.25C717.22,-268.96 1040.62,-242.87 1153.99,-233.73"/>
<polygon fill="#63b8ff" stroke="#63b8ff" points="1154.3,-237.21 1163.98,-232.92 1153.73,-230.24 1154.3,-237.21"/>
</a>
</g>
</g>
<!-- Node21&#45;&gt;Node3 -->
<g id="edge74_Node000021_Node000003" class="edge">
<title>Node21&#45;&gt;Node3</title>
<g id="a_edge74_Node000021_Node000003"><a xlink:title=" ">
<path fill="none" stroke="#63b8ff" d="M1163.73,-226.43C1069.42,-219.37 783.42,-192.96 721,-129 695.22,-102.59 704.59,-55.01 712.5,-28.89"/>
<polygon fill="#63b8ff" stroke="#63b8ff" points="715.91,-29.73 715.7,-19.14 709.26,-27.55 715.91,-29.73"/>
</a>
</g>
</g>
<!-- Node21&#45;&gt;Node4 -->
<g id="edge72_Node000021_Node000004" class="edge">
<title>Node21&#45;&gt;Node4</title>
<g id="a_edge72_Node000021_Node000004"><a xlink:title=" ">
<path fill="none" stroke="#63b8ff" d="M1163.86,-228.49C1105.56,-226.55 980.03,-212.5 945,-129 935.89,-107.28 959.33,-89.56 980.95,-78.42"/>
<polygon fill="#63b8ff" stroke="#63b8ff" points="982.51,-81.55 990,-74.05 979.47,-75.24 982.51,-81.55"/>
</a>
</g>
</g>
<!-- Node21&#45;&gt;Node6 -->
<g id="edge73_Node000021_Node000006" class="edge">
<title>Node21&#45;&gt;Node6</title>
<g id="a_edge73_Node000021_Node000006"><a xlink:title=" ">
<path fill="none" stroke="#63b8ff" d="M1224.32,-227.54C1283.37,-224.99 1417.43,-215.89 1525,-184 1526.71,-183.49 1640.05,-130.51 1641,-129 1645.51,-121.86 1645.89,-116.89 1641,-110 1630.56,-95.28 1586.45,-82.12 1553.13,-73.99"/>
<polygon fill="#63b8ff" stroke="#63b8ff" points="1553.72,-70.54 1543.18,-71.64 1552.11,-77.35 1553.72,-70.54"/>
</a>
</g>
</g>
<!-- Node21&#45;&gt;Node7 -->
<g id="edge71_Node000021_Node000007" class="edge">
<title>Node21&#45;&gt;Node7</title>
<g id="a_edge71_Node000021_Node000007"><a xlink:title=" ">
<path fill="none" stroke="#63b8ff" d="M1163.86,-226.05C1066.46,-218.13 758.22,-193.08 615.65,-181.49"/>
<polygon fill="#63b8ff" stroke="#63b8ff" points="615.93,-178 605.67,-180.68 615.36,-184.97 615.93,-178"/>
</a>
</g>
</g>
<!-- Node21&#45;&gt;Node8 -->
<g id="edge42_Node000021_Node000008" class="edge">
<title>Node21&#45;&gt;Node8</title>
<g id="a_edge42_Node000021_Node000008"><a xlink:title=" ">
<path fill="none" stroke="#63b8ff" d="M1224.3,-228.06C1286.98,-226.45 1427.48,-218.93 1457,-184 1462.45,-177.55 1458.91,-173.23 1457,-165 1450.84,-138.47 1451.87,-126.22 1430,-110 1393.19,-82.7 1259.5,-71.37 1193.87,-67.37"/>
<polygon fill="#63b8ff" stroke="#63b8ff" points="1193.75,-63.86 1183.57,-66.77 1193.35,-70.85 1193.75,-63.86"/>
</a>
</g>
</g>
<!-- Node21&#45;&gt;Node15 -->
<g id="edge60_Node000021_Node000015" class="edge">
<title>Node21&#45;&gt;Node15</title>
<g id="a_edge60_Node000021_Node000015"><a xlink:title=" ">
<path fill="none" stroke="#63b8ff" d="M1186.63,-219.66C1171.6,-201.61 1137.15,-160.28 1117.81,-137.08"/>
<polygon fill="#63b8ff" stroke="#63b8ff" points="1120.31,-134.6 1111.22,-129.16 1114.93,-139.08 1120.31,-134.6"/>
</a>
</g>
</g>
<!-- Node22 -->
<g id="Node000022" class="node">
<title>Node22</title>
<g id="a_Node000022"><a xlink:href="Atom_8h.html" target="_top" xlink:title=" ">
<polygon fill="white" stroke="#666666" points="1632,-129 1580,-129 1580,-110 1632,-110 1632,-129"/>
<text text-anchor="middle" x="1606" y="-117" font-family="Helvetica,sans-Serif" font-size="10.00">Atom.h</text>
</a>
</g>
</g>
<!-- Node21&#45;&gt;Node22 -->
<g id="edge43_Node000021_Node000022" class="edge">
<title>Node21&#45;&gt;Node22</title>
<g id="a_edge43_Node000021_Node000022"><a xlink:title=" ">
<path fill="none" stroke="#63b8ff" d="M1224.22,-227.44C1278.71,-224.77 1396.43,-215.53 1490,-184 1525.57,-172.01 1563.01,-149.44 1585.43,-134.69"/>
<polygon fill="#63b8ff" stroke="#63b8ff" points="1587.44,-137.56 1593.8,-129.09 1583.54,-131.74 1587.44,-137.56"/>
</a>
</g>
</g>
<!-- Node23 -->
<g id="Node000023" class="node">
<title>Node23</title>
<g id="a_Node000023"><a xlink:href="Residue_8h.html" target="_top" xlink:title=" ">
<polygon fill="white" stroke="#666666" points="1074.5,-184 1009.5,-184 1009.5,-165 1074.5,-165 1074.5,-184"/>
<text text-anchor="middle" x="1042" y="-172" font-family="Helvetica,sans-Serif" font-size="10.00">Residue.h</text>
</a>
</g>
</g>
<!-- Node21&#45;&gt;Node23 -->
<g id="edge48_Node000021_Node000023" class="edge">
<title>Node21&#45;&gt;Node23</title>
<g id="a_edge48_Node000021_Node000023"><a xlink:title=" ">
<path fill="none" stroke="#63b8ff" d="M1169.58,-219.98C1144.28,-211.16 1104.55,-197.31 1076.14,-187.41"/>
<polygon fill="#63b8ff" stroke="#63b8ff" points="1077.21,-184.07 1066.61,-184.08 1074.9,-190.68 1077.21,-184.07"/>
</a>
</g>
</g>
<!-- Node26 -->
<g id="Node000026" class="node">
<title>Node26</title>
<g id="a_Node000026"><a xlink:href="Bond_8h.html" target="_top" xlink:title=" ">
<polygon fill="white" stroke="#666666" points="1372,-129 1322,-129 1322,-110 1372,-110 1372,-129"/>
<text text-anchor="middle" x="1347" y="-117" font-family="Helvetica,sans-Serif" font-size="10.00">Bond.h</text>
</a>
</g>
</g>
<!-- Node21&#45;&gt;Node26 -->
<g id="edge57_Node000021_Node000026" class="edge">
<title>Node21&#45;&gt;Node26</title>
<g id="a_edge57_Node000021_Node000026"><a xlink:title=" ">
<path fill="none" stroke="#63b8ff" d="M1206.26,-219.84C1232.45,-201.36 1294.07,-157.86 1326.39,-135.05"/>
<polygon fill="#63b8ff" stroke="#63b8ff" points="1328.53,-137.82 1334.68,-129.2 1324.49,-132.1 1328.53,-137.82"/>
</a>
</g>
</g>
<!-- Node27 -->
<g id="Node000027" class="node">
<title>Node27</title>
<g id="a_Node000027"><a xlink:href="CovalentTopology_8h.html" target="_top" xlink:title=" ">
<polygon fill="white" stroke="#666666" points="1447.5,-184 1336.5,-184 1336.5,-165 1447.5,-165 1447.5,-184"/>
<text text-anchor="middle" x="1392" y="-172" font-family="Helvetica,sans-Serif" font-size="10.00">CovalentTopology.h</text>
</a>
</g>
</g>
<!-- Node21&#45;&gt;Node27 -->
<g id="edge61_Node000021_Node000027" class="edge">
<title>Node21&#45;&gt;Node27</title>
<g id="a_edge61_Node000021_Node000027"><a xlink:title=" ">
<path fill="none" stroke="#63b8ff" d="M1224.07,-220.45C1257.74,-211.44 1312.51,-196.78 1350.3,-186.66"/>
<polygon fill="#63b8ff" stroke="#63b8ff" points="1351.25,-190.03 1360,-184.07 1349.44,-183.27 1351.25,-190.03"/>
</a>
</g>
</g>
<!-- Node28 -->
<g id="Node000028" class="node">
<title>Node28</title>
<g id="a_Node000028"><a xlink:href="ProteinBuildContext_8h.html" target="_top" xlink:title=" ">
<polygon fill="white" stroke="#666666" points="1811.5,-129 1688.5,-129 1688.5,-110 1811.5,-110 1811.5,-129"/>
<text text-anchor="middle" x="1750" y="-117" font-family="Helvetica,sans-Serif" font-size="10.00">ProteinBuildContext.h</text>
</a>
</g>
</g>
<!-- Node21&#45;&gt;Node28 -->
<g id="edge66_Node000021_Node000028" class="edge">
<title>Node21&#45;&gt;Node28</title>
<g id="a_edge66_Node000021_Node000028"><a xlink:title=" ">
<path fill="none" stroke="#63b8ff" d="M1224.27,-227.07C1288.14,-223.57 1441.11,-212.67 1566,-184 1621.85,-171.18 1684.43,-147.48 1720.33,-132.94"/>
<polygon fill="#63b8ff" stroke="#63b8ff" points="1721.79,-136.13 1729.72,-129.1 1719.14,-129.65 1721.79,-136.13"/>
</a>
</g>
</g>
<!-- Node22&#45;&gt;Node3 -->
<g id="edge46_Node000022_Node000003" class="edge">
<title>Node22&#45;&gt;Node3</title>
<g id="a_edge46_Node000022_Node000003"><a xlink:title=" ">
<path fill="none" stroke="#63b8ff" d="M1601.75,-109.99C1594.08,-95.66 1576.38,-67.07 1552,-55 1533.72,-45.95 902.19,-18.35 751.19,-11.87"/>
<polygon fill="#63b8ff" stroke="#63b8ff" points="751.31,-8.37 741.17,-11.44 751.01,-15.37 751.31,-8.37"/>
</a>
</g>
</g>
<!-- Node22&#45;&gt;Node4 -->
<g id="edge47_Node000022_Node000004" class="edge">
<title>Node22&#45;&gt;Node4</title>
<g id="a_edge47_Node000022_Node000004"><a xlink:title=" ">
<path fill="none" stroke="#63b8ff" d="M1579.84,-112.43C1575.24,-111.51 1570.5,-110.66 1566,-110 1553.05,-108.11 1164.08,-77.46 1045.79,-68.16"/>
<polygon fill="#63b8ff" stroke="#63b8ff" points="1045.77,-64.64 1035.53,-67.35 1045.22,-71.62 1045.77,-64.64"/>
</a>
</g>
</g>
<!-- Node22&#45;&gt;Node6 -->
<g id="edge45_Node000022_Node000006" class="edge">
<title>Node22&#45;&gt;Node6</title>
<g id="a_edge45_Node000022_Node000006"><a xlink:title=" ">
<path fill="none" stroke="#63b8ff" d="M1591.22,-109.98C1576.82,-101.69 1554.69,-88.94 1537.81,-79.22"/>
<polygon fill="#63b8ff" stroke="#63b8ff" points="1539.46,-76.13 1529.05,-74.17 1535.97,-82.19 1539.46,-76.13"/>
</a>
</g>
</g>
<!-- Node22&#45;&gt;Node8 -->
<g id="edge44_Node000022_Node000008" class="edge">
<title>Node22&#45;&gt;Node8</title>
<g id="a_edge44_Node000022_Node000008"><a xlink:title=" ">
<path fill="none" stroke="#63b8ff" d="M1579.82,-112.54C1575.23,-111.61 1570.49,-110.72 1566,-110 1429.82,-88.18 1266.39,-73.96 1194.29,-68.29"/>
<polygon fill="#63b8ff" stroke="#63b8ff" points="1194.16,-64.77 1183.92,-67.48 1193.62,-71.75 1194.16,-64.77"/>
</a>
</g>
</g>
<!-- Node23&#45;&gt;Node3 -->
<g id="edge54_Node000023_Node000003" class="edge">
<title>Node23&#45;&gt;Node3</title>
<g id="a_edge54_Node000023_Node000003"><a xlink:title=" ">
<path fill="none" stroke="#63b8ff" d="M1009.25,-173.37C938.93,-172.37 776.81,-166.01 739,-129 712.37,-102.94 713.16,-55.58 716.08,-29.31"/>
<polygon fill="#63b8ff" stroke="#63b8ff" points="719.57,-29.55 717.43,-19.17 712.64,-28.62 719.57,-29.55"/>
</a>
</g>
</g>
<!-- Node23&#45;&gt;Node4 -->
<g id="edge55_Node000023_Node000004" class="edge">
<title>Node23&#45;&gt;Node4</title>
<g id="a_edge55_Node000023_Node000004"><a xlink:title=" ">
<path fill="none" stroke="#63b8ff" d="M1009.36,-166.37C989.34,-160.13 965.26,-148.84 953,-129 941.01,-109.6 963.9,-90.91 984.57,-78.89"/>
<polygon fill="#63b8ff" stroke="#63b8ff" points="986.39,-81.89 993.48,-74.02 983.03,-75.75 986.39,-81.89"/>
</a>
</g>
</g>
<!-- Node23&#45;&gt;Node8 -->
<g id="edge49_Node000023_Node000008" class="edge">
<title>Node23&#45;&gt;Node8</title>
<g id="a_edge49_Node000023_Node000008"><a xlink:title=" ">
<path fill="none" stroke="#63b8ff" d="M1074.59,-172.21C1132.57,-169.16 1249.93,-159.31 1275,-129 1300.74,-97.88 1237.32,-79.77 1193.82,-71.33"/>
<polygon fill="#63b8ff" stroke="#63b8ff" points="1194.26,-67.85 1183.8,-69.49 1193,-74.74 1194.26,-67.85"/>
</a>
</g>
</g>
<!-- Node24 -->
<g id="Node000024" class="node">
<title>Node24</title>
<g id="a_Node000024"><a xlink:href="AminoAcidType_8h.html" target="_top" xlink:title=" ">
<polygon fill="white" stroke="#666666" points="1062.5,-129 961.5,-129 961.5,-110 1062.5,-110 1062.5,-129"/>
<text text-anchor="middle" x="1012" y="-117" font-family="Helvetica,sans-Serif" font-size="10.00">AminoAcidType.h</text>
</a>
</g>
</g>
<!-- Node23&#45;&gt;Node24 -->
<g id="edge50_Node000023_Node000024" class="edge">
<title>Node23&#45;&gt;Node24</title>
<g id="a_edge50_Node000023_Node000024"><a xlink:title=" ">
<path fill="none" stroke="#63b8ff" d="M1037.05,-164.75C1032.94,-157.49 1026.97,-146.95 1021.9,-137.98"/>
<polygon fill="#63b8ff" stroke="#63b8ff" points="1024.83,-136.07 1016.86,-129.09 1018.74,-139.52 1024.83,-136.07"/>
</a>
</g>
</g>
<!-- Node25 -->
<g id="Node000025" class="node">
<title>Node25</title>
<g id="a_Node000025"><a xlink:title=" ">
<polygon fill="#e0e0e0" stroke="#999999" points="1266,-129 1222,-129 1222,-110 1266,-110 1266,-129"/>
<text text-anchor="middle" x="1244" y="-117" font-family="Helvetica,sans-Serif" font-size="10.00">limits</text>
</a>
</g>
</g>
<!-- Node23&#45;&gt;Node25 -->
<g id="edge56_Node000023_Node000025" class="edge">
<title>Node23&#45;&gt;Node25</title>
<g id="a_edge56_Node000023_Node000025"><a xlink:title=" ">
<path fill="none" stroke="#63b8ff" d="M1074.45,-164.98C1112.27,-155.06 1174.37,-138.77 1212,-128.9"/>
<polygon fill="#63b8ff" stroke="#63b8ff" points="1213.14,-132.22 1221.92,-126.29 1211.36,-125.45 1213.14,-132.22"/>
</a>
</g>
</g>
<!-- Node24&#45;&gt;Node3 -->
<g id="edge52_Node000024_Node000003" class="edge">
<title>Node24&#45;&gt;Node3</title>
<g id="a_edge52_Node000024_Node000003"><a xlink:title=" ">
<path fill="none" stroke="#63b8ff" d="M1002.17,-109.88C985.97,-96.14 952.19,-69.38 919,-55 862.83,-30.65 791.78,-18.93 751.25,-13.86"/>
<polygon fill="#63b8ff" stroke="#63b8ff" points="751.5,-10.36 741.15,-12.66 750.67,-17.31 751.5,-10.36"/>
</a>
</g>
</g>
<!-- Node24&#45;&gt;Node4 -->
<g id="edge53_Node000024_Node000004" class="edge">
<title>Node24&#45;&gt;Node4</title>
<g id="a_edge53_Node000024_Node000004"><a xlink:title=" ">
<path fill="none" stroke="#63b8ff" d="M1012,-109.75C1012,-102.8 1012,-92.85 1012,-84.13"/>
<polygon fill="#63b8ff" stroke="#63b8ff" points="1015.5,-84.09 1012,-74.09 1008.5,-84.09 1015.5,-84.09"/>
</a>
</g>
</g>
<!-- Node24&#45;&gt;Node8 -->
<g id="edge51_Node000024_Node000008" class="edge">
<title>Node24&#45;&gt;Node8</title>
<g id="a_edge51_Node000024_Node000008"><a xlink:title=" ">
<path fill="none" stroke="#63b8ff" d="M1035.3,-109.98C1059.25,-101.23 1096.78,-87.51 1123.83,-77.62"/>
<polygon fill="#63b8ff" stroke="#63b8ff" points="1125.09,-80.89 1133.28,-74.17 1122.69,-74.32 1125.09,-80.89"/>
</a>
</g>
</g>
<!-- Node26&#45;&gt;Node4 -->
<g id="edge59_Node000026_Node000004" class="edge">
<title>Node26&#45;&gt;Node4</title>
<g id="a_edge59_Node000026_Node000004"><a xlink:title=" ">
<path fill="none" stroke="#63b8ff" d="M1321.82,-114.52C1262.31,-105.1 1112.95,-81.47 1045.72,-70.84"/>
<polygon fill="#63b8ff" stroke="#63b8ff" points="1046.09,-67.35 1035.66,-69.24 1045,-74.26 1046.09,-67.35"/>
</a>
</g>
</g>
<!-- Node26&#45;&gt;Node8 -->
<g id="edge58_Node000026_Node000008" class="edge">
<title>Node26&#45;&gt;Node8</title>
<g id="a_edge58_Node000026_Node000008"><a xlink:title=" ">
<path fill="none" stroke="#63b8ff" d="M1321.77,-111.46C1288.92,-102.3 1231.27,-86.22 1193.61,-75.71"/>
<polygon fill="#63b8ff" stroke="#63b8ff" points="1194.13,-72.22 1183.56,-72.91 1192.25,-78.97 1194.13,-72.22"/>
</a>
</g>
</g>
<!-- Node27&#45;&gt;Node4 -->
<g id="edge64_Node000027_Node000004" class="edge">
<title>Node27&#45;&gt;Node4</title>
<g id="a_edge64_Node000027_Node000004"><a xlink:title=" ">
<path fill="none" stroke="#63b8ff" d="M1393.42,-164.62C1395.08,-150.78 1395.93,-124.18 1381,-110 1368.87,-98.48 1134.38,-76.43 1045.64,-68.47"/>
<polygon fill="#63b8ff" stroke="#63b8ff" points="1045.83,-64.97 1035.56,-67.57 1045.21,-71.94 1045.83,-64.97"/>
</a>
</g>
</g>
<!-- Node27&#45;&gt;Node6 -->
<g id="edge65_Node000027_Node000006" class="edge">
<title>Node27&#45;&gt;Node6</title>
<g id="a_edge65_Node000027_Node000006"><a xlink:title=" ">
<path fill="none" stroke="#63b8ff" d="M1404.86,-164.85C1417.33,-156.27 1436.56,-142.48 1452,-129 1469.3,-113.89 1487.47,-94.85 1499.64,-81.58"/>
<polygon fill="#63b8ff" stroke="#63b8ff" points="1502.25,-83.9 1506.38,-74.14 1497.07,-79.2 1502.25,-83.9"/>
</a>
</g>
</g>
<!-- Node27&#45;&gt;Node8 -->
<g id="edge62_Node000027_Node000008" class="edge">
<title>Node27&#45;&gt;Node8</title>
<g id="a_edge62_Node000027_Node000008"><a xlink:title=" ">
<path fill="none" stroke="#63b8ff" d="M1399.88,-164.72C1410.79,-151.49 1427.67,-126.25 1414,-110 1386.31,-77.1 1258.25,-68.52 1193.99,-66.29"/>
<polygon fill="#63b8ff" stroke="#63b8ff" points="1193.98,-62.79 1183.88,-65.97 1193.76,-69.78 1193.98,-62.79"/>
</a>
</g>
</g>
<!-- Node27&#45;&gt;Node26 -->
<g id="edge63_Node000027_Node000026" class="edge">
<title>Node27&#45;&gt;Node26</title>
<g id="a_edge63_Node000027_Node000026"><a xlink:title=" ">
<path fill="none" stroke="#63b8ff" d="M1384.57,-164.75C1378.15,-157.18 1368.69,-146.05 1360.88,-136.84"/>
<polygon fill="#63b8ff" stroke="#63b8ff" points="1363.43,-134.45 1354.29,-129.09 1358.1,-138.98 1363.43,-134.45"/>
</a>
</g>
</g>
<!-- Node28&#45;&gt;Node3 -->
<g id="edge67_Node000028_Node000003" class="edge">
<title>Node28&#45;&gt;Node3</title>
<g id="a_edge67_Node000028_Node000003"><a xlink:title=" ">
<path fill="none" stroke="#63b8ff" d="M1732.34,-109.99C1701.61,-95.65 1635.93,-67.06 1577,-55 1535.84,-46.58 902.34,-18.5 751.2,-11.9"/>
<polygon fill="#63b8ff" stroke="#63b8ff" points="751.31,-8.4 741.16,-11.46 751,-15.39 751.31,-8.4"/>
</a>
</g>
</g>
<!-- Node28&#45;&gt;Node4 -->
<g id="edge68_Node000028_Node000004" class="edge">
<title>Node28&#45;&gt;Node4</title>
<g id="a_edge68_Node000028_Node000004"><a xlink:title=" ">
<path fill="none" stroke="#63b8ff" d="M1688.33,-113.6C1672.88,-112.4 1656.33,-111.13 1641,-110 1410.4,-93.01 1352.6,-90.91 1122,-74 1096.39,-72.12 1067.44,-69.88 1045.66,-68.17"/>
<polygon fill="#63b8ff" stroke="#63b8ff" points="1045.84,-64.67 1035.6,-67.38 1045.29,-71.65 1045.84,-64.67"/>
</a>
</g>
</g>
<!-- Node28&#45;&gt;Node6 -->
<g id="edge69_Node000028_Node000006" class="edge">
<title>Node28&#45;&gt;Node6</title>
<g id="a_edge69_Node000028_Node000006"><a xlink:title=" ">
<path fill="none" stroke="#63b8ff" d="M1712.08,-109.98C1668.44,-100.18 1597.14,-84.17 1553.04,-74.27"/>
<polygon fill="#63b8ff" stroke="#63b8ff" points="1553.77,-70.85 1543.25,-72.07 1552.24,-77.68 1553.77,-70.85"/>
</a>
</g>
</g>
<!-- Node28&#45;&gt;Node11 -->
<g id="edge70_Node000028_Node000011" class="edge">
<title>Node28&#45;&gt;Node11</title>
<g id="a_edge70_Node000028_Node000011"><a xlink:title=" ">
<path fill="none" stroke="#63b8ff" d="M1743.67,-109.88C1732.9,-95.91 1709.57,-68.52 1683,-55 1615.13,-20.47 1524.37,-12.47 1475.9,-10.78"/>
<polygon fill="#63b8ff" stroke="#63b8ff" points="1475.75,-7.28 1465.65,-10.5 1475.55,-14.28 1475.75,-7.28"/>
</a>
</g>
</g>
</g>
</svg>
