<?xml version="1.0" encoding="UTF-8" standalone="no"?>
<!DOCTYPE svg PUBLIC "-//W3C//DTD SVG 1.1//EN"
 "http://www.w3.org/Graphics/SVG/1.1/DTD/svg11.dtd">
<!-- Generated by graphviz version 2.43.0 (0)
 -->
<!-- Title: src/MopacResult.h Pages: 1 -->
<svg width="891pt" height="247pt"
 viewBox="0.00 0.00 890.75 247.00" xmlns="http://www.w3.org/2000/svg" xmlns:xlink="http://www.w3.org/1999/xlink">
<g id="graph0" class="graph" transform="scale(1 1) rotate(0) translate(4 243)">
<title>src/MopacResult.h</title>
<!-- Node1 -->
<g id="Node000001" class="node">
<title>Node1</title>
<g id="a_Node000001"><a xlink:title=" ">
<polygon fill="#999999" stroke="#666666" points="568.25,-239 462.25,-239 462.25,-220 568.25,-220 568.25,-239"/>
<text text-anchor="middle" x="515.25" y="-227" font-family="Helvetica,sans-Serif" font-size="10.00">src/MopacResult.h</text>
</a>
</g>
</g>
<!-- Node2 -->
<g id="Node000002" class="node">
<title>Node2</title>
<g id="a_Node000002"><a xlink:href="ConformationResult_8h.html" target="_top" xlink:title=" ">
<polygon fill="white" stroke="#666666" points="694.75,-129 571.75,-129 571.75,-110 694.75,-110 694.75,-129"/>
<text text-anchor="middle" x="633.25" y="-117" font-family="Helvetica,sans-Serif" font-size="10.00">ConformationResult.h</text>
</a>
</g>
</g>
<!-- Node1&#45;&gt;Node2 -->
<g id="edge1_Node000001_Node000002" class="edge">
<title>Node1&#45;&gt;Node2</title>
<g id="a_edge1_Node000001_Node000002"><a xlink:title=" ">
<path fill="none" stroke="#63b8ff" d="M524.91,-219.66C544.88,-201.38 590.99,-159.18 616.13,-136.17"/>
<polygon fill="#63b8ff" stroke="#63b8ff" points="618.78,-138.49 623.79,-129.16 614.05,-133.33 618.78,-138.49"/>
</a>
</g>
</g>
<!-- Node4 -->
<g id="Node000004" class="node">
<title>Node4</title>
<g id="a_Node000004"><a xlink:title=" ">
<polygon fill="#e0e0e0" stroke="#999999" points="347.75,-74 300.75,-74 300.75,-55 347.75,-55 347.75,-74"/>
<text text-anchor="middle" x="324.25" y="-62" font-family="Helvetica,sans-Serif" font-size="10.00">vector</text>
</a>
</g>
</g>
<!-- Node1&#45;&gt;Node4 -->
<g id="edge35_Node000001_Node000004" class="edge">
<title>Node1&#45;&gt;Node4</title>
<g id="a_edge35_Node000001_Node000004"><a xlink:title=" ">
<path fill="none" stroke="#63b8ff" d="M473.52,-219.98C428.53,-208.25 359.58,-182.21 331.25,-129 323.99,-115.37 322.56,-97.78 322.76,-84.58"/>
<polygon fill="#63b8ff" stroke="#63b8ff" points="326.27,-84.46 323.25,-74.31 319.28,-84.13 326.27,-84.46"/>
</a>
</g>
</g>
<!-- Node7 -->
<g id="Node000007" class="node">
<title>Node7</title>
<g id="a_Node000007"><a xlink:href="ProteinConformation_8h.html" target="_top" xlink:title=" ">
<polygon fill="white" stroke="#666666" points="532.75,-184 405.75,-184 405.75,-165 532.75,-165 532.75,-184"/>
<text text-anchor="middle" x="469.25" y="-172" font-family="Helvetica,sans-Serif" font-size="10.00">ProteinConformation.h</text>
</a>
</g>
</g>
<!-- Node1&#45;&gt;Node7 -->
<g id="edge6_Node000001_Node000007" class="edge">
<title>Node1&#45;&gt;Node7</title>
<g id="a_edge6_Node000001_Node000007"><a xlink:title=" ">
<path fill="none" stroke="#63b8ff" d="M507.65,-219.75C501.09,-212.18 491.43,-201.05 483.44,-191.84"/>
<polygon fill="#63b8ff" stroke="#63b8ff" points="485.9,-189.35 476.7,-184.09 480.62,-193.94 485.9,-189.35"/>
</a>
</g>
</g>
<!-- Node17 -->
<g id="Node000017" class="node">
<title>Node17</title>
<g id="a_Node000017"><a xlink:title=" ">
<polygon fill="#e0e0e0" stroke="#999999" points="882.75,-129 789.75,-129 789.75,-110 882.75,-110 882.75,-129"/>
<text text-anchor="middle" x="836.25" y="-117" font-family="Helvetica,sans-Serif" font-size="10.00">unordered_map</text>
</a>
</g>
</g>
<!-- Node1&#45;&gt;Node17 -->
<g id="edge36_Node000001_Node000017" class="edge">
<title>Node1&#45;&gt;Node17</title>
<g id="a_edge36_Node000001_Node000017"><a xlink:title=" ">
<path fill="none" stroke="#63b8ff" d="M540.71,-219.94C597.71,-200.76 735.73,-154.32 800.97,-132.37"/>
<polygon fill="#63b8ff" stroke="#63b8ff" points="802.43,-135.57 810.79,-129.07 800.2,-128.94 802.43,-135.57"/>
</a>
</g>
</g>
<!-- Node3 -->
<g id="Node000003" class="node">
<title>Node3</title>
<g id="a_Node000003"><a xlink:title=" ">
<polygon fill="#e0e0e0" stroke="#999999" points="489.25,-19 445.25,-19 445.25,0 489.25,0 489.25,-19"/>
<text text-anchor="middle" x="467.25" y="-7" font-family="Helvetica,sans-Serif" font-size="10.00">string</text>
</a>
</g>
</g>
<!-- Node2&#45;&gt;Node3 -->
<g id="edge2_Node000002_Node000003" class="edge">
<title>Node2&#45;&gt;Node3</title>
<g id="a_edge2_Node000002_Node000003"><a xlink:title=" ">
<path fill="none" stroke="#63b8ff" d="M619.95,-109.84C591.41,-91.28 524.1,-47.49 489.16,-24.75"/>
<polygon fill="#63b8ff" stroke="#63b8ff" points="490.91,-21.72 480.62,-19.2 487.09,-27.58 490.91,-21.72"/>
</a>
</g>
</g>
<!-- Node2&#45;&gt;Node4 -->
<g id="edge3_Node000002_Node000004" class="edge">
<title>Node2&#45;&gt;Node4</title>
<g id="a_edge3_Node000002_Node000004"><a xlink:title=" ">
<path fill="none" stroke="#63b8ff" d="M583.6,-109.98C520.27,-99.12 412.42,-80.62 357.91,-71.27"/>
<polygon fill="#63b8ff" stroke="#63b8ff" points="358.2,-67.77 347.75,-69.53 357.02,-74.67 358.2,-67.77"/>
</a>
</g>
</g>
<!-- Node5 -->
<g id="Node000005" class="node">
<title>Node5</title>
<g id="a_Node000005"><a xlink:title=" ">
<polygon fill="#e0e0e0" stroke="#999999" points="698.75,-74 633.75,-74 633.75,-55 698.75,-55 698.75,-74"/>
<text text-anchor="middle" x="666.25" y="-62" font-family="Helvetica,sans-Serif" font-size="10.00">typeindex</text>
</a>
</g>
</g>
<!-- Node2&#45;&gt;Node5 -->
<g id="edge4_Node000002_Node000005" class="edge">
<title>Node2&#45;&gt;Node5</title>
<g id="a_edge4_Node000002_Node000005"><a xlink:title=" ">
<path fill="none" stroke="#63b8ff" d="M638.7,-109.75C643.26,-102.42 649.92,-91.73 655.54,-82.7"/>
<polygon fill="#63b8ff" stroke="#63b8ff" points="658.59,-84.43 660.9,-74.09 652.65,-80.73 658.59,-84.43"/>
</a>
</g>
</g>
<!-- Node6 -->
<g id="Node000006" class="node">
<title>Node6</title>
<g id="a_Node000006"><a xlink:title=" ">
<polygon fill="#e0e0e0" stroke="#999999" points="518.25,-74 460.25,-74 460.25,-55 518.25,-55 518.25,-74"/>
<text text-anchor="middle" x="489.25" y="-62" font-family="Helvetica,sans-Serif" font-size="10.00">memory</text>
</a>
</g>
</g>
<!-- Node2&#45;&gt;Node6 -->
<g id="edge5_Node000002_Node000006" class="edge">
<title>Node2&#45;&gt;Node6</title>
<g id="a_edge5_Node000002_Node000006"><a xlink:title=" ">
<path fill="none" stroke="#63b8ff" d="M610.11,-109.98C586.43,-101.27 549.38,-87.63 522.54,-77.75"/>
<polygon fill="#63b8ff" stroke="#63b8ff" points="523.4,-74.34 512.81,-74.17 520.98,-80.91 523.4,-74.34"/>
</a>
</g>
</g>
<!-- Node7&#45;&gt;Node2 -->
<g id="edge16_Node000007_Node000002" class="edge">
<title>Node7&#45;&gt;Node2</title>
<g id="a_edge16_Node000007_Node000002"><a xlink:title=" ">
<path fill="none" stroke="#63b8ff" d="M495.6,-164.98C523.01,-156.13 566.14,-142.19 596.81,-132.28"/>
<polygon fill="#63b8ff" stroke="#63b8ff" points="598.25,-135.49 606.69,-129.08 596.1,-128.83 598.25,-135.49"/>
</a>
</g>
</g>
<!-- Node7&#45;&gt;Node3 -->
<g id="edge33_Node000007_Node000003" class="edge">
<title>Node7&#45;&gt;Node3</title>
<g id="a_edge33_Node000007_Node000003"><a xlink:title=" ">
<path fill="none" stroke="#63b8ff" d="M532.96,-171.24C599.3,-167.38 696.79,-156.98 720.25,-129 733.86,-112.76 728.47,-75.21 707.25,-55 677.86,-27.01 558.05,-15.99 499.61,-12.22"/>
<polygon fill="#63b8ff" stroke="#63b8ff" points="499.65,-8.71 489.45,-11.6 499.22,-15.7 499.65,-8.71"/>
</a>
</g>
</g>
<!-- Node7&#45;&gt;Node4 -->
<g id="edge28_Node000007_Node000004" class="edge">
<title>Node7&#45;&gt;Node4</title>
<g id="a_edge28_Node000007_Node000004"><a xlink:title=" ">
<path fill="none" stroke="#63b8ff" d="M415.72,-164.96C391.74,-158.65 364.75,-147.75 346.25,-129 334.35,-116.94 328.87,-98.14 326.36,-84.11"/>
<polygon fill="#63b8ff" stroke="#63b8ff" points="329.81,-83.51 324.91,-74.12 322.88,-84.51 329.81,-83.51"/>
</a>
</g>
</g>
<!-- Node7&#45;&gt;Node5 -->
<g id="edge31_Node000007_Node000005" class="edge">
<title>Node7&#45;&gt;Node5</title>
<g id="a_edge31_Node000007_Node000005"><a xlink:title=" ">
<path fill="none" stroke="#63b8ff" d="M532.95,-170.28C594.67,-165.67 681.99,-154.68 703.25,-129 715.67,-113.99 700.11,-94.29 685.52,-80.84"/>
<polygon fill="#63b8ff" stroke="#63b8ff" points="687.56,-77.97 677.71,-74.08 682.98,-83.27 687.56,-77.97"/>
</a>
</g>
</g>
<!-- Node7&#45;&gt;Node6 -->
<g id="edge32_Node000007_Node000006" class="edge">
<title>Node7&#45;&gt;Node6</title>
<g id="a_edge32_Node000007_Node000006"><a xlink:title=" ">
<path fill="none" stroke="#63b8ff" d="M470.89,-164.66C474.13,-147.17 481.42,-107.8 485.77,-84.27"/>
<polygon fill="#63b8ff" stroke="#63b8ff" points="489.27,-84.63 487.65,-74.16 482.38,-83.35 489.27,-84.63"/>
</a>
</g>
</g>
<!-- Node8 -->
<g id="Node000008" class="node">
<title>Node8</title>
<g id="a_Node000008"><a xlink:href="Types_8h.html" target="_top" xlink:title=" ">
<polygon fill="white" stroke="#666666" points="160.75,-74 107.75,-74 107.75,-55 160.75,-55 160.75,-74"/>
<text text-anchor="middle" x="134.25" y="-62" font-family="Helvetica,sans-Serif" font-size="10.00">Types.h</text>
</a>
</g>
</g>
<!-- Node7&#45;&gt;Node8 -->
<g id="edge7_Node000007_Node000008" class="edge">
<title>Node7&#45;&gt;Node8</title>
<g id="a_edge7_Node000007_Node000008"><a xlink:title=" ">
<path fill="none" stroke="#63b8ff" d="M405.7,-172.02C285.29,-168.57 33.53,-157.93 7.25,-129 -22.24,-96.53 50.62,-78.52 97.8,-70.55"/>
<polygon fill="#63b8ff" stroke="#63b8ff" points="98.4,-74 107.72,-68.96 97.29,-67.09 98.4,-74"/>
</a>
</g>
</g>
<!-- Node12 -->
<g id="Node000012" class="node">
<title>Node12</title>
<g id="a_Node000012"><a xlink:href="ConformationAtom_8h.html" target="_top" xlink:title=" ">
<polygon fill="white" stroke="#666666" points="135.75,-129 16.75,-129 16.75,-110 135.75,-110 135.75,-129"/>
<text text-anchor="middle" x="76.25" y="-117" font-family="Helvetica,sans-Serif" font-size="10.00">ConformationAtom.h</text>
</a>
</g>
</g>
<!-- Node7&#45;&gt;Node12 -->
<g id="edge12_Node000007_Node000012" class="edge">
<title>Node7&#45;&gt;Node12</title>
<g id="a_edge12_Node000007_Node000012"><a xlink:title=" ">
<path fill="none" stroke="#63b8ff" d="M406.11,-164.98C335.03,-155.4 219.87,-139.87 146.14,-129.92"/>
<polygon fill="#63b8ff" stroke="#63b8ff" points="146.39,-126.43 136.01,-128.56 145.46,-133.37 146.39,-126.43"/>
</a>
</g>
</g>
<!-- Node13 -->
<g id="Node000013" class="node">
<title>Node13</title>
<g id="a_Node000013"><a xlink:href="GeometryChoice_8h.html" target="_top" xlink:title=" ">
<polygon fill="white" stroke="#666666" points="260.75,-129 153.75,-129 153.75,-110 260.75,-110 260.75,-129"/>
<text text-anchor="middle" x="207.25" y="-117" font-family="Helvetica,sans-Serif" font-size="10.00">GeometryChoice.h</text>
</a>
</g>
</g>
<!-- Node7&#45;&gt;Node13 -->
<g id="edge17_Node000007_Node000013" class="edge">
<title>Node7&#45;&gt;Node13</title>
<g id="a_edge17_Node000007_Node000013"><a xlink:title=" ">
<path fill="none" stroke="#63b8ff" d="M427.15,-164.98C381.55,-155.76 308.73,-141.03 259.5,-131.07"/>
<polygon fill="#63b8ff" stroke="#63b8ff" points="260.17,-127.63 249.67,-129.08 258.78,-134.5 260.17,-127.63"/>
</a>
</g>
</g>
<!-- Node15 -->
<g id="Node000015" class="node">
<title>Node15</title>
<g id="a_Node000015"><a xlink:href="Ring_8h.html" target="_top" xlink:title=" ">
<polygon fill="white" stroke="#666666" points="402.75,-129 355.75,-129 355.75,-110 402.75,-110 402.75,-129"/>
<text text-anchor="middle" x="379.25" y="-117" font-family="Helvetica,sans-Serif" font-size="10.00">Ring.h</text>
</a>
</g>
</g>
<!-- Node7&#45;&gt;Node15 -->
<g id="edge22_Node000007_Node000015" class="edge">
<title>Node7&#45;&gt;Node15</title>
<g id="a_edge22_Node000007_Node000015"><a xlink:title=" ">
<path fill="none" stroke="#63b8ff" d="M454.79,-164.98C440.83,-156.77 419.46,-144.18 403,-134.49"/>
<polygon fill="#63b8ff" stroke="#63b8ff" points="404.37,-131.23 393.97,-129.17 400.81,-137.26 404.37,-131.23"/>
</a>
</g>
</g>
<!-- Node16 -->
<g id="Node000016" class="node">
<title>Node16</title>
<g id="a_Node000016"><a xlink:title=" ">
<polygon fill="#e0e0e0" stroke="#999999" points="442.25,-74 404.25,-74 404.25,-55 442.25,-55 442.25,-74"/>
<text text-anchor="middle" x="423.25" y="-62" font-family="Helvetica,sans-Serif" font-size="10.00">map</text>
</a>
</g>
</g>
<!-- Node7&#45;&gt;Node16 -->
<g id="edge29_Node000007_Node000016" class="edge">
<title>Node7&#45;&gt;Node16</title>
<g id="a_edge29_Node000007_Node000016"><a xlink:title=" ">
<path fill="none" stroke="#63b8ff" d="M465.49,-164.66C457.97,-147.01 440.96,-107.09 430.97,-83.64"/>
<polygon fill="#63b8ff" stroke="#63b8ff" points="434.08,-81.99 426.94,-74.16 427.64,-84.73 434.08,-81.99"/>
</a>
</g>
</g>
<!-- Node7&#45;&gt;Node17 -->
<g id="edge30_Node000007_Node000017" class="edge">
<title>Node7&#45;&gt;Node17</title>
<g id="a_edge30_Node000007_Node000017"><a xlink:title=" ">
<path fill="none" stroke="#63b8ff" d="M528.21,-164.98C597.4,-154.99 711.32,-138.54 779.52,-128.69"/>
<polygon fill="#63b8ff" stroke="#63b8ff" points="780.26,-132.12 789.66,-127.23 779.26,-125.19 780.26,-132.12"/>
</a>
</g>
</g>
<!-- Node18 -->
<g id="Node000018" class="node">
<title>Node18</title>
<g id="a_Node000018"><a xlink:title=" ">
<polygon fill="#e0e0e0" stroke="#999999" points="553.25,-129 497.25,-129 497.25,-110 553.25,-110 553.25,-129"/>
<text text-anchor="middle" x="525.25" y="-117" font-family="Helvetica,sans-Serif" font-size="10.00">sstream</text>
</a>
</g>
</g>
<!-- Node7&#45;&gt;Node18 -->
<g id="edge34_Node000007_Node000018" class="edge">
<title>Node7&#45;&gt;Node18</title>
<g id="a_edge34_Node000007_Node000018"><a xlink:title=" ">
<path fill="none" stroke="#63b8ff" d="M478.25,-164.98C486.44,-157.23 498.76,-145.58 508.72,-136.14"/>
<polygon fill="#63b8ff" stroke="#63b8ff" points="511.23,-138.59 516.09,-129.17 506.42,-133.5 511.23,-138.59"/>
</a>
</g>
</g>
<!-- Node8&#45;&gt;Node3 -->
<g id="edge11_Node000008_Node000003" class="edge">
<title>Node8&#45;&gt;Node3</title>
<g id="a_edge11_Node000008_Node000003"><a xlink:title=" ">
<path fill="none" stroke="#63b8ff" d="M160.95,-56.75C163.74,-56.13 166.55,-55.53 169.25,-55 265.26,-36.21 380.05,-21.12 434.92,-14.36"/>
<polygon fill="#63b8ff" stroke="#63b8ff" points="435.57,-17.8 445.08,-13.12 434.73,-10.86 435.57,-17.8"/>
</a>
</g>
</g>
<!-- Node9 -->
<g id="Node000009" class="node">
<title>Node9</title>
<g id="a_Node000009"><a xlink:title=" ">
<polygon fill="#e0e0e0" stroke="#999999" points="335.75,-19 258.75,-19 258.75,0 335.75,0 335.75,-19"/>
<text text-anchor="middle" x="297.25" y="-7" font-family="Helvetica,sans-Serif" font-size="10.00">Eigen/Dense</text>
</a>
</g>
</g>
<!-- Node8&#45;&gt;Node9 -->
<g id="edge8_Node000008_Node000009" class="edge">
<title>Node8&#45;&gt;Node9</title>
<g id="a_edge8_Node000008_Node000009"><a xlink:title=" ">
<path fill="none" stroke="#63b8ff" d="M160.44,-54.98C187.69,-46.13 230.55,-32.19 261.03,-22.28"/>
<polygon fill="#63b8ff" stroke="#63b8ff" points="262.43,-25.5 270.86,-19.08 260.26,-18.85 262.43,-25.5"/>
</a>
</g>
</g>
<!-- Node10 -->
<g id="Node000010" class="node">
<title>Node10</title>
<g id="a_Node000010"><a xlink:title=" ">
<polygon fill="#e0e0e0" stroke="#999999" points="97.25,-19 55.25,-19 55.25,0 97.25,0 97.25,-19"/>
<text text-anchor="middle" x="76.25" y="-7" font-family="Helvetica,sans-Serif" font-size="10.00">array</text>
</a>
</g>
</g>
<!-- Node8&#45;&gt;Node10 -->
<g id="edge9_Node000008_Node000010" class="edge">
<title>Node8&#45;&gt;Node10</title>
<g id="a_edge9_Node000008_Node000010"><a xlink:title=" ">
<path fill="none" stroke="#63b8ff" d="M124.93,-54.98C116.44,-47.23 103.69,-35.58 93.37,-26.14"/>
<polygon fill="#63b8ff" stroke="#63b8ff" points="95.48,-23.33 85.74,-19.17 90.76,-28.5 95.48,-23.33"/>
</a>
</g>
</g>
<!-- Node11 -->
<g id="Node000011" class="node">
<title>Node11</title>
<g id="a_Node000011"><a xlink:title=" ">
<polygon fill="#e0e0e0" stroke="#999999" points="162.75,-19 115.75,-19 115.75,0 162.75,0 162.75,-19"/>
<text text-anchor="middle" x="139.25" y="-7" font-family="Helvetica,sans-Serif" font-size="10.00">cmath</text>
</a>
</g>
</g>
<!-- Node8&#45;&gt;Node11 -->
<g id="edge10_Node000008_Node000011" class="edge">
<title>Node8&#45;&gt;Node11</title>
<g id="a_edge10_Node000008_Node000011"><a xlink:title=" ">
<path fill="none" stroke="#63b8ff" d="M135.08,-54.75C135.73,-47.8 136.67,-37.85 137.49,-29.13"/>
<polygon fill="#63b8ff" stroke="#63b8ff" points="140.98,-29.37 138.44,-19.09 134.02,-28.72 140.98,-29.37"/>
</a>
</g>
</g>
<!-- Node12&#45;&gt;Node4 -->
<g id="edge14_Node000012_Node000004" class="edge">
<title>Node12&#45;&gt;Node4</title>
<g id="a_edge14_Node000012_Node000004"><a xlink:title=" ">
<path fill="none" stroke="#63b8ff" d="M116.1,-109.98C164.49,-99.64 245.27,-82.38 290.66,-72.68"/>
<polygon fill="#63b8ff" stroke="#63b8ff" points="291.54,-76.07 300.59,-70.56 290.08,-69.22 291.54,-76.07"/>
</a>
</g>
</g>
<!-- Node12&#45;&gt;Node8 -->
<g id="edge13_Node000012_Node000008" class="edge">
<title>Node12&#45;&gt;Node8</title>
<g id="a_edge13_Node000012_Node000008"><a xlink:title=" ">
<path fill="none" stroke="#63b8ff" d="M85.57,-109.98C94.06,-102.23 106.81,-90.58 117.13,-81.14"/>
<polygon fill="#63b8ff" stroke="#63b8ff" points="119.74,-83.5 124.76,-74.17 115.02,-78.33 119.74,-83.5"/>
</a>
</g>
</g>
<!-- Node12&#45;&gt;Node10 -->
<g id="edge15_Node000012_Node000010" class="edge">
<title>Node12&#45;&gt;Node10</title>
<g id="a_edge15_Node000012_Node000010"><a xlink:title=" ">
<path fill="none" stroke="#63b8ff" d="M76.25,-109.66C76.25,-92.17 76.25,-52.8 76.25,-29.27"/>
<polygon fill="#63b8ff" stroke="#63b8ff" points="79.75,-29.16 76.25,-19.16 72.75,-29.16 79.75,-29.16"/>
</a>
</g>
</g>
<!-- Node13&#45;&gt;Node3 -->
<g id="edge19_Node000013_Node000003" class="edge">
<title>Node13&#45;&gt;Node3</title>
<g id="a_edge19_Node000013_Node000003"><a xlink:title=" ">
<path fill="none" stroke="#63b8ff" d="M216.25,-109.71C230.8,-95.99 260.92,-69.55 291.25,-55 338.58,-32.29 398.82,-20.29 435.14,-14.68"/>
<polygon fill="#63b8ff" stroke="#63b8ff" points="435.78,-18.13 445.16,-13.2 434.76,-11.2 435.78,-18.13"/>
</a>
</g>
</g>
<!-- Node13&#45;&gt;Node4 -->
<g id="edge20_Node000013_Node000004" class="edge">
<title>Node13&#45;&gt;Node4</title>
<g id="a_edge20_Node000013_Node000004"><a xlink:title=" ">
<path fill="none" stroke="#63b8ff" d="M226.05,-109.98C244.87,-101.46 274.07,-88.23 295.75,-78.41"/>
<polygon fill="#63b8ff" stroke="#63b8ff" points="297.44,-81.48 305.11,-74.17 294.56,-75.11 297.44,-81.48"/>
</a>
</g>
</g>
<!-- Node13&#45;&gt;Node8 -->
<g id="edge18_Node000013_Node000008" class="edge">
<title>Node13&#45;&gt;Node8</title>
<g id="a_edge18_Node000013_Node000008"><a xlink:title=" ">
<path fill="none" stroke="#63b8ff" d="M195.52,-109.98C184.52,-102 167.83,-89.88 154.65,-80.31"/>
<polygon fill="#63b8ff" stroke="#63b8ff" points="156.34,-77.21 146.19,-74.17 152.23,-82.88 156.34,-77.21"/>
</a>
</g>
</g>
<!-- Node14 -->
<g id="Node000014" class="node">
<title>Node14</title>
<g id="a_Node000014"><a xlink:title=" ">
<polygon fill="#e0e0e0" stroke="#999999" points="243.75,-74 178.75,-74 178.75,-55 243.75,-55 243.75,-74"/>
<text text-anchor="middle" x="211.25" y="-62" font-family="Helvetica,sans-Serif" font-size="10.00">functional</text>
</a>
</g>
</g>
<!-- Node13&#45;&gt;Node14 -->
<g id="edge21_Node000013_Node000014" class="edge">
<title>Node13&#45;&gt;Node14</title>
<g id="a_edge21_Node000013_Node000014"><a xlink:title=" ">
<path fill="none" stroke="#63b8ff" d="M207.91,-109.75C208.43,-102.8 209.19,-92.85 209.84,-84.13"/>
<polygon fill="#63b8ff" stroke="#63b8ff" points="213.34,-84.32 210.6,-74.09 206.36,-83.8 213.34,-84.32"/>
</a>
</g>
</g>
<!-- Node15&#45;&gt;Node4 -->
<g id="edge25_Node000015_Node000004" class="edge">
<title>Node15&#45;&gt;Node4</title>
<g id="a_edge25_Node000015_Node000004"><a xlink:title=" ">
<path fill="none" stroke="#63b8ff" d="M370.17,-109.75C362.16,-102.03 350.29,-90.6 340.63,-81.28"/>
<polygon fill="#63b8ff" stroke="#63b8ff" points="342.79,-78.51 333.16,-74.09 337.93,-83.55 342.79,-78.51"/>
</a>
</g>
</g>
<!-- Node15&#45;&gt;Node6 -->
<g id="edge27_Node000015_Node000006" class="edge">
<title>Node15&#45;&gt;Node6</title>
<g id="a_edge27_Node000015_Node000006"><a xlink:title=" ">
<path fill="none" stroke="#63b8ff" d="M396.92,-109.98C414.54,-101.5 441.83,-88.35 462.18,-78.54"/>
<polygon fill="#63b8ff" stroke="#63b8ff" points="463.77,-81.66 471.25,-74.17 460.73,-75.36 463.77,-81.66"/>
</a>
</g>
</g>
<!-- Node15&#45;&gt;Node8 -->
<g id="edge23_Node000015_Node000008" class="edge">
<title>Node15&#45;&gt;Node8</title>
<g id="a_edge23_Node000015_Node000008"><a xlink:title=" ">
<path fill="none" stroke="#63b8ff" d="M355.58,-113.72C318.31,-106.15 243.46,-90.73 170.76,-74.3"/>
<polygon fill="#63b8ff" stroke="#63b8ff" points="171.51,-70.88 160.98,-72.08 169.96,-77.7 171.51,-70.88"/>
</a>
</g>
</g>
<!-- Node15&#45;&gt;Node9 -->
<g id="edge24_Node000015_Node000009" class="edge">
<title>Node15&#45;&gt;Node9</title>
<g id="a_edge24_Node000015_Node000009"><a xlink:title=" ">
<path fill="none" stroke="#63b8ff" d="M377.77,-109.95C375.2,-97.02 368.93,-72.17 356.25,-55 347.14,-42.66 333.67,-32.15 321.91,-24.44"/>
<polygon fill="#63b8ff" stroke="#63b8ff" points="323.68,-21.42 313.34,-19.11 319.98,-27.36 323.68,-21.42"/>
</a>
</g>
</g>
<!-- Node15&#45;&gt;Node16 -->
<g id="edge26_Node000015_Node000016" class="edge">
<title>Node15&#45;&gt;Node16</title>
<g id="a_edge26_Node000015_Node000016"><a xlink:title=" ">
<path fill="none" stroke="#63b8ff" d="M386.52,-109.75C392.79,-102.18 402.04,-91.05 409.68,-81.84"/>
<polygon fill="#63b8ff" stroke="#63b8ff" points="412.42,-84.02 416.12,-74.09 407.04,-79.55 412.42,-84.02"/>
</a>
</g>
</g>
</g>
</svg>
