<?xml version="1.0" encoding="UTF-8" standalone="no"?>
<!DOCTYPE svg PUBLIC "-//W3C//DTD SVG 1.1//EN"
 "http://www.w3.org/Graphics/SVG/1.1/DTD/svg11.dtd">
<!-- Generated by graphviz version 2.43.0 (0)
 -->
<!-- Title: src/NamingRegistry.h Pages: 1 -->
<svg width="428pt" height="137pt"
 viewBox="0.00 0.00 428.00 137.00" xmlns="http://www.w3.org/2000/svg" xmlns:xlink="http://www.w3.org/1999/xlink">
<g id="graph0" class="graph" transform="scale(1 1) rotate(0) translate(4 133)">
<title>src/NamingRegistry.h</title>
<!-- Node1 -->
<g id="Node000001" class="node">
<title>Node1</title>
<g id="a_Node000001"><a xlink:title=" ">
<polygon fill="#999999" stroke="#666666" points="345.5,-129 225.5,-129 225.5,-110 345.5,-110 345.5,-129"/>
<text text-anchor="middle" x="285.5" y="-117" font-family="Helvetica,sans-Serif" font-size="10.00">src/NamingRegistry.h</text>
</a>
</g>
</g>
<!-- Node2 -->
<g id="Node000002" class="node">
<title>Node2</title>
<g id="a_Node000002"><a xlink:href="Types_8h.html" target="_top" xlink:title=" ">
<polygon fill="white" stroke="#666666" points="206,-74 153,-74 153,-55 206,-55 206,-74"/>
<text text-anchor="middle" x="179.5" y="-62" font-family="Helvetica,sans-Serif" font-size="10.00">Types.h</text>
</a>
</g>
</g>
<!-- Node1&#45;&gt;Node2 -->
<g id="edge1_Node000001_Node000002" class="edge">
<title>Node1&#45;&gt;Node2</title>
<g id="a_edge1_Node000001_Node000002"><a xlink:title=" ">
<path fill="none" stroke="#63b8ff" d="M268.47,-109.98C251.57,-101.54 225.44,-88.47 205.86,-78.68"/>
<polygon fill="#63b8ff" stroke="#63b8ff" points="207.35,-75.51 196.84,-74.17 204.22,-81.77 207.35,-75.51"/>
</a>
</g>
</g>
<!-- Node6 -->
<g id="Node000006" class="node">
<title>Node6</title>
<g id="a_Node000006"><a xlink:title=" ">
<polygon fill="#e0e0e0" stroke="#999999" points="265.5,-19 221.5,-19 221.5,0 265.5,0 265.5,-19"/>
<text text-anchor="middle" x="243.5" y="-7" font-family="Helvetica,sans-Serif" font-size="10.00">string</text>
</a>
</g>
</g>
<!-- Node1&#45;&gt;Node6 -->
<g id="edge6_Node000001_Node000006" class="edge">
<title>Node1&#45;&gt;Node6</title>
<g id="a_edge6_Node000001_Node000006"><a xlink:title=" ">
<path fill="none" stroke="#63b8ff" d="M278.74,-109.79C272.36,-101.17 262.97,-87.34 257.5,-74 251.6,-59.62 248,-42.34 245.93,-29.44"/>
<polygon fill="#63b8ff" stroke="#63b8ff" points="249.37,-28.81 244.48,-19.42 242.44,-29.81 249.37,-28.81"/>
</a>
</g>
</g>
<!-- Node7 -->
<g id="Node000007" class="node">
<title>Node7</title>
<g id="a_Node000007"><a xlink:title=" ">
<polygon fill="#e0e0e0" stroke="#999999" points="304.5,-74 266.5,-74 266.5,-55 304.5,-55 304.5,-74"/>
<text text-anchor="middle" x="285.5" y="-62" font-family="Helvetica,sans-Serif" font-size="10.00">map</text>
</a>
</g>
</g>
<!-- Node1&#45;&gt;Node7 -->
<g id="edge7_Node000001_Node000007" class="edge">
<title>Node1&#45;&gt;Node7</title>
<g id="a_edge7_Node000001_Node000007"><a xlink:title=" ">
<path fill="none" stroke="#63b8ff" d="M285.5,-109.75C285.5,-102.8 285.5,-92.85 285.5,-84.13"/>
<polygon fill="#63b8ff" stroke="#63b8ff" points="289,-84.09 285.5,-74.09 282,-84.09 289,-84.09"/>
</a>
</g>
</g>
<!-- Node8 -->
<g id="Node000008" class="node">
<title>Node8</title>
<g id="a_Node000008"><a xlink:title=" ">
<polygon fill="#e0e0e0" stroke="#999999" points="354.5,-74 322.5,-74 322.5,-55 354.5,-55 354.5,-74"/>
<text text-anchor="middle" x="338.5" y="-62" font-family="Helvetica,sans-Serif" font-size="10.00">set</text>
</a>
</g>
</g>
<!-- Node1&#45;&gt;Node8 -->
<g id="edge8_Node000001_Node000008" class="edge">
<title>Node1&#45;&gt;Node8</title>
<g id="a_edge8_Node000001_Node000008"><a xlink:title=" ">
<path fill="none" stroke="#63b8ff" d="M294.25,-109.75C301.97,-102.03 313.4,-90.6 322.72,-81.28"/>
<polygon fill="#63b8ff" stroke="#63b8ff" points="325.31,-83.64 329.91,-74.09 320.36,-78.69 325.31,-83.64"/>
</a>
</g>
</g>
<!-- Node9 -->
<g id="Node000009" class="node">
<title>Node9</title>
<g id="a_Node000009"><a xlink:title=" ">
<polygon fill="#e0e0e0" stroke="#999999" points="420,-74 373,-74 373,-55 420,-55 420,-74"/>
<text text-anchor="middle" x="396.5" y="-62" font-family="Helvetica,sans-Serif" font-size="10.00">vector</text>
</a>
</g>
</g>
<!-- Node1&#45;&gt;Node9 -->
<g id="edge9_Node000001_Node000009" class="edge">
<title>Node1&#45;&gt;Node9</title>
<g id="a_edge9_Node000001_Node000009"><a xlink:title=" ">
<path fill="none" stroke="#63b8ff" d="M303.33,-109.98C321.11,-101.5 348.65,-88.35 369.18,-78.54"/>
<polygon fill="#63b8ff" stroke="#63b8ff" points="370.83,-81.64 378.34,-74.17 367.81,-75.32 370.83,-81.64"/>
</a>
</g>
</g>
<!-- Node3 -->
<g id="Node000003" class="node">
<title>Node3</title>
<g id="a_Node000003"><a xlink:title=" ">
<polygon fill="#e0e0e0" stroke="#999999" points="77,-19 0,-19 0,0 77,0 77,-19"/>
<text text-anchor="middle" x="38.5" y="-7" font-family="Helvetica,sans-Serif" font-size="10.00">Eigen/Dense</text>
</a>
</g>
</g>
<!-- Node2&#45;&gt;Node3 -->
<g id="edge2_Node000002_Node000003" class="edge">
<title>Node2&#45;&gt;Node3</title>
<g id="a_edge2_Node000002_Node000003"><a xlink:title=" ">
<path fill="none" stroke="#63b8ff" d="M156.85,-54.98C133.65,-46.27 97.38,-32.63 71.1,-22.75"/>
<polygon fill="#63b8ff" stroke="#63b8ff" points="72.16,-19.41 61.57,-19.17 69.7,-25.97 72.16,-19.41"/>
</a>
</g>
</g>
<!-- Node4 -->
<g id="Node000004" class="node">
<title>Node4</title>
<g id="a_Node000004"><a xlink:title=" ">
<polygon fill="#e0e0e0" stroke="#999999" points="137.5,-19 95.5,-19 95.5,0 137.5,0 137.5,-19"/>
<text text-anchor="middle" x="116.5" y="-7" font-family="Helvetica,sans-Serif" font-size="10.00">array</text>
</a>
</g>
</g>
<!-- Node2&#45;&gt;Node4 -->
<g id="edge3_Node000002_Node000004" class="edge">
<title>Node2&#45;&gt;Node4</title>
<g id="a_edge3_Node000002_Node000004"><a xlink:title=" ">
<path fill="none" stroke="#63b8ff" d="M169.38,-54.98C160.06,-47.15 146.03,-35.34 134.76,-25.86"/>
<polygon fill="#63b8ff" stroke="#63b8ff" points="136.71,-22.93 126.81,-19.17 132.21,-28.29 136.71,-22.93"/>
</a>
</g>
</g>
<!-- Node5 -->
<g id="Node000005" class="node">
<title>Node5</title>
<g id="a_Node000005"><a xlink:title=" ">
<polygon fill="#e0e0e0" stroke="#999999" points="203,-19 156,-19 156,0 203,0 203,-19"/>
<text text-anchor="middle" x="179.5" y="-7" font-family="Helvetica,sans-Serif" font-size="10.00">cmath</text>
</a>
</g>
</g>
<!-- Node2&#45;&gt;Node5 -->
<g id="edge4_Node000002_Node000005" class="edge">
<title>Node2&#45;&gt;Node5</title>
<g id="a_edge4_Node000002_Node000005"><a xlink:title=" ">
<path fill="none" stroke="#63b8ff" d="M179.5,-54.75C179.5,-47.8 179.5,-37.85 179.5,-29.13"/>
<polygon fill="#63b8ff" stroke="#63b8ff" points="183,-29.09 179.5,-19.09 176,-29.09 183,-29.09"/>
</a>
</g>
</g>
<!-- Node2&#45;&gt;Node6 -->
<g id="edge5_Node000002_Node000006" class="edge">
<title>Node2&#45;&gt;Node6</title>
<g id="a_edge5_Node000002_Node000006"><a xlink:title=" ">
<path fill="none" stroke="#63b8ff" d="M189.78,-54.98C199.34,-47.07 213.78,-35.11 225.28,-25.58"/>
<polygon fill="#63b8ff" stroke="#63b8ff" points="227.56,-28.24 233.03,-19.17 223.1,-22.85 227.56,-28.24"/>
</a>
</g>
</g>
</g>
</svg>
