<?xml version="1.0" encoding="UTF-8" standalone="no"?>
<!DOCTYPE svg PUBLIC "-//W3C//DTD SVG 1.1//EN"
 "http://www.w3.org/Graphics/SVG/1.1/DTD/svg11.dtd">
<!-- Generated by graphviz version 2.43.0 (0)
 -->
<!-- Title: src/OperationRunner.h Pages: 1 -->
<svg width="1038pt" height="247pt"
 viewBox="0.00 0.00 1037.59 247.00" xmlns="http://www.w3.org/2000/svg" xmlns:xlink="http://www.w3.org/1999/xlink">
<g id="graph0" class="graph" transform="scale(1 1) rotate(0) translate(4 243)">
<title>src/OperationRunner.h</title>
<!-- Node1 -->
<g id="Node000001" class="node">
<title>Node1</title>
<g id="a_Node000001"><a xlink:title=" ">
<polygon fill="#999999" stroke="#666666" points="491,-239 366,-239 366,-220 491,-220 491,-239"/>
<text text-anchor="middle" x="428.5" y="-227" font-family="Helvetica,sans-Serif" font-size="10.00">src/OperationRunner.h</text>
</a>
</g>
</g>
<!-- Node2 -->
<g id="Node000002" class="node">
<title>Node2</title>
<g id="a_Node000002"><a xlink:href="ProteinConformation_8h.html" target="_top" xlink:title=" ">
<polygon fill="white" stroke="#666666" points="663,-184 536,-184 536,-165 663,-165 663,-184"/>
<text text-anchor="middle" x="599.5" y="-172" font-family="Helvetica,sans-Serif" font-size="10.00">ProteinConformation.h</text>
</a>
</g>
</g>
<!-- Node1&#45;&gt;Node2 -->
<g id="edge1_Node000001_Node000002" class="edge">
<title>Node1&#45;&gt;Node2</title>
<g id="a_edge1_Node000001_Node000002"><a xlink:title=" ">
<path fill="none" stroke="#63b8ff" d="M455.97,-219.98C484.68,-211.09 529.92,-197.07 561.92,-187.15"/>
<polygon fill="#63b8ff" stroke="#63b8ff" points="563.3,-190.39 571.81,-184.08 561.22,-183.7 563.3,-190.39"/>
</a>
</g>
</g>
<!-- Node7 -->
<g id="Node000007" class="node">
<title>Node7</title>
<g id="a_Node000007"><a xlink:title=" ">
<polygon fill="#e0e0e0" stroke="#999999" points="682.5,-19 638.5,-19 638.5,0 682.5,0 682.5,-19"/>
<text text-anchor="middle" x="660.5" y="-7" font-family="Helvetica,sans-Serif" font-size="10.00">string</text>
</a>
</g>
</g>
<!-- Node1&#45;&gt;Node7 -->
<g id="edge39_Node000001_Node000007" class="edge">
<title>Node1&#45;&gt;Node7</title>
<g id="a_edge39_Node000001_Node000007"><a xlink:title=" ">
<path fill="none" stroke="#63b8ff" d="M491.13,-225.92C624.04,-219.16 928.24,-196.54 1002.5,-129 1027.32,-106.42 1039.71,-80.15 1017.5,-55 996.14,-30.81 776.55,-16.67 692.76,-12.12"/>
<polygon fill="#63b8ff" stroke="#63b8ff" points="692.72,-8.62 682.55,-11.58 692.35,-15.61 692.72,-8.62"/>
</a>
</g>
</g>
<!-- Node9 -->
<g id="Node000009" class="node">
<title>Node9</title>
<g id="a_Node000009"><a xlink:title=" ">
<polygon fill="#e0e0e0" stroke="#999999" points="374,-74 327,-74 327,-55 374,-55 374,-74"/>
<text text-anchor="middle" x="350.5" y="-62" font-family="Helvetica,sans-Serif" font-size="10.00">vector</text>
</a>
</g>
</g>
<!-- Node1&#45;&gt;Node9 -->
<g id="edge38_Node000001_Node000009" class="edge">
<title>Node1&#45;&gt;Node9</title>
<g id="a_edge38_Node000001_Node000009"><a xlink:title=" ">
<path fill="none" stroke="#63b8ff" d="M416.87,-219.96C396.9,-204.49 356.75,-169.6 341.5,-129 336,-114.34 339.25,-96.63 343.31,-83.64"/>
<polygon fill="#63b8ff" stroke="#63b8ff" points="346.68,-84.6 346.73,-74.01 340.08,-82.26 346.68,-84.6"/>
</a>
</g>
</g>
<!-- Node19 -->
<g id="Node000019" class="node">
<title>Node19</title>
<g id="a_Node000019"><a xlink:href="ChargeSource_8h.html" target="_top" xlink:title=" ">
<polygon fill="white" stroke="#666666" points="93,-129 0,-129 0,-110 93,-110 93,-129"/>
<text text-anchor="middle" x="46.5" y="-117" font-family="Helvetica,sans-Serif" font-size="10.00">ChargeSource.h</text>
</a>
</g>
</g>
<!-- Node1&#45;&gt;Node19 -->
<g id="edge34_Node000001_Node000019" class="edge">
<title>Node1&#45;&gt;Node19</title>
<g id="a_edge34_Node000001_Node000019"><a xlink:title=" ">
<path fill="none" stroke="#63b8ff" d="M389.52,-219.94C352.13,-211.53 294.18,-197.95 244.5,-184 186.47,-167.7 119.91,-145.65 80.63,-132.29"/>
<polygon fill="#63b8ff" stroke="#63b8ff" points="81.61,-128.92 71.02,-129 79.35,-135.55 81.61,-128.92"/>
</a>
</g>
</g>
<!-- Node3 -->
<g id="Node000003" class="node">
<title>Node3</title>
<g id="a_Node000003"><a xlink:href="Types_8h.html" target="_top" xlink:title=" ">
<polygon fill="white" stroke="#666666" points="309,-74 256,-74 256,-55 309,-55 309,-74"/>
<text text-anchor="middle" x="282.5" y="-62" font-family="Helvetica,sans-Serif" font-size="10.00">Types.h</text>
</a>
</g>
</g>
<!-- Node2&#45;&gt;Node3 -->
<g id="edge2_Node000002_Node000003" class="edge">
<title>Node2&#45;&gt;Node3</title>
<g id="a_edge2_Node000002_Node000003"><a xlink:title=" ">
<path fill="none" stroke="#63b8ff" d="M535.89,-173.7C481.29,-171.36 402.05,-161.8 341.5,-129 321.12,-117.96 303.9,-97.22 293.42,-82.44"/>
<polygon fill="#63b8ff" stroke="#63b8ff" points="296.31,-80.47 287.8,-74.16 290.52,-84.4 296.31,-80.47"/>
</a>
</g>
</g>
<!-- Node2&#45;&gt;Node7 -->
<g id="edge32_Node000002_Node000007" class="edge">
<title>Node2&#45;&gt;Node7</title>
<g id="a_edge32_Node000002_Node000007"><a xlink:title=" ">
<path fill="none" stroke="#63b8ff" d="M663.36,-170.98C693.66,-166.17 727.35,-154.8 746.5,-129 774.31,-91.52 718,-46.85 683.92,-24.58"/>
<polygon fill="#63b8ff" stroke="#63b8ff" points="685.71,-21.57 675.39,-19.17 681.96,-27.48 685.71,-21.57"/>
</a>
</g>
</g>
<!-- Node8 -->
<g id="Node000008" class="node">
<title>Node8</title>
<g id="a_Node000008"><a xlink:href="ConformationAtom_8h.html" target="_top" xlink:title=" ">
<polygon fill="white" stroke="#666666" points="230,-129 111,-129 111,-110 230,-110 230,-129"/>
<text text-anchor="middle" x="170.5" y="-117" font-family="Helvetica,sans-Serif" font-size="10.00">ConformationAtom.h</text>
</a>
</g>
</g>
<!-- Node2&#45;&gt;Node8 -->
<g id="edge7_Node000002_Node000008" class="edge">
<title>Node2&#45;&gt;Node8</title>
<g id="a_edge7_Node000002_Node000008"><a xlink:title=" ">
<path fill="none" stroke="#63b8ff" d="M535.74,-165.62C456.53,-155.84 321.87,-139.2 240.07,-129.09"/>
<polygon fill="#63b8ff" stroke="#63b8ff" points="240.47,-125.62 230.11,-127.86 239.61,-132.56 240.47,-125.62"/>
</a>
</g>
</g>
<!-- Node2&#45;&gt;Node9 -->
<g id="edge27_Node000002_Node000009" class="edge">
<title>Node2&#45;&gt;Node9</title>
<g id="a_edge27_Node000002_Node000009"><a xlink:title=" ">
<path fill="none" stroke="#63b8ff" d="M535.81,-170.74C471.03,-166.47 376.92,-155.73 353.5,-129 342.94,-116.95 343.39,-98.14 345.76,-84.12"/>
<polygon fill="#63b8ff" stroke="#63b8ff" points="349.23,-84.63 347.9,-74.12 342.39,-83.17 349.23,-84.63"/>
</a>
</g>
</g>
<!-- Node10 -->
<g id="Node000010" class="node">
<title>Node10</title>
<g id="a_Node000010"><a xlink:href="ConformationResult_8h.html" target="_top" xlink:title=" ">
<polygon fill="white" stroke="#666666" points="976,-129 853,-129 853,-110 976,-110 976,-129"/>
<text text-anchor="middle" x="914.5" y="-117" font-family="Helvetica,sans-Serif" font-size="10.00">ConformationResult.h</text>
</a>
</g>
</g>
<!-- Node2&#45;&gt;Node10 -->
<g id="edge11_Node000002_Node000010" class="edge">
<title>Node2&#45;&gt;Node10</title>
<g id="a_edge11_Node000002_Node000010"><a xlink:title=" ">
<path fill="none" stroke="#63b8ff" d="M650.11,-164.98C705.6,-155.65 794.59,-140.67 853.79,-130.71"/>
<polygon fill="#63b8ff" stroke="#63b8ff" points="854.47,-134.15 863.75,-129.04 853.31,-127.25 854.47,-134.15"/>
</a>
</g>
</g>
<!-- Node11 -->
<g id="Node000011" class="node">
<title>Node11</title>
<g id="a_Node000011"><a xlink:title=" ">
<polygon fill="#e0e0e0" stroke="#999999" points="1008,-74 943,-74 943,-55 1008,-55 1008,-74"/>
<text text-anchor="middle" x="975.5" y="-62" font-family="Helvetica,sans-Serif" font-size="10.00">typeindex</text>
</a>
</g>
</g>
<!-- Node2&#45;&gt;Node11 -->
<g id="edge30_Node000002_Node000011" class="edge">
<title>Node2&#45;&gt;Node11</title>
<g id="a_edge30_Node000002_Node000011"><a xlink:title=" ">
<path fill="none" stroke="#63b8ff" d="M663.1,-170.72C767.17,-165.5 964.46,-152.6 985.5,-129 996.49,-116.66 991.43,-97.36 985.2,-83.27"/>
<polygon fill="#63b8ff" stroke="#63b8ff" points="988.24,-81.52 980.67,-74.11 981.96,-84.62 988.24,-81.52"/>
</a>
</g>
</g>
<!-- Node12 -->
<g id="Node000012" class="node">
<title>Node12</title>
<g id="a_Node000012"><a xlink:title=" ">
<polygon fill="#e0e0e0" stroke="#999999" points="872.5,-74 814.5,-74 814.5,-55 872.5,-55 872.5,-74"/>
<text text-anchor="middle" x="843.5" y="-62" font-family="Helvetica,sans-Serif" font-size="10.00">memory</text>
</a>
</g>
</g>
<!-- Node2&#45;&gt;Node12 -->
<g id="edge31_Node000002_Node000012" class="edge">
<title>Node2&#45;&gt;Node12</title>
<g id="a_edge31_Node000002_Node000012"><a xlink:title=" ">
<path fill="none" stroke="#63b8ff" d="M663.16,-171.43C705.28,-167.32 760,-156.51 800.5,-129 816.98,-117.8 828.89,-97.99 835.94,-83.47"/>
<polygon fill="#63b8ff" stroke="#63b8ff" points="839.28,-84.58 840.21,-74.03 832.9,-81.7 839.28,-84.58"/>
</a>
</g>
</g>
<!-- Node13 -->
<g id="Node000013" class="node">
<title>Node13</title>
<g id="a_Node000013"><a xlink:href="GeometryChoice_8h.html" target="_top" xlink:title=" ">
<polygon fill="white" stroke="#666666" points="470,-129 363,-129 363,-110 470,-110 470,-129"/>
<text text-anchor="middle" x="416.5" y="-117" font-family="Helvetica,sans-Serif" font-size="10.00">GeometryChoice.h</text>
</a>
</g>
</g>
<!-- Node2&#45;&gt;Node13 -->
<g id="edge16_Node000002_Node000013" class="edge">
<title>Node2&#45;&gt;Node13</title>
<g id="a_edge16_Node000002_Node000013"><a xlink:title=" ">
<path fill="none" stroke="#63b8ff" d="M570.1,-164.98C539.11,-156.01 490.12,-141.82 455.83,-131.89"/>
<polygon fill="#63b8ff" stroke="#63b8ff" points="456.71,-128.5 446.13,-129.08 454.76,-135.23 456.71,-128.5"/>
</a>
</g>
</g>
<!-- Node15 -->
<g id="Node000015" class="node">
<title>Node15</title>
<g id="a_Node000015"><a xlink:href="Ring_8h.html" target="_top" xlink:title=" ">
<polygon fill="white" stroke="#666666" points="535,-129 488,-129 488,-110 535,-110 535,-129"/>
<text text-anchor="middle" x="511.5" y="-117" font-family="Helvetica,sans-Serif" font-size="10.00">Ring.h</text>
</a>
</g>
</g>
<!-- Node2&#45;&gt;Node15 -->
<g id="edge21_Node000002_Node000015" class="edge">
<title>Node2&#45;&gt;Node15</title>
<g id="a_edge21_Node000002_Node000015"><a xlink:title=" ">
<path fill="none" stroke="#63b8ff" d="M585.36,-164.98C571.71,-156.77 550.81,-144.18 534.72,-134.49"/>
<polygon fill="#63b8ff" stroke="#63b8ff" points="536.27,-131.33 525.9,-129.17 532.66,-137.33 536.27,-131.33"/>
</a>
</g>
</g>
<!-- Node16 -->
<g id="Node000016" class="node">
<title>Node16</title>
<g id="a_Node000016"><a xlink:title=" ">
<polygon fill="#e0e0e0" stroke="#999999" points="668.5,-74 630.5,-74 630.5,-55 668.5,-55 668.5,-74"/>
<text text-anchor="middle" x="649.5" y="-62" font-family="Helvetica,sans-Serif" font-size="10.00">map</text>
</a>
</g>
</g>
<!-- Node2&#45;&gt;Node16 -->
<g id="edge28_Node000002_Node000016" class="edge">
<title>Node2&#45;&gt;Node16</title>
<g id="a_edge28_Node000002_Node000016"><a xlink:title=" ">
<path fill="none" stroke="#63b8ff" d="M663.23,-167.42C688.1,-161.57 714.24,-150.35 729.5,-129 746.64,-105.02 707.8,-85.41 678.45,-74.61"/>
<polygon fill="#63b8ff" stroke="#63b8ff" points="679.54,-71.28 668.95,-71.28 677.23,-77.89 679.54,-71.28"/>
</a>
</g>
</g>
<!-- Node17 -->
<g id="Node000017" class="node">
<title>Node17</title>
<g id="a_Node000017"><a xlink:title=" ">
<polygon fill="#e0e0e0" stroke="#999999" points="646,-129 553,-129 553,-110 646,-110 646,-129"/>
<text text-anchor="middle" x="599.5" y="-117" font-family="Helvetica,sans-Serif" font-size="10.00">unordered_map</text>
</a>
</g>
</g>
<!-- Node2&#45;&gt;Node17 -->
<g id="edge29_Node000002_Node000017" class="edge">
<title>Node2&#45;&gt;Node17</title>
<g id="a_edge29_Node000002_Node000017"><a xlink:title=" ">
<path fill="none" stroke="#63b8ff" d="M599.5,-164.75C599.5,-157.8 599.5,-147.85 599.5,-139.13"/>
<polygon fill="#63b8ff" stroke="#63b8ff" points="603,-139.09 599.5,-129.09 596,-139.09 603,-139.09"/>
</a>
</g>
</g>
<!-- Node18 -->
<g id="Node000018" class="node">
<title>Node18</title>
<g id="a_Node000018"><a xlink:title=" ">
<polygon fill="#e0e0e0" stroke="#999999" points="720.5,-129 664.5,-129 664.5,-110 720.5,-110 720.5,-129"/>
<text text-anchor="middle" x="692.5" y="-117" font-family="Helvetica,sans-Serif" font-size="10.00">sstream</text>
</a>
</g>
</g>
<!-- Node2&#45;&gt;Node18 -->
<g id="edge33_Node000002_Node000018" class="edge">
<title>Node2&#45;&gt;Node18</title>
<g id="a_edge33_Node000002_Node000018"><a xlink:title=" ">
<path fill="none" stroke="#63b8ff" d="M614.44,-164.98C629,-156.69 651.37,-143.94 668.43,-134.22"/>
<polygon fill="#63b8ff" stroke="#63b8ff" points="670.33,-137.16 677.29,-129.17 666.86,-131.08 670.33,-137.16"/>
</a>
</g>
</g>
<!-- Node4 -->
<g id="Node000004" class="node">
<title>Node4</title>
<g id="a_Node000004"><a xlink:title=" ">
<polygon fill="#e0e0e0" stroke="#999999" points="482,-19 405,-19 405,0 482,0 482,-19"/>
<text text-anchor="middle" x="443.5" y="-7" font-family="Helvetica,sans-Serif" font-size="10.00">Eigen/Dense</text>
</a>
</g>
</g>
<!-- Node3&#45;&gt;Node4 -->
<g id="edge3_Node000003_Node000004" class="edge">
<title>Node3&#45;&gt;Node4</title>
<g id="a_edge3_Node000003_Node000004"><a xlink:title=" ">
<path fill="none" stroke="#63b8ff" d="M308.37,-54.98C335.28,-46.13 377.62,-32.19 407.73,-22.28"/>
<polygon fill="#63b8ff" stroke="#63b8ff" points="409.03,-25.53 417.43,-19.08 406.84,-18.88 409.03,-25.53"/>
</a>
</g>
</g>
<!-- Node5 -->
<g id="Node000005" class="node">
<title>Node5</title>
<g id="a_Node000005"><a xlink:title=" ">
<polygon fill="#e0e0e0" stroke="#999999" points="222.5,-19 180.5,-19 180.5,0 222.5,0 222.5,-19"/>
<text text-anchor="middle" x="201.5" y="-7" font-family="Helvetica,sans-Serif" font-size="10.00">array</text>
</a>
</g>
</g>
<!-- Node3&#45;&gt;Node5 -->
<g id="edge4_Node000003_Node000005" class="edge">
<title>Node3&#45;&gt;Node5</title>
<g id="a_edge4_Node000003_Node000005"><a xlink:title=" ">
<path fill="none" stroke="#63b8ff" d="M269.49,-54.98C257.04,-46.84 238.04,-34.41 223.29,-24.76"/>
<polygon fill="#63b8ff" stroke="#63b8ff" points="225.04,-21.72 214.75,-19.17 221.2,-27.57 225.04,-21.72"/>
</a>
</g>
</g>
<!-- Node6 -->
<g id="Node000006" class="node">
<title>Node6</title>
<g id="a_Node000006"><a xlink:title=" ">
<polygon fill="#e0e0e0" stroke="#999999" points="306,-19 259,-19 259,0 306,0 306,-19"/>
<text text-anchor="middle" x="282.5" y="-7" font-family="Helvetica,sans-Serif" font-size="10.00">cmath</text>
</a>
</g>
</g>
<!-- Node3&#45;&gt;Node6 -->
<g id="edge5_Node000003_Node000006" class="edge">
<title>Node3&#45;&gt;Node6</title>
<g id="a_edge5_Node000003_Node000006"><a xlink:title=" ">
<path fill="none" stroke="#63b8ff" d="M282.5,-54.75C282.5,-47.8 282.5,-37.85 282.5,-29.13"/>
<polygon fill="#63b8ff" stroke="#63b8ff" points="286,-29.09 282.5,-19.09 279,-29.09 286,-29.09"/>
</a>
</g>
</g>
<!-- Node3&#45;&gt;Node7 -->
<g id="edge6_Node000003_Node000007" class="edge">
<title>Node3&#45;&gt;Node7</title>
<g id="a_edge6_Node000003_Node000007"><a xlink:title=" ">
<path fill="none" stroke="#63b8ff" d="M309.19,-56.7C311.99,-56.08 314.79,-55.5 317.5,-55 430.84,-33.95 567.08,-19.45 628.13,-13.51"/>
<polygon fill="#63b8ff" stroke="#63b8ff" points="628.68,-16.97 638.3,-12.53 628.01,-10 628.68,-16.97"/>
</a>
</g>
</g>
<!-- Node8&#45;&gt;Node3 -->
<g id="edge8_Node000008_Node000003" class="edge">
<title>Node8&#45;&gt;Node3</title>
<g id="a_edge8_Node000008_Node000003"><a xlink:title=" ">
<path fill="none" stroke="#63b8ff" d="M188.49,-109.98C206.43,-101.5 234.22,-88.35 254.93,-78.54"/>
<polygon fill="#63b8ff" stroke="#63b8ff" points="256.64,-81.61 264.18,-74.17 253.64,-75.28 256.64,-81.61"/>
</a>
</g>
</g>
<!-- Node8&#45;&gt;Node5 -->
<g id="edge10_Node000008_Node000005" class="edge">
<title>Node8&#45;&gt;Node5</title>
<g id="a_edge10_Node000008_Node000005"><a xlink:title=" ">
<path fill="none" stroke="#63b8ff" d="M173.04,-109.66C178.08,-92.09 189.46,-52.45 196.2,-28.95"/>
<polygon fill="#63b8ff" stroke="#63b8ff" points="199.62,-29.74 199.01,-19.16 192.89,-27.8 199.62,-29.74"/>
</a>
</g>
</g>
<!-- Node8&#45;&gt;Node9 -->
<g id="edge9_Node000008_Node000009" class="edge">
<title>Node8&#45;&gt;Node9</title>
<g id="a_edge9_Node000008_Node000009"><a xlink:title=" ">
<path fill="none" stroke="#63b8ff" d="M199.42,-109.98C231.48,-100.54 283.13,-85.34 316.94,-75.38"/>
<polygon fill="#63b8ff" stroke="#63b8ff" points="318.22,-78.65 326.82,-72.47 316.24,-71.94 318.22,-78.65"/>
</a>
</g>
</g>
<!-- Node10&#45;&gt;Node7 -->
<g id="edge12_Node000010_Node000007" class="edge">
<title>Node10&#45;&gt;Node7</title>
<g id="a_edge12_Node000010_Node000007"><a xlink:title=" ">
<path fill="none" stroke="#63b8ff" d="M912.59,-109.97C909.02,-96.12 899.96,-68.9 881.5,-55 852.11,-32.88 746.73,-19.25 692.8,-13.57"/>
<polygon fill="#63b8ff" stroke="#63b8ff" points="693.04,-10.08 682.74,-12.54 692.33,-17.04 693.04,-10.08"/>
</a>
</g>
</g>
<!-- Node10&#45;&gt;Node9 -->
<g id="edge13_Node000010_Node000009" class="edge">
<title>Node10&#45;&gt;Node9</title>
<g id="a_edge13_Node000010_Node000009"><a xlink:title=" ">
<path fill="none" stroke="#63b8ff" d="M852.96,-113.52C759.6,-105.85 576.63,-90.28 421.5,-74 409.4,-72.73 396.16,-71.19 384.42,-69.77"/>
<polygon fill="#63b8ff" stroke="#63b8ff" points="384.5,-66.25 374.15,-68.51 383.65,-73.2 384.5,-66.25"/>
</a>
</g>
</g>
<!-- Node10&#45;&gt;Node11 -->
<g id="edge14_Node000010_Node000011" class="edge">
<title>Node10&#45;&gt;Node11</title>
<g id="a_edge14_Node000010_Node000011"><a xlink:title=" ">
<path fill="none" stroke="#63b8ff" d="M924.3,-109.98C933.32,-102.15 946.91,-90.34 957.82,-80.86"/>
<polygon fill="#63b8ff" stroke="#63b8ff" points="960.27,-83.37 965.52,-74.17 955.68,-78.09 960.27,-83.37"/>
</a>
</g>
</g>
<!-- Node10&#45;&gt;Node12 -->
<g id="edge15_Node000010_Node000012" class="edge">
<title>Node10&#45;&gt;Node12</title>
<g id="a_edge15_Node000010_Node000012"><a xlink:title=" ">
<path fill="none" stroke="#63b8ff" d="M903.09,-109.98C892.39,-102 876.16,-89.88 863.34,-80.31"/>
<polygon fill="#63b8ff" stroke="#63b8ff" points="865.22,-77.35 855.11,-74.17 861.03,-82.96 865.22,-77.35"/>
</a>
</g>
</g>
<!-- Node13&#45;&gt;Node3 -->
<g id="edge17_Node000013_Node000003" class="edge">
<title>Node13&#45;&gt;Node3</title>
<g id="a_edge17_Node000013_Node000003"><a xlink:title=" ">
<path fill="none" stroke="#63b8ff" d="M394.97,-109.98C373.03,-101.3 338.76,-87.75 313.81,-77.88"/>
<polygon fill="#63b8ff" stroke="#63b8ff" points="315.01,-74.59 304.42,-74.17 312.43,-81.1 315.01,-74.59"/>
</a>
</g>
</g>
<!-- Node13&#45;&gt;Node7 -->
<g id="edge18_Node000013_Node000007" class="edge">
<title>Node13&#45;&gt;Node7</title>
<g id="a_edge18_Node000013_Node000007"><a xlink:title=" ">
<path fill="none" stroke="#63b8ff" d="M414.23,-109.85C411.26,-96.31 407.89,-70.13 421.5,-55 448.61,-24.87 569.55,-14.9 628.28,-11.8"/>
<polygon fill="#63b8ff" stroke="#63b8ff" points="628.67,-15.29 638.49,-11.3 628.33,-8.3 628.67,-15.29"/>
</a>
</g>
</g>
<!-- Node13&#45;&gt;Node9 -->
<g id="edge19_Node000013_Node000009" class="edge">
<title>Node13&#45;&gt;Node9</title>
<g id="a_edge19_Node000013_Node000009"><a xlink:title=" ">
<path fill="none" stroke="#63b8ff" d="M405.9,-109.98C396.04,-102.07 381.15,-90.11 369.28,-80.58"/>
<polygon fill="#63b8ff" stroke="#63b8ff" points="371.29,-77.7 361.3,-74.17 366.9,-83.16 371.29,-77.7"/>
</a>
</g>
</g>
<!-- Node14 -->
<g id="Node000014" class="node">
<title>Node14</title>
<g id="a_Node000014"><a xlink:title=" ">
<polygon fill="#e0e0e0" stroke="#999999" points="496,-74 431,-74 431,-55 496,-55 496,-74"/>
<text text-anchor="middle" x="463.5" y="-62" font-family="Helvetica,sans-Serif" font-size="10.00">functional</text>
</a>
</g>
</g>
<!-- Node13&#45;&gt;Node14 -->
<g id="edge20_Node000013_Node000014" class="edge">
<title>Node13&#45;&gt;Node14</title>
<g id="a_edge20_Node000013_Node000014"><a xlink:title=" ">
<path fill="none" stroke="#63b8ff" d="M424.26,-109.75C430.97,-102.18 440.84,-91.05 449.01,-81.84"/>
<polygon fill="#63b8ff" stroke="#63b8ff" points="451.87,-83.89 455.88,-74.09 446.63,-79.25 451.87,-83.89"/>
</a>
</g>
</g>
<!-- Node15&#45;&gt;Node3 -->
<g id="edge22_Node000015_Node000003" class="edge">
<title>Node15&#45;&gt;Node3</title>
<g id="a_edge22_Node000015_Node000003"><a xlink:title=" ">
<path fill="none" stroke="#63b8ff" d="M487.73,-112.28C484.63,-111.5 481.49,-110.72 478.5,-110 410.27,-93.59 390.58,-90.87 319.18,-74.36"/>
<polygon fill="#63b8ff" stroke="#63b8ff" points="319.77,-70.9 309.24,-72.05 318.19,-77.72 319.77,-70.9"/>
</a>
</g>
</g>
<!-- Node15&#45;&gt;Node4 -->
<g id="edge23_Node000015_Node000004" class="edge">
<title>Node15&#45;&gt;Node4</title>
<g id="a_edge23_Node000015_Node000004"><a xlink:title=" ">
<path fill="none" stroke="#63b8ff" d="M512.66,-109.6C513.9,-96.65 514.51,-72.27 504.5,-55 496.91,-41.89 483.74,-31.55 471.58,-24.15"/>
<polygon fill="#63b8ff" stroke="#63b8ff" points="473.01,-20.94 462.58,-19.07 469.57,-27.04 473.01,-20.94"/>
</a>
</g>
</g>
<!-- Node15&#45;&gt;Node9 -->
<g id="edge24_Node000015_Node000009" class="edge">
<title>Node15&#45;&gt;Node9</title>
<g id="a_edge24_Node000015_Node000009"><a xlink:title=" ">
<path fill="none" stroke="#63b8ff" d="M487.74,-110.68C460.2,-101.61 414.62,-86.61 383.61,-76.4"/>
<polygon fill="#63b8ff" stroke="#63b8ff" points="384.68,-73.07 374.09,-73.27 382.5,-79.72 384.68,-73.07"/>
</a>
</g>
</g>
<!-- Node15&#45;&gt;Node12 -->
<g id="edge26_Node000015_Node000012" class="edge">
<title>Node15&#45;&gt;Node12</title>
<g id="a_edge26_Node000015_Node000012"><a xlink:title=" ">
<path fill="none" stroke="#63b8ff" d="M535.2,-111.89C537.98,-111.2 540.8,-110.56 543.5,-110 636.22,-90.87 746.69,-76.66 804.24,-69.9"/>
<polygon fill="#63b8ff" stroke="#63b8ff" points="804.82,-73.35 814.35,-68.72 804.01,-66.4 804.82,-73.35"/>
</a>
</g>
</g>
<!-- Node15&#45;&gt;Node16 -->
<g id="edge25_Node000015_Node000016" class="edge">
<title>Node15&#45;&gt;Node16</title>
<g id="a_edge25_Node000015_Node000016"><a xlink:title=" ">
<path fill="none" stroke="#63b8ff" d="M533.67,-109.98C557.35,-100.89 594.95,-86.45 620.86,-76.5"/>
<polygon fill="#63b8ff" stroke="#63b8ff" points="622.41,-79.65 630.49,-72.8 619.9,-73.12 622.41,-79.65"/>
</a>
</g>
</g>
<!-- Node19&#45;&gt;Node3 -->
<g id="edge35_Node000019_Node000003" class="edge">
<title>Node19&#45;&gt;Node3</title>
<g id="a_edge35_Node000019_Node000003"><a xlink:title=" ">
<path fill="none" stroke="#63b8ff" d="M84.42,-109.98C128.81,-100.02 201.83,-83.62 245.72,-73.76"/>
<polygon fill="#63b8ff" stroke="#63b8ff" points="246.7,-77.13 255.69,-71.52 245.16,-70.3 246.7,-77.13"/>
</a>
</g>
</g>
<!-- Node19&#45;&gt;Node7 -->
<g id="edge36_Node000019_Node000007" class="edge">
<title>Node19&#45;&gt;Node7</title>
<g id="a_edge36_Node000019_Node000007"><a xlink:title=" ">
<path fill="none" stroke="#63b8ff" d="M68.31,-109.98C104.66,-96.15 180.19,-68.94 246.5,-55 386.51,-25.56 557.47,-15.04 627.85,-11.79"/>
<polygon fill="#63b8ff" stroke="#63b8ff" points="628.43,-15.26 638.26,-11.32 628.12,-8.27 628.43,-15.26"/>
</a>
</g>
</g>
<!-- Node19&#45;&gt;Node9 -->
<g id="edge37_Node000019_Node000009" class="edge">
<title>Node19&#45;&gt;Node9</title>
<g id="a_edge37_Node000019_Node000009"><a xlink:title=" ">
<path fill="none" stroke="#63b8ff" d="M93.07,-111.09C158.56,-100.63 273.86,-82.09 316.7,-73.9"/>
<polygon fill="#63b8ff" stroke="#63b8ff" points="317.65,-77.28 326.77,-71.88 316.27,-70.42 317.65,-77.28"/>
</a>
</g>
</g>
</g>
</svg>
