<?xml version="1.0" encoding="UTF-8" standalone="no"?>
<!DOCTYPE svg PUBLIC "-//W3C//DTD SVG 1.1//EN"
 "http://www.w3.org/Graphics/SVG/1.1/DTD/svg11.dtd">
<!-- Generated by graphviz version 2.43.0 (0)
 -->
<!-- Title: src/OrcaRunLoader.h Pages: 1 -->
<svg width="1935pt" height="357pt"
 viewBox="0.00 0.00 1935.00 357.00" xmlns="http://www.w3.org/2000/svg" xmlns:xlink="http://www.w3.org/1999/xlink">
<g id="graph0" class="graph" transform="scale(1 1) rotate(0) translate(4 353)">
<title>src/OrcaRunLoader.h</title>
<!-- Node1 -->
<g id="Node000001" class="node">
<title>Node1</title>
<g id="a_Node000001"><a xlink:title=" ">
<polygon fill="#999999" stroke="#666666" points="1852,-349 1736,-349 1736,-330 1852,-330 1852,-349"/>
<text text-anchor="middle" x="1794" y="-337" font-family="Helvetica,sans-Serif" font-size="10.00">src/OrcaRunLoader.h</text>
</a>
</g>
</g>
<!-- Node2 -->
<g id="Node000002" class="node">
<title>Node2</title>
<g id="a_Node000002"><a xlink:href="Protein_8h.html" target="_top" xlink:title=" ">
<polygon fill="white" stroke="#666666" points="1049,-239 989,-239 989,-220 1049,-220 1049,-239"/>
<text text-anchor="middle" x="1019" y="-227" font-family="Helvetica,sans-Serif" font-size="10.00">Protein.h</text>
</a>
</g>
</g>
<!-- Node1&#45;&gt;Node2 -->
<g id="edge1_Node000001_Node000002" class="edge">
<title>Node1&#45;&gt;Node2</title>
<g id="a_edge1_Node000001_Node000002"><a xlink:title=" ">
<path fill="none" stroke="#63b8ff" d="M1735.75,-330.38C1585.44,-309.44 1187.33,-253.96 1059.28,-236.11"/>
<polygon fill="#63b8ff" stroke="#63b8ff" points="1059.52,-232.61 1049.13,-234.7 1058.55,-239.55 1059.52,-232.61"/>
</a>
</g>
</g>
<!-- Node7 -->
<g id="Node000007" class="node">
<title>Node7</title>
<g id="a_Node000007"><a xlink:title=" ">
<polygon fill="#e0e0e0" stroke="#999999" points="1525,-19 1481,-19 1481,0 1525,0 1525,-19"/>
<text text-anchor="middle" x="1503" y="-7" font-family="Helvetica,sans-Serif" font-size="10.00">string</text>
</a>
</g>
</g>
<!-- Node1&#45;&gt;Node7 -->
<g id="edge78_Node000001_Node000007" class="edge">
<title>Node1&#45;&gt;Node7</title>
<g id="a_edge78_Node000001_Node000007"><a xlink:title=" ">
<path fill="none" stroke="#63b8ff" d="M1821.56,-329.98C1860.51,-316.03 1927,-284.34 1927,-230.5 1927,-230.5 1927,-230.5 1927,-118.5 1927,-37.7 1634.17,-16.61 1535.22,-11.79"/>
<polygon fill="#63b8ff" stroke="#63b8ff" points="1535.35,-8.29 1525.2,-11.32 1535.03,-15.28 1535.35,-8.29"/>
</a>
</g>
</g>
<!-- Node27 -->
<g id="Node000027" class="node">
<title>Node27</title>
<g id="a_Node000027"><a xlink:href="BuildResult_8h.html" target="_top" xlink:title=" ">
<polygon fill="white" stroke="#666666" points="1815.5,-184 1734.5,-184 1734.5,-165 1815.5,-165 1815.5,-184"/>
<text text-anchor="middle" x="1775" y="-172" font-family="Helvetica,sans-Serif" font-size="10.00">BuildResult.h</text>
</a>
</g>
</g>
<!-- Node1&#45;&gt;Node27 -->
<g id="edge67_Node000001_Node000027" class="edge">
<title>Node1&#45;&gt;Node27</title>
<g id="a_edge67_Node000001_Node000027"><a xlink:title=" ">
<path fill="none" stroke="#63b8ff" d="M1789.4,-329.94C1784.98,-321.19 1778.6,-307.08 1776,-294 1769.1,-259.32 1771.01,-217.79 1773.02,-194.24"/>
<polygon fill="#63b8ff" stroke="#63b8ff" points="1776.51,-194.52 1773.97,-184.24 1769.54,-193.86 1776.51,-194.52"/>
</a>
</g>
</g>
<!-- Node29 -->
<g id="Node000029" class="node">
<title>Node29</title>
<g id="a_Node000029"><a xlink:href="PdbFileReader_8h.html" target="_top" xlink:title=" ">
<polygon fill="white" stroke="#666666" points="1879.5,-294 1784.5,-294 1784.5,-275 1879.5,-275 1879.5,-294"/>
<text text-anchor="middle" x="1832" y="-282" font-family="Helvetica,sans-Serif" font-size="10.00">PdbFileReader.h</text>
</a>
</g>
</g>
<!-- Node1&#45;&gt;Node29 -->
<g id="edge74_Node000001_Node000029" class="edge">
<title>Node1&#45;&gt;Node29</title>
<g id="a_edge74_Node000001_Node000029"><a xlink:title=" ">
<path fill="none" stroke="#63b8ff" d="M1800.27,-329.75C1805.59,-322.34 1813.36,-311.5 1819.88,-302.41"/>
<polygon fill="#63b8ff" stroke="#63b8ff" points="1822.86,-304.26 1825.84,-294.09 1817.17,-300.18 1822.86,-304.26"/>
</a>
</g>
</g>
<!-- Node3 -->
<g id="Node000003" class="node">
<title>Node3</title>
<g id="a_Node000003"><a xlink:href="Types_8h.html" target="_top" xlink:title=" ">
<polygon fill="white" stroke="#666666" points="547.5,-74 494.5,-74 494.5,-55 547.5,-55 547.5,-74"/>
<text text-anchor="middle" x="521" y="-62" font-family="Helvetica,sans-Serif" font-size="10.00">Types.h</text>
</a>
</g>
</g>
<!-- Node2&#45;&gt;Node3 -->
<g id="edge2_Node000002_Node000003" class="edge">
<title>Node2&#45;&gt;Node3</title>
<g id="a_edge2_Node000002_Node000003"><a xlink:title=" ">
<path fill="none" stroke="#63b8ff" d="M988.9,-227.92C830,-224.54 93.65,-204.84 31,-129 -31.89,-52.87 361.29,-87.62 484.3,-73.62"/>
<polygon fill="#63b8ff" stroke="#63b8ff" points="484.91,-77.07 494.35,-72.27 483.98,-70.13 484.91,-77.07"/>
</a>
</g>
</g>
<!-- Node2&#45;&gt;Node7 -->
<g id="edge66_Node000002_Node000007" class="edge">
<title>Node2&#45;&gt;Node7</title>
<g id="a_edge66_Node000002_Node000007"><a xlink:title=" ">
<path fill="none" stroke="#63b8ff" d="M1049.44,-227.98C1193.14,-225.37 1797.85,-212.69 1825,-184 1860.89,-146.08 1926.72,-170.82 1771,-55 1734.15,-27.59 1598.29,-16.13 1535.37,-12.22"/>
<polygon fill="#63b8ff" stroke="#63b8ff" points="1535.41,-8.71 1525.22,-11.61 1534.99,-15.7 1535.41,-8.71"/>
</a>
</g>
</g>
<!-- Node8 -->
<g id="Node000008" class="node">
<title>Node8</title>
<g id="a_Node000008"><a xlink:href="Atom_8h.html" target="_top" xlink:title=" ">
<polygon fill="white" stroke="#666666" points="1529,-129 1477,-129 1477,-110 1529,-110 1529,-129"/>
<text text-anchor="middle" x="1503" y="-117" font-family="Helvetica,sans-Serif" font-size="10.00">Atom.h</text>
</a>
</g>
</g>
<!-- Node2&#45;&gt;Node8 -->
<g id="edge7_Node000002_Node000008" class="edge">
<title>Node2&#45;&gt;Node8</title>
<g id="a_edge7_Node000002_Node000008"><a xlink:title=" ">
<path fill="none" stroke="#63b8ff" d="M1049.27,-222.01C1120.28,-206.75 1303.37,-167.11 1466.89,-129.22"/>
<polygon fill="#63b8ff" stroke="#63b8ff" points="1467.69,-132.63 1476.64,-126.96 1466.11,-125.81 1467.69,-132.63"/>
</a>
</g>
</g>
<!-- Node9 -->
<g id="Node000009" class="node">
<title>Node9</title>
<g id="a_Node000009"><a xlink:title=" ">
<polygon fill="#e0e0e0" stroke="#999999" points="1445,-74 1387,-74 1387,-55 1445,-55 1445,-74"/>
<text text-anchor="middle" x="1416" y="-62" font-family="Helvetica,sans-Serif" font-size="10.00">memory</text>
</a>
</g>
</g>
<!-- Node2&#45;&gt;Node9 -->
<g id="edge65_Node000002_Node000009" class="edge">
<title>Node2&#45;&gt;Node9</title>
<g id="a_edge65_Node000002_Node000009"><a xlink:title=" ">
<path fill="none" stroke="#63b8ff" d="M1049.19,-227.58C1150.54,-223.81 1475.78,-205.82 1538,-129 1543.31,-122.44 1542.84,-116.92 1538,-110 1532.93,-102.75 1488.19,-87.65 1454.35,-77.06"/>
<polygon fill="#63b8ff" stroke="#63b8ff" points="1455.28,-73.69 1444.69,-74.07 1453.21,-80.38 1455.28,-73.69"/>
</a>
</g>
</g>
<!-- Node10 -->
<g id="Node000010" class="node">
<title>Node10</title>
<g id="a_Node000010"><a xlink:title=" ">
<polygon fill="#e0e0e0" stroke="#999999" points="884.5,-74 837.5,-74 837.5,-55 884.5,-55 884.5,-74"/>
<text text-anchor="middle" x="861" y="-62" font-family="Helvetica,sans-Serif" font-size="10.00">vector</text>
</a>
</g>
</g>
<!-- Node2&#45;&gt;Node10 -->
<g id="edge64_Node000002_Node000010" class="edge">
<title>Node2&#45;&gt;Node10</title>
<g id="a_edge64_Node000002_Node000010"><a xlink:title=" ">
<path fill="none" stroke="#63b8ff" d="M999.94,-219.77C970.19,-205.18 912.83,-173.05 881,-129 871.38,-115.68 866.27,-97.57 863.64,-84.09"/>
<polygon fill="#63b8ff" stroke="#63b8ff" points="867.06,-83.36 861.96,-74.08 860.16,-84.52 867.06,-83.36"/>
</a>
</g>
</g>
<!-- Node11 -->
<g id="Node000011" class="node">
<title>Node11</title>
<g id="a_Node000011"><a xlink:href="Residue_8h.html" target="_top" xlink:title=" ">
<polygon fill="white" stroke="#666666" points="1051.5,-184 986.5,-184 986.5,-165 1051.5,-165 1051.5,-184"/>
<text text-anchor="middle" x="1019" y="-172" font-family="Helvetica,sans-Serif" font-size="10.00">Residue.h</text>
</a>
</g>
</g>
<!-- Node2&#45;&gt;Node11 -->
<g id="edge12_Node000002_Node000011" class="edge">
<title>Node2&#45;&gt;Node11</title>
<g id="a_edge12_Node000002_Node000011"><a xlink:title=" ">
<path fill="none" stroke="#63b8ff" d="M1019,-219.75C1019,-212.8 1019,-202.85 1019,-194.13"/>
<polygon fill="#63b8ff" stroke="#63b8ff" points="1022.5,-194.09 1019,-184.09 1015.5,-194.09 1022.5,-194.09"/>
</a>
</g>
</g>
<!-- Node14 -->
<g id="Node000014" class="node">
<title>Node14</title>
<g id="a_Node000014"><a xlink:href="Bond_8h.html" target="_top" xlink:title=" ">
<polygon fill="white" stroke="#666666" points="757,-129 707,-129 707,-110 757,-110 757,-129"/>
<text text-anchor="middle" x="732" y="-117" font-family="Helvetica,sans-Serif" font-size="10.00">Bond.h</text>
</a>
</g>
</g>
<!-- Node2&#45;&gt;Node14 -->
<g id="edge21_Node000002_Node000014" class="edge">
<title>Node2&#45;&gt;Node14</title>
<g id="a_edge21_Node000002_Node000014"><a xlink:title=" ">
<path fill="none" stroke="#63b8ff" d="M988.77,-228.8C919.37,-228.79 751.94,-224.46 717,-184 706.05,-171.32 712.76,-152.1 720.37,-138.13"/>
<polygon fill="#63b8ff" stroke="#63b8ff" points="723.44,-139.81 725.59,-129.44 717.44,-136.21 723.44,-139.81"/>
</a>
</g>
</g>
<!-- Node15 -->
<g id="Node000015" class="node">
<title>Node15</title>
<g id="a_Node000015"><a xlink:href="Ring_8h.html" target="_top" xlink:title=" ">
<polygon fill="white" stroke="#666666" points="87.5,-129 40.5,-129 40.5,-110 87.5,-110 87.5,-129"/>
<text text-anchor="middle" x="64" y="-117" font-family="Helvetica,sans-Serif" font-size="10.00">Ring.h</text>
</a>
</g>
</g>
<!-- Node2&#45;&gt;Node15 -->
<g id="edge24_Node000002_Node000015" class="edge">
<title>Node2&#45;&gt;Node15</title>
<g id="a_edge24_Node000002_Node000015"><a xlink:title=" ">
<path fill="none" stroke="#63b8ff" d="M988.88,-227.07C903.73,-222.82 654.05,-209.02 448,-184 317.79,-168.19 164.26,-139.85 97.64,-127.07"/>
<polygon fill="#63b8ff" stroke="#63b8ff" points="98.2,-123.61 87.71,-125.15 96.87,-130.48 98.2,-123.61"/>
</a>
</g>
</g>
<!-- Node17 -->
<g id="Node000017" class="node">
<title>Node17</title>
<g id="a_Node000017"><a xlink:href="CovalentTopology_8h.html" target="_top" xlink:title=" ">
<polygon fill="white" stroke="#666666" points="836.5,-184 725.5,-184 725.5,-165 836.5,-165 836.5,-184"/>
<text text-anchor="middle" x="781" y="-172" font-family="Helvetica,sans-Serif" font-size="10.00">CovalentTopology.h</text>
</a>
</g>
</g>
<!-- Node2&#45;&gt;Node17 -->
<g id="edge30_Node000002_Node000017" class="edge">
<title>Node2&#45;&gt;Node17</title>
<g id="a_edge30_Node000002_Node000017"><a xlink:title=" ">
<path fill="none" stroke="#63b8ff" d="M988.86,-221.79C948.69,-212.84 877.13,-196.91 829.36,-186.27"/>
<polygon fill="#63b8ff" stroke="#63b8ff" points="830.07,-182.84 819.55,-184.09 828.55,-189.68 830.07,-182.84"/>
</a>
</g>
</g>
<!-- Node18 -->
<g id="Node000018" class="node">
<title>Node18</title>
<g id="a_Node000018"><a xlink:href="ProteinBuildContext_8h.html" target="_top" xlink:title=" ">
<polygon fill="white" stroke="#666666" points="1708.5,-129 1585.5,-129 1585.5,-110 1708.5,-110 1708.5,-129"/>
<text text-anchor="middle" x="1647" y="-117" font-family="Helvetica,sans-Serif" font-size="10.00">ProteinBuildContext.h</text>
</a>
</g>
</g>
<!-- Node2&#45;&gt;Node18 -->
<g id="edge35_Node000002_Node000018" class="edge">
<title>Node2&#45;&gt;Node18</title>
<g id="a_edge35_Node000002_Node000018"><a xlink:title=" ">
<path fill="none" stroke="#63b8ff" d="M1049.23,-228.45C1150.26,-227.93 1475.23,-223.17 1571,-184 1595.98,-173.79 1618.89,-152.23 1632.89,-137.08"/>
<polygon fill="#63b8ff" stroke="#63b8ff" points="1635.66,-139.23 1639.7,-129.43 1630.43,-134.57 1635.66,-139.23"/>
</a>
</g>
</g>
<!-- Node19 -->
<g id="Node000019" class="node">
<title>Node19</title>
<g id="a_Node000019"><a xlink:href="ProteinConformation_8h.html" target="_top" xlink:title=" ">
<polygon fill="white" stroke="#666666" points="584.5,-184 457.5,-184 457.5,-165 584.5,-165 584.5,-184"/>
<text text-anchor="middle" x="521" y="-172" font-family="Helvetica,sans-Serif" font-size="10.00">ProteinConformation.h</text>
</a>
</g>
</g>
<!-- Node2&#45;&gt;Node19 -->
<g id="edge40_Node000002_Node000019" class="edge">
<title>Node2&#45;&gt;Node19</title>
<g id="a_edge40_Node000002_Node000019"><a xlink:title=" ">
<path fill="none" stroke="#63b8ff" d="M988.97,-225.3C912.09,-217.12 706.41,-195.23 595.06,-183.38"/>
<polygon fill="#63b8ff" stroke="#63b8ff" points="595.23,-179.88 584.91,-182.3 594.49,-186.84 595.23,-179.88"/>
</a>
</g>
</g>
<!-- Node4 -->
<g id="Node000004" class="node">
<title>Node4</title>
<g id="a_Node000004"><a xlink:title=" ">
<polygon fill="#e0e0e0" stroke="#999999" points="327.5,-19 250.5,-19 250.5,0 327.5,0 327.5,-19"/>
<text text-anchor="middle" x="289" y="-7" font-family="Helvetica,sans-Serif" font-size="10.00">Eigen/Dense</text>
</a>
</g>
</g>
<!-- Node3&#45;&gt;Node4 -->
<g id="edge3_Node000003_Node000004" class="edge">
<title>Node3&#45;&gt;Node4</title>
<g id="a_edge3_Node000003_Node000004"><a xlink:title=" ">
<path fill="none" stroke="#63b8ff" d="M494.27,-57.16C491.15,-56.43 488,-55.7 485,-55 434.5,-43.3 376.6,-30.2 336.9,-21.25"/>
<polygon fill="#63b8ff" stroke="#63b8ff" points="337.49,-17.8 326.96,-19.02 335.95,-24.63 337.49,-17.8"/>
</a>
</g>
</g>
<!-- Node5 -->
<g id="Node000005" class="node">
<title>Node5</title>
<g id="a_Node000005"><a xlink:title=" ">
<polygon fill="#e0e0e0" stroke="#999999" points="486,-19 444,-19 444,0 486,0 486,-19"/>
<text text-anchor="middle" x="465" y="-7" font-family="Helvetica,sans-Serif" font-size="10.00">array</text>
</a>
</g>
</g>
<!-- Node3&#45;&gt;Node5 -->
<g id="edge4_Node000003_Node000005" class="edge">
<title>Node3&#45;&gt;Node5</title>
<g id="a_edge4_Node000003_Node000005"><a xlink:title=" ">
<path fill="none" stroke="#63b8ff" d="M512,-54.98C503.81,-47.23 491.49,-35.58 481.53,-26.14"/>
<polygon fill="#63b8ff" stroke="#63b8ff" points="483.83,-23.5 474.16,-19.17 479.02,-28.59 483.83,-23.5"/>
</a>
</g>
</g>
<!-- Node6 -->
<g id="Node000006" class="node">
<title>Node6</title>
<g id="a_Node000006"><a xlink:title=" ">
<polygon fill="#e0e0e0" stroke="#999999" points="600.5,-19 553.5,-19 553.5,0 600.5,0 600.5,-19"/>
<text text-anchor="middle" x="577" y="-7" font-family="Helvetica,sans-Serif" font-size="10.00">cmath</text>
</a>
</g>
</g>
<!-- Node3&#45;&gt;Node6 -->
<g id="edge5_Node000003_Node000006" class="edge">
<title>Node3&#45;&gt;Node6</title>
<g id="a_edge5_Node000003_Node000006"><a xlink:title=" ">
<path fill="none" stroke="#63b8ff" d="M530,-54.98C538.19,-47.23 550.51,-35.58 560.47,-26.14"/>
<polygon fill="#63b8ff" stroke="#63b8ff" points="562.98,-28.59 567.84,-19.17 558.17,-23.5 562.98,-28.59"/>
</a>
</g>
</g>
<!-- Node3&#45;&gt;Node7 -->
<g id="edge6_Node000003_Node000007" class="edge">
<title>Node3&#45;&gt;Node7</title>
<g id="a_edge6_Node000003_Node000007"><a xlink:title=" ">
<path fill="none" stroke="#63b8ff" d="M547.8,-57.31C552.51,-56.41 557.38,-55.58 562,-55 915.99,-10.22 1350.04,-9.44 1470.61,-10.19"/>
<polygon fill="#63b8ff" stroke="#63b8ff" points="1470.64,-13.69 1480.66,-10.27 1470.68,-6.69 1470.64,-13.69"/>
</a>
</g>
</g>
<!-- Node8&#45;&gt;Node3 -->
<g id="edge8_Node000008_Node000003" class="edge">
<title>Node8&#45;&gt;Node3</title>
<g id="a_edge8_Node000008_Node000003"><a xlink:title=" ">
<path fill="none" stroke="#63b8ff" d="M1476.73,-111.55C1473.8,-110.95 1470.85,-110.41 1468,-110 1376.83,-96.91 721.11,-72.69 557.77,-66.81"/>
<polygon fill="#63b8ff" stroke="#63b8ff" points="557.86,-63.31 547.74,-66.45 557.61,-70.31 557.86,-63.31"/>
</a>
</g>
</g>
<!-- Node8&#45;&gt;Node7 -->
<g id="edge10_Node000008_Node000007" class="edge">
<title>Node8&#45;&gt;Node7</title>
<g id="a_edge10_Node000008_Node000007"><a xlink:title=" ">
<path fill="none" stroke="#63b8ff" d="M1503,-109.66C1503,-92.17 1503,-52.8 1503,-29.27"/>
<polygon fill="#63b8ff" stroke="#63b8ff" points="1506.5,-29.16 1503,-19.16 1499.5,-29.16 1506.5,-29.16"/>
</a>
</g>
</g>
<!-- Node8&#45;&gt;Node9 -->
<g id="edge9_Node000008_Node000009" class="edge">
<title>Node8&#45;&gt;Node9</title>
<g id="a_edge9_Node000008_Node000009"><a xlink:title=" ">
<path fill="none" stroke="#63b8ff" d="M1489.02,-109.98C1475.53,-101.77 1454.87,-89.18 1438.96,-79.49"/>
<polygon fill="#63b8ff" stroke="#63b8ff" points="1440.59,-76.38 1430.23,-74.17 1436.95,-82.36 1440.59,-76.38"/>
</a>
</g>
</g>
<!-- Node8&#45;&gt;Node10 -->
<g id="edge11_Node000008_Node000010" class="edge">
<title>Node8&#45;&gt;Node10</title>
<g id="a_edge11_Node000008_Node000010"><a xlink:title=" ">
<path fill="none" stroke="#63b8ff" d="M1476.72,-111.63C1473.79,-111.01 1470.84,-110.45 1468,-110 1251.36,-75.99 987.05,-67.88 894.74,-66.02"/>
<polygon fill="#63b8ff" stroke="#63b8ff" points="894.66,-62.52 884.6,-65.83 894.53,-69.52 894.66,-62.52"/>
</a>
</g>
</g>
<!-- Node11&#45;&gt;Node3 -->
<g id="edge13_Node000011_Node000003" class="edge">
<title>Node11&#45;&gt;Node3</title>
<g id="a_edge13_Node000011_Node000003"><a xlink:title=" ">
<path fill="none" stroke="#63b8ff" d="M987.6,-164.91C939.93,-152.02 846.34,-127.36 766,-110 692.38,-94.09 605.5,-79.23 557.5,-71.35"/>
<polygon fill="#63b8ff" stroke="#63b8ff" points="558.01,-67.89 547.58,-69.73 556.89,-74.8 558.01,-67.89"/>
</a>
</g>
</g>
<!-- Node11&#45;&gt;Node7 -->
<g id="edge18_Node000011_Node000007" class="edge">
<title>Node11&#45;&gt;Node7</title>
<g id="a_edge18_Node000011_Node000007"><a xlink:title=" ">
<path fill="none" stroke="#63b8ff" d="M1051.95,-172.64C1187.35,-168.97 1694.94,-153.58 1718,-129 1776.93,-66.2 1608.89,-28.71 1535.46,-15.7"/>
<polygon fill="#63b8ff" stroke="#63b8ff" points="1535.8,-12.21 1525.35,-13.96 1534.61,-19.11 1535.8,-12.21"/>
</a>
</g>
</g>
<!-- Node11&#45;&gt;Node10 -->
<g id="edge19_Node000011_Node000010" class="edge">
<title>Node11&#45;&gt;Node10</title>
<g id="a_edge19_Node000011_Node000010"><a xlink:title=" ">
<path fill="none" stroke="#63b8ff" d="M1018.86,-164.84C1018.16,-151.31 1014.83,-125.11 1000,-110 972.1,-81.56 926.04,-71.27 894.65,-67.56"/>
<polygon fill="#63b8ff" stroke="#63b8ff" points="894.92,-64.07 884.61,-66.54 894.21,-71.03 894.92,-64.07"/>
</a>
</g>
</g>
<!-- Node12 -->
<g id="Node000012" class="node">
<title>Node12</title>
<g id="a_Node000012"><a xlink:href="AminoAcidType_8h.html" target="_top" xlink:title=" ">
<polygon fill="white" stroke="#666666" points="990.5,-129 889.5,-129 889.5,-110 990.5,-110 990.5,-129"/>
<text text-anchor="middle" x="940" y="-117" font-family="Helvetica,sans-Serif" font-size="10.00">AminoAcidType.h</text>
</a>
</g>
</g>
<!-- Node11&#45;&gt;Node12 -->
<g id="edge14_Node000011_Node000012" class="edge">
<title>Node11&#45;&gt;Node12</title>
<g id="a_edge14_Node000011_Node000012"><a xlink:title=" ">
<path fill="none" stroke="#63b8ff" d="M1006.31,-164.98C994.17,-156.84 975.64,-144.41 961.25,-134.76"/>
<polygon fill="#63b8ff" stroke="#63b8ff" points="963.18,-131.84 952.92,-129.17 959.28,-137.65 963.18,-131.84"/>
</a>
</g>
</g>
<!-- Node13 -->
<g id="Node000013" class="node">
<title>Node13</title>
<g id="a_Node000013"><a xlink:title=" ">
<polygon fill="#e0e0e0" stroke="#999999" points="1459,-129 1415,-129 1415,-110 1459,-110 1459,-129"/>
<text text-anchor="middle" x="1437" y="-117" font-family="Helvetica,sans-Serif" font-size="10.00">limits</text>
</a>
</g>
</g>
<!-- Node11&#45;&gt;Node13 -->
<g id="edge20_Node000011_Node000013" class="edge">
<title>Node11&#45;&gt;Node13</title>
<g id="a_edge20_Node000011_Node000013"><a xlink:title=" ">
<path fill="none" stroke="#63b8ff" d="M1051.63,-170.98C1117.85,-165.59 1272.6,-151.56 1401,-129 1402.28,-128.77 1403.58,-128.53 1404.9,-128.28"/>
<polygon fill="#63b8ff" stroke="#63b8ff" points="1405.95,-131.63 1415,-126.12 1404.49,-124.79 1405.95,-131.63"/>
</a>
</g>
</g>
<!-- Node12&#45;&gt;Node3 -->
<g id="edge15_Node000012_Node000003" class="edge">
<title>Node12&#45;&gt;Node3</title>
<g id="a_edge15_Node000012_Node000003"><a xlink:title=" ">
<path fill="none" stroke="#63b8ff" d="M889.46,-112.11C803.92,-101.29 632.6,-79.62 557.59,-70.13"/>
<polygon fill="#63b8ff" stroke="#63b8ff" points="558.02,-66.66 547.66,-68.87 557.15,-73.6 558.02,-66.66"/>
</a>
</g>
</g>
<!-- Node12&#45;&gt;Node7 -->
<g id="edge16_Node000012_Node000007" class="edge">
<title>Node12&#45;&gt;Node7</title>
<g id="a_edge16_Node000012_Node000007"><a xlink:title=" ">
<path fill="none" stroke="#63b8ff" d="M963.36,-109.92C1001.49,-96.26 1079.69,-69.6 1148,-55 1265.43,-29.91 1407.94,-17.34 1470.69,-12.68"/>
<polygon fill="#63b8ff" stroke="#63b8ff" points="1471.04,-16.17 1480.76,-11.96 1470.53,-9.19 1471.04,-16.17"/>
</a>
</g>
</g>
<!-- Node12&#45;&gt;Node10 -->
<g id="edge17_Node000012_Node000010" class="edge">
<title>Node12&#45;&gt;Node10</title>
<g id="a_edge17_Node000012_Node000010"><a xlink:title=" ">
<path fill="none" stroke="#63b8ff" d="M927.31,-109.98C915.17,-101.84 896.64,-89.41 882.25,-79.76"/>
<polygon fill="#63b8ff" stroke="#63b8ff" points="884.18,-76.84 873.92,-74.17 880.28,-82.65 884.18,-76.84"/>
</a>
</g>
</g>
<!-- Node14&#45;&gt;Node3 -->
<g id="edge22_Node000014_Node000003" class="edge">
<title>Node14&#45;&gt;Node3</title>
<g id="a_edge22_Node000014_Node000003"><a xlink:title=" ">
<path fill="none" stroke="#63b8ff" d="M706.97,-112.21C669.88,-102.9 600.12,-85.37 557.38,-74.64"/>
<polygon fill="#63b8ff" stroke="#63b8ff" points="558.21,-71.24 547.66,-72.2 556.5,-78.03 558.21,-71.24"/>
</a>
</g>
</g>
<!-- Node14&#45;&gt;Node10 -->
<g id="edge23_Node000014_Node000010" class="edge">
<title>Node14&#45;&gt;Node10</title>
<g id="a_edge23_Node000014_Node000010"><a xlink:title=" ">
<path fill="none" stroke="#63b8ff" d="M752.73,-109.98C773.76,-101.34 806.55,-87.87 830.54,-78.02"/>
<polygon fill="#63b8ff" stroke="#63b8ff" points="831.98,-81.21 839.9,-74.17 829.32,-74.73 831.98,-81.21"/>
</a>
</g>
</g>
<!-- Node15&#45;&gt;Node3 -->
<g id="edge25_Node000015_Node000003" class="edge">
<title>Node15&#45;&gt;Node3</title>
<g id="a_edge25_Node000015_Node000003"><a xlink:title=" ">
<path fill="none" stroke="#63b8ff" d="M87.63,-112.73C92.37,-111.71 97.33,-110.74 102,-110 267.66,-83.79 314.51,-101.02 484.32,-73.86"/>
<polygon fill="#63b8ff" stroke="#63b8ff" points="485.04,-77.29 494.35,-72.23 483.91,-70.38 485.04,-77.29"/>
</a>
</g>
</g>
<!-- Node15&#45;&gt;Node4 -->
<g id="edge26_Node000015_Node000004" class="edge">
<title>Node15&#45;&gt;Node4</title>
<g id="a_edge26_Node000015_Node000004"><a xlink:title=" ">
<path fill="none" stroke="#63b8ff" d="M82.03,-109.84C121.46,-90.92 215.53,-45.77 262.03,-23.45"/>
<polygon fill="#63b8ff" stroke="#63b8ff" points="263.69,-26.53 271.19,-19.05 260.66,-20.22 263.69,-26.53"/>
</a>
</g>
</g>
<!-- Node15&#45;&gt;Node9 -->
<g id="edge29_Node000015_Node000009" class="edge">
<title>Node15&#45;&gt;Node9</title>
<g id="a_edge29_Node000015_Node000009"><a xlink:title=" ">
<path fill="none" stroke="#63b8ff" d="M87.62,-115.15C101.4,-113.32 119.15,-111.2 135,-110 638.71,-71.94 766.37,-96.78 1271,-74 1306.79,-72.38 1347.5,-69.94 1376.66,-68.09"/>
<polygon fill="#63b8ff" stroke="#63b8ff" points="1377.09,-71.57 1386.85,-67.44 1376.65,-64.59 1377.09,-71.57"/>
</a>
</g>
</g>
<!-- Node15&#45;&gt;Node10 -->
<g id="edge27_Node000015_Node000010" class="edge">
<title>Node15&#45;&gt;Node10</title>
<g id="a_edge27_Node000015_Node000010"><a xlink:title=" ">
<path fill="none" stroke="#63b8ff" d="M87.63,-115.32C101.42,-113.56 119.17,-111.43 135,-110 401.32,-85.92 723.79,-71.23 827.3,-66.87"/>
<polygon fill="#63b8ff" stroke="#63b8ff" points="827.61,-70.36 837.46,-66.45 827.32,-63.37 827.61,-70.36"/>
</a>
</g>
</g>
<!-- Node16 -->
<g id="Node000016" class="node">
<title>Node16</title>
<g id="a_Node000016"><a xlink:title=" ">
<polygon fill="#e0e0e0" stroke="#999999" points="38,-74 0,-74 0,-55 38,-55 38,-74"/>
<text text-anchor="middle" x="19" y="-62" font-family="Helvetica,sans-Serif" font-size="10.00">map</text>
</a>
</g>
</g>
<!-- Node15&#45;&gt;Node16 -->
<g id="edge28_Node000015_Node000016" class="edge">
<title>Node15&#45;&gt;Node16</title>
<g id="a_edge28_Node000015_Node000016"><a xlink:title=" ">
<path fill="none" stroke="#63b8ff" d="M56.57,-109.75C50.15,-102.18 40.69,-91.05 32.88,-81.84"/>
<polygon fill="#63b8ff" stroke="#63b8ff" points="35.43,-79.45 26.29,-74.09 30.1,-83.98 35.43,-79.45"/>
</a>
</g>
</g>
<!-- Node17&#45;&gt;Node3 -->
<g id="edge31_Node000017_Node000003" class="edge">
<title>Node17&#45;&gt;Node3</title>
<g id="a_edge31_Node000017_Node000003"><a xlink:title=" ">
<path fill="none" stroke="#63b8ff" d="M760.16,-164.84C714.22,-145.76 604.08,-100.01 550.83,-77.89"/>
<polygon fill="#63b8ff" stroke="#63b8ff" points="552.15,-74.65 541.58,-74.05 549.47,-81.12 552.15,-74.65"/>
</a>
</g>
</g>
<!-- Node17&#45;&gt;Node9 -->
<g id="edge34_Node000017_Node000009" class="edge">
<title>Node17&#45;&gt;Node9</title>
<g id="a_edge34_Node000017_Node000009"><a xlink:title=" ">
<path fill="none" stroke="#63b8ff" d="M836.53,-170.42C977.52,-162.46 1339.82,-140.95 1363,-129 1382.48,-118.96 1397.56,-98.33 1406.57,-83.3"/>
<polygon fill="#63b8ff" stroke="#63b8ff" points="1409.73,-84.83 1411.6,-74.4 1403.64,-81.39 1409.73,-84.83"/>
</a>
</g>
</g>
<!-- Node17&#45;&gt;Node10 -->
<g id="edge33_Node000017_Node000010" class="edge">
<title>Node17&#45;&gt;Node10</title>
<g id="a_edge33_Node000017_Node000010"><a xlink:title=" ">
<path fill="none" stroke="#63b8ff" d="M787.55,-164.66C800.86,-146.69 831.27,-105.64 848.49,-82.38"/>
<polygon fill="#63b8ff" stroke="#63b8ff" points="851.45,-84.28 854.59,-74.16 845.82,-80.11 851.45,-84.28"/>
</a>
</g>
</g>
<!-- Node17&#45;&gt;Node14 -->
<g id="edge32_Node000017_Node000014" class="edge">
<title>Node17&#45;&gt;Node14</title>
<g id="a_edge32_Node000017_Node000014"><a xlink:title=" ">
<path fill="none" stroke="#63b8ff" d="M772.91,-164.75C765.84,-157.11 755.41,-145.82 746.85,-136.56"/>
<polygon fill="#63b8ff" stroke="#63b8ff" points="749.3,-134.06 739.94,-129.09 744.16,-138.81 749.3,-134.06"/>
</a>
</g>
</g>
<!-- Node18&#45;&gt;Node6 -->
<g id="edge39_Node000018_Node000006" class="edge">
<title>Node18&#45;&gt;Node6</title>
<g id="a_edge39_Node000018_Node000006"><a xlink:title=" ">
<path fill="none" stroke="#63b8ff" d="M1626.91,-109.9C1592.33,-95.55 1519.02,-67.12 1454,-55 1287.85,-24.03 751.63,-13.33 611.02,-11.01"/>
<polygon fill="#63b8ff" stroke="#63b8ff" points="610.9,-7.51 600.85,-10.85 610.79,-14.51 610.9,-7.51"/>
</a>
</g>
</g>
<!-- Node18&#45;&gt;Node7 -->
<g id="edge36_Node000018_Node000007" class="edge">
<title>Node18&#45;&gt;Node7</title>
<g id="a_edge36_Node000018_Node000007"><a xlink:title=" ">
<path fill="none" stroke="#63b8ff" d="M1637.62,-109.87C1623.73,-97.25 1596.67,-73.28 1572,-55 1557.2,-44.04 1539.77,-32.81 1526.13,-24.37"/>
<polygon fill="#63b8ff" stroke="#63b8ff" points="1527.73,-21.24 1517.37,-19.01 1524.07,-27.22 1527.73,-21.24"/>
</a>
</g>
</g>
<!-- Node18&#45;&gt;Node9 -->
<g id="edge38_Node000018_Node000009" class="edge">
<title>Node18&#45;&gt;Node9</title>
<g id="a_edge38_Node000018_Node000009"><a xlink:title=" ">
<path fill="none" stroke="#63b8ff" d="M1609.89,-109.98C1567.5,-100.26 1498.44,-84.42 1455.2,-74.49"/>
<polygon fill="#63b8ff" stroke="#63b8ff" points="1455.86,-71.05 1445.33,-72.23 1454.29,-77.88 1455.86,-71.05"/>
</a>
</g>
</g>
<!-- Node18&#45;&gt;Node10 -->
<g id="edge37_Node000018_Node000010" class="edge">
<title>Node18&#45;&gt;Node10</title>
<g id="a_edge37_Node000018_Node000010"><a xlink:title=" ">
<path fill="none" stroke="#63b8ff" d="M1585.33,-113.56C1569.88,-112.36 1553.34,-111.1 1538,-110 1291.17,-92.26 993.5,-73.67 894.69,-67.57"/>
<polygon fill="#63b8ff" stroke="#63b8ff" points="894.89,-64.07 884.69,-66.95 894.46,-71.06 894.89,-64.07"/>
</a>
</g>
</g>
<!-- Node19&#45;&gt;Node3 -->
<g id="edge41_Node000019_Node000003" class="edge">
<title>Node19&#45;&gt;Node3</title>
<g id="a_edge41_Node000019_Node000003"><a xlink:title=" ">
<path fill="none" stroke="#63b8ff" d="M457.21,-172.76C336.56,-170.21 90.75,-159.03 135,-110 185.44,-54.11 391.77,-84.54 484.18,-73.65"/>
<polygon fill="#63b8ff" stroke="#63b8ff" points="484.94,-77.08 494.34,-72.2 483.95,-70.15 484.94,-77.08"/>
</a>
</g>
</g>
<!-- Node19&#45;&gt;Node7 -->
<g id="edge62_Node000019_Node000007" class="edge">
<title>Node19&#45;&gt;Node7</title>
<g id="a_edge62_Node000019_Node000007"><a xlink:title=" ">
<path fill="none" stroke="#63b8ff" d="M534.83,-164.9C556.56,-151.67 600.31,-126.16 640,-110 721.03,-77.01 742.84,-70.19 829,-55 1073.06,-11.96 1373.47,-9.65 1470.89,-10.16"/>
<polygon fill="#63b8ff" stroke="#63b8ff" points="1470.95,-13.66 1480.97,-10.23 1471,-6.66 1470.95,-13.66"/>
</a>
</g>
</g>
<!-- Node19&#45;&gt;Node9 -->
<g id="edge61_Node000019_Node000009" class="edge">
<title>Node19&#45;&gt;Node9</title>
<g id="a_edge61_Node000019_Node000009"><a xlink:title=" ">
<path fill="none" stroke="#63b8ff" d="M584.58,-170.49C772.37,-161.53 1312.52,-135.29 1330,-129 1344.81,-123.67 1377.75,-97.52 1398.3,-80.49"/>
<polygon fill="#63b8ff" stroke="#63b8ff" points="1400.58,-83.14 1406,-74.04 1396.08,-77.77 1400.58,-83.14"/>
</a>
</g>
</g>
<!-- Node19&#45;&gt;Node10 -->
<g id="edge57_Node000019_Node000010" class="edge">
<title>Node19&#45;&gt;Node10</title>
<g id="a_edge57_Node000019_Node000010"><a xlink:title=" ">
<path fill="none" stroke="#63b8ff" d="M543.16,-164.92C576.5,-152.16 641.64,-127.77 698,-110 742.3,-96.03 794.17,-82.31 827.29,-73.88"/>
<polygon fill="#63b8ff" stroke="#63b8ff" points="828.51,-77.19 837.35,-71.34 826.8,-70.4 828.51,-77.19"/>
</a>
</g>
</g>
<!-- Node19&#45;&gt;Node15 -->
<g id="edge56_Node000019_Node000015" class="edge">
<title>Node19&#45;&gt;Node15</title>
<g id="a_edge56_Node000019_Node000015"><a xlink:title=" ">
<path fill="none" stroke="#63b8ff" d="M457.16,-169C374.75,-162.67 227.06,-149.56 102,-129 100.54,-128.76 99.05,-128.5 97.55,-128.22"/>
<polygon fill="#63b8ff" stroke="#63b8ff" points="98.13,-124.77 87.64,-126.23 96.75,-131.63 98.13,-124.77"/>
</a>
</g>
</g>
<!-- Node19&#45;&gt;Node16 -->
<g id="edge58_Node000019_Node000016" class="edge">
<title>Node19&#45;&gt;Node16</title>
<g id="a_edge58_Node000019_Node000016"><a xlink:title=" ">
<path fill="none" stroke="#63b8ff" d="M457.49,-171.94C332.06,-168.25 61.95,-157.1 31,-129 18.81,-117.93 16.65,-98.68 17.03,-84.27"/>
<polygon fill="#63b8ff" stroke="#63b8ff" points="20.54,-84.22 17.74,-74 13.56,-83.74 20.54,-84.22"/>
</a>
</g>
</g>
<!-- Node20 -->
<g id="Node000020" class="node">
<title>Node20</title>
<g id="a_Node000020"><a xlink:href="ConformationAtom_8h.html" target="_top" xlink:title=" ">
<polygon fill="white" stroke="#666666" points="263.5,-129 144.5,-129 144.5,-110 263.5,-110 263.5,-129"/>
<text text-anchor="middle" x="204" y="-117" font-family="Helvetica,sans-Serif" font-size="10.00">ConformationAtom.h</text>
</a>
</g>
</g>
<!-- Node19&#45;&gt;Node20 -->
<g id="edge42_Node000019_Node000020" class="edge">
<title>Node19&#45;&gt;Node20</title>
<g id="a_edge42_Node000019_Node000020"><a xlink:title=" ">
<path fill="none" stroke="#63b8ff" d="M470.07,-164.98C414.23,-155.65 324.67,-140.67 265.09,-130.71"/>
<polygon fill="#63b8ff" stroke="#63b8ff" points="265.51,-127.24 255.07,-129.04 264.35,-134.14 265.51,-127.24"/>
</a>
</g>
</g>
<!-- Node21 -->
<g id="Node000021" class="node">
<title>Node21</title>
<g id="a_Node000021"><a xlink:href="ConformationResult_8h.html" target="_top" xlink:title=" ">
<polygon fill="white" stroke="#666666" points="1320.5,-129 1197.5,-129 1197.5,-110 1320.5,-110 1320.5,-129"/>
<text text-anchor="middle" x="1259" y="-117" font-family="Helvetica,sans-Serif" font-size="10.00">ConformationResult.h</text>
</a>
</g>
</g>
<!-- Node19&#45;&gt;Node21 -->
<g id="edge46_Node000019_Node000021" class="edge">
<title>Node19&#45;&gt;Node21</title>
<g id="a_edge46_Node000019_Node000021"><a xlink:title=" ">
<path fill="none" stroke="#63b8ff" d="M584.52,-170.17C702.53,-163.77 963.58,-148.64 1183,-129 1184.3,-128.88 1185.62,-128.76 1186.94,-128.64"/>
<polygon fill="#63b8ff" stroke="#63b8ff" points="1187.61,-132.09 1197.22,-127.64 1186.93,-125.12 1187.61,-132.09"/>
</a>
</g>
</g>
<!-- Node22 -->
<g id="Node000022" class="node">
<title>Node22</title>
<g id="a_Node000022"><a xlink:title=" ">
<polygon fill="#e0e0e0" stroke="#999999" points="1261.5,-74 1196.5,-74 1196.5,-55 1261.5,-55 1261.5,-74"/>
<text text-anchor="middle" x="1229" y="-62" font-family="Helvetica,sans-Serif" font-size="10.00">typeindex</text>
</a>
</g>
</g>
<!-- Node19&#45;&gt;Node22 -->
<g id="edge60_Node000019_Node000022" class="edge">
<title>Node19&#45;&gt;Node22</title>
<g id="a_edge60_Node000019_Node000022"><a xlink:title=" ">
<path fill="none" stroke="#63b8ff" d="M584.53,-170.03C739.08,-161.45 1123.98,-139.21 1150,-129 1175.98,-118.81 1200.1,-96.87 1214.68,-81.65"/>
<polygon fill="#63b8ff" stroke="#63b8ff" points="1217.54,-83.72 1221.76,-74 1212.4,-78.97 1217.54,-83.72"/>
</a>
</g>
</g>
<!-- Node23 -->
<g id="Node000023" class="node">
<title>Node23</title>
<g id="a_Node000023"><a xlink:href="GeometryChoice_8h.html" target="_top" xlink:title=" ">
<polygon fill="white" stroke="#666666" points="574.5,-129 467.5,-129 467.5,-110 574.5,-110 574.5,-129"/>
<text text-anchor="middle" x="521" y="-117" font-family="Helvetica,sans-Serif" font-size="10.00">GeometryChoice.h</text>
</a>
</g>
</g>
<!-- Node19&#45;&gt;Node23 -->
<g id="edge51_Node000019_Node000023" class="edge">
<title>Node19&#45;&gt;Node23</title>
<g id="a_edge51_Node000019_Node000023"><a xlink:title=" ">
<path fill="none" stroke="#63b8ff" d="M521,-164.75C521,-157.8 521,-147.85 521,-139.13"/>
<polygon fill="#63b8ff" stroke="#63b8ff" points="524.5,-139.09 521,-129.09 517.5,-139.09 524.5,-139.09"/>
</a>
</g>
</g>
<!-- Node25 -->
<g id="Node000025" class="node">
<title>Node25</title>
<g id="a_Node000025"><a xlink:title=" ">
<polygon fill="#e0e0e0" stroke="#999999" points="374.5,-129 281.5,-129 281.5,-110 374.5,-110 374.5,-129"/>
<text text-anchor="middle" x="328" y="-117" font-family="Helvetica,sans-Serif" font-size="10.00">unordered_map</text>
</a>
</g>
</g>
<!-- Node19&#45;&gt;Node25 -->
<g id="edge59_Node000019_Node000025" class="edge">
<title>Node19&#45;&gt;Node25</title>
<g id="a_edge59_Node000019_Node000025"><a xlink:title=" ">
<path fill="none" stroke="#63b8ff" d="M489.99,-164.98C457.17,-155.97 405.2,-141.7 369.01,-131.76"/>
<polygon fill="#63b8ff" stroke="#63b8ff" points="369.82,-128.36 359.25,-129.08 367.97,-135.11 369.82,-128.36"/>
</a>
</g>
</g>
<!-- Node26 -->
<g id="Node000026" class="node">
<title>Node26</title>
<g id="a_Node000026"><a xlink:title=" ">
<polygon fill="#e0e0e0" stroke="#999999" points="449,-129 393,-129 393,-110 449,-110 449,-129"/>
<text text-anchor="middle" x="421" y="-117" font-family="Helvetica,sans-Serif" font-size="10.00">sstream</text>
</a>
</g>
</g>
<!-- Node19&#45;&gt;Node26 -->
<g id="edge63_Node000019_Node000026" class="edge">
<title>Node19&#45;&gt;Node26</title>
<g id="a_edge63_Node000019_Node000026"><a xlink:title=" ">
<path fill="none" stroke="#63b8ff" d="M504.93,-164.98C489.14,-156.61 464.78,-143.7 446.37,-133.95"/>
<polygon fill="#63b8ff" stroke="#63b8ff" points="447.83,-130.76 437.36,-129.17 444.56,-136.95 447.83,-130.76"/>
</a>
</g>
</g>
<!-- Node20&#45;&gt;Node3 -->
<g id="edge43_Node000020_Node000003" class="edge">
<title>Node20&#45;&gt;Node3</title>
<g id="a_edge43_Node000020_Node000003"><a xlink:title=" ">
<path fill="none" stroke="#63b8ff" d="M263.71,-110.37C318.52,-102.6 402.19,-89.99 484.31,-74"/>
<polygon fill="#63b8ff" stroke="#63b8ff" points="485.17,-77.4 494.31,-72.04 483.82,-70.53 485.17,-77.4"/>
</a>
</g>
</g>
<!-- Node20&#45;&gt;Node5 -->
<g id="edge45_Node000020_Node000005" class="edge">
<title>Node20&#45;&gt;Node5</title>
<g id="a_edge45_Node000020_Node000005"><a xlink:title=" ">
<path fill="none" stroke="#63b8ff" d="M224.92,-109.84C271.04,-90.76 381.6,-45.01 435.06,-22.89"/>
<polygon fill="#63b8ff" stroke="#63b8ff" points="436.44,-26.1 444.35,-19.05 433.77,-19.64 436.44,-26.1"/>
</a>
</g>
</g>
<!-- Node20&#45;&gt;Node10 -->
<g id="edge44_Node000020_Node000010" class="edge">
<title>Node20&#45;&gt;Node10</title>
<g id="a_edge44_Node000020_Node000010"><a xlink:title=" ">
<path fill="none" stroke="#63b8ff" d="M263.69,-110.87C266.49,-110.57 269.28,-110.27 272,-110 482.81,-88.87 736.98,-72.86 827.22,-67.47"/>
<polygon fill="#63b8ff" stroke="#63b8ff" points="827.62,-70.95 837.4,-66.87 827.21,-63.97 827.62,-70.95"/>
</a>
</g>
</g>
<!-- Node21&#45;&gt;Node7 -->
<g id="edge47_Node000021_Node000007" class="edge">
<title>Node21&#45;&gt;Node7</title>
<g id="a_edge47_Node000021_Node000007"><a xlink:title=" ">
<path fill="none" stroke="#63b8ff" d="M1273.31,-109.97C1295.32,-97.05 1339.02,-72.23 1378,-55 1409.06,-41.27 1445.81,-28.6 1471.38,-20.32"/>
<polygon fill="#63b8ff" stroke="#63b8ff" points="1472.48,-23.64 1480.94,-17.26 1470.35,-16.97 1472.48,-23.64"/>
</a>
</g>
</g>
<!-- Node21&#45;&gt;Node9 -->
<g id="edge50_Node000021_Node000009" class="edge">
<title>Node21&#45;&gt;Node9</title>
<g id="a_edge50_Node000021_Node000009"><a xlink:title=" ">
<path fill="none" stroke="#63b8ff" d="M1284.22,-109.98C1310.36,-101.16 1351.4,-87.31 1380.73,-77.41"/>
<polygon fill="#63b8ff" stroke="#63b8ff" points="1382.22,-80.6 1390.58,-74.08 1379.98,-73.96 1382.22,-80.6"/>
</a>
</g>
</g>
<!-- Node21&#45;&gt;Node10 -->
<g id="edge48_Node000021_Node000010" class="edge">
<title>Node21&#45;&gt;Node10</title>
<g id="a_edge48_Node000021_Node000010"><a xlink:title=" ">
<path fill="none" stroke="#63b8ff" d="M1197.25,-110.28C1112.07,-98.93 961.47,-78.88 894.61,-69.98"/>
<polygon fill="#63b8ff" stroke="#63b8ff" points="894.99,-66.5 884.62,-68.64 894.07,-73.43 894.99,-66.5"/>
</a>
</g>
</g>
<!-- Node21&#45;&gt;Node22 -->
<g id="edge49_Node000021_Node000022" class="edge">
<title>Node21&#45;&gt;Node22</title>
<g id="a_edge49_Node000021_Node000022"><a xlink:title=" ">
<path fill="none" stroke="#63b8ff" d="M1254.05,-109.75C1249.94,-102.49 1243.97,-91.95 1238.9,-82.98"/>
<polygon fill="#63b8ff" stroke="#63b8ff" points="1241.83,-81.07 1233.86,-74.09 1235.74,-84.52 1241.83,-81.07"/>
</a>
</g>
</g>
<!-- Node23&#45;&gt;Node3 -->
<g id="edge52_Node000023_Node000003" class="edge">
<title>Node23&#45;&gt;Node3</title>
<g id="a_edge52_Node000023_Node000003"><a xlink:title=" ">
<path fill="none" stroke="#63b8ff" d="M521,-109.75C521,-102.8 521,-92.85 521,-84.13"/>
<polygon fill="#63b8ff" stroke="#63b8ff" points="524.5,-84.09 521,-74.09 517.5,-84.09 524.5,-84.09"/>
</a>
</g>
</g>
<!-- Node23&#45;&gt;Node7 -->
<g id="edge53_Node000023_Node000007" class="edge">
<title>Node23&#45;&gt;Node7</title>
<g id="a_edge53_Node000023_Node000007"><a xlink:title=" ">
<path fill="none" stroke="#63b8ff" d="M528.21,-109.93C540.97,-95.49 569.08,-66.75 600,-55 682.66,-23.59 1319.46,-13 1470.81,-10.91"/>
<polygon fill="#63b8ff" stroke="#63b8ff" points="1470.9,-14.41 1480.85,-10.77 1470.8,-7.41 1470.9,-14.41"/>
</a>
</g>
</g>
<!-- Node23&#45;&gt;Node10 -->
<g id="edge54_Node000023_Node000010" class="edge">
<title>Node23&#45;&gt;Node10</title>
<g id="a_edge54_Node000023_Node000010"><a xlink:title=" ">
<path fill="none" stroke="#63b8ff" d="M574.87,-110.1C645.88,-99.03 768.67,-79.89 827.58,-70.71"/>
<polygon fill="#63b8ff" stroke="#63b8ff" points="828.14,-74.17 837.48,-69.17 827.06,-67.25 828.14,-74.17"/>
</a>
</g>
</g>
<!-- Node24 -->
<g id="Node000024" class="node">
<title>Node24</title>
<g id="a_Node000024"><a xlink:title=" ">
<polygon fill="#e0e0e0" stroke="#999999" points="476.5,-74 411.5,-74 411.5,-55 476.5,-55 476.5,-74"/>
<text text-anchor="middle" x="444" y="-62" font-family="Helvetica,sans-Serif" font-size="10.00">functional</text>
</a>
</g>
</g>
<!-- Node23&#45;&gt;Node24 -->
<g id="edge55_Node000023_Node000024" class="edge">
<title>Node23&#45;&gt;Node24</title>
<g id="a_edge55_Node000023_Node000024"><a xlink:title=" ">
<path fill="none" stroke="#63b8ff" d="M508.63,-109.98C496.91,-101.92 479.08,-89.65 465.11,-80.03"/>
<polygon fill="#63b8ff" stroke="#63b8ff" points="466.82,-76.96 456.6,-74.17 462.85,-82.72 466.82,-76.96"/>
</a>
</g>
</g>
<!-- Node27&#45;&gt;Node7 -->
<g id="edge73_Node000027_Node000007" class="edge">
<title>Node27&#45;&gt;Node7</title>
<g id="a_edge73_Node000027_Node000007"><a xlink:title=" ">
<path fill="none" stroke="#63b8ff" d="M1776.18,-164.85C1778.65,-142.98 1781.76,-85.09 1751,-55 1720.83,-25.5 1595.3,-15.19 1535.26,-11.9"/>
<polygon fill="#63b8ff" stroke="#63b8ff" points="1535.36,-8.4 1525.19,-11.38 1535,-15.39 1535.36,-8.4"/>
</a>
</g>
</g>
<!-- Node27&#45;&gt;Node9 -->
<g id="edge72_Node000027_Node000009" class="edge">
<title>Node27&#45;&gt;Node9</title>
<g id="a_edge72_Node000027_Node000009"><a xlink:title=" ">
<path fill="none" stroke="#63b8ff" d="M1769.99,-164.78C1761.37,-150.65 1742.28,-123.04 1718,-110 1673.37,-86.03 1526.96,-73.04 1455.69,-68"/>
<polygon fill="#63b8ff" stroke="#63b8ff" points="1455.55,-64.49 1445.33,-67.29 1455.07,-71.47 1455.55,-64.49"/>
</a>
</g>
</g>
<!-- Node28 -->
<g id="Node000028" class="node">
<title>Node28</title>
<g id="a_Node000028"><a xlink:href="ChargeSource_8h.html" target="_top" xlink:title=" ">
<polygon fill="white" stroke="#666666" points="1140.5,-129 1047.5,-129 1047.5,-110 1140.5,-110 1140.5,-129"/>
<text text-anchor="middle" x="1094" y="-117" font-family="Helvetica,sans-Serif" font-size="10.00">ChargeSource.h</text>
</a>
</g>
</g>
<!-- Node27&#45;&gt;Node28 -->
<g id="edge68_Node000027_Node000028" class="edge">
<title>Node27&#45;&gt;Node28</title>
<g id="a_edge68_Node000027_Node000028"><a xlink:title=" ">
<path fill="none" stroke="#63b8ff" d="M1734.49,-170.61C1639.29,-163.78 1393.89,-145.94 1189,-129 1176.75,-127.99 1163.62,-126.85 1151.15,-125.74"/>
<polygon fill="#63b8ff" stroke="#63b8ff" points="1151.13,-122.22 1140.86,-124.82 1150.51,-129.2 1151.13,-122.22"/>
</a>
</g>
</g>
<!-- Node28&#45;&gt;Node3 -->
<g id="edge69_Node000028_Node000003" class="edge">
<title>Node28&#45;&gt;Node3</title>
<g id="a_edge69_Node000028_Node000003"><a xlink:title=" ">
<path fill="none" stroke="#63b8ff" d="M1047.11,-114.16C935.96,-103.88 658.3,-78.2 557.94,-68.92"/>
<polygon fill="#63b8ff" stroke="#63b8ff" points="557.97,-65.4 547.69,-67.97 557.32,-72.37 557.97,-65.4"/>
</a>
</g>
</g>
<!-- Node28&#45;&gt;Node7 -->
<g id="edge70_Node000028_Node000007" class="edge">
<title>Node28&#45;&gt;Node7</title>
<g id="a_edge70_Node000028_Node000007"><a xlink:title=" ">
<path fill="none" stroke="#63b8ff" d="M1103.57,-109.8C1119.68,-95.71 1153.81,-68.15 1188,-55 1286.03,-17.29 1412.23,-11.05 1470.67,-10.33"/>
<polygon fill="#63b8ff" stroke="#63b8ff" points="1470.79,-13.83 1480.76,-10.26 1470.74,-6.83 1470.79,-13.83"/>
</a>
</g>
</g>
<!-- Node28&#45;&gt;Node10 -->
<g id="edge71_Node000028_Node000010" class="edge">
<title>Node28&#45;&gt;Node10</title>
<g id="a_edge71_Node000028_Node000010"><a xlink:title=" ">
<path fill="none" stroke="#63b8ff" d="M1056.56,-109.98C1011.76,-99.79 937.42,-82.88 894.46,-73.11"/>
<polygon fill="#63b8ff" stroke="#63b8ff" points="895.03,-69.65 884.5,-70.85 893.48,-76.48 895.03,-69.65"/>
</a>
</g>
</g>
<!-- Node29&#45;&gt;Node2 -->
<g id="edge75_Node000029_Node000002" class="edge">
<title>Node29&#45;&gt;Node2</title>
<g id="a_edge75_Node000029_Node000002"><a xlink:title=" ">
<path fill="none" stroke="#63b8ff" d="M1784.48,-280.4C1638,-270.85 1195.18,-241.99 1059.17,-233.12"/>
<polygon fill="#63b8ff" stroke="#63b8ff" points="1059.38,-229.63 1049.18,-232.47 1058.93,-236.61 1059.38,-229.63"/>
</a>
</g>
</g>
<!-- Node29&#45;&gt;Node7 -->
<g id="edge77_Node000029_Node000007" class="edge">
<title>Node29&#45;&gt;Node7</title>
<g id="a_edge77_Node000029_Node000007"><a xlink:title=" ">
<path fill="none" stroke="#63b8ff" d="M1840.41,-274.8C1856.27,-257.44 1889,-216.63 1889,-175.5 1889,-175.5 1889,-175.5 1889,-118.5 1889,-45.29 1628.22,-19.46 1535.35,-12.59"/>
<polygon fill="#63b8ff" stroke="#63b8ff" points="1535.36,-9.08 1525.14,-11.86 1534.86,-16.06 1535.36,-9.08"/>
</a>
</g>
</g>
<!-- Node29&#45;&gt;Node27 -->
<g id="edge76_Node000029_Node000027" class="edge">
<title>Node29&#45;&gt;Node27</title>
<g id="a_edge76_Node000029_Node000027"><a xlink:title=" ">
<path fill="none" stroke="#63b8ff" d="M1827.34,-274.66C1817.94,-256.85 1796.57,-216.37 1784.24,-193.01"/>
<polygon fill="#63b8ff" stroke="#63b8ff" points="1787.33,-191.37 1779.57,-184.16 1781.14,-194.64 1787.33,-191.37"/>
</a>
</g>
</g>
</g>
</svg>
