<?xml version="1.0" encoding="UTF-8" standalone="no"?>
<!DOCTYPE svg PUBLIC "-//W3C//DTD SVG 1.1//EN"
 "http://www.w3.org/Graphics/SVG/1.1/DTD/svg11.dtd">
<!-- Generated by graphviz version 2.43.0 (0)
 -->
<!-- Title: src/OrcaShieldingResult.h Pages: 1 -->
<svg width="818pt" height="247pt"
 viewBox="0.00 0.00 818.10 247.00" xmlns="http://www.w3.org/2000/svg" xmlns:xlink="http://www.w3.org/1999/xlink">
<g id="graph0" class="graph" transform="scale(1 1) rotate(0) translate(4 243)">
<title>src/OrcaShieldingResult.h</title>
<!-- Node1 -->
<g id="Node000001" class="node">
<title>Node1</title>
<g id="a_Node000001"><a xlink:title=" ">
<polygon fill="#999999" stroke="#666666" points="198.3,-239 57.3,-239 57.3,-220 198.3,-220 198.3,-239"/>
<text text-anchor="middle" x="127.8" y="-227" font-family="Helvetica,sans-Serif" font-size="10.00">src/OrcaShieldingResult.h</text>
</a>
</g>
</g>
<!-- Node2 -->
<g id="Node000002" class="node">
<title>Node2</title>
<g id="a_Node000002"><a xlink:href="ConformationResult_8h.html" target="_top" xlink:title=" ">
<polygon fill="white" stroke="#666666" points="189.3,-129 66.3,-129 66.3,-110 189.3,-110 189.3,-129"/>
<text text-anchor="middle" x="127.8" y="-117" font-family="Helvetica,sans-Serif" font-size="10.00">ConformationResult.h</text>
</a>
</g>
</g>
<!-- Node1&#45;&gt;Node2 -->
<g id="edge1_Node000001_Node000002" class="edge">
<title>Node1&#45;&gt;Node2</title>
<g id="a_edge1_Node000001_Node000002"><a xlink:title=" ">
<path fill="none" stroke="#63b8ff" d="M127.8,-219.66C127.8,-202.17 127.8,-162.8 127.8,-139.27"/>
<polygon fill="#63b8ff" stroke="#63b8ff" points="131.3,-139.16 127.8,-129.16 124.3,-139.16 131.3,-139.16"/>
</a>
</g>
</g>
<!-- Node3 -->
<g id="Node000003" class="node">
<title>Node3</title>
<g id="a_Node000003"><a xlink:title=" ">
<polygon fill="#e0e0e0" stroke="#999999" points="149.8,-19 105.8,-19 105.8,0 149.8,0 149.8,-19"/>
<text text-anchor="middle" x="127.8" y="-7" font-family="Helvetica,sans-Serif" font-size="10.00">string</text>
</a>
</g>
</g>
<!-- Node1&#45;&gt;Node3 -->
<g id="edge35_Node000001_Node000003" class="edge">
<title>Node1&#45;&gt;Node3</title>
<g id="a_edge35_Node000001_Node000003"><a xlink:title=" ">
<path fill="none" stroke="#63b8ff" d="M113.91,-219.97C74.47,-194.69 -32.61,-117.96 10.8,-55 29.73,-27.55 67.98,-17.02 95.61,-12.99"/>
<polygon fill="#63b8ff" stroke="#63b8ff" points="96.12,-16.45 105.61,-11.74 95.25,-9.51 96.12,-16.45"/>
</a>
</g>
</g>
<!-- Node7 -->
<g id="Node000007" class="node">
<title>Node7</title>
<g id="a_Node000007"><a xlink:href="ProteinConformation_8h.html" target="_top" xlink:title=" ">
<polygon fill="white" stroke="#666666" points="445.3,-184 318.3,-184 318.3,-165 445.3,-165 445.3,-184"/>
<text text-anchor="middle" x="381.8" y="-172" font-family="Helvetica,sans-Serif" font-size="10.00">ProteinConformation.h</text>
</a>
</g>
</g>
<!-- Node1&#45;&gt;Node7 -->
<g id="edge6_Node000001_Node000007" class="edge">
<title>Node1&#45;&gt;Node7</title>
<g id="a_edge6_Node000001_Node000007"><a xlink:title=" ">
<path fill="none" stroke="#63b8ff" d="M168.61,-219.98C212.73,-210.78 283.13,-196.09 330.85,-186.13"/>
<polygon fill="#63b8ff" stroke="#63b8ff" points="331.6,-189.55 340.67,-184.08 330.17,-182.7 331.6,-189.55"/>
</a>
</g>
</g>
<!-- Node2&#45;&gt;Node3 -->
<g id="edge2_Node000002_Node000003" class="edge">
<title>Node2&#45;&gt;Node3</title>
<g id="a_edge2_Node000002_Node000003"><a xlink:title=" ">
<path fill="none" stroke="#63b8ff" d="M127.8,-109.66C127.8,-92.17 127.8,-52.8 127.8,-29.27"/>
<polygon fill="#63b8ff" stroke="#63b8ff" points="131.3,-29.16 127.8,-19.16 124.3,-29.16 131.3,-29.16"/>
</a>
</g>
</g>
<!-- Node4 -->
<g id="Node000004" class="node">
<title>Node4</title>
<g id="a_Node000004"><a xlink:title=" ">
<polygon fill="#e0e0e0" stroke="#999999" points="405.3,-74 358.3,-74 358.3,-55 405.3,-55 405.3,-74"/>
<text text-anchor="middle" x="381.8" y="-62" font-family="Helvetica,sans-Serif" font-size="10.00">vector</text>
</a>
</g>
</g>
<!-- Node2&#45;&gt;Node4 -->
<g id="edge3_Node000002_Node000004" class="edge">
<title>Node2&#45;&gt;Node4</title>
<g id="a_edge3_Node000002_Node000004"><a xlink:title=" ">
<path fill="none" stroke="#63b8ff" d="M173.01,-109.98C217.58,-101.43 287.56,-87.62 347.8,-74 347.9,-73.98 348.01,-73.95 348.11,-73.93"/>
<polygon fill="#63b8ff" stroke="#63b8ff" points="349.13,-77.29 358.06,-71.58 347.52,-70.47 349.13,-77.29"/>
</a>
</g>
</g>
<!-- Node5 -->
<g id="Node000005" class="node">
<title>Node5</title>
<g id="a_Node000005"><a xlink:title=" ">
<polygon fill="#e0e0e0" stroke="#999999" points="96.3,-74 31.3,-74 31.3,-55 96.3,-55 96.3,-74"/>
<text text-anchor="middle" x="63.8" y="-62" font-family="Helvetica,sans-Serif" font-size="10.00">typeindex</text>
</a>
</g>
</g>
<!-- Node2&#45;&gt;Node5 -->
<g id="edge4_Node000002_Node000005" class="edge">
<title>Node2&#45;&gt;Node5</title>
<g id="a_edge4_Node000002_Node000005"><a xlink:title=" ">
<path fill="none" stroke="#63b8ff" d="M117.52,-109.98C107.96,-102.07 93.52,-90.11 82.02,-80.58"/>
<polygon fill="#63b8ff" stroke="#63b8ff" points="84.2,-77.85 74.27,-74.17 79.74,-83.24 84.2,-77.85"/>
</a>
</g>
</g>
<!-- Node6 -->
<g id="Node000006" class="node">
<title>Node6</title>
<g id="a_Node000006"><a xlink:title=" ">
<polygon fill="#e0e0e0" stroke="#999999" points="216.8,-74 158.8,-74 158.8,-55 216.8,-55 216.8,-74"/>
<text text-anchor="middle" x="187.8" y="-62" font-family="Helvetica,sans-Serif" font-size="10.00">memory</text>
</a>
</g>
</g>
<!-- Node2&#45;&gt;Node6 -->
<g id="edge5_Node000002_Node000006" class="edge">
<title>Node2&#45;&gt;Node6</title>
<g id="a_edge5_Node000002_Node000006"><a xlink:title=" ">
<path fill="none" stroke="#63b8ff" d="M137.44,-109.98C146.31,-102.15 159.68,-90.34 170.41,-80.86"/>
<polygon fill="#63b8ff" stroke="#63b8ff" points="172.81,-83.41 177.99,-74.17 168.17,-78.17 172.81,-83.41"/>
</a>
</g>
</g>
<!-- Node7&#45;&gt;Node2 -->
<g id="edge16_Node000007_Node000002" class="edge">
<title>Node7&#45;&gt;Node2</title>
<g id="a_edge16_Node000007_Node000002"><a xlink:title=" ">
<path fill="none" stroke="#63b8ff" d="M340.99,-164.98C296.87,-155.78 226.47,-141.09 178.75,-131.13"/>
<polygon fill="#63b8ff" stroke="#63b8ff" points="179.43,-127.7 168.93,-129.08 178,-134.55 179.43,-127.7"/>
</a>
</g>
</g>
<!-- Node7&#45;&gt;Node3 -->
<g id="edge33_Node000007_Node000003" class="edge">
<title>Node7&#45;&gt;Node3</title>
<g id="a_edge33_Node000007_Node000003"><a xlink:title=" ">
<path fill="none" stroke="#63b8ff" d="M317.99,-172.34C232.95,-169.58 88.33,-160.29 46.8,-129 19.19,-108.19 3.71,-83.83 22.8,-55 38.87,-30.74 71.11,-19.66 95.64,-14.64"/>
<polygon fill="#63b8ff" stroke="#63b8ff" points="96.4,-18.05 105.62,-12.83 95.16,-11.17 96.4,-18.05"/>
</a>
</g>
</g>
<!-- Node7&#45;&gt;Node4 -->
<g id="edge28_Node000007_Node000004" class="edge">
<title>Node7&#45;&gt;Node4</title>
<g id="a_edge28_Node000007_Node000004"><a xlink:title=" ">
<path fill="none" stroke="#63b8ff" d="M381.8,-164.66C381.8,-147.17 381.8,-107.8 381.8,-84.27"/>
<polygon fill="#63b8ff" stroke="#63b8ff" points="385.3,-84.16 381.8,-74.16 378.3,-84.16 385.3,-84.16"/>
</a>
</g>
</g>
<!-- Node7&#45;&gt;Node5 -->
<g id="edge31_Node000007_Node000005" class="edge">
<title>Node7&#45;&gt;Node5</title>
<g id="a_edge31_Node000007_Node000005"><a xlink:title=" ">
<path fill="none" stroke="#63b8ff" d="M318.07,-174.22C233.47,-173.67 90.87,-166.92 57.8,-129 47.13,-116.76 50.65,-97.71 55.61,-83.67"/>
<polygon fill="#63b8ff" stroke="#63b8ff" points="58.97,-84.68 59.47,-74.1 52.48,-82.06 58.97,-84.68"/>
</a>
</g>
</g>
<!-- Node7&#45;&gt;Node6 -->
<g id="edge32_Node000007_Node000006" class="edge">
<title>Node7&#45;&gt;Node6</title>
<g id="a_edge32_Node000007_Node000006"><a xlink:title=" ">
<path fill="none" stroke="#63b8ff" d="M328.11,-164.94C299.45,-158.47 264.66,-147.44 237.8,-129 220.51,-117.13 206.36,-97.46 197.58,-83.16"/>
<polygon fill="#63b8ff" stroke="#63b8ff" points="200.46,-81.14 192.39,-74.28 194.41,-84.67 200.46,-81.14"/>
</a>
</g>
</g>
<!-- Node8 -->
<g id="Node000008" class="node">
<title>Node8</title>
<g id="a_Node000008"><a xlink:href="Types_8h.html" target="_top" xlink:title=" ">
<polygon fill="white" stroke="#666666" points="517.3,-74 464.3,-74 464.3,-55 517.3,-55 517.3,-74"/>
<text text-anchor="middle" x="490.8" y="-62" font-family="Helvetica,sans-Serif" font-size="10.00">Types.h</text>
</a>
</g>
</g>
<!-- Node7&#45;&gt;Node8 -->
<g id="edge7_Node000007_Node000008" class="edge">
<title>Node7&#45;&gt;Node8</title>
<g id="a_edge7_Node000007_Node000008"><a xlink:title=" ">
<path fill="none" stroke="#63b8ff" d="M445.37,-171.13C554.11,-166.41 766.32,-154.07 788.8,-129 794.44,-122.71 794.31,-116.4 788.8,-110 755.51,-71.37 600.05,-65.77 527.84,-65.29"/>
<polygon fill="#63b8ff" stroke="#63b8ff" points="527.41,-61.79 517.4,-65.26 527.39,-68.79 527.41,-61.79"/>
</a>
</g>
</g>
<!-- Node12 -->
<g id="Node000012" class="node">
<title>Node12</title>
<g id="a_Node000012"><a xlink:href="ConformationAtom_8h.html" target="_top" xlink:title=" ">
<polygon fill="white" stroke="#666666" points="529.3,-129 410.3,-129 410.3,-110 529.3,-110 529.3,-129"/>
<text text-anchor="middle" x="469.8" y="-117" font-family="Helvetica,sans-Serif" font-size="10.00">ConformationAtom.h</text>
</a>
</g>
</g>
<!-- Node7&#45;&gt;Node12 -->
<g id="edge12_Node000007_Node000012" class="edge">
<title>Node7&#45;&gt;Node12</title>
<g id="a_edge12_Node000007_Node000012"><a xlink:title=" ">
<path fill="none" stroke="#63b8ff" d="M395.94,-164.98C409.59,-156.77 430.49,-144.18 446.58,-134.49"/>
<polygon fill="#63b8ff" stroke="#63b8ff" points="448.64,-137.33 455.4,-129.17 445.03,-131.33 448.64,-137.33"/>
</a>
</g>
</g>
<!-- Node13 -->
<g id="Node000013" class="node">
<title>Node13</title>
<g id="a_Node000013"><a xlink:href="GeometryChoice_8h.html" target="_top" xlink:title=" ">
<polygon fill="white" stroke="#666666" points="353.3,-129 246.3,-129 246.3,-110 353.3,-110 353.3,-129"/>
<text text-anchor="middle" x="299.8" y="-117" font-family="Helvetica,sans-Serif" font-size="10.00">GeometryChoice.h</text>
</a>
</g>
</g>
<!-- Node7&#45;&gt;Node13 -->
<g id="edge17_Node000007_Node000013" class="edge">
<title>Node7&#45;&gt;Node13</title>
<g id="a_edge17_Node000007_Node000013"><a xlink:title=" ">
<path fill="none" stroke="#63b8ff" d="M368.63,-164.98C356.03,-156.84 336.8,-144.41 321.86,-134.76"/>
<polygon fill="#63b8ff" stroke="#63b8ff" points="323.51,-131.66 313.22,-129.17 319.71,-137.54 323.51,-131.66"/>
</a>
</g>
</g>
<!-- Node15 -->
<g id="Node000015" class="node">
<title>Node15</title>
<g id="a_Node000015"><a xlink:href="Ring_8h.html" target="_top" xlink:title=" ">
<polygon fill="white" stroke="#666666" points="594.3,-129 547.3,-129 547.3,-110 594.3,-110 594.3,-129"/>
<text text-anchor="middle" x="570.8" y="-117" font-family="Helvetica,sans-Serif" font-size="10.00">Ring.h</text>
</a>
</g>
</g>
<!-- Node7&#45;&gt;Node15 -->
<g id="edge22_Node000007_Node000015" class="edge">
<title>Node7&#45;&gt;Node15</title>
<g id="a_edge22_Node000007_Node000015"><a xlink:title=" ">
<path fill="none" stroke="#63b8ff" d="M412.17,-164.98C446.36,-155.4 501.75,-139.86 537.21,-129.92"/>
<polygon fill="#63b8ff" stroke="#63b8ff" points="538.41,-133.22 547.09,-127.15 536.52,-126.48 538.41,-133.22"/>
</a>
</g>
</g>
<!-- Node16 -->
<g id="Node000016" class="node">
<title>Node16</title>
<g id="a_Node000016"><a xlink:title=" ">
<polygon fill="#e0e0e0" stroke="#999999" points="750.8,-74 712.8,-74 712.8,-55 750.8,-55 750.8,-74"/>
<text text-anchor="middle" x="731.8" y="-62" font-family="Helvetica,sans-Serif" font-size="10.00">map</text>
</a>
</g>
</g>
<!-- Node7&#45;&gt;Node16 -->
<g id="edge29_Node000007_Node000016" class="edge">
<title>Node7&#45;&gt;Node16</title>
<g id="a_edge29_Node000007_Node000016"><a xlink:title=" ">
<path fill="none" stroke="#63b8ff" d="M445.64,-171.4C557.94,-167.05 781.24,-155.17 804.8,-129 823.2,-108.56 788.22,-88.3 760.6,-76.34"/>
<polygon fill="#63b8ff" stroke="#63b8ff" points="761.82,-73.06 751.24,-72.47 759.15,-79.53 761.82,-73.06"/>
</a>
</g>
</g>
<!-- Node17 -->
<g id="Node000017" class="node">
<title>Node17</title>
<g id="a_Node000017"><a xlink:title=" ">
<polygon fill="#e0e0e0" stroke="#999999" points="705.3,-129 612.3,-129 612.3,-110 705.3,-110 705.3,-129"/>
<text text-anchor="middle" x="658.8" y="-117" font-family="Helvetica,sans-Serif" font-size="10.00">unordered_map</text>
</a>
</g>
</g>
<!-- Node7&#45;&gt;Node17 -->
<g id="edge30_Node000007_Node000017" class="edge">
<title>Node7&#45;&gt;Node17</title>
<g id="a_edge30_Node000007_Node000017"><a xlink:title=" ">
<path fill="none" stroke="#63b8ff" d="M426.31,-164.98C474.62,-155.74 551.84,-140.97 603.89,-131.01"/>
<polygon fill="#63b8ff" stroke="#63b8ff" points="604.78,-134.4 613.95,-129.08 603.47,-127.52 604.78,-134.4"/>
</a>
</g>
</g>
<!-- Node18 -->
<g id="Node000018" class="node">
<title>Node18</title>
<g id="a_Node000018"><a xlink:title=" ">
<polygon fill="#e0e0e0" stroke="#999999" points="779.8,-129 723.8,-129 723.8,-110 779.8,-110 779.8,-129"/>
<text text-anchor="middle" x="751.8" y="-117" font-family="Helvetica,sans-Serif" font-size="10.00">sstream</text>
</a>
</g>
</g>
<!-- Node7&#45;&gt;Node18 -->
<g id="edge34_Node000007_Node000018" class="edge">
<title>Node7&#45;&gt;Node18</title>
<g id="a_edge34_Node000007_Node000018"><a xlink:title=" ">
<path fill="none" stroke="#63b8ff" d="M445.6,-166.76C510.67,-159.48 614.71,-146.73 713.7,-129.05"/>
<polygon fill="#63b8ff" stroke="#63b8ff" points="714.36,-132.49 723.57,-127.27 713.11,-125.6 714.36,-132.49"/>
</a>
</g>
</g>
<!-- Node8&#45;&gt;Node3 -->
<g id="edge11_Node000008_Node000003" class="edge">
<title>Node8&#45;&gt;Node3</title>
<g id="a_edge11_Node000008_Node000003"><a xlink:title=" ">
<path fill="none" stroke="#63b8ff" d="M464.11,-59.6C398.7,-50.05 230.62,-25.51 159.91,-15.19"/>
<polygon fill="#63b8ff" stroke="#63b8ff" points="160.21,-11.7 149.81,-13.71 159.2,-18.62 160.21,-11.7"/>
</a>
</g>
</g>
<!-- Node9 -->
<g id="Node000009" class="node">
<title>Node9</title>
<g id="a_Node000009"><a xlink:title=" ">
<polygon fill="#e0e0e0" stroke="#999999" points="609.3,-19 532.3,-19 532.3,0 609.3,0 609.3,-19"/>
<text text-anchor="middle" x="570.8" y="-7" font-family="Helvetica,sans-Serif" font-size="10.00">Eigen/Dense</text>
</a>
</g>
</g>
<!-- Node8&#45;&gt;Node9 -->
<g id="edge8_Node000008_Node000009" class="edge">
<title>Node8&#45;&gt;Node9</title>
<g id="a_edge8_Node000008_Node000009"><a xlink:title=" ">
<path fill="none" stroke="#63b8ff" d="M503.65,-54.98C515.94,-46.84 534.71,-34.41 549.28,-24.76"/>
<polygon fill="#63b8ff" stroke="#63b8ff" points="551.31,-27.61 557.71,-19.17 547.44,-21.78 551.31,-27.61"/>
</a>
</g>
</g>
<!-- Node10 -->
<g id="Node000010" class="node">
<title>Node10</title>
<g id="a_Node000010"><a xlink:title=" ">
<polygon fill="#e0e0e0" stroke="#999999" points="448.8,-19 406.8,-19 406.8,0 448.8,0 448.8,-19"/>
<text text-anchor="middle" x="427.8" y="-7" font-family="Helvetica,sans-Serif" font-size="10.00">array</text>
</a>
</g>
</g>
<!-- Node8&#45;&gt;Node10 -->
<g id="edge9_Node000008_Node000010" class="edge">
<title>Node8&#45;&gt;Node10</title>
<g id="a_edge9_Node000008_Node000010"><a xlink:title=" ">
<path fill="none" stroke="#63b8ff" d="M480.68,-54.98C471.37,-47.15 457.33,-35.34 446.06,-25.86"/>
<polygon fill="#63b8ff" stroke="#63b8ff" points="448.01,-22.93 438.11,-19.17 443.51,-28.29 448.01,-22.93"/>
</a>
</g>
</g>
<!-- Node11 -->
<g id="Node000011" class="node">
<title>Node11</title>
<g id="a_Node000011"><a xlink:title=" ">
<polygon fill="#e0e0e0" stroke="#999999" points="514.3,-19 467.3,-19 467.3,0 514.3,0 514.3,-19"/>
<text text-anchor="middle" x="490.8" y="-7" font-family="Helvetica,sans-Serif" font-size="10.00">cmath</text>
</a>
</g>
</g>
<!-- Node8&#45;&gt;Node11 -->
<g id="edge10_Node000008_Node000011" class="edge">
<title>Node8&#45;&gt;Node11</title>
<g id="a_edge10_Node000008_Node000011"><a xlink:title=" ">
<path fill="none" stroke="#63b8ff" d="M490.8,-54.75C490.8,-47.8 490.8,-37.85 490.8,-29.13"/>
<polygon fill="#63b8ff" stroke="#63b8ff" points="494.3,-29.09 490.8,-19.09 487.3,-29.09 494.3,-29.09"/>
</a>
</g>
</g>
<!-- Node12&#45;&gt;Node4 -->
<g id="edge14_Node000012_Node000004" class="edge">
<title>Node12&#45;&gt;Node4</title>
<g id="a_edge14_Node000012_Node000004"><a xlink:title=" ">
<path fill="none" stroke="#63b8ff" d="M455.66,-109.98C442.02,-101.77 421.11,-89.18 405.02,-79.49"/>
<polygon fill="#63b8ff" stroke="#63b8ff" points="406.57,-76.33 396.2,-74.17 402.96,-82.33 406.57,-76.33"/>
</a>
</g>
</g>
<!-- Node12&#45;&gt;Node8 -->
<g id="edge13_Node000012_Node000008" class="edge">
<title>Node12&#45;&gt;Node8</title>
<g id="a_edge13_Node000012_Node000008"><a xlink:title=" ">
<path fill="none" stroke="#63b8ff" d="M473.27,-109.75C476.08,-102.65 480.14,-92.4 483.65,-83.56"/>
<polygon fill="#63b8ff" stroke="#63b8ff" points="486.97,-84.68 487.4,-74.09 480.46,-82.1 486.97,-84.68"/>
</a>
</g>
</g>
<!-- Node12&#45;&gt;Node10 -->
<g id="edge15_Node000012_Node000010" class="edge">
<title>Node12&#45;&gt;Node10</title>
<g id="a_edge15_Node000012_Node000010"><a xlink:title=" ">
<path fill="none" stroke="#63b8ff" d="M466.36,-109.66C459.5,-92.01 443.97,-52.09 434.85,-28.64"/>
<polygon fill="#63b8ff" stroke="#63b8ff" points="438.05,-27.21 431.17,-19.16 431.53,-29.75 438.05,-27.21"/>
</a>
</g>
</g>
<!-- Node13&#45;&gt;Node3 -->
<g id="edge19_Node000013_Node000003" class="edge">
<title>Node13&#45;&gt;Node3</title>
<g id="a_edge19_Node000013_Node000003"><a xlink:title=" ">
<path fill="none" stroke="#63b8ff" d="M291.34,-109.8C278.22,-96.67 251.78,-71.57 225.8,-55 204.91,-41.68 179.37,-30.22 159.6,-22.26"/>
<polygon fill="#63b8ff" stroke="#63b8ff" points="160.71,-18.94 150.12,-18.54 158.15,-25.46 160.71,-18.94"/>
</a>
</g>
</g>
<!-- Node13&#45;&gt;Node4 -->
<g id="edge20_Node000013_Node000004" class="edge">
<title>Node13&#45;&gt;Node4</title>
<g id="a_edge20_Node000013_Node000004"><a xlink:title=" ">
<path fill="none" stroke="#63b8ff" d="M312.98,-109.98C325.57,-101.84 344.81,-89.41 359.74,-79.76"/>
<polygon fill="#63b8ff" stroke="#63b8ff" points="361.89,-82.54 368.39,-74.17 358.09,-76.66 361.89,-82.54"/>
</a>
</g>
</g>
<!-- Node13&#45;&gt;Node8 -->
<g id="edge18_Node000013_Node000008" class="edge">
<title>Node13&#45;&gt;Node8</title>
<g id="a_edge18_Node000013_Node000008"><a xlink:title=" ">
<path fill="none" stroke="#63b8ff" d="M330.49,-109.98C364.18,-100.64 418.24,-85.64 454.13,-75.67"/>
<polygon fill="#63b8ff" stroke="#63b8ff" points="455.49,-78.93 464.19,-72.88 453.62,-72.18 455.49,-78.93"/>
</a>
</g>
</g>
<!-- Node14 -->
<g id="Node000014" class="node">
<title>Node14</title>
<g id="a_Node000014"><a xlink:title=" ">
<polygon fill="#e0e0e0" stroke="#999999" points="338.3,-74 273.3,-74 273.3,-55 338.3,-55 338.3,-74"/>
<text text-anchor="middle" x="305.8" y="-62" font-family="Helvetica,sans-Serif" font-size="10.00">functional</text>
</a>
</g>
</g>
<!-- Node13&#45;&gt;Node14 -->
<g id="edge21_Node000013_Node000014" class="edge">
<title>Node13&#45;&gt;Node14</title>
<g id="a_edge21_Node000013_Node000014"><a xlink:title=" ">
<path fill="none" stroke="#63b8ff" d="M300.79,-109.75C301.58,-102.8 302.71,-92.85 303.69,-84.13"/>
<polygon fill="#63b8ff" stroke="#63b8ff" points="307.18,-84.42 304.83,-74.09 300.23,-83.63 307.18,-84.42"/>
</a>
</g>
</g>
<!-- Node15&#45;&gt;Node4 -->
<g id="edge25_Node000015_Node000004" class="edge">
<title>Node15&#45;&gt;Node4</title>
<g id="a_edge25_Node000015_Node000004"><a xlink:title=" ">
<path fill="none" stroke="#63b8ff" d="M547.25,-111.89C514.05,-102.59 453.33,-85.56 415.41,-74.92"/>
<polygon fill="#63b8ff" stroke="#63b8ff" points="415.93,-71.44 405.35,-72.11 414.04,-78.18 415.93,-71.44"/>
</a>
</g>
</g>
<!-- Node15&#45;&gt;Node6 -->
<g id="edge27_Node000015_Node000006" class="edge">
<title>Node15&#45;&gt;Node6</title>
<g id="a_edge27_Node000015_Node000006"><a xlink:title=" ">
<path fill="none" stroke="#63b8ff" d="M547.12,-111.83C544.33,-111.16 541.51,-110.53 538.8,-110 479.73,-98.46 305.44,-78.52 226.93,-69.79"/>
<polygon fill="#63b8ff" stroke="#63b8ff" points="227.27,-66.31 216.95,-68.69 226.5,-73.27 227.27,-66.31"/>
</a>
</g>
</g>
<!-- Node15&#45;&gt;Node8 -->
<g id="edge23_Node000015_Node000008" class="edge">
<title>Node15&#45;&gt;Node8</title>
<g id="a_edge23_Node000015_Node000008"><a xlink:title=" ">
<path fill="none" stroke="#63b8ff" d="M557.95,-109.98C545.66,-101.84 526.89,-89.41 512.32,-79.76"/>
<polygon fill="#63b8ff" stroke="#63b8ff" points="514.16,-76.78 503.89,-74.17 510.29,-82.61 514.16,-76.78"/>
</a>
</g>
</g>
<!-- Node15&#45;&gt;Node9 -->
<g id="edge24_Node000015_Node000009" class="edge">
<title>Node15&#45;&gt;Node9</title>
<g id="a_edge24_Node000015_Node000009"><a xlink:title=" ">
<path fill="none" stroke="#63b8ff" d="M570.8,-109.66C570.8,-92.17 570.8,-52.8 570.8,-29.27"/>
<polygon fill="#63b8ff" stroke="#63b8ff" points="574.3,-29.16 570.8,-19.16 567.3,-29.16 574.3,-29.16"/>
</a>
</g>
</g>
<!-- Node15&#45;&gt;Node16 -->
<g id="edge26_Node000015_Node000016" class="edge">
<title>Node15&#45;&gt;Node16</title>
<g id="a_edge26_Node000015_Node000016"><a xlink:title=" ">
<path fill="none" stroke="#63b8ff" d="M594.56,-110.68C623.32,-101.21 671.75,-85.27 702.72,-75.07"/>
<polygon fill="#63b8ff" stroke="#63b8ff" points="704.09,-78.31 712.5,-71.86 701.9,-71.66 704.09,-78.31"/>
</a>
</g>
</g>
</g>
</svg>
