<?xml version="1.0" encoding="UTF-8" standalone="no"?>
<!DOCTYPE svg PUBLIC "-//W3C//DTD SVG 1.1//EN"
 "http://www.w3.org/Graphics/SVG/1.1/DTD/svg11.dtd">
<!-- Generated by graphviz version 2.43.0 (0)
 -->
<!-- Title: src/PdbFileReader.h Pages: 1 -->
<svg width="1893pt" height="302pt"
 viewBox="0.00 0.00 1892.59 302.00" xmlns="http://www.w3.org/2000/svg" xmlns:xlink="http://www.w3.org/1999/xlink">
<g id="graph0" class="graph" transform="scale(1 1) rotate(0) translate(4 298)">
<title>src/PdbFileReader.h</title>
<!-- Node1 -->
<g id="Node000001" class="node">
<title>Node1</title>
<g id="a_Node000001"><a xlink:title=" ">
<polygon fill="#999999" stroke="#666666" points="659,-294 547,-294 547,-275 659,-275 659,-294"/>
<text text-anchor="middle" x="603" y="-282" font-family="Helvetica,sans-Serif" font-size="10.00">src/PdbFileReader.h</text>
</a>
</g>
</g>
<!-- Node2 -->
<g id="Node000002" class="node">
<title>Node2</title>
<g id="a_Node000002"><a xlink:href="Protein_8h.html" target="_top" xlink:title=" ">
<polygon fill="white" stroke="#666666" points="916,-239 856,-239 856,-220 916,-220 916,-239"/>
<text text-anchor="middle" x="886" y="-227" font-family="Helvetica,sans-Serif" font-size="10.00">Protein.h</text>
</a>
</g>
</g>
<!-- Node1&#45;&gt;Node2 -->
<g id="edge1_Node000001_Node000002" class="edge">
<title>Node1&#45;&gt;Node2</title>
<g id="a_edge1_Node000001_Node000002"><a xlink:title=" ">
<path fill="none" stroke="#63b8ff" d="M648.47,-274.98C703.11,-264.75 793.91,-247.75 845.99,-237.99"/>
<polygon fill="#63b8ff" stroke="#63b8ff" points="846.69,-241.42 855.87,-236.14 845.4,-234.54 846.69,-241.42"/>
</a>
</g>
</g>
<!-- Node7 -->
<g id="Node000007" class="node">
<title>Node7</title>
<g id="a_Node000007"><a xlink:title=" ">
<polygon fill="#e0e0e0" stroke="#999999" points="842,-19 798,-19 798,0 842,0 842,-19"/>
<text text-anchor="middle" x="820" y="-7" font-family="Helvetica,sans-Serif" font-size="10.00">string</text>
</a>
</g>
</g>
<!-- Node1&#45;&gt;Node7 -->
<g id="edge74_Node000001_Node000007" class="edge">
<title>Node1&#45;&gt;Node7</title>
<g id="a_edge74_Node000001_Node000007"><a xlink:title=" ">
<path fill="none" stroke="#63b8ff" d="M546.81,-279.32C397.12,-267.45 0,-230.74 0,-175.5 0,-175.5 0,-175.5 0,-118.5 0,-7.3 132.27,-72.97 242,-55 474.12,-16.98 536.43,-46.75 770,-19 775.68,-18.32 781.7,-17.44 787.52,-16.51"/>
<polygon fill="#63b8ff" stroke="#63b8ff" points="788.39,-19.91 797.67,-14.79 787.22,-13.01 788.39,-19.91"/>
</a>
</g>
</g>
<!-- Node27 -->
<g id="Node000027" class="node">
<title>Node27</title>
<g id="a_Node000027"><a xlink:href="BuildResult_8h.html" target="_top" xlink:title=" ">
<polygon fill="white" stroke="#666666" points="643.5,-184 562.5,-184 562.5,-165 643.5,-165 643.5,-184"/>
<text text-anchor="middle" x="603" y="-172" font-family="Helvetica,sans-Serif" font-size="10.00">BuildResult.h</text>
</a>
</g>
</g>
<!-- Node1&#45;&gt;Node27 -->
<g id="edge67_Node000001_Node000027" class="edge">
<title>Node1&#45;&gt;Node27</title>
<g id="a_edge67_Node000001_Node000027"><a xlink:title=" ">
<path fill="none" stroke="#63b8ff" d="M603,-274.66C603,-257.17 603,-217.8 603,-194.27"/>
<polygon fill="#63b8ff" stroke="#63b8ff" points="606.5,-194.16 603,-184.16 599.5,-194.16 606.5,-194.16"/>
</a>
</g>
</g>
<!-- Node3 -->
<g id="Node000003" class="node">
<title>Node3</title>
<g id="a_Node000003"><a xlink:href="Types_8h.html" target="_top" xlink:title=" ">
<polygon fill="white" stroke="#666666" points="600.5,-74 547.5,-74 547.5,-55 600.5,-55 600.5,-74"/>
<text text-anchor="middle" x="574" y="-62" font-family="Helvetica,sans-Serif" font-size="10.00">Types.h</text>
</a>
</g>
</g>
<!-- Node2&#45;&gt;Node3 -->
<g id="edge2_Node000002_Node000003" class="edge">
<title>Node2&#45;&gt;Node3</title>
<g id="a_edge2_Node000002_Node000003"><a xlink:title=" ">
<path fill="none" stroke="#63b8ff" d="M855.81,-227.21C715.89,-220.9 135.22,-191.11 87,-129 81.82,-122.33 81.31,-116.24 87,-110 117.22,-76.89 429.09,-68.12 537.28,-66.07"/>
<polygon fill="#63b8ff" stroke="#63b8ff" points="537.46,-69.57 547.39,-65.89 537.33,-62.57 537.46,-69.57"/>
</a>
</g>
</g>
<!-- Node2&#45;&gt;Node7 -->
<g id="edge66_Node000002_Node000007" class="edge">
<title>Node2&#45;&gt;Node7</title>
<g id="a_edge66_Node000002_Node000007"><a xlink:title=" ">
<path fill="none" stroke="#63b8ff" d="M916.28,-227.97C1014.06,-225.98 1330.03,-217.22 1589,-184 1717.95,-167.46 1939.52,-221.1 1872,-110 1844.44,-64.64 1817.25,-68.79 1766,-55 1676.36,-30.88 1008.71,-14.69 852.58,-11.2"/>
<polygon fill="#63b8ff" stroke="#63b8ff" points="852.32,-7.7 842.24,-10.97 852.16,-14.7 852.32,-7.7"/>
</a>
</g>
</g>
<!-- Node8 -->
<g id="Node000008" class="node">
<title>Node8</title>
<g id="a_Node000008"><a xlink:href="Atom_8h.html" target="_top" xlink:title=" ">
<polygon fill="white" stroke="#666666" points="958,-129 906,-129 906,-110 958,-110 958,-129"/>
<text text-anchor="middle" x="932" y="-117" font-family="Helvetica,sans-Serif" font-size="10.00">Atom.h</text>
</a>
</g>
</g>
<!-- Node2&#45;&gt;Node8 -->
<g id="edge7_Node000002_Node000008" class="edge">
<title>Node2&#45;&gt;Node8</title>
<g id="a_edge7_Node000002_Node000008"><a xlink:title=" ">
<path fill="none" stroke="#63b8ff" d="M889.76,-219.66C897.28,-202.01 914.29,-162.09 924.28,-138.64"/>
<polygon fill="#63b8ff" stroke="#63b8ff" points="927.61,-139.73 928.31,-129.16 921.17,-136.99 927.61,-139.73"/>
</a>
</g>
</g>
<!-- Node9 -->
<g id="Node000009" class="node">
<title>Node9</title>
<g id="a_Node000009"><a xlink:title=" ">
<polygon fill="#e0e0e0" stroke="#999999" points="1259,-74 1201,-74 1201,-55 1259,-55 1259,-74"/>
<text text-anchor="middle" x="1230" y="-62" font-family="Helvetica,sans-Serif" font-size="10.00">memory</text>
</a>
</g>
</g>
<!-- Node2&#45;&gt;Node9 -->
<g id="edge65_Node000002_Node000009" class="edge">
<title>Node2&#45;&gt;Node9</title>
<g id="a_edge65_Node000002_Node000009"><a xlink:title=" ">
<path fill="none" stroke="#63b8ff" d="M916.09,-228.71C1027.15,-228.74 1411.02,-222.04 1476,-129 1512.69,-76.47 1538.24,-130.26 1269.37,-75.07"/>
<polygon fill="#63b8ff" stroke="#63b8ff" points="1269.77,-71.57 1259.27,-72.97 1268.35,-78.43 1269.77,-71.57"/>
</a>
</g>
</g>
<!-- Node10 -->
<g id="Node000010" class="node">
<title>Node10</title>
<g id="a_Node000010"><a xlink:title=" ">
<polygon fill="#e0e0e0" stroke="#999999" points="863.5,-74 816.5,-74 816.5,-55 863.5,-55 863.5,-74"/>
<text text-anchor="middle" x="840" y="-62" font-family="Helvetica,sans-Serif" font-size="10.00">vector</text>
</a>
</g>
</g>
<!-- Node2&#45;&gt;Node10 -->
<g id="edge64_Node000002_Node000010" class="edge">
<title>Node2&#45;&gt;Node10</title>
<g id="a_edge64_Node000002_Node000010"><a xlink:title=" ">
<path fill="none" stroke="#63b8ff" d="M883.53,-219.74C876.32,-194.2 855.22,-119.43 845.29,-84.23"/>
<polygon fill="#63b8ff" stroke="#63b8ff" points="848.57,-82.98 842.49,-74.31 841.83,-84.88 848.57,-82.98"/>
</a>
</g>
</g>
<!-- Node11 -->
<g id="Node000011" class="node">
<title>Node11</title>
<g id="a_Node000011"><a xlink:href="Residue_8h.html" target="_top" xlink:title=" ">
<polygon fill="white" stroke="#666666" points="376.5,-184 311.5,-184 311.5,-165 376.5,-165 376.5,-184"/>
<text text-anchor="middle" x="344" y="-172" font-family="Helvetica,sans-Serif" font-size="10.00">Residue.h</text>
</a>
</g>
</g>
<!-- Node2&#45;&gt;Node11 -->
<g id="edge12_Node000002_Node000011" class="edge">
<title>Node2&#45;&gt;Node11</title>
<g id="a_edge12_Node000002_Node000011"><a xlink:title=" ">
<path fill="none" stroke="#63b8ff" d="M855.7,-225.54C764.54,-216.62 492.64,-190.03 386.81,-179.69"/>
<polygon fill="#63b8ff" stroke="#63b8ff" points="387.1,-176.2 376.81,-178.71 386.42,-183.16 387.1,-176.2"/>
</a>
</g>
</g>
<!-- Node14 -->
<g id="Node000014" class="node">
<title>Node14</title>
<g id="a_Node000014"><a xlink:href="Bond_8h.html" target="_top" xlink:title=" ">
<polygon fill="white" stroke="#666666" points="292,-129 242,-129 242,-110 292,-110 292,-129"/>
<text text-anchor="middle" x="267" y="-117" font-family="Helvetica,sans-Serif" font-size="10.00">Bond.h</text>
</a>
</g>
</g>
<!-- Node2&#45;&gt;Node14 -->
<g id="edge21_Node000002_Node000014" class="edge">
<title>Node2&#45;&gt;Node14</title>
<g id="a_edge21_Node000002_Node000014"><a xlink:title=" ">
<path fill="none" stroke="#63b8ff" d="M855.66,-223.8C816.79,-217.27 747.66,-203.97 691,-184 672.82,-177.59 670.51,-170.39 652,-165 516.29,-125.48 476.37,-145.64 336,-129 325.01,-127.7 313.04,-126.24 302.2,-124.9"/>
<polygon fill="#63b8ff" stroke="#63b8ff" points="302.58,-121.42 292.23,-123.66 301.72,-128.37 302.58,-121.42"/>
</a>
</g>
</g>
<!-- Node15 -->
<g id="Node000015" class="node">
<title>Node15</title>
<g id="a_Node000015"><a xlink:href="Ring_8h.html" target="_top" xlink:title=" ">
<polygon fill="white" stroke="#666666" points="1148.5,-129 1101.5,-129 1101.5,-110 1148.5,-110 1148.5,-129"/>
<text text-anchor="middle" x="1125" y="-117" font-family="Helvetica,sans-Serif" font-size="10.00">Ring.h</text>
</a>
</g>
</g>
<!-- Node2&#45;&gt;Node15 -->
<g id="edge24_Node000002_Node000015" class="edge">
<title>Node2&#45;&gt;Node15</title>
<g id="a_edge24_Node000002_Node000015"><a xlink:title=" ">
<path fill="none" stroke="#63b8ff" d="M905.15,-219.84C947.21,-200.84 1047.79,-155.39 1096.97,-133.17"/>
<polygon fill="#63b8ff" stroke="#63b8ff" points="1098.41,-136.35 1106.09,-129.05 1095.53,-129.98 1098.41,-136.35"/>
</a>
</g>
</g>
<!-- Node17 -->
<g id="Node000017" class="node">
<title>Node17</title>
<g id="a_Node000017"><a xlink:href="CovalentTopology_8h.html" target="_top" xlink:title=" ">
<polygon fill="white" stroke="#666666" points="811.5,-184 700.5,-184 700.5,-165 811.5,-165 811.5,-184"/>
<text text-anchor="middle" x="756" y="-172" font-family="Helvetica,sans-Serif" font-size="10.00">CovalentTopology.h</text>
</a>
</g>
</g>
<!-- Node2&#45;&gt;Node17 -->
<g id="edge30_Node000002_Node000017" class="edge">
<title>Node2&#45;&gt;Node17</title>
<g id="a_edge30_Node000002_Node000017"><a xlink:title=" ">
<path fill="none" stroke="#63b8ff" d="M865.11,-219.98C843.92,-211.34 810.87,-197.87 786.7,-188.02"/>
<polygon fill="#63b8ff" stroke="#63b8ff" points="787.85,-184.7 777.27,-184.17 785.21,-191.19 787.85,-184.7"/>
</a>
</g>
</g>
<!-- Node18 -->
<g id="Node000018" class="node">
<title>Node18</title>
<g id="a_Node000018"><a xlink:href="ProteinBuildContext_8h.html" target="_top" xlink:title=" ">
<polygon fill="white" stroke="#666666" points="1846.5,-129 1723.5,-129 1723.5,-110 1846.5,-110 1846.5,-129"/>
<text text-anchor="middle" x="1785" y="-117" font-family="Helvetica,sans-Serif" font-size="10.00">ProteinBuildContext.h</text>
</a>
</g>
</g>
<!-- Node2&#45;&gt;Node18 -->
<g id="edge35_Node000002_Node000018" class="edge">
<title>Node2&#45;&gt;Node18</title>
<g id="a_edge35_Node000002_Node000018"><a xlink:title=" ">
<path fill="none" stroke="#63b8ff" d="M916.01,-228.27C1008.16,-227.18 1294.94,-220.84 1529,-184 1607.92,-171.58 1698.18,-146.59 1747.66,-131.94"/>
<polygon fill="#63b8ff" stroke="#63b8ff" points="1748.71,-135.28 1757.29,-129.06 1746.71,-128.57 1748.71,-135.28"/>
</a>
</g>
</g>
<!-- Node19 -->
<g id="Node000019" class="node">
<title>Node19</title>
<g id="a_Node000019"><a xlink:href="ProteinConformation_8h.html" target="_top" xlink:title=" ">
<polygon fill="white" stroke="#666666" points="1316.5,-184 1189.5,-184 1189.5,-165 1316.5,-165 1316.5,-184"/>
<text text-anchor="middle" x="1253" y="-172" font-family="Helvetica,sans-Serif" font-size="10.00">ProteinConformation.h</text>
</a>
</g>
</g>
<!-- Node2&#45;&gt;Node19 -->
<g id="edge40_Node000002_Node000019" class="edge">
<title>Node2&#45;&gt;Node19</title>
<g id="a_edge40_Node000002_Node000019"><a xlink:title=" ">
<path fill="none" stroke="#63b8ff" d="M916.03,-224.16C974.15,-215.77 1103.34,-197.11 1183.8,-185.49"/>
<polygon fill="#63b8ff" stroke="#63b8ff" points="1184.45,-188.94 1193.85,-184.04 1183.45,-182.01 1184.45,-188.94"/>
</a>
</g>
</g>
<!-- Node4 -->
<g id="Node000004" class="node">
<title>Node4</title>
<g id="a_Node000004"><a xlink:title=" ">
<polygon fill="#e0e0e0" stroke="#999999" points="761.5,-19 684.5,-19 684.5,0 761.5,0 761.5,-19"/>
<text text-anchor="middle" x="723" y="-7" font-family="Helvetica,sans-Serif" font-size="10.00">Eigen/Dense</text>
</a>
</g>
</g>
<!-- Node3&#45;&gt;Node4 -->
<g id="edge3_Node000003_Node000004" class="edge">
<title>Node3&#45;&gt;Node4</title>
<g id="a_edge3_Node000003_Node000004"><a xlink:title=" ">
<path fill="none" stroke="#63b8ff" d="M597.94,-54.98C622.56,-46.23 661.12,-32.51 688.92,-22.62"/>
<polygon fill="#63b8ff" stroke="#63b8ff" points="690.38,-25.82 698.62,-19.17 688.03,-19.22 690.38,-25.82"/>
</a>
</g>
</g>
<!-- Node5 -->
<g id="Node000005" class="node">
<title>Node5</title>
<g id="a_Node000005"><a xlink:title=" ">
<polygon fill="#e0e0e0" stroke="#999999" points="469,-19 427,-19 427,0 469,0 469,-19"/>
<text text-anchor="middle" x="448" y="-7" font-family="Helvetica,sans-Serif" font-size="10.00">array</text>
</a>
</g>
</g>
<!-- Node3&#45;&gt;Node5 -->
<g id="edge4_Node000003_Node000005" class="edge">
<title>Node3&#45;&gt;Node5</title>
<g id="a_edge4_Node000003_Node000005"><a xlink:title=" ">
<path fill="none" stroke="#63b8ff" d="M553.76,-54.98C533.3,-46.38 501.47,-32.99 478.07,-23.15"/>
<polygon fill="#63b8ff" stroke="#63b8ff" points="479.19,-19.82 468.61,-19.17 476.47,-26.27 479.19,-19.82"/>
</a>
</g>
</g>
<!-- Node6 -->
<g id="Node000006" class="node">
<title>Node6</title>
<g id="a_Node000006"><a xlink:title=" ">
<polygon fill="#e0e0e0" stroke="#999999" points="1423.5,-19 1376.5,-19 1376.5,0 1423.5,0 1423.5,-19"/>
<text text-anchor="middle" x="1400" y="-7" font-family="Helvetica,sans-Serif" font-size="10.00">cmath</text>
</a>
</g>
</g>
<!-- Node3&#45;&gt;Node6 -->
<g id="edge5_Node000003_Node000006" class="edge">
<title>Node3&#45;&gt;Node6</title>
<g id="a_edge5_Node000003_Node000006"><a xlink:title=" ">
<path fill="none" stroke="#63b8ff" d="M600.55,-61.8C722.61,-53.96 1229.78,-21.42 1366.13,-12.67"/>
<polygon fill="#63b8ff" stroke="#63b8ff" points="1366.62,-16.15 1376.37,-12.02 1366.17,-9.16 1366.62,-16.15"/>
</a>
</g>
</g>
<!-- Node3&#45;&gt;Node7 -->
<g id="edge6_Node000003_Node000007" class="edge">
<title>Node3&#45;&gt;Node7</title>
<g id="a_edge6_Node000003_Node000007"><a xlink:title=" ">
<path fill="none" stroke="#63b8ff" d="M600.79,-57.73C646.39,-47.9 738.87,-27.98 787.86,-17.42"/>
<polygon fill="#63b8ff" stroke="#63b8ff" points="788.87,-20.79 797.91,-15.26 787.4,-13.94 788.87,-20.79"/>
</a>
</g>
</g>
<!-- Node8&#45;&gt;Node3 -->
<g id="edge8_Node000008_Node000003" class="edge">
<title>Node8&#45;&gt;Node3</title>
<g id="a_edge8_Node000008_Node000003"><a xlink:title=" ">
<path fill="none" stroke="#63b8ff" d="M905.97,-114.65C843.24,-105.36 683.59,-81.72 610.97,-70.97"/>
<polygon fill="#63b8ff" stroke="#63b8ff" points="611.31,-67.49 600.91,-69.48 610.29,-74.41 611.31,-67.49"/>
</a>
</g>
</g>
<!-- Node8&#45;&gt;Node7 -->
<g id="edge10_Node000008_Node000007" class="edge">
<title>Node8&#45;&gt;Node7</title>
<g id="a_edge10_Node000008_Node000007"><a xlink:title=" ">
<path fill="none" stroke="#63b8ff" d="M924.13,-109.59C912.92,-97.04 891.55,-73.61 872,-55 861.24,-44.76 848.59,-33.91 838.46,-25.49"/>
<polygon fill="#63b8ff" stroke="#63b8ff" points="840.59,-22.7 830.64,-19.05 836.14,-28.11 840.59,-22.7"/>
</a>
</g>
</g>
<!-- Node8&#45;&gt;Node9 -->
<g id="edge9_Node000008_Node000009" class="edge">
<title>Node8&#45;&gt;Node9</title>
<g id="a_edge9_Node000008_Node000009"><a xlink:title=" ">
<path fill="none" stroke="#63b8ff" d="M958.3,-112.06C961.56,-111.33 964.85,-110.63 968,-110 1065.6,-90.55 1091.14,-92.11 1189,-74 1189.6,-73.89 1190.21,-73.77 1190.82,-73.66"/>
<polygon fill="#63b8ff" stroke="#63b8ff" points="1191.77,-77.04 1200.91,-71.69 1190.43,-70.17 1191.77,-77.04"/>
</a>
</g>
</g>
<!-- Node8&#45;&gt;Node10 -->
<g id="edge11_Node000008_Node000010" class="edge">
<title>Node8&#45;&gt;Node10</title>
<g id="a_edge11_Node000008_Node000010"><a xlink:title=" ">
<path fill="none" stroke="#63b8ff" d="M917.22,-109.98C902.82,-101.69 880.69,-88.94 863.81,-79.22"/>
<polygon fill="#63b8ff" stroke="#63b8ff" points="865.46,-76.13 855.05,-74.17 861.97,-82.19 865.46,-76.13"/>
</a>
</g>
</g>
<!-- Node11&#45;&gt;Node3 -->
<g id="edge13_Node000011_Node000003" class="edge">
<title>Node11&#45;&gt;Node3</title>
<g id="a_edge13_Node000011_Node000003"><a xlink:title=" ">
<path fill="none" stroke="#63b8ff" d="M311.12,-172.65C249.91,-170.29 122.2,-161.49 95,-129 89.58,-122.52 89.31,-116.24 95,-110 124.64,-77.48 430.14,-68.34 537.19,-66.13"/>
<polygon fill="#63b8ff" stroke="#63b8ff" points="537.57,-69.62 547.5,-65.93 537.43,-62.63 537.57,-69.62"/>
</a>
</g>
</g>
<!-- Node11&#45;&gt;Node7 -->
<g id="edge18_Node000011_Node000007" class="edge">
<title>Node11&#45;&gt;Node7</title>
<g id="a_edge18_Node000011_Node000007"><a xlink:title=" ">
<path fill="none" stroke="#63b8ff" d="M311.33,-171.19C283.24,-167.28 244.3,-156.82 225,-129 195.77,-86.86 252.13,-70.5 290,-55 388.99,-14.48 663.82,-31.98 770,-19 775.68,-18.31 781.7,-17.42 787.52,-16.47"/>
<polygon fill="#63b8ff" stroke="#63b8ff" points="788.39,-19.88 797.66,-14.76 787.22,-12.98 788.39,-19.88"/>
</a>
</g>
</g>
<!-- Node11&#45;&gt;Node10 -->
<g id="edge19_Node000011_Node000010" class="edge">
<title>Node11&#45;&gt;Node10</title>
<g id="a_edge19_Node000011_Node000010"><a xlink:title=" ">
<path fill="none" stroke="#63b8ff" d="M376.68,-171.84C459.62,-167.32 676.5,-153.46 744,-129 774.19,-118.06 804.31,-95.83 822.55,-80.8"/>
<polygon fill="#63b8ff" stroke="#63b8ff" points="825.12,-83.21 830.49,-74.08 820.6,-77.86 825.12,-83.21"/>
</a>
</g>
</g>
<!-- Node12 -->
<g id="Node000012" class="node">
<title>Node12</title>
<g id="a_Node000012"><a xlink:href="AminoAcidType_8h.html" target="_top" xlink:title=" ">
<polygon fill="white" stroke="#666666" points="624.5,-129 523.5,-129 523.5,-110 624.5,-110 624.5,-129"/>
<text text-anchor="middle" x="574" y="-117" font-family="Helvetica,sans-Serif" font-size="10.00">AminoAcidType.h</text>
</a>
</g>
</g>
<!-- Node11&#45;&gt;Node12 -->
<g id="edge14_Node000011_Node000012" class="edge">
<title>Node11&#45;&gt;Node12</title>
<g id="a_edge14_Node000011_Node000012"><a xlink:title=" ">
<path fill="none" stroke="#63b8ff" d="M376.95,-165.91C416.33,-156.83 482.49,-141.59 527.17,-131.29"/>
<polygon fill="#63b8ff" stroke="#63b8ff" points="527.96,-134.7 536.92,-129.05 526.39,-127.88 527.96,-134.7"/>
</a>
</g>
</g>
<!-- Node13 -->
<g id="Node000013" class="node">
<title>Node13</title>
<g id="a_Node000013"><a xlink:title=" ">
<polygon fill="#e0e0e0" stroke="#999999" points="148,-129 104,-129 104,-110 148,-110 148,-129"/>
<text text-anchor="middle" x="126" y="-117" font-family="Helvetica,sans-Serif" font-size="10.00">limits</text>
</a>
</g>
</g>
<!-- Node11&#45;&gt;Node13 -->
<g id="edge20_Node000011_Node000013" class="edge">
<title>Node11&#45;&gt;Node13</title>
<g id="a_edge20_Node000011_Node000013"><a xlink:title=" ">
<path fill="none" stroke="#63b8ff" d="M311.36,-165.57C269.97,-155.5 199.06,-138.26 157.98,-128.28"/>
<polygon fill="#63b8ff" stroke="#63b8ff" points="158.76,-124.86 148.22,-125.9 157.11,-131.67 158.76,-124.86"/>
</a>
</g>
</g>
<!-- Node12&#45;&gt;Node3 -->
<g id="edge15_Node000012_Node000003" class="edge">
<title>Node12&#45;&gt;Node3</title>
<g id="a_edge15_Node000012_Node000003"><a xlink:title=" ">
<path fill="none" stroke="#63b8ff" d="M574,-109.75C574,-102.8 574,-92.85 574,-84.13"/>
<polygon fill="#63b8ff" stroke="#63b8ff" points="577.5,-84.09 574,-74.09 570.5,-84.09 577.5,-84.09"/>
</a>
</g>
</g>
<!-- Node12&#45;&gt;Node7 -->
<g id="edge16_Node000012_Node000007" class="edge">
<title>Node12&#45;&gt;Node7</title>
<g id="a_edge16_Node000012_Node000007"><a xlink:title=" ">
<path fill="none" stroke="#63b8ff" d="M593.72,-109.84C637,-90.84 740.53,-45.39 791.15,-23.17"/>
<polygon fill="#63b8ff" stroke="#63b8ff" points="792.78,-26.27 800.53,-19.05 789.97,-19.86 792.78,-26.27"/>
</a>
</g>
</g>
<!-- Node12&#45;&gt;Node10 -->
<g id="edge17_Node000012_Node000010" class="edge">
<title>Node12&#45;&gt;Node10</title>
<g id="a_edge17_Node000012_Node000010"><a xlink:title=" ">
<path fill="none" stroke="#63b8ff" d="M616.74,-109.98C669.55,-99.46 758.32,-81.78 806.48,-72.18"/>
<polygon fill="#63b8ff" stroke="#63b8ff" points="807.27,-75.59 816.39,-70.2 805.9,-68.73 807.27,-75.59"/>
</a>
</g>
</g>
<!-- Node14&#45;&gt;Node3 -->
<g id="edge22_Node000014_Node000003" class="edge">
<title>Node14&#45;&gt;Node3</title>
<g id="a_edge22_Node000014_Node000003"><a xlink:title=" ">
<path fill="none" stroke="#63b8ff" d="M292.14,-112.83C296.74,-111.84 301.51,-110.86 306,-110 388.34,-94.2 485.54,-78.89 537.27,-71"/>
<polygon fill="#63b8ff" stroke="#63b8ff" points="537.93,-74.44 547.29,-69.48 536.88,-67.52 537.93,-74.44"/>
</a>
</g>
</g>
<!-- Node14&#45;&gt;Node10 -->
<g id="edge23_Node000014_Node000010" class="edge">
<title>Node14&#45;&gt;Node10</title>
<g id="a_edge23_Node000014_Node000010"><a xlink:title=" ">
<path fill="none" stroke="#63b8ff" d="M292.36,-116.15C384.49,-107.63 701.56,-78.3 806.2,-68.63"/>
<polygon fill="#63b8ff" stroke="#63b8ff" points="806.58,-72.11 816.21,-67.7 805.93,-65.14 806.58,-72.11"/>
</a>
</g>
</g>
<!-- Node15&#45;&gt;Node3 -->
<g id="edge25_Node000015_Node000003" class="edge">
<title>Node15&#45;&gt;Node3</title>
<g id="a_edge25_Node000015_Node000003"><a xlink:title=" ">
<path fill="none" stroke="#63b8ff" d="M1101.34,-111.72C1098.54,-111.07 1095.72,-110.47 1093,-110 914.01,-78.8 696.31,-69.16 610.9,-66.46"/>
<polygon fill="#63b8ff" stroke="#63b8ff" points="610.78,-62.96 600.68,-66.15 610.56,-69.95 610.78,-62.96"/>
</a>
</g>
</g>
<!-- Node15&#45;&gt;Node4 -->
<g id="edge26_Node000015_Node000004" class="edge">
<title>Node15&#45;&gt;Node4</title>
<g id="a_edge26_Node000015_Node000004"><a xlink:title=" ">
<path fill="none" stroke="#63b8ff" d="M1120.53,-109.73C1112.79,-95.54 1095.43,-67.83 1072,-55 960.79,5.89 914.77,-35.1 789,-19 783.49,-18.29 777.71,-17.55 771.97,-16.82"/>
<polygon fill="#63b8ff" stroke="#63b8ff" points="772.1,-13.3 761.74,-15.5 771.21,-20.25 772.1,-13.3"/>
</a>
</g>
</g>
<!-- Node15&#45;&gt;Node9 -->
<g id="edge29_Node000015_Node000009" class="edge">
<title>Node15&#45;&gt;Node9</title>
<g id="a_edge29_Node000015_Node000009"><a xlink:title=" ">
<path fill="none" stroke="#63b8ff" d="M1141.87,-109.98C1158.61,-101.54 1184.5,-88.47 1203.89,-78.68"/>
<polygon fill="#63b8ff" stroke="#63b8ff" points="1205.47,-81.8 1212.82,-74.17 1202.32,-75.55 1205.47,-81.8"/>
</a>
</g>
</g>
<!-- Node15&#45;&gt;Node10 -->
<g id="edge27_Node000015_Node000010" class="edge">
<title>Node15&#45;&gt;Node10</title>
<g id="a_edge27_Node000015_Node000010"><a xlink:title=" ">
<path fill="none" stroke="#63b8ff" d="M1101.29,-111.96C1098.5,-111.26 1095.69,-110.59 1093,-110 1014.89,-92.79 922.06,-77.85 873.46,-70.45"/>
<polygon fill="#63b8ff" stroke="#63b8ff" points="873.91,-66.98 863.5,-68.95 872.87,-73.9 873.91,-66.98"/>
</a>
</g>
</g>
<!-- Node16 -->
<g id="Node000016" class="node">
<title>Node16</title>
<g id="a_Node000016"><a xlink:title=" ">
<polygon fill="#e0e0e0" stroke="#999999" points="1180,-74 1142,-74 1142,-55 1180,-55 1180,-74"/>
<text text-anchor="middle" x="1161" y="-62" font-family="Helvetica,sans-Serif" font-size="10.00">map</text>
</a>
</g>
</g>
<!-- Node15&#45;&gt;Node16 -->
<g id="edge28_Node000015_Node000016" class="edge">
<title>Node15&#45;&gt;Node16</title>
<g id="a_edge28_Node000015_Node000016"><a xlink:title=" ">
<path fill="none" stroke="#63b8ff" d="M1130.94,-109.75C1135.98,-102.34 1143.34,-91.5 1149.51,-82.41"/>
<polygon fill="#63b8ff" stroke="#63b8ff" points="1152.44,-84.33 1155.17,-74.09 1146.65,-80.39 1152.44,-84.33"/>
</a>
</g>
</g>
<!-- Node17&#45;&gt;Node3 -->
<g id="edge31_Node000017_Node000003" class="edge">
<title>Node17&#45;&gt;Node3</title>
<g id="a_edge31_Node000017_Node000003"><a xlink:title=" ">
<path fill="none" stroke="#63b8ff" d="M700.23,-166.65C695.41,-166.08 690.62,-165.52 686,-165 648.03,-160.7 369.57,-157.4 344,-129 338.35,-122.72 338.63,-116.51 344,-110 368.06,-80.84 478.49,-70.56 537.15,-67.12"/>
<polygon fill="#63b8ff" stroke="#63b8ff" points="537.67,-70.6 547.46,-66.56 537.29,-63.61 537.67,-70.6"/>
</a>
</g>
</g>
<!-- Node17&#45;&gt;Node9 -->
<g id="edge34_Node000017_Node000009" class="edge">
<title>Node17&#45;&gt;Node9</title>
<g id="a_edge34_Node000017_Node000009"><a xlink:title=" ">
<path fill="none" stroke="#63b8ff" d="M811.6,-173.82C914.34,-173.45 1129.13,-167.87 1191,-129 1207.4,-118.7 1217.95,-98.74 1223.89,-83.93"/>
<polygon fill="#63b8ff" stroke="#63b8ff" points="1227.27,-84.87 1227.42,-74.28 1220.7,-82.47 1227.27,-84.87"/>
</a>
</g>
</g>
<!-- Node17&#45;&gt;Node10 -->
<g id="edge33_Node000017_Node000010" class="edge">
<title>Node17&#45;&gt;Node10</title>
<g id="a_edge33_Node000017_Node000010"><a xlink:title=" ">
<path fill="none" stroke="#63b8ff" d="M762.87,-164.66C776.91,-146.61 809.06,-105.28 827.11,-82.08"/>
<polygon fill="#63b8ff" stroke="#63b8ff" points="829.89,-84.2 833.27,-74.16 824.36,-79.9 829.89,-84.2"/>
</a>
</g>
</g>
<!-- Node17&#45;&gt;Node14 -->
<g id="edge32_Node000017_Node000014" class="edge">
<title>Node17&#45;&gt;Node14</title>
<g id="a_edge32_Node000017_Node000014"><a xlink:title=" ">
<path fill="none" stroke="#63b8ff" d="M700.23,-166.59C695.42,-166.04 690.63,-165.5 686,-165 517.34,-146.77 473.62,-155.11 306,-129 304.73,-128.8 303.44,-128.59 302.13,-128.36"/>
<polygon fill="#63b8ff" stroke="#63b8ff" points="302.57,-124.88 292.09,-126.43 301.25,-131.76 302.57,-124.88"/>
</a>
</g>
</g>
<!-- Node18&#45;&gt;Node6 -->
<g id="edge39_Node000018_Node000006" class="edge">
<title>Node18&#45;&gt;Node6</title>
<g id="a_edge39_Node000018_Node000006"><a xlink:title=" ">
<path fill="none" stroke="#63b8ff" d="M1776.63,-109.8C1762.49,-95.71 1732.36,-68.15 1701,-55 1609.93,-16.81 1491.35,-10.67 1434,-10.13"/>
<polygon fill="#63b8ff" stroke="#63b8ff" points="1433.72,-6.63 1423.7,-10.09 1433.69,-13.63 1433.72,-6.63"/>
</a>
</g>
</g>
<!-- Node18&#45;&gt;Node7 -->
<g id="edge36_Node000018_Node000007" class="edge">
<title>Node18&#45;&gt;Node7</title>
<g id="a_edge36_Node000018_Node000007"><a xlink:title=" ">
<path fill="none" stroke="#63b8ff" d="M1768.65,-109.93C1736.84,-93.31 1668.7,-58.07 1657,-55 1500.78,-13.97 986.12,-10.64 852.12,-10.48"/>
<polygon fill="#63b8ff" stroke="#63b8ff" points="852.09,-6.98 842.09,-10.47 852.09,-13.98 852.09,-6.98"/>
</a>
</g>
</g>
<!-- Node18&#45;&gt;Node9 -->
<g id="edge38_Node000018_Node000009" class="edge">
<title>Node18&#45;&gt;Node9</title>
<g id="a_edge38_Node000018_Node000009"><a xlink:title=" ">
<path fill="none" stroke="#63b8ff" d="M1723.48,-112.63C1608.55,-101.65 1364.26,-78.32 1269.09,-69.23"/>
<polygon fill="#63b8ff" stroke="#63b8ff" points="1269.32,-65.74 1259.04,-68.27 1268.66,-72.71 1269.32,-65.74"/>
</a>
</g>
</g>
<!-- Node18&#45;&gt;Node10 -->
<g id="edge37_Node000018_Node000010" class="edge">
<title>Node18&#45;&gt;Node10</title>
<g id="a_edge37_Node000018_Node000010"><a xlink:title=" ">
<path fill="none" stroke="#63b8ff" d="M1723.34,-113.42C1707.89,-112.22 1691.34,-111 1676,-110 1370.45,-90.1 1293.74,-90.78 988,-74 948.86,-71.85 903.91,-69.25 873.92,-67.5"/>
<polygon fill="#63b8ff" stroke="#63b8ff" points="873.77,-63.98 863.58,-66.89 873.36,-70.97 873.77,-63.98"/>
</a>
</g>
</g>
<!-- Node19&#45;&gt;Node3 -->
<g id="edge41_Node000019_Node000003" class="edge">
<title>Node19&#45;&gt;Node3</title>
<g id="a_edge41_Node000019_Node000003"><a xlink:title=" ">
<path fill="none" stroke="#63b8ff" d="M1189.18,-172.64C992.13,-169.67 404.92,-158.37 377,-129 328.85,-78.34 467.6,-68 537.03,-65.96"/>
<polygon fill="#63b8ff" stroke="#63b8ff" points="537.23,-69.46 547.14,-65.71 537.06,-62.46 537.23,-69.46"/>
</a>
</g>
</g>
<!-- Node19&#45;&gt;Node7 -->
<g id="edge62_Node000019_Node000007" class="edge">
<title>Node19&#45;&gt;Node7</title>
<g id="a_edge62_Node000019_Node000007"><a xlink:title=" ">
<path fill="none" stroke="#63b8ff" d="M1316.53,-173.58C1464.02,-173.11 1819.85,-167.91 1856,-129 1861.75,-122.81 1860.94,-116.85 1856,-110 1810.8,-47.29 1766.96,-69.33 1691,-55 1525.49,-23.79 989.84,-13.22 852.38,-10.98"/>
<polygon fill="#63b8ff" stroke="#63b8ff" points="852.16,-7.48 842.11,-10.82 852.05,-14.48 852.16,-7.48"/>
</a>
</g>
</g>
<!-- Node19&#45;&gt;Node9 -->
<g id="edge61_Node000019_Node000009" class="edge">
<title>Node19&#45;&gt;Node9</title>
<g id="a_edge61_Node000019_Node000009"><a xlink:title=" ">
<path fill="none" stroke="#63b8ff" d="M1316.6,-173.49C1390.95,-171.26 1498.98,-159.75 1458,-110 1434.54,-81.51 1328.1,-71.01 1269.31,-67.34"/>
<polygon fill="#63b8ff" stroke="#63b8ff" points="1269.45,-63.85 1259.27,-66.75 1269.04,-70.83 1269.45,-63.85"/>
</a>
</g>
</g>
<!-- Node19&#45;&gt;Node10 -->
<g id="edge57_Node000019_Node000010" class="edge">
<title>Node19&#45;&gt;Node10</title>
<g id="a_edge57_Node000019_Node000010"><a xlink:title=" ">
<path fill="none" stroke="#63b8ff" d="M1189.16,-170.86C1100.77,-166.3 946.4,-154.83 897,-129 876.97,-118.53 860.57,-97.98 850.58,-83.09"/>
<polygon fill="#63b8ff" stroke="#63b8ff" points="853.3,-80.84 844.98,-74.28 847.4,-84.6 853.3,-80.84"/>
</a>
</g>
</g>
<!-- Node19&#45;&gt;Node15 -->
<g id="edge56_Node000019_Node000015" class="edge">
<title>Node19&#45;&gt;Node15</title>
<g id="a_edge56_Node000019_Node000015"><a xlink:title=" ">
<path fill="none" stroke="#63b8ff" d="M1232.43,-164.98C1211.57,-156.34 1179.03,-142.87 1155.23,-133.02"/>
<polygon fill="#63b8ff" stroke="#63b8ff" points="1156.52,-129.76 1145.94,-129.17 1153.84,-136.23 1156.52,-129.76"/>
</a>
</g>
</g>
<!-- Node19&#45;&gt;Node16 -->
<g id="edge58_Node000019_Node000016" class="edge">
<title>Node19&#45;&gt;Node16</title>
<g id="a_edge58_Node000019_Node000016"><a xlink:title=" ">
<path fill="none" stroke="#63b8ff" d="M1245.47,-164.66C1230.1,-146.61 1194.88,-105.28 1175.12,-82.08"/>
<polygon fill="#63b8ff" stroke="#63b8ff" points="1177.52,-79.5 1168.38,-74.16 1172.2,-84.04 1177.52,-79.5"/>
</a>
</g>
</g>
<!-- Node20 -->
<g id="Node000020" class="node">
<title>Node20</title>
<g id="a_Node000020"><a xlink:href="ConformationAtom_8h.html" target="_top" xlink:title=" ">
<polygon fill="white" stroke="#666666" points="505.5,-129 386.5,-129 386.5,-110 505.5,-110 505.5,-129"/>
<text text-anchor="middle" x="446" y="-117" font-family="Helvetica,sans-Serif" font-size="10.00">ConformationAtom.h</text>
</a>
</g>
</g>
<!-- Node19&#45;&gt;Node20 -->
<g id="edge42_Node000019_Node000020" class="edge">
<title>Node19&#45;&gt;Node20</title>
<g id="a_edge42_Node000019_Node000020"><a xlink:title=" ">
<path fill="none" stroke="#63b8ff" d="M1189.14,-171.04C1062.64,-165.86 771.07,-152.42 515.89,-129.12"/>
<polygon fill="#63b8ff" stroke="#63b8ff" points="515.96,-125.61 505.68,-128.18 515.32,-132.58 515.96,-125.61"/>
</a>
</g>
</g>
<!-- Node21 -->
<g id="Node000021" class="node">
<title>Node21</title>
<g id="a_Node000021"><a xlink:href="ConformationResult_8h.html" target="_top" xlink:title=" ">
<polygon fill="white" stroke="#666666" points="1666.5,-129 1543.5,-129 1543.5,-110 1666.5,-110 1666.5,-129"/>
<text text-anchor="middle" x="1605" y="-117" font-family="Helvetica,sans-Serif" font-size="10.00">ConformationResult.h</text>
</a>
</g>
</g>
<!-- Node19&#45;&gt;Node21 -->
<g id="edge46_Node000019_Node000021" class="edge">
<title>Node19&#45;&gt;Node21</title>
<g id="a_edge46_Node000019_Node000021"><a xlink:title=" ">
<path fill="none" stroke="#63b8ff" d="M1309.55,-164.98C1371.94,-155.59 1472.24,-140.49 1538.39,-130.53"/>
<polygon fill="#63b8ff" stroke="#63b8ff" points="1538.93,-133.99 1548.29,-129.04 1537.88,-127.07 1538.93,-133.99"/>
</a>
</g>
</g>
<!-- Node22 -->
<g id="Node000022" class="node">
<title>Node22</title>
<g id="a_Node000022"><a xlink:title=" ">
<polygon fill="#e0e0e0" stroke="#999999" points="1647.5,-74 1582.5,-74 1582.5,-55 1647.5,-55 1647.5,-74"/>
<text text-anchor="middle" x="1615" y="-62" font-family="Helvetica,sans-Serif" font-size="10.00">typeindex</text>
</a>
</g>
</g>
<!-- Node19&#45;&gt;Node22 -->
<g id="edge60_Node000019_Node000022" class="edge">
<title>Node19&#45;&gt;Node22</title>
<g id="a_edge60_Node000019_Node000022"><a xlink:title=" ">
<path fill="none" stroke="#63b8ff" d="M1316.84,-171.4C1429.14,-167.05 1652.44,-155.17 1676,-129 1691.91,-111.33 1665.96,-91.68 1643.15,-78.99"/>
<polygon fill="#63b8ff" stroke="#63b8ff" points="1644.49,-75.74 1634.01,-74.16 1641.22,-81.93 1644.49,-75.74"/>
</a>
</g>
</g>
<!-- Node23 -->
<g id="Node000023" class="node">
<title>Node23</title>
<g id="a_Node000023"><a xlink:href="GeometryChoice_8h.html" target="_top" xlink:title=" ">
<polygon fill="white" stroke="#666666" points="1083.5,-129 976.5,-129 976.5,-110 1083.5,-110 1083.5,-129"/>
<text text-anchor="middle" x="1030" y="-117" font-family="Helvetica,sans-Serif" font-size="10.00">GeometryChoice.h</text>
</a>
</g>
</g>
<!-- Node19&#45;&gt;Node23 -->
<g id="edge51_Node000019_Node000023" class="edge">
<title>Node19&#45;&gt;Node23</title>
<g id="a_edge51_Node000019_Node000023"><a xlink:title=" ">
<path fill="none" stroke="#63b8ff" d="M1217.17,-164.98C1178.84,-155.87 1117.92,-141.4 1076.05,-131.45"/>
<polygon fill="#63b8ff" stroke="#63b8ff" points="1076.65,-127.99 1066.11,-129.08 1075.03,-134.8 1076.65,-127.99"/>
</a>
</g>
</g>
<!-- Node25 -->
<g id="Node000025" class="node">
<title>Node25</title>
<g id="a_Node000025"><a xlink:title=" ">
<polygon fill="#e0e0e0" stroke="#999999" points="1374.5,-129 1281.5,-129 1281.5,-110 1374.5,-110 1374.5,-129"/>
<text text-anchor="middle" x="1328" y="-117" font-family="Helvetica,sans-Serif" font-size="10.00">unordered_map</text>
</a>
</g>
</g>
<!-- Node19&#45;&gt;Node25 -->
<g id="edge59_Node000019_Node000025" class="edge">
<title>Node19&#45;&gt;Node25</title>
<g id="a_edge59_Node000019_Node000025"><a xlink:title=" ">
<path fill="none" stroke="#63b8ff" d="M1265.05,-164.98C1276.46,-156.92 1293.83,-144.65 1307.43,-135.03"/>
<polygon fill="#63b8ff" stroke="#63b8ff" points="1309.58,-137.8 1315.73,-129.17 1305.54,-132.08 1309.58,-137.8"/>
</a>
</g>
</g>
<!-- Node26 -->
<g id="Node000026" class="node">
<title>Node26</title>
<g id="a_Node000026"><a xlink:title=" ">
<polygon fill="#e0e0e0" stroke="#999999" points="1449,-129 1393,-129 1393,-110 1449,-110 1449,-129"/>
<text text-anchor="middle" x="1421" y="-117" font-family="Helvetica,sans-Serif" font-size="10.00">sstream</text>
</a>
</g>
</g>
<!-- Node19&#45;&gt;Node26 -->
<g id="edge63_Node000019_Node000026" class="edge">
<title>Node19&#45;&gt;Node26</title>
<g id="a_edge63_Node000019_Node000026"><a xlink:title=" ">
<path fill="none" stroke="#63b8ff" d="M1279.99,-164.98C1308.2,-156.09 1352.64,-142.07 1384.08,-132.15"/>
<polygon fill="#63b8ff" stroke="#63b8ff" points="1385.31,-135.43 1393.8,-129.08 1383.21,-128.75 1385.31,-135.43"/>
</a>
</g>
</g>
<!-- Node20&#45;&gt;Node3 -->
<g id="edge43_Node000020_Node000003" class="edge">
<title>Node20&#45;&gt;Node3</title>
<g id="a_edge43_Node000020_Node000003"><a xlink:title=" ">
<path fill="none" stroke="#63b8ff" d="M466.57,-109.98C487.43,-101.34 519.97,-87.87 543.77,-78.02"/>
<polygon fill="#63b8ff" stroke="#63b8ff" points="545.16,-81.23 553.06,-74.17 542.48,-74.76 545.16,-81.23"/>
</a>
</g>
</g>
<!-- Node20&#45;&gt;Node5 -->
<g id="edge45_Node000020_Node000005" class="edge">
<title>Node20&#45;&gt;Node5</title>
<g id="a_edge45_Node000020_Node000005"><a xlink:title=" ">
<path fill="none" stroke="#63b8ff" d="M446.16,-109.66C446.49,-92.17 447.22,-52.8 447.65,-29.27"/>
<polygon fill="#63b8ff" stroke="#63b8ff" points="451.15,-29.22 447.84,-19.16 444.16,-29.09 451.15,-29.22"/>
</a>
</g>
</g>
<!-- Node20&#45;&gt;Node10 -->
<g id="edge44_Node000020_Node000010" class="edge">
<title>Node20&#45;&gt;Node10</title>
<g id="a_edge44_Node000020_Node000010"><a xlink:title=" ">
<path fill="none" stroke="#63b8ff" d="M505.84,-110.45C589.82,-99.15 739.83,-78.97 806.49,-70.01"/>
<polygon fill="#63b8ff" stroke="#63b8ff" points="807,-73.47 816.45,-68.67 806.07,-66.53 807,-73.47"/>
</a>
</g>
</g>
<!-- Node21&#45;&gt;Node7 -->
<g id="edge47_Node000021_Node000007" class="edge">
<title>Node21&#45;&gt;Node7</title>
<g id="a_edge47_Node000021_Node000007"><a xlink:title=" ">
<path fill="none" stroke="#63b8ff" d="M1565.76,-109.95C1503.09,-96.56 1376.43,-70.57 1268,-55 1113.15,-32.76 926.58,-18.1 852.55,-12.75"/>
<polygon fill="#63b8ff" stroke="#63b8ff" points="852.68,-9.26 842.46,-12.03 852.18,-16.24 852.68,-9.26"/>
</a>
</g>
</g>
<!-- Node21&#45;&gt;Node9 -->
<g id="edge50_Node000021_Node000009" class="edge">
<title>Node21&#45;&gt;Node9</title>
<g id="a_edge50_Node000021_Node000009"><a xlink:title=" ">
<path fill="none" stroke="#63b8ff" d="M1544.75,-109.98C1467.32,-99.04 1335.07,-80.35 1269.4,-71.07"/>
<polygon fill="#63b8ff" stroke="#63b8ff" points="1269.84,-67.6 1259.45,-69.66 1268.86,-74.53 1269.84,-67.6"/>
</a>
</g>
</g>
<!-- Node21&#45;&gt;Node10 -->
<g id="edge48_Node000021_Node000010" class="edge">
<title>Node21&#45;&gt;Node10</title>
<g id="a_edge48_Node000021_Node000010"><a xlink:title=" ">
<path fill="none" stroke="#63b8ff" d="M1543.37,-114.23C1389.6,-103.58 992.89,-76.09 874.1,-67.86"/>
<polygon fill="#63b8ff" stroke="#63b8ff" points="874.02,-64.35 863.8,-67.15 873.54,-71.33 874.02,-64.35"/>
</a>
</g>
</g>
<!-- Node21&#45;&gt;Node22 -->
<g id="edge49_Node000021_Node000022" class="edge">
<title>Node21&#45;&gt;Node22</title>
<g id="a_edge49_Node000021_Node000022"><a xlink:title=" ">
<path fill="none" stroke="#63b8ff" d="M1606.65,-109.75C1607.96,-102.8 1609.84,-92.85 1611.48,-84.13"/>
<polygon fill="#63b8ff" stroke="#63b8ff" points="1614.96,-84.56 1613.38,-74.09 1608.09,-83.27 1614.96,-84.56"/>
</a>
</g>
</g>
<!-- Node23&#45;&gt;Node3 -->
<g id="edge52_Node000023_Node000003" class="edge">
<title>Node23&#45;&gt;Node3</title>
<g id="a_edge52_Node000023_Node000003"><a xlink:title=" ">
<path fill="none" stroke="#63b8ff" d="M976.39,-111.19C973.22,-110.78 970.07,-110.38 967,-110 836.07,-93.76 680.3,-76.83 610.73,-69.39"/>
<polygon fill="#63b8ff" stroke="#63b8ff" points="611.02,-65.91 600.71,-68.33 610.28,-72.87 611.02,-65.91"/>
</a>
</g>
</g>
<!-- Node23&#45;&gt;Node7 -->
<g id="edge53_Node000023_Node000007" class="edge">
<title>Node23&#45;&gt;Node7</title>
<g id="a_edge53_Node000023_Node000007"><a xlink:title=" ">
<path fill="none" stroke="#63b8ff" d="M1013.17,-109.84C976.52,-91 889.31,-46.14 845.72,-23.73"/>
<polygon fill="#63b8ff" stroke="#63b8ff" points="847.11,-20.51 836.62,-19.05 843.91,-26.73 847.11,-20.51"/>
</a>
</g>
</g>
<!-- Node23&#45;&gt;Node10 -->
<g id="edge54_Node000023_Node000010" class="edge">
<title>Node23&#45;&gt;Node10</title>
<g id="a_edge54_Node000023_Node000010"><a xlink:title=" ">
<path fill="none" stroke="#63b8ff" d="M999.47,-109.98C965.01,-100.37 909.1,-84.78 873.47,-74.84"/>
<polygon fill="#63b8ff" stroke="#63b8ff" points="874.12,-71.38 863.55,-72.07 872.24,-78.13 874.12,-71.38"/>
</a>
</g>
</g>
<!-- Node24 -->
<g id="Node000024" class="node">
<title>Node24</title>
<g id="a_Node000024"><a xlink:title=" ">
<polygon fill="#e0e0e0" stroke="#999999" points="1062.5,-74 997.5,-74 997.5,-55 1062.5,-55 1062.5,-74"/>
<text text-anchor="middle" x="1030" y="-62" font-family="Helvetica,sans-Serif" font-size="10.00">functional</text>
</a>
</g>
</g>
<!-- Node23&#45;&gt;Node24 -->
<g id="edge55_Node000023_Node000024" class="edge">
<title>Node23&#45;&gt;Node24</title>
<g id="a_edge55_Node000023_Node000024"><a xlink:title=" ">
<path fill="none" stroke="#63b8ff" d="M1030,-109.75C1030,-102.8 1030,-92.85 1030,-84.13"/>
<polygon fill="#63b8ff" stroke="#63b8ff" points="1033.5,-84.09 1030,-74.09 1026.5,-84.09 1033.5,-84.09"/>
</a>
</g>
</g>
<!-- Node27&#45;&gt;Node7 -->
<g id="edge73_Node000027_Node000007" class="edge">
<title>Node27&#45;&gt;Node7</title>
<g id="a_edge73_Node000027_Node000007"><a xlink:title=" ">
<path fill="none" stroke="#63b8ff" d="M562.39,-173.09C457.71,-171.31 189.79,-161.7 233,-110 310.62,-17.13 650.53,-38.42 770,-19 775.65,-18.08 781.65,-17.08 787.47,-16.1"/>
<polygon fill="#63b8ff" stroke="#63b8ff" points="788.34,-19.5 797.61,-14.38 787.17,-12.6 788.34,-19.5"/>
</a>
</g>
</g>
<!-- Node27&#45;&gt;Node9 -->
<g id="edge72_Node000027_Node000009" class="edge">
<title>Node27&#45;&gt;Node9</title>
<g id="a_edge72_Node000027_Node000009"><a xlink:title=" ">
<path fill="none" stroke="#63b8ff" d="M643.73,-169.4C658.6,-167.95 675.56,-166.34 691,-165 794.7,-156 1062.12,-169.52 1158,-129 1181.87,-118.91 1203.3,-97.65 1216.46,-82.52"/>
<polygon fill="#63b8ff" stroke="#63b8ff" points="1219.48,-84.36 1223.2,-74.44 1214.1,-79.87 1219.48,-84.36"/>
</a>
</g>
</g>
<!-- Node28 -->
<g id="Node000028" class="node">
<title>Node28</title>
<g id="a_Node000028"><a xlink:href="ChargeSource_8h.html" target="_top" xlink:title=" ">
<polygon fill="white" stroke="#666666" points="735.5,-129 642.5,-129 642.5,-110 735.5,-110 735.5,-129"/>
<text text-anchor="middle" x="689" y="-117" font-family="Helvetica,sans-Serif" font-size="10.00">ChargeSource.h</text>
</a>
</g>
</g>
<!-- Node27&#45;&gt;Node28 -->
<g id="edge68_Node000027_Node000028" class="edge">
<title>Node27&#45;&gt;Node28</title>
<g id="a_edge68_Node000027_Node000028"><a xlink:title=" ">
<path fill="none" stroke="#63b8ff" d="M616.82,-164.98C630.15,-156.77 650.58,-144.18 666.31,-134.49"/>
<polygon fill="#63b8ff" stroke="#63b8ff" points="668.25,-137.4 674.93,-129.17 664.58,-131.44 668.25,-137.4"/>
</a>
</g>
</g>
<!-- Node28&#45;&gt;Node3 -->
<g id="edge69_Node000028_Node000003" class="edge">
<title>Node28&#45;&gt;Node3</title>
<g id="a_edge69_Node000028_Node000003"><a xlink:title=" ">
<path fill="none" stroke="#63b8ff" d="M670.52,-109.98C652.02,-101.46 623.32,-88.23 602.02,-78.41"/>
<polygon fill="#63b8ff" stroke="#63b8ff" points="603.36,-75.18 592.81,-74.17 600.43,-81.53 603.36,-75.18"/>
</a>
</g>
</g>
<!-- Node28&#45;&gt;Node7 -->
<g id="edge70_Node000028_Node000007" class="edge">
<title>Node28&#45;&gt;Node7</title>
<g id="a_edge70_Node000028_Node000007"><a xlink:title=" ">
<path fill="none" stroke="#63b8ff" d="M699.72,-109.66C722.09,-91.22 773.97,-48.45 801.72,-25.57"/>
<polygon fill="#63b8ff" stroke="#63b8ff" points="804.01,-28.22 809.5,-19.16 799.56,-22.82 804.01,-28.22"/>
</a>
</g>
</g>
<!-- Node28&#45;&gt;Node10 -->
<g id="edge71_Node000028_Node000010" class="edge">
<title>Node28&#45;&gt;Node10</title>
<g id="a_edge71_Node000028_Node000010"><a xlink:title=" ">
<path fill="none" stroke="#63b8ff" d="M713.26,-109.98C738.62,-101.09 778.57,-87.06 806.83,-77.14"/>
<polygon fill="#63b8ff" stroke="#63b8ff" points="808.02,-80.43 816.3,-73.82 805.7,-73.83 808.02,-80.43"/>
</a>
</g>
</g>
</g>
</svg>
