<?xml version="1.0" encoding="UTF-8" standalone="no"?>
<!DOCTYPE svg PUBLIC "-//W3C//DTD SVG 1.1//EN"
 "http://www.w3.org/Graphics/SVG/1.1/DTD/svg11.dtd">
<!-- Generated by graphviz version 2.43.0 (0)
 -->
<!-- Title: src/ProteinBuildContext.h Pages: 1 -->
<svg width="260pt" height="82pt"
 viewBox="0.00 0.00 259.50 82.00" xmlns="http://www.w3.org/2000/svg" xmlns:xlink="http://www.w3.org/1999/xlink">
<g id="graph0" class="graph" transform="scale(1 1) rotate(0) translate(4 78)">
<title>src/ProteinBuildContext.h</title>
<!-- Node1 -->
<g id="Node000001" class="node">
<title>Node1</title>
<g id="a_Node000001"><a xlink:title=" ">
<polygon fill="#999999" stroke="#666666" points="191,-74 51,-74 51,-55 191,-55 191,-74"/>
<text text-anchor="middle" x="121" y="-62" font-family="Helvetica,sans-Serif" font-size="10.00">src/ProteinBuildContext.h</text>
</a>
</g>
</g>
<!-- Node2 -->
<g id="Node000002" class="node">
<title>Node2</title>
<g id="a_Node000002"><a xlink:title=" ">
<polygon fill="#e0e0e0" stroke="#999999" points="44,-19 0,-19 0,0 44,0 44,-19"/>
<text text-anchor="middle" x="22" y="-7" font-family="Helvetica,sans-Serif" font-size="10.00">string</text>
</a>
</g>
</g>
<!-- Node1&#45;&gt;Node2 -->
<g id="edge1_Node000001_Node000002" class="edge">
<title>Node1&#45;&gt;Node2</title>
<g id="a_edge1_Node000001_Node000002"><a xlink:title=" ">
<path fill="none" stroke="#63b8ff" d="M105.09,-54.98C89.45,-46.61 65.34,-33.7 47.12,-23.95"/>
<polygon fill="#63b8ff" stroke="#63b8ff" points="48.66,-20.8 38.2,-19.17 45.36,-26.98 48.66,-20.8"/>
</a>
</g>
</g>
<!-- Node3 -->
<g id="Node000003" class="node">
<title>Node3</title>
<g id="a_Node000003"><a xlink:title=" ">
<polygon fill="#e0e0e0" stroke="#999999" points="109.5,-19 62.5,-19 62.5,0 109.5,0 109.5,-19"/>
<text text-anchor="middle" x="86" y="-7" font-family="Helvetica,sans-Serif" font-size="10.00">vector</text>
</a>
</g>
</g>
<!-- Node1&#45;&gt;Node3 -->
<g id="edge2_Node000001_Node000003" class="edge">
<title>Node1&#45;&gt;Node3</title>
<g id="a_edge2_Node000001_Node000003"><a xlink:title=" ">
<path fill="none" stroke="#63b8ff" d="M115.22,-54.75C110.38,-47.42 103.32,-36.73 97.36,-27.7"/>
<polygon fill="#63b8ff" stroke="#63b8ff" points="100.1,-25.5 91.67,-19.09 94.26,-29.36 100.1,-25.5"/>
</a>
</g>
</g>
<!-- Node4 -->
<g id="Node000004" class="node">
<title>Node4</title>
<g id="a_Node000004"><a xlink:title=" ">
<polygon fill="#e0e0e0" stroke="#999999" points="186,-19 128,-19 128,0 186,0 186,-19"/>
<text text-anchor="middle" x="157" y="-7" font-family="Helvetica,sans-Serif" font-size="10.00">memory</text>
</a>
</g>
</g>
<!-- Node1&#45;&gt;Node4 -->
<g id="edge3_Node000001_Node000004" class="edge">
<title>Node1&#45;&gt;Node4</title>
<g id="a_edge3_Node000001_Node000004"><a xlink:title=" ">
<path fill="none" stroke="#63b8ff" d="M126.94,-54.75C131.98,-47.34 139.34,-36.5 145.51,-27.41"/>
<polygon fill="#63b8ff" stroke="#63b8ff" points="148.44,-29.33 151.17,-19.09 142.65,-25.39 148.44,-29.33"/>
</a>
</g>
</g>
<!-- Node5 -->
<g id="Node000005" class="node">
<title>Node5</title>
<g id="a_Node000005"><a xlink:title=" ">
<polygon fill="#e0e0e0" stroke="#999999" points="251.5,-19 204.5,-19 204.5,0 251.5,0 251.5,-19"/>
<text text-anchor="middle" x="228" y="-7" font-family="Helvetica,sans-Serif" font-size="10.00">cmath</text>
</a>
</g>
</g>
<!-- Node1&#45;&gt;Node5 -->
<g id="edge4_Node000001_Node000005" class="edge">
<title>Node1&#45;&gt;Node5</title>
<g id="a_edge4_Node000001_Node000005"><a xlink:title=" ">
<path fill="none" stroke="#63b8ff" d="M138.19,-54.98C155.25,-46.54 181.63,-33.47 201.4,-23.68"/>
<polygon fill="#63b8ff" stroke="#63b8ff" points="203.09,-26.75 210.5,-19.17 199.98,-20.47 203.09,-26.75"/>
</a>
</g>
</g>
</g>
</svg>
