<?xml version="1.0" encoding="UTF-8" standalone="no"?>
<!DOCTYPE svg PUBLIC "-//W3C//DTD SVG 1.1//EN"
 "http://www.w3.org/Graphics/SVG/1.1/DTD/svg11.dtd">
<!-- Generated by graphviz version 2.43.0 (0)
 -->
<!-- Title: src/Protonator.h Pages: 1 -->
<svg width="177pt" height="137pt"
 viewBox="0.00 0.00 176.50 137.00" xmlns="http://www.w3.org/2000/svg" xmlns:xlink="http://www.w3.org/1999/xlink">
<g id="graph0" class="graph" transform="scale(1 1) rotate(0) translate(4 133)">
<title>src/Protonator.h</title>
<!-- Node1 -->
<g id="Node000001" class="node">
<title>Node1</title>
<g id="a_Node000001"><a xlink:title=" ">
<polygon fill="#999999" stroke="#666666" points="106,-129 13,-129 13,-110 106,-110 106,-129"/>
<text text-anchor="middle" x="59.5" y="-117" font-family="Helvetica,sans-Serif" font-size="10.00">src/Protonator.h</text>
</a>
</g>
</g>
<!-- Node2 -->
<g id="Node000002" class="node">
<title>Node2</title>
<g id="a_Node000002"><a xlink:href="KamlProtonator_8h.html" target="_top" xlink:title=" ">
<polygon fill="white" stroke="#666666" points="119,-19 0,-19 0,0 119,0 119,-19"/>
<text text-anchor="middle" x="59.5" y="-7" font-family="Helvetica,sans-Serif" font-size="10.00">src/KamlProtonator.h</text>
</a>
</g>
</g>
<!-- Node1&#45;&gt;Node2 -->
<g id="edge1_Node000001_Node000002" class="edge">
<title>Node1&#45;&gt;Node2</title>
<g id="a_edge1_Node000001_Node000002"><a xlink:title=" ">
<path fill="none" stroke="#63b8ff" d="M46.78,-101.61C41.57,-93.67 36.16,-83.81 33.5,-74 28.02,-53.76 42.36,-31.34 51.86,-19.3"/>
<polygon fill="#63b8ff" stroke="#63b8ff" points="44,-103.75 52.61,-109.93 49.73,-99.73 44,-103.75"/>
</a>
</g>
</g>
<!-- Node3 -->
<g id="Node000003" class="node">
<title>Node3</title>
<g id="a_Node000003"><a xlink:href="PropkaProtonator_8h.html" target="_top" xlink:title=" ">
<polygon fill="white" stroke="#666666" points="168.5,-74 42.5,-74 42.5,-55 168.5,-55 168.5,-74"/>
<text text-anchor="middle" x="105.5" y="-62" font-family="Helvetica,sans-Serif" font-size="10.00">src/PropkaProtonator.h</text>
</a>
</g>
</g>
<!-- Node1&#45;&gt;Node3 -->
<g id="edge2_Node000001_Node000003" class="edge">
<title>Node1&#45;&gt;Node3</title>
<g id="a_edge2_Node000001_Node000003"><a xlink:title=" ">
<path fill="none" stroke="#63b8ff" d="M73.86,-101.96C81.87,-92.72 91.53,-81.6 98.05,-74.09"/>
<polygon fill="#63b8ff" stroke="#63b8ff" points="71.01,-99.9 67.1,-109.75 76.29,-104.49 71.01,-99.9"/>
</a>
</g>
</g>
<!-- Node3&#45;&gt;Node2 -->
<g id="edge3_Node000003_Node000002" class="edge">
<title>Node3&#45;&gt;Node2</title>
<g id="a_edge3_Node000003_Node000002"><a xlink:title=" ">
<path fill="none" stroke="#63b8ff" d="M91.14,-46.96C83.13,-37.72 73.47,-26.6 66.95,-19.09"/>
<polygon fill="#63b8ff" stroke="#63b8ff" points="88.71,-49.49 97.9,-54.75 93.99,-44.9 88.71,-49.49"/>
</a>
</g>
</g>
</g>
</svg>
