<?xml version="1.0" encoding="UTF-8" standalone="no"?>
<!DOCTYPE svg PUBLIC "-//W3C//DTD SVG 1.1//EN"
 "http://www.w3.org/Graphics/SVG/1.1/DTD/svg11.dtd">
<!-- Generated by graphviz version 2.43.0 (0)
 -->
<!-- Title: src/ProteinConformation.h Pages: 1 -->
<svg width="852pt" height="192pt"
 viewBox="0.00 0.00 851.89 192.00" xmlns="http://www.w3.org/2000/svg" xmlns:xlink="http://www.w3.org/1999/xlink">
<g id="graph0" class="graph" transform="scale(1 1) rotate(0) translate(4 188)">
<title>src/ProteinConformation.h</title>
<!-- Node1 -->
<g id="Node000001" class="node">
<title>Node1</title>
<g id="a_Node000001"><a xlink:title=" ">
<polygon fill="#999999" stroke="#666666" points="482.89,-184 338.89,-184 338.89,-165 482.89,-165 482.89,-184"/>
<text text-anchor="middle" x="410.89" y="-172" font-family="Helvetica,sans-Serif" font-size="10.00">src/ProteinConformation.h</text>
</a>
</g>
</g>
<!-- Node2 -->
<g id="Node000002" class="node">
<title>Node2</title>
<g id="a_Node000002"><a xlink:href="Types_8h.html" target="_top" xlink:title=" ">
<polygon fill="white" stroke="#666666" points="126.39,-74 73.39,-74 73.39,-55 126.39,-55 126.39,-74"/>
<text text-anchor="middle" x="99.89" y="-62" font-family="Helvetica,sans-Serif" font-size="10.00">Types.h</text>
</a>
</g>
</g>
<!-- Node1&#45;&gt;Node2 -->
<g id="edge1_Node000001_Node000002" class="edge">
<title>Node1&#45;&gt;Node2</title>
<g id="a_edge1_Node000001_Node000002"><a xlink:title=" ">
<path fill="none" stroke="#63b8ff" d="M338.86,-170.71C228.42,-165.69 27.67,-153.3 5.89,-129 -15.52,-105.11 28.39,-85.91 63.16,-75.1"/>
<polygon fill="#63b8ff" stroke="#63b8ff" points="64.52,-78.35 73.11,-72.15 62.53,-71.64 64.52,-78.35"/>
</a>
</g>
</g>
<!-- Node6 -->
<g id="Node000006" class="node">
<title>Node6</title>
<g id="a_Node000006"><a xlink:title=" ">
<polygon fill="#e0e0e0" stroke="#999999" points="451.89,-19 407.89,-19 407.89,0 451.89,0 451.89,-19"/>
<text text-anchor="middle" x="429.89" y="-7" font-family="Helvetica,sans-Serif" font-size="10.00">string</text>
</a>
</g>
</g>
<!-- Node1&#45;&gt;Node6 -->
<g id="edge31_Node000001_Node000006" class="edge">
<title>Node1&#45;&gt;Node6</title>
<g id="a_edge31_Node000001_Node000006"><a xlink:title=" ">
<path fill="none" stroke="#63b8ff" d="M482.77,-165C531.34,-157.84 589.79,-146.03 607.89,-129 626.44,-111.56 620.3,-99.2 623.89,-74 625.09,-65.64 629.16,-61.6 623.89,-55 604.04,-30.07 512.07,-17.96 462.22,-13.14"/>
<polygon fill="#63b8ff" stroke="#63b8ff" points="462.25,-9.63 451.97,-12.2 461.61,-16.6 462.25,-9.63"/>
</a>
</g>
</g>
<!-- Node7 -->
<g id="Node000007" class="node">
<title>Node7</title>
<g id="a_Node000007"><a xlink:href="ConformationAtom_8h.html" target="_top" xlink:title=" ">
<polygon fill="white" stroke="#666666" points="134.39,-129 15.39,-129 15.39,-110 134.39,-110 134.39,-129"/>
<text text-anchor="middle" x="74.89" y="-117" font-family="Helvetica,sans-Serif" font-size="10.00">ConformationAtom.h</text>
</a>
</g>
</g>
<!-- Node1&#45;&gt;Node7 -->
<g id="edge6_Node000001_Node000007" class="edge">
<title>Node1&#45;&gt;Node7</title>
<g id="a_edge6_Node000001_Node000007"><a xlink:title=" ">
<path fill="none" stroke="#63b8ff" d="M356.91,-164.98C297.6,-155.63 202.4,-140.61 139.26,-130.65"/>
<polygon fill="#63b8ff" stroke="#63b8ff" points="139.45,-127.14 129.02,-129.04 138.35,-134.05 139.45,-127.14"/>
</a>
</g>
</g>
<!-- Node8 -->
<g id="Node000008" class="node">
<title>Node8</title>
<g id="a_Node000008"><a xlink:title=" ">
<polygon fill="#e0e0e0" stroke="#999999" points="313.39,-74 266.39,-74 266.39,-55 313.39,-55 313.39,-74"/>
<text text-anchor="middle" x="289.89" y="-62" font-family="Helvetica,sans-Serif" font-size="10.00">vector</text>
</a>
</g>
</g>
<!-- Node1&#45;&gt;Node8 -->
<g id="edge26_Node000001_Node000008" class="edge">
<title>Node1&#45;&gt;Node8</title>
<g id="a_edge26_Node000001_Node000008"><a xlink:title=" ">
<path fill="none" stroke="#63b8ff" d="M369.44,-164.96C347.94,-158.51 322.91,-147.48 306.89,-129 296.27,-116.74 292.2,-98.51 290.69,-84.72"/>
<polygon fill="#63b8ff" stroke="#63b8ff" points="294.15,-84.13 289.92,-74.42 287.17,-84.65 294.15,-84.13"/>
</a>
</g>
</g>
<!-- Node9 -->
<g id="Node000009" class="node">
<title>Node9</title>
<g id="a_Node000009"><a xlink:href="ConformationResult_8h.html" target="_top" xlink:title=" ">
<polygon fill="white" stroke="#666666" points="581.39,-129 458.39,-129 458.39,-110 581.39,-110 581.39,-129"/>
<text text-anchor="middle" x="519.89" y="-117" font-family="Helvetica,sans-Serif" font-size="10.00">ConformationResult.h</text>
</a>
</g>
</g>
<!-- Node1&#45;&gt;Node9 -->
<g id="edge10_Node000001_Node000009" class="edge">
<title>Node1&#45;&gt;Node9</title>
<g id="a_edge10_Node000001_Node000009"><a xlink:title=" ">
<path fill="none" stroke="#63b8ff" d="M428.41,-164.98C445.86,-156.5 472.9,-143.35 493.07,-133.54"/>
<polygon fill="#63b8ff" stroke="#63b8ff" points="494.6,-136.69 502.06,-129.17 491.54,-130.4 494.6,-136.69"/>
</a>
</g>
</g>
<!-- Node10 -->
<g id="Node000010" class="node">
<title>Node10</title>
<g id="a_Node000010"><a xlink:title=" ">
<polygon fill="#e0e0e0" stroke="#999999" points="614.39,-74 549.39,-74 549.39,-55 614.39,-55 614.39,-74"/>
<text text-anchor="middle" x="581.89" y="-62" font-family="Helvetica,sans-Serif" font-size="10.00">typeindex</text>
</a>
</g>
</g>
<!-- Node1&#45;&gt;Node10 -->
<g id="edge29_Node000001_Node000010" class="edge">
<title>Node1&#45;&gt;Node10</title>
<g id="a_edge29_Node000001_Node000010"><a xlink:title=" ">
<path fill="none" stroke="#63b8ff" d="M481.64,-165C525.97,-158.05 577.2,-146.49 590.89,-129 600.85,-116.28 596.64,-97.6 591.11,-83.78"/>
<polygon fill="#63b8ff" stroke="#63b8ff" points="594.16,-82.02 586.85,-74.35 587.78,-84.9 594.16,-82.02"/>
</a>
</g>
</g>
<!-- Node11 -->
<g id="Node000011" class="node">
<title>Node11</title>
<g id="a_Node000011"><a xlink:title=" ">
<polygon fill="#e0e0e0" stroke="#999999" points="483.89,-74 425.89,-74 425.89,-55 483.89,-55 483.89,-74"/>
<text text-anchor="middle" x="454.89" y="-62" font-family="Helvetica,sans-Serif" font-size="10.00">memory</text>
</a>
</g>
</g>
<!-- Node1&#45;&gt;Node11 -->
<g id="edge30_Node000001_Node000011" class="edge">
<title>Node1&#45;&gt;Node11</title>
<g id="a_edge30_Node000001_Node000011"><a xlink:title=" ">
<path fill="none" stroke="#63b8ff" d="M414.49,-164.66C421.69,-147.01 437.95,-107.09 447.51,-83.64"/>
<polygon fill="#63b8ff" stroke="#63b8ff" points="450.83,-84.74 451.37,-74.16 444.35,-82.1 450.83,-84.74"/>
</a>
</g>
</g>
<!-- Node12 -->
<g id="Node000012" class="node">
<title>Node12</title>
<g id="a_Node000012"><a xlink:href="GeometryChoice_8h.html" target="_top" xlink:title=" ">
<polygon fill="white" stroke="#666666" points="259.39,-129 152.39,-129 152.39,-110 259.39,-110 259.39,-129"/>
<text text-anchor="middle" x="205.89" y="-117" font-family="Helvetica,sans-Serif" font-size="10.00">GeometryChoice.h</text>
</a>
</g>
</g>
<!-- Node1&#45;&gt;Node12 -->
<g id="edge15_Node000001_Node000012" class="edge">
<title>Node1&#45;&gt;Node12</title>
<g id="a_edge15_Node000001_Node000012"><a xlink:title=" ">
<path fill="none" stroke="#63b8ff" d="M377.96,-164.98C342.94,-155.93 287.43,-141.58 248.96,-131.64"/>
<polygon fill="#63b8ff" stroke="#63b8ff" points="249.65,-128.2 239.09,-129.08 247.89,-134.97 249.65,-128.2"/>
</a>
</g>
</g>
<!-- Node14 -->
<g id="Node000014" class="node">
<title>Node14</title>
<g id="a_Node000014"><a xlink:href="Ring_8h.html" target="_top" xlink:title=" ">
<polygon fill="white" stroke="#666666" points="363.39,-129 316.39,-129 316.39,-110 363.39,-110 363.39,-129"/>
<text text-anchor="middle" x="339.89" y="-117" font-family="Helvetica,sans-Serif" font-size="10.00">Ring.h</text>
</a>
</g>
</g>
<!-- Node1&#45;&gt;Node14 -->
<g id="edge20_Node000001_Node000014" class="edge">
<title>Node1&#45;&gt;Node14</title>
<g id="a_edge20_Node000001_Node000014"><a xlink:title=" ">
<path fill="none" stroke="#63b8ff" d="M399.49,-164.98C388.79,-157 372.55,-144.88 359.73,-135.31"/>
<polygon fill="#63b8ff" stroke="#63b8ff" points="361.62,-132.35 351.51,-129.17 357.43,-137.96 361.62,-132.35"/>
</a>
</g>
</g>
<!-- Node15 -->
<g id="Node000015" class="node">
<title>Node15</title>
<g id="a_Node000015"><a xlink:title=" ">
<polygon fill="#e0e0e0" stroke="#999999" points="407.89,-74 369.89,-74 369.89,-55 407.89,-55 407.89,-74"/>
<text text-anchor="middle" x="388.89" y="-62" font-family="Helvetica,sans-Serif" font-size="10.00">map</text>
</a>
</g>
</g>
<!-- Node1&#45;&gt;Node15 -->
<g id="edge27_Node000001_Node000015" class="edge">
<title>Node1&#45;&gt;Node15</title>
<g id="a_edge27_Node000001_Node000015"><a xlink:title=" ">
<path fill="none" stroke="#63b8ff" d="M409.09,-164.66C405.53,-147.17 397.51,-107.8 392.72,-84.27"/>
<polygon fill="#63b8ff" stroke="#63b8ff" points="396.08,-83.26 390.66,-74.16 389.22,-84.66 396.08,-83.26"/>
</a>
</g>
</g>
<!-- Node16 -->
<g id="Node000016" class="node">
<title>Node16</title>
<g id="a_Node000016"><a xlink:title=" ">
<polygon fill="#e0e0e0" stroke="#999999" points="769.39,-129 676.39,-129 676.39,-110 769.39,-110 769.39,-129"/>
<text text-anchor="middle" x="722.89" y="-117" font-family="Helvetica,sans-Serif" font-size="10.00">unordered_map</text>
</a>
</g>
</g>
<!-- Node1&#45;&gt;Node16 -->
<g id="edge28_Node000001_Node000016" class="edge">
<title>Node1&#45;&gt;Node16</title>
<g id="a_edge28_Node000001_Node000016"><a xlink:title=" ">
<path fill="none" stroke="#63b8ff" d="M461.02,-164.98C517,-155.48 607.42,-140.12 666.01,-130.16"/>
<polygon fill="#63b8ff" stroke="#63b8ff" points="666.93,-133.56 676.2,-128.43 665.76,-126.66 666.93,-133.56"/>
</a>
</g>
</g>
<!-- Node17 -->
<g id="Node000017" class="node">
<title>Node17</title>
<g id="a_Node000017"><a xlink:title=" ">
<polygon fill="#e0e0e0" stroke="#999999" points="843.89,-129 787.89,-129 787.89,-110 843.89,-110 843.89,-129"/>
<text text-anchor="middle" x="815.89" y="-117" font-family="Helvetica,sans-Serif" font-size="10.00">sstream</text>
</a>
</g>
</g>
<!-- Node1&#45;&gt;Node17 -->
<g id="edge32_Node000001_Node000017" class="edge">
<title>Node1&#45;&gt;Node17</title>
<g id="a_edge32_Node000001_Node000017"><a xlink:title=" ">
<path fill="none" stroke="#63b8ff" d="M483.15,-167.04C555.34,-160.06 669.65,-147.62 777.59,-129.06"/>
<polygon fill="#63b8ff" stroke="#63b8ff" points="778.42,-132.47 787.67,-127.31 777.22,-125.57 778.42,-132.47"/>
</a>
</g>
</g>
<!-- Node3 -->
<g id="Node000003" class="node">
<title>Node3</title>
<g id="a_Node000003"><a xlink:title=" ">
<polygon fill="#e0e0e0" stroke="#999999" points="303.39,-19 226.39,-19 226.39,0 303.39,0 303.39,-19"/>
<text text-anchor="middle" x="264.89" y="-7" font-family="Helvetica,sans-Serif" font-size="10.00">Eigen/Dense</text>
</a>
</g>
</g>
<!-- Node2&#45;&gt;Node3 -->
<g id="edge2_Node000002_Node000003" class="edge">
<title>Node2&#45;&gt;Node3</title>
<g id="a_edge2_Node000002_Node000003"><a xlink:title=" ">
<path fill="none" stroke="#63b8ff" d="M126.4,-54.98C154.11,-46.09 197.75,-32.07 228.63,-22.15"/>
<polygon fill="#63b8ff" stroke="#63b8ff" points="229.73,-25.47 238.18,-19.08 227.58,-18.81 229.73,-25.47"/>
</a>
</g>
</g>
<!-- Node4 -->
<g id="Node000004" class="node">
<title>Node4</title>
<g id="a_Node000004"><a xlink:title=" ">
<polygon fill="#e0e0e0" stroke="#999999" points="65.89,-19 23.89,-19 23.89,0 65.89,0 65.89,-19"/>
<text text-anchor="middle" x="44.89" y="-7" font-family="Helvetica,sans-Serif" font-size="10.00">array</text>
</a>
</g>
</g>
<!-- Node2&#45;&gt;Node4 -->
<g id="edge3_Node000002_Node000004" class="edge">
<title>Node2&#45;&gt;Node4</title>
<g id="a_edge3_Node000002_Node000004"><a xlink:title=" ">
<path fill="none" stroke="#63b8ff" d="M90.81,-54.75C82.8,-47.03 70.94,-35.6 61.27,-26.28"/>
<polygon fill="#63b8ff" stroke="#63b8ff" points="63.44,-23.51 53.81,-19.09 58.58,-28.55 63.44,-23.51"/>
</a>
</g>
</g>
<!-- Node5 -->
<g id="Node000005" class="node">
<title>Node5</title>
<g id="a_Node000005"><a xlink:title=" ">
<polygon fill="#e0e0e0" stroke="#999999" points="131.39,-19 84.39,-19 84.39,0 131.39,0 131.39,-19"/>
<text text-anchor="middle" x="107.89" y="-7" font-family="Helvetica,sans-Serif" font-size="10.00">cmath</text>
</a>
</g>
</g>
<!-- Node2&#45;&gt;Node5 -->
<g id="edge4_Node000002_Node000005" class="edge">
<title>Node2&#45;&gt;Node5</title>
<g id="a_edge4_Node000002_Node000005"><a xlink:title=" ">
<path fill="none" stroke="#63b8ff" d="M101.21,-54.75C102.26,-47.8 103.77,-37.85 105.08,-29.13"/>
<polygon fill="#63b8ff" stroke="#63b8ff" points="108.57,-29.5 106.6,-19.09 101.64,-28.45 108.57,-29.5"/>
</a>
</g>
</g>
<!-- Node2&#45;&gt;Node6 -->
<g id="edge5_Node000002_Node000006" class="edge">
<title>Node2&#45;&gt;Node6</title>
<g id="a_edge5_Node000002_Node000006"><a xlink:title=" ">
<path fill="none" stroke="#63b8ff" d="M126.59,-56.76C129.39,-56.13 132.19,-55.53 134.89,-55 229.71,-36.37 343,-21.26 397.48,-14.43"/>
<polygon fill="#63b8ff" stroke="#63b8ff" points="398.08,-17.89 407.57,-13.18 397.22,-10.94 398.08,-17.89"/>
</a>
</g>
</g>
<!-- Node7&#45;&gt;Node2 -->
<g id="edge7_Node000007_Node000002" class="edge">
<title>Node7&#45;&gt;Node2</title>
<g id="a_edge7_Node000007_Node000002"><a xlink:title=" ">
<path fill="none" stroke="#63b8ff" d="M79.02,-109.75C82.41,-102.57 87.31,-92.18 91.51,-83.27"/>
<polygon fill="#63b8ff" stroke="#63b8ff" points="94.74,-84.63 95.84,-74.09 88.41,-81.64 94.74,-84.63"/>
</a>
</g>
</g>
<!-- Node7&#45;&gt;Node4 -->
<g id="edge9_Node000007_Node000004" class="edge">
<title>Node7&#45;&gt;Node4</title>
<g id="a_edge9_Node000007_Node000004"><a xlink:title=" ">
<path fill="none" stroke="#63b8ff" d="M72.44,-109.66C67.56,-92.09 56.55,-52.45 50.02,-28.95"/>
<polygon fill="#63b8ff" stroke="#63b8ff" points="53.35,-27.86 47.3,-19.16 46.6,-29.73 53.35,-27.86"/>
</a>
</g>
</g>
<!-- Node7&#45;&gt;Node8 -->
<g id="edge8_Node000007_Node000008" class="edge">
<title>Node7&#45;&gt;Node8</title>
<g id="a_edge8_Node000007_Node000008"><a xlink:title=" ">
<path fill="none" stroke="#63b8ff" d="M109.44,-109.98C149.84,-100.02 216.28,-83.65 256.28,-73.79"/>
<polygon fill="#63b8ff" stroke="#63b8ff" points="257.21,-77.16 266.09,-71.37 255.54,-70.36 257.21,-77.16"/>
</a>
</g>
</g>
<!-- Node9&#45;&gt;Node6 -->
<g id="edge11_Node000009_Node000006" class="edge">
<title>Node9&#45;&gt;Node6</title>
<g id="a_edge11_Node000009_Node000006"><a xlink:title=" ">
<path fill="none" stroke="#63b8ff" d="M517.86,-109.9C514.46,-96.9 506.59,-71.97 492.89,-55 482.74,-42.42 468.16,-31.81 455.58,-24.11"/>
<polygon fill="#63b8ff" stroke="#63b8ff" points="457.27,-21.04 446.87,-19.03 453.74,-27.09 457.27,-21.04"/>
</a>
</g>
</g>
<!-- Node9&#45;&gt;Node8 -->
<g id="edge12_Node000009_Node000008" class="edge">
<title>Node9&#45;&gt;Node8</title>
<g id="a_edge12_Node000009_Node000008"><a xlink:title=" ">
<path fill="none" stroke="#63b8ff" d="M482.94,-109.98C438.83,-99.82 365.72,-82.97 323.26,-73.19"/>
<polygon fill="#63b8ff" stroke="#63b8ff" points="323.94,-69.75 313.41,-70.92 322.37,-76.58 323.94,-69.75"/>
</a>
</g>
</g>
<!-- Node9&#45;&gt;Node10 -->
<g id="edge13_Node000009_Node000010" class="edge">
<title>Node9&#45;&gt;Node10</title>
<g id="a_edge13_Node000009_Node000010"><a xlink:title=" ">
<path fill="none" stroke="#63b8ff" d="M529.86,-109.98C539.02,-102.15 552.83,-90.34 563.92,-80.86"/>
<polygon fill="#63b8ff" stroke="#63b8ff" points="566.42,-83.33 571.75,-74.17 561.88,-78.01 566.42,-83.33"/>
</a>
</g>
</g>
<!-- Node9&#45;&gt;Node11 -->
<g id="edge14_Node000009_Node000011" class="edge">
<title>Node9&#45;&gt;Node11</title>
<g id="a_edge14_Node000009_Node000011"><a xlink:title=" ">
<path fill="none" stroke="#63b8ff" d="M509.45,-109.98C499.75,-102.07 485.08,-90.11 473.39,-80.58"/>
<polygon fill="#63b8ff" stroke="#63b8ff" points="475.49,-77.78 465.53,-74.17 471.07,-83.2 475.49,-77.78"/>
</a>
</g>
</g>
<!-- Node12&#45;&gt;Node2 -->
<g id="edge16_Node000012_Node000002" class="edge">
<title>Node12&#45;&gt;Node2</title>
<g id="a_edge16_Node000012_Node000002"><a xlink:title=" ">
<path fill="none" stroke="#63b8ff" d="M188.86,-109.98C171.96,-101.54 145.83,-88.47 126.25,-78.68"/>
<polygon fill="#63b8ff" stroke="#63b8ff" points="127.74,-75.51 117.23,-74.17 124.61,-81.77 127.74,-75.51"/>
</a>
</g>
</g>
<!-- Node12&#45;&gt;Node6 -->
<g id="edge17_Node000012_Node000006" class="edge">
<title>Node12&#45;&gt;Node6</title>
<g id="a_edge17_Node000012_Node000006"><a xlink:title=" ">
<path fill="none" stroke="#63b8ff" d="M210.54,-109.6C218.25,-95.74 235.03,-69.1 256.89,-55 300.42,-26.92 360.78,-16.54 397.49,-12.71"/>
<polygon fill="#63b8ff" stroke="#63b8ff" points="398,-16.18 407.63,-11.76 397.35,-9.21 398,-16.18"/>
</a>
</g>
</g>
<!-- Node12&#45;&gt;Node8 -->
<g id="edge18_Node000012_Node000008" class="edge">
<title>Node12&#45;&gt;Node8</title>
<g id="a_edge18_Node000012_Node000008"><a xlink:title=" ">
<path fill="none" stroke="#63b8ff" d="M219.39,-109.98C232.29,-101.84 252,-89.41 267.3,-79.76"/>
<polygon fill="#63b8ff" stroke="#63b8ff" points="269.56,-82.47 276.15,-74.17 265.83,-76.55 269.56,-82.47"/>
</a>
</g>
</g>
<!-- Node13 -->
<g id="Node000013" class="node">
<title>Node13</title>
<g id="a_Node000013"><a xlink:title=" ">
<polygon fill="#e0e0e0" stroke="#999999" points="209.39,-74 144.39,-74 144.39,-55 209.39,-55 209.39,-74"/>
<text text-anchor="middle" x="176.89" y="-62" font-family="Helvetica,sans-Serif" font-size="10.00">functional</text>
</a>
</g>
</g>
<!-- Node12&#45;&gt;Node13 -->
<g id="edge19_Node000012_Node000013" class="edge">
<title>Node12&#45;&gt;Node13</title>
<g id="a_edge19_Node000012_Node000013"><a xlink:title=" ">
<path fill="none" stroke="#63b8ff" d="M201.11,-109.75C197.14,-102.49 191.37,-91.95 186.46,-82.98"/>
<polygon fill="#63b8ff" stroke="#63b8ff" points="189.46,-81.18 181.59,-74.09 183.32,-84.54 189.46,-81.18"/>
</a>
</g>
</g>
<!-- Node14&#45;&gt;Node2 -->
<g id="edge21_Node000014_Node000002" class="edge">
<title>Node14&#45;&gt;Node2</title>
<g id="a_edge21_Node000014_Node000002"><a xlink:title=" ">
<path fill="none" stroke="#63b8ff" d="M316.18,-113.55C279.67,-105.88 207.27,-90.52 136.59,-74.35"/>
<polygon fill="#63b8ff" stroke="#63b8ff" points="137.16,-70.89 126.63,-72.06 135.59,-77.71 137.16,-70.89"/>
</a>
</g>
</g>
<!-- Node14&#45;&gt;Node3 -->
<g id="edge22_Node000014_Node000003" class="edge">
<title>Node14&#45;&gt;Node3</title>
<g id="a_edge22_Node000014_Node000003"><a xlink:title=" ">
<path fill="none" stroke="#63b8ff" d="M339.17,-109.99C337.72,-97.1 333.53,-72.3 321.89,-55 313.6,-42.67 300.79,-32.23 289.42,-24.57"/>
<polygon fill="#63b8ff" stroke="#63b8ff" points="291.03,-21.44 280.71,-19.03 287.27,-27.35 291.03,-21.44"/>
</a>
</g>
</g>
<!-- Node14&#45;&gt;Node8 -->
<g id="edge23_Node000014_Node000008" class="edge">
<title>Node14&#45;&gt;Node8</title>
<g id="a_edge23_Node000014_Node000008"><a xlink:title=" ">
<path fill="none" stroke="#63b8ff" d="M331.64,-109.75C324.43,-102.11 313.78,-90.82 305.05,-81.56"/>
<polygon fill="#63b8ff" stroke="#63b8ff" points="307.4,-78.96 298,-74.09 302.31,-83.76 307.4,-78.96"/>
</a>
</g>
</g>
<!-- Node14&#45;&gt;Node11 -->
<g id="edge25_Node000014_Node000011" class="edge">
<title>Node14&#45;&gt;Node11</title>
<g id="a_edge25_Node000014_Node000011"><a xlink:title=" ">
<path fill="none" stroke="#63b8ff" d="M358.37,-109.98C376.87,-101.46 405.57,-88.23 426.88,-78.41"/>
<polygon fill="#63b8ff" stroke="#63b8ff" points="428.46,-81.53 436.08,-74.17 425.53,-75.18 428.46,-81.53"/>
</a>
</g>
</g>
<!-- Node14&#45;&gt;Node15 -->
<g id="edge24_Node000014_Node000015" class="edge">
<title>Node14&#45;&gt;Node15</title>
<g id="a_edge24_Node000014_Node000015"><a xlink:title=" ">
<path fill="none" stroke="#63b8ff" d="M347.99,-109.75C355.05,-102.11 365.48,-90.82 374.04,-81.56"/>
<polygon fill="#63b8ff" stroke="#63b8ff" points="376.73,-83.81 380.95,-74.09 371.59,-79.06 376.73,-83.81"/>
</a>
</g>
</g>
</g>
</svg>
