<?xml version="1.0" encoding="UTF-8" standalone="no"?>
<!DOCTYPE svg PUBLIC "-//W3C//DTD SVG 1.1//EN"
 "http://www.w3.org/Graphics/SVG/1.1/DTD/svg11.dtd">
<!-- Generated by graphviz version 2.43.0 (0)
 -->
<!-- Title: src/ProtonationDetectionResult.h Pages: 1 -->
<svg width="867pt" height="258pt"
 viewBox="0.00 0.00 866.50 258.00" xmlns="http://www.w3.org/2000/svg" xmlns:xlink="http://www.w3.org/1999/xlink">
<g id="graph0" class="graph" transform="scale(1 1) rotate(0) translate(4 254)">
<title>src/ProtonationDetectionResult.h</title>
<!-- Node1 -->
<g id="Node000001" class="node">
<title>Node1</title>
<g id="a_Node000001"><a xlink:title=" ">
<polygon fill="#999999" stroke="#666666" points="322,-250 185,-250 185,-220 322,-220 322,-250"/>
<text text-anchor="start" x="193" y="-238" font-family="Helvetica,sans-Serif" font-size="10.00">src/ProtonationDetection</text>
<text text-anchor="middle" x="253.5" y="-227" font-family="Helvetica,sans-Serif" font-size="10.00">Result.h</text>
</a>
</g>
</g>
<!-- Node2 -->
<g id="Node000002" class="node">
<title>Node2</title>
<g id="a_Node000002"><a xlink:href="ConformationResult_8h.html" target="_top" xlink:title=" ">
<polygon fill="white" stroke="#666666" points="169,-129 46,-129 46,-110 169,-110 169,-129"/>
<text text-anchor="middle" x="107.5" y="-117" font-family="Helvetica,sans-Serif" font-size="10.00">ConformationResult.h</text>
</a>
</g>
</g>
<!-- Node1&#45;&gt;Node2 -->
<g id="edge1_Node000001_Node000002" class="edge">
<title>Node1&#45;&gt;Node2</title>
<g id="a_edge1_Node000001_Node000002"><a xlink:title=" ">
<path fill="none" stroke="#63b8ff" d="M235.3,-219.85C207.59,-198.31 155.06,-157.47 126.74,-135.46"/>
<polygon fill="#63b8ff" stroke="#63b8ff" points="128.83,-132.64 118.78,-129.27 124.53,-138.17 128.83,-132.64"/>
</a>
</g>
</g>
<!-- Node7 -->
<g id="Node000007" class="node">
<title>Node7</title>
<g id="a_Node000007"><a xlink:href="ProteinConformation_8h.html" target="_top" xlink:title=" ">
<polygon fill="white" stroke="#666666" points="463,-184 336,-184 336,-165 463,-165 463,-184"/>
<text text-anchor="middle" x="399.5" y="-172" font-family="Helvetica,sans-Serif" font-size="10.00">ProteinConformation.h</text>
</a>
</g>
</g>
<!-- Node1&#45;&gt;Node7 -->
<g id="edge6_Node000001_Node000007" class="edge">
<title>Node1&#45;&gt;Node7</title>
<g id="a_edge6_Node000001_Node000007"><a xlink:title=" ">
<path fill="none" stroke="#63b8ff" d="M288.47,-219.99C312.83,-210.23 345.03,-197.33 368.47,-187.93"/>
<polygon fill="#63b8ff" stroke="#63b8ff" points="369.96,-191.11 377.94,-184.14 367.35,-184.61 369.96,-191.11"/>
</a>
</g>
</g>
<!-- Node3 -->
<g id="Node000003" class="node">
<title>Node3</title>
<g id="a_Node000003"><a xlink:title=" ">
<polygon fill="#e0e0e0" stroke="#999999" points="276.5,-19 232.5,-19 232.5,0 276.5,0 276.5,-19"/>
<text text-anchor="middle" x="254.5" y="-7" font-family="Helvetica,sans-Serif" font-size="10.00">string</text>
</a>
</g>
</g>
<!-- Node2&#45;&gt;Node3 -->
<g id="edge2_Node000002_Node000003" class="edge">
<title>Node2&#45;&gt;Node3</title>
<g id="a_edge2_Node000002_Node000003"><a xlink:title=" ">
<path fill="none" stroke="#63b8ff" d="M109.83,-109.88C113.89,-96.4 123.49,-70.28 140.5,-55 163.6,-34.25 197.47,-22.69 222.29,-16.59"/>
<polygon fill="#63b8ff" stroke="#63b8ff" points="223.35,-19.94 232.32,-14.3 221.79,-13.12 223.35,-19.94"/>
</a>
</g>
</g>
<!-- Node4 -->
<g id="Node000004" class="node">
<title>Node4</title>
<g id="a_Node000004"><a xlink:title=" ">
<polygon fill="#e0e0e0" stroke="#999999" points="432,-74 385,-74 385,-55 432,-55 432,-74"/>
<text text-anchor="middle" x="408.5" y="-62" font-family="Helvetica,sans-Serif" font-size="10.00">vector</text>
</a>
</g>
</g>
<!-- Node2&#45;&gt;Node4 -->
<g id="edge3_Node000002_Node000004" class="edge">
<title>Node2&#45;&gt;Node4</title>
<g id="a_edge3_Node000002_Node000004"><a xlink:title=" ">
<path fill="none" stroke="#63b8ff" d="M169.25,-110C221.62,-102.4 298.93,-90.27 374.61,-74.25"/>
<polygon fill="#63b8ff" stroke="#63b8ff" points="375.75,-77.58 384.8,-72.07 374.28,-70.74 375.75,-77.58"/>
</a>
</g>
</g>
<!-- Node5 -->
<g id="Node000005" class="node">
<title>Node5</title>
<g id="a_Node000005"><a xlink:title=" ">
<polygon fill="#e0e0e0" stroke="#999999" points="65,-74 0,-74 0,-55 65,-55 65,-74"/>
<text text-anchor="middle" x="32.5" y="-62" font-family="Helvetica,sans-Serif" font-size="10.00">typeindex</text>
</a>
</g>
</g>
<!-- Node2&#45;&gt;Node5 -->
<g id="edge4_Node000002_Node000005" class="edge">
<title>Node2&#45;&gt;Node5</title>
<g id="a_edge4_Node000002_Node000005"><a xlink:title=" ">
<path fill="none" stroke="#63b8ff" d="M95.45,-109.98C84.04,-101.92 66.67,-89.65 53.07,-80.03"/>
<polygon fill="#63b8ff" stroke="#63b8ff" points="54.96,-77.08 44.77,-74.17 50.92,-82.8 54.96,-77.08"/>
</a>
</g>
</g>
<!-- Node6 -->
<g id="Node000006" class="node">
<title>Node6</title>
<g id="a_Node000006"><a xlink:title=" ">
<polygon fill="#e0e0e0" stroke="#999999" points="207.5,-74 149.5,-74 149.5,-55 207.5,-55 207.5,-74"/>
<text text-anchor="middle" x="178.5" y="-62" font-family="Helvetica,sans-Serif" font-size="10.00">memory</text>
</a>
</g>
</g>
<!-- Node2&#45;&gt;Node6 -->
<g id="edge5_Node000002_Node000006" class="edge">
<title>Node2&#45;&gt;Node6</title>
<g id="a_edge5_Node000002_Node000006"><a xlink:title=" ">
<path fill="none" stroke="#63b8ff" d="M118.91,-109.98C129.61,-102 145.84,-89.88 158.66,-80.31"/>
<polygon fill="#63b8ff" stroke="#63b8ff" points="160.97,-82.96 166.89,-74.17 156.78,-77.35 160.97,-82.96"/>
</a>
</g>
</g>
<!-- Node7&#45;&gt;Node2 -->
<g id="edge16_Node000007_Node000002" class="edge">
<title>Node7&#45;&gt;Node2</title>
<g id="a_edge16_Node000007_Node000002"><a xlink:title=" ">
<path fill="none" stroke="#63b8ff" d="M352.59,-164.98C301.44,-155.7 219.58,-140.84 164.7,-130.88"/>
<polygon fill="#63b8ff" stroke="#63b8ff" points="165.25,-127.42 154.78,-129.08 164,-134.31 165.25,-127.42"/>
</a>
</g>
</g>
<!-- Node7&#45;&gt;Node3 -->
<g id="edge33_Node000007_Node000003" class="edge">
<title>Node7&#45;&gt;Node3</title>
<g id="a_edge33_Node000007_Node000003"><a xlink:title=" ">
<path fill="none" stroke="#63b8ff" d="M335.89,-170.37C306.51,-165.35 274.09,-153.98 255.5,-129 233.67,-99.67 241.67,-53.96 248.6,-28.74"/>
<polygon fill="#63b8ff" stroke="#63b8ff" points="252,-29.6 251.51,-19.01 245.29,-27.59 252,-29.6"/>
</a>
</g>
</g>
<!-- Node7&#45;&gt;Node4 -->
<g id="edge28_Node000007_Node000004" class="edge">
<title>Node7&#45;&gt;Node4</title>
<g id="a_edge28_Node000007_Node000004"><a xlink:title=" ">
<path fill="none" stroke="#63b8ff" d="M400.24,-164.66C401.69,-147.17 404.97,-107.8 406.94,-84.27"/>
<polygon fill="#63b8ff" stroke="#63b8ff" points="410.44,-84.41 407.78,-74.16 403.46,-83.83 410.44,-84.41"/>
</a>
</g>
</g>
<!-- Node7&#45;&gt;Node5 -->
<g id="edge31_Node000007_Node000005" class="edge">
<title>Node7&#45;&gt;Node5</title>
<g id="a_edge31_Node000007_Node000005"><a xlink:title=" ">
<path fill="none" stroke="#63b8ff" d="M335.87,-170.06C237.24,-164.09 56.64,-150.37 36.5,-129 25.5,-117.33 25.69,-98.47 27.92,-84.33"/>
<polygon fill="#63b8ff" stroke="#63b8ff" points="31.41,-84.73 29.96,-74.23 24.55,-83.34 31.41,-84.73"/>
</a>
</g>
</g>
<!-- Node7&#45;&gt;Node6 -->
<g id="edge32_Node000007_Node000006" class="edge">
<title>Node7&#45;&gt;Node6</title>
<g id="a_edge32_Node000007_Node000006"><a xlink:title=" ">
<path fill="none" stroke="#63b8ff" d="M335.98,-168.84C299.76,-163.58 255.04,-152.46 221.5,-129 205.35,-117.7 193.49,-98.23 186.37,-83.82"/>
<polygon fill="#63b8ff" stroke="#63b8ff" points="189.4,-82.02 182.03,-74.41 183.04,-84.96 189.4,-82.02"/>
</a>
</g>
</g>
<!-- Node8 -->
<g id="Node000008" class="node">
<title>Node8</title>
<g id="a_Node000008"><a xlink:href="Types_8h.html" target="_top" xlink:title=" ">
<polygon fill="white" stroke="#666666" points="573,-74 520,-74 520,-55 573,-55 573,-74"/>
<text text-anchor="middle" x="546.5" y="-62" font-family="Helvetica,sans-Serif" font-size="10.00">Types.h</text>
</a>
</g>
</g>
<!-- Node7&#45;&gt;Node8 -->
<g id="edge7_Node000007_Node000008" class="edge">
<title>Node7&#45;&gt;Node8</title>
<g id="a_edge7_Node000007_Node000008"><a xlink:title=" ">
<path fill="none" stroke="#63b8ff" d="M455.05,-164.97C495.05,-157.57 544.07,-145.44 556.5,-129 566.26,-116.09 561.75,-97.43 556.01,-83.67"/>
<polygon fill="#63b8ff" stroke="#63b8ff" points="559.02,-81.85 551.59,-74.29 552.69,-84.83 559.02,-81.85"/>
</a>
</g>
</g>
<!-- Node12 -->
<g id="Node000012" class="node">
<title>Node12</title>
<g id="a_Node000012"><a xlink:href="ConformationAtom_8h.html" target="_top" xlink:title=" ">
<polygon fill="white" stroke="#666666" points="547,-129 428,-129 428,-110 547,-110 547,-129"/>
<text text-anchor="middle" x="487.5" y="-117" font-family="Helvetica,sans-Serif" font-size="10.00">ConformationAtom.h</text>
</a>
</g>
</g>
<!-- Node7&#45;&gt;Node12 -->
<g id="edge12_Node000007_Node000012" class="edge">
<title>Node7&#45;&gt;Node12</title>
<g id="a_edge12_Node000007_Node000012"><a xlink:title=" ">
<path fill="none" stroke="#63b8ff" d="M413.64,-164.98C427.29,-156.77 448.19,-144.18 464.28,-134.49"/>
<polygon fill="#63b8ff" stroke="#63b8ff" points="466.34,-137.33 473.1,-129.17 462.73,-131.33 466.34,-137.33"/>
</a>
</g>
</g>
<!-- Node13 -->
<g id="Node000013" class="node">
<title>Node13</title>
<g id="a_Node000013"><a xlink:href="GeometryChoice_8h.html" target="_top" xlink:title=" ">
<polygon fill="white" stroke="#666666" points="371,-129 264,-129 264,-110 371,-110 371,-129"/>
<text text-anchor="middle" x="317.5" y="-117" font-family="Helvetica,sans-Serif" font-size="10.00">GeometryChoice.h</text>
</a>
</g>
</g>
<!-- Node7&#45;&gt;Node13 -->
<g id="edge17_Node000007_Node000013" class="edge">
<title>Node7&#45;&gt;Node13</title>
<g id="a_edge17_Node000007_Node000013"><a xlink:title=" ">
<path fill="none" stroke="#63b8ff" d="M386.33,-164.98C373.73,-156.84 354.5,-144.41 339.56,-134.76"/>
<polygon fill="#63b8ff" stroke="#63b8ff" points="341.21,-131.66 330.91,-129.17 337.41,-137.54 341.21,-131.66"/>
</a>
</g>
</g>
<!-- Node15 -->
<g id="Node000015" class="node">
<title>Node15</title>
<g id="a_Node000015"><a xlink:href="Ring_8h.html" target="_top" xlink:title=" ">
<polygon fill="white" stroke="#666666" points="837,-129 790,-129 790,-110 837,-110 837,-129"/>
<text text-anchor="middle" x="813.5" y="-117" font-family="Helvetica,sans-Serif" font-size="10.00">Ring.h</text>
</a>
</g>
</g>
<!-- Node7&#45;&gt;Node15 -->
<g id="edge22_Node000007_Node000015" class="edge">
<title>Node7&#45;&gt;Node15</title>
<g id="a_edge22_Node000007_Node000015"><a xlink:title=" ">
<path fill="none" stroke="#63b8ff" d="M463.27,-168.72C537.18,-162.58 662.76,-150.31 779.93,-128.85"/>
<polygon fill="#63b8ff" stroke="#63b8ff" points="780.6,-132.28 789.79,-127.02 779.32,-125.4 780.6,-132.28"/>
</a>
</g>
</g>
<!-- Node16 -->
<g id="Node000016" class="node">
<title>Node16</title>
<g id="a_Node000016"><a xlink:title=" ">
<polygon fill="#e0e0e0" stroke="#999999" points="858.5,-74 820.5,-74 820.5,-55 858.5,-55 858.5,-74"/>
<text text-anchor="middle" x="839.5" y="-62" font-family="Helvetica,sans-Serif" font-size="10.00">map</text>
</a>
</g>
</g>
<!-- Node7&#45;&gt;Node16 -->
<g id="edge29_Node000007_Node000016" class="edge">
<title>Node7&#45;&gt;Node16</title>
<g id="a_edge29_Node000007_Node000016"><a xlink:title=" ">
<path fill="none" stroke="#63b8ff" d="M463.26,-171.79C580.63,-167.99 821.28,-156.86 846.5,-129 857.52,-116.83 853.45,-97.49 848.06,-83.35"/>
<polygon fill="#63b8ff" stroke="#63b8ff" points="851.27,-81.95 844.1,-74.15 844.84,-84.72 851.27,-81.95"/>
</a>
</g>
</g>
<!-- Node17 -->
<g id="Node000017" class="node">
<title>Node17</title>
<g id="a_Node000017"><a xlink:title=" ">
<polygon fill="#e0e0e0" stroke="#999999" points="697,-129 604,-129 604,-110 697,-110 697,-129"/>
<text text-anchor="middle" x="650.5" y="-117" font-family="Helvetica,sans-Serif" font-size="10.00">unordered_map</text>
</a>
</g>
</g>
<!-- Node7&#45;&gt;Node17 -->
<g id="edge30_Node000007_Node000017" class="edge">
<title>Node7&#45;&gt;Node17</title>
<g id="a_edge30_Node000007_Node000017"><a xlink:title=" ">
<path fill="none" stroke="#63b8ff" d="M439.83,-164.98C483.34,-155.8 552.7,-141.15 599.85,-131.19"/>
<polygon fill="#63b8ff" stroke="#63b8ff" points="600.8,-134.57 609.86,-129.08 599.35,-127.72 600.8,-134.57"/>
</a>
</g>
</g>
<!-- Node18 -->
<g id="Node000018" class="node">
<title>Node18</title>
<g id="a_Node000018"><a xlink:title=" ">
<polygon fill="#e0e0e0" stroke="#999999" points="771.5,-129 715.5,-129 715.5,-110 771.5,-110 771.5,-129"/>
<text text-anchor="middle" x="743.5" y="-117" font-family="Helvetica,sans-Serif" font-size="10.00">sstream</text>
</a>
</g>
</g>
<!-- Node7&#45;&gt;Node18 -->
<g id="edge34_Node000007_Node000018" class="edge">
<title>Node7&#45;&gt;Node18</title>
<g id="a_edge34_Node000007_Node000018"><a xlink:title=" ">
<path fill="none" stroke="#63b8ff" d="M463.25,-165.81C523.27,-158.21 615.87,-145.6 705.23,-129.11"/>
<polygon fill="#63b8ff" stroke="#63b8ff" points="706.08,-132.51 715.27,-127.24 704.8,-125.63 706.08,-132.51"/>
</a>
</g>
</g>
<!-- Node8&#45;&gt;Node3 -->
<g id="edge11_Node000008_Node000003" class="edge">
<title>Node8&#45;&gt;Node3</title>
<g id="a_edge11_Node000008_Node000003"><a xlink:title=" ">
<path fill="none" stroke="#63b8ff" d="M519.81,-58.66C466,-48.89 344.68,-26.87 286.63,-16.33"/>
<polygon fill="#63b8ff" stroke="#63b8ff" points="287.02,-12.85 276.56,-14.5 285.77,-19.73 287.02,-12.85"/>
</a>
</g>
</g>
<!-- Node9 -->
<g id="Node000009" class="node">
<title>Node9</title>
<g id="a_Node000009"><a xlink:title=" ">
<polygon fill="#e0e0e0" stroke="#999999" points="703,-19 626,-19 626,0 703,0 703,-19"/>
<text text-anchor="middle" x="664.5" y="-7" font-family="Helvetica,sans-Serif" font-size="10.00">Eigen/Dense</text>
</a>
</g>
</g>
<!-- Node8&#45;&gt;Node9 -->
<g id="edge8_Node000008_Node000009" class="edge">
<title>Node8&#45;&gt;Node9</title>
<g id="a_edge8_Node000008_Node000009"><a xlink:title=" ">
<path fill="none" stroke="#63b8ff" d="M565.46,-54.98C584.53,-46.42 614.16,-33.11 636.05,-23.28"/>
<polygon fill="#63b8ff" stroke="#63b8ff" points="637.51,-26.46 645.2,-19.17 634.64,-20.07 637.51,-26.46"/>
</a>
</g>
</g>
<!-- Node10 -->
<g id="Node000010" class="node">
<title>Node10</title>
<g id="a_Node000010"><a xlink:title=" ">
<polygon fill="#e0e0e0" stroke="#999999" points="508.5,-19 466.5,-19 466.5,0 508.5,0 508.5,-19"/>
<text text-anchor="middle" x="487.5" y="-7" font-family="Helvetica,sans-Serif" font-size="10.00">array</text>
</a>
</g>
</g>
<!-- Node8&#45;&gt;Node10 -->
<g id="edge9_Node000008_Node000010" class="edge">
<title>Node8&#45;&gt;Node10</title>
<g id="a_edge9_Node000008_Node000010"><a xlink:title=" ">
<path fill="none" stroke="#63b8ff" d="M537.02,-54.98C528.3,-47.15 515.16,-35.34 504.6,-25.86"/>
<polygon fill="#63b8ff" stroke="#63b8ff" points="506.93,-23.25 497.15,-19.17 502.25,-28.46 506.93,-23.25"/>
</a>
</g>
</g>
<!-- Node11 -->
<g id="Node000011" class="node">
<title>Node11</title>
<g id="a_Node000011"><a xlink:title=" ">
<polygon fill="#e0e0e0" stroke="#999999" points="574,-19 527,-19 527,0 574,0 574,-19"/>
<text text-anchor="middle" x="550.5" y="-7" font-family="Helvetica,sans-Serif" font-size="10.00">cmath</text>
</a>
</g>
</g>
<!-- Node8&#45;&gt;Node11 -->
<g id="edge10_Node000008_Node000011" class="edge">
<title>Node8&#45;&gt;Node11</title>
<g id="a_edge10_Node000008_Node000011"><a xlink:title=" ">
<path fill="none" stroke="#63b8ff" d="M547.16,-54.75C547.68,-47.8 548.44,-37.85 549.09,-29.13"/>
<polygon fill="#63b8ff" stroke="#63b8ff" points="552.59,-29.32 549.85,-19.09 545.61,-28.8 552.59,-29.32"/>
</a>
</g>
</g>
<!-- Node12&#45;&gt;Node4 -->
<g id="edge14_Node000012_Node000004" class="edge">
<title>Node12&#45;&gt;Node4</title>
<g id="a_edge14_Node000012_Node000004"><a xlink:title=" ">
<path fill="none" stroke="#63b8ff" d="M474.81,-109.98C462.67,-101.84 444.14,-89.41 429.75,-79.76"/>
<polygon fill="#63b8ff" stroke="#63b8ff" points="431.68,-76.84 421.42,-74.17 427.78,-82.65 431.68,-76.84"/>
</a>
</g>
</g>
<!-- Node12&#45;&gt;Node8 -->
<g id="edge13_Node000012_Node000008" class="edge">
<title>Node12&#45;&gt;Node8</title>
<g id="a_edge13_Node000012_Node000008"><a xlink:title=" ">
<path fill="none" stroke="#63b8ff" d="M496.98,-109.98C505.7,-102.15 518.84,-90.34 529.4,-80.86"/>
<polygon fill="#63b8ff" stroke="#63b8ff" points="531.75,-83.46 536.85,-74.17 527.07,-78.25 531.75,-83.46"/>
</a>
</g>
</g>
<!-- Node12&#45;&gt;Node10 -->
<g id="edge15_Node000012_Node000010" class="edge">
<title>Node12&#45;&gt;Node10</title>
<g id="a_edge15_Node000012_Node000010"><a xlink:title=" ">
<path fill="none" stroke="#63b8ff" d="M487.5,-109.66C487.5,-92.17 487.5,-52.8 487.5,-29.27"/>
<polygon fill="#63b8ff" stroke="#63b8ff" points="491,-29.16 487.5,-19.16 484,-29.16 491,-29.16"/>
</a>
</g>
</g>
<!-- Node13&#45;&gt;Node3 -->
<g id="edge19_Node000013_Node000003" class="edge">
<title>Node13&#45;&gt;Node3</title>
<g id="a_edge19_Node000013_Node000003"><a xlink:title=" ">
<path fill="none" stroke="#63b8ff" d="M312.34,-109.66C301.96,-91.85 278.34,-51.37 264.71,-28.01"/>
<polygon fill="#63b8ff" stroke="#63b8ff" points="267.61,-26.03 259.55,-19.16 261.57,-29.56 267.61,-26.03"/>
</a>
</g>
</g>
<!-- Node13&#45;&gt;Node4 -->
<g id="edge20_Node000013_Node000004" class="edge">
<title>Node13&#45;&gt;Node4</title>
<g id="a_edge20_Node000013_Node000004"><a xlink:title=" ">
<path fill="none" stroke="#63b8ff" d="M332.12,-109.98C346.36,-101.69 368.25,-88.94 384.95,-79.22"/>
<polygon fill="#63b8ff" stroke="#63b8ff" points="386.73,-82.23 393.61,-74.17 383.21,-76.18 386.73,-82.23"/>
</a>
</g>
</g>
<!-- Node13&#45;&gt;Node8 -->
<g id="edge18_Node000013_Node000008" class="edge">
<title>Node13&#45;&gt;Node8</title>
<g id="a_edge18_Node000013_Node000008"><a xlink:title=" ">
<path fill="none" stroke="#63b8ff" d="M354.29,-109.98C397.04,-100.09 467.15,-83.86 509.84,-73.98"/>
<polygon fill="#63b8ff" stroke="#63b8ff" points="510.86,-77.34 519.81,-71.68 509.28,-70.52 510.86,-77.34"/>
</a>
</g>
</g>
<!-- Node14 -->
<g id="Node000014" class="node">
<title>Node14</title>
<g id="a_Node000014"><a xlink:title=" ">
<polygon fill="#e0e0e0" stroke="#999999" points="367,-74 302,-74 302,-55 367,-55 367,-74"/>
<text text-anchor="middle" x="334.5" y="-62" font-family="Helvetica,sans-Serif" font-size="10.00">functional</text>
</a>
</g>
</g>
<!-- Node13&#45;&gt;Node14 -->
<g id="edge21_Node000013_Node000014" class="edge">
<title>Node13&#45;&gt;Node14</title>
<g id="a_edge21_Node000013_Node000014"><a xlink:title=" ">
<path fill="none" stroke="#63b8ff" d="M320.31,-109.75C322.56,-102.72 325.8,-92.62 328.62,-83.84"/>
<polygon fill="#63b8ff" stroke="#63b8ff" points="332.02,-84.68 331.75,-74.09 325.36,-82.54 332.02,-84.68"/>
</a>
</g>
</g>
<!-- Node15&#45;&gt;Node4 -->
<g id="edge25_Node000015_Node000004" class="edge">
<title>Node15&#45;&gt;Node4</title>
<g id="a_edge25_Node000015_Node000004"><a xlink:title=" ">
<path fill="none" stroke="#63b8ff" d="M789.79,-111.99C786.68,-111.26 783.52,-110.57 780.5,-110 656.97,-86.81 507.97,-73.27 442.34,-68.03"/>
<polygon fill="#63b8ff" stroke="#63b8ff" points="442.41,-64.53 432.17,-67.23 441.86,-71.5 442.41,-64.53"/>
</a>
</g>
</g>
<!-- Node15&#45;&gt;Node6 -->
<g id="edge27_Node000015_Node000006" class="edge">
<title>Node15&#45;&gt;Node6</title>
<g id="a_edge27_Node000015_Node000006"><a xlink:title=" ">
<path fill="none" stroke="#63b8ff" d="M789.81,-111.86C786.7,-111.15 783.54,-110.5 780.5,-110 780.5,-110 351.35,-78.28 217.73,-68.4"/>
<polygon fill="#63b8ff" stroke="#63b8ff" points="217.77,-64.89 207.54,-67.65 217.25,-71.87 217.77,-64.89"/>
</a>
</g>
</g>
<!-- Node15&#45;&gt;Node8 -->
<g id="edge23_Node000015_Node000008" class="edge">
<title>Node15&#45;&gt;Node8</title>
<g id="a_edge23_Node000015_Node000008"><a xlink:title=" ">
<path fill="none" stroke="#63b8ff" d="M789.75,-112.19C786.65,-111.42 783.5,-110.67 780.5,-110 711.24,-94.51 629.67,-79.79 583.43,-71.77"/>
<polygon fill="#63b8ff" stroke="#63b8ff" points="583.73,-68.27 573.29,-70.02 582.54,-75.17 583.73,-68.27"/>
</a>
</g>
</g>
<!-- Node15&#45;&gt;Node9 -->
<g id="edge24_Node000015_Node000009" class="edge">
<title>Node15&#45;&gt;Node9</title>
<g id="a_edge24_Node000015_Node000009"><a xlink:title=" ">
<path fill="none" stroke="#63b8ff" d="M801.56,-109.84C776.17,-91.44 716.56,-48.23 684.97,-25.34"/>
<polygon fill="#63b8ff" stroke="#63b8ff" points="686.65,-22.23 676.5,-19.2 682.54,-27.9 686.65,-22.23"/>
</a>
</g>
</g>
<!-- Node15&#45;&gt;Node16 -->
<g id="edge26_Node000015_Node000016" class="edge">
<title>Node15&#45;&gt;Node16</title>
<g id="a_edge26_Node000015_Node000016"><a xlink:title=" ">
<path fill="none" stroke="#63b8ff" d="M817.79,-109.75C821.31,-102.57 826.41,-92.18 830.78,-83.27"/>
<polygon fill="#63b8ff" stroke="#63b8ff" points="834.02,-84.61 835.29,-74.09 827.74,-81.53 834.02,-84.61"/>
</a>
</g>
</g>
</g>
</svg>
