<?xml version="1.0" encoding="UTF-8" standalone="no"?>
<!DOCTYPE svg PUBLIC "-//W3C//DTD SVG 1.1//EN"
 "http://www.w3.org/Graphics/SVG/1.1/DTD/svg11.dtd">
<!-- Generated by graphviz version 2.43.0 (0)
 -->
<!-- Title: src/ProteinConformation.h Pages: 1 -->
<svg width="1395pt" height="258pt"
 viewBox="0.00 0.00 1394.50 258.00" xmlns="http://www.w3.org/2000/svg" xmlns:xlink="http://www.w3.org/1999/xlink">
<g id="graph0" class="graph" transform="scale(1 1) rotate(0) translate(4 254)">
<title>src/ProteinConformation.h</title>
<!-- Node1 -->
<g id="Node000001" class="node">
<title>Node1</title>
<g id="a_Node000001"><a xlink:title=" ">
<polygon fill="#999999" stroke="#666666" points="598,-250 454,-250 454,-231 598,-231 598,-250"/>
<text text-anchor="middle" x="526" y="-238" font-family="Helvetica,sans-Serif" font-size="10.00">src/ProteinConformation.h</text>
</a>
</g>
</g>
<!-- Node2 -->
<g id="Node000002" class="node">
<title>Node2</title>
<g id="a_Node000002"><a xlink:href="ApbsFieldResult_8h.html" target="_top" xlink:title=" ">
<polygon fill="white" stroke="#666666" points="173.5,-129 52.5,-129 52.5,-110 173.5,-110 173.5,-129"/>
<text text-anchor="middle" x="113" y="-117" font-family="Helvetica,sans-Serif" font-size="10.00">src/ApbsFieldResult.h</text>
</a>
</g>
</g>
<!-- Node1&#45;&gt;Node2 -->
<g id="edge1_Node000001_Node000002" class="edge">
<title>Node1&#45;&gt;Node2</title>
<g id="a_edge1_Node000001_Node000002"><a xlink:title=" ">
<path fill="none" stroke="#63b8ff" d="M443.83,-238.07C380.18,-234.53 290.86,-224.13 218,-195 215.39,-193.96 152.15,-148.63 125.1,-129.19"/>
<polygon fill="#63b8ff" stroke="#63b8ff" points="443.65,-241.57 453.82,-238.59 444.01,-234.58 443.65,-241.57"/>
</a>
</g>
</g>
<!-- Node3 -->
<g id="Node000003" class="node">
<title>Node3</title>
<g id="a_Node000003"><a xlink:href="ChargeAssignmentResult_8h.html" target="_top" xlink:title=" ">
<polygon fill="white" stroke="#666666" points="166,-189.5 0,-189.5 0,-170.5 166,-170.5 166,-189.5"/>
<text text-anchor="middle" x="83" y="-177.5" font-family="Helvetica,sans-Serif" font-size="10.00">src/ChargeAssignmentResult.h</text>
</a>
</g>
</g>
<!-- Node1&#45;&gt;Node3 -->
<g id="edge2_Node000001_Node000003" class="edge">
<title>Node1&#45;&gt;Node3</title>
<g id="a_edge2_Node000001_Node000003"><a xlink:title=" ">
<path fill="none" stroke="#63b8ff" d="M447.27,-229.73C377.11,-220.93 271.66,-207.51 180,-195 167.36,-193.27 153.8,-191.36 140.94,-189.51"/>
<polygon fill="#63b8ff" stroke="#63b8ff" points="447,-233.22 457.36,-230.99 447.87,-226.27 447,-233.22"/>
</a>
</g>
</g>
<!-- Node4 -->
<g id="Node000004" class="node">
<title>Node4</title>
<g id="a_Node000004"><a xlink:href="DemoResult_8h.html" target="_top" xlink:title=" ">
<polygon fill="white" stroke="#666666" points="363.5,-74 260.5,-74 260.5,-55 363.5,-55 363.5,-74"/>
<text text-anchor="middle" x="312" y="-62" font-family="Helvetica,sans-Serif" font-size="10.00">src/DemoResult.h</text>
</a>
</g>
</g>
<!-- Node1&#45;&gt;Node4 -->
<g id="edge4_Node000001_Node000004" class="edge">
<title>Node1&#45;&gt;Node4</title>
<g id="a_edge4_Node000001_Node000004"><a xlink:title=" ">
<path fill="none" stroke="#63b8ff" d="M452.3,-228.85C395.19,-216.11 320.64,-188.45 289,-129 279.08,-110.37 294.48,-86.54 304.5,-74.04"/>
<polygon fill="#63b8ff" stroke="#63b8ff" points="451.87,-232.34 462.38,-230.99 453.33,-225.49 451.87,-232.34"/>
</a>
</g>
</g>
<!-- Node5 -->
<g id="Node000005" class="node">
<title>Node5</title>
<g id="a_Node000005"><a xlink:href="DsspResult_8h.html" target="_top" xlink:title=" ">
<polygon fill="white" stroke="#666666" points="800,-189.5 702,-189.5 702,-170.5 800,-170.5 800,-189.5"/>
<text text-anchor="middle" x="751" y="-177.5" font-family="Helvetica,sans-Serif" font-size="10.00">src/DsspResult.h</text>
</a>
</g>
</g>
<!-- Node1&#45;&gt;Node5 -->
<g id="edge5_Node000001_Node000005" class="edge">
<title>Node1&#45;&gt;Node5</title>
<g id="a_edge5_Node000001_Node000005"><a xlink:title=" ">
<path fill="none" stroke="#63b8ff" d="M568.44,-228.47C611.93,-217.16 678.65,-199.81 718.24,-189.52"/>
<polygon fill="#63b8ff" stroke="#63b8ff" points="567.51,-225.09 558.72,-230.99 569.28,-231.86 567.51,-225.09"/>
</a>
</g>
</g>
<!-- Node6 -->
<g id="Node000006" class="node">
<title>Node6</title>
<g id="a_Node000006"><a xlink:href="EnrichmentResult_8h.html" target="_top" xlink:title=" ">
<polygon fill="white" stroke="#666666" points="947.5,-189.5 818.5,-189.5 818.5,-170.5 947.5,-170.5 947.5,-189.5"/>
<text text-anchor="middle" x="883" y="-177.5" font-family="Helvetica,sans-Serif" font-size="10.00">src/EnrichmentResult.h</text>
</a>
</g>
</g>
<!-- Node1&#45;&gt;Node6 -->
<g id="edge6_Node000001_Node000006" class="edge">
<title>Node1&#45;&gt;Node6</title>
<g id="a_edge6_Node000001_Node000006"><a xlink:title=" ">
<path fill="none" stroke="#63b8ff" d="M593.58,-229.48C650.97,-220.82 735.49,-207.73 809,-195 818.79,-193.3 829.29,-191.38 839.22,-189.52"/>
<polygon fill="#63b8ff" stroke="#63b8ff" points="592.91,-226.04 583.54,-230.99 593.95,-232.96 592.91,-226.04"/>
</a>
</g>
</g>
<!-- Node7 -->
<g id="Node000007" class="node">
<title>Node7</title>
<g id="a_Node000007"><a xlink:href="GeometryResult_8h.html" target="_top" xlink:title=" ">
<polygon fill="white" stroke="#666666" points="420,-129 298,-129 298,-110 420,-110 420,-129"/>
<text text-anchor="middle" x="359" y="-117" font-family="Helvetica,sans-Serif" font-size="10.00">src/GeometryResult.h</text>
</a>
</g>
</g>
<!-- Node1&#45;&gt;Node7 -->
<g id="edge7_Node000001_Node000007" class="edge">
<title>Node1&#45;&gt;Node7</title>
<g id="a_edge7_Node000001_Node000007"><a xlink:title=" ">
<path fill="none" stroke="#63b8ff" d="M485.77,-227.53C465.16,-220.19 440.4,-209.41 421,-195 395.33,-175.94 373.61,-144.13 364.12,-129"/>
<polygon fill="#63b8ff" stroke="#63b8ff" points="484.91,-230.94 495.51,-230.86 487.18,-224.31 484.91,-230.94"/>
</a>
</g>
</g>
<!-- Node8 -->
<g id="Node000008" class="node">
<title>Node8</title>
<g id="a_Node000008"><a xlink:href="SpatialIndexResult_8h.html" target="_top" xlink:title=" ">
<polygon fill="white" stroke="#666666" points="516,-74 382,-74 382,-55 516,-55 516,-74"/>
<text text-anchor="middle" x="449" y="-62" font-family="Helvetica,sans-Serif" font-size="10.00">src/SpatialIndexResult.h</text>
</a>
</g>
</g>
<!-- Node1&#45;&gt;Node8 -->
<g id="edge23_Node000001_Node000008" class="edge">
<title>Node1&#45;&gt;Node8</title>
<g id="a_edge23_Node000001_Node000008"><a xlink:title=" ">
<path fill="none" stroke="#63b8ff" d="M490.9,-226.46C476.93,-219.39 462.24,-209.13 454,-195 430.77,-155.16 441.54,-96.08 446.75,-74.13"/>
<polygon fill="#63b8ff" stroke="#63b8ff" points="489.82,-229.82 500.36,-230.87 492.77,-223.48 489.82,-229.82"/>
</a>
</g>
</g>
<!-- Node9 -->
<g id="Node000009" class="node">
<title>Node9</title>
<g id="a_Node000009"><a xlink:href="MolecularGraphResult_8h.html" target="_top" xlink:title=" ">
<polygon fill="white" stroke="#666666" points="415.5,-19 264.5,-19 264.5,0 415.5,0 415.5,-19"/>
<text text-anchor="middle" x="340" y="-7" font-family="Helvetica,sans-Serif" font-size="10.00">src/MolecularGraphResult.h</text>
</a>
</g>
</g>
<!-- Node1&#45;&gt;Node9 -->
<g id="edge11_Node000001_Node000009" class="edge">
<title>Node1&#45;&gt;Node9</title>
<g id="a_edge11_Node000001_Node000009"><a xlink:title=" ">
<path fill="none" stroke="#63b8ff" d="M445.42,-229.54C395.23,-222 336.44,-210.33 316,-195 261.11,-153.85 214.93,-113.36 251,-55 262.35,-36.63 283.84,-25.59 302.85,-19.1"/>
<polygon fill="#63b8ff" stroke="#63b8ff" points="444.92,-233 455.33,-230.99 445.94,-226.08 444.92,-233"/>
</a>
</g>
</g>
<!-- Node10 -->
<g id="Node000010" class="node">
<title>Node10</title>
<g id="a_Node000010"><a xlink:href="MopacResult_8h.html" target="_top" xlink:title=" ">
<polygon fill="white" stroke="#666666" points="1072,-189.5 966,-189.5 966,-170.5 1072,-170.5 1072,-189.5"/>
<text text-anchor="middle" x="1019" y="-177.5" font-family="Helvetica,sans-Serif" font-size="10.00">src/MopacResult.h</text>
</a>
</g>
</g>
<!-- Node1&#45;&gt;Node10 -->
<g id="edge12_Node000001_Node000010" class="edge">
<title>Node1&#45;&gt;Node10</title>
<g id="a_edge12_Node000001_Node000010"><a xlink:title=" ">
<path fill="none" stroke="#63b8ff" d="M608.11,-233.95C695.11,-227.38 836.32,-214.78 957,-195 966.04,-193.52 975.73,-191.53 984.71,-189.51"/>
<polygon fill="#63b8ff" stroke="#63b8ff" points="607.74,-230.47 598.03,-234.7 608.27,-237.45 607.74,-230.47"/>
</a>
</g>
</g>
<!-- Node11 -->
<g id="Node000011" class="node">
<title>Node11</title>
<g id="a_Node000011"><a xlink:href="OperationRunner_8h.html" target="_top" xlink:title=" ">
<polygon fill="white" stroke="#666666" points="588.5,-189.5 463.5,-189.5 463.5,-170.5 588.5,-170.5 588.5,-189.5"/>
<text text-anchor="middle" x="526" y="-177.5" font-family="Helvetica,sans-Serif" font-size="10.00">src/OperationRunner.h</text>
</a>
</g>
</g>
<!-- Node1&#45;&gt;Node11 -->
<g id="edge13_Node000001_Node000011" class="edge">
<title>Node1&#45;&gt;Node11</title>
<g id="a_edge13_Node000001_Node000011"><a xlink:title=" ">
<path fill="none" stroke="#63b8ff" d="M526,-220.66C526,-210.24 526,-197.8 526,-189.67"/>
<polygon fill="#63b8ff" stroke="#63b8ff" points="522.5,-220.87 526,-230.87 529.5,-220.87 522.5,-220.87"/>
</a>
</g>
</g>
<!-- Node13 -->
<g id="Node000013" class="node">
<title>Node13</title>
<g id="a_Node000013"><a xlink:href="OrcaShieldingResult_8h.html" target="_top" xlink:title=" ">
<polygon fill="white" stroke="#666666" points="1231.5,-189.5 1090.5,-189.5 1090.5,-170.5 1231.5,-170.5 1231.5,-189.5"/>
<text text-anchor="middle" x="1161" y="-177.5" font-family="Helvetica,sans-Serif" font-size="10.00">src/OrcaShieldingResult.h</text>
</a>
</g>
</g>
<!-- Node1&#45;&gt;Node13 -->
<g id="edge15_Node000001_Node000013" class="edge">
<title>Node1&#45;&gt;Node13</title>
<g id="a_edge15_Node000001_Node000013"><a xlink:title=" ">
<path fill="none" stroke="#63b8ff" d="M608.29,-235.31C716.87,-229.22 913.79,-216.29 1081,-195 1092.61,-193.52 1105.1,-191.53 1116.68,-189.51"/>
<polygon fill="#63b8ff" stroke="#63b8ff" points="607.86,-231.82 598.06,-235.87 608.24,-238.81 607.86,-231.82"/>
</a>
</g>
</g>
<!-- Node14 -->
<g id="Node000014" class="node">
<title>Node14</title>
<g id="a_Node000014"><a xlink:href="Protein_8h.html" target="_top" xlink:title=" ">
<polygon fill="white" stroke="#666666" points="683.5,-189.5 606.5,-189.5 606.5,-170.5 683.5,-170.5 683.5,-189.5"/>
<text text-anchor="middle" x="645" y="-177.5" font-family="Helvetica,sans-Serif" font-size="10.00">src/Protein.h</text>
</a>
</g>
</g>
<!-- Node1&#45;&gt;Node14 -->
<g id="edge16_Node000001_Node000014" class="edge">
<title>Node1&#45;&gt;Node14</title>
<g id="a_edge16_Node000001_Node000014"><a xlink:title=" ">
<path fill="none" stroke="#63b8ff" d="M552.48,-226.48C575.41,-215.21 607.93,-199.23 627.68,-189.52"/>
<polygon fill="#63b8ff" stroke="#63b8ff" points="550.73,-223.44 543.3,-230.99 553.82,-229.72 550.73,-223.44"/>
</a>
</g>
</g>
<!-- Node17 -->
<g id="Node000017" class="node">
<title>Node17</title>
<g id="a_Node000017"><a xlink:href="ProtonationDetectionResult_8h.html" target="_top" xlink:title=" ">
<polygon fill="white" stroke="#666666" points="1386.5,-195 1249.5,-195 1249.5,-165 1386.5,-165 1386.5,-195"/>
<text text-anchor="start" x="1257.5" y="-183" font-family="Helvetica,sans-Serif" font-size="10.00">src/ProtonationDetection</text>
<text text-anchor="middle" x="1318" y="-172" font-family="Helvetica,sans-Serif" font-size="10.00">Result.h</text>
</a>
</g>
</g>
<!-- Node1&#45;&gt;Node17 -->
<g id="edge22_Node000001_Node000017" class="edge">
<title>Node1&#45;&gt;Node17</title>
<g id="a_edge22_Node000001_Node000017"><a xlink:title=" ">
<path fill="none" stroke="#63b8ff" d="M608.19,-237.53C741.47,-233.62 1012.83,-222.75 1241,-195 1243.7,-194.67 1246.44,-194.31 1249.21,-193.92"/>
<polygon fill="#63b8ff" stroke="#63b8ff" points="607.95,-234.03 598.06,-237.82 608.15,-241.03 607.95,-234.03"/>
</a>
</g>
</g>
<!-- Node3&#45;&gt;Node2 -->
<g id="edge3_Node000003_Node000002" class="edge">
<title>Node3&#45;&gt;Node2</title>
<g id="a_edge3_Node000003_Node000002"><a xlink:title=" ">
<path fill="none" stroke="#63b8ff" d="M92.15,-161.15C97.59,-150.54 104.25,-137.56 108.56,-129.17"/>
<polygon fill="#63b8ff" stroke="#63b8ff" points="88.88,-159.87 87.43,-170.37 95.1,-163.07 88.88,-159.87"/>
</a>
</g>
</g>
<!-- Node7&#45;&gt;Node4 -->
<g id="edge8_Node000007_Node000004" class="edge">
<title>Node7&#45;&gt;Node4</title>
<g id="a_edge8_Node000007_Node000004"><a xlink:title=" ">
<path fill="none" stroke="#63b8ff" d="M344.58,-102.24C336.34,-92.95 326.35,-81.68 319.62,-74.09"/>
<polygon fill="#63b8ff" stroke="#63b8ff" points="341.99,-104.59 351.24,-109.75 347.22,-99.94 341.99,-104.59"/>
</a>
</g>
</g>
<!-- Node7&#45;&gt;Node8 -->
<g id="edge9_Node000007_Node000008" class="edge">
<title>Node7&#45;&gt;Node8</title>
<g id="a_edge9_Node000007_Node000008"><a xlink:title=" ">
<path fill="none" stroke="#63b8ff" d="M382.44,-104.7C398.84,-95.04 420.23,-82.44 434.28,-74.17"/>
<polygon fill="#63b8ff" stroke="#63b8ff" points="380.3,-101.89 373.46,-109.98 383.85,-107.93 380.3,-101.89"/>
</a>
</g>
</g>
<!-- Node8&#45;&gt;Node9 -->
<g id="edge10_Node000008_Node000009" class="edge">
<title>Node8&#45;&gt;Node9</title>
<g id="a_edge10_Node000008_Node000009"><a xlink:title=" ">
<path fill="none" stroke="#63b8ff" d="M422.27,-50.5C402.21,-40.75 375.32,-27.68 357.83,-19.17"/>
<polygon fill="#63b8ff" stroke="#63b8ff" points="420.96,-53.76 431.49,-54.98 424.02,-47.46 420.96,-53.76"/>
</a>
</g>
</g>
<!-- Node12 -->
<g id="Node000012" class="node">
<title>Node12</title>
<g id="a_Node000012"><a xlink:href="GromacsEnsembleLoader_8h.html" target="_top" xlink:title=" ">
<polygon fill="white" stroke="#666666" points="642.5,-129 475.5,-129 475.5,-110 642.5,-110 642.5,-129"/>
<text text-anchor="middle" x="559" y="-117" font-family="Helvetica,sans-Serif" font-size="10.00">src/GromacsEnsembleLoader.h</text>
</a>
</g>
</g>
<!-- Node11&#45;&gt;Node12 -->
<g id="edge14_Node000011_Node000012" class="edge">
<title>Node11&#45;&gt;Node12</title>
<g id="a_edge14_Node000011_Node000012"><a xlink:title=" ">
<path fill="none" stroke="#63b8ff" d="M535.88,-161.48C541.9,-150.81 549.33,-137.65 554.11,-129.17"/>
<polygon fill="#63b8ff" stroke="#63b8ff" points="532.73,-159.94 530.87,-170.37 538.83,-163.38 532.73,-159.94"/>
</a>
</g>
</g>
<!-- Node14&#45;&gt;Node7 -->
<g id="edge17_Node000014_Node000007" class="edge">
<title>Node14&#45;&gt;Node7</title>
<g id="a_edge17_Node000014_Node000007"><a xlink:title=" ">
<path fill="none" stroke="#63b8ff" d="M607.55,-167.69C604,-166.74 600.44,-165.82 597,-165 534.44,-150.07 461.65,-137.09 413.2,-129.06"/>
<polygon fill="#63b8ff" stroke="#63b8ff" points="606.88,-171.14 617.46,-170.46 608.77,-164.4 606.88,-171.14"/>
</a>
</g>
</g>
<!-- Node14&#45;&gt;Node12 -->
<g id="edge18_Node000014_Node000012" class="edge">
<title>Node14&#45;&gt;Node12</title>
<g id="a_edge18_Node000014_Node000012"><a xlink:title=" ">
<path fill="none" stroke="#63b8ff" d="M623.92,-164.66C607.58,-153.55 585.48,-138.51 571.74,-129.17"/>
<polygon fill="#63b8ff" stroke="#63b8ff" points="622.07,-167.64 632.31,-170.37 626.01,-161.85 622.07,-167.64"/>
</a>
</g>
</g>
<!-- Node15 -->
<g id="Node000015" class="node">
<title>Node15</title>
<g id="a_Node000015"><a xlink:href="OrcaRunLoader_8h.html" target="_top" xlink:title=" ">
<polygon fill="white" stroke="#666666" points="770,-74 654,-74 654,-55 770,-55 770,-74"/>
<text text-anchor="middle" x="712" y="-62" font-family="Helvetica,sans-Serif" font-size="10.00">src/OrcaRunLoader.h</text>
</a>
</g>
</g>
<!-- Node14&#45;&gt;Node15 -->
<g id="edge19_Node000014_Node000015" class="edge">
<title>Node14&#45;&gt;Node15</title>
<g id="a_edge19_Node000014_Node000015"><a xlink:title=" ">
<path fill="none" stroke="#63b8ff" d="M655.14,-161.82C669.68,-137.19 695.89,-92.79 706.91,-74.13"/>
<polygon fill="#63b8ff" stroke="#63b8ff" points="652.11,-160.08 650.04,-170.47 658.13,-163.64 652.11,-160.08"/>
</a>
</g>
</g>
<!-- Node16 -->
<g id="Node000016" class="node">
<title>Node16</title>
<g id="a_Node000016"><a xlink:href="PdbFileReader_8h.html" target="_top" xlink:title=" ">
<polygon fill="white" stroke="#666666" points="810,-129 698,-129 698,-110 810,-110 810,-129"/>
<text text-anchor="middle" x="754" y="-117" font-family="Helvetica,sans-Serif" font-size="10.00">src/PdbFileReader.h</text>
</a>
</g>
</g>
<!-- Node14&#45;&gt;Node16 -->
<g id="edge20_Node000014_Node000016" class="edge">
<title>Node14&#45;&gt;Node16</title>
<g id="a_edge20_Node000014_Node000016"><a xlink:title=" ">
<path fill="none" stroke="#63b8ff" d="M670.01,-165.58C690.86,-154.38 719.95,-138.77 737.85,-129.17"/>
<polygon fill="#63b8ff" stroke="#63b8ff" points="668.24,-162.56 661.08,-170.37 671.55,-168.72 668.24,-162.56"/>
</a>
</g>
</g>
<!-- Node16&#45;&gt;Node15 -->
<g id="edge21_Node000016_Node000015" class="edge">
<title>Node16&#45;&gt;Node15</title>
<g id="a_edge21_Node000016_Node000015"><a xlink:title=" ">
<path fill="none" stroke="#63b8ff" d="M740.67,-101.67C733.39,-92.5 724.7,-81.52 718.81,-74.09"/>
<polygon fill="#63b8ff" stroke="#63b8ff" points="738.11,-104.08 747.06,-109.75 743.6,-99.74 738.11,-104.08"/>
</a>
</g>
</g>
</g>
</svg>
