<?xml version="1.0" encoding="UTF-8" standalone="no"?>
<!DOCTYPE svg PUBLIC "-//W3C//DTD SVG 1.1//EN"
 "http://www.w3.org/Graphics/SVG/1.1/DTD/svg11.dtd">
<!-- Generated by graphviz version 2.43.0 (0)
 -->
<!-- Title: src/ProtonationState.h Pages: 1 -->
<svg width="180pt" height="192pt"
 viewBox="0.00 0.00 179.50 192.00" xmlns="http://www.w3.org/2000/svg" xmlns:xlink="http://www.w3.org/1999/xlink">
<g id="graph0" class="graph" transform="scale(1 1) rotate(0) translate(4 188)">
<title>src/ProtonationState.h</title>
<!-- Node1 -->
<g id="Node000001" class="node">
<title>Node1</title>
<g id="a_Node000001"><a xlink:title=" ">
<polygon fill="#999999" stroke="#666666" points="125,-184 0,-184 0,-165 125,-165 125,-184"/>
<text text-anchor="middle" x="62.5" y="-172" font-family="Helvetica,sans-Serif" font-size="10.00">src/ProtonationState.h</text>
</a>
</g>
</g>
<!-- Node2 -->
<g id="Node000002" class="node">
<title>Node2</title>
<g id="a_Node000002"><a xlink:href="Protonator_8h.html" target="_top" xlink:title=" ">
<polygon fill="white" stroke="#666666" points="109,-129 16,-129 16,-110 109,-110 109,-129"/>
<text text-anchor="middle" x="62.5" y="-117" font-family="Helvetica,sans-Serif" font-size="10.00">src/Protonator.h</text>
</a>
</g>
</g>
<!-- Node1&#45;&gt;Node2 -->
<g id="edge1_Node000001_Node000002" class="edge">
<title>Node1&#45;&gt;Node2</title>
<g id="a_edge1_Node000001_Node000002"><a xlink:title=" ">
<path fill="none" stroke="#63b8ff" d="M62.5,-154.66C62.5,-145.93 62.5,-135.99 62.5,-129.09"/>
<polygon fill="#63b8ff" stroke="#63b8ff" points="59,-154.75 62.5,-164.75 66,-154.75 59,-154.75"/>
</a>
</g>
</g>
<!-- Node3 -->
<g id="Node000003" class="node">
<title>Node3</title>
<g id="a_Node000003"><a xlink:href="KamlProtonator_8h.html" target="_top" xlink:title=" ">
<polygon fill="white" stroke="#666666" points="122,-19 3,-19 3,0 122,0 122,-19"/>
<text text-anchor="middle" x="62.5" y="-7" font-family="Helvetica,sans-Serif" font-size="10.00">src/KamlProtonator.h</text>
</a>
</g>
</g>
<!-- Node2&#45;&gt;Node3 -->
<g id="edge2_Node000002_Node000003" class="edge">
<title>Node2&#45;&gt;Node3</title>
<g id="a_edge2_Node000002_Node000003"><a xlink:title=" ">
<path fill="none" stroke="#63b8ff" d="M49.78,-101.61C44.57,-93.67 39.16,-83.81 36.5,-74 31.02,-53.76 45.36,-31.34 54.86,-19.3"/>
<polygon fill="#63b8ff" stroke="#63b8ff" points="47,-103.75 55.61,-109.93 52.73,-99.73 47,-103.75"/>
</a>
</g>
</g>
<!-- Node4 -->
<g id="Node000004" class="node">
<title>Node4</title>
<g id="a_Node000004"><a xlink:href="PropkaProtonator_8h.html" target="_top" xlink:title=" ">
<polygon fill="white" stroke="#666666" points="171.5,-74 45.5,-74 45.5,-55 171.5,-55 171.5,-74"/>
<text text-anchor="middle" x="108.5" y="-62" font-family="Helvetica,sans-Serif" font-size="10.00">src/PropkaProtonator.h</text>
</a>
</g>
</g>
<!-- Node2&#45;&gt;Node4 -->
<g id="edge3_Node000002_Node000004" class="edge">
<title>Node2&#45;&gt;Node4</title>
<g id="a_edge3_Node000002_Node000004"><a xlink:title=" ">
<path fill="none" stroke="#63b8ff" d="M76.86,-101.96C84.87,-92.72 94.53,-81.6 101.05,-74.09"/>
<polygon fill="#63b8ff" stroke="#63b8ff" points="74.01,-99.9 70.1,-109.75 79.29,-104.49 74.01,-99.9"/>
</a>
</g>
</g>
<!-- Node4&#45;&gt;Node3 -->
<g id="edge4_Node000004_Node000003" class="edge">
<title>Node4&#45;&gt;Node3</title>
<g id="a_edge4_Node000004_Node000003"><a xlink:title=" ">
<path fill="none" stroke="#63b8ff" d="M94.14,-46.96C86.13,-37.72 76.47,-26.6 69.95,-19.09"/>
<polygon fill="#63b8ff" stroke="#63b8ff" points="91.71,-49.49 100.9,-54.75 96.99,-44.9 91.71,-49.49"/>
</a>
</g>
</g>
</g>
</svg>
