<?xml version="1.0" encoding="UTF-8" standalone="no"?>
<!DOCTYPE svg PUBLIC "-//W3C//DTD SVG 1.1//EN"
 "http://www.w3.org/Graphics/SVG/1.1/DTD/svg11.dtd">
<!-- Generated by graphviz version 2.43.0 (0)
 -->
<!-- Title: src/Protein.h Pages: 1 -->
<svg width="1619pt" height="247pt"
 viewBox="0.00 0.00 1619.03 247.00" xmlns="http://www.w3.org/2000/svg" xmlns:xlink="http://www.w3.org/1999/xlink">
<g id="graph0" class="graph" transform="scale(1 1) rotate(0) translate(4 243)">
<title>src/Protein.h</title>
<!-- Node1 -->
<g id="Node000001" class="node">
<title>Node1</title>
<g id="a_Node000001"><a xlink:title=" ">
<polygon fill="#999999" stroke="#666666" points="707.38,-239 630.38,-239 630.38,-220 707.38,-220 707.38,-239"/>
<text text-anchor="middle" x="668.88" y="-227" font-family="Helvetica,sans-Serif" font-size="10.00">src/Protein.h</text>
</a>
</g>
</g>
<!-- Node2 -->
<g id="Node000002" class="node">
<title>Node2</title>
<g id="a_Node000002"><a xlink:href="Types_8h.html" target="_top" xlink:title=" ">
<polygon fill="white" stroke="#666666" points="447.38,-74 394.38,-74 394.38,-55 447.38,-55 447.38,-74"/>
<text text-anchor="middle" x="420.88" y="-62" font-family="Helvetica,sans-Serif" font-size="10.00">Types.h</text>
</a>
</g>
</g>
<!-- Node1&#45;&gt;Node2 -->
<g id="edge1_Node000001_Node000002" class="edge">
<title>Node1&#45;&gt;Node2</title>
<g id="a_edge1_Node000001_Node000002"><a xlink:title=" ">
<path fill="none" stroke="#63b8ff" d="M630.25,-227.19C549.64,-223.94 357.86,-213.52 199.88,-184 111.36,-167.46 59.23,-200.8 4.88,-129 -41.85,-67.27 273.93,-64.23 384,-65.01"/>
<polygon fill="#63b8ff" stroke="#63b8ff" points="384.27,-68.51 394.3,-65.1 384.33,-61.51 384.27,-68.51"/>
</a>
</g>
</g>
<!-- Node6 -->
<g id="Node000006" class="node">
<title>Node6</title>
<g id="a_Node000006"><a xlink:title=" ">
<polygon fill="#e0e0e0" stroke="#999999" points="899.88,-19 855.88,-19 855.88,0 899.88,0 899.88,-19"/>
<text text-anchor="middle" x="877.88" y="-7" font-family="Helvetica,sans-Serif" font-size="10.00">string</text>
</a>
</g>
</g>
<!-- Node1&#45;&gt;Node6 -->
<g id="edge65_Node000001_Node000006" class="edge">
<title>Node1&#45;&gt;Node6</title>
<g id="a_edge65_Node000001_Node000006"><a xlink:title=" ">
<path fill="none" stroke="#63b8ff" d="M707.41,-226.98C873.98,-220.05 1526.85,-189.2 1593.88,-129 1612.65,-112.15 1604.74,-99.03 1607.88,-74 1608.93,-65.62 1613.67,-61.15 1607.88,-55 1583.66,-29.26 1049.05,-14.62 910.46,-11.26"/>
<polygon fill="#63b8ff" stroke="#63b8ff" points="910.17,-7.75 900.09,-11.01 910,-14.75 910.17,-7.75"/>
</a>
</g>
</g>
<!-- Node7 -->
<g id="Node000007" class="node">
<title>Node7</title>
<g id="a_Node000007"><a xlink:href="Atom_8h.html" target="_top" xlink:title=" ">
<polygon fill="white" stroke="#666666" points="694.88,-129 642.88,-129 642.88,-110 694.88,-110 694.88,-129"/>
<text text-anchor="middle" x="668.88" y="-117" font-family="Helvetica,sans-Serif" font-size="10.00">Atom.h</text>
</a>
</g>
</g>
<!-- Node1&#45;&gt;Node7 -->
<g id="edge6_Node000001_Node000007" class="edge">
<title>Node1&#45;&gt;Node7</title>
<g id="a_edge6_Node000001_Node000007"><a xlink:title=" ">
<path fill="none" stroke="#63b8ff" d="M668.88,-219.66C668.88,-202.17 668.88,-162.8 668.88,-139.27"/>
<polygon fill="#63b8ff" stroke="#63b8ff" points="672.38,-139.16 668.88,-129.16 665.38,-139.16 672.38,-139.16"/>
</a>
</g>
</g>
<!-- Node8 -->
<g id="Node000008" class="node">
<title>Node8</title>
<g id="a_Node000008"><a xlink:title=" ">
<polygon fill="#e0e0e0" stroke="#999999" points="1034.88,-74 976.88,-74 976.88,-55 1034.88,-55 1034.88,-74"/>
<text text-anchor="middle" x="1005.88" y="-62" font-family="Helvetica,sans-Serif" font-size="10.00">memory</text>
</a>
</g>
</g>
<!-- Node1&#45;&gt;Node8 -->
<g id="edge64_Node000001_Node000008" class="edge">
<title>Node1&#45;&gt;Node8</title>
<g id="a_edge64_Node000001_Node000008"><a xlink:title=" ">
<path fill="none" stroke="#63b8ff" d="M707.45,-225.36C770.23,-218.38 895.4,-196.41 973.88,-129 987.61,-117.21 996.11,-98.09 1000.87,-83.91"/>
<polygon fill="#63b8ff" stroke="#63b8ff" points="1004.25,-84.82 1003.8,-74.23 997.55,-82.79 1004.25,-84.82"/>
</a>
</g>
</g>
<!-- Node9 -->
<g id="Node000009" class="node">
<title>Node9</title>
<g id="a_Node000009"><a xlink:title=" ">
<polygon fill="#e0e0e0" stroke="#999999" points="667.38,-74 620.38,-74 620.38,-55 667.38,-55 667.38,-74"/>
<text text-anchor="middle" x="643.88" y="-62" font-family="Helvetica,sans-Serif" font-size="10.00">vector</text>
</a>
</g>
</g>
<!-- Node1&#45;&gt;Node9 -->
<g id="edge63_Node000001_Node000009" class="edge">
<title>Node1&#45;&gt;Node9</title>
<g id="a_edge63_Node000001_Node000009"><a xlink:title=" ">
<path fill="none" stroke="#63b8ff" d="M663.75,-219.8C652.93,-200.5 629.17,-152.43 633.88,-110 634.84,-101.34 636.82,-91.91 638.77,-83.97"/>
<polygon fill="#63b8ff" stroke="#63b8ff" points="642.16,-84.83 641.3,-74.27 635.39,-83.06 642.16,-84.83"/>
</a>
</g>
</g>
<!-- Node10 -->
<g id="Node000010" class="node">
<title>Node10</title>
<g id="a_Node000010"><a xlink:href="Residue_8h.html" target="_top" xlink:title=" ">
<polygon fill="white" stroke="#666666" points="274.38,-184 209.38,-184 209.38,-165 274.38,-165 274.38,-184"/>
<text text-anchor="middle" x="241.88" y="-172" font-family="Helvetica,sans-Serif" font-size="10.00">Residue.h</text>
</a>
</g>
</g>
<!-- Node1&#45;&gt;Node10 -->
<g id="edge11_Node000001_Node000010" class="edge">
<title>Node1&#45;&gt;Node10</title>
<g id="a_edge11_Node000001_Node000010"><a xlink:title=" ">
<path fill="none" stroke="#63b8ff" d="M630.23,-223.7C550.4,-213.79 367.81,-191.13 284.61,-180.8"/>
<polygon fill="#63b8ff" stroke="#63b8ff" points="284.85,-177.31 274.49,-179.55 283.98,-184.25 284.85,-177.31"/>
</a>
</g>
</g>
<!-- Node13 -->
<g id="Node000013" class="node">
<title>Node13</title>
<g id="a_Node000013"><a xlink:href="Bond_8h.html" target="_top" xlink:title=" ">
<polygon fill="white" stroke="#666666" points="214.88,-129 164.88,-129 164.88,-110 214.88,-110 214.88,-129"/>
<text text-anchor="middle" x="189.88" y="-117" font-family="Helvetica,sans-Serif" font-size="10.00">Bond.h</text>
</a>
</g>
</g>
<!-- Node1&#45;&gt;Node13 -->
<g id="edge20_Node000001_Node000013" class="edge">
<title>Node1&#45;&gt;Node13</title>
<g id="a_edge20_Node000001_Node000013"><a xlink:title=" ">
<path fill="none" stroke="#63b8ff" d="M630.1,-220.22C554.3,-203.95 380.95,-166.32 224.89,-129.2"/>
<polygon fill="#63b8ff" stroke="#63b8ff" points="225.65,-125.79 215.12,-126.87 224.03,-132.6 225.65,-125.79"/>
</a>
</g>
</g>
<!-- Node14 -->
<g id="Node000014" class="node">
<title>Node14</title>
<g id="a_Node000014"><a xlink:href="Ring_8h.html" target="_top" xlink:title=" ">
<polygon fill="white" stroke="#666666" points="798.38,-129 751.38,-129 751.38,-110 798.38,-110 798.38,-129"/>
<text text-anchor="middle" x="774.88" y="-117" font-family="Helvetica,sans-Serif" font-size="10.00">Ring.h</text>
</a>
</g>
</g>
<!-- Node1&#45;&gt;Node14 -->
<g id="edge23_Node000001_Node000014" class="edge">
<title>Node1&#45;&gt;Node14</title>
<g id="a_edge23_Node000001_Node000014"><a xlink:title=" ">
<path fill="none" stroke="#63b8ff" d="M677.55,-219.66C695.42,-201.46 736.55,-159.55 759.21,-136.47"/>
<polygon fill="#63b8ff" stroke="#63b8ff" points="761.87,-138.75 766.38,-129.16 756.88,-133.84 761.87,-138.75"/>
</a>
</g>
</g>
<!-- Node16 -->
<g id="Node000016" class="node">
<title>Node16</title>
<g id="a_Node000016"><a xlink:href="CovalentTopology_8h.html" target="_top" xlink:title=" ">
<polygon fill="white" stroke="#666666" points="586.38,-184 475.38,-184 475.38,-165 586.38,-165 586.38,-184"/>
<text text-anchor="middle" x="530.88" y="-172" font-family="Helvetica,sans-Serif" font-size="10.00">CovalentTopology.h</text>
</a>
</g>
</g>
<!-- Node1&#45;&gt;Node16 -->
<g id="edge29_Node000001_Node000016" class="edge">
<title>Node1&#45;&gt;Node16</title>
<g id="a_edge29_Node000001_Node000016"><a xlink:title=" ">
<path fill="none" stroke="#63b8ff" d="M646.71,-219.98C624.11,-211.3 588.82,-197.75 563.13,-187.88"/>
<polygon fill="#63b8ff" stroke="#63b8ff" points="564.04,-184.49 553.45,-184.17 561.53,-191.02 564.04,-184.49"/>
</a>
</g>
</g>
<!-- Node17 -->
<g id="Node000017" class="node">
<title>Node17</title>
<g id="a_Node000017"><a xlink:href="ProteinBuildContext_8h.html" target="_top" xlink:title=" ">
<polygon fill="white" stroke="#666666" points="939.38,-129 816.38,-129 816.38,-110 939.38,-110 939.38,-129"/>
<text text-anchor="middle" x="877.88" y="-117" font-family="Helvetica,sans-Serif" font-size="10.00">ProteinBuildContext.h</text>
</a>
</g>
</g>
<!-- Node1&#45;&gt;Node17 -->
<g id="edge34_Node000001_Node000017" class="edge">
<title>Node1&#45;&gt;Node17</title>
<g id="a_edge34_Node000001_Node000017"><a xlink:title=" ">
<path fill="none" stroke="#63b8ff" d="M685.63,-219.84C722.1,-201 808.9,-156.14 852.28,-133.73"/>
<polygon fill="#63b8ff" stroke="#63b8ff" points="854.06,-136.75 861.34,-129.05 850.85,-130.53 854.06,-136.75"/>
</a>
</g>
</g>
<!-- Node18 -->
<g id="Node000018" class="node">
<title>Node18</title>
<g id="a_Node000018"><a xlink:href="ProteinConformation_8h.html" target="_top" xlink:title=" ">
<polygon fill="white" stroke="#666666" points="1199.38,-184 1072.38,-184 1072.38,-165 1199.38,-165 1199.38,-184"/>
<text text-anchor="middle" x="1135.88" y="-172" font-family="Helvetica,sans-Serif" font-size="10.00">ProteinConformation.h</text>
</a>
</g>
</g>
<!-- Node1&#45;&gt;Node18 -->
<g id="edge39_Node000001_Node000018" class="edge">
<title>Node1&#45;&gt;Node18</title>
<g id="a_edge39_Node000001_Node000018"><a xlink:title=" ">
<path fill="none" stroke="#63b8ff" d="M707.49,-224.12C785.24,-215.29 961.79,-195.26 1062.29,-183.85"/>
<polygon fill="#63b8ff" stroke="#63b8ff" points="1062.82,-187.31 1072.37,-182.71 1062.03,-180.36 1062.82,-187.31"/>
</a>
</g>
</g>
<!-- Node3 -->
<g id="Node000003" class="node">
<title>Node3</title>
<g id="a_Node000003"><a xlink:title=" ">
<polygon fill="#e0e0e0" stroke="#999999" points="625.38,-19 548.38,-19 548.38,0 625.38,0 625.38,-19"/>
<text text-anchor="middle" x="586.88" y="-7" font-family="Helvetica,sans-Serif" font-size="10.00">Eigen/Dense</text>
</a>
</g>
</g>
<!-- Node2&#45;&gt;Node3 -->
<g id="edge2_Node000002_Node000003" class="edge">
<title>Node2&#45;&gt;Node3</title>
<g id="a_edge2_Node000002_Node000003"><a xlink:title=" ">
<path fill="none" stroke="#63b8ff" d="M447.55,-54.98C475.42,-46.09 519.33,-32.07 550.4,-22.15"/>
<polygon fill="#63b8ff" stroke="#63b8ff" points="551.54,-25.46 560,-19.08 549.41,-18.79 551.54,-25.46"/>
</a>
</g>
</g>
<!-- Node4 -->
<g id="Node000004" class="node">
<title>Node4</title>
<g id="a_Node000004"><a xlink:title=" ">
<polygon fill="#e0e0e0" stroke="#999999" points="261.88,-19 219.88,-19 219.88,0 261.88,0 261.88,-19"/>
<text text-anchor="middle" x="240.88" y="-7" font-family="Helvetica,sans-Serif" font-size="10.00">array</text>
</a>
</g>
</g>
<!-- Node2&#45;&gt;Node4 -->
<g id="edge3_Node000002_Node000004" class="edge">
<title>Node2&#45;&gt;Node4</title>
<g id="a_edge3_Node000002_Node000004"><a xlink:title=" ">
<path fill="none" stroke="#63b8ff" d="M394.32,-55.68C361.71,-46.08 306.48,-29.82 271.93,-19.64"/>
<polygon fill="#63b8ff" stroke="#63b8ff" points="272.51,-16.16 261.92,-16.7 270.53,-22.88 272.51,-16.16"/>
</a>
</g>
</g>
<!-- Node5 -->
<g id="Node000005" class="node">
<title>Node5</title>
<g id="a_Node000005"><a xlink:title=" ">
<polygon fill="#e0e0e0" stroke="#999999" points="788.38,-19 741.38,-19 741.38,0 788.38,0 788.38,-19"/>
<text text-anchor="middle" x="764.88" y="-7" font-family="Helvetica,sans-Serif" font-size="10.00">cmath</text>
</a>
</g>
</g>
<!-- Node2&#45;&gt;Node5 -->
<g id="edge4_Node000002_Node000005" class="edge">
<title>Node2&#45;&gt;Node5</title>
<g id="a_edge4_Node000002_Node000005"><a xlink:title=" ">
<path fill="none" stroke="#63b8ff" d="M447.59,-59.39C509.47,-49.85 662.61,-26.26 730.97,-15.72"/>
<polygon fill="#63b8ff" stroke="#63b8ff" points="731.84,-19.13 741.19,-14.15 730.77,-12.21 731.84,-19.13"/>
</a>
</g>
</g>
<!-- Node2&#45;&gt;Node6 -->
<g id="edge5_Node000002_Node000006" class="edge">
<title>Node2&#45;&gt;Node6</title>
<g id="a_edge5_Node000002_Node000006"><a xlink:title=" ">
<path fill="none" stroke="#63b8ff" d="M447.42,-60.42C526.42,-51.26 759.85,-24.19 845.71,-14.23"/>
<polygon fill="#63b8ff" stroke="#63b8ff" points="846.13,-17.71 855.66,-13.08 845.33,-10.75 846.13,-17.71"/>
</a>
</g>
</g>
<!-- Node7&#45;&gt;Node2 -->
<g id="edge7_Node000007_Node000002" class="edge">
<title>Node7&#45;&gt;Node2</title>
<g id="a_edge7_Node000007_Node000002"><a xlink:title=" ">
<path fill="none" stroke="#63b8ff" d="M642.81,-112.93C598.48,-103.45 508.31,-84.19 457.61,-73.35"/>
<polygon fill="#63b8ff" stroke="#63b8ff" points="458.23,-69.9 447.72,-71.24 456.77,-76.75 458.23,-69.9"/>
</a>
</g>
</g>
<!-- Node7&#45;&gt;Node6 -->
<g id="edge9_Node000007_Node000006" class="edge">
<title>Node7&#45;&gt;Node6</title>
<g id="a_edge9_Node000007_Node000006"><a xlink:title=" ">
<path fill="none" stroke="#63b8ff" d="M685.63,-109.84C722.1,-91 808.9,-46.14 852.28,-23.73"/>
<polygon fill="#63b8ff" stroke="#63b8ff" points="854.06,-26.75 861.34,-19.05 850.85,-20.53 854.06,-26.75"/>
</a>
</g>
</g>
<!-- Node7&#45;&gt;Node8 -->
<g id="edge8_Node000007_Node000008" class="edge">
<title>Node7&#45;&gt;Node8</title>
<g id="a_edge8_Node000007_Node000008"><a xlink:title=" ">
<path fill="none" stroke="#63b8ff" d="M695.1,-114.82C746.29,-107.57 863.07,-90.69 960.88,-74 962.82,-73.67 964.8,-73.32 966.81,-72.97"/>
<polygon fill="#63b8ff" stroke="#63b8ff" points="967.65,-76.37 976.86,-71.14 966.39,-69.49 967.65,-76.37"/>
</a>
</g>
</g>
<!-- Node7&#45;&gt;Node9 -->
<g id="edge10_Node000007_Node000009" class="edge">
<title>Node7&#45;&gt;Node9</title>
<g id="a_edge10_Node000007_Node000009"><a xlink:title=" ">
<path fill="none" stroke="#63b8ff" d="M664.75,-109.75C661.37,-102.57 656.46,-92.18 652.26,-83.27"/>
<polygon fill="#63b8ff" stroke="#63b8ff" points="655.36,-81.64 647.93,-74.09 649.03,-84.63 655.36,-81.64"/>
</a>
</g>
</g>
<!-- Node10&#45;&gt;Node2 -->
<g id="edge12_Node000010_Node000002" class="edge">
<title>Node10&#45;&gt;Node2</title>
<g id="a_edge12_Node000010_Node000002"><a xlink:title=" ">
<path fill="none" stroke="#63b8ff" d="M209.19,-174.33C134.79,-175.21 -36.66,-170.9 17.88,-110 42.1,-82.96 288.99,-70.6 383.95,-66.82"/>
<polygon fill="#63b8ff" stroke="#63b8ff" points="384.37,-70.31 394.23,-66.42 384.1,-63.31 384.37,-70.31"/>
</a>
</g>
</g>
<!-- Node10&#45;&gt;Node6 -->
<g id="edge17_Node000010_Node000006" class="edge">
<title>Node10&#45;&gt;Node6</title>
<g id="a_edge17_Node000010_Node000006"><a xlink:title=" ">
<path fill="none" stroke="#63b8ff" d="M209.21,-165.42C174.49,-155.27 127.24,-135.98 147.88,-110 208.77,-33.36 715.76,-26.94 797.88,-19 813.65,-17.47 831.16,-15.63 845.76,-14.05"/>
<polygon fill="#63b8ff" stroke="#63b8ff" points="846.26,-17.52 855.82,-12.96 845.5,-10.56 846.26,-17.52"/>
</a>
</g>
</g>
<!-- Node10&#45;&gt;Node9 -->
<g id="edge18_Node000010_Node000009" class="edge">
<title>Node10&#45;&gt;Node9</title>
<g id="a_edge18_Node000010_Node000009"><a xlink:title=" ">
<path fill="none" stroke="#63b8ff" d="M274.64,-171.53C327.27,-167.65 433.43,-156.81 518.88,-129 556.89,-116.63 597.56,-94 621.85,-79.37"/>
<polygon fill="#63b8ff" stroke="#63b8ff" points="623.91,-82.21 630.61,-74 620.25,-76.24 623.91,-82.21"/>
</a>
</g>
</g>
<!-- Node11 -->
<g id="Node000011" class="node">
<title>Node11</title>
<g id="a_Node000011"><a xlink:href="AminoAcidType_8h.html" target="_top" xlink:title=" ">
<polygon fill="white" stroke="#666666" points="510.38,-129 409.38,-129 409.38,-110 510.38,-110 510.38,-129"/>
<text text-anchor="middle" x="459.88" y="-117" font-family="Helvetica,sans-Serif" font-size="10.00">AminoAcidType.h</text>
</a>
</g>
</g>
<!-- Node10&#45;&gt;Node11 -->
<g id="edge13_Node000010_Node000011" class="edge">
<title>Node10&#45;&gt;Node11</title>
<g id="a_edge13_Node000010_Node000011"><a xlink:title=" ">
<path fill="none" stroke="#63b8ff" d="M274.52,-165.57C311.82,-156.49 373.12,-141.59 414.93,-131.43"/>
<polygon fill="#63b8ff" stroke="#63b8ff" points="415.96,-134.78 424.85,-129.02 414.31,-127.98 415.96,-134.78"/>
</a>
</g>
</g>
<!-- Node12 -->
<g id="Node000012" class="node">
<title>Node12</title>
<g id="a_Node000012"><a xlink:title=" ">
<polygon fill="#e0e0e0" stroke="#999999" points="70.88,-129 26.88,-129 26.88,-110 70.88,-110 70.88,-129"/>
<text text-anchor="middle" x="48.88" y="-117" font-family="Helvetica,sans-Serif" font-size="10.00">limits</text>
</a>
</g>
</g>
<!-- Node10&#45;&gt;Node12 -->
<g id="edge19_Node000010_Node000012" class="edge">
<title>Node10&#45;&gt;Node12</title>
<g id="a_edge19_Node000010_Node000012"><a xlink:title=" ">
<path fill="none" stroke="#63b8ff" d="M210.87,-164.98C175.28,-155.21 117.18,-139.26 81.09,-129.35"/>
<polygon fill="#63b8ff" stroke="#63b8ff" points="81.66,-125.87 71.09,-126.6 79.8,-132.62 81.66,-125.87"/>
</a>
</g>
</g>
<!-- Node11&#45;&gt;Node2 -->
<g id="edge14_Node000011_Node000002" class="edge">
<title>Node11&#45;&gt;Node2</title>
<g id="a_edge14_Node000011_Node000002"><a xlink:title=" ">
<path fill="none" stroke="#63b8ff" d="M453.44,-109.75C447.99,-102.34 440.01,-91.5 433.32,-82.41"/>
<polygon fill="#63b8ff" stroke="#63b8ff" points="435.95,-80.07 427.2,-74.09 430.31,-84.22 435.95,-80.07"/>
</a>
</g>
</g>
<!-- Node11&#45;&gt;Node6 -->
<g id="edge15_Node000011_Node000006" class="edge">
<title>Node11&#45;&gt;Node6</title>
<g id="a_edge15_Node000011_Node000006"><a xlink:title=" ">
<path fill="none" stroke="#63b8ff" d="M476.62,-109.93C503.99,-96.27 560.34,-69.62 610.88,-55 654.53,-42.37 784.6,-23.43 845.61,-14.92"/>
<polygon fill="#63b8ff" stroke="#63b8ff" points="846.4,-18.34 855.82,-13.5 845.43,-11.41 846.4,-18.34"/>
</a>
</g>
</g>
<!-- Node11&#45;&gt;Node9 -->
<g id="edge16_Node000011_Node000009" class="edge">
<title>Node11&#45;&gt;Node9</title>
<g id="a_edge16_Node000011_Node000009"><a xlink:title=" ">
<path fill="none" stroke="#63b8ff" d="M489.44,-109.98C522.54,-100.45 576.06,-85.03 610.6,-75.09"/>
<polygon fill="#63b8ff" stroke="#63b8ff" points="611.6,-78.44 620.24,-72.31 609.66,-71.71 611.6,-78.44"/>
</a>
</g>
</g>
<!-- Node13&#45;&gt;Node2 -->
<g id="edge21_Node000013_Node000002" class="edge">
<title>Node13&#45;&gt;Node2</title>
<g id="a_edge21_Node000013_Node000002"><a xlink:title=" ">
<path fill="none" stroke="#63b8ff" d="M215.11,-112.12C218.07,-111.4 221.04,-110.68 223.88,-110 279.62,-96.74 344.46,-82.28 384.08,-73.55"/>
<polygon fill="#63b8ff" stroke="#63b8ff" points="385.05,-76.92 394.07,-71.35 383.55,-70.08 385.05,-76.92"/>
</a>
</g>
</g>
<!-- Node13&#45;&gt;Node9 -->
<g id="edge22_Node000013_Node000009" class="edge">
<title>Node13&#45;&gt;Node9</title>
<g id="a_edge22_Node000013_Node000009"><a xlink:title=" ">
<path fill="none" stroke="#63b8ff" d="M215.05,-111.79C218.01,-111.13 221,-110.51 223.88,-110 366.04,-84.83 537.97,-72.05 609.78,-67.5"/>
<polygon fill="#63b8ff" stroke="#63b8ff" points="610.27,-70.97 620.03,-66.86 609.84,-63.99 610.27,-70.97"/>
</a>
</g>
</g>
<!-- Node14&#45;&gt;Node2 -->
<g id="edge24_Node000014_Node000002" class="edge">
<title>Node14&#45;&gt;Node2</title>
<g id="a_edge24_Node000014_Node000002"><a xlink:title=" ">
<path fill="none" stroke="#63b8ff" d="M751.38,-114.98C691.03,-105.95 530.27,-81.88 457.54,-70.99"/>
<polygon fill="#63b8ff" stroke="#63b8ff" points="457.87,-67.5 447.47,-69.48 456.84,-74.42 457.87,-67.5"/>
</a>
</g>
</g>
<!-- Node14&#45;&gt;Node3 -->
<g id="edge25_Node000014_Node000003" class="edge">
<title>Node14&#45;&gt;Node3</title>
<g id="a_edge25_Node000014_Node000003"><a xlink:title=" ">
<path fill="none" stroke="#63b8ff" d="M762.33,-109.84C743.79,-97.18 707.83,-73.17 675.88,-55 655.86,-43.62 632.55,-32.02 614.82,-23.52"/>
<polygon fill="#63b8ff" stroke="#63b8ff" points="616.12,-20.27 605.59,-19.14 613.12,-26.59 616.12,-20.27"/>
</a>
</g>
</g>
<!-- Node14&#45;&gt;Node8 -->
<g id="edge28_Node000014_Node000008" class="edge">
<title>Node14&#45;&gt;Node8</title>
<g id="a_edge28_Node000014_Node000008"><a xlink:title=" ">
<path fill="none" stroke="#63b8ff" d="M798.65,-112.28C801.75,-111.5 804.89,-110.72 807.88,-110 862.86,-96.74 926.74,-82.62 966.74,-73.92"/>
<polygon fill="#63b8ff" stroke="#63b8ff" points="967.6,-77.32 976.63,-71.78 966.11,-70.48 967.6,-77.32"/>
</a>
</g>
</g>
<!-- Node14&#45;&gt;Node9 -->
<g id="edge26_Node000014_Node000009" class="edge">
<title>Node14&#45;&gt;Node9</title>
<g id="a_edge26_Node000014_Node000009"><a xlink:title=" ">
<path fill="none" stroke="#63b8ff" d="M753.83,-109.98C732.47,-101.34 699.17,-87.87 674.81,-78.02"/>
<polygon fill="#63b8ff" stroke="#63b8ff" points="675.89,-74.68 665.31,-74.17 673.27,-81.17 675.89,-74.68"/>
</a>
</g>
</g>
<!-- Node15 -->
<g id="Node000015" class="node">
<title>Node15</title>
<g id="a_Node000015"><a xlink:title=" ">
<polygon fill="#e0e0e0" stroke="#999999" points="951.88,-74 913.88,-74 913.88,-55 951.88,-55 951.88,-74"/>
<text text-anchor="middle" x="932.88" y="-62" font-family="Helvetica,sans-Serif" font-size="10.00">map</text>
</a>
</g>
</g>
<!-- Node14&#45;&gt;Node15 -->
<g id="edge27_Node000014_Node000015" class="edge">
<title>Node14&#45;&gt;Node15</title>
<g id="a_edge27_Node000014_Node000015"><a xlink:title=" ">
<path fill="none" stroke="#63b8ff" d="M798.53,-110.57C826.69,-101.12 873.69,-85.36 903.97,-75.2"/>
<polygon fill="#63b8ff" stroke="#63b8ff" points="905.18,-78.48 913.55,-71.98 902.95,-71.85 905.18,-78.48"/>
</a>
</g>
</g>
<!-- Node16&#45;&gt;Node2 -->
<g id="edge30_Node000016_Node000002" class="edge">
<title>Node16&#45;&gt;Node2</title>
<g id="a_edge30_Node000016_Node000002"><a xlink:title=" ">
<path fill="none" stroke="#63b8ff" d="M475.04,-170.9C375.7,-165.69 176.7,-152.43 155.88,-129 150.27,-122.69 150.42,-116.45 155.88,-110 184.64,-76.01 317.83,-67.97 383.74,-66.08"/>
<polygon fill="#63b8ff" stroke="#63b8ff" points="384.18,-69.57 394.09,-65.81 384,-62.57 384.18,-69.57"/>
</a>
</g>
</g>
<!-- Node16&#45;&gt;Node8 -->
<g id="edge33_Node000016_Node000008" class="edge">
<title>Node16&#45;&gt;Node8</title>
<g id="a_edge33_Node000016_Node000008"><a xlink:title=" ">
<path fill="none" stroke="#63b8ff" d="M586.42,-172.48C685.21,-169.86 886.91,-160.69 948.88,-129 969,-118.71 985.39,-98.13 995.34,-83.18"/>
<polygon fill="#63b8ff" stroke="#63b8ff" points="998.55,-84.66 1000.93,-74.33 992.63,-80.92 998.55,-84.66"/>
</a>
</g>
</g>
<!-- Node16&#45;&gt;Node9 -->
<g id="edge32_Node000016_Node000009" class="edge">
<title>Node16&#45;&gt;Node9</title>
<g id="a_edge32_Node000016_Node000009"><a xlink:title=" ">
<path fill="none" stroke="#63b8ff" d="M540.13,-164.66C559.26,-146.38 603.41,-104.18 627.49,-81.17"/>
<polygon fill="#63b8ff" stroke="#63b8ff" points="630.01,-83.6 634.82,-74.16 625.17,-78.54 630.01,-83.6"/>
</a>
</g>
</g>
<!-- Node16&#45;&gt;Node13 -->
<g id="edge31_Node000016_Node000013" class="edge">
<title>Node16&#45;&gt;Node13</title>
<g id="a_edge31_Node000016_Node000013"><a xlink:title=" ">
<path fill="none" stroke="#63b8ff" d="M475.13,-167.14C415.51,-159.95 318.01,-147.09 224.93,-129.03"/>
<polygon fill="#63b8ff" stroke="#63b8ff" points="225.55,-125.59 215.07,-127.1 224.2,-132.46 225.55,-125.59"/>
</a>
</g>
</g>
<!-- Node17&#45;&gt;Node5 -->
<g id="edge38_Node000017_Node000005" class="edge">
<title>Node17&#45;&gt;Node5</title>
<g id="a_edge38_Node000017_Node000005"><a xlink:title=" ">
<path fill="none" stroke="#63b8ff" d="M868.63,-109.66C849.5,-91.38 805.35,-49.18 781.27,-26.17"/>
<polygon fill="#63b8ff" stroke="#63b8ff" points="783.59,-23.54 773.94,-19.16 778.75,-28.6 783.59,-23.54"/>
</a>
</g>
</g>
<!-- Node17&#45;&gt;Node6 -->
<g id="edge35_Node000017_Node000006" class="edge">
<title>Node17&#45;&gt;Node6</title>
<g id="a_edge35_Node000017_Node000006"><a xlink:title=" ">
<path fill="none" stroke="#63b8ff" d="M877.88,-109.66C877.88,-92.17 877.88,-52.8 877.88,-29.27"/>
<polygon fill="#63b8ff" stroke="#63b8ff" points="881.38,-29.16 877.88,-19.16 874.38,-29.16 881.38,-29.16"/>
</a>
</g>
</g>
<!-- Node17&#45;&gt;Node8 -->
<g id="edge37_Node000017_Node000008" class="edge">
<title>Node17&#45;&gt;Node8</title>
<g id="a_edge37_Node000017_Node000008"><a xlink:title=" ">
<path fill="none" stroke="#63b8ff" d="M898.44,-109.98C919.31,-101.34 951.85,-87.87 975.65,-78.02"/>
<polygon fill="#63b8ff" stroke="#63b8ff" points="977.04,-81.23 984.94,-74.17 974.36,-74.76 977.04,-81.23"/>
</a>
</g>
</g>
<!-- Node17&#45;&gt;Node9 -->
<g id="edge36_Node000017_Node000009" class="edge">
<title>Node17&#45;&gt;Node9</title>
<g id="a_edge36_Node000017_Node000009"><a xlink:title=" ">
<path fill="none" stroke="#63b8ff" d="M840.28,-109.98C795.29,-99.79 720.63,-82.88 677.48,-73.11"/>
<polygon fill="#63b8ff" stroke="#63b8ff" points="678.01,-69.64 667.48,-70.85 676.46,-76.47 678.01,-69.64"/>
</a>
</g>
</g>
<!-- Node18&#45;&gt;Node2 -->
<g id="edge40_Node000018_Node000002" class="edge">
<title>Node18&#45;&gt;Node2</title>
<g id="a_edge40_Node000018_Node000002"><a xlink:title=" ">
<path fill="none" stroke="#63b8ff" d="M1072.26,-172C897.72,-167.57 422.77,-153.32 399.88,-129 387.87,-116.24 397.32,-96.45 407.1,-82.36"/>
<polygon fill="#63b8ff" stroke="#63b8ff" points="410.14,-84.15 413.35,-74.05 404.54,-79.94 410.14,-84.15"/>
</a>
</g>
</g>
<!-- Node18&#45;&gt;Node6 -->
<g id="edge61_Node000018_Node000006" class="edge">
<title>Node18&#45;&gt;Node6</title>
<g id="a_edge61_Node000018_Node000006"><a xlink:title=" ">
<path fill="none" stroke="#63b8ff" d="M1199.42,-170.79C1313.2,-165.39 1542.58,-151.8 1570.88,-129 1597.24,-107.76 1612.05,-79.67 1588.88,-55 1565.33,-29.93 1045.74,-14.83 910.05,-11.3"/>
<polygon fill="#63b8ff" stroke="#63b8ff" points="909.98,-7.8 899.89,-11.04 909.8,-14.79 909.98,-7.8"/>
</a>
</g>
</g>
<!-- Node18&#45;&gt;Node8 -->
<g id="edge60_Node000018_Node000008" class="edge">
<title>Node18&#45;&gt;Node8</title>
<g id="a_edge60_Node000018_Node000008"><a xlink:title=" ">
<path fill="none" stroke="#63b8ff" d="M1125.24,-164.66C1103.04,-146.22 1051.55,-103.45 1024.02,-80.57"/>
<polygon fill="#63b8ff" stroke="#63b8ff" points="1026.23,-77.86 1016.3,-74.16 1021.76,-83.24 1026.23,-77.86"/>
</a>
</g>
</g>
<!-- Node18&#45;&gt;Node9 -->
<g id="edge56_Node000018_Node000009" class="edge">
<title>Node18&#45;&gt;Node9</title>
<g id="a_edge56_Node000018_Node000009"><a xlink:title=" ">
<path fill="none" stroke="#63b8ff" d="M1072.29,-169.82C976.99,-163.7 802,-150.01 742.88,-129 726.5,-123.18 688.12,-97.02 664.25,-80.14"/>
<polygon fill="#63b8ff" stroke="#63b8ff" points="666.06,-77.14 655.88,-74.19 662,-82.84 666.06,-77.14"/>
</a>
</g>
</g>
<!-- Node18&#45;&gt;Node14 -->
<g id="edge55_Node000018_Node000014" class="edge">
<title>Node18&#45;&gt;Node14</title>
<g id="a_edge55_Node000018_Node000014"><a xlink:title=" ">
<path fill="none" stroke="#63b8ff" d="M1072.33,-167.11C1008.19,-160.16 906.15,-147.73 808.63,-128.92"/>
<polygon fill="#63b8ff" stroke="#63b8ff" points="809.08,-125.45 798.6,-126.96 807.74,-132.32 809.08,-125.45"/>
</a>
</g>
</g>
<!-- Node18&#45;&gt;Node15 -->
<g id="edge57_Node000018_Node000015" class="edge">
<title>Node18&#45;&gt;Node15</title>
<g id="a_edge57_Node000018_Node000015"><a xlink:title=" ">
<path fill="none" stroke="#63b8ff" d="M1119.61,-164.84C1084.26,-146.04 1000.23,-101.33 958.01,-78.87"/>
<polygon fill="#63b8ff" stroke="#63b8ff" points="959.42,-75.65 948.94,-74.05 956.13,-81.83 959.42,-75.65"/>
</a>
</g>
</g>
<!-- Node19 -->
<g id="Node000019" class="node">
<title>Node19</title>
<g id="a_Node000019"><a xlink:href="ConformationAtom_8h.html" target="_top" xlink:title=" ">
<polygon fill="white" stroke="#666666" points="352.38,-129 233.38,-129 233.38,-110 352.38,-110 352.38,-129"/>
<text text-anchor="middle" x="292.88" y="-117" font-family="Helvetica,sans-Serif" font-size="10.00">ConformationAtom.h</text>
</a>
</g>
</g>
<!-- Node18&#45;&gt;Node19 -->
<g id="edge41_Node000018_Node000019" class="edge">
<title>Node18&#45;&gt;Node19</title>
<g id="a_edge41_Node000018_Node000019"><a xlink:title=" ">
<path fill="none" stroke="#63b8ff" d="M1072.24,-171.04C940.46,-165.67 628.19,-151.55 366.88,-129 365.57,-128.89 364.26,-128.77 362.93,-128.65"/>
<polygon fill="#63b8ff" stroke="#63b8ff" points="362.91,-125.13 352.62,-127.66 362.24,-132.1 362.91,-125.13"/>
</a>
</g>
</g>
<!-- Node20 -->
<g id="Node000020" class="node">
<title>Node20</title>
<g id="a_Node000020"><a xlink:href="ConformationResult_8h.html" target="_top" xlink:title=" ">
<polygon fill="white" stroke="#666666" points="1544.38,-129 1421.38,-129 1421.38,-110 1544.38,-110 1544.38,-129"/>
<text text-anchor="middle" x="1482.88" y="-117" font-family="Helvetica,sans-Serif" font-size="10.00">ConformationResult.h</text>
</a>
</g>
</g>
<!-- Node18&#45;&gt;Node20 -->
<g id="edge45_Node000018_Node000020" class="edge">
<title>Node18&#45;&gt;Node20</title>
<g id="a_edge45_Node000018_Node000020"><a xlink:title=" ">
<path fill="none" stroke="#63b8ff" d="M1191.63,-164.98C1253.01,-155.61 1351.6,-140.55 1416.81,-130.59"/>
<polygon fill="#63b8ff" stroke="#63b8ff" points="1417.62,-134.01 1426.98,-129.04 1416.56,-127.09 1417.62,-134.01"/>
</a>
</g>
</g>
<!-- Node21 -->
<g id="Node000021" class="node">
<title>Node21</title>
<g id="a_Node000021"><a xlink:title=" ">
<polygon fill="#e0e0e0" stroke="#999999" points="1579.38,-74 1514.38,-74 1514.38,-55 1579.38,-55 1579.38,-74"/>
<text text-anchor="middle" x="1546.88" y="-62" font-family="Helvetica,sans-Serif" font-size="10.00">typeindex</text>
</a>
</g>
</g>
<!-- Node18&#45;&gt;Node21 -->
<g id="edge59_Node000018_Node000021" class="edge">
<title>Node18&#45;&gt;Node21</title>
<g id="a_edge59_Node000018_Node000021"><a xlink:title=" ">
<path fill="none" stroke="#63b8ff" d="M1199.4,-171.33C1310.52,-166.87 1530.64,-154.84 1553.88,-129 1564.86,-116.79 1560.8,-97.46 1555.42,-83.33"/>
<polygon fill="#63b8ff" stroke="#63b8ff" points="1558.63,-81.95 1551.47,-74.14 1552.2,-84.71 1558.63,-81.95"/>
</a>
</g>
</g>
<!-- Node22 -->
<g id="Node000022" class="node">
<title>Node22</title>
<g id="a_Node000022"><a xlink:href="GeometryChoice_8h.html" target="_top" xlink:title=" ">
<polygon fill="white" stroke="#666666" points="1403.38,-129 1296.38,-129 1296.38,-110 1403.38,-110 1403.38,-129"/>
<text text-anchor="middle" x="1349.88" y="-117" font-family="Helvetica,sans-Serif" font-size="10.00">GeometryChoice.h</text>
</a>
</g>
</g>
<!-- Node18&#45;&gt;Node22 -->
<g id="edge50_Node000018_Node000022" class="edge">
<title>Node18&#45;&gt;Node22</title>
<g id="a_edge50_Node000018_Node000022"><a xlink:title=" ">
<path fill="none" stroke="#63b8ff" d="M1170.26,-164.98C1206.97,-155.89 1265.26,-141.46 1305.43,-131.51"/>
<polygon fill="#63b8ff" stroke="#63b8ff" points="1306.36,-134.88 1315.23,-129.08 1304.68,-128.09 1306.36,-134.88"/>
</a>
</g>
</g>
<!-- Node24 -->
<g id="Node000024" class="node">
<title>Node24</title>
<g id="a_Node000024"><a xlink:title=" ">
<polygon fill="#e0e0e0" stroke="#999999" points="1203.38,-129 1110.38,-129 1110.38,-110 1203.38,-110 1203.38,-129"/>
<text text-anchor="middle" x="1156.88" y="-117" font-family="Helvetica,sans-Serif" font-size="10.00">unordered_map</text>
</a>
</g>
</g>
<!-- Node18&#45;&gt;Node24 -->
<g id="edge58_Node000018_Node000024" class="edge">
<title>Node18&#45;&gt;Node24</title>
<g id="a_edge58_Node000018_Node000024"><a xlink:title=" ">
<path fill="none" stroke="#63b8ff" d="M1139.35,-164.75C1142.16,-157.65 1146.22,-147.4 1149.72,-138.56"/>
<polygon fill="#63b8ff" stroke="#63b8ff" points="1153.05,-139.68 1153.48,-129.09 1146.54,-137.1 1153.05,-139.68"/>
</a>
</g>
</g>
<!-- Node25 -->
<g id="Node000025" class="node">
<title>Node25</title>
<g id="a_Node000025"><a xlink:title=" ">
<polygon fill="#e0e0e0" stroke="#999999" points="1277.88,-129 1221.88,-129 1221.88,-110 1277.88,-110 1277.88,-129"/>
<text text-anchor="middle" x="1249.88" y="-117" font-family="Helvetica,sans-Serif" font-size="10.00">sstream</text>
</a>
</g>
</g>
<!-- Node18&#45;&gt;Node25 -->
<g id="edge62_Node000018_Node000025" class="edge">
<title>Node18&#45;&gt;Node25</title>
<g id="a_edge62_Node000018_Node000025"><a xlink:title=" ">
<path fill="none" stroke="#63b8ff" d="M1154.2,-164.98C1172.53,-156.46 1200.99,-143.23 1222.11,-133.41"/>
<polygon fill="#63b8ff" stroke="#63b8ff" points="1223.64,-136.56 1231.23,-129.17 1220.69,-130.21 1223.64,-136.56"/>
</a>
</g>
</g>
<!-- Node19&#45;&gt;Node2 -->
<g id="edge42_Node000019_Node000002" class="edge">
<title>Node19&#45;&gt;Node2</title>
<g id="a_edge42_Node000019_Node000002"><a xlink:title=" ">
<path fill="none" stroke="#63b8ff" d="M313.44,-109.98C334.31,-101.34 366.85,-87.87 390.65,-78.02"/>
<polygon fill="#63b8ff" stroke="#63b8ff" points="392.04,-81.23 399.94,-74.17 389.36,-74.76 392.04,-81.23"/>
</a>
</g>
</g>
<!-- Node19&#45;&gt;Node4 -->
<g id="edge44_Node000019_Node000004" class="edge">
<title>Node19&#45;&gt;Node4</title>
<g id="a_edge44_Node000019_Node000004"><a xlink:title=" ">
<path fill="none" stroke="#63b8ff" d="M288.62,-109.66C280.09,-91.93 260.73,-51.73 249.46,-28.32"/>
<polygon fill="#63b8ff" stroke="#63b8ff" points="252.54,-26.65 245.05,-19.16 246.23,-29.69 252.54,-26.65"/>
</a>
</g>
</g>
<!-- Node19&#45;&gt;Node9 -->
<g id="edge43_Node000019_Node000009" class="edge">
<title>Node19&#45;&gt;Node9</title>
<g id="a_edge43_Node000019_Node000009"><a xlink:title=" ">
<path fill="none" stroke="#63b8ff" d="M349.27,-109.98C422.95,-98.86 549.64,-79.73 610,-70.62"/>
<polygon fill="#63b8ff" stroke="#63b8ff" points="610.76,-74.04 620.13,-69.09 609.72,-67.12 610.76,-74.04"/>
</a>
</g>
</g>
<!-- Node20&#45;&gt;Node6 -->
<g id="edge46_Node000020_Node000006" class="edge">
<title>Node20&#45;&gt;Node6</title>
<g id="a_edge46_Node000020_Node000006"><a xlink:title=" ">
<path fill="none" stroke="#63b8ff" d="M1473.74,-109.59C1458.34,-95.2 1425.57,-67.21 1391.88,-55 1302.6,-22.63 1008.56,-13.35 910.23,-11.12"/>
<polygon fill="#63b8ff" stroke="#63b8ff" points="910.09,-7.62 900.02,-10.9 909.94,-14.62 910.09,-7.62"/>
</a>
</g>
</g>
<!-- Node20&#45;&gt;Node8 -->
<g id="edge49_Node000020_Node000008" class="edge">
<title>Node20&#45;&gt;Node8</title>
<g id="a_edge49_Node000020_Node000008"><a xlink:title=" ">
<path fill="none" stroke="#63b8ff" d="M1421.05,-110.95C1418.29,-110.63 1415.55,-110.31 1412.88,-110 1277.94,-94.43 1117.66,-77.31 1045.07,-69.63"/>
<polygon fill="#63b8ff" stroke="#63b8ff" points="1045.32,-66.14 1035.01,-68.56 1044.59,-73.1 1045.32,-66.14"/>
</a>
</g>
</g>
<!-- Node20&#45;&gt;Node9 -->
<g id="edge47_Node000020_Node000009" class="edge">
<title>Node20&#45;&gt;Node9</title>
<g id="a_edge47_Node000020_Node000009"><a xlink:title=" ">
<path fill="none" stroke="#63b8ff" d="M1421.06,-110.78C1418.3,-110.5 1415.56,-110.24 1412.88,-110 1129.25,-84.6 785.41,-70.67 677.76,-66.7"/>
<polygon fill="#63b8ff" stroke="#63b8ff" points="677.64,-63.19 667.52,-66.32 677.38,-70.19 677.64,-63.19"/>
</a>
</g>
</g>
<!-- Node20&#45;&gt;Node21 -->
<g id="edge48_Node000020_Node000021" class="edge">
<title>Node20&#45;&gt;Node21</title>
<g id="a_edge48_Node000020_Node000021"><a xlink:title=" ">
<path fill="none" stroke="#63b8ff" d="M1493.16,-109.98C1502.72,-102.07 1517.16,-90.11 1528.66,-80.58"/>
<polygon fill="#63b8ff" stroke="#63b8ff" points="1530.94,-83.24 1536.41,-74.17 1526.48,-77.85 1530.94,-83.24"/>
</a>
</g>
</g>
<!-- Node22&#45;&gt;Node2 -->
<g id="edge51_Node000022_Node000002" class="edge">
<title>Node22&#45;&gt;Node2</title>
<g id="a_edge51_Node000022_Node000002"><a xlink:title=" ">
<path fill="none" stroke="#63b8ff" d="M1296.3,-110.96C1293.11,-110.61 1289.96,-110.29 1286.88,-110 1203.62,-102.26 612.64,-74.44 457.89,-67.22"/>
<polygon fill="#63b8ff" stroke="#63b8ff" points="457.67,-63.71 447.52,-66.74 457.35,-70.7 457.67,-63.71"/>
</a>
</g>
</g>
<!-- Node22&#45;&gt;Node6 -->
<g id="edge52_Node000022_Node000006" class="edge">
<title>Node22&#45;&gt;Node6</title>
<g id="a_edge52_Node000022_Node000006"><a xlink:title=" ">
<path fill="none" stroke="#63b8ff" d="M1312.45,-109.94C1222.23,-89.29 994.04,-37.08 909.78,-17.8"/>
<polygon fill="#63b8ff" stroke="#63b8ff" points="910.54,-14.38 900.01,-15.56 908.98,-21.21 910.54,-14.38"/>
</a>
</g>
</g>
<!-- Node22&#45;&gt;Node9 -->
<g id="edge53_Node000022_Node000009" class="edge">
<title>Node22&#45;&gt;Node9</title>
<g id="a_edge53_Node000022_Node000009"><a xlink:title=" ">
<path fill="none" stroke="#63b8ff" d="M1296.29,-111.03C1293.11,-110.66 1289.95,-110.31 1286.88,-110 1054.54,-86.31 773.67,-71.67 677.82,-67.07"/>
<polygon fill="#63b8ff" stroke="#63b8ff" points="677.73,-63.56 667.57,-66.58 677.4,-70.55 677.73,-63.56"/>
</a>
</g>
</g>
<!-- Node23 -->
<g id="Node000023" class="node">
<title>Node23</title>
<g id="a_Node000023"><a xlink:title=" ">
<polygon fill="#e0e0e0" stroke="#999999" points="1382.38,-74 1317.38,-74 1317.38,-55 1382.38,-55 1382.38,-74"/>
<text text-anchor="middle" x="1349.88" y="-62" font-family="Helvetica,sans-Serif" font-size="10.00">functional</text>
</a>
</g>
</g>
<!-- Node22&#45;&gt;Node23 -->
<g id="edge54_Node000022_Node000023" class="edge">
<title>Node22&#45;&gt;Node23</title>
<g id="a_edge54_Node000022_Node000023"><a xlink:title=" ">
<path fill="none" stroke="#63b8ff" d="M1349.88,-109.75C1349.88,-102.8 1349.88,-92.85 1349.88,-84.13"/>
<polygon fill="#63b8ff" stroke="#63b8ff" points="1353.38,-84.09 1349.88,-74.09 1346.38,-84.09 1353.38,-84.09"/>
</a>
</g>
</g>
</g>
</svg>
