<?xml version="1.0" encoding="UTF-8" standalone="no"?>
<!DOCTYPE svg PUBLIC "-//W3C//DTD SVG 1.1//EN"
 "http://www.w3.org/Graphics/SVG/1.1/DTD/svg11.dtd">
<!-- Generated by graphviz version 2.43.0 (0)
 -->
<!-- Title: src/Ring.h Pages: 1 -->
<svg width="1382pt" height="313pt"
 viewBox="0.00 0.00 1382.38 313.00" xmlns="http://www.w3.org/2000/svg" xmlns:xlink="http://www.w3.org/1999/xlink">
<g id="graph0" class="graph" transform="scale(1 1) rotate(0) translate(4 309)">
<title>src/Ring.h</title>
<!-- Node1 -->
<g id="Node000001" class="node">
<title>Node1</title>
<g id="a_Node000001"><a xlink:title=" ">
<polygon fill="#999999" stroke="#666666" points="432.5,-305 367.5,-305 367.5,-286 432.5,-286 432.5,-305"/>
<text text-anchor="middle" x="400" y="-293" font-family="Helvetica,sans-Serif" font-size="10.00">src/Ring.h</text>
</a>
</g>
</g>
<!-- Node2 -->
<g id="Node000002" class="node">
<title>Node2</title>
<g id="a_Node000002"><a xlink:href="Protein_8h.html" target="_top" xlink:title=" ">
<polygon fill="white" stroke="#666666" points="190.5,-189.5 113.5,-189.5 113.5,-170.5 190.5,-170.5 190.5,-189.5"/>
<text text-anchor="middle" x="152" y="-177.5" font-family="Helvetica,sans-Serif" font-size="10.00">src/Protein.h</text>
</a>
</g>
</g>
<!-- Node1&#45;&gt;Node2 -->
<g id="edge1_Node000001_Node000002" class="edge">
<title>Node1&#45;&gt;Node2</title>
<g id="a_edge1_Node000001_Node000002"><a xlink:title=" ">
<path fill="none" stroke="#63b8ff" d="M372.25,-281.8C321.33,-258.5 214.25,-209.49 170.86,-189.63"/>
<polygon fill="#63b8ff" stroke="#63b8ff" points="370.81,-284.99 381.36,-285.97 373.72,-278.62 370.81,-284.99"/>
</a>
</g>
</g>
<!-- Node10 -->
<g id="Node000010" class="node">
<title>Node10</title>
<g id="a_Node000010"><a xlink:href="ProteinConformation_8h.html" target="_top" xlink:title=" ">
<polygon fill="white" stroke="#666666" points="653,-250 509,-250 509,-231 653,-231 653,-250"/>
<text text-anchor="middle" x="581" y="-238" font-family="Helvetica,sans-Serif" font-size="10.00">src/ProteinConformation.h</text>
</a>
</g>
</g>
<!-- Node1&#45;&gt;Node10 -->
<g id="edge10_Node000001_Node000010" class="edge">
<title>Node1&#45;&gt;Node10</title>
<g id="a_edge10_Node000001_Node000010"><a xlink:title=" ">
<path fill="none" stroke="#63b8ff" d="M439.08,-283.06C472.91,-273.15 521.08,-259.04 551.69,-250.08"/>
<polygon fill="#63b8ff" stroke="#63b8ff" points="437.69,-279.82 429.08,-285.98 439.66,-286.53 437.69,-279.82"/>
</a>
</g>
</g>
<!-- Node3 -->
<g id="Node000003" class="node">
<title>Node3</title>
<g id="a_Node000003"><a xlink:href="GeometryResult_8h.html" target="_top" xlink:title=" ">
<polygon fill="white" stroke="#666666" points="550,-129 428,-129 428,-110 550,-110 550,-129"/>
<text text-anchor="middle" x="489" y="-117" font-family="Helvetica,sans-Serif" font-size="10.00">src/GeometryResult.h</text>
</a>
</g>
</g>
<!-- Node2&#45;&gt;Node3 -->
<g id="edge2_Node000002_Node000003" class="edge">
<title>Node2&#45;&gt;Node3</title>
<g id="a_edge2_Node000002_Node000003"><a xlink:title=" ">
<path fill="none" stroke="#63b8ff" d="M188.82,-167.73C192.58,-166.74 196.35,-165.81 200,-165 277.93,-147.71 369.17,-134.87 427.96,-127.54"/>
<polygon fill="#63b8ff" stroke="#63b8ff" points="187.7,-164.41 179,-170.45 189.57,-171.16 187.7,-164.41"/>
</a>
</g>
</g>
<!-- Node7 -->
<g id="Node000007" class="node">
<title>Node7</title>
<g id="a_Node000007"><a xlink:href="GromacsEnsembleLoader_8h.html" target="_top" xlink:title=" ">
<polygon fill="white" stroke="#666666" points="334.5,-129 167.5,-129 167.5,-110 334.5,-110 334.5,-129"/>
<text text-anchor="middle" x="251" y="-117" font-family="Helvetica,sans-Serif" font-size="10.00">src/GromacsEnsembleLoader.h</text>
</a>
</g>
</g>
<!-- Node2&#45;&gt;Node7 -->
<g id="edge6_Node000002_Node000007" class="edge">
<title>Node2&#45;&gt;Node7</title>
<g id="a_edge6_Node000002_Node000007"><a xlink:title=" ">
<path fill="none" stroke="#63b8ff" d="M175.23,-165.27C194.13,-154.1 220.22,-138.69 236.33,-129.17"/>
<polygon fill="#63b8ff" stroke="#63b8ff" points="173.44,-162.27 166.61,-170.37 177,-168.29 173.44,-162.27"/>
</a>
</g>
</g>
<!-- Node8 -->
<g id="Node000008" class="node">
<title>Node8</title>
<g id="a_Node000008"><a xlink:href="OrcaRunLoader_8h.html" target="_top" xlink:title=" ">
<polygon fill="white" stroke="#666666" points="156,-74 40,-74 40,-55 156,-55 156,-74"/>
<text text-anchor="middle" x="98" y="-62" font-family="Helvetica,sans-Serif" font-size="10.00">src/OrcaRunLoader.h</text>
</a>
</g>
</g>
<!-- Node2&#45;&gt;Node8 -->
<g id="edge7_Node000002_Node000008" class="edge">
<title>Node2&#45;&gt;Node8</title>
<g id="a_edge7_Node000002_Node000008"><a xlink:title=" ">
<path fill="none" stroke="#63b8ff" d="M144.24,-161.01C138.13,-147.02 129.28,-127.15 121,-110 114.95,-97.47 107.48,-83.22 102.73,-74.29"/>
<polygon fill="#63b8ff" stroke="#63b8ff" points="141.14,-162.65 148.33,-170.43 147.56,-159.87 141.14,-162.65"/>
</a>
</g>
</g>
<!-- Node9 -->
<g id="Node000009" class="node">
<title>Node9</title>
<g id="a_Node000009"><a xlink:href="PdbFileReader_8h.html" target="_top" xlink:title=" ">
<polygon fill="white" stroke="#666666" points="112,-129 0,-129 0,-110 112,-110 112,-129"/>
<text text-anchor="middle" x="56" y="-117" font-family="Helvetica,sans-Serif" font-size="10.00">src/PdbFileReader.h</text>
</a>
</g>
</g>
<!-- Node2&#45;&gt;Node9 -->
<g id="edge8_Node000002_Node000009" class="edge">
<title>Node2&#45;&gt;Node9</title>
<g id="a_edge8_Node000002_Node000009"><a xlink:title=" ">
<path fill="none" stroke="#63b8ff" d="M129.22,-165.12C110.92,-153.96 85.77,-138.64 70.22,-129.17"/>
<polygon fill="#63b8ff" stroke="#63b8ff" points="127.47,-168.15 137.83,-170.37 131.12,-162.18 127.47,-168.15"/>
</a>
</g>
</g>
<!-- Node4 -->
<g id="Node000004" class="node">
<title>Node4</title>
<g id="a_Node000004"><a xlink:href="DemoResult_8h.html" target="_top" xlink:title=" ">
<polygon fill="white" stroke="#666666" points="493.5,-74 390.5,-74 390.5,-55 493.5,-55 493.5,-74"/>
<text text-anchor="middle" x="442" y="-62" font-family="Helvetica,sans-Serif" font-size="10.00">src/DemoResult.h</text>
</a>
</g>
</g>
<!-- Node3&#45;&gt;Node4 -->
<g id="edge3_Node000003_Node000004" class="edge">
<title>Node3&#45;&gt;Node4</title>
<g id="a_edge3_Node000003_Node000004"><a xlink:title=" ">
<path fill="none" stroke="#63b8ff" d="M474.58,-102.24C466.34,-92.95 456.35,-81.68 449.62,-74.09"/>
<polygon fill="#63b8ff" stroke="#63b8ff" points="471.99,-104.59 481.24,-109.75 477.22,-99.94 471.99,-104.59"/>
</a>
</g>
</g>
<!-- Node5 -->
<g id="Node000005" class="node">
<title>Node5</title>
<g id="a_Node000005"><a xlink:href="SpatialIndexResult_8h.html" target="_top" xlink:title=" ">
<polygon fill="white" stroke="#666666" points="646,-74 512,-74 512,-55 646,-55 646,-74"/>
<text text-anchor="middle" x="579" y="-62" font-family="Helvetica,sans-Serif" font-size="10.00">src/SpatialIndexResult.h</text>
</a>
</g>
</g>
<!-- Node3&#45;&gt;Node5 -->
<g id="edge4_Node000003_Node000005" class="edge">
<title>Node3&#45;&gt;Node5</title>
<g id="a_edge4_Node000003_Node000005"><a xlink:title=" ">
<path fill="none" stroke="#63b8ff" d="M512.44,-104.7C528.84,-95.04 550.23,-82.44 564.28,-74.17"/>
<polygon fill="#63b8ff" stroke="#63b8ff" points="510.3,-101.89 503.46,-109.98 513.85,-107.93 510.3,-101.89"/>
</a>
</g>
</g>
<!-- Node6 -->
<g id="Node000006" class="node">
<title>Node6</title>
<g id="a_Node000006"><a xlink:href="MolecularGraphResult_8h.html" target="_top" xlink:title=" ">
<polygon fill="white" stroke="#666666" points="545.5,-19 394.5,-19 394.5,0 545.5,0 545.5,-19"/>
<text text-anchor="middle" x="470" y="-7" font-family="Helvetica,sans-Serif" font-size="10.00">src/MolecularGraphResult.h</text>
</a>
</g>
</g>
<!-- Node5&#45;&gt;Node6 -->
<g id="edge5_Node000005_Node000006" class="edge">
<title>Node5&#45;&gt;Node6</title>
<g id="a_edge5_Node000005_Node000006"><a xlink:title=" ">
<path fill="none" stroke="#63b8ff" d="M552.27,-50.5C532.21,-40.75 505.32,-27.68 487.83,-19.17"/>
<polygon fill="#63b8ff" stroke="#63b8ff" points="550.96,-53.76 561.49,-54.98 554.02,-47.46 550.96,-53.76"/>
</a>
</g>
</g>
<!-- Node9&#45;&gt;Node8 -->
<g id="edge9_Node000009_Node000008" class="edge">
<title>Node9&#45;&gt;Node8</title>
<g id="a_edge9_Node000009_Node000008"><a xlink:title=" ">
<path fill="none" stroke="#63b8ff" d="M69.33,-101.67C76.61,-92.5 85.3,-81.52 91.19,-74.09"/>
<polygon fill="#63b8ff" stroke="#63b8ff" points="66.4,-99.74 62.94,-109.75 71.89,-104.08 66.4,-99.74"/>
</a>
</g>
</g>
<!-- Node10&#45;&gt;Node2 -->
<g id="edge23_Node000010_Node000002" class="edge">
<title>Node10&#45;&gt;Node2</title>
<g id="a_edge23_Node000010_Node000002"><a xlink:title=" ">
<path fill="none" stroke="#63b8ff" d="M498.61,-233.88C421.02,-227.65 301.81,-215.64 200,-195 192.85,-193.55 185.23,-191.55 178.21,-189.51"/>
<polygon fill="#63b8ff" stroke="#63b8ff" points="498.56,-237.39 508.81,-234.69 499.11,-230.41 498.56,-237.39"/>
</a>
</g>
</g>
<!-- Node10&#45;&gt;Node3 -->
<g id="edge17_Node000010_Node000003" class="edge">
<title>Node10&#45;&gt;Node3</title>
<g id="a_edge17_Node000010_Node000003"><a xlink:title=" ">
<path fill="none" stroke="#63b8ff" d="M504.28,-227.88C485.85,-221.29 468.26,-211.01 457,-195 441.93,-173.59 465.65,-143.96 479.75,-129.36"/>
<polygon fill="#63b8ff" stroke="#63b8ff" points="503.38,-231.26 513.97,-231 505.52,-224.6 503.38,-231.26"/>
</a>
</g>
</g>
<!-- Node10&#45;&gt;Node4 -->
<g id="edge14_Node000010_Node000004" class="edge">
<title>Node10&#45;&gt;Node4</title>
<g id="a_edge14_Node000010_Node000004"><a xlink:title=" ">
<path fill="none" stroke="#63b8ff" d="M513.19,-228.39C490.3,-221.83 466.02,-211.45 448,-195 418.52,-168.09 409.57,-148.79 419,-110 422.25,-96.65 430.25,-82.83 435.9,-74.2"/>
<polygon fill="#63b8ff" stroke="#63b8ff" points="512.33,-231.78 522.89,-230.97 514.13,-225.02 512.33,-231.78"/>
</a>
</g>
</g>
<!-- Node10&#45;&gt;Node5 -->
<g id="edge25_Node000010_Node000005" class="edge">
<title>Node10&#45;&gt;Node5</title>
<g id="a_edge25_Node000010_Node000005"><a xlink:title=" ">
<path fill="none" stroke="#63b8ff" d="M663.58,-237.82C859.76,-233.41 1339.26,-220.13 1363,-195 1463.95,-88.14 853.43,-69.45 646.1,-66.19"/>
<polygon fill="#63b8ff" stroke="#63b8ff" points="663.25,-234.32 653.33,-238.04 663.4,-241.32 663.25,-234.32"/>
</a>
</g>
</g>
<!-- Node10&#45;&gt;Node6 -->
<g id="edge18_Node000010_Node000006" class="edge">
<title>Node10&#45;&gt;Node6</title>
<g id="a_edge18_Node000010_Node000006"><a xlink:title=" ">
<path fill="none" stroke="#63b8ff" d="M498.59,-233.35C469.87,-227.32 439.48,-216 418,-195 372.06,-150.09 348.35,-109.73 382,-55 393.3,-36.62 414.79,-25.56 433.71,-19.06"/>
<polygon fill="#63b8ff" stroke="#63b8ff" points="498.19,-236.83 508.67,-235.26 499.5,-229.96 498.19,-236.83"/>
</a>
</g>
</g>
<!-- Node11 -->
<g id="Node000011" class="node">
<title>Node11</title>
<g id="a_Node000011"><a xlink:href="ApbsFieldResult_8h.html" target="_top" xlink:title=" ">
<polygon fill="white" stroke="#666666" points="1184.5,-129 1063.5,-129 1063.5,-110 1184.5,-110 1184.5,-129"/>
<text text-anchor="middle" x="1124" y="-117" font-family="Helvetica,sans-Serif" font-size="10.00">src/ApbsFieldResult.h</text>
</a>
</g>
</g>
<!-- Node10&#45;&gt;Node11 -->
<g id="edge11_Node000010_Node000011" class="edge">
<title>Node10&#45;&gt;Node11</title>
<g id="a_edge11_Node000010_Node000011"><a xlink:title=" ">
<path fill="none" stroke="#63b8ff" d="M663.32,-237.7C855.82,-233.09 1320.92,-219.46 1344,-195 1393.67,-142.35 1265.52,-126.91 1184.5,-122.38"/>
<polygon fill="#63b8ff" stroke="#63b8ff" points="663.16,-234.2 653.25,-237.94 663.33,-241.2 663.16,-234.2"/>
</a>
</g>
</g>
<!-- Node12 -->
<g id="Node000012" class="node">
<title>Node12</title>
<g id="a_Node000012"><a xlink:href="ChargeAssignmentResult_8h.html" target="_top" xlink:title=" ">
<polygon fill="white" stroke="#666666" points="1020,-189.5 854,-189.5 854,-170.5 1020,-170.5 1020,-189.5"/>
<text text-anchor="middle" x="937" y="-177.5" font-family="Helvetica,sans-Serif" font-size="10.00">src/ChargeAssignmentResult.h</text>
</a>
</g>
</g>
<!-- Node10&#45;&gt;Node12 -->
<g id="edge12_Node000010_Node000012" class="edge">
<title>Node10&#45;&gt;Node12</title>
<g id="a_edge12_Node000010_Node000012"><a xlink:title=" ">
<path fill="none" stroke="#63b8ff" d="M643,-229.31C711.61,-218.04 820.94,-200.07 885.17,-189.52"/>
<polygon fill="#63b8ff" stroke="#63b8ff" points="642.07,-225.92 632.77,-230.99 643.2,-232.83 642.07,-225.92"/>
</a>
</g>
</g>
<!-- Node13 -->
<g id="Node000013" class="node">
<title>Node13</title>
<g id="a_Node000013"><a xlink:href="DsspResult_8h.html" target="_top" xlink:title=" ">
<polygon fill="white" stroke="#666666" points="564,-189.5 466,-189.5 466,-170.5 564,-170.5 564,-189.5"/>
<text text-anchor="middle" x="515" y="-177.5" font-family="Helvetica,sans-Serif" font-size="10.00">src/DsspResult.h</text>
</a>
</g>
</g>
<!-- Node10&#45;&gt;Node13 -->
<g id="edge15_Node000010_Node000013" class="edge">
<title>Node10&#45;&gt;Node13</title>
<g id="a_edge15_Node000010_Node000013"><a xlink:title=" ">
<path fill="none" stroke="#63b8ff" d="M563.76,-224.22C551.34,-213.21 535.03,-198.75 524.78,-189.67"/>
<polygon fill="#63b8ff" stroke="#63b8ff" points="561.46,-226.85 571.26,-230.87 566.1,-221.62 561.46,-226.85"/>
</a>
</g>
</g>
<!-- Node14 -->
<g id="Node000014" class="node">
<title>Node14</title>
<g id="a_Node000014"><a xlink:href="EnrichmentResult_8h.html" target="_top" xlink:title=" ">
<polygon fill="white" stroke="#666666" points="711.5,-189.5 582.5,-189.5 582.5,-170.5 711.5,-170.5 711.5,-189.5"/>
<text text-anchor="middle" x="647" y="-177.5" font-family="Helvetica,sans-Serif" font-size="10.00">src/EnrichmentResult.h</text>
</a>
</g>
</g>
<!-- Node10&#45;&gt;Node14 -->
<g id="edge16_Node000010_Node000014" class="edge">
<title>Node10&#45;&gt;Node14</title>
<g id="a_edge16_Node000010_Node000014"><a xlink:title=" ">
<path fill="none" stroke="#63b8ff" d="M598.24,-224.22C610.66,-213.21 626.97,-198.75 637.22,-189.67"/>
<polygon fill="#63b8ff" stroke="#63b8ff" points="595.9,-221.62 590.74,-230.87 600.54,-226.85 595.9,-221.62"/>
</a>
</g>
</g>
<!-- Node15 -->
<g id="Node000015" class="node">
<title>Node15</title>
<g id="a_Node000015"><a xlink:href="MopacResult_8h.html" target="_top" xlink:title=" ">
<polygon fill="white" stroke="#666666" points="836,-189.5 730,-189.5 730,-170.5 836,-170.5 836,-189.5"/>
<text text-anchor="middle" x="783" y="-177.5" font-family="Helvetica,sans-Serif" font-size="10.00">src/MopacResult.h</text>
</a>
</g>
</g>
<!-- Node10&#45;&gt;Node15 -->
<g id="edge19_Node000010_Node000015" class="edge">
<title>Node10&#45;&gt;Node15</title>
<g id="a_edge19_Node000010_Node000015"><a xlink:title=" ">
<path fill="none" stroke="#63b8ff" d="M620.34,-228.11C659.41,-216.79 718.42,-199.7 753.59,-189.52"/>
<polygon fill="#63b8ff" stroke="#63b8ff" points="619,-224.85 610.37,-230.99 620.95,-231.57 619,-224.85"/>
</a>
</g>
</g>
<!-- Node16 -->
<g id="Node000016" class="node">
<title>Node16</title>
<g id="a_Node000016"><a xlink:href="OperationRunner_8h.html" target="_top" xlink:title=" ">
<polygon fill="white" stroke="#666666" points="333.5,-189.5 208.5,-189.5 208.5,-170.5 333.5,-170.5 333.5,-189.5"/>
<text text-anchor="middle" x="271" y="-177.5" font-family="Helvetica,sans-Serif" font-size="10.00">src/OperationRunner.h</text>
</a>
</g>
</g>
<!-- Node10&#45;&gt;Node16 -->
<g id="edge20_Node000010_Node000016" class="edge">
<title>Node10&#45;&gt;Node16</title>
<g id="a_edge20_Node000010_Node000016"><a xlink:title=" ">
<path fill="none" stroke="#63b8ff" d="M525.91,-229.1C466.1,-217.82 371.72,-200.01 316.13,-189.52"/>
<polygon fill="#63b8ff" stroke="#63b8ff" points="525.45,-232.58 535.92,-230.99 526.75,-225.7 525.45,-232.58"/>
</a>
</g>
</g>
<!-- Node17 -->
<g id="Node000017" class="node">
<title>Node17</title>
<g id="a_Node000017"><a xlink:href="OrcaShieldingResult_8h.html" target="_top" xlink:title=" ">
<polygon fill="white" stroke="#666666" points="1179.5,-189.5 1038.5,-189.5 1038.5,-170.5 1179.5,-170.5 1179.5,-189.5"/>
<text text-anchor="middle" x="1109" y="-177.5" font-family="Helvetica,sans-Serif" font-size="10.00">src/OrcaShieldingResult.h</text>
</a>
</g>
</g>
<!-- Node10&#45;&gt;Node17 -->
<g id="edge22_Node000010_Node000017" class="edge">
<title>Node10&#45;&gt;Node17</title>
<g id="a_edge22_Node000010_Node000017"><a xlink:title=" ">
<path fill="none" stroke="#63b8ff" d="M663.5,-233.15C753.55,-225.79 901.87,-212.41 1029,-195 1040.32,-193.45 1052.48,-191.48 1063.82,-189.51"/>
<polygon fill="#63b8ff" stroke="#63b8ff" points="663.04,-229.68 653.35,-233.98 663.61,-236.66 663.04,-229.68"/>
</a>
</g>
</g>
<!-- Node18 -->
<g id="Node000018" class="node">
<title>Node18</title>
<g id="a_Node000018"><a xlink:href="ProtonationDetectionResult_8h.html" target="_top" xlink:title=" ">
<polygon fill="white" stroke="#666666" points="1334.5,-195 1197.5,-195 1197.5,-165 1334.5,-165 1334.5,-195"/>
<text text-anchor="start" x="1205.5" y="-183" font-family="Helvetica,sans-Serif" font-size="10.00">src/ProtonationDetection</text>
<text text-anchor="middle" x="1266" y="-172" font-family="Helvetica,sans-Serif" font-size="10.00">Result.h</text>
</a>
</g>
</g>
<!-- Node10&#45;&gt;Node18 -->
<g id="edge24_Node000010_Node000018" class="edge">
<title>Node10&#45;&gt;Node18</title>
<g id="a_edge24_Node000010_Node000018"><a xlink:title=" ">
<path fill="none" stroke="#63b8ff" d="M663.64,-236.25C780.86,-231.01 1001.98,-218.78 1189,-195 1191.7,-194.66 1194.44,-194.28 1197.21,-193.88"/>
<polygon fill="#63b8ff" stroke="#63b8ff" points="663.15,-232.77 653.32,-236.71 663.46,-239.76 663.15,-232.77"/>
</a>
</g>
</g>
<!-- Node12&#45;&gt;Node11 -->
<g id="edge13_Node000012_Node000011" class="edge">
<title>Node12&#45;&gt;Node11</title>
<g id="a_edge13_Node000012_Node000011"><a xlink:title=" ">
<path fill="none" stroke="#63b8ff" d="M973.88,-167.46C1010.05,-156.15 1064.35,-139.16 1096.78,-129.02"/>
<polygon fill="#63b8ff" stroke="#63b8ff" points="972.69,-164.17 964.19,-170.49 974.78,-170.85 972.69,-164.17"/>
</a>
</g>
</g>
<!-- Node16&#45;&gt;Node7 -->
<g id="edge21_Node000016_Node000007" class="edge">
<title>Node16&#45;&gt;Node7</title>
<g id="a_edge21_Node000016_Node000007"><a xlink:title=" ">
<path fill="none" stroke="#63b8ff" d="M264.79,-160.82C261.18,-150.28 256.8,-137.48 253.96,-129.17"/>
<polygon fill="#63b8ff" stroke="#63b8ff" points="261.5,-162.04 268.05,-170.37 268.13,-159.77 261.5,-162.04"/>
</a>
</g>
</g>
</g>
</svg>
