<?xml version="1.0" encoding="UTF-8" standalone="no"?>
<!DOCTYPE svg PUBLIC "-//W3C//DTD SVG 1.1//EN"
 "http://www.w3.org/Graphics/SVG/1.1/DTD/svg11.dtd">
<!-- Generated by graphviz version 2.43.0 (0)
 -->
<!-- Title: src/SpatialIndexResult.h Pages: 1 -->
<svg width="1896pt" height="357pt"
 viewBox="0.00 0.00 1895.50 357.00" xmlns="http://www.w3.org/2000/svg" xmlns:xlink="http://www.w3.org/1999/xlink">
<g id="graph0" class="graph" transform="scale(1 1) rotate(0) translate(4 353)">
<title>src/SpatialIndexResult.h</title>
<!-- Node1 -->
<g id="Node000001" class="node">
<title>Node1</title>
<g id="a_Node000001"><a xlink:title=" ">
<polygon fill="#999999" stroke="#666666" points="1776.5,-349 1642.5,-349 1642.5,-330 1776.5,-330 1776.5,-349"/>
<text text-anchor="middle" x="1709.5" y="-337" font-family="Helvetica,sans-Serif" font-size="10.00">src/SpatialIndexResult.h</text>
</a>
</g>
</g>
<!-- Node2 -->
<g id="Node000002" class="node">
<title>Node2</title>
<g id="a_Node000002"><a xlink:href="ConformationResult_8h.html" target="_top" xlink:title=" ">
<polygon fill="white" stroke="#666666" points="1707,-129 1584,-129 1584,-110 1707,-110 1707,-129"/>
<text text-anchor="middle" x="1645.5" y="-117" font-family="Helvetica,sans-Serif" font-size="10.00">ConformationResult.h</text>
</a>
</g>
</g>
<!-- Node1&#45;&gt;Node2 -->
<g id="edge1_Node000001_Node000002" class="edge">
<title>Node1&#45;&gt;Node2</title>
<g id="a_edge1_Node000001_Node000002"><a xlink:title=" ">
<path fill="none" stroke="#63b8ff" d="M1706.99,-329.95C1697.55,-297.81 1664.06,-183.72 1650.88,-138.83"/>
<polygon fill="#63b8ff" stroke="#63b8ff" points="1654.24,-137.83 1648.06,-129.22 1647.52,-139.8 1654.24,-137.83"/>
</a>
</g>
</g>
<!-- Node4 -->
<g id="Node000004" class="node">
<title>Node4</title>
<g id="a_Node000004"><a xlink:title=" ">
<polygon fill="#e0e0e0" stroke="#999999" points="837,-74 790,-74 790,-55 837,-55 837,-74"/>
<text text-anchor="middle" x="813.5" y="-62" font-family="Helvetica,sans-Serif" font-size="10.00">vector</text>
</a>
</g>
</g>
<!-- Node1&#45;&gt;Node4 -->
<g id="edge73_Node000001_Node000004" class="edge">
<title>Node1&#45;&gt;Node4</title>
<g id="a_edge73_Node000001_Node000004"><a xlink:title=" ">
<path fill="none" stroke="#63b8ff" d="M1713.01,-329.99C1720.1,-311.97 1735.5,-268.49 1735.5,-230.5 1735.5,-230.5 1735.5,-230.5 1735.5,-173.5 1735.5,-144.04 1739.69,-128.17 1716.5,-110 1681.66,-82.7 1007.15,-68.96 847.27,-66.08"/>
<polygon fill="#63b8ff" stroke="#63b8ff" points="847.14,-62.58 837.08,-65.9 847.02,-69.58 847.14,-62.58"/>
</a>
</g>
</g>
<!-- Node5 -->
<g id="Node000005" class="node">
<title>Node5</title>
<g id="a_Node000005"><a xlink:title=" ">
<polygon fill="#e0e0e0" stroke="#999999" points="1649,-74 1584,-74 1584,-55 1649,-55 1649,-74"/>
<text text-anchor="middle" x="1616.5" y="-62" font-family="Helvetica,sans-Serif" font-size="10.00">typeindex</text>
</a>
</g>
</g>
<!-- Node1&#45;&gt;Node5 -->
<g id="edge74_Node000001_Node000005" class="edge">
<title>Node1&#45;&gt;Node5</title>
<g id="a_edge74_Node000001_Node000005"><a xlink:title=" ">
<path fill="none" stroke="#63b8ff" d="M1719.22,-329.74C1737.12,-312.59 1773.5,-272.56 1773.5,-230.5 1773.5,-230.5 1773.5,-230.5 1773.5,-173.5 1773.5,-143.33 1771.24,-130.92 1749.5,-110 1725.2,-86.62 1688.27,-75.51 1659.48,-70.24"/>
<polygon fill="#63b8ff" stroke="#63b8ff" points="1659.72,-66.73 1649.28,-68.55 1658.58,-73.64 1659.72,-66.73"/>
</a>
</g>
</g>
<!-- Node7 -->
<g id="Node000007" class="node">
<title>Node7</title>
<g id="a_Node000007"><a xlink:href="ProteinConformation_8h.html" target="_top" xlink:title=" ">
<polygon fill="white" stroke="#666666" points="1341,-184 1214,-184 1214,-165 1341,-165 1341,-184"/>
<text text-anchor="middle" x="1277.5" y="-172" font-family="Helvetica,sans-Serif" font-size="10.00">ProteinConformation.h</text>
</a>
</g>
</g>
<!-- Node1&#45;&gt;Node7 -->
<g id="edge6_Node000001_Node000007" class="edge">
<title>Node1&#45;&gt;Node7</title>
<g id="a_edge6_Node000001_Node000007"><a xlink:title=" ">
<path fill="none" stroke="#63b8ff" d="M1642.47,-331.04C1596.89,-324.58 1535.79,-313.16 1484.5,-294 1411.5,-266.72 1333.97,-215.52 1298.02,-190.3"/>
<polygon fill="#63b8ff" stroke="#63b8ff" points="1299.59,-187.12 1289.41,-184.2 1295.54,-192.84 1299.59,-187.12"/>
</a>
</g>
</g>
<!-- Node19 -->
<g id="Node000019" class="node">
<title>Node19</title>
<g id="a_Node000019"><a xlink:href="GeometryResult_8h.html" target="_top" xlink:title=" ">
<polygon fill="white" stroke="#666666" points="1598,-294 1493,-294 1493,-275 1598,-275 1598,-294"/>
<text text-anchor="middle" x="1545.5" y="-282" font-family="Helvetica,sans-Serif" font-size="10.00">GeometryResult.h</text>
</a>
</g>
</g>
<!-- Node1&#45;&gt;Node19 -->
<g id="edge35_Node000001_Node000019" class="edge">
<title>Node1&#45;&gt;Node19</title>
<g id="a_edge35_Node000001_Node000019"><a xlink:title=" ">
<path fill="none" stroke="#63b8ff" d="M1683.15,-329.98C1655.74,-321.13 1612.61,-307.19 1581.94,-297.28"/>
<polygon fill="#63b8ff" stroke="#63b8ff" points="1582.65,-293.83 1572.06,-294.08 1580.5,-300.49 1582.65,-293.83"/>
</a>
</g>
</g>
<!-- Node28 -->
<g id="Node000028" class="node">
<title>Node28</title>
<g id="a_Node000028"><a xlink:title=" ">
<polygon fill="#e0e0e0" stroke="#999999" points="1887.5,-294 1801.5,-294 1801.5,-275 1887.5,-275 1887.5,-294"/>
<text text-anchor="middle" x="1844.5" y="-282" font-family="Helvetica,sans-Serif" font-size="10.00">nanoflann.hpp</text>
</a>
</g>
</g>
<!-- Node1&#45;&gt;Node28 -->
<g id="edge72_Node000001_Node000028" class="edge">
<title>Node1&#45;&gt;Node28</title>
<g id="a_edge72_Node000001_Node000028"><a xlink:title=" ">
<path fill="none" stroke="#63b8ff" d="M1731.19,-329.98C1753.3,-321.3 1787.82,-307.75 1812.95,-297.88"/>
<polygon fill="#63b8ff" stroke="#63b8ff" points="1814.39,-301.08 1822.42,-294.17 1811.83,-294.57 1814.39,-301.08"/>
</a>
</g>
</g>
<!-- Node3 -->
<g id="Node000003" class="node">
<title>Node3</title>
<g id="a_Node000003"><a xlink:title=" ">
<polygon fill="#e0e0e0" stroke="#999999" points="759.5,-19 715.5,-19 715.5,0 759.5,0 759.5,-19"/>
<text text-anchor="middle" x="737.5" y="-7" font-family="Helvetica,sans-Serif" font-size="10.00">string</text>
</a>
</g>
</g>
<!-- Node2&#45;&gt;Node3 -->
<g id="edge2_Node000002_Node000003" class="edge">
<title>Node2&#45;&gt;Node3</title>
<g id="a_edge2_Node000002_Node000003"><a xlink:title=" ">
<path fill="none" stroke="#63b8ff" d="M1651.4,-109.81C1659.82,-96.24 1672.78,-69.99 1658.5,-55 1627.23,-22.18 930.05,-12.6 770.03,-10.83"/>
<polygon fill="#63b8ff" stroke="#63b8ff" points="769.9,-7.33 759.87,-10.72 769.83,-14.33 769.9,-7.33"/>
</a>
</g>
</g>
<!-- Node2&#45;&gt;Node4 -->
<g id="edge3_Node000002_Node000004" class="edge">
<title>Node2&#45;&gt;Node4</title>
<g id="a_edge3_Node000002_Node000004"><a xlink:title=" ">
<path fill="none" stroke="#63b8ff" d="M1583.98,-114.58C1419.6,-104.11 974.04,-75.73 847.46,-67.66"/>
<polygon fill="#63b8ff" stroke="#63b8ff" points="847.42,-64.15 837.22,-67.01 846.97,-71.14 847.42,-64.15"/>
</a>
</g>
</g>
<!-- Node2&#45;&gt;Node5 -->
<g id="edge4_Node000002_Node000005" class="edge">
<title>Node2&#45;&gt;Node5</title>
<g id="a_edge4_Node000002_Node000005"><a xlink:title=" ">
<path fill="none" stroke="#63b8ff" d="M1640.71,-109.75C1636.74,-102.49 1630.97,-91.95 1626.07,-82.98"/>
<polygon fill="#63b8ff" stroke="#63b8ff" points="1629.07,-81.18 1621.2,-74.09 1622.93,-84.54 1629.07,-81.18"/>
</a>
</g>
</g>
<!-- Node6 -->
<g id="Node000006" class="node">
<title>Node6</title>
<g id="a_Node000006"><a xlink:title=" ">
<polygon fill="#e0e0e0" stroke="#999999" points="326.5,-74 268.5,-74 268.5,-55 326.5,-55 326.5,-74"/>
<text text-anchor="middle" x="297.5" y="-62" font-family="Helvetica,sans-Serif" font-size="10.00">memory</text>
</a>
</g>
</g>
<!-- Node2&#45;&gt;Node6 -->
<g id="edge5_Node000002_Node000006" class="edge">
<title>Node2&#45;&gt;Node6</title>
<g id="a_edge5_Node000002_Node000006"><a xlink:title=" ">
<path fill="none" stroke="#63b8ff" d="M1584,-116.16C1377.47,-108.29 709.67,-82.8 494.5,-74 439.71,-71.76 376.35,-68.99 336.61,-67.24"/>
<polygon fill="#63b8ff" stroke="#63b8ff" points="336.68,-63.74 326.54,-66.79 336.37,-70.73 336.68,-63.74"/>
</a>
</g>
</g>
<!-- Node7&#45;&gt;Node2 -->
<g id="edge16_Node000007_Node000002" class="edge">
<title>Node7&#45;&gt;Node2</title>
<g id="a_edge16_Node000007_Node000002"><a xlink:title=" ">
<path fill="none" stroke="#63b8ff" d="M1336.63,-164.98C1401.98,-155.57 1507.14,-140.43 1576.28,-130.47"/>
<polygon fill="#63b8ff" stroke="#63b8ff" points="1576.82,-133.93 1586.22,-129.04 1575.82,-127 1576.82,-133.93"/>
</a>
</g>
</g>
<!-- Node7&#45;&gt;Node3 -->
<g id="edge33_Node000007_Node000003" class="edge">
<title>Node7&#45;&gt;Node3</title>
<g id="a_edge33_Node000007_Node000003"><a xlink:title=" ">
<path fill="none" stroke="#63b8ff" d="M1341.24,-170.09C1374.56,-165.16 1413.84,-153.96 1440.5,-129 1465.29,-105.8 1482.76,-79.74 1459.5,-55 1435.58,-29.56 907.95,-14.73 770.17,-11.28"/>
<polygon fill="#63b8ff" stroke="#63b8ff" points="769.94,-7.77 759.85,-11.03 769.76,-14.77 769.94,-7.77"/>
</a>
</g>
</g>
<!-- Node7&#45;&gt;Node4 -->
<g id="edge28_Node000007_Node000004" class="edge">
<title>Node7&#45;&gt;Node4</title>
<g id="a_edge28_Node000007_Node000004"><a xlink:title=" ">
<path fill="none" stroke="#63b8ff" d="M1277.72,-164.91C1277.56,-150.97 1275.01,-123.62 1258.5,-110 1226.94,-83.96 945.57,-70.63 847.24,-66.74"/>
<polygon fill="#63b8ff" stroke="#63b8ff" points="847.37,-63.24 837.24,-66.35 847.1,-70.23 847.37,-63.24"/>
</a>
</g>
</g>
<!-- Node7&#45;&gt;Node5 -->
<g id="edge31_Node000007_Node000005" class="edge">
<title>Node7&#45;&gt;Node5</title>
<g id="a_edge31_Node000007_Node000005"><a xlink:title=" ">
<path fill="none" stroke="#63b8ff" d="M1341.12,-165.08C1384.81,-158.17 1443.69,-146.61 1493.5,-129 1530.5,-115.92 1570.35,-93.68 1594.36,-79.3"/>
<polygon fill="#63b8ff" stroke="#63b8ff" points="1596.31,-82.21 1603.04,-74.02 1592.67,-76.23 1596.31,-82.21"/>
</a>
</g>
</g>
<!-- Node7&#45;&gt;Node6 -->
<g id="edge32_Node000007_Node000006" class="edge">
<title>Node7&#45;&gt;Node6</title>
<g id="a_edge32_Node000007_Node000006"><a xlink:title=" ">
<path fill="none" stroke="#63b8ff" d="M1213.87,-171.16C1120.27,-166.94 940.26,-155.84 789.5,-129 757.34,-123.27 750.62,-115.96 718.5,-110 579.54,-84.23 411.8,-72.06 336.92,-67.61"/>
<polygon fill="#63b8ff" stroke="#63b8ff" points="336.75,-64.09 326.56,-67.01 336.34,-71.08 336.75,-64.09"/>
</a>
</g>
</g>
<!-- Node8 -->
<g id="Node000008" class="node">
<title>Node8</title>
<g id="a_Node000008"><a xlink:href="Types_8h.html" target="_top" xlink:title=" ">
<polygon fill="white" stroke="#666666" points="557,-74 504,-74 504,-55 557,-55 557,-74"/>
<text text-anchor="middle" x="530.5" y="-62" font-family="Helvetica,sans-Serif" font-size="10.00">Types.h</text>
</a>
</g>
</g>
<!-- Node7&#45;&gt;Node8 -->
<g id="edge7_Node000007_Node000008" class="edge">
<title>Node7&#45;&gt;Node8</title>
<g id="a_edge7_Node000007_Node000008"><a xlink:title=" ">
<path fill="none" stroke="#63b8ff" d="M1213.72,-168.94C1133.31,-162.63 991,-149.64 870.5,-129 834.05,-122.76 825.74,-117.36 789.5,-110 710.61,-93.98 617.42,-78.91 567.13,-71.08"/>
<polygon fill="#63b8ff" stroke="#63b8ff" points="567.49,-67.59 557.07,-69.52 566.42,-74.51 567.49,-67.59"/>
</a>
</g>
</g>
<!-- Node12 -->
<g id="Node000012" class="node">
<title>Node12</title>
<g id="a_Node000012"><a xlink:href="ConformationAtom_8h.html" target="_top" xlink:title=" ">
<polygon fill="white" stroke="#666666" points="1064,-129 945,-129 945,-110 1064,-110 1064,-129"/>
<text text-anchor="middle" x="1004.5" y="-117" font-family="Helvetica,sans-Serif" font-size="10.00">ConformationAtom.h</text>
</a>
</g>
</g>
<!-- Node7&#45;&gt;Node12 -->
<g id="edge12_Node000007_Node000012" class="edge">
<title>Node7&#45;&gt;Node12</title>
<g id="a_edge12_Node000007_Node000012"><a xlink:title=" ">
<path fill="none" stroke="#63b8ff" d="M1233.64,-164.98C1186.02,-155.74 1109.92,-140.97 1058.62,-131.01"/>
<polygon fill="#63b8ff" stroke="#63b8ff" points="1059.19,-127.55 1048.71,-129.08 1057.86,-134.42 1059.19,-127.55"/>
</a>
</g>
</g>
<!-- Node13 -->
<g id="Node000013" class="node">
<title>Node13</title>
<g id="a_Node000013"><a xlink:href="GeometryChoice_8h.html" target="_top" xlink:title=" ">
<polygon fill="white" stroke="#666666" points="1413,-129 1306,-129 1306,-110 1413,-110 1413,-129"/>
<text text-anchor="middle" x="1359.5" y="-117" font-family="Helvetica,sans-Serif" font-size="10.00">GeometryChoice.h</text>
</a>
</g>
</g>
<!-- Node7&#45;&gt;Node13 -->
<g id="edge17_Node000007_Node000013" class="edge">
<title>Node7&#45;&gt;Node13</title>
<g id="a_edge17_Node000007_Node000013"><a xlink:title=" ">
<path fill="none" stroke="#63b8ff" d="M1290.67,-164.98C1303.27,-156.84 1322.5,-144.41 1337.44,-134.76"/>
<polygon fill="#63b8ff" stroke="#63b8ff" points="1339.59,-137.54 1346.09,-129.17 1335.79,-131.66 1339.59,-137.54"/>
</a>
</g>
</g>
<!-- Node15 -->
<g id="Node000015" class="node">
<title>Node15</title>
<g id="a_Node000015"><a xlink:href="Ring_8h.html" target="_top" xlink:title=" ">
<polygon fill="white" stroke="#666666" points="927,-129 880,-129 880,-110 927,-110 927,-129"/>
<text text-anchor="middle" x="903.5" y="-117" font-family="Helvetica,sans-Serif" font-size="10.00">Ring.h</text>
</a>
</g>
</g>
<!-- Node7&#45;&gt;Node15 -->
<g id="edge22_Node000007_Node000015" class="edge">
<title>Node7&#45;&gt;Node15</title>
<g id="a_edge22_Node000007_Node000015"><a xlink:title=" ">
<path fill="none" stroke="#63b8ff" d="M1213.75,-167.71C1146.92,-161.08 1038.72,-148.75 937.01,-129.09"/>
<polygon fill="#63b8ff" stroke="#63b8ff" points="937.67,-125.65 927.19,-127.16 936.32,-132.52 937.67,-125.65"/>
</a>
</g>
</g>
<!-- Node16 -->
<g id="Node000016" class="node">
<title>Node16</title>
<g id="a_Node000016"><a xlink:title=" ">
<polygon fill="#e0e0e0" stroke="#999999" points="1450.5,-74 1412.5,-74 1412.5,-55 1450.5,-55 1450.5,-74"/>
<text text-anchor="middle" x="1431.5" y="-62" font-family="Helvetica,sans-Serif" font-size="10.00">map</text>
</a>
</g>
</g>
<!-- Node7&#45;&gt;Node16 -->
<g id="edge29_Node000007_Node000016" class="edge">
<title>Node7&#45;&gt;Node16</title>
<g id="a_edge29_Node000007_Node000016"><a xlink:title=" ">
<path fill="none" stroke="#63b8ff" d="M1341.26,-169.18C1370.21,-163.83 1402.4,-152.53 1422.5,-129 1432.9,-116.83 1434.45,-98.31 1433.82,-84.4"/>
<polygon fill="#63b8ff" stroke="#63b8ff" points="1437.28,-83.71 1432.92,-74.05 1430.3,-84.31 1437.28,-83.71"/>
</a>
</g>
</g>
<!-- Node17 -->
<g id="Node000017" class="node">
<title>Node17</title>
<g id="a_Node000017"><a xlink:title=" ">
<polygon fill="#e0e0e0" stroke="#999999" points="1175,-129 1082,-129 1082,-110 1175,-110 1175,-129"/>
<text text-anchor="middle" x="1128.5" y="-117" font-family="Helvetica,sans-Serif" font-size="10.00">unordered_map</text>
</a>
</g>
</g>
<!-- Node7&#45;&gt;Node17 -->
<g id="edge30_Node000007_Node000017" class="edge">
<title>Node7&#45;&gt;Node17</title>
<g id="a_edge30_Node000007_Node000017"><a xlink:title=" ">
<path fill="none" stroke="#63b8ff" d="M1253.56,-164.98C1228.94,-156.23 1190.38,-142.51 1162.58,-132.62"/>
<polygon fill="#63b8ff" stroke="#63b8ff" points="1163.47,-129.22 1152.88,-129.17 1161.12,-135.82 1163.47,-129.22"/>
</a>
</g>
</g>
<!-- Node18 -->
<g id="Node000018" class="node">
<title>Node18</title>
<g id="a_Node000018"><a xlink:title=" ">
<polygon fill="#e0e0e0" stroke="#999999" points="1249.5,-129 1193.5,-129 1193.5,-110 1249.5,-110 1249.5,-129"/>
<text text-anchor="middle" x="1221.5" y="-117" font-family="Helvetica,sans-Serif" font-size="10.00">sstream</text>
</a>
</g>
</g>
<!-- Node7&#45;&gt;Node18 -->
<g id="edge34_Node000007_Node000018" class="edge">
<title>Node7&#45;&gt;Node18</title>
<g id="a_edge34_Node000007_Node000018"><a xlink:title=" ">
<path fill="none" stroke="#63b8ff" d="M1268.5,-164.98C1260.31,-157.23 1247.99,-145.58 1238.03,-136.14"/>
<polygon fill="#63b8ff" stroke="#63b8ff" points="1240.33,-133.5 1230.66,-129.17 1235.52,-138.59 1240.33,-133.5"/>
</a>
</g>
</g>
<!-- Node8&#45;&gt;Node3 -->
<g id="edge11_Node000008_Node000003" class="edge">
<title>Node8&#45;&gt;Node3</title>
<g id="a_edge11_Node000008_Node000003"><a xlink:title=" ">
<path fill="none" stroke="#63b8ff" d="M557.14,-56.68C595.11,-46.96 664.7,-29.14 705.44,-18.71"/>
<polygon fill="#63b8ff" stroke="#63b8ff" points="706.57,-22.03 715.39,-16.16 704.83,-15.25 706.57,-22.03"/>
</a>
</g>
</g>
<!-- Node9 -->
<g id="Node000009" class="node">
<title>Node9</title>
<g id="a_Node000009"><a xlink:title=" ">
<polygon fill="#e0e0e0" stroke="#999999" points="579,-19 502,-19 502,0 579,0 579,-19"/>
<text text-anchor="middle" x="540.5" y="-7" font-family="Helvetica,sans-Serif" font-size="10.00">Eigen/Dense</text>
</a>
</g>
</g>
<!-- Node8&#45;&gt;Node9 -->
<g id="edge8_Node000008_Node000009" class="edge">
<title>Node8&#45;&gt;Node9</title>
<g id="a_edge8_Node000008_Node000009"><a xlink:title=" ">
<path fill="none" stroke="#63b8ff" d="M532.15,-54.75C533.46,-47.8 535.34,-37.85 536.98,-29.13"/>
<polygon fill="#63b8ff" stroke="#63b8ff" points="540.46,-29.56 538.88,-19.09 533.59,-28.27 540.46,-29.56"/>
</a>
</g>
</g>
<!-- Node10 -->
<g id="Node000010" class="node">
<title>Node10</title>
<g id="a_Node000010"><a xlink:title=" ">
<polygon fill="#e0e0e0" stroke="#999999" points="678.5,-19 636.5,-19 636.5,0 678.5,0 678.5,-19"/>
<text text-anchor="middle" x="657.5" y="-7" font-family="Helvetica,sans-Serif" font-size="10.00">array</text>
</a>
</g>
</g>
<!-- Node8&#45;&gt;Node10 -->
<g id="edge9_Node000008_Node000010" class="edge">
<title>Node8&#45;&gt;Node10</title>
<g id="a_edge9_Node000008_Node000010"><a xlink:title=" ">
<path fill="none" stroke="#63b8ff" d="M550.9,-54.98C571.52,-46.38 603.61,-32.99 627.19,-23.15"/>
<polygon fill="#63b8ff" stroke="#63b8ff" points="628.84,-26.25 636.72,-19.17 626.15,-19.79 628.84,-26.25"/>
</a>
</g>
</g>
<!-- Node11 -->
<g id="Node000011" class="node">
<title>Node11</title>
<g id="a_Node000011"><a xlink:title=" ">
<polygon fill="#e0e0e0" stroke="#999999" points="290,-19 243,-19 243,0 290,0 290,-19"/>
<text text-anchor="middle" x="266.5" y="-7" font-family="Helvetica,sans-Serif" font-size="10.00">cmath</text>
</a>
</g>
</g>
<!-- Node8&#45;&gt;Node11 -->
<g id="edge10_Node000008_Node000011" class="edge">
<title>Node8&#45;&gt;Node11</title>
<g id="a_edge10_Node000008_Node000011"><a xlink:title=" ">
<path fill="none" stroke="#63b8ff" d="M503.73,-58.13C455.31,-48.41 353.28,-27.92 300.2,-17.27"/>
<polygon fill="#63b8ff" stroke="#63b8ff" points="300.76,-13.81 290.26,-15.27 299.38,-20.67 300.76,-13.81"/>
</a>
</g>
</g>
<!-- Node12&#45;&gt;Node4 -->
<g id="edge14_Node000012_Node000004" class="edge">
<title>Node12&#45;&gt;Node4</title>
<g id="a_edge14_Node000012_Node000004"><a xlink:title=" ">
<path fill="none" stroke="#63b8ff" d="M973.81,-109.98C939.16,-100.37 882.97,-84.78 847.15,-74.84"/>
<polygon fill="#63b8ff" stroke="#63b8ff" points="847.75,-71.37 837.17,-72.07 845.87,-78.12 847.75,-71.37"/>
</a>
</g>
</g>
<!-- Node12&#45;&gt;Node8 -->
<g id="edge13_Node000012_Node000008" class="edge">
<title>Node12&#45;&gt;Node8</title>
<g id="a_edge13_Node000012_Node000008"><a xlink:title=" ">
<path fill="none" stroke="#63b8ff" d="M944.67,-111.08C941.57,-110.71 938.5,-110.35 935.5,-110 799.84,-94.19 638.42,-76.91 567.28,-69.38"/>
<polygon fill="#63b8ff" stroke="#63b8ff" points="567.36,-65.87 557.05,-68.3 566.63,-72.83 567.36,-65.87"/>
</a>
</g>
</g>
<!-- Node12&#45;&gt;Node10 -->
<g id="edge15_Node000012_Node000010" class="edge">
<title>Node12&#45;&gt;Node10</title>
<g id="a_edge15_Node000012_Node000010"><a xlink:title=" ">
<path fill="none" stroke="#63b8ff" d="M993.13,-109.79C974.45,-95.94 935.63,-69.02 898.5,-55 888.72,-51.3 751.79,-27.03 688.8,-15.97"/>
<polygon fill="#63b8ff" stroke="#63b8ff" points="689.1,-12.47 678.65,-14.19 687.89,-19.37 689.1,-12.47"/>
</a>
</g>
</g>
<!-- Node13&#45;&gt;Node3 -->
<g id="edge19_Node000013_Node000003" class="edge">
<title>Node13&#45;&gt;Node3</title>
<g id="a_edge19_Node000013_Node000003"><a xlink:title=" ">
<path fill="none" stroke="#63b8ff" d="M1310.43,-109.98C1187.97,-88.72 871.43,-33.75 769.58,-16.07"/>
<polygon fill="#63b8ff" stroke="#63b8ff" points="770.04,-12.6 759.59,-14.34 768.84,-19.49 770.04,-12.6"/>
</a>
</g>
</g>
<!-- Node13&#45;&gt;Node4 -->
<g id="edge20_Node000013_Node000004" class="edge">
<title>Node13&#45;&gt;Node4</title>
<g id="a_edge20_Node000013_Node000004"><a xlink:title=" ">
<path fill="none" stroke="#63b8ff" d="M1305.7,-111.62C1300.9,-111.05 1296.11,-110.5 1291.5,-110 1125.32,-91.88 926.13,-74.84 847.66,-68.31"/>
<polygon fill="#63b8ff" stroke="#63b8ff" points="847.66,-64.8 837.4,-67.46 847.08,-71.77 847.66,-64.8"/>
</a>
</g>
</g>
<!-- Node13&#45;&gt;Node8 -->
<g id="edge18_Node000013_Node000008" class="edge">
<title>Node13&#45;&gt;Node8</title>
<g id="a_edge18_Node000013_Node000008"><a xlink:title=" ">
<path fill="none" stroke="#63b8ff" d="M1305.79,-113.75C1290.51,-112.46 1273.86,-111.12 1258.5,-110 993.85,-90.78 674.67,-73.21 567.56,-67.46"/>
<polygon fill="#63b8ff" stroke="#63b8ff" points="567.46,-63.95 557.29,-66.92 567.09,-70.94 567.46,-63.95"/>
</a>
</g>
</g>
<!-- Node14 -->
<g id="Node000014" class="node">
<title>Node14</title>
<g id="a_Node000014"><a xlink:title=" ">
<polygon fill="#e0e0e0" stroke="#999999" points="1392,-74 1327,-74 1327,-55 1392,-55 1392,-74"/>
<text text-anchor="middle" x="1359.5" y="-62" font-family="Helvetica,sans-Serif" font-size="10.00">functional</text>
</a>
</g>
</g>
<!-- Node13&#45;&gt;Node14 -->
<g id="edge21_Node000013_Node000014" class="edge">
<title>Node13&#45;&gt;Node14</title>
<g id="a_edge21_Node000013_Node000014"><a xlink:title=" ">
<path fill="none" stroke="#63b8ff" d="M1359.5,-109.75C1359.5,-102.8 1359.5,-92.85 1359.5,-84.13"/>
<polygon fill="#63b8ff" stroke="#63b8ff" points="1363,-84.09 1359.5,-74.09 1356,-84.09 1363,-84.09"/>
</a>
</g>
</g>
<!-- Node15&#45;&gt;Node4 -->
<g id="edge25_Node000015_Node000004" class="edge">
<title>Node15&#45;&gt;Node4</title>
<g id="a_edge25_Node000015_Node000004"><a xlink:title=" ">
<path fill="none" stroke="#63b8ff" d="M889.04,-109.98C875.08,-101.77 853.71,-89.18 837.25,-79.49"/>
<polygon fill="#63b8ff" stroke="#63b8ff" points="838.62,-76.23 828.22,-74.17 835.06,-82.26 838.62,-76.23"/>
</a>
</g>
</g>
<!-- Node15&#45;&gt;Node6 -->
<g id="edge27_Node000015_Node000006" class="edge">
<title>Node15&#45;&gt;Node6</title>
<g id="a_edge27_Node000015_Node000006"><a xlink:title=" ">
<path fill="none" stroke="#63b8ff" d="M879.74,-116.42C787.44,-108.35 452.01,-79.01 336.73,-68.93"/>
<polygon fill="#63b8ff" stroke="#63b8ff" points="336.85,-65.43 326.59,-68.04 336.24,-72.4 336.85,-65.43"/>
</a>
</g>
</g>
<!-- Node15&#45;&gt;Node8 -->
<g id="edge23_Node000015_Node000008" class="edge">
<title>Node15&#45;&gt;Node8</title>
<g id="a_edge23_Node000015_Node000008"><a xlink:title=" ">
<path fill="none" stroke="#63b8ff" d="M879.85,-112.87C875.11,-111.84 870.16,-110.83 865.5,-110 757.66,-90.81 628.94,-75.94 567.15,-69.3"/>
<polygon fill="#63b8ff" stroke="#63b8ff" points="567.43,-65.81 557.11,-68.23 566.69,-72.77 567.43,-65.81"/>
</a>
</g>
</g>
<!-- Node15&#45;&gt;Node9 -->
<g id="edge24_Node000015_Node000009" class="edge">
<title>Node15&#45;&gt;Node9</title>
<g id="a_edge24_Node000015_Node000009"><a xlink:title=" ">
<path fill="none" stroke="#63b8ff" d="M898.36,-109.77C889.53,-95.64 870.03,-68.01 845.5,-55 823.33,-43.24 669.9,-24.82 589.47,-15.82"/>
<polygon fill="#63b8ff" stroke="#63b8ff" points="589.42,-12.29 579.09,-14.66 588.64,-19.25 589.42,-12.29"/>
</a>
</g>
</g>
<!-- Node15&#45;&gt;Node16 -->
<g id="edge26_Node000015_Node000016" class="edge">
<title>Node15&#45;&gt;Node16</title>
<g id="a_edge26_Node000015_Node000016"><a xlink:title=" ">
<path fill="none" stroke="#63b8ff" d="M927.16,-111.7C929.95,-111.05 932.78,-110.46 935.5,-110 1140.29,-75.19 1197,-110.49 1401.5,-74 1401.83,-73.94 1402.16,-73.88 1402.49,-73.82"/>
<polygon fill="#63b8ff" stroke="#63b8ff" points="1403.31,-77.22 1412.27,-71.56 1401.73,-70.4 1403.31,-77.22"/>
</a>
</g>
</g>
<!-- Node19&#45;&gt;Node2 -->
<g id="edge36_Node000019_Node000002" class="edge">
<title>Node19&#45;&gt;Node2</title>
<g id="a_edge36_Node000019_Node000002"><a xlink:title=" ">
<path fill="none" stroke="#63b8ff" d="M1550.88,-274.74C1566.75,-248.87 1613.61,-172.48 1634.84,-137.88"/>
<polygon fill="#63b8ff" stroke="#63b8ff" points="1637.85,-139.66 1640.1,-129.31 1631.88,-136 1637.85,-139.66"/>
</a>
</g>
</g>
<!-- Node19&#45;&gt;Node7 -->
<g id="edge37_Node000019_Node000007" class="edge">
<title>Node19&#45;&gt;Node7</title>
<g id="a_edge37_Node000019_Node000007"><a xlink:title=" ">
<path fill="none" stroke="#63b8ff" d="M1524.02,-274.84C1476.66,-255.76 1363.13,-210.01 1308.25,-187.89"/>
<polygon fill="#63b8ff" stroke="#63b8ff" points="1309.29,-184.54 1298.71,-184.05 1306.68,-191.03 1309.29,-184.54"/>
</a>
</g>
</g>
<!-- Node20 -->
<g id="Node000020" class="node">
<title>Node20</title>
<g id="a_Node000020"><a xlink:href="Protein_8h.html" target="_top" xlink:title=" ">
<polygon fill="white" stroke="#666666" points="611.5,-239 551.5,-239 551.5,-220 611.5,-220 611.5,-239"/>
<text text-anchor="middle" x="581.5" y="-227" font-family="Helvetica,sans-Serif" font-size="10.00">Protein.h</text>
</a>
</g>
</g>
<!-- Node19&#45;&gt;Node20 -->
<g id="edge38_Node000019_Node000020" class="edge">
<title>Node19&#45;&gt;Node20</title>
<g id="a_edge38_Node000019_Node000020"><a xlink:title=" ">
<path fill="none" stroke="#63b8ff" d="M1492.99,-280.61C1320.9,-271.15 776.22,-241.21 622.34,-232.75"/>
<polygon fill="#63b8ff" stroke="#63b8ff" points="622.13,-229.23 611.95,-232.17 621.74,-236.22 622.13,-229.23"/>
</a>
</g>
</g>
<!-- Node20&#45;&gt;Node3 -->
<g id="edge71_Node000020_Node000003" class="edge">
<title>Node20&#45;&gt;Node3</title>
<g id="a_edge71_Node000020_Node000003"><a xlink:title=" ">
<path fill="none" stroke="#63b8ff" d="M611.83,-228.35C736.2,-227.47 1207.26,-221.67 1350.5,-184 1404.13,-169.9 1426.83,-171.46 1462.5,-129 1478.88,-109.51 1474.91,-99.2 1478.5,-74 1479.69,-65.64 1484.29,-61.15 1478.5,-55 1453.85,-28.83 908.97,-14.47 769.69,-11.22"/>
<polygon fill="#63b8ff" stroke="#63b8ff" points="769.72,-7.72 759.65,-10.98 769.56,-14.71 769.72,-7.72"/>
</a>
</g>
</g>
<!-- Node20&#45;&gt;Node4 -->
<g id="edge69_Node000020_Node000004" class="edge">
<title>Node20&#45;&gt;Node4</title>
<g id="a_edge69_Node000020_Node000004"><a xlink:title=" ">
<path fill="none" stroke="#63b8ff" d="M595.4,-219.84C609.73,-210.9 632.71,-196.53 652.5,-184 690.83,-159.73 701.99,-155.94 738.5,-129 759.16,-113.76 781.44,-94.49 796.3,-81.2"/>
<polygon fill="#63b8ff" stroke="#63b8ff" points="799.05,-83.44 804.13,-74.15 794.36,-78.25 799.05,-83.44"/>
</a>
</g>
</g>
<!-- Node20&#45;&gt;Node6 -->
<g id="edge70_Node000020_Node000006" class="edge">
<title>Node20&#45;&gt;Node6</title>
<g id="a_edge70_Node000020_Node000006"><a xlink:title=" ">
<path fill="none" stroke="#63b8ff" d="M551.37,-227.32C475.94,-223.98 280.92,-212.72 223.5,-184 187.32,-165.9 147.1,-143 170.5,-110 190.27,-82.13 228.9,-71.58 258.39,-67.66"/>
<polygon fill="#63b8ff" stroke="#63b8ff" points="258.85,-71.13 268.39,-66.53 258.07,-64.17 258.85,-71.13"/>
</a>
</g>
</g>
<!-- Node20&#45;&gt;Node7 -->
<g id="edge68_Node000020_Node000007" class="edge">
<title>Node20&#45;&gt;Node7</title>
<g id="a_edge68_Node000020_Node000007"><a xlink:title=" ">
<path fill="none" stroke="#63b8ff" d="M611.85,-226.19C714.86,-218.34 1053.04,-192.59 1203.81,-181.11"/>
<polygon fill="#63b8ff" stroke="#63b8ff" points="1204.2,-184.59 1213.91,-180.34 1203.67,-177.61 1204.2,-184.59"/>
</a>
</g>
</g>
<!-- Node20&#45;&gt;Node8 -->
<g id="edge39_Node000020_Node000008" class="edge">
<title>Node20&#45;&gt;Node8</title>
<g id="a_edge39_Node000020_Node000008"><a xlink:title=" ">
<path fill="none" stroke="#63b8ff" d="M551.3,-227.96C489.58,-226.14 352.34,-218.24 323.5,-184 306.25,-163.52 326.29,-127.23 346.5,-110 388.03,-74.59 453.09,-66.4 493.69,-65.01"/>
<polygon fill="#63b8ff" stroke="#63b8ff" points="493.79,-68.51 503.71,-64.79 493.63,-61.51 493.79,-68.51"/>
</a>
</g>
</g>
<!-- Node20&#45;&gt;Node15 -->
<g id="edge57_Node000020_Node000015" class="edge">
<title>Node20&#45;&gt;Node15</title>
<g id="a_edge57_Node000020_Node000015"><a xlink:title=" ">
<path fill="none" stroke="#63b8ff" d="M611.77,-227.95C659.73,-226.02 755.16,-217.83 827.5,-184 851.94,-172.57 874.98,-151.29 889.15,-136.53"/>
<polygon fill="#63b8ff" stroke="#63b8ff" points="891.81,-138.81 896.06,-129.11 886.68,-134.04 891.81,-138.81"/>
</a>
</g>
</g>
<!-- Node21 -->
<g id="Node000021" class="node">
<title>Node21</title>
<g id="a_Node000021"><a xlink:href="Atom_8h.html" target="_top" xlink:title=" ">
<polygon fill="white" stroke="#666666" points="231.5,-129 179.5,-129 179.5,-110 231.5,-110 231.5,-129"/>
<text text-anchor="middle" x="205.5" y="-117" font-family="Helvetica,sans-Serif" font-size="10.00">Atom.h</text>
</a>
</g>
</g>
<!-- Node20&#45;&gt;Node21 -->
<g id="edge40_Node000020_Node000021" class="edge">
<title>Node20&#45;&gt;Node21</title>
<g id="a_edge40_Node000020_Node000021"><a xlink:title=" ">
<path fill="none" stroke="#63b8ff" d="M551.26,-227.73C478.49,-225.37 295.9,-216.32 245.5,-184 229.08,-173.47 218.19,-153.55 211.97,-138.82"/>
<polygon fill="#63b8ff" stroke="#63b8ff" points="215.13,-137.28 208.26,-129.21 208.6,-139.8 215.13,-137.28"/>
</a>
</g>
</g>
<!-- Node22 -->
<g id="Node000022" class="node">
<title>Node22</title>
<g id="a_Node000022"><a xlink:href="Residue_8h.html" target="_top" xlink:title=" ">
<polygon fill="white" stroke="#666666" points="644,-184 579,-184 579,-165 644,-165 644,-184"/>
<text text-anchor="middle" x="611.5" y="-172" font-family="Helvetica,sans-Serif" font-size="10.00">Residue.h</text>
</a>
</g>
</g>
<!-- Node20&#45;&gt;Node22 -->
<g id="edge45_Node000020_Node000022" class="edge">
<title>Node20&#45;&gt;Node22</title>
<g id="a_edge45_Node000020_Node000022"><a xlink:title=" ">
<path fill="none" stroke="#63b8ff" d="M586.45,-219.75C590.56,-212.49 596.53,-201.95 601.6,-192.98"/>
<polygon fill="#63b8ff" stroke="#63b8ff" points="604.76,-194.52 606.64,-184.09 598.67,-191.07 604.76,-194.52"/>
</a>
</g>
</g>
<!-- Node25 -->
<g id="Node000025" class="node">
<title>Node25</title>
<g id="a_Node000025"><a xlink:href="Bond_8h.html" target="_top" xlink:title=" ">
<polygon fill="white" stroke="#666666" points="413.5,-129 363.5,-129 363.5,-110 413.5,-110 413.5,-129"/>
<text text-anchor="middle" x="388.5" y="-117" font-family="Helvetica,sans-Serif" font-size="10.00">Bond.h</text>
</a>
</g>
</g>
<!-- Node20&#45;&gt;Node25 -->
<g id="edge54_Node000020_Node000025" class="edge">
<title>Node20&#45;&gt;Node25</title>
<g id="a_edge54_Node000020_Node000025"><a xlink:title=" ">
<path fill="none" stroke="#63b8ff" d="M566.03,-219.84C532.49,-201.08 452.87,-156.52 412.64,-134.01"/>
<polygon fill="#63b8ff" stroke="#63b8ff" points="414.21,-130.88 403.77,-129.05 410.79,-136.98 414.21,-130.88"/>
</a>
</g>
</g>
<!-- Node26 -->
<g id="Node000026" class="node">
<title>Node26</title>
<g id="a_Node000026"><a xlink:href="CovalentTopology_8h.html" target="_top" xlink:title=" ">
<polygon fill="white" stroke="#666666" points="444,-184 333,-184 333,-165 444,-165 444,-184"/>
<text text-anchor="middle" x="388.5" y="-172" font-family="Helvetica,sans-Serif" font-size="10.00">CovalentTopology.h</text>
</a>
</g>
</g>
<!-- Node20&#45;&gt;Node26 -->
<g id="edge58_Node000020_Node000026" class="edge">
<title>Node20&#45;&gt;Node26</title>
<g id="a_edge58_Node000020_Node000026"><a xlink:title=" ">
<path fill="none" stroke="#63b8ff" d="M551.34,-220.22C518.59,-211.22 466.07,-196.8 429.57,-186.78"/>
<polygon fill="#63b8ff" stroke="#63b8ff" points="430.29,-183.35 419.72,-184.07 428.44,-190.1 430.29,-183.35"/>
</a>
</g>
</g>
<!-- Node27 -->
<g id="Node000027" class="node">
<title>Node27</title>
<g id="a_Node000027"><a xlink:href="ProteinBuildContext_8h.html" target="_top" xlink:title=" ">
<polygon fill="white" stroke="#666666" points="123,-129 0,-129 0,-110 123,-110 123,-129"/>
<text text-anchor="middle" x="61.5" y="-117" font-family="Helvetica,sans-Serif" font-size="10.00">ProteinBuildContext.h</text>
</a>
</g>
</g>
<!-- Node20&#45;&gt;Node27 -->
<g id="edge63_Node000020_Node000027" class="edge">
<title>Node20&#45;&gt;Node27</title>
<g id="a_edge63_Node000020_Node000027"><a xlink:title=" ">
<path fill="none" stroke="#63b8ff" d="M551.22,-227.77C463.82,-225.3 212.58,-215.56 137.5,-184 112.63,-173.54 89.69,-152.04 75.66,-136.97"/>
<polygon fill="#63b8ff" stroke="#63b8ff" points="78.11,-134.47 68.83,-129.37 72.91,-139.14 78.11,-134.47"/>
</a>
</g>
</g>
<!-- Node21&#45;&gt;Node3 -->
<g id="edge43_Node000021_Node000003" class="edge">
<title>Node21&#45;&gt;Node3</title>
<g id="a_edge43_Node000021_Node000003"><a xlink:title=" ">
<path fill="none" stroke="#63b8ff" d="M210.04,-109.61C217.9,-95.25 235.56,-67.31 259.5,-55 344.38,-11.35 592.81,-31.01 687.5,-19 693.18,-18.28 699.2,-17.38 705.02,-16.43"/>
<polygon fill="#63b8ff" stroke="#63b8ff" points="705.88,-19.83 715.16,-14.71 704.71,-12.93 705.88,-19.83"/>
</a>
</g>
</g>
<!-- Node21&#45;&gt;Node4 -->
<g id="edge44_Node000021_Node000004" class="edge">
<title>Node21&#45;&gt;Node4</title>
<g id="a_edge44_Node000021_Node000004"><a xlink:title=" ">
<path fill="none" stroke="#63b8ff" d="M231.62,-116.22C328.96,-107.74 670.54,-77.96 779.69,-68.45"/>
<polygon fill="#63b8ff" stroke="#63b8ff" points="780.15,-71.92 789.81,-67.57 779.54,-64.95 780.15,-71.92"/>
</a>
</g>
</g>
<!-- Node21&#45;&gt;Node6 -->
<g id="edge42_Node000021_Node000006" class="edge">
<title>Node21&#45;&gt;Node6</title>
<g id="a_edge42_Node000021_Node000006"><a xlink:title=" ">
<path fill="none" stroke="#63b8ff" d="M220.28,-109.98C234.68,-101.69 256.81,-88.94 273.69,-79.22"/>
<polygon fill="#63b8ff" stroke="#63b8ff" points="275.53,-82.19 282.45,-74.17 272.04,-76.13 275.53,-82.19"/>
</a>
</g>
</g>
<!-- Node21&#45;&gt;Node8 -->
<g id="edge41_Node000021_Node000008" class="edge">
<title>Node21&#45;&gt;Node8</title>
<g id="a_edge41_Node000021_Node000008"><a xlink:title=" ">
<path fill="none" stroke="#63b8ff" d="M231.71,-112.72C236.3,-111.77 241.03,-110.82 245.5,-110 334.15,-93.67 439.04,-78.31 493.5,-70.62"/>
<polygon fill="#63b8ff" stroke="#63b8ff" points="494.28,-74.04 503.7,-69.19 493.31,-67.11 494.28,-74.04"/>
</a>
</g>
</g>
<!-- Node22&#45;&gt;Node3 -->
<g id="edge51_Node000022_Node000003" class="edge">
<title>Node22&#45;&gt;Node3</title>
<g id="a_edge51_Node000022_Node000003"><a xlink:title=" ">
<path fill="none" stroke="#63b8ff" d="M644.22,-168.58C668.51,-163.14 700.43,-151.91 718.5,-129 741.33,-100.06 741.68,-54.53 739.72,-29.16"/>
<polygon fill="#63b8ff" stroke="#63b8ff" points="743.18,-28.66 738.72,-19.05 736.22,-29.34 743.18,-28.66"/>
</a>
</g>
</g>
<!-- Node22&#45;&gt;Node4 -->
<g id="edge52_Node000022_Node000004" class="edge">
<title>Node22&#45;&gt;Node4</title>
<g id="a_edge52_Node000022_Node000004"><a xlink:title=" ">
<path fill="none" stroke="#63b8ff" d="M615.36,-164.66C621.83,-150.88 636.2,-124.35 656.5,-110 693.56,-83.81 745.7,-72.97 779.55,-68.53"/>
<polygon fill="#63b8ff" stroke="#63b8ff" points="780.34,-71.96 789.85,-67.3 779.51,-65.01 780.34,-71.96"/>
</a>
</g>
</g>
<!-- Node22&#45;&gt;Node8 -->
<g id="edge46_Node000022_Node000008" class="edge">
<title>Node22&#45;&gt;Node8</title>
<g id="a_edge46_Node000022_Node000008"><a xlink:title=" ">
<path fill="none" stroke="#63b8ff" d="M578.99,-168.53C539.01,-161.68 474.7,-147.99 460.5,-129 445.43,-108.84 473.55,-90.04 498.52,-78.21"/>
<polygon fill="#63b8ff" stroke="#63b8ff" points="500.15,-81.32 507.84,-74.03 497.28,-74.93 500.15,-81.32"/>
</a>
</g>
</g>
<!-- Node23 -->
<g id="Node000023" class="node">
<title>Node23</title>
<g id="a_Node000023"><a xlink:href="AminoAcidType_8h.html" target="_top" xlink:title=" ">
<polygon fill="white" stroke="#666666" points="571,-129 470,-129 470,-110 571,-110 571,-129"/>
<text text-anchor="middle" x="520.5" y="-117" font-family="Helvetica,sans-Serif" font-size="10.00">AminoAcidType.h</text>
</a>
</g>
</g>
<!-- Node22&#45;&gt;Node23 -->
<g id="edge47_Node000022_Node000023" class="edge">
<title>Node22&#45;&gt;Node23</title>
<g id="a_edge47_Node000022_Node000023"><a xlink:title=" ">
<path fill="none" stroke="#63b8ff" d="M596.88,-164.98C582.64,-156.69 560.75,-143.94 544.05,-134.22"/>
<polygon fill="#63b8ff" stroke="#63b8ff" points="545.79,-131.18 535.39,-129.17 542.27,-137.23 545.79,-131.18"/>
</a>
</g>
</g>
<!-- Node24 -->
<g id="Node000024" class="node">
<title>Node24</title>
<g id="a_Node000024"><a xlink:title=" ">
<polygon fill="#e0e0e0" stroke="#999999" points="709.5,-129 665.5,-129 665.5,-110 709.5,-110 709.5,-129"/>
<text text-anchor="middle" x="687.5" y="-117" font-family="Helvetica,sans-Serif" font-size="10.00">limits</text>
</a>
</g>
</g>
<!-- Node22&#45;&gt;Node24 -->
<g id="edge53_Node000022_Node000024" class="edge">
<title>Node22&#45;&gt;Node24</title>
<g id="a_edge53_Node000022_Node000024"><a xlink:title=" ">
<path fill="none" stroke="#63b8ff" d="M623.71,-164.98C635.28,-156.92 652.88,-144.65 666.66,-135.03"/>
<polygon fill="#63b8ff" stroke="#63b8ff" points="668.87,-137.76 675.07,-129.17 664.86,-132.02 668.87,-137.76"/>
</a>
</g>
</g>
<!-- Node23&#45;&gt;Node3 -->
<g id="edge49_Node000023_Node000003" class="edge">
<title>Node23&#45;&gt;Node3</title>
<g id="a_edge49_Node000023_Node000003"><a xlink:title=" ">
<path fill="none" stroke="#63b8ff" d="M537.89,-109.84C575.84,-90.96 666.26,-45.96 711.21,-23.59"/>
<polygon fill="#63b8ff" stroke="#63b8ff" points="712.93,-26.64 720.33,-19.05 709.82,-20.37 712.93,-26.64"/>
</a>
</g>
</g>
<!-- Node23&#45;&gt;Node4 -->
<g id="edge50_Node000023_Node000004" class="edge">
<title>Node23&#45;&gt;Node4</title>
<g id="a_edge50_Node000023_Node000004"><a xlink:title=" ">
<path fill="none" stroke="#63b8ff" d="M567.58,-109.98C626.9,-99.25 727.41,-81.07 779.67,-71.62"/>
<polygon fill="#63b8ff" stroke="#63b8ff" points="780.54,-75.02 789.76,-69.8 779.29,-68.13 780.54,-75.02"/>
</a>
</g>
</g>
<!-- Node23&#45;&gt;Node8 -->
<g id="edge48_Node000023_Node000008" class="edge">
<title>Node23&#45;&gt;Node8</title>
<g id="a_edge48_Node000023_Node000008"><a xlink:title=" ">
<path fill="none" stroke="#63b8ff" d="M522.15,-109.75C523.46,-102.8 525.34,-92.85 526.98,-84.13"/>
<polygon fill="#63b8ff" stroke="#63b8ff" points="530.46,-84.56 528.88,-74.09 523.59,-83.27 530.46,-84.56"/>
</a>
</g>
</g>
<!-- Node25&#45;&gt;Node4 -->
<g id="edge56_Node000025_Node000004" class="edge">
<title>Node25&#45;&gt;Node4</title>
<g id="a_edge56_Node000025_Node000004"><a xlink:title=" ">
<path fill="none" stroke="#63b8ff" d="M413.81,-115.34C486.74,-106.25 697.35,-79.98 779.82,-69.7"/>
<polygon fill="#63b8ff" stroke="#63b8ff" points="780.41,-73.15 789.9,-68.44 779.55,-66.21 780.41,-73.15"/>
</a>
</g>
</g>
<!-- Node25&#45;&gt;Node8 -->
<g id="edge55_Node000025_Node000008" class="edge">
<title>Node25&#45;&gt;Node8</title>
<g id="a_edge55_Node000025_Node000008"><a xlink:title=" ">
<path fill="none" stroke="#63b8ff" d="M411.31,-109.98C434.67,-101.27 471.2,-87.63 497.67,-77.75"/>
<polygon fill="#63b8ff" stroke="#63b8ff" points="499.13,-80.95 507.27,-74.17 496.68,-74.39 499.13,-80.95"/>
</a>
</g>
</g>
<!-- Node26&#45;&gt;Node4 -->
<g id="edge61_Node000026_Node000004" class="edge">
<title>Node26&#45;&gt;Node4</title>
<g id="a_edge61_Node000026_Node000004"><a xlink:title=" ">
<path fill="none" stroke="#63b8ff" d="M430.93,-164.93C469.85,-156.77 528.96,-143.58 579.5,-129 604.35,-121.83 609.7,-117.35 634.5,-110 684.66,-95.13 743.7,-81.12 779.86,-72.92"/>
<polygon fill="#63b8ff" stroke="#63b8ff" points="780.88,-76.28 789.86,-70.67 779.34,-69.45 780.88,-76.28"/>
</a>
</g>
</g>
<!-- Node26&#45;&gt;Node6 -->
<g id="edge62_Node000026_Node000006" class="edge">
<title>Node26&#45;&gt;Node6</title>
<g id="a_edge62_Node000026_Node000006"><a xlink:title=" ">
<path fill="none" stroke="#63b8ff" d="M369.36,-164.9C354.49,-157.34 334.29,-145.05 321.5,-129 311.06,-115.9 304.81,-97.76 301.32,-84.22"/>
<polygon fill="#63b8ff" stroke="#63b8ff" points="304.66,-83.11 299.01,-74.15 297.83,-84.68 304.66,-83.11"/>
</a>
</g>
</g>
<!-- Node26&#45;&gt;Node8 -->
<g id="edge59_Node000026_Node000008" class="edge">
<title>Node26&#45;&gt;Node8</title>
<g id="a_edge59_Node000026_Node000008"><a xlink:title=" ">
<path fill="none" stroke="#63b8ff" d="M377.63,-164.73C363.1,-151.94 340.67,-127.76 354.5,-110 371.42,-88.27 447.28,-75.47 493.7,-69.53"/>
<polygon fill="#63b8ff" stroke="#63b8ff" points="494.2,-73 503.7,-68.3 493.34,-66.05 494.2,-73"/>
</a>
</g>
</g>
<!-- Node26&#45;&gt;Node25 -->
<g id="edge60_Node000026_Node000025" class="edge">
<title>Node26&#45;&gt;Node25</title>
<g id="a_edge60_Node000026_Node000025"><a xlink:title=" ">
<path fill="none" stroke="#63b8ff" d="M388.5,-164.75C388.5,-157.8 388.5,-147.85 388.5,-139.13"/>
<polygon fill="#63b8ff" stroke="#63b8ff" points="392,-139.09 388.5,-129.09 385,-139.09 392,-139.09"/>
</a>
</g>
</g>
<!-- Node27&#45;&gt;Node3 -->
<g id="edge64_Node000027_Node000003" class="edge">
<title>Node27&#45;&gt;Node3</title>
<g id="a_edge64_Node000027_Node000003"><a xlink:title=" ">
<path fill="none" stroke="#63b8ff" d="M79.47,-109.93C110.08,-95.76 174.67,-67.77 232.5,-55 430.59,-11.27 486.2,-44.02 687.5,-19 693.18,-18.29 699.2,-17.4 705.02,-16.46"/>
<polygon fill="#63b8ff" stroke="#63b8ff" points="705.89,-19.86 715.16,-14.74 704.72,-12.96 705.89,-19.86"/>
</a>
</g>
</g>
<!-- Node27&#45;&gt;Node4 -->
<g id="edge65_Node000027_Node000004" class="edge">
<title>Node27&#45;&gt;Node4</title>
<g id="a_edge65_Node000027_Node000004"><a xlink:title=" ">
<path fill="none" stroke="#63b8ff" d="M123.17,-113.6C138.62,-112.39 155.17,-111.13 170.5,-110 403.41,-92.86 683.92,-74.09 779.62,-67.74"/>
<polygon fill="#63b8ff" stroke="#63b8ff" points="780.1,-71.22 789.85,-67.06 779.64,-64.23 780.1,-71.22"/>
</a>
</g>
</g>
<!-- Node27&#45;&gt;Node6 -->
<g id="edge66_Node000027_Node000006" class="edge">
<title>Node27&#45;&gt;Node6</title>
<g id="a_edge66_Node000027_Node000006"><a xlink:title=" ">
<path fill="none" stroke="#63b8ff" d="M99.42,-109.98C143.06,-100.18 214.36,-84.17 258.46,-74.27"/>
<polygon fill="#63b8ff" stroke="#63b8ff" points="259.26,-77.68 268.25,-72.07 257.73,-70.85 259.26,-77.68"/>
</a>
</g>
</g>
<!-- Node27&#45;&gt;Node11 -->
<g id="edge67_Node000027_Node000011" class="edge">
<title>Node27&#45;&gt;Node11</title>
<g id="a_edge67_Node000027_Node000011"><a xlink:title=" ">
<path fill="none" stroke="#63b8ff" d="M69.48,-109.93C82.4,-96.52 109.2,-70.49 136.5,-55 167.22,-37.56 205.9,-25.41 233.05,-18.26"/>
<polygon fill="#63b8ff" stroke="#63b8ff" points="234.02,-21.63 242.85,-15.77 232.3,-14.84 234.02,-21.63"/>
</a>
</g>
</g>
</g>
</svg>
