<?xml version="1.0" encoding="UTF-8" standalone="no"?>
<!DOCTYPE svg PUBLIC "-//W3C//DTD SVG 1.1//EN"
 "http://www.w3.org/Graphics/SVG/1.1/DTD/svg11.dtd">
<!-- Generated by graphviz version 2.43.0 (0)
 -->
<!-- Title: nmr::RunOptions Pages: 1 -->
<svg width="146pt" height="228pt"
 viewBox="0.00 0.00 146.00 228.00" xmlns="http://www.w3.org/2000/svg" xmlns:xlink="http://www.w3.org/1999/xlink">
<g id="graph0" class="graph" transform="scale(1 1) rotate(0) translate(4 224)">
<title>nmr::RunOptions</title>
<!-- Node1 -->
<g id="Node000001" class="node">
<title>Node1</title>
<g id="a_Node000001"><a xlink:title=" ">
<polygon fill="#999999" stroke="transparent" points="103,-79 9,-79 9,0 103,0 103,-79"/>
<text text-anchor="start" x="15" y="-66.5" font-family="Helvetica,sans-Serif" font-size="10.00">nmr::RunOptions</text>
<text text-anchor="start" x="13" y="-51.5" font-family="Helvetica,sans-Serif" font-size="10.00">+</text>
<text text-anchor="start" x="26" y="-51.5" font-family="Helvetica,sans-Serif" font-size="10.00">net_charge</text>
<text text-anchor="start" x="13" y="-36.5" font-family="Helvetica,sans-Serif" font-size="10.00">+</text>
<text text-anchor="start" x="26" y="-36.5" font-family="Helvetica,sans-Serif" font-size="10.00">skip_dssp</text>
<text text-anchor="start" x="13" y="-21.5" font-family="Helvetica,sans-Serif" font-size="10.00">+</text>
<text text-anchor="start" x="26" y="-21.5" font-family="Helvetica,sans-Serif" font-size="10.00">orca_nmr_path</text>
<text text-anchor="start" x="54" y="-6.5" font-family="Helvetica,sans-Serif" font-size="10.00"> </text>
<polygon fill="#666666" stroke="#666666" points="9,-61.5 9,-61.5 103,-61.5 103,-61.5 9,-61.5"/>
<polygon fill="#666666" stroke="#666666" points="9,-16.5 9,-16.5 24,-16.5 24,-16.5 9,-16.5"/>
<polygon fill="#666666" stroke="#666666" points="24,-16.5 24,-16.5 103,-16.5 103,-16.5 24,-16.5"/>
<polygon fill="none" stroke="#666666" points="9,0 9,-79 103,-79 103,0 9,0"/>
</a>
</g>
</g>
<!-- Node2 -->
<g id="Node000002" class="node">
<title>Node2</title>
<g id="a_Node000002"><a xlink:href="classnmr_1_1ChargeSource.html" target="_top" xlink:title=" ">
<polygon fill="white" stroke="transparent" points="112,-220 0,-220 0,-126 112,-126 112,-220"/>
<text text-anchor="start" x="9" y="-208" font-family="Helvetica,sans-Serif" font-size="10.00">nmr::ChargeSource</text>
<text text-anchor="start" x="54" y="-193" font-family="Helvetica,sans-Serif" font-size="10.00"> </text>
<text text-anchor="start" x="4" y="-178" font-family="Helvetica,sans-Serif" font-size="10.00">+</text>
<text text-anchor="start" x="17" y="-178" font-family="Helvetica,sans-Serif" font-size="10.00">~ChargeSource()</text>
<text text-anchor="start" x="4" y="-163" font-family="Helvetica,sans-Serif" font-size="10.00">+</text>
<text text-anchor="start" x="17" y="-163" font-family="Helvetica,sans-Serif" font-size="10.00">SourceForceField()</text>
<text text-anchor="start" x="4" y="-148" font-family="Helvetica,sans-Serif" font-size="10.00">+</text>
<text text-anchor="start" x="17" y="-148" font-family="Helvetica,sans-Serif" font-size="10.00">Describe()</text>
<text text-anchor="start" x="4" y="-133" font-family="Helvetica,sans-Serif" font-size="10.00">+</text>
<text text-anchor="start" x="17" y="-133" font-family="Helvetica,sans-Serif" font-size="10.00">LoadCharges()</text>
<polygon fill="#666666" stroke="#666666" points="0,-203 0,-203 112,-203 112,-203 0,-203"/>
<polygon fill="#666666" stroke="#666666" points="0,-188 0,-188 112,-188 112,-188 0,-188"/>
<polygon fill="none" stroke="#666666" points="0,-126 0,-220 112,-220 112,-126 0,-126"/>
</a>
</g>
</g>
<!-- Node2&#45;&gt;Node1 -->
<g id="edge1_Node000001_Node000002" class="edge">
<title>Node2&#45;&gt;Node1</title>
<g id="a_edge1_Node000001_Node000002"><a xlink:title=" ">
<path fill="none" stroke="#63b8ff" d="M56,-125.64C56,-114.45 56,-102.44 56,-91.07"/>
<polygon fill="none" stroke="#63b8ff" points="56,-91.06 52,-85.06 56,-79.06 60,-85.06 56,-91.06"/>
</a>
</g>
<text text-anchor="middle" x="97" y="-100" font-family="Helvetica,sans-Serif" font-size="10.00" fill="grey"> +charge_source</text>
</g>
</g>
</svg>
