<?xml version="1.0" encoding="UTF-8" standalone="no"?>
<!DOCTYPE svg PUBLIC "-//W3C//DTD SVG 1.1//EN"
 "http://www.w3.org/Graphics/SVG/1.1/DTD/svg11.dtd">
<!-- Generated by graphviz version 2.43.0 (0)
 -->
<!-- Title: nmr::GeometryEntity Pages: 1 -->
<svg width="417pt" height="752pt"
 viewBox="0.00 0.00 417.00 752.00" xmlns="http://www.w3.org/2000/svg" xmlns:xlink="http://www.w3.org/1999/xlink">
<g id="graph0" class="graph" transform="scale(1 1) rotate(0) translate(4 748)">
<title>nmr::GeometryEntity</title>
<!-- Node1 -->
<g id="Node000001" class="node">
<title>Node1</title>
<g id="a_Node000001"><a xlink:title=" ">
<polygon fill="#999999" stroke="transparent" points="280,-94 167,-94 167,0 280,0 280,-94"/>
<text text-anchor="start" x="172.5" y="-82" font-family="Helvetica,sans-Serif" font-size="10.00">nmr::GeometryEntity</text>
<text text-anchor="start" x="180" y="-67" font-family="Helvetica,sans-Serif" font-size="10.00">+</text>
<text text-anchor="start" x="201.5" y="-67" font-family="Helvetica,sans-Serif" font-size="10.00">atom_index</text>
<text text-anchor="start" x="180" y="-52" font-family="Helvetica,sans-Serif" font-size="10.00">+</text>
<text text-anchor="start" x="201.5" y="-52" font-family="Helvetica,sans-Serif" font-size="10.00">role</text>
<text text-anchor="start" x="180" y="-37" font-family="Helvetica,sans-Serif" font-size="10.00">+</text>
<text text-anchor="start" x="201.5" y="-37" font-family="Helvetica,sans-Serif" font-size="10.00">outcome</text>
<text text-anchor="start" x="180" y="-22" font-family="Helvetica,sans-Serif" font-size="10.00">+</text>
<text text-anchor="start" x="201.5" y="-22" font-family="Helvetica,sans-Serif" font-size="10.00">filter_name</text>
<text text-anchor="start" x="222" y="-7" font-family="Helvetica,sans-Serif" font-size="10.00"> </text>
<polygon fill="#666666" stroke="#666666" points="167.5,-77 167.5,-77 280.5,-77 280.5,-77 167.5,-77"/>
<polygon fill="#666666" stroke="#666666" points="167.5,-17 167.5,-17 199.5,-17 199.5,-17 167.5,-17"/>
<polygon fill="#666666" stroke="#666666" points="199.5,-17 199.5,-17 280.5,-17 280.5,-17 199.5,-17"/>
<polygon fill="none" stroke="#666666" points="167,0 167,-94 280,-94 280,0 167,0"/>
</a>
</g>
</g>
<!-- Node2 -->
<g id="Node000002" class="node">
<title>Node2</title>
<g id="a_Node000002"><a xlink:href="classnmr_1_1ConformationAtom.html" target="_top" xlink:title=" ">
<polygon fill="white" stroke="transparent" points="137,-385 0,-385 0,-156 137,-156 137,-385"/>
<text text-anchor="start" x="9.5" y="-372.5" font-family="Helvetica,sans-Serif" font-size="10.00">nmr::ConformationAtom</text>
<text text-anchor="start" x="4.5" y="-357.5" font-family="Helvetica,sans-Serif" font-size="10.00">+</text>
<text text-anchor="start" x="17.5" y="-357.5" font-family="Helvetica,sans-Serif" font-size="10.00">role</text>
<text text-anchor="start" x="4.5" y="-342.5" font-family="Helvetica,sans-Serif" font-size="10.00">+</text>
<text text-anchor="start" x="17.5" y="-342.5" font-family="Helvetica,sans-Serif" font-size="10.00">hybridisation</text>
<text text-anchor="start" x="4.5" y="-327.5" font-family="Helvetica,sans-Serif" font-size="10.00">+</text>
<text text-anchor="start" x="17.5" y="-327.5" font-family="Helvetica,sans-Serif" font-size="10.00">is_backbone</text>
<text text-anchor="start" x="4.5" y="-312.5" font-family="Helvetica,sans-Serif" font-size="10.00">+</text>
<text text-anchor="start" x="17.5" y="-312.5" font-family="Helvetica,sans-Serif" font-size="10.00">is_amide_H</text>
<text text-anchor="start" x="4.5" y="-297.5" font-family="Helvetica,sans-Serif" font-size="10.00">+</text>
<text text-anchor="start" x="17.5" y="-297.5" font-family="Helvetica,sans-Serif" font-size="10.00">is_alpha_H</text>
<text text-anchor="start" x="4.5" y="-282.5" font-family="Helvetica,sans-Serif" font-size="10.00">+</text>
<text text-anchor="start" x="17.5" y="-282.5" font-family="Helvetica,sans-Serif" font-size="10.00">is_methyl</text>
<text text-anchor="start" x="4.5" y="-267.5" font-family="Helvetica,sans-Serif" font-size="10.00">+</text>
<text text-anchor="start" x="17.5" y="-267.5" font-family="Helvetica,sans-Serif" font-size="10.00">is_aromatic_H</text>
<text text-anchor="start" x="4.5" y="-252.5" font-family="Helvetica,sans-Serif" font-size="10.00">+</text>
<text text-anchor="start" x="17.5" y="-252.5" font-family="Helvetica,sans-Serif" font-size="10.00">is_on_aromatic_residue</text>
<text text-anchor="start" x="4.5" y="-237.5" font-family="Helvetica,sans-Serif" font-size="10.00">+</text>
<text text-anchor="start" x="17.5" y="-237.5" font-family="Helvetica,sans-Serif" font-size="10.00">is_hbond_donor</text>
<text text-anchor="start" x="4.5" y="-222.5" font-family="Helvetica,sans-Serif" font-size="10.00">+</text>
<text text-anchor="start" x="17.5" y="-222.5" font-family="Helvetica,sans-Serif" font-size="10.00">is_hbond_acceptor</text>
<text text-anchor="start" x="17.5" y="-207.5" font-family="Helvetica,sans-Serif" font-size="10.00">and 129 more...</text>
<text text-anchor="start" x="7" y="-192.5" font-family="Helvetica,sans-Serif" font-size="10.00">&#45;</text>
<text text-anchor="start" x="17.5" y="-192.5" font-family="Helvetica,sans-Serif" font-size="10.00">position_</text>
<text text-anchor="start" x="4.5" y="-177.5" font-family="Helvetica,sans-Serif" font-size="10.00">+</text>
<text text-anchor="start" x="17.5" y="-177.5" font-family="Helvetica,sans-Serif" font-size="10.00">Position()</text>
<text text-anchor="start" x="7" y="-162.5" font-family="Helvetica,sans-Serif" font-size="10.00">&#45;</text>
<text text-anchor="start" x="17.5" y="-162.5" font-family="Helvetica,sans-Serif" font-size="10.00">ConformationAtom()</text>
<polygon fill="#666666" stroke="#666666" points="0.5,-367.5 0.5,-367.5 137.5,-367.5 137.5,-367.5 0.5,-367.5"/>
<polygon fill="#666666" stroke="#666666" points="0.5,-187.5 0.5,-187.5 15.5,-187.5 15.5,-187.5 0.5,-187.5"/>
<polygon fill="#666666" stroke="#666666" points="15.5,-187.5 15.5,-187.5 137.5,-187.5 137.5,-187.5 15.5,-187.5"/>
<polygon fill="none" stroke="#666666" points="0,-156 0,-385 137,-385 137,-156 0,-156"/>
</a>
</g>
</g>
<!-- Node2&#45;&gt;Node1 -->
<g id="edge1_Node000001_Node000002" class="edge">
<title>Node2&#45;&gt;Node1</title>
<g id="a_edge1_Node000001_Node000002"><a xlink:title=" ">
<path fill="none" stroke="#63b8ff" d="M135.35,-155.7C138.71,-150.69 142.11,-145.77 145.5,-141 154.37,-128.54 164.49,-115.67 174.42,-103.62"/>
<polygon fill="none" stroke="#63b8ff" points="174.63,-103.37 175.41,-96.2 182.33,-94.16 181.55,-101.33 174.63,-103.37"/>
</a>
</g>
<text text-anchor="middle" x="185" y="-115" font-family="Helvetica,sans-Serif" font-size="10.00" fill="grey"> +atom</text>
</g>
<!-- Node3 -->
<g id="Node000003" class="node">
<title>Node3</title>
<g id="a_Node000003"><a xlink:href="structnmr_1_1SphericalTensor.html" target="_top" xlink:title=" ">
<polygon fill="white" stroke="transparent" points="132,-744 5,-744 5,-590 132,-590 132,-744"/>
<text text-anchor="start" x="17.5" y="-732" font-family="Helvetica,sans-Serif" font-size="10.00">nmr::SphericalTensor</text>
<text text-anchor="start" x="9.5" y="-717" font-family="Helvetica,sans-Serif" font-size="10.00">+</text>
<text text-anchor="start" x="22.5" y="-717" font-family="Helvetica,sans-Serif" font-size="10.00">T0</text>
<text text-anchor="start" x="9.5" y="-702" font-family="Helvetica,sans-Serif" font-size="10.00">+</text>
<text text-anchor="start" x="22.5" y="-702" font-family="Helvetica,sans-Serif" font-size="10.00">T1</text>
<text text-anchor="start" x="9.5" y="-687" font-family="Helvetica,sans-Serif" font-size="10.00">+</text>
<text text-anchor="start" x="22.5" y="-687" font-family="Helvetica,sans-Serif" font-size="10.00">T2</text>
<text text-anchor="start" x="9.5" y="-672" font-family="Helvetica,sans-Serif" font-size="10.00">+</text>
<text text-anchor="start" x="22.5" y="-672" font-family="Helvetica,sans-Serif" font-size="10.00">Isotropic()</text>
<text text-anchor="start" x="9.5" y="-657" font-family="Helvetica,sans-Serif" font-size="10.00">+</text>
<text text-anchor="start" x="22.5" y="-657" font-family="Helvetica,sans-Serif" font-size="10.00">Antisymmetric()</text>
<text text-anchor="start" x="9.5" y="-642" font-family="Helvetica,sans-Serif" font-size="10.00">+</text>
<text text-anchor="start" x="22.5" y="-642" font-family="Helvetica,sans-Serif" font-size="10.00">TracelessSymmetric()</text>
<text text-anchor="start" x="9.5" y="-627" font-family="Helvetica,sans-Serif" font-size="10.00">+</text>
<text text-anchor="start" x="22.5" y="-627" font-family="Helvetica,sans-Serif" font-size="10.00">Reconstruct()</text>
<text text-anchor="start" x="9.5" y="-612" font-family="Helvetica,sans-Serif" font-size="10.00">+</text>
<text text-anchor="start" x="22.5" y="-612" font-family="Helvetica,sans-Serif" font-size="10.00">T2Magnitude()</text>
<text text-anchor="start" x="9.5" y="-597" font-family="Helvetica,sans-Serif" font-size="10.00">+</text>
<text text-anchor="start" x="22.5" y="-597" font-family="Helvetica,sans-Serif" font-size="10.00">Decompose()</text>
<polygon fill="#666666" stroke="#666666" points="5.5,-727 5.5,-727 132.5,-727 132.5,-727 5.5,-727"/>
<polygon fill="#666666" stroke="#666666" points="5.5,-682 5.5,-682 20.5,-682 20.5,-682 5.5,-682"/>
<polygon fill="#666666" stroke="#666666" points="20.5,-682 20.5,-682 132.5,-682 132.5,-682 20.5,-682"/>
<polygon fill="none" stroke="#666666" points="5,-590 5,-744 132,-744 132,-590 5,-590"/>
</a>
</g>
</g>
<!-- Node3&#45;&gt;Node2 -->
<g id="edge2_Node000002_Node000003" class="edge">
<title>Node3&#45;&gt;Node2</title>
<g id="a_edge2_Node000002_Node000003"><a xlink:title=" ">
<path fill="none" stroke="#63b8ff" d="M68.5,-589.94C68.5,-535.35 68.5,-460.55 68.5,-397.17"/>
<polygon fill="none" stroke="#63b8ff" points="68.5,-397.06 64.5,-391.06 68.5,-385.06 72.5,-391.06 68.5,-397.06"/>
</a>
</g>
<text text-anchor="middle" x="135" y="-564" font-family="Helvetica,sans-Serif" font-size="10.00" fill="grey"> +T2_CN_nearest</text>
<text text-anchor="middle" x="135" y="-553" font-family="Helvetica,sans-Serif" font-size="10.00" fill="grey">+T2_CO_nearest</text>
<text text-anchor="middle" x="135" y="-542" font-family="Helvetica,sans-Serif" font-size="10.00" fill="grey">+T2_aromatic_total</text>
<text text-anchor="middle" x="135" y="-531" font-family="Helvetica,sans-Serif" font-size="10.00" fill="grey">+T2_backbone_total</text>
<text text-anchor="middle" x="135" y="-520" font-family="Helvetica,sans-Serif" font-size="10.00" fill="grey">+T2_sidechain_total</text>
<text text-anchor="middle" x="135" y="-509" font-family="Helvetica,sans-Serif" font-size="10.00" fill="grey">+apbs_efg_spherical</text>
<text text-anchor="middle" x="135" y="-498" font-family="Helvetica,sans-Serif" font-size="10.00" fill="grey">+bs_shielding_contribution</text>
<text text-anchor="start" x="68.5" y="-487" font-family="Helvetica,sans-Serif" font-size="10.00" fill="grey">+correction_predicted</text>
<text text-anchor="middle" x="135" y="-476" font-family="Helvetica,sans-Serif" font-size="10.00" fill="grey">_delta</text>
<text text-anchor="start" x="68.5" y="-465" font-family="Helvetica,sans-Serif" font-size="10.00" fill="grey">+coulomb_EFG_aromatic</text>
<text text-anchor="middle" x="135" y="-454" font-family="Helvetica,sans-Serif" font-size="10.00" fill="grey">_spherical</text>
<text text-anchor="start" x="68.5" y="-443" font-family="Helvetica,sans-Serif" font-size="10.00" fill="grey">+coulomb_EFG_backbone</text>
<text text-anchor="middle" x="135" y="-432" font-family="Helvetica,sans-Serif" font-size="10.00" fill="grey">_spherical</text>
<text text-anchor="middle" x="135" y="-421" font-family="Helvetica,sans-Serif" font-size="10.00" fill="grey">...</text>
</g>
<!-- Node4 -->
<g id="Node000004" class="node">
<title>Node4</title>
<g id="a_Node000004"><a xlink:href="classnmr_1_1Ring.html" target="_top" xlink:title=" ">
<polygon fill="white" stroke="transparent" points="292,-400 155,-400 155,-141 292,-141 292,-400"/>
<text text-anchor="start" x="200" y="-387.5" font-family="Helvetica,sans-Serif" font-size="10.00">nmr::Ring</text>
<text text-anchor="start" x="159.5" y="-372.5" font-family="Helvetica,sans-Serif" font-size="10.00">+</text>
<text text-anchor="start" x="172.5" y="-372.5" font-family="Helvetica,sans-Serif" font-size="10.00">atom_indices</text>
<text text-anchor="start" x="159.5" y="-357.5" font-family="Helvetica,sans-Serif" font-size="10.00">+</text>
<text text-anchor="start" x="172.5" y="-357.5" font-family="Helvetica,sans-Serif" font-size="10.00">type_index</text>
<text text-anchor="start" x="159.5" y="-342.5" font-family="Helvetica,sans-Serif" font-size="10.00">+</text>
<text text-anchor="start" x="172.5" y="-342.5" font-family="Helvetica,sans-Serif" font-size="10.00">parent_residue_index</text>
<text text-anchor="start" x="159.5" y="-327.5" font-family="Helvetica,sans-Serif" font-size="10.00">+</text>
<text text-anchor="start" x="172.5" y="-327.5" font-family="Helvetica,sans-Serif" font-size="10.00">parent_residue_number</text>
<text text-anchor="start" x="159.5" y="-312.5" font-family="Helvetica,sans-Serif" font-size="10.00">+</text>
<text text-anchor="start" x="172.5" y="-312.5" font-family="Helvetica,sans-Serif" font-size="10.00">fused_partner_index</text>
<text text-anchor="start" x="159.5" y="-297.5" font-family="Helvetica,sans-Serif" font-size="10.00">+</text>
<text text-anchor="start" x="172.5" y="-297.5" font-family="Helvetica,sans-Serif" font-size="10.00">~Ring()</text>
<text text-anchor="start" x="159.5" y="-282.5" font-family="Helvetica,sans-Serif" font-size="10.00">+</text>
<text text-anchor="start" x="172.5" y="-282.5" font-family="Helvetica,sans-Serif" font-size="10.00">Intensity()</text>
<text text-anchor="start" x="159.5" y="-267.5" font-family="Helvetica,sans-Serif" font-size="10.00">+</text>
<text text-anchor="start" x="172.5" y="-267.5" font-family="Helvetica,sans-Serif" font-size="10.00">LiteratureIntensity()</text>
<text text-anchor="start" x="159.5" y="-252.5" font-family="Helvetica,sans-Serif" font-size="10.00">+</text>
<text text-anchor="start" x="172.5" y="-252.5" font-family="Helvetica,sans-Serif" font-size="10.00">JBLobeOffset()</text>
<text text-anchor="start" x="159.5" y="-237.5" font-family="Helvetica,sans-Serif" font-size="10.00">+</text>
<text text-anchor="start" x="172.5" y="-237.5" font-family="Helvetica,sans-Serif" font-size="10.00">NitrogenCount()</text>
<text text-anchor="start" x="159.5" y="-222.5" font-family="Helvetica,sans-Serif" font-size="10.00">+</text>
<text text-anchor="start" x="172.5" y="-222.5" font-family="Helvetica,sans-Serif" font-size="10.00">Aromaticity()</text>
<text text-anchor="start" x="159.5" y="-207.5" font-family="Helvetica,sans-Serif" font-size="10.00">+</text>
<text text-anchor="start" x="172.5" y="-207.5" font-family="Helvetica,sans-Serif" font-size="10.00">RingSizeValue()</text>
<text text-anchor="start" x="159.5" y="-192.5" font-family="Helvetica,sans-Serif" font-size="10.00">+</text>
<text text-anchor="start" x="172.5" y="-192.5" font-family="Helvetica,sans-Serif" font-size="10.00">TypeName()</text>
<text text-anchor="start" x="159.5" y="-177.5" font-family="Helvetica,sans-Serif" font-size="10.00">+</text>
<text text-anchor="start" x="172.5" y="-177.5" font-family="Helvetica,sans-Serif" font-size="10.00">IsFused()</text>
<text text-anchor="start" x="159.5" y="-162.5" font-family="Helvetica,sans-Serif" font-size="10.00">+</text>
<text text-anchor="start" x="172.5" y="-162.5" font-family="Helvetica,sans-Serif" font-size="10.00">TypeIndexAsInt()</text>
<text text-anchor="start" x="159.5" y="-147.5" font-family="Helvetica,sans-Serif" font-size="10.00">+</text>
<text text-anchor="start" x="172.5" y="-147.5" font-family="Helvetica,sans-Serif" font-size="10.00">ComputeGeometry()</text>
<polygon fill="#666666" stroke="#666666" points="155.5,-382.5 155.5,-382.5 292.5,-382.5 292.5,-382.5 155.5,-382.5"/>
<polygon fill="#666666" stroke="#666666" points="155.5,-307.5 155.5,-307.5 170.5,-307.5 170.5,-307.5 155.5,-307.5"/>
<polygon fill="#666666" stroke="#666666" points="170.5,-307.5 170.5,-307.5 292.5,-307.5 292.5,-307.5 170.5,-307.5"/>
<polygon fill="none" stroke="#666666" points="155,-141 155,-400 292,-400 292,-141 155,-141"/>
</a>
</g>
</g>
<!-- Node4&#45;&gt;Node1 -->
<g id="edge3_Node000001_Node000004" class="edge">
<title>Node4&#45;&gt;Node1</title>
<g id="a_edge3_Node000001_Node000004"><a xlink:title=" ">
<path fill="none" stroke="#63b8ff" d="M223.5,-140.97C223.5,-129.04 223.5,-117.39 223.5,-106.59"/>
<polygon fill="none" stroke="#63b8ff" points="223.5,-106.35 219.5,-100.35 223.5,-94.35 227.5,-100.35 223.5,-106.35"/>
</a>
</g>
<text text-anchor="middle" x="239" y="-115" font-family="Helvetica,sans-Serif" font-size="10.00" fill="grey"> +ring</text>
</g>
<!-- Node5 -->
<g id="Node000005" class="node">
<title>Node5</title>
<g id="a_Node000005"><a xlink:href="structnmr_1_1RingAccumulated.html" target="_top" xlink:title=" ">
<polygon fill="white" stroke="transparent" points="289.5,-714 159.5,-714 159.5,-620 289.5,-620 289.5,-714"/>
<text text-anchor="start" x="168.5" y="-702" font-family="Helvetica,sans-Serif" font-size="10.00">nmr::RingAccumulated</text>
<text text-anchor="start" x="163.5" y="-687" font-family="Helvetica,sans-Serif" font-size="10.00">+</text>
<text text-anchor="start" x="176.5" y="-687" font-family="Helvetica,sans-Serif" font-size="10.00">total_B_at_center</text>
<text text-anchor="start" x="163.5" y="-672" font-family="Helvetica,sans-Serif" font-size="10.00">+</text>
<text text-anchor="start" x="176.5" y="-672" font-family="Helvetica,sans-Serif" font-size="10.00">intensity_used</text>
<text text-anchor="start" x="163.5" y="-657" font-family="Helvetica,sans-Serif" font-size="10.00">+</text>
<text text-anchor="start" x="176.5" y="-657" font-family="Helvetica,sans-Serif" font-size="10.00">total_G_T0_diagnostic</text>
<text text-anchor="start" x="163.5" y="-642" font-family="Helvetica,sans-Serif" font-size="10.00">+</text>
<text text-anchor="start" x="176.5" y="-642" font-family="Helvetica,sans-Serif" font-size="10.00">mutual_B_from</text>
<text text-anchor="start" x="222.5" y="-627" font-family="Helvetica,sans-Serif" font-size="10.00"> </text>
<polygon fill="#666666" stroke="#666666" points="159.5,-697 159.5,-697 289.5,-697 289.5,-697 159.5,-697"/>
<polygon fill="#666666" stroke="#666666" points="159.5,-637 159.5,-637 174.5,-637 174.5,-637 159.5,-637"/>
<polygon fill="#666666" stroke="#666666" points="174.5,-637 174.5,-637 289.5,-637 289.5,-637 174.5,-637"/>
<polygon fill="none" stroke="#666666" points="159.5,-620 159.5,-714 289.5,-714 289.5,-620 159.5,-620"/>
</a>
</g>
</g>
<!-- Node5&#45;&gt;Node4 -->
<g id="edge4_Node000004_Node000005" class="edge">
<title>Node5&#45;&gt;Node4</title>
<g id="a_edge4_Node000004_Node000005"><a xlink:title=" ">
<path fill="none" stroke="#63b8ff" d="M224.38,-619.97C224.25,-569.24 224.04,-485.15 223.86,-412.29"/>
<polygon fill="none" stroke="#63b8ff" points="223.86,-412.23 219.84,-406.24 223.83,-400.23 227.84,-406.22 223.86,-412.23"/>
</a>
</g>
<text text-anchor="middle" x="262" y="-492.5" font-family="Helvetica,sans-Serif" font-size="10.00" fill="grey"> +accumulated</text>
</g>
<!-- Node6 -->
<g id="Node000006" class="node">
<title>Node6</title>
<g id="a_Node000006"><a xlink:href="structnmr_1_1Bond.html" target="_top" xlink:title=" ">
<polygon fill="white" stroke="transparent" points="409,-370 310,-370 310,-171 409,-171 409,-370"/>
<text text-anchor="start" x="334.5" y="-357.5" font-family="Helvetica,sans-Serif" font-size="10.00">nmr::Bond</text>
<text text-anchor="start" x="314.5" y="-342.5" font-family="Helvetica,sans-Serif" font-size="10.00">+</text>
<text text-anchor="start" x="327.5" y="-342.5" font-family="Helvetica,sans-Serif" font-size="10.00">atom_index_a</text>
<text text-anchor="start" x="314.5" y="-327.5" font-family="Helvetica,sans-Serif" font-size="10.00">+</text>
<text text-anchor="start" x="327.5" y="-327.5" font-family="Helvetica,sans-Serif" font-size="10.00">atom_index_b</text>
<text text-anchor="start" x="314.5" y="-312.5" font-family="Helvetica,sans-Serif" font-size="10.00">+</text>
<text text-anchor="start" x="327.5" y="-312.5" font-family="Helvetica,sans-Serif" font-size="10.00">order</text>
<text text-anchor="start" x="314.5" y="-297.5" font-family="Helvetica,sans-Serif" font-size="10.00">+</text>
<text text-anchor="start" x="327.5" y="-297.5" font-family="Helvetica,sans-Serif" font-size="10.00">category</text>
<text text-anchor="start" x="314.5" y="-282.5" font-family="Helvetica,sans-Serif" font-size="10.00">+</text>
<text text-anchor="start" x="327.5" y="-282.5" font-family="Helvetica,sans-Serif" font-size="10.00">is_rotatable</text>
<text text-anchor="start" x="314.5" y="-267.5" font-family="Helvetica,sans-Serif" font-size="10.00">+</text>
<text text-anchor="start" x="327.5" y="-267.5" font-family="Helvetica,sans-Serif" font-size="10.00">Midpoint()</text>
<text text-anchor="start" x="314.5" y="-252.5" font-family="Helvetica,sans-Serif" font-size="10.00">+</text>
<text text-anchor="start" x="327.5" y="-252.5" font-family="Helvetica,sans-Serif" font-size="10.00">Length()</text>
<text text-anchor="start" x="314.5" y="-237.5" font-family="Helvetica,sans-Serif" font-size="10.00">+</text>
<text text-anchor="start" x="327.5" y="-237.5" font-family="Helvetica,sans-Serif" font-size="10.00">Direction()</text>
<text text-anchor="start" x="314.5" y="-222.5" font-family="Helvetica,sans-Serif" font-size="10.00">+</text>
<text text-anchor="start" x="327.5" y="-222.5" font-family="Helvetica,sans-Serif" font-size="10.00">IsPeptideBond()</text>
<text text-anchor="start" x="314.5" y="-207.5" font-family="Helvetica,sans-Serif" font-size="10.00">+</text>
<text text-anchor="start" x="327.5" y="-207.5" font-family="Helvetica,sans-Serif" font-size="10.00">IsPeptideCO()</text>
<text text-anchor="start" x="314.5" y="-192.5" font-family="Helvetica,sans-Serif" font-size="10.00">+</text>
<text text-anchor="start" x="327.5" y="-192.5" font-family="Helvetica,sans-Serif" font-size="10.00">IsBackbone()</text>
<text text-anchor="start" x="314.5" y="-177.5" font-family="Helvetica,sans-Serif" font-size="10.00">+</text>
<text text-anchor="start" x="327.5" y="-177.5" font-family="Helvetica,sans-Serif" font-size="10.00">IsAromatic()</text>
<polygon fill="#666666" stroke="#666666" points="310.5,-352.5 310.5,-352.5 409.5,-352.5 409.5,-352.5 310.5,-352.5"/>
<polygon fill="#666666" stroke="#666666" points="310.5,-277.5 310.5,-277.5 325.5,-277.5 325.5,-277.5 310.5,-277.5"/>
<polygon fill="#666666" stroke="#666666" points="325.5,-277.5 325.5,-277.5 409.5,-277.5 409.5,-277.5 325.5,-277.5"/>
<polygon fill="none" stroke="#666666" points="310,-171 310,-370 409,-370 409,-171 310,-171"/>
</a>
</g>
</g>
<!-- Node6&#45;&gt;Node1 -->
<g id="edge5_Node000001_Node000006" class="edge">
<title>Node6&#45;&gt;Node1</title>
<g id="a_edge5_Node000001_Node000006"><a xlink:title=" ">
<path fill="none" stroke="#63b8ff" d="M318.36,-170.86C313.08,-160.57 307.42,-150.43 301.5,-141 293.54,-128.33 283.99,-115.53 274.35,-103.65"/>
<polygon fill="none" stroke="#63b8ff" points="274.29,-103.58 267.38,-101.51 266.63,-94.34 273.54,-96.41 274.29,-103.58"/>
</a>
</g>
<text text-anchor="middle" x="305.5" y="-115" font-family="Helvetica,sans-Serif" font-size="10.00" fill="grey"> +bond</text>
</g>
</g>
</svg>
