<?xml version="1.0" encoding="UTF-8" standalone="no"?>
<!DOCTYPE svg PUBLIC "-//W3C//DTD SVG 1.1//EN"
 "http://www.w3.org/Graphics/SVG/1.1/DTD/svg11.dtd">
<!-- Generated by graphviz version 2.43.0 (0)
 -->
<!-- Title: nmr::BondNeighbourhood Pages: 1 -->
<svg width="171pt" height="333pt"
 viewBox="0.00 0.00 170.50 333.00" xmlns="http://www.w3.org/2000/svg" xmlns:xlink="http://www.w3.org/1999/xlink">
<g id="graph0" class="graph" transform="scale(1 1) rotate(0) translate(4 329)">
<title>nmr::BondNeighbourhood</title>
<!-- Node1 -->
<g id="Node000001" class="node">
<title>Node1</title>
<g id="a_Node000001"><a xlink:title=" ">
<polygon fill="#999999" stroke="transparent" points="135,-124 0,-124 0,0 135,0 135,-124"/>
<text text-anchor="start" x="5.5" y="-112" font-family="Helvetica,sans-Serif" font-size="10.00">nmr::BondNeighbourhood</text>
<text text-anchor="start" x="6" y="-97" font-family="Helvetica,sans-Serif" font-size="10.00">+</text>
<text text-anchor="start" x="20.5" y="-97" font-family="Helvetica,sans-Serif" font-size="10.00">bond_index</text>
<text text-anchor="start" x="6" y="-82" font-family="Helvetica,sans-Serif" font-size="10.00">+</text>
<text text-anchor="start" x="20.5" y="-82" font-family="Helvetica,sans-Serif" font-size="10.00">bond_category</text>
<text text-anchor="start" x="6" y="-67" font-family="Helvetica,sans-Serif" font-size="10.00">+</text>
<text text-anchor="start" x="20.5" y="-67" font-family="Helvetica,sans-Serif" font-size="10.00">distance_to_midpoint</text>
<text text-anchor="start" x="6" y="-52" font-family="Helvetica,sans-Serif" font-size="10.00">+</text>
<text text-anchor="start" x="20.5" y="-52" font-family="Helvetica,sans-Serif" font-size="10.00">direction_to_midpoint</text>
<text text-anchor="start" x="6" y="-37" font-family="Helvetica,sans-Serif" font-size="10.00">+</text>
<text text-anchor="start" x="20.5" y="-37" font-family="Helvetica,sans-Serif" font-size="10.00">dipolar_tensor</text>
<text text-anchor="start" x="6" y="-22" font-family="Helvetica,sans-Serif" font-size="10.00">+</text>
<text text-anchor="start" x="20.5" y="-22" font-family="Helvetica,sans-Serif" font-size="10.00">mcconnell_scalar</text>
<text text-anchor="start" x="66" y="-7" font-family="Helvetica,sans-Serif" font-size="10.00"> </text>
<polygon fill="#666666" stroke="#666666" points="0.5,-107 0.5,-107 135.5,-107 135.5,-107 0.5,-107"/>
<polygon fill="#666666" stroke="#666666" points="0.5,-17 0.5,-17 18.5,-17 18.5,-17 0.5,-17"/>
<polygon fill="#666666" stroke="#666666" points="18.5,-17 18.5,-17 135.5,-17 135.5,-17 18.5,-17"/>
<polygon fill="none" stroke="#666666" points="0,0 0,-124 135,-124 135,0 0,0"/>
</a>
</g>
</g>
<!-- Node2 -->
<g id="Node000002" class="node">
<title>Node2</title>
<g id="a_Node000002"><a xlink:href="structnmr_1_1SphericalTensor.html" target="_top" xlink:title=" ">
<polygon fill="white" stroke="transparent" points="131,-325 4,-325 4,-171 131,-171 131,-325"/>
<text text-anchor="start" x="16.5" y="-313" font-family="Helvetica,sans-Serif" font-size="10.00">nmr::SphericalTensor</text>
<text text-anchor="start" x="8.5" y="-298" font-family="Helvetica,sans-Serif" font-size="10.00">+</text>
<text text-anchor="start" x="21.5" y="-298" font-family="Helvetica,sans-Serif" font-size="10.00">T0</text>
<text text-anchor="start" x="8.5" y="-283" font-family="Helvetica,sans-Serif" font-size="10.00">+</text>
<text text-anchor="start" x="21.5" y="-283" font-family="Helvetica,sans-Serif" font-size="10.00">T1</text>
<text text-anchor="start" x="8.5" y="-268" font-family="Helvetica,sans-Serif" font-size="10.00">+</text>
<text text-anchor="start" x="21.5" y="-268" font-family="Helvetica,sans-Serif" font-size="10.00">T2</text>
<text text-anchor="start" x="8.5" y="-253" font-family="Helvetica,sans-Serif" font-size="10.00">+</text>
<text text-anchor="start" x="21.5" y="-253" font-family="Helvetica,sans-Serif" font-size="10.00">Isotropic()</text>
<text text-anchor="start" x="8.5" y="-238" font-family="Helvetica,sans-Serif" font-size="10.00">+</text>
<text text-anchor="start" x="21.5" y="-238" font-family="Helvetica,sans-Serif" font-size="10.00">Antisymmetric()</text>
<text text-anchor="start" x="8.5" y="-223" font-family="Helvetica,sans-Serif" font-size="10.00">+</text>
<text text-anchor="start" x="21.5" y="-223" font-family="Helvetica,sans-Serif" font-size="10.00">TracelessSymmetric()</text>
<text text-anchor="start" x="8.5" y="-208" font-family="Helvetica,sans-Serif" font-size="10.00">+</text>
<text text-anchor="start" x="21.5" y="-208" font-family="Helvetica,sans-Serif" font-size="10.00">Reconstruct()</text>
<text text-anchor="start" x="8.5" y="-193" font-family="Helvetica,sans-Serif" font-size="10.00">+</text>
<text text-anchor="start" x="21.5" y="-193" font-family="Helvetica,sans-Serif" font-size="10.00">T2Magnitude()</text>
<text text-anchor="start" x="8.5" y="-178" font-family="Helvetica,sans-Serif" font-size="10.00">+</text>
<text text-anchor="start" x="21.5" y="-178" font-family="Helvetica,sans-Serif" font-size="10.00">Decompose()</text>
<polygon fill="#666666" stroke="#666666" points="4.5,-308 4.5,-308 131.5,-308 131.5,-308 4.5,-308"/>
<polygon fill="#666666" stroke="#666666" points="4.5,-263 4.5,-263 19.5,-263 19.5,-263 4.5,-263"/>
<polygon fill="#666666" stroke="#666666" points="19.5,-263 19.5,-263 131.5,-263 131.5,-263 19.5,-263"/>
<polygon fill="none" stroke="#666666" points="4,-171 4,-325 131,-325 131,-171 4,-171"/>
</a>
</g>
</g>
<!-- Node2&#45;&gt;Node1 -->
<g id="edge1_Node000001_Node000002" class="edge">
<title>Node2&#45;&gt;Node1</title>
<g id="a_edge1_Node000001_Node000002"><a xlink:title=" ">
<path fill="none" stroke="#63b8ff" d="M67.5,-170.83C67.5,-159.43 67.5,-147.7 67.5,-136.36"/>
<polygon fill="none" stroke="#63b8ff" points="67.5,-136.25 63.5,-130.25 67.5,-124.25 71.5,-130.25 67.5,-136.25"/>
</a>
</g>
<text text-anchor="middle" x="115" y="-145" font-family="Helvetica,sans-Serif" font-size="10.00" fill="grey"> +dipolar_spherical</text>
</g>
</g>
</svg>
