<?xml version="1.0" encoding="UTF-8" standalone="no"?>
<!DOCTYPE svg PUBLIC "-//W3C//DTD SVG 1.1//EN"
 "http://www.w3.org/Graphics/SVG/1.1/DTD/svg11.dtd">
<!-- Generated by graphviz version 2.43.0 (0)
 -->
<!-- Title: nmr::MatchedAtomData Pages: 1 -->
<svg width="205pt" height="419pt"
 viewBox="0.00 0.00 205.00 419.00" xmlns="http://www.w3.org/2000/svg" xmlns:xlink="http://www.w3.org/1999/xlink">
<g id="graph0" class="graph" transform="scale(1 1) rotate(0) translate(4 415)">
<title>nmr::MatchedAtomData</title>
<!-- Node1 -->
<g id="Node000001" class="node">
<title>Node1</title>
<g id="a_Node000001"><a xlink:title=" ">
<polygon fill="#999999" stroke="transparent" points="128,-199 0,-199 0,0 128,0 128,-199"/>
<text text-anchor="start" x="5" y="-186.5" font-family="Helvetica,sans-Serif" font-size="10.00">nmr::MatchedAtomData</text>
<text text-anchor="start" x="11" y="-171.5" font-family="Helvetica,sans-Serif" font-size="10.00">+</text>
<text text-anchor="start" x="31" y="-171.5" font-family="Helvetica,sans-Serif" font-size="10.00">wt_index</text>
<text text-anchor="start" x="11" y="-156.5" font-family="Helvetica,sans-Serif" font-size="10.00">+</text>
<text text-anchor="start" x="31" y="-156.5" font-family="Helvetica,sans-Serif" font-size="10.00">mut_index</text>
<text text-anchor="start" x="11" y="-141.5" font-family="Helvetica,sans-Serif" font-size="10.00">+</text>
<text text-anchor="start" x="31" y="-141.5" font-family="Helvetica,sans-Serif" font-size="10.00">match_distance</text>
<text text-anchor="start" x="11" y="-126.5" font-family="Helvetica,sans-Serif" font-size="10.00">+</text>
<text text-anchor="start" x="31" y="-126.5" font-family="Helvetica,sans-Serif" font-size="10.00">element</text>
<text text-anchor="start" x="11" y="-111.5" font-family="Helvetica,sans-Serif" font-size="10.00">+</text>
<text text-anchor="start" x="31" y="-111.5" font-family="Helvetica,sans-Serif" font-size="10.00">role</text>
<text text-anchor="start" x="11" y="-96.5" font-family="Helvetica,sans-Serif" font-size="10.00">+</text>
<text text-anchor="start" x="31" y="-96.5" font-family="Helvetica,sans-Serif" font-size="10.00">is_backbone</text>
<text text-anchor="start" x="11" y="-81.5" font-family="Helvetica,sans-Serif" font-size="10.00">+</text>
<text text-anchor="start" x="31" y="-81.5" font-family="Helvetica,sans-Serif" font-size="10.00">residue_index</text>
<text text-anchor="start" x="11" y="-66.5" font-family="Helvetica,sans-Serif" font-size="10.00">+</text>
<text text-anchor="start" x="31" y="-66.5" font-family="Helvetica,sans-Serif" font-size="10.00">delta_shielding</text>
<text text-anchor="start" x="11" y="-51.5" font-family="Helvetica,sans-Serif" font-size="10.00">+</text>
<text text-anchor="start" x="31" y="-51.5" font-family="Helvetica,sans-Serif" font-size="10.00">delta_efield</text>
<text text-anchor="start" x="11" y="-36.5" font-family="Helvetica,sans-Serif" font-size="10.00">+</text>
<text text-anchor="start" x="31" y="-36.5" font-family="Helvetica,sans-Serif" font-size="10.00">delta_efg</text>
<text text-anchor="start" x="31" y="-21.5" font-family="Helvetica,sans-Serif" font-size="10.00">and 14 more...</text>
<text text-anchor="start" x="62" y="-6.5" font-family="Helvetica,sans-Serif" font-size="10.00"> </text>
<polygon fill="#666666" stroke="#666666" points="0,-181.5 0,-181.5 128,-181.5 128,-181.5 0,-181.5"/>
<polygon fill="#666666" stroke="#666666" points="0,-16.5 0,-16.5 29,-16.5 29,-16.5 0,-16.5"/>
<polygon fill="#666666" stroke="#666666" points="29,-16.5 29,-16.5 128,-16.5 128,-16.5 29,-16.5"/>
<polygon fill="none" stroke="#666666" points="0,0 0,-199 128,-199 128,0 0,0"/>
</a>
</g>
</g>
<!-- Node2 -->
<g id="Node000002" class="node">
<title>Node2</title>
<g id="a_Node000002"><a xlink:href="structnmr_1_1SphericalTensor.html" target="_top" xlink:title=" ">
<polygon fill="white" stroke="transparent" points="127.5,-411 0.5,-411 0.5,-257 127.5,-257 127.5,-411"/>
<text text-anchor="start" x="13" y="-399" font-family="Helvetica,sans-Serif" font-size="10.00">nmr::SphericalTensor</text>
<text text-anchor="start" x="5" y="-384" font-family="Helvetica,sans-Serif" font-size="10.00">+</text>
<text text-anchor="start" x="18" y="-384" font-family="Helvetica,sans-Serif" font-size="10.00">T0</text>
<text text-anchor="start" x="5" y="-369" font-family="Helvetica,sans-Serif" font-size="10.00">+</text>
<text text-anchor="start" x="18" y="-369" font-family="Helvetica,sans-Serif" font-size="10.00">T1</text>
<text text-anchor="start" x="5" y="-354" font-family="Helvetica,sans-Serif" font-size="10.00">+</text>
<text text-anchor="start" x="18" y="-354" font-family="Helvetica,sans-Serif" font-size="10.00">T2</text>
<text text-anchor="start" x="5" y="-339" font-family="Helvetica,sans-Serif" font-size="10.00">+</text>
<text text-anchor="start" x="18" y="-339" font-family="Helvetica,sans-Serif" font-size="10.00">Isotropic()</text>
<text text-anchor="start" x="5" y="-324" font-family="Helvetica,sans-Serif" font-size="10.00">+</text>
<text text-anchor="start" x="18" y="-324" font-family="Helvetica,sans-Serif" font-size="10.00">Antisymmetric()</text>
<text text-anchor="start" x="5" y="-309" font-family="Helvetica,sans-Serif" font-size="10.00">+</text>
<text text-anchor="start" x="18" y="-309" font-family="Helvetica,sans-Serif" font-size="10.00">TracelessSymmetric()</text>
<text text-anchor="start" x="5" y="-294" font-family="Helvetica,sans-Serif" font-size="10.00">+</text>
<text text-anchor="start" x="18" y="-294" font-family="Helvetica,sans-Serif" font-size="10.00">Reconstruct()</text>
<text text-anchor="start" x="5" y="-279" font-family="Helvetica,sans-Serif" font-size="10.00">+</text>
<text text-anchor="start" x="18" y="-279" font-family="Helvetica,sans-Serif" font-size="10.00">T2Magnitude()</text>
<text text-anchor="start" x="5" y="-264" font-family="Helvetica,sans-Serif" font-size="10.00">+</text>
<text text-anchor="start" x="18" y="-264" font-family="Helvetica,sans-Serif" font-size="10.00">Decompose()</text>
<polygon fill="#666666" stroke="#666666" points="1,-394 1,-394 128,-394 128,-394 1,-394"/>
<polygon fill="#666666" stroke="#666666" points="1,-349 1,-349 16,-349 16,-349 1,-349"/>
<polygon fill="#666666" stroke="#666666" points="16,-349 16,-349 128,-349 128,-349 16,-349"/>
<polygon fill="none" stroke="#666666" points="0.5,-257 0.5,-411 127.5,-411 127.5,-257 0.5,-257"/>
</a>
</g>
</g>
<!-- Node2&#45;&gt;Node1 -->
<g id="edge1_Node000001_Node000002" class="edge">
<title>Node2&#45;&gt;Node1</title>
<g id="a_edge1_Node000001_Node000002"><a xlink:title=" ">
<path fill="none" stroke="#63b8ff" d="M64,-256.87C64,-242.35 64,-226.87 64,-211.51"/>
<polygon fill="none" stroke="#63b8ff" points="64,-211.24 60,-205.24 64,-199.24 68,-205.24 64,-211.24"/>
</a>
</g>
<text text-anchor="middle" x="130.5" y="-231" font-family="Helvetica,sans-Serif" font-size="10.00" fill="grey"> +delta_efg_spherical</text>
<text text-anchor="middle" x="130.5" y="-220" font-family="Helvetica,sans-Serif" font-size="10.00" fill="grey">+delta_shielding_spherical</text>
</g>
</g>
</svg>
