<?xml version="1.0" encoding="UTF-8" standalone="no"?>
<!DOCTYPE svg PUBLIC "-//W3C//DTD SVG 1.1//EN"
 "http://www.w3.org/Graphics/SVG/1.1/DTD/svg11.dtd">
<!-- Generated by graphviz version 2.43.0 (0)
 -->
<!-- Title: nmr::ProtonationResult Pages: 1 -->
<svg width="131pt" height="378pt"
 viewBox="0.00 0.00 131.00 378.00" xmlns="http://www.w3.org/2000/svg" xmlns:xlink="http://www.w3.org/1999/xlink">
<g id="graph0" class="graph" transform="scale(1 1) rotate(0) translate(4 374)">
<title>nmr::ProtonationResult</title>
<!-- Node1 -->
<g id="Node000001" class="node">
<title>Node1</title>
<g id="a_Node000001"><a xlink:title=" ">
<polygon fill="#999999" stroke="transparent" points="123,-64 0,-64 0,0 123,0 123,-64"/>
<text text-anchor="start" x="5.5" y="-52" font-family="Helvetica,sans-Serif" font-size="10.00">nmr::ProtonationResult</text>
<text text-anchor="start" x="24" y="-37" font-family="Helvetica,sans-Serif" font-size="10.00">+</text>
<text text-anchor="start" x="56.5" y="-37" font-family="Helvetica,sans-Serif" font-size="10.00">ok</text>
<text text-anchor="start" x="24" y="-22" font-family="Helvetica,sans-Serif" font-size="10.00">+</text>
<text text-anchor="start" x="56.5" y="-22" font-family="Helvetica,sans-Serif" font-size="10.00">error</text>
<text text-anchor="start" x="24" y="-7" font-family="Helvetica,sans-Serif" font-size="10.00">+</text>
<text text-anchor="start" x="56.5" y="-7" font-family="Helvetica,sans-Serif" font-size="10.00">Ok()</text>
<polygon fill="#666666" stroke="#666666" points="0.5,-47 0.5,-47 123.5,-47 123.5,-47 0.5,-47"/>
<polygon fill="#666666" stroke="#666666" points="0.5,-17 0.5,-17 54.5,-17 54.5,-17 0.5,-17"/>
<polygon fill="#666666" stroke="#666666" points="54.5,-17 54.5,-17 123.5,-17 123.5,-17 54.5,-17"/>
<polygon fill="none" stroke="#666666" points="0,0 0,-64 123,-64 123,0 0,0"/>
</a>
</g>
</g>
<!-- Node2 -->
<g id="Node000002" class="node">
<title>Node2</title>
<g id="a_Node000002"><a xlink:href="classnmr_1_1ProtonationState.html" target="_top" xlink:title=" ">
<polygon fill="white" stroke="transparent" points="120.5,-370 2.5,-370 2.5,-111 120.5,-111 120.5,-370"/>
<text text-anchor="start" x="7.5" y="-357.5" font-family="Helvetica,sans-Serif" font-size="10.00">nmr::ProtonationState</text>
<text text-anchor="start" x="10.5" y="-342.5" font-family="Helvetica,sans-Serif" font-size="10.00">&#45;</text>
<text text-anchor="start" x="22.5" y="-342.5" font-family="Helvetica,sans-Serif" font-size="10.00">name_</text>
<text text-anchor="start" x="10.5" y="-327.5" font-family="Helvetica,sans-Serif" font-size="10.00">&#45;</text>
<text text-anchor="start" x="22.5" y="-327.5" font-family="Helvetica,sans-Serif" font-size="10.00">pH_</text>
<text text-anchor="start" x="10.5" y="-312.5" font-family="Helvetica,sans-Serif" font-size="10.00">&#45;</text>
<text text-anchor="start" x="22.5" y="-312.5" font-family="Helvetica,sans-Serif" font-size="10.00">tool_</text>
<text text-anchor="start" x="10.5" y="-297.5" font-family="Helvetica,sans-Serif" font-size="10.00">&#45;</text>
<text text-anchor="start" x="22.5" y="-297.5" font-family="Helvetica,sans-Serif" font-size="10.00">tool_version_</text>
<text text-anchor="start" x="10.5" y="-282.5" font-family="Helvetica,sans-Serif" font-size="10.00">&#45;</text>
<text text-anchor="start" x="22.5" y="-282.5" font-family="Helvetica,sans-Serif" font-size="10.00">residues_</text>
<text text-anchor="start" x="8" y="-267.5" font-family="Helvetica,sans-Serif" font-size="10.00">+</text>
<text text-anchor="start" x="22.5" y="-267.5" font-family="Helvetica,sans-Serif" font-size="10.00">ProtonationState()</text>
<text text-anchor="start" x="8" y="-252.5" font-family="Helvetica,sans-Serif" font-size="10.00">+</text>
<text text-anchor="start" x="22.5" y="-252.5" font-family="Helvetica,sans-Serif" font-size="10.00">ProtonationState()</text>
<text text-anchor="start" x="8" y="-237.5" font-family="Helvetica,sans-Serif" font-size="10.00">+</text>
<text text-anchor="start" x="22.5" y="-237.5" font-family="Helvetica,sans-Serif" font-size="10.00">IsEmpty()</text>
<text text-anchor="start" x="8" y="-222.5" font-family="Helvetica,sans-Serif" font-size="10.00">+</text>
<text text-anchor="start" x="22.5" y="-222.5" font-family="Helvetica,sans-Serif" font-size="10.00">Name()</text>
<text text-anchor="start" x="8" y="-207.5" font-family="Helvetica,sans-Serif" font-size="10.00">+</text>
<text text-anchor="start" x="22.5" y="-207.5" font-family="Helvetica,sans-Serif" font-size="10.00">pH()</text>
<text text-anchor="start" x="8" y="-192.5" font-family="Helvetica,sans-Serif" font-size="10.00">+</text>
<text text-anchor="start" x="22.5" y="-192.5" font-family="Helvetica,sans-Serif" font-size="10.00">Tool()</text>
<text text-anchor="start" x="8" y="-177.5" font-family="Helvetica,sans-Serif" font-size="10.00">+</text>
<text text-anchor="start" x="22.5" y="-177.5" font-family="Helvetica,sans-Serif" font-size="10.00">ToolVersion()</text>
<text text-anchor="start" x="8" y="-162.5" font-family="Helvetica,sans-Serif" font-size="10.00">+</text>
<text text-anchor="start" x="22.5" y="-162.5" font-family="Helvetica,sans-Serif" font-size="10.00">AddResidue()</text>
<text text-anchor="start" x="8" y="-147.5" font-family="Helvetica,sans-Serif" font-size="10.00">+</text>
<text text-anchor="start" x="22.5" y="-147.5" font-family="Helvetica,sans-Serif" font-size="10.00">DecisionCount()</text>
<text text-anchor="start" x="8" y="-132.5" font-family="Helvetica,sans-Serif" font-size="10.00">+</text>
<text text-anchor="start" x="22.5" y="-132.5" font-family="Helvetica,sans-Serif" font-size="10.00">Decisions()</text>
<text text-anchor="start" x="22.5" y="-117.5" font-family="Helvetica,sans-Serif" font-size="10.00">and 6 more...</text>
<polygon fill="#666666" stroke="#666666" points="2.5,-352.5 2.5,-352.5 120.5,-352.5 120.5,-352.5 2.5,-352.5"/>
<polygon fill="#666666" stroke="#666666" points="2.5,-277.5 2.5,-277.5 20.5,-277.5 20.5,-277.5 2.5,-277.5"/>
<polygon fill="#666666" stroke="#666666" points="20.5,-277.5 20.5,-277.5 120.5,-277.5 120.5,-277.5 20.5,-277.5"/>
<polygon fill="none" stroke="#666666" points="2.5,-111 2.5,-370 120.5,-370 120.5,-111 2.5,-111"/>
</a>
</g>
</g>
<!-- Node2&#45;&gt;Node1 -->
<g id="edge1_Node000001_Node000002" class="edge">
<title>Node2&#45;&gt;Node1</title>
<g id="a_edge1_Node000001_Node000002"><a xlink:title=" ">
<path fill="none" stroke="#63b8ff" d="M61.5,-110.77C61.5,-98.57 61.5,-86.86 61.5,-76.41"/>
<polygon fill="none" stroke="#63b8ff" points="61.5,-76.33 57.5,-70.33 61.5,-64.33 65.5,-70.33 61.5,-76.33"/>
</a>
</g>
<text text-anchor="middle" x="80" y="-85" font-family="Helvetica,sans-Serif" font-size="10.00" fill="grey"> +state</text>
</g>
</g>
</svg>
