<?xml version="1.0" encoding="UTF-8" standalone="no"?>
<!DOCTYPE svg PUBLIC "-//W3C//DTD SVG 1.1//EN"
 "http://www.w3.org/Graphics/SVG/1.1/DTD/svg11.dtd">
<!-- Generated by graphviz version 2.43.0 (0)
 -->
<!-- Title: nmr::DsspResidue Pages: 1 -->
<svg width="180pt" height="224pt"
 viewBox="0.00 0.00 180.00 224.00" xmlns="http://www.w3.org/2000/svg" xmlns:xlink="http://www.w3.org/1999/xlink">
<g id="graph0" class="graph" transform="scale(1 1) rotate(0) translate(4 220)">
<title>nmr::DsspResidue</title>
<!-- Node1 -->
<g id="Node000001" class="node">
<title>Node1</title>
<g id="a_Node000001"><a xlink:title=" ">
<polygon fill="#999999" stroke="transparent" points="146.5,-94 25.5,-94 25.5,0 146.5,0 146.5,-94"/>
<text text-anchor="start" x="42" y="-82" font-family="Helvetica,sans-Serif" font-size="10.00">nmr::DsspResidue</text>
<text text-anchor="start" x="30" y="-67" font-family="Helvetica,sans-Serif" font-size="10.00">+</text>
<text text-anchor="start" x="43" y="-67" font-family="Helvetica,sans-Serif" font-size="10.00">secondary_structure</text>
<text text-anchor="start" x="30" y="-52" font-family="Helvetica,sans-Serif" font-size="10.00">+</text>
<text text-anchor="start" x="43" y="-52" font-family="Helvetica,sans-Serif" font-size="10.00">phi</text>
<text text-anchor="start" x="30" y="-37" font-family="Helvetica,sans-Serif" font-size="10.00">+</text>
<text text-anchor="start" x="43" y="-37" font-family="Helvetica,sans-Serif" font-size="10.00">psi</text>
<text text-anchor="start" x="30" y="-22" font-family="Helvetica,sans-Serif" font-size="10.00">+</text>
<text text-anchor="start" x="43" y="-22" font-family="Helvetica,sans-Serif" font-size="10.00">sasa</text>
<text text-anchor="start" x="84.5" y="-7" font-family="Helvetica,sans-Serif" font-size="10.00"> </text>
<polygon fill="#666666" stroke="#666666" points="26,-77 26,-77 147,-77 147,-77 26,-77"/>
<polygon fill="#666666" stroke="#666666" points="26,-17 26,-17 41,-17 41,-17 26,-17"/>
<polygon fill="#666666" stroke="#666666" points="41,-17 41,-17 147,-17 147,-17 41,-17"/>
<polygon fill="none" stroke="#666666" points="25.5,0 25.5,-94 146.5,-94 146.5,0 25.5,0"/>
</a>
</g>
</g>
<!-- Node2 -->
<g id="Node000002" class="node">
<title>Node2</title>
<g id="a_Node000002"><a xlink:href="structnmr_1_1DsspResidue_1_1HBondPartner.html" target="_top" xlink:title=" ">
<polygon fill="white" stroke="transparent" points="172,-216 0,-216 0,-152 172,-152 172,-216"/>
<text text-anchor="start" x="5" y="-204" font-family="Helvetica,sans-Serif" font-size="10.00">nmr::DsspResidue::HBondPartner</text>
<text text-anchor="start" x="24.5" y="-189" font-family="Helvetica,sans-Serif" font-size="10.00">+</text>
<text text-anchor="start" x="58" y="-189" font-family="Helvetica,sans-Serif" font-size="10.00">residue_index</text>
<text text-anchor="start" x="24.5" y="-174" font-family="Helvetica,sans-Serif" font-size="10.00">+</text>
<text text-anchor="start" x="58" y="-174" font-family="Helvetica,sans-Serif" font-size="10.00">energy</text>
<text text-anchor="start" x="84" y="-159" font-family="Helvetica,sans-Serif" font-size="10.00"> </text>
<polygon fill="#666666" stroke="#666666" points="0,-199 0,-199 172,-199 172,-199 0,-199"/>
<polygon fill="#666666" stroke="#666666" points="0,-169 0,-169 56,-169 56,-169 0,-169"/>
<polygon fill="#666666" stroke="#666666" points="56,-169 56,-169 172,-169 172,-169 56,-169"/>
<polygon fill="none" stroke="#666666" points="0,-152 0,-216 172,-216 172,-152 0,-152"/>
</a>
</g>
</g>
<!-- Node2&#45;&gt;Node1 -->
<g id="edge1_Node000001_Node000002" class="edge">
<title>Node2&#45;&gt;Node1</title>
<g id="a_edge1_Node000001_Node000002"><a xlink:title=" ">
<path fill="none" stroke="#63b8ff" d="M86,-151.69C86,-138.23 86,-122.04 86,-106.51"/>
<polygon fill="none" stroke="#63b8ff" points="86,-106.25 82,-100.25 86,-94.25 90,-100.25 86,-106.25"/>
</a>
</g>
<text text-anchor="middle" x="115.5" y="-126" font-family="Helvetica,sans-Serif" font-size="10.00" fill="grey"> +acceptors</text>
<text text-anchor="middle" x="115.5" y="-115" font-family="Helvetica,sans-Serif" font-size="10.00" fill="grey">+donors</text>
</g>
</g>
</svg>
