<?xml version="1.0" encoding="UTF-8" standalone="no"?>
<!DOCTYPE svg PUBLIC "-//W3C//DTD SVG 1.1//EN"
 "http://www.w3.org/Graphics/SVG/1.1/DTD/svg11.dtd">
<!-- Generated by graphviz version 2.43.0 (0)
 -->
<!-- Title: src/Types.h Pages: 1 -->
<svg width="3092pt" height="368pt"
 viewBox="0.00 0.00 3091.62 368.00" xmlns="http://www.w3.org/2000/svg" xmlns:xlink="http://www.w3.org/1999/xlink">
<g id="graph0" class="graph" transform="scale(1 1) rotate(0) translate(4 364)">
<title>src/Types.h</title>
<!-- Node1 -->
<g id="Node000001" class="node">
<title>Node1</title>
<g id="a_Node000001"><a xlink:title=" ">
<polygon fill="#999999" stroke="#666666" points="1223.62,-360 1152.62,-360 1152.62,-341 1223.62,-341 1223.62,-360"/>
<text text-anchor="middle" x="1188.12" y="-348" font-family="Helvetica,sans-Serif" font-size="10.00">src/Types.h</text>
</a>
</g>
</g>
<!-- Node2 -->
<g id="Node000002" class="node">
<title>Node2</title>
<g id="a_Node000002"><a xlink:href="AminoAcidType_8h.html" target="_top" xlink:title=" ">
<polygon fill="white" stroke="#666666" points="472.12,-305 354.12,-305 354.12,-286 472.12,-286 472.12,-305"/>
<text text-anchor="middle" x="413.12" y="-293" font-family="Helvetica,sans-Serif" font-size="10.00">src/AminoAcidType.h</text>
</a>
</g>
</g>
<!-- Node1&#45;&gt;Node2 -->
<g id="edge1_Node000001_Node000002" class="edge">
<title>Node1&#45;&gt;Node2</title>
<g id="a_edge1_Node000001_Node000002"><a xlink:title=" ">
<path fill="none" stroke="#63b8ff" d="M1141.98,-347.42C1029.64,-342.16 732.97,-327.18 486.12,-305 481.67,-304.6 477.08,-304.15 472.46,-303.67"/>
<polygon fill="#63b8ff" stroke="#63b8ff" points="1142.12,-350.93 1152.27,-347.89 1142.45,-343.93 1142.12,-350.93"/>
</a>
</g>
</g>
<!-- Node3 -->
<g id="Node000003" class="node">
<title>Node3</title>
<g id="a_Node000003"><a xlink:href="Residue_8h.html" target="_top" xlink:title=" ">
<polygon fill="white" stroke="#666666" points="454.12,-250 372.12,-250 372.12,-231 454.12,-231 454.12,-250"/>
<text text-anchor="middle" x="413.12" y="-238" font-family="Helvetica,sans-Serif" font-size="10.00">src/Residue.h</text>
</a>
</g>
</g>
<!-- Node1&#45;&gt;Node3 -->
<g id="edge63_Node000001_Node000003" class="edge">
<title>Node1&#45;&gt;Node3</title>
<g id="a_edge63_Node000001_Node000003"><a xlink:title=" ">
<path fill="none" stroke="#63b8ff" d="M1141.88,-348.83C1012.47,-346.55 648.63,-337.38 534.12,-305 491.43,-292.93 446.55,-264.61 425.45,-250.22"/>
<polygon fill="#63b8ff" stroke="#63b8ff" points="1142.17,-352.33 1152.23,-349 1142.29,-345.33 1142.17,-352.33"/>
</a>
</g>
</g>
<!-- Node4 -->
<g id="Node000004" class="node">
<title>Node4</title>
<g id="a_Node000004"><a xlink:href="Protein_8h.html" target="_top" xlink:title=" ">
<polygon fill="white" stroke="#666666" points="364.62,-189.5 287.62,-189.5 287.62,-170.5 364.62,-170.5 364.62,-189.5"/>
<text text-anchor="middle" x="326.12" y="-177.5" font-family="Helvetica,sans-Serif" font-size="10.00">src/Protein.h</text>
</a>
</g>
</g>
<!-- Node1&#45;&gt;Node4 -->
<g id="edge56_Node000001_Node000004" class="edge">
<title>Node1&#45;&gt;Node4</title>
<g id="a_edge56_Node000001_Node000004"><a xlink:title=" ">
<path fill="none" stroke="#63b8ff" d="M1142.34,-348.67C970.86,-345.35 374.87,-331.93 345.12,-305 311.7,-274.74 319.91,-212.34 324.27,-189.56"/>
<polygon fill="#63b8ff" stroke="#63b8ff" points="1142.48,-352.17 1152.54,-348.86 1142.61,-345.17 1142.48,-352.17"/>
</a>
</g>
</g>
<!-- Node12 -->
<g id="Node000012" class="node">
<title>Node12</title>
<g id="a_Node000012"><a xlink:href="Atom_8h.html" target="_top" xlink:title=" ">
<polygon fill="white" stroke="#666666" points="549.62,-250 480.62,-250 480.62,-231 549.62,-231 549.62,-250"/>
<text text-anchor="middle" x="515.12" y="-238" font-family="Helvetica,sans-Serif" font-size="10.00">src/Atom.h</text>
</a>
</g>
</g>
<!-- Node1&#45;&gt;Node12 -->
<g id="edge12_Node000001_Node000012" class="edge">
<title>Node1&#45;&gt;Node12</title>
<g id="a_edge12_Node000001_Node000012"><a xlink:title=" ">
<path fill="none" stroke="#63b8ff" d="M1142.08,-348.59C1005.21,-345.55 607.27,-334.27 557.12,-305 535.89,-292.61 523.34,-264.7 518.06,-250.37"/>
<polygon fill="#63b8ff" stroke="#63b8ff" points="1142.16,-352.09 1152.23,-348.81 1142.31,-345.09 1142.16,-352.09"/>
</a>
</g>
</g>
<!-- Node13 -->
<g id="Node000013" class="node">
<title>Node13</title>
<g id="a_Node000013"><a xlink:href="BiotSavartResult_8h.html" target="_top" xlink:title=" ">
<polygon fill="white" stroke="#666666" points="1111.62,-305 986.62,-305 986.62,-286 1111.62,-286 1111.62,-305"/>
<text text-anchor="middle" x="1049.12" y="-293" font-family="Helvetica,sans-Serif" font-size="10.00">src/BiotSavartResult.h</text>
</a>
</g>
</g>
<!-- Node1&#45;&gt;Node13 -->
<g id="edge14_Node000001_Node000013" class="edge">
<title>Node1&#45;&gt;Node13</title>
<g id="a_edge14_Node000001_Node000013"><a xlink:title=" ">
<path fill="none" stroke="#63b8ff" d="M1156.44,-337.42C1130.65,-327.59 1094.88,-313.95 1071.86,-305.17"/>
<polygon fill="#63b8ff" stroke="#63b8ff" points="1155.2,-340.69 1165.79,-340.98 1157.69,-334.15 1155.2,-340.69"/>
</a>
</g>
</g>
<!-- Node14 -->
<g id="Node000014" class="node">
<title>Node14</title>
<g id="a_Node000014"><a xlink:href="Bond_8h.html" target="_top" xlink:title=" ">
<polygon fill="white" stroke="#666666" points="260.12,-305 192.12,-305 192.12,-286 260.12,-286 260.12,-305"/>
<text text-anchor="middle" x="226.12" y="-293" font-family="Helvetica,sans-Serif" font-size="10.00">src/Bond.h</text>
</a>
</g>
</g>
<!-- Node1&#45;&gt;Node14 -->
<g id="edge15_Node000001_Node000014" class="edge">
<title>Node1&#45;&gt;Node14</title>
<g id="a_edge15_Node000001_Node000014"><a xlink:title=" ">
<path fill="none" stroke="#63b8ff" d="M1141.96,-349.31C1007.61,-348.33 605.37,-342.24 274.12,-305 269.58,-304.49 264.82,-303.82 260.13,-303.07"/>
<polygon fill="#63b8ff" stroke="#63b8ff" points="1142.25,-352.82 1152.28,-349.38 1142.3,-345.82 1142.25,-352.82"/>
</a>
</g>
</g>
<!-- Node15 -->
<g id="Node000015" class="node">
<title>Node15</title>
<g id="a_Node000015"><a xlink:href="CovalentTopology_8h.html" target="_top" xlink:title=" ">
<polygon fill="white" stroke="#666666" points="307.12,-250 179.12,-250 179.12,-231 307.12,-231 307.12,-250"/>
<text text-anchor="middle" x="243.12" y="-238" font-family="Helvetica,sans-Serif" font-size="10.00">src/CovalentTopology.h</text>
</a>
</g>
</g>
<!-- Node1&#45;&gt;Node15 -->
<g id="edge43_Node000001_Node000015" class="edge">
<title>Node1&#45;&gt;Node15</title>
<g id="a_edge43_Node000001_Node000015"><a xlink:title=" ">
<path fill="none" stroke="#63b8ff" d="M1142.29,-348.99C973.01,-346.85 388.84,-337.2 312.12,-305 283.9,-293.16 259.92,-264.46 249.17,-250.05"/>
<polygon fill="#63b8ff" stroke="#63b8ff" points="1142.33,-352.49 1152.37,-349.11 1142.41,-345.49 1142.33,-352.49"/>
</a>
</g>
</g>
<!-- Node16 -->
<g id="Node000016" class="node">
<title>Node16</title>
<g id="a_Node000016"><a xlink:href="ChargeSource_8h.html" target="_top" xlink:title=" ">
<polygon fill="white" stroke="#666666" points="123.12,-250 13.12,-250 13.12,-231 123.12,-231 123.12,-250"/>
<text text-anchor="middle" x="68.12" y="-238" font-family="Helvetica,sans-Serif" font-size="10.00">src/ChargeSource.h</text>
</a>
</g>
</g>
<!-- Node1&#45;&gt;Node16 -->
<g id="edge19_Node000001_Node000016" class="edge">
<title>Node1&#45;&gt;Node16</title>
<g id="a_edge19_Node000001_Node000016"><a xlink:title=" ">
<path fill="none" stroke="#63b8ff" d="M1142.32,-348.7C958.01,-345.32 276.04,-331.15 183.12,-305 141.85,-293.38 99.18,-264.58 79.42,-250.1"/>
<polygon fill="#63b8ff" stroke="#63b8ff" points="1142.42,-352.2 1152.48,-348.89 1142.55,-345.21 1142.42,-352.2"/>
</a>
</g>
</g>
<!-- Node19 -->
<g id="Node000019" class="node">
<title>Node19</title>
<g id="a_Node000019"><a xlink:href="ConformationAtom_8h.html" target="_top" xlink:title=" ">
<polygon fill="white" stroke="#666666" points="786.12,-305 650.12,-305 650.12,-286 786.12,-286 786.12,-305"/>
<text text-anchor="middle" x="718.12" y="-293" font-family="Helvetica,sans-Serif" font-size="10.00">src/ConformationAtom.h</text>
</a>
</g>
</g>
<!-- Node1&#45;&gt;Node19 -->
<g id="edge26_Node000001_Node000019" class="edge">
<title>Node1&#45;&gt;Node19</title>
<g id="a_edge26_Node000001_Node000019"><a xlink:title=" ">
<path fill="none" stroke="#63b8ff" d="M1142.28,-344.33C1059.27,-334.97 883.67,-315.17 786.46,-304.21"/>
<polygon fill="#63b8ff" stroke="#63b8ff" points="1142.08,-347.83 1152.41,-345.47 1142.86,-340.87 1142.08,-347.83"/>
</a>
</g>
</g>
<!-- Node20 -->
<g id="Node000020" class="node">
<title>Node20</title>
<g id="a_Node000020"><a xlink:href="ProteinConformation_8h.html" target="_top" xlink:title=" ">
<polygon fill="white" stroke="#666666" points="939.12,-250 795.12,-250 795.12,-231 939.12,-231 939.12,-250"/>
<text text-anchor="middle" x="867.12" y="-238" font-family="Helvetica,sans-Serif" font-size="10.00">src/ProteinConformation.h</text>
</a>
</g>
</g>
<!-- Node1&#45;&gt;Node20 -->
<g id="edge57_Node000001_Node000020" class="edge">
<title>Node1&#45;&gt;Node20</title>
<g id="a_edge57_Node000001_Node000020"><a xlink:title=" ">
<path fill="none" stroke="#63b8ff" d="M1142.42,-344.1C1098.87,-337.98 1031.98,-326.01 977.12,-305 957.35,-297.43 905.36,-265.5 880.6,-250"/>
<polygon fill="#63b8ff" stroke="#63b8ff" points="1142.05,-347.58 1152.43,-345.46 1142.99,-340.65 1142.05,-347.58"/>
</a>
</g>
</g>
<!-- Node28 -->
<g id="Node000028" class="node">
<title>Node28</title>
<g id="a_Node000028"><a xlink:href="CoulombResult_8h.html" target="_top" xlink:title=" ">
<polygon fill="white" stroke="#666666" points="1246.62,-305 1129.62,-305 1129.62,-286 1246.62,-286 1246.62,-305"/>
<text text-anchor="middle" x="1188.12" y="-293" font-family="Helvetica,sans-Serif" font-size="10.00">src/CoulombResult.h</text>
</a>
</g>
</g>
<!-- Node1&#45;&gt;Node28 -->
<g id="edge42_Node000001_Node000028" class="edge">
<title>Node1&#45;&gt;Node28</title>
<g id="a_edge42_Node000001_Node000028"><a xlink:title=" ">
<path fill="none" stroke="#63b8ff" d="M1188.12,-330.66C1188.12,-321.93 1188.12,-311.99 1188.12,-305.09"/>
<polygon fill="#63b8ff" stroke="#63b8ff" points="1184.62,-330.75 1188.12,-340.75 1191.62,-330.75 1184.62,-330.75"/>
</a>
</g>
</g>
<!-- Node29 -->
<g id="Node000029" class="node">
<title>Node29</title>
<g id="a_Node000029"><a xlink:href="DispersionResult_8h.html" target="_top" xlink:title=" ">
<polygon fill="white" stroke="#666666" points="1389.62,-305 1264.62,-305 1264.62,-286 1389.62,-286 1389.62,-305"/>
<text text-anchor="middle" x="1327.12" y="-293" font-family="Helvetica,sans-Serif" font-size="10.00">src/DispersionResult.h</text>
</a>
</g>
</g>
<!-- Node1&#45;&gt;Node29 -->
<g id="edge44_Node000001_Node000029" class="edge">
<title>Node1&#45;&gt;Node29</title>
<g id="a_edge44_Node000001_Node000029"><a xlink:title=" ">
<path fill="none" stroke="#63b8ff" d="M1219.8,-337.42C1245.59,-327.59 1281.37,-313.95 1304.38,-305.17"/>
<polygon fill="#63b8ff" stroke="#63b8ff" points="1218.55,-334.15 1210.45,-340.98 1221.05,-340.69 1218.55,-334.15"/>
</a>
</g>
</g>
<!-- Node30 -->
<g id="Node000030" class="node">
<title>Node30</title>
<g id="a_Node000030"><a xlink:href="GeometryChoice_8h.html" target="_top" xlink:title=" ">
<polygon fill="white" stroke="#666666" points="929.62,-305 804.62,-305 804.62,-286 929.62,-286 929.62,-305"/>
<text text-anchor="middle" x="867.12" y="-293" font-family="Helvetica,sans-Serif" font-size="10.00">src/GeometryChoice.h</text>
</a>
</g>
</g>
<!-- Node1&#45;&gt;Node30 -->
<g id="edge45_Node000001_Node000030" class="edge">
<title>Node1&#45;&gt;Node30</title>
<g id="a_edge45_Node000001_Node000030"><a xlink:title=" ">
<path fill="none" stroke="#63b8ff" d="M1142.38,-341.95C1083.26,-332.19 980.58,-315.23 918.73,-305.02"/>
<polygon fill="#63b8ff" stroke="#63b8ff" points="1142.11,-345.45 1152.54,-343.63 1143.25,-338.54 1142.11,-345.45"/>
</a>
</g>
</g>
<!-- Node31 -->
<g id="Node000031" class="node">
<title>Node31</title>
<g id="a_Node000031"><a xlink:href="HBondResult_8h.html" target="_top" xlink:title=" ">
<polygon fill="white" stroke="#666666" points="1514.12,-305 1408.12,-305 1408.12,-286 1514.12,-286 1514.12,-305"/>
<text text-anchor="middle" x="1461.12" y="-293" font-family="Helvetica,sans-Serif" font-size="10.00">src/HBondResult.h</text>
</a>
</g>
</g>
<!-- Node1&#45;&gt;Node31 -->
<g id="edge47_Node000001_Node000031" class="edge">
<title>Node1&#45;&gt;Node31</title>
<g id="a_edge47_Node000001_Node000031"><a xlink:title=" ">
<path fill="none" stroke="#63b8ff" d="M1233.91,-340.61C1284.99,-330.69 1367.03,-314.77 1417.3,-305.01"/>
<polygon fill="#63b8ff" stroke="#63b8ff" points="1232.96,-337.23 1223.81,-342.57 1234.3,-344.1 1232.96,-337.23"/>
</a>
</g>
</g>
<!-- Node32 -->
<g id="Node000032" class="node">
<title>Node32</title>
<g id="a_Node000032"><a xlink:href="HaighMallionResult_8h.html" target="_top" xlink:title=" ">
<polygon fill="white" stroke="#666666" points="1670.12,-305 1532.12,-305 1532.12,-286 1670.12,-286 1670.12,-305"/>
<text text-anchor="middle" x="1601.12" y="-293" font-family="Helvetica,sans-Serif" font-size="10.00">src/HaighMallionResult.h</text>
</a>
</g>
</g>
<!-- Node1&#45;&gt;Node32 -->
<g id="edge48_Node000001_Node000032" class="edge">
<title>Node1&#45;&gt;Node32</title>
<g id="a_edge48_Node000001_Node000032"><a xlink:title=" ">
<path fill="none" stroke="#63b8ff" d="M1233.94,-343.62C1306.98,-334.25 1450.15,-315.87 1534.51,-305.05"/>
<polygon fill="#63b8ff" stroke="#63b8ff" points="1233.16,-340.19 1223.69,-344.94 1234.06,-347.13 1233.16,-340.19"/>
</a>
</g>
</g>
<!-- Node33 -->
<g id="Node000033" class="node">
<title>Node33</title>
<g id="a_Node000033"><a xlink:href="IupacAtomIdentity_8h.html" target="_top" xlink:title=" ">
<polygon fill="white" stroke="#666666" points="1819.62,-305 1688.62,-305 1688.62,-286 1819.62,-286 1819.62,-305"/>
<text text-anchor="middle" x="1754.12" y="-293" font-family="Helvetica,sans-Serif" font-size="10.00">src/IupacAtomIdentity.h</text>
</a>
</g>
</g>
<!-- Node1&#45;&gt;Node33 -->
<g id="edge49_Node000001_Node000033" class="edge">
<title>Node1&#45;&gt;Node33</title>
<g id="a_edge49_Node000001_Node000033"><a xlink:title=" ">
<path fill="none" stroke="#63b8ff" d="M1233.93,-345.69C1320.81,-338.4 1515.47,-321.69 1679.12,-305 1682.12,-304.69 1685.19,-304.37 1688.28,-304.05"/>
<polygon fill="#63b8ff" stroke="#63b8ff" points="1233.55,-342.21 1223.88,-346.54 1234.14,-349.19 1233.55,-342.21"/>
</a>
</g>
</g>
<!-- Node34 -->
<g id="Node000034" class="node">
<title>Node34</title>
<g id="a_Node000034"><a xlink:href="McConnellResult_8h.html" target="_top" xlink:title=" ">
<polygon fill="white" stroke="#666666" points="1962.62,-305 1837.62,-305 1837.62,-286 1962.62,-286 1962.62,-305"/>
<text text-anchor="middle" x="1900.12" y="-293" font-family="Helvetica,sans-Serif" font-size="10.00">src/McConnellResult.h</text>
</a>
</g>
</g>
<!-- Node1&#45;&gt;Node34 -->
<g id="edge50_Node000001_Node000034" class="edge">
<title>Node1&#45;&gt;Node34</title>
<g id="a_edge50_Node000001_Node000034"><a xlink:title=" ">
<path fill="none" stroke="#63b8ff" d="M1234.18,-347.06C1339.48,-341.31 1605.93,-325.83 1828.12,-305 1831.13,-304.72 1834.21,-304.41 1837.31,-304.1"/>
<polygon fill="#63b8ff" stroke="#63b8ff" points="1233.7,-343.58 1223.91,-347.62 1234.08,-350.57 1233.7,-343.58"/>
</a>
</g>
</g>
<!-- Node35 -->
<g id="Node000035" class="node">
<title>Node35</title>
<g id="a_Node000035"><a xlink:href="MopacCoulombResult_8h.html" target="_top" xlink:title=" ">
<polygon fill="white" stroke="#666666" points="2129.62,-305 1980.62,-305 1980.62,-286 2129.62,-286 2129.62,-305"/>
<text text-anchor="middle" x="2055.12" y="-293" font-family="Helvetica,sans-Serif" font-size="10.00">src/MopacCoulombResult.h</text>
</a>
</g>
</g>
<!-- Node1&#45;&gt;Node35 -->
<g id="edge51_Node000001_Node000035" class="edge">
<title>Node1&#45;&gt;Node35</title>
<g id="a_edge51_Node000001_Node000035"><a xlink:title=" ">
<path fill="none" stroke="#63b8ff" d="M1234.01,-347.6C1354.78,-342.45 1691.47,-327.09 1971.12,-305 1974.19,-304.76 1977.32,-304.5 1980.48,-304.23"/>
<polygon fill="#63b8ff" stroke="#63b8ff" points="1233.51,-344.12 1223.67,-348.04 1233.81,-351.11 1233.51,-344.12"/>
</a>
</g>
</g>
<!-- Node36 -->
<g id="Node000036" class="node">
<title>Node36</title>
<g id="a_Node000036"><a xlink:href="MopacMcConnellResult_8h.html" target="_top" xlink:title=" ">
<polygon fill="white" stroke="#666666" points="2304.62,-305 2147.62,-305 2147.62,-286 2304.62,-286 2304.62,-305"/>
<text text-anchor="middle" x="2226.12" y="-293" font-family="Helvetica,sans-Serif" font-size="10.00">src/MopacMcConnellResult.h</text>
</a>
</g>
</g>
<!-- Node1&#45;&gt;Node36 -->
<g id="edge52_Node000001_Node000036" class="edge">
<title>Node1&#45;&gt;Node36</title>
<g id="a_edge52_Node000001_Node000036"><a xlink:title=" ">
<path fill="none" stroke="#63b8ff" d="M1234.12,-348.15C1371.54,-343.95 1791.02,-329.88 2138.12,-305 2141.18,-304.78 2144.3,-304.54 2147.46,-304.29"/>
<polygon fill="#63b8ff" stroke="#63b8ff" points="1233.85,-344.66 1223.96,-348.46 1234.06,-351.66 1233.85,-344.66"/>
</a>
</g>
</g>
<!-- Node37 -->
<g id="Node000037" class="node">
<title>Node37</title>
<g id="a_Node000037"><a xlink:href="MutationDeltaResult_8h.html" target="_top" xlink:title=" ">
<polygon fill="white" stroke="#666666" points="2465.62,-305 2322.62,-305 2322.62,-286 2465.62,-286 2465.62,-305"/>
<text text-anchor="middle" x="2394.12" y="-293" font-family="Helvetica,sans-Serif" font-size="10.00">src/MutationDeltaResult.h</text>
</a>
</g>
</g>
<!-- Node1&#45;&gt;Node37 -->
<g id="edge53_Node000001_Node000037" class="edge">
<title>Node1&#45;&gt;Node37</title>
<g id="a_edge53_Node000001_Node000037"><a xlink:title=" ">
<path fill="none" stroke="#63b8ff" d="M1234.05,-348.75C1387.25,-346.04 1894.74,-335.19 2313.12,-305 2316.22,-304.78 2319.39,-304.53 2322.59,-304.26"/>
<polygon fill="#63b8ff" stroke="#63b8ff" points="1233.57,-345.26 1223.63,-348.94 1233.69,-352.26 1233.57,-345.26"/>
</a>
</g>
</g>
<!-- Node38 -->
<g id="Node000038" class="node">
<title>Node38</title>
<g id="a_Node000038"><a xlink:href="NamingRegistry_8h.html" target="_top" xlink:title=" ">
<polygon fill="white" stroke="#666666" points="2604.12,-305 2484.12,-305 2484.12,-286 2604.12,-286 2604.12,-305"/>
<text text-anchor="middle" x="2544.12" y="-293" font-family="Helvetica,sans-Serif" font-size="10.00">src/NamingRegistry.h</text>
</a>
</g>
</g>
<!-- Node1&#45;&gt;Node38 -->
<g id="edge54_Node000001_Node000038" class="edge">
<title>Node1&#45;&gt;Node38</title>
<g id="a_edge54_Node000001_Node000038"><a xlink:title=" ">
<path fill="none" stroke="#63b8ff" d="M1234.1,-349.34C1400.93,-348.46 1990.03,-342.7 2474.12,-305 2477.3,-304.75 2480.55,-304.47 2483.83,-304.16"/>
<polygon fill="#63b8ff" stroke="#63b8ff" points="1233.71,-345.84 1223.73,-349.39 1233.74,-352.84 1233.71,-345.84"/>
</a>
</g>
</g>
<!-- Node39 -->
<g id="Node000039" class="node">
<title>Node39</title>
<g id="a_Node000039"><a xlink:href="PiQuadrupoleResult_8h.html" target="_top" xlink:title=" ">
<polygon fill="white" stroke="#666666" points="2761.62,-305 2622.62,-305 2622.62,-286 2761.62,-286 2761.62,-305"/>
<text text-anchor="middle" x="2692.12" y="-293" font-family="Helvetica,sans-Serif" font-size="10.00">src/PiQuadrupoleResult.h</text>
</a>
</g>
</g>
<!-- Node1&#45;&gt;Node39 -->
<g id="edge55_Node000001_Node000039" class="edge">
<title>Node1&#45;&gt;Node39</title>
<g id="a_edge55_Node000001_Node000039"><a xlink:title=" ">
<path fill="none" stroke="#63b8ff" d="M1233.71,-349.34C1410.93,-348.43 2071.12,-342.57 2613.12,-305 2616.15,-304.79 2619.24,-304.55 2622.36,-304.3"/>
<polygon fill="#63b8ff" stroke="#63b8ff" points="1233.68,-345.84 1223.69,-349.38 1233.71,-352.84 1233.68,-345.84"/>
</a>
</g>
</g>
<!-- Node40 -->
<g id="Node000040" class="node">
<title>Node40</title>
<g id="a_Node000040"><a xlink:href="ProtonationState_8h.html" target="_top" xlink:title=" ">
<polygon fill="white" stroke="#666666" points="2904.62,-305 2779.62,-305 2779.62,-286 2904.62,-286 2904.62,-305"/>
<text text-anchor="middle" x="2842.12" y="-293" font-family="Helvetica,sans-Serif" font-size="10.00">src/ProtonationState.h</text>
</a>
</g>
</g>
<!-- Node1&#45;&gt;Node40 -->
<g id="edge58_Node000001_Node000040" class="edge">
<title>Node1&#45;&gt;Node40</title>
<g id="a_edge58_Node000001_Node000040"><a xlink:title=" ">
<path fill="none" stroke="#63b8ff" d="M1233.97,-349.71C1423.42,-350.25 2163.64,-349.24 2770.12,-305 2773.13,-304.78 2776.22,-304.53 2779.32,-304.25"/>
<polygon fill="#63b8ff" stroke="#63b8ff" points="1233.83,-346.21 1223.82,-349.68 1233.81,-353.21 1233.83,-346.21"/>
</a>
</g>
</g>
<!-- Node44 -->
<g id="Node000044" class="node">
<title>Node44</title>
<g id="a_Node000044"><a xlink:href="Ring_8h.html" target="_top" xlink:title=" ">
<polygon fill="white" stroke="#666666" points="631.62,-305 566.62,-305 566.62,-286 631.62,-286 631.62,-305"/>
<text text-anchor="middle" x="599.12" y="-293" font-family="Helvetica,sans-Serif" font-size="10.00">src/Ring.h</text>
</a>
</g>
</g>
<!-- Node1&#45;&gt;Node44 -->
<g id="edge64_Node000001_Node000044" class="edge">
<title>Node1&#45;&gt;Node44</title>
<g id="a_edge64_Node000001_Node000044"><a xlink:title=" ">
<path fill="none" stroke="#63b8ff" d="M1142.4,-347.61C1048.23,-343.33 825.94,-331.13 641.12,-305 638.18,-304.58 635.12,-304.09 632.07,-303.55"/>
<polygon fill="#63b8ff" stroke="#63b8ff" points="1142.3,-351.11 1152.44,-348.06 1142.61,-344.12 1142.3,-351.11"/>
</a>
</g>
</g>
<!-- Node45 -->
<g id="Node000045" class="node">
<title>Node45</title>
<g id="a_Node000045"><a xlink:href="RingSusceptibilityResult_8h.html" target="_top" xlink:title=" ">
<polygon fill="white" stroke="#666666" points="3083.62,-305 2922.62,-305 2922.62,-286 3083.62,-286 3083.62,-305"/>
<text text-anchor="middle" x="3003.12" y="-293" font-family="Helvetica,sans-Serif" font-size="10.00">src/RingSusceptibilityResult.h</text>
</a>
</g>
</g>
<!-- Node1&#45;&gt;Node45 -->
<g id="edge67_Node000001_Node000045" class="edge">
<title>Node1&#45;&gt;Node45</title>
<g id="a_edge67_Node000001_Node000045"><a xlink:title=" ">
<path fill="none" stroke="#63b8ff" d="M1233.81,-349.49C1433.23,-349.18 2247.24,-345.39 2914.12,-305 2916.91,-304.83 2919.75,-304.64 2922.61,-304.44"/>
<polygon fill="#63b8ff" stroke="#63b8ff" points="1233.7,-345.99 1223.7,-349.5 1233.71,-352.99 1233.7,-345.99"/>
</a>
</g>
</g>
<!-- Node2&#45;&gt;Node3 -->
<g id="edge2_Node000002_Node000003" class="edge">
<title>Node2&#45;&gt;Node3</title>
<g id="a_edge2_Node000002_Node000003"><a xlink:title=" ">
<path fill="none" stroke="#63b8ff" d="M413.12,-275.66C413.12,-266.93 413.12,-256.99 413.12,-250.09"/>
<polygon fill="#63b8ff" stroke="#63b8ff" points="409.62,-275.75 413.12,-285.75 416.62,-275.75 409.62,-275.75"/>
</a>
</g>
</g>
<!-- Node3&#45;&gt;Node4 -->
<g id="edge3_Node000003_Node000004" class="edge">
<title>Node3&#45;&gt;Node4</title>
<g id="a_edge3_Node000003_Node000004"><a xlink:title=" ">
<path fill="none" stroke="#63b8ff" d="M391.79,-225.16C375.27,-214.05 352.91,-199.01 339.01,-189.67"/>
<polygon fill="#63b8ff" stroke="#63b8ff" points="390.03,-228.19 400.28,-230.87 393.94,-222.38 390.03,-228.19"/>
</a>
</g>
</g>
<!-- Node5 -->
<g id="Node000005" class="node">
<title>Node5</title>
<g id="a_Node000005"><a xlink:href="GeometryResult_8h.html" target="_top" xlink:title=" ">
<polygon fill="white" stroke="#666666" points="1010.12,-129 888.12,-129 888.12,-110 1010.12,-110 1010.12,-129"/>
<text text-anchor="middle" x="949.12" y="-117" font-family="Helvetica,sans-Serif" font-size="10.00">src/GeometryResult.h</text>
</a>
</g>
</g>
<!-- Node4&#45;&gt;Node5 -->
<g id="edge4_Node000004_Node000005" class="edge">
<title>Node4&#45;&gt;Node5</title>
<g id="a_edge4_Node000004_Node000005"><a xlink:title=" ">
<path fill="none" stroke="#63b8ff" d="M374.93,-170.37C387.06,-168.42 400.04,-166.48 412.12,-165 583.9,-143.93 787.84,-130.08 887.76,-124.01"/>
<polygon fill="#63b8ff" stroke="#63b8ff" points="374.29,-166.93 364.99,-172.01 375.42,-173.84 374.29,-166.93"/>
</a>
</g>
</g>
<!-- Node9 -->
<g id="Node000009" class="node">
<title>Node9</title>
<g id="a_Node000009"><a xlink:href="GromacsEnsembleLoader_8h.html" target="_top" xlink:title=" ">
<polygon fill="white" stroke="#666666" points="309.62,-129 142.62,-129 142.62,-110 309.62,-110 309.62,-129"/>
<text text-anchor="middle" x="226.12" y="-117" font-family="Helvetica,sans-Serif" font-size="10.00">src/GromacsEnsembleLoader.h</text>
</a>
</g>
</g>
<!-- Node4&#45;&gt;Node9 -->
<g id="edge8_Node000004_Node000009" class="edge">
<title>Node4&#45;&gt;Node9</title>
<g id="a_edge8_Node000004_Node000009"><a xlink:title=" ">
<path fill="none" stroke="#63b8ff" d="M302.65,-165.27C283.56,-154.1 257.21,-138.69 240.94,-129.17"/>
<polygon fill="#63b8ff" stroke="#63b8ff" points="300.97,-168.34 311.37,-170.37 304.5,-162.3 300.97,-168.34"/>
</a>
</g>
</g>
<!-- Node10 -->
<g id="Node000010" class="node">
<title>Node10</title>
<g id="a_Node000010"><a xlink:href="OrcaRunLoader_8h.html" target="_top" xlink:title=" ">
<polygon fill="white" stroke="#666666" points="126.12,-74 10.12,-74 10.12,-55 126.12,-55 126.12,-74"/>
<text text-anchor="middle" x="68.12" y="-62" font-family="Helvetica,sans-Serif" font-size="10.00">src/OrcaRunLoader.h</text>
</a>
</g>
</g>
<!-- Node4&#45;&gt;Node10 -->
<g id="edge9_Node000004_Node000010" class="edge">
<title>Node4&#45;&gt;Node10</title>
<g id="a_edge9_Node000004_Node000010"><a xlink:title=" ">
<path fill="none" stroke="#63b8ff" d="M329.48,-160.48C331.14,-144.97 330.62,-123.29 318.12,-110 292.59,-82.87 191.82,-72.17 126.27,-68.03"/>
<polygon fill="#63b8ff" stroke="#63b8ff" points="326,-160.08 328.02,-170.48 332.93,-161.09 326,-160.08"/>
</a>
</g>
</g>
<!-- Node11 -->
<g id="Node000011" class="node">
<title>Node11</title>
<g id="a_Node000011"><a xlink:href="PdbFileReader_8h.html" target="_top" xlink:title=" ">
<polygon fill="white" stroke="#666666" points="124.12,-129 12.12,-129 12.12,-110 124.12,-110 124.12,-129"/>
<text text-anchor="middle" x="68.12" y="-117" font-family="Helvetica,sans-Serif" font-size="10.00">src/PdbFileReader.h</text>
</a>
</g>
</g>
<!-- Node4&#45;&gt;Node11 -->
<g id="edge10_Node000004_Node000011" class="edge">
<title>Node4&#45;&gt;Node11</title>
<g id="a_edge10_Node000004_Node000011"><a xlink:title=" ">
<path fill="none" stroke="#63b8ff" d="M288.39,-167.71C284.92,-166.76 281.46,-165.84 278.12,-165 221.74,-150.82 156.09,-137.4 113.41,-129.08"/>
<polygon fill="#63b8ff" stroke="#63b8ff" points="287.47,-171.08 298.04,-170.43 289.37,-164.35 287.47,-171.08"/>
</a>
</g>
</g>
<!-- Node6 -->
<g id="Node000006" class="node">
<title>Node6</title>
<g id="a_Node000006"><a xlink:href="DemoResult_8h.html" target="_top" xlink:title=" ">
<polygon fill="white" stroke="#666666" points="814.62,-74 711.62,-74 711.62,-55 814.62,-55 814.62,-74"/>
<text text-anchor="middle" x="763.12" y="-62" font-family="Helvetica,sans-Serif" font-size="10.00">src/DemoResult.h</text>
</a>
</g>
</g>
<!-- Node5&#45;&gt;Node6 -->
<g id="edge5_Node000005_Node000006" class="edge">
<title>Node5&#45;&gt;Node6</title>
<g id="a_edge5_Node000005_Node000006"><a xlink:title=" ">
<path fill="none" stroke="#63b8ff" d="M909.41,-107.18C874.62,-97.27 824.83,-83.08 793.24,-74.08"/>
<polygon fill="#63b8ff" stroke="#63b8ff" points="908.66,-110.61 919.24,-109.98 910.58,-103.88 908.66,-110.61"/>
</a>
</g>
</g>
<!-- Node7 -->
<g id="Node000007" class="node">
<title>Node7</title>
<g id="a_Node000007"><a xlink:href="SpatialIndexResult_8h.html" target="_top" xlink:title=" ">
<polygon fill="white" stroke="#666666" points="1404.12,-74 1270.12,-74 1270.12,-55 1404.12,-55 1404.12,-74"/>
<text text-anchor="middle" x="1337.12" y="-62" font-family="Helvetica,sans-Serif" font-size="10.00">src/SpatialIndexResult.h</text>
</a>
</g>
</g>
<!-- Node5&#45;&gt;Node7 -->
<g id="edge6_Node000005_Node000007" class="edge">
<title>Node5&#45;&gt;Node7</title>
<g id="a_edge6_Node000005_Node000007"><a xlink:title=" ">
<path fill="none" stroke="#63b8ff" d="M1020.19,-108.79C1093.07,-98.84 1205.31,-83.51 1274.82,-74.01"/>
<polygon fill="#63b8ff" stroke="#63b8ff" points="1019.61,-105.34 1010.17,-110.16 1020.56,-112.27 1019.61,-105.34"/>
</a>
</g>
</g>
<!-- Node8 -->
<g id="Node000008" class="node">
<title>Node8</title>
<g id="a_Node000008"><a xlink:href="MolecularGraphResult_8h.html" target="_top" xlink:title=" ">
<polygon fill="white" stroke="#666666" points="1459.62,-19 1308.62,-19 1308.62,0 1459.62,0 1459.62,-19"/>
<text text-anchor="middle" x="1384.12" y="-7" font-family="Helvetica,sans-Serif" font-size="10.00">src/MolecularGraphResult.h</text>
</a>
</g>
</g>
<!-- Node7&#45;&gt;Node8 -->
<g id="edge7_Node000007_Node000008" class="edge">
<title>Node7&#45;&gt;Node8</title>
<g id="a_edge7_Node000007_Node000008"><a xlink:title=" ">
<path fill="none" stroke="#63b8ff" d="M1351.54,-47.24C1359.78,-37.95 1369.78,-26.68 1376.51,-19.09"/>
<polygon fill="#63b8ff" stroke="#63b8ff" points="1348.9,-44.94 1344.88,-54.75 1354.14,-49.59 1348.9,-44.94"/>
</a>
</g>
</g>
<!-- Node11&#45;&gt;Node10 -->
<g id="edge11_Node000011_Node000010" class="edge">
<title>Node11&#45;&gt;Node10</title>
<g id="a_edge11_Node000011_Node000010"><a xlink:title=" ">
<path fill="none" stroke="#63b8ff" d="M68.12,-99.66C68.12,-90.93 68.12,-80.99 68.12,-74.09"/>
<polygon fill="#63b8ff" stroke="#63b8ff" points="64.62,-99.75 68.12,-109.75 71.62,-99.75 64.62,-99.75"/>
</a>
</g>
</g>
<!-- Node12&#45;&gt;Node4 -->
<g id="edge13_Node000012_Node000004" class="edge">
<title>Node12&#45;&gt;Node4</title>
<g id="a_edge13_Node000012_Node000004"><a xlink:title=" ">
<path fill="none" stroke="#63b8ff" d="M477.85,-227.96C441.29,-216.65 386.41,-199.66 353.64,-189.52"/>
<polygon fill="#63b8ff" stroke="#63b8ff" points="477.05,-231.38 487.64,-230.99 479.12,-224.69 477.05,-231.38"/>
</a>
</g>
</g>
<!-- Node14&#45;&gt;Node4 -->
<g id="edge18_Node000014_Node000004" class="edge">
<title>Node14&#45;&gt;Node4</title>
<g id="a_edge18_Node000014_Node000004"><a xlink:title=" ">
<path fill="none" stroke="#63b8ff" d="M199.91,-280.83C179.55,-268.38 156.84,-249.2 170.12,-231 172.07,-228.33 253.54,-203.14 297.95,-189.57"/>
<polygon fill="#63b8ff" stroke="#63b8ff" points="198.26,-283.92 208.67,-285.89 201.76,-277.86 198.26,-283.92"/>
</a>
</g>
</g>
<!-- Node14&#45;&gt;Node15 -->
<g id="edge16_Node000014_Node000015" class="edge">
<title>Node14&#45;&gt;Node15</title>
<g id="a_edge16_Node000014_Node000015"><a xlink:title=" ">
<path fill="none" stroke="#63b8ff" d="M232.07,-275.95C234.89,-267.15 238.13,-257.06 240.37,-250.09"/>
<polygon fill="#63b8ff" stroke="#63b8ff" points="228.65,-275.16 228.93,-285.75 235.32,-277.29 228.65,-275.16"/>
</a>
</g>
</g>
<!-- Node15&#45;&gt;Node4 -->
<g id="edge17_Node000015_Node000004" class="edge">
<title>Node15&#45;&gt;Node4</title>
<g id="a_edge17_Node000015_Node000004"><a xlink:title=" ">
<path fill="none" stroke="#63b8ff" d="M263.91,-224.85C279.63,-213.77 300.69,-198.93 313.82,-189.67"/>
<polygon fill="#63b8ff" stroke="#63b8ff" points="261.53,-222.25 255.37,-230.87 265.56,-227.97 261.53,-222.25"/>
</a>
</g>
</g>
<!-- Node17 -->
<g id="Node000017" class="node">
<title>Node17</title>
<g id="a_Node000017"><a xlink:href="BuildResult_8h.html" target="_top" xlink:title=" ">
<polygon fill="white" stroke="#666666" points="117.12,-189.5 19.12,-189.5 19.12,-170.5 117.12,-170.5 117.12,-189.5"/>
<text text-anchor="middle" x="68.12" y="-177.5" font-family="Helvetica,sans-Serif" font-size="10.00">src/BuildResult.h</text>
</a>
</g>
</g>
<!-- Node16&#45;&gt;Node17 -->
<g id="edge20_Node000016_Node000017" class="edge">
<title>Node16&#45;&gt;Node17</title>
<g id="a_edge20_Node000016_Node000017"><a xlink:title=" ">
<path fill="none" stroke="#63b8ff" d="M68.12,-220.66C68.12,-210.24 68.12,-197.8 68.12,-189.67"/>
<polygon fill="#63b8ff" stroke="#63b8ff" points="64.62,-220.87 68.12,-230.87 71.62,-220.87 64.62,-220.87"/>
</a>
</g>
</g>
<!-- Node18 -->
<g id="Node000018" class="node">
<title>Node18</title>
<g id="a_Node000018"><a xlink:href="OperationRunner_8h.html" target="_top" xlink:title=" ">
<polygon fill="white" stroke="#666666" points="269.62,-189.5 144.62,-189.5 144.62,-170.5 269.62,-170.5 269.62,-189.5"/>
<text text-anchor="middle" x="207.12" y="-177.5" font-family="Helvetica,sans-Serif" font-size="10.00">src/OperationRunner.h</text>
</a>
</g>
</g>
<!-- Node16&#45;&gt;Node18 -->
<g id="edge24_Node000016_Node000018" class="edge">
<title>Node16&#45;&gt;Node18</title>
<g id="a_edge24_Node000016_Node000018"><a xlink:title=" ">
<path fill="none" stroke="#63b8ff" d="M97.63,-227.08C124.48,-215.78 163.4,-199.4 186.89,-189.52"/>
<polygon fill="#63b8ff" stroke="#63b8ff" points="96.19,-223.89 88.33,-230.99 98.91,-230.34 96.19,-223.89"/>
</a>
</g>
</g>
<!-- Node17&#45;&gt;Node9 -->
<g id="edge21_Node000017_Node000009" class="edge">
<title>Node17&#45;&gt;Node9</title>
<g id="a_edge21_Node000017_Node000009"><a xlink:title=" ">
<path fill="none" stroke="#63b8ff" d="M100.86,-166.88C131.41,-155.57 176.19,-138.99 203.12,-129.02"/>
<polygon fill="#63b8ff" stroke="#63b8ff" points="99.26,-163.74 91.1,-170.49 101.69,-170.3 99.26,-163.74"/>
</a>
</g>
</g>
<!-- Node17&#45;&gt;Node10 -->
<g id="edge22_Node000017_Node000010" class="edge">
<title>Node17&#45;&gt;Node10</title>
<g id="a_edge22_Node000017_Node000010"><a xlink:title=" ">
<path fill="none" stroke="#63b8ff" d="M39.67,-165.5C17.16,-152.78 -8.68,-132.39 3.12,-110 12.12,-92.94 30.92,-81.18 46,-74.05"/>
<polygon fill="#63b8ff" stroke="#63b8ff" points="38.21,-168.68 48.68,-170.3 41.51,-162.51 38.21,-168.68"/>
</a>
</g>
</g>
<!-- Node17&#45;&gt;Node11 -->
<g id="edge23_Node000017_Node000011" class="edge">
<title>Node17&#45;&gt;Node11</title>
<g id="a_edge23_Node000017_Node000011"><a xlink:title=" ">
<path fill="none" stroke="#63b8ff" d="M68.12,-160.16C68.12,-149.74 68.12,-137.3 68.12,-129.17"/>
<polygon fill="#63b8ff" stroke="#63b8ff" points="64.62,-160.37 68.12,-170.37 71.62,-160.37 64.62,-160.37"/>
</a>
</g>
</g>
<!-- Node18&#45;&gt;Node9 -->
<g id="edge25_Node000018_Node000009" class="edge">
<title>Node18&#45;&gt;Node9</title>
<g id="a_edge25_Node000018_Node000009"><a xlink:title=" ">
<path fill="none" stroke="#63b8ff" d="M213.03,-160.82C216.45,-150.28 220.61,-137.48 223.31,-129.17"/>
<polygon fill="#63b8ff" stroke="#63b8ff" points="209.69,-159.78 209.93,-170.37 216.34,-161.94 209.69,-159.78"/>
</a>
</g>
</g>
<!-- Node19&#45;&gt;Node20 -->
<g id="edge27_Node000019_Node000020" class="edge">
<title>Node19&#45;&gt;Node20</title>
<g id="a_edge27_Node000019_Node000020"><a xlink:title=" ">
<path fill="none" stroke="#63b8ff" d="M751.72,-282.55C779.39,-272.71 817.97,-258.98 842.75,-250.17"/>
<polygon fill="#63b8ff" stroke="#63b8ff" points="750.31,-279.34 742.06,-285.98 752.66,-285.93 750.31,-279.34"/>
</a>
</g>
</g>
<!-- Node20&#45;&gt;Node4 -->
<g id="edge39_Node000020_Node000004" class="edge">
<title>Node20&#45;&gt;Node4</title>
<g id="a_edge39_Node000020_Node000004"><a xlink:title=" ">
<path fill="none" stroke="#63b8ff" d="M785.02,-236.21C687.59,-231.34 520.52,-219.94 379.12,-195 371.16,-193.59 362.64,-191.58 354.81,-189.51"/>
<polygon fill="#63b8ff" stroke="#63b8ff" points="784.94,-239.71 795.1,-236.7 785.28,-232.72 784.94,-239.71"/>
</a>
</g>
</g>
<!-- Node20&#45;&gt;Node5 -->
<g id="edge34_Node000020_Node000005" class="edge">
<title>Node20&#45;&gt;Node5</title>
<g id="a_edge34_Node000020_Node000005"><a xlink:title=" ">
<path fill="none" stroke="#63b8ff" d="M949.25,-235.76C1012.76,-230.93 1093.27,-219.95 1114.12,-195 1147.23,-155.39 1069.93,-135.94 1010.27,-127.09"/>
<polygon fill="#63b8ff" stroke="#63b8ff" points="948.94,-232.27 939.22,-236.48 949.44,-239.25 948.94,-232.27"/>
</a>
</g>
</g>
<!-- Node20&#45;&gt;Node6 -->
<g id="edge31_Node000020_Node000006" class="edge">
<title>Node20&#45;&gt;Node6</title>
<g id="a_edge31_Node000020_Node000006"><a xlink:title=" ">
<path fill="none" stroke="#63b8ff" d="M784.87,-237.33C660.56,-233.18 436.63,-222.02 412.12,-195 323.87,-97.69 594.14,-73.31 711.53,-67.36"/>
<polygon fill="#63b8ff" stroke="#63b8ff" points="785.01,-240.83 795.11,-237.66 785.23,-233.84 785.01,-240.83"/>
</a>
</g>
</g>
<!-- Node20&#45;&gt;Node7 -->
<g id="edge41_Node000020_Node000007" class="edge">
<title>Node20&#45;&gt;Node7</title>
<g id="a_edge41_Node000020_Node000007"><a xlink:title=" ">
<path fill="none" stroke="#63b8ff" d="M949.3,-238.25C1085.76,-235.31 1346.99,-225.71 1375.12,-195 1407.73,-159.41 1363.25,-97.24 1344.64,-74.32"/>
<polygon fill="#63b8ff" stroke="#63b8ff" points="949.22,-234.75 939.29,-238.46 949.36,-241.75 949.22,-234.75"/>
</a>
</g>
</g>
<!-- Node20&#45;&gt;Node8 -->
<g id="edge35_Node000020_Node000008" class="edge">
<title>Node20&#45;&gt;Node8</title>
<g id="a_edge35_Node000020_Node000008"><a xlink:title=" ">
<path fill="none" stroke="#63b8ff" d="M949.59,-238.08C1089.98,-234.85 1363.38,-224.78 1395.12,-195 1440.87,-152.07 1430.99,-115.14 1413.12,-55 1409.03,-41.21 1399.15,-27.7 1392.06,-19.25"/>
<polygon fill="#63b8ff" stroke="#63b8ff" points="949.22,-234.58 939.3,-238.31 949.38,-241.58 949.22,-234.58"/>
</a>
</g>
</g>
<!-- Node20&#45;&gt;Node18 -->
<g id="edge37_Node000020_Node000018" class="edge">
<title>Node20&#45;&gt;Node18</title>
<g id="a_edge37_Node000020_Node000018"><a xlink:title=" ">
<path fill="none" stroke="#63b8ff" d="M784.68,-236.38C670.48,-231.34 457.89,-219.43 278.12,-195 267.66,-193.58 256.43,-191.58 246.04,-189.54"/>
<polygon fill="#63b8ff" stroke="#63b8ff" points="784.6,-239.88 794.75,-236.81 784.91,-232.88 784.6,-239.88"/>
</a>
</g>
</g>
<!-- Node21 -->
<g id="Node000021" class="node">
<title>Node21</title>
<g id="a_Node000021"><a xlink:href="ApbsFieldResult_8h.html" target="_top" xlink:title=" ">
<polygon fill="white" stroke="#666666" points="1339.62,-129 1218.62,-129 1218.62,-110 1339.62,-110 1339.62,-129"/>
<text text-anchor="middle" x="1279.12" y="-117" font-family="Helvetica,sans-Serif" font-size="10.00">src/ApbsFieldResult.h</text>
</a>
</g>
</g>
<!-- Node20&#45;&gt;Node21 -->
<g id="edge28_Node000020_Node000021" class="edge">
<title>Node20&#45;&gt;Node21</title>
<g id="a_edge28_Node000020_Node000021"><a xlink:title=" ">
<path fill="none" stroke="#63b8ff" d="M949.46,-232.19C1002.57,-225.9 1072.6,-214.62 1132.12,-195 1160.06,-185.79 1164.88,-178.3 1191.12,-165 1215.86,-152.46 1244.53,-137.97 1262.25,-129.02"/>
<polygon fill="#63b8ff" stroke="#63b8ff" points="948.94,-228.73 939.4,-233.35 949.74,-235.68 948.94,-228.73"/>
</a>
</g>
</g>
<!-- Node22 -->
<g id="Node000022" class="node">
<title>Node22</title>
<g id="a_Node000022"><a xlink:href="ChargeAssignmentResult_8h.html" target="_top" xlink:title=" ">
<polygon fill="white" stroke="#666666" points="1366.12,-189.5 1200.12,-189.5 1200.12,-170.5 1366.12,-170.5 1366.12,-189.5"/>
<text text-anchor="middle" x="1283.12" y="-177.5" font-family="Helvetica,sans-Serif" font-size="10.00">src/ChargeAssignmentResult.h</text>
</a>
</g>
</g>
<!-- Node20&#45;&gt;Node22 -->
<g id="edge29_Node000020_Node000022" class="edge">
<title>Node20&#45;&gt;Node22</title>
<g id="a_edge29_Node000020_Node000022"><a xlink:title=" ">
<path fill="none" stroke="#63b8ff" d="M938.97,-229.58C1003.63,-220.62 1101.25,-207.04 1186.12,-195 1198.5,-193.24 1211.77,-191.34 1224.4,-189.52"/>
<polygon fill="#63b8ff" stroke="#63b8ff" points="938.31,-226.13 928.88,-230.97 939.27,-233.07 938.31,-226.13"/>
</a>
</g>
</g>
<!-- Node23 -->
<g id="Node000023" class="node">
<title>Node23</title>
<g id="a_Node000023"><a xlink:href="DsspResult_8h.html" target="_top" xlink:title=" ">
<polygon fill="white" stroke="#666666" points="519.12,-189.5 421.12,-189.5 421.12,-170.5 519.12,-170.5 519.12,-189.5"/>
<text text-anchor="middle" x="470.12" y="-177.5" font-family="Helvetica,sans-Serif" font-size="10.00">src/DsspResult.h</text>
</a>
</g>
</g>
<!-- Node20&#45;&gt;Node23 -->
<g id="edge32_Node000020_Node000023" class="edge">
<title>Node20&#45;&gt;Node23</title>
<g id="a_edge32_Node000020_Node000023"><a xlink:title=" ">
<path fill="none" stroke="#63b8ff" d="M784.67,-231.16C715.78,-223.6 615.14,-211.17 528.12,-195 519.87,-193.47 511.04,-191.5 502.81,-189.53"/>
<polygon fill="#63b8ff" stroke="#63b8ff" points="784.7,-234.68 795.02,-232.28 785.46,-227.72 784.7,-234.68"/>
</a>
</g>
</g>
<!-- Node24 -->
<g id="Node000024" class="node">
<title>Node24</title>
<g id="a_Node000024"><a xlink:href="EnrichmentResult_8h.html" target="_top" xlink:title=" ">
<polygon fill="white" stroke="#666666" points="666.62,-189.5 537.62,-189.5 537.62,-170.5 666.62,-170.5 666.62,-189.5"/>
<text text-anchor="middle" x="602.12" y="-177.5" font-family="Helvetica,sans-Serif" font-size="10.00">src/EnrichmentResult.h</text>
</a>
</g>
</g>
<!-- Node20&#45;&gt;Node24 -->
<g id="edge33_Node000020_Node000024" class="edge">
<title>Node20&#45;&gt;Node24</title>
<g id="a_edge33_Node000020_Node000024"><a xlink:title=" ">
<path fill="none" stroke="#63b8ff" d="M818.75,-228.82C767.57,-217.52 687.83,-199.92 640.7,-189.52"/>
<polygon fill="#63b8ff" stroke="#63b8ff" points="818.07,-232.26 828.59,-230.99 819.58,-225.42 818.07,-232.26"/>
</a>
</g>
</g>
<!-- Node25 -->
<g id="Node000025" class="node">
<title>Node25</title>
<g id="a_Node000025"><a xlink:href="MopacResult_8h.html" target="_top" xlink:title=" ">
<polygon fill="white" stroke="#666666" points="791.12,-189.5 685.12,-189.5 685.12,-170.5 791.12,-170.5 791.12,-189.5"/>
<text text-anchor="middle" x="738.12" y="-177.5" font-family="Helvetica,sans-Serif" font-size="10.00">src/MopacResult.h</text>
</a>
</g>
</g>
<!-- Node20&#45;&gt;Node25 -->
<g id="edge36_Node000020_Node000025" class="edge">
<title>Node20&#45;&gt;Node25</title>
<g id="a_edge36_Node000020_Node000025"><a xlink:title=" ">
<path fill="none" stroke="#63b8ff" d="M839.08,-226.78C814.19,-215.49 778.5,-199.31 756.9,-189.52"/>
<polygon fill="#63b8ff" stroke="#63b8ff" points="837.81,-230.05 848.36,-230.99 840.7,-223.68 837.81,-230.05"/>
</a>
</g>
</g>
<!-- Node26 -->
<g id="Node000026" class="node">
<title>Node26</title>
<g id="a_Node000026"><a xlink:href="OrcaShieldingResult_8h.html" target="_top" xlink:title=" ">
<polygon fill="white" stroke="#666666" points="950.62,-189.5 809.62,-189.5 809.62,-170.5 950.62,-170.5 950.62,-189.5"/>
<text text-anchor="middle" x="880.12" y="-177.5" font-family="Helvetica,sans-Serif" font-size="10.00">src/OrcaShieldingResult.h</text>
</a>
</g>
</g>
<!-- Node20&#45;&gt;Node26 -->
<g id="edge38_Node000020_Node000026" class="edge">
<title>Node20&#45;&gt;Node26</title>
<g id="a_edge38_Node000020_Node000026"><a xlink:title=" ">
<path fill="none" stroke="#63b8ff" d="M871.23,-220.99C873.56,-210.51 876.37,-197.89 878.2,-189.67"/>
<polygon fill="#63b8ff" stroke="#63b8ff" points="867.79,-220.35 869.04,-230.87 874.63,-221.87 867.79,-220.35"/>
</a>
</g>
</g>
<!-- Node27 -->
<g id="Node000027" class="node">
<title>Node27</title>
<g id="a_Node000027"><a xlink:href="ProtonationDetectionResult_8h.html" target="_top" xlink:title=" ">
<polygon fill="white" stroke="#666666" points="1105.62,-195 968.62,-195 968.62,-165 1105.62,-165 1105.62,-195"/>
<text text-anchor="start" x="976.62" y="-183" font-family="Helvetica,sans-Serif" font-size="10.00">src/ProtonationDetection</text>
<text text-anchor="middle" x="1037.12" y="-172" font-family="Helvetica,sans-Serif" font-size="10.00">Result.h</text>
</a>
</g>
</g>
<!-- Node20&#45;&gt;Node27 -->
<g id="edge40_Node000020_Node000027" class="edge">
<title>Node20&#45;&gt;Node27</title>
<g id="a_edge40_Node000020_Node000027"><a xlink:title=" ">
<path fill="none" stroke="#63b8ff" d="M901.39,-227.71C928.78,-218.28 967.26,-205.04 996.25,-195.06"/>
<polygon fill="#63b8ff" stroke="#63b8ff" points="900.16,-224.43 891.84,-230.99 902.44,-231.05 900.16,-224.43"/>
</a>
</g>
</g>
<!-- Node22&#45;&gt;Node21 -->
<g id="edge30_Node000022_Node000021" class="edge">
<title>Node22&#45;&gt;Node21</title>
<g id="a_edge30_Node000022_Node000021"><a xlink:title=" ">
<path fill="none" stroke="#63b8ff" d="M1281.83,-160.16C1281.12,-149.74 1280.27,-137.3 1279.71,-129.17"/>
<polygon fill="#63b8ff" stroke="#63b8ff" points="1278.36,-160.63 1282.53,-170.37 1285.34,-160.15 1278.36,-160.63"/>
</a>
</g>
</g>
<!-- Node30&#45;&gt;Node20 -->
<g id="edge46_Node000030_Node000020" class="edge">
<title>Node30&#45;&gt;Node20</title>
<g id="a_edge46_Node000030_Node000020"><a xlink:title=" ">
<path fill="none" stroke="#63b8ff" d="M867.12,-275.66C867.12,-266.93 867.12,-256.99 867.12,-250.09"/>
<polygon fill="#63b8ff" stroke="#63b8ff" points="863.62,-275.75 867.12,-285.75 870.62,-275.75 863.62,-275.75"/>
</a>
</g>
</g>
<!-- Node41 -->
<g id="Node000041" class="node">
<title>Node41</title>
<g id="a_Node000041"><a xlink:href="Protonator_8h.html" target="_top" xlink:title=" ">
<polygon fill="white" stroke="#666666" points="2888.62,-250 2795.62,-250 2795.62,-231 2888.62,-231 2888.62,-250"/>
<text text-anchor="middle" x="2842.12" y="-238" font-family="Helvetica,sans-Serif" font-size="10.00">src/Protonator.h</text>
</a>
</g>
</g>
<!-- Node40&#45;&gt;Node41 -->
<g id="edge59_Node000040_Node000041" class="edge">
<title>Node40&#45;&gt;Node41</title>
<g id="a_edge59_Node000040_Node000041"><a xlink:title=" ">
<path fill="none" stroke="#63b8ff" d="M2842.12,-275.66C2842.12,-266.93 2842.12,-256.99 2842.12,-250.09"/>
<polygon fill="#63b8ff" stroke="#63b8ff" points="2838.62,-275.75 2842.12,-285.75 2845.62,-275.75 2838.62,-275.75"/>
</a>
</g>
</g>
<!-- Node42 -->
<g id="Node000042" class="node">
<title>Node42</title>
<g id="a_Node000042"><a xlink:href="KamlProtonator_8h.html" target="_top" xlink:title=" ">
<polygon fill="white" stroke="#666666" points="2901.62,-129 2782.62,-129 2782.62,-110 2901.62,-110 2901.62,-129"/>
<text text-anchor="middle" x="2842.12" y="-117" font-family="Helvetica,sans-Serif" font-size="10.00">src/KamlProtonator.h</text>
</a>
</g>
</g>
<!-- Node41&#45;&gt;Node42 -->
<g id="edge60_Node000041_Node000042" class="edge">
<title>Node41&#45;&gt;Node42</title>
<g id="a_edge60_Node000041_Node000042"><a xlink:title=" ">
<path fill="none" stroke="#63b8ff" d="M2829.4,-222.61C2824.19,-214.67 2818.78,-204.81 2816.12,-195 2812.64,-182.13 2812.64,-177.87 2816.12,-165 2819.82,-151.35 2828.85,-137.6 2835.23,-129.07"/>
<polygon fill="#63b8ff" stroke="#63b8ff" points="2826.62,-224.75 2835.23,-230.93 2832.36,-220.73 2826.62,-224.75"/>
</a>
</g>
</g>
<!-- Node43 -->
<g id="Node000043" class="node">
<title>Node43</title>
<g id="a_Node000043"><a xlink:href="PropkaProtonator_8h.html" target="_top" xlink:title=" ">
<polygon fill="white" stroke="#666666" points="2951.12,-189.5 2825.12,-189.5 2825.12,-170.5 2951.12,-170.5 2951.12,-189.5"/>
<text text-anchor="middle" x="2888.12" y="-177.5" font-family="Helvetica,sans-Serif" font-size="10.00">src/PropkaProtonator.h</text>
</a>
</g>
</g>
<!-- Node41&#45;&gt;Node43 -->
<g id="edge61_Node000041_Node000043" class="edge">
<title>Node41&#45;&gt;Node43</title>
<g id="a_edge61_Node000041_Node000043"><a xlink:title=" ">
<path fill="none" stroke="#63b8ff" d="M2855.13,-222.95C2863.65,-212.12 2874.43,-198.41 2881.31,-189.67"/>
<polygon fill="#63b8ff" stroke="#63b8ff" points="2852.34,-220.84 2848.91,-230.87 2857.84,-225.17 2852.34,-220.84"/>
</a>
</g>
</g>
<!-- Node43&#45;&gt;Node42 -->
<g id="edge62_Node000043_Node000042" class="edge">
<title>Node43&#45;&gt;Node42</title>
<g id="a_edge62_Node000043_Node000042"><a xlink:title=" ">
<path fill="none" stroke="#63b8ff" d="M2875.11,-162.45C2866.59,-151.62 2855.81,-137.91 2848.94,-129.17"/>
<polygon fill="#63b8ff" stroke="#63b8ff" points="2872.4,-164.67 2881.33,-170.37 2877.9,-160.34 2872.4,-164.67"/>
</a>
</g>
</g>
<!-- Node44&#45;&gt;Node4 -->
<g id="edge65_Node000044_Node000004" class="edge">
<title>Node44&#45;&gt;Node4</title>
<g id="a_edge65_Node000044_Node000004"><a xlink:title=" ">
<path fill="none" stroke="#63b8ff" d="M592.18,-276.46C585.62,-261.89 574.35,-242.06 558.12,-231 491.05,-185.32 458.16,-213.37 379.12,-195 371.98,-193.34 364.35,-191.41 357.15,-189.53"/>
<polygon fill="#63b8ff" stroke="#63b8ff" points="589.05,-278.05 596.13,-285.94 595.51,-275.36 589.05,-278.05"/>
</a>
</g>
</g>
<!-- Node44&#45;&gt;Node20 -->
<g id="edge66_Node000044_Node000020" class="edge">
<title>Node44&#45;&gt;Node20</title>
<g id="a_edge66_Node000044_Node000020"><a xlink:title=" ">
<path fill="none" stroke="#63b8ff" d="M641.49,-285.94C710.99,-272.07 779.87,-258.55 823.36,-250.05"/>
<polygon fill="#63b8ff" stroke="#63b8ff" points="640.8,-282.5 631.68,-287.89 642.17,-289.37 640.8,-282.5"/>
</a>
</g>
</g>
</g>
</svg>
