<?xml version="1.0" encoding="UTF-8" standalone="no"?>
<!DOCTYPE svg PUBLIC "-//W3C//DTD SVG 1.1//EN"
 "http://www.w3.org/Graphics/SVG/1.1/DTD/svg11.dtd">
<!-- Generated by graphviz version 2.43.0 (0)
 -->
<!-- Title: src/BackboneRibbonOverlay.cpp Pages: 1 -->
<svg width="2216pt" height="137pt"
 viewBox="0.00 0.00 2215.50 137.00" xmlns="http://www.w3.org/2000/svg" xmlns:xlink="http://www.w3.org/1999/xlink">
<g id="graph0" class="graph" transform="scale(1 1) rotate(0) translate(4 133)">
<title>src/BackboneRibbonOverlay.cpp</title>
<!-- Node1 -->
<g id="Node000001" class="node">
<title>Node1</title>
<g id="a_Node000001"><a xlink:title=" ">
<polygon fill="#999999" stroke="#666666" points="1221.5,-129 1048.5,-129 1048.5,-110 1221.5,-110 1221.5,-129"/>
<text text-anchor="middle" x="1135" y="-117" font-family="Helvetica,sans-Serif" font-size="10.00">src/BackboneRibbonOverlay.cpp</text>
</a>
</g>
</g>
<!-- Node2 -->
<g id="Node000002" class="node">
<title>Node2</title>
<g id="a_Node000002"><a xlink:href="BackboneRibbonOverlay_8h.html" target="_top" xlink:title=" ">
<polygon fill="white" stroke="#666666" points="237,-74 93,-74 93,-55 237,-55 237,-74"/>
<text text-anchor="middle" x="165" y="-62" font-family="Helvetica,sans-Serif" font-size="10.00">BackboneRibbonOverlay.h</text>
</a>
</g>
</g>
<!-- Node1&#45;&gt;Node2 -->
<g id="edge1_Node000001_Node000002" class="edge">
<title>Node1&#45;&gt;Node2</title>
<g id="a_edge1_Node000001_Node000002"><a xlink:title=" ">
<path fill="none" stroke="#63b8ff" d="M1048.46,-115.74C891.18,-110.37 547.72,-97.06 247.61,-74.08"/>
<polygon fill="#63b8ff" stroke="#63b8ff" points="247.65,-70.57 237.41,-73.3 247.11,-77.55 247.65,-70.57"/>
</a>
</g>
</g>
<!-- Node6 -->
<g id="Node000006" class="node">
<title>Node6</title>
<g id="a_Node000006"><a xlink:title=" ">
<polygon fill="#e0e0e0" stroke="#999999" points="315,-74 255,-74 255,-55 315,-55 315,-74"/>
<text text-anchor="middle" x="285" y="-62" font-family="Helvetica,sans-Serif" font-size="10.00">Protein.h</text>
</a>
</g>
</g>
<!-- Node1&#45;&gt;Node6 -->
<g id="edge5_Node000001_Node000006" class="edge">
<title>Node1&#45;&gt;Node6</title>
<g id="a_edge5_Node000001_Node000006"><a xlink:title=" ">
<path fill="none" stroke="#63b8ff" d="M1048.28,-118.12C899.6,-116.49 586.77,-108.79 325,-74 324.9,-73.99 324.8,-73.97 324.7,-73.96"/>
<polygon fill="#63b8ff" stroke="#63b8ff" points="325.48,-70.54 315.05,-72.41 324.37,-77.45 325.48,-70.54"/>
</a>
</g>
</g>
<!-- Node7 -->
<g id="Node000007" class="node">
<title>Node7</title>
<g id="a_Node000007"><a xlink:title=" ">
<polygon fill="#e0e0e0" stroke="#999999" points="460.5,-74 333.5,-74 333.5,-55 460.5,-55 460.5,-74"/>
<text text-anchor="middle" x="397" y="-62" font-family="Helvetica,sans-Serif" font-size="10.00">ProteinConformation.h</text>
</a>
</g>
</g>
<!-- Node1&#45;&gt;Node7 -->
<g id="edge6_Node000001_Node000007" class="edge">
<title>Node1&#45;&gt;Node7</title>
<g id="a_edge6_Node000001_Node000007"><a xlink:title=" ">
<path fill="none" stroke="#63b8ff" d="M1048.28,-114.06C923.22,-107.35 684.72,-93.42 470.85,-74.03"/>
<polygon fill="#63b8ff" stroke="#63b8ff" points="470.96,-70.52 460.68,-73.1 470.32,-77.5 470.96,-70.52"/>
</a>
</g>
</g>
<!-- Node8 -->
<g id="Node000008" class="node">
<title>Node8</title>
<g id="a_Node000008"><a xlink:title=" ">
<polygon fill="#e0e0e0" stroke="#999999" points="597.5,-74 478.5,-74 478.5,-55 597.5,-55 597.5,-74"/>
<text text-anchor="middle" x="538" y="-62" font-family="Helvetica,sans-Serif" font-size="10.00">ConformationAtom.h</text>
</a>
</g>
</g>
<!-- Node1&#45;&gt;Node8 -->
<g id="edge7_Node000001_Node000008" class="edge">
<title>Node1&#45;&gt;Node8</title>
<g id="a_edge7_Node000001_Node000008"><a xlink:title=" ">
<path fill="none" stroke="#63b8ff" d="M1048.48,-112.23C945.96,-104.58 769.73,-90.69 607.96,-74.06"/>
<polygon fill="#63b8ff" stroke="#63b8ff" points="608.13,-70.56 597.82,-73.01 607.41,-77.52 608.13,-70.56"/>
</a>
</g>
</g>
<!-- Node9 -->
<g id="Node000009" class="node">
<title>Node9</title>
<g id="a_Node000009"><a xlink:title=" ">
<polygon fill="#e0e0e0" stroke="#999999" points="668,-74 616,-74 616,-55 668,-55 668,-74"/>
<text text-anchor="middle" x="642" y="-62" font-family="Helvetica,sans-Serif" font-size="10.00">Atom.h</text>
</a>
</g>
</g>
<!-- Node1&#45;&gt;Node9 -->
<g id="edge8_Node000001_Node000009" class="edge">
<title>Node1&#45;&gt;Node9</title>
<g id="a_edge8_Node000001_Node000009"><a xlink:title=" ">
<path fill="none" stroke="#63b8ff" d="M1048.21,-113.54C958.2,-107.61 813.27,-95.83 678.37,-73.81"/>
<polygon fill="#63b8ff" stroke="#63b8ff" points="678.7,-70.31 668.26,-72.13 677.56,-77.22 678.7,-70.31"/>
</a>
</g>
</g>
<!-- Node10 -->
<g id="Node000010" class="node">
<title>Node10</title>
<g id="a_Node000010"><a xlink:title=" ">
<polygon fill="#e0e0e0" stroke="#999999" points="751.5,-74 686.5,-74 686.5,-55 751.5,-55 751.5,-74"/>
<text text-anchor="middle" x="719" y="-62" font-family="Helvetica,sans-Serif" font-size="10.00">Residue.h</text>
</a>
</g>
</g>
<!-- Node1&#45;&gt;Node10 -->
<g id="edge9_Node000001_Node000010" class="edge">
<title>Node1&#45;&gt;Node10</title>
<g id="a_edge9_Node000001_Node000010"><a xlink:title=" ">
<path fill="none" stroke="#63b8ff" d="M1048.19,-110.19C974.59,-102.68 866.02,-90.51 761.6,-73.97"/>
<polygon fill="#63b8ff" stroke="#63b8ff" points="761.94,-70.48 751.51,-72.35 760.83,-77.39 761.94,-70.48"/>
</a>
</g>
</g>
<!-- Node11 -->
<g id="Node000011" class="node">
<title>Node11</title>
<g id="a_Node000011"><a xlink:title=" ">
<polygon fill="#e0e0e0" stroke="#999999" points="850,-74 770,-74 770,-55 850,-55 850,-74"/>
<text text-anchor="middle" x="810" y="-62" font-family="Helvetica,sans-Serif" font-size="10.00">DsspResult.h</text>
</a>
</g>
</g>
<!-- Node1&#45;&gt;Node11 -->
<g id="edge10_Node000001_Node000011" class="edge">
<title>Node1&#45;&gt;Node11</title>
<g id="a_edge10_Node000001_Node000011"><a xlink:title=" ">
<path fill="none" stroke="#63b8ff" d="M1081.49,-109.97C1026.06,-101.1 936.94,-86.76 860,-74 859.9,-73.98 859.8,-73.97 859.7,-73.95"/>
<polygon fill="#63b8ff" stroke="#63b8ff" points="860.55,-70.54 850.11,-72.35 859.4,-77.45 860.55,-70.54"/>
</a>
</g>
</g>
<!-- Node12 -->
<g id="Node000012" class="node">
<title>Node12</title>
<g id="a_Node000012"><a xlink:title=" ">
<polygon fill="#e0e0e0" stroke="#999999" points="921.5,-74 868.5,-74 868.5,-55 921.5,-55 921.5,-74"/>
<text text-anchor="middle" x="895" y="-62" font-family="Helvetica,sans-Serif" font-size="10.00">Types.h</text>
</a>
</g>
</g>
<!-- Node1&#45;&gt;Node12 -->
<g id="edge11_Node000001_Node000012" class="edge">
<title>Node1&#45;&gt;Node12</title>
<g id="a_edge11_Node000001_Node000012"><a xlink:title=" ">
<path fill="none" stroke="#63b8ff" d="M1094.7,-109.92C1055.61,-101.55 994.35,-88.32 931.78,-74.15"/>
<polygon fill="#63b8ff" stroke="#63b8ff" points="932.25,-70.66 921.72,-71.86 930.7,-77.49 932.25,-70.66"/>
</a>
</g>
</g>
<!-- Node13 -->
<g id="Node000013" class="node">
<title>Node13</title>
<g id="a_Node000013"><a xlink:title=" ">
<polygon fill="#e0e0e0" stroke="#999999" points="1074,-74 940,-74 940,-55 1074,-55 1074,-74"/>
<text text-anchor="middle" x="1007" y="-62" font-family="Helvetica,sans-Serif" font-size="10.00">vtkProteinRibbonFilter.h</text>
</a>
</g>
</g>
<!-- Node1&#45;&gt;Node13 -->
<g id="edge12_Node000001_Node000013" class="edge">
<title>Node1&#45;&gt;Node13</title>
<g id="a_edge12_Node000001_Node000013"><a xlink:title=" ">
<path fill="none" stroke="#63b8ff" d="M1114.43,-109.98C1093.57,-101.34 1061.03,-87.87 1037.23,-78.02"/>
<polygon fill="#63b8ff" stroke="#63b8ff" points="1038.52,-74.76 1027.94,-74.17 1035.84,-81.23 1038.52,-74.76"/>
</a>
</g>
</g>
<!-- Node14 -->
<g id="Node000014" class="node">
<title>Node14</title>
<g id="a_Node000014"><a xlink:title=" ">
<polygon fill="#e0e0e0" stroke="#999999" points="1178,-74 1092,-74 1092,-55 1178,-55 1178,-74"/>
<text text-anchor="middle" x="1135" y="-62" font-family="Helvetica,sans-Serif" font-size="10.00">vtkPolyData.h</text>
</a>
</g>
</g>
<!-- Node1&#45;&gt;Node14 -->
<g id="edge13_Node000001_Node000014" class="edge">
<title>Node1&#45;&gt;Node14</title>
<g id="a_edge13_Node000001_Node000014"><a xlink:title=" ">
<path fill="none" stroke="#63b8ff" d="M1135,-109.75C1135,-102.8 1135,-92.85 1135,-84.13"/>
<polygon fill="#63b8ff" stroke="#63b8ff" points="1138.5,-84.09 1135,-74.09 1131.5,-84.09 1138.5,-84.09"/>
</a>
</g>
</g>
<!-- Node15 -->
<g id="Node000015" class="node">
<title>Node15</title>
<g id="a_Node000015"><a xlink:title=" ">
<polygon fill="#e0e0e0" stroke="#999999" points="1318,-74 1196,-74 1196,-55 1318,-55 1318,-74"/>
<text text-anchor="middle" x="1257" y="-62" font-family="Helvetica,sans-Serif" font-size="10.00">vtkPolyDataMapper.h</text>
</a>
</g>
</g>
<!-- Node1&#45;&gt;Node15 -->
<g id="edge14_Node000001_Node000015" class="edge">
<title>Node1&#45;&gt;Node15</title>
<g id="a_edge14_Node000001_Node000015"><a xlink:title=" ">
<path fill="none" stroke="#63b8ff" d="M1154.6,-109.98C1174.32,-101.42 1204.95,-88.11 1227.58,-78.28"/>
<polygon fill="#63b8ff" stroke="#63b8ff" points="1229.26,-81.37 1237.04,-74.17 1226.48,-74.94 1229.26,-81.37"/>
</a>
</g>
</g>
<!-- Node16 -->
<g id="Node000016" class="node">
<title>Node16</title>
<g id="a_Node000016"><a xlink:title=" ">
<polygon fill="#e0e0e0" stroke="#999999" points="1407.5,-74 1336.5,-74 1336.5,-55 1407.5,-55 1407.5,-74"/>
<text text-anchor="middle" x="1372" y="-62" font-family="Helvetica,sans-Serif" font-size="10.00">vtkPoints.h</text>
</a>
</g>
</g>
<!-- Node1&#45;&gt;Node16 -->
<g id="edge15_Node000001_Node000016" class="edge">
<title>Node1&#45;&gt;Node16</title>
<g id="a_edge15_Node000001_Node000016"><a xlink:title=" ">
<path fill="none" stroke="#63b8ff" d="M1173.08,-109.98C1214.84,-100.65 1281.82,-85.67 1326.37,-75.71"/>
<polygon fill="#63b8ff" stroke="#63b8ff" points="1327.35,-79.07 1336.34,-73.47 1325.82,-72.24 1327.35,-79.07"/>
</a>
</g>
</g>
<!-- Node17 -->
<g id="Node000017" class="node">
<title>Node17</title>
<g id="a_Node000017"><a xlink:title=" ">
<polygon fill="#e0e0e0" stroke="#999999" points="1514.5,-74 1425.5,-74 1425.5,-55 1514.5,-55 1514.5,-74"/>
<text text-anchor="middle" x="1470" y="-62" font-family="Helvetica,sans-Serif" font-size="10.00">vtkPointData.h</text>
</a>
</g>
</g>
<!-- Node1&#45;&gt;Node17 -->
<g id="edge16_Node000001_Node000017" class="edge">
<title>Node1&#45;&gt;Node17</title>
<g id="a_edge16_Node000001_Node000017"><a xlink:title=" ">
<path fill="none" stroke="#63b8ff" d="M1189.33,-109.97C1243.96,-101.38 1330.89,-87.69 1415.44,-74.25"/>
<polygon fill="#63b8ff" stroke="#63b8ff" points="1416.14,-77.68 1425.47,-72.65 1415.04,-70.76 1416.14,-77.68"/>
</a>
</g>
</g>
<!-- Node18 -->
<g id="Node000018" class="node">
<title>Node18</title>
<g id="a_Node000018"><a xlink:title=" ">
<polygon fill="#e0e0e0" stroke="#999999" points="1627.5,-74 1532.5,-74 1532.5,-55 1627.5,-55 1627.5,-74"/>
<text text-anchor="middle" x="1580" y="-62" font-family="Helvetica,sans-Serif" font-size="10.00">vtkStringArray.h</text>
</a>
</g>
</g>
<!-- Node1&#45;&gt;Node18 -->
<g id="edge17_Node000001_Node000018" class="edge">
<title>Node1&#45;&gt;Node18</title>
<g id="a_edge17_Node000001_Node000018"><a xlink:title=" ">
<path fill="none" stroke="#63b8ff" d="M1217.07,-110C1293.56,-101.87 1411.08,-88.86 1522.31,-74.19"/>
<polygon fill="#63b8ff" stroke="#63b8ff" points="1522.91,-77.64 1532.36,-72.85 1521.98,-70.7 1522.91,-77.64"/>
</a>
</g>
</g>
<!-- Node19 -->
<g id="Node000019" class="node">
<title>Node19</title>
<g id="a_Node000019"><a xlink:title=" ">
<polygon fill="#e0e0e0" stroke="#999999" points="1744,-74 1646,-74 1646,-55 1744,-55 1744,-74"/>
<text text-anchor="middle" x="1695" y="-62" font-family="Helvetica,sans-Serif" font-size="10.00">vtkIdTypeArray.h</text>
</a>
</g>
</g>
<!-- Node1&#45;&gt;Node19 -->
<g id="edge18_Node000001_Node000019" class="edge">
<title>Node1&#45;&gt;Node19</title>
<g id="a_edge18_Node000001_Node000019"><a xlink:title=" ">
<path fill="none" stroke="#63b8ff" d="M1221.77,-112.32C1319.81,-105 1484.41,-91.67 1636.01,-74.05"/>
<polygon fill="#63b8ff" stroke="#63b8ff" points="1636.45,-77.52 1645.98,-72.89 1635.64,-70.57 1636.45,-77.52"/>
</a>
</g>
</g>
<!-- Node20 -->
<g id="Node000020" class="node">
<title>Node20</title>
<g id="a_Node000020"><a xlink:title=" ">
<polygon fill="#e0e0e0" stroke="#999999" points="1896,-74 1762,-74 1762,-55 1896,-55 1896,-74"/>
<text text-anchor="middle" x="1829" y="-62" font-family="Helvetica,sans-Serif" font-size="10.00">vtkUnsignedCharArray.h</text>
</a>
</g>
</g>
<!-- Node1&#45;&gt;Node20 -->
<g id="edge19_Node000001_Node000020" class="edge">
<title>Node1&#45;&gt;Node20</title>
<g id="a_edge19_Node000001_Node000020"><a xlink:title=" ">
<path fill="none" stroke="#63b8ff" d="M1221.57,-113.35C1339.14,-106.11 1556.09,-91.89 1751.7,-74.08"/>
<polygon fill="#63b8ff" stroke="#63b8ff" points="1752.24,-77.55 1761.88,-73.15 1751.6,-70.58 1752.24,-77.55"/>
</a>
</g>
</g>
<!-- Node21 -->
<g id="Node000021" class="node">
<title>Node21</title>
<g id="a_Node000021"><a xlink:title=" ">
<polygon fill="#e0e0e0" stroke="#999999" points="1995.5,-74 1914.5,-74 1914.5,-55 1995.5,-55 1995.5,-74"/>
<text text-anchor="middle" x="1955" y="-62" font-family="Helvetica,sans-Serif" font-size="10.00">vtkProperty.h</text>
</a>
</g>
</g>
<!-- Node1&#45;&gt;Node21 -->
<g id="edge20_Node000001_Node000021" class="edge">
<title>Node1&#45;&gt;Node21</title>
<g id="a_edge20_Node000001_Node000021"><a xlink:title=" ">
<path fill="none" stroke="#63b8ff" d="M1221.58,-116.62C1362.49,-112.86 1650.31,-102.32 1904.24,-73.94"/>
<polygon fill="#63b8ff" stroke="#63b8ff" points="1904.85,-77.39 1914.39,-72.79 1904.06,-70.43 1904.85,-77.39"/>
</a>
</g>
</g>
<!-- Node22 -->
<g id="Node000022" class="node">
<title>Node22</title>
<g id="a_Node000022"><a xlink:title=" ">
<polygon fill="#e0e0e0" stroke="#999999" points="2076,-74 2014,-74 2014,-55 2076,-55 2076,-74"/>
<text text-anchor="middle" x="2045" y="-62" font-family="Helvetica,sans-Serif" font-size="10.00">vtkNew.h</text>
</a>
</g>
</g>
<!-- Node1&#45;&gt;Node22 -->
<g id="edge21_Node000001_Node000022" class="edge">
<title>Node1&#45;&gt;Node22</title>
<g id="a_edge21_Node000001_Node000022"><a xlink:title=" ">
<path fill="none" stroke="#63b8ff" d="M1221.54,-118.6C1376.57,-117.77 1711.91,-111.5 2003.29,-74"/>
<polygon fill="#63b8ff" stroke="#63b8ff" points="2004.17,-77.42 2013.64,-72.65 2003.27,-70.47 2004.17,-77.42"/>
</a>
</g>
</g>
<!-- Node23 -->
<g id="Node000023" class="node">
<title>Node23</title>
<g id="a_Node000023"><a xlink:title=" ">
<polygon fill="#e0e0e0" stroke="#999999" points="2207.5,-74 2094.5,-74 2094.5,-55 2207.5,-55 2207.5,-74"/>
<text text-anchor="middle" x="2151" y="-62" font-family="Helvetica,sans-Serif" font-size="10.00">vtkTrivialProducer.h</text>
</a>
</g>
</g>
<!-- Node1&#45;&gt;Node23 -->
<g id="edge22_Node000001_Node000023" class="edge">
<title>Node1&#45;&gt;Node23</title>
<g id="a_edge22_Node000001_Node000023"><a xlink:title=" ">
<path fill="none" stroke="#63b8ff" d="M1221.61,-116.8C1387.09,-113.03 1759.81,-102.06 2084.09,-74"/>
<polygon fill="#63b8ff" stroke="#63b8ff" points="2084.49,-77.48 2094.15,-73.12 2083.88,-70.5 2084.49,-77.48"/>
</a>
</g>
</g>
<!-- Node3 -->
<g id="Node000003" class="node">
<title>Node3</title>
<g id="a_Node000003"><a xlink:title=" ">
<polygon fill="#e0e0e0" stroke="#999999" points="104,-19 0,-19 0,0 104,0 104,-19"/>
<text text-anchor="middle" x="52" y="-7" font-family="Helvetica,sans-Serif" font-size="10.00">vtkSmartPointer.h</text>
</a>
</g>
</g>
<!-- Node2&#45;&gt;Node3 -->
<g id="edge2_Node000002_Node000003" class="edge">
<title>Node2&#45;&gt;Node3</title>
<g id="a_edge2_Node000002_Node000003"><a xlink:title=" ">
<path fill="none" stroke="#63b8ff" d="M146.84,-54.98C128.75,-46.5 100.72,-33.35 79.81,-23.54"/>
<polygon fill="#63b8ff" stroke="#63b8ff" points="81.03,-20.25 70.49,-19.17 78.05,-26.59 81.03,-20.25"/>
</a>
</g>
</g>
<!-- Node4 -->
<g id="Node000004" class="node">
<title>Node4</title>
<g id="a_Node000004"><a xlink:title=" ">
<polygon fill="#e0e0e0" stroke="#999999" points="207.5,-19 122.5,-19 122.5,0 207.5,0 207.5,-19"/>
<text text-anchor="middle" x="165" y="-7" font-family="Helvetica,sans-Serif" font-size="10.00">vtkRenderer.h</text>
</a>
</g>
</g>
<!-- Node2&#45;&gt;Node4 -->
<g id="edge3_Node000002_Node000004" class="edge">
<title>Node2&#45;&gt;Node4</title>
<g id="a_edge3_Node000002_Node000004"><a xlink:title=" ">
<path fill="none" stroke="#63b8ff" d="M165,-54.75C165,-47.8 165,-37.85 165,-29.13"/>
<polygon fill="#63b8ff" stroke="#63b8ff" points="168.5,-29.09 165,-19.09 161.5,-29.09 168.5,-29.09"/>
</a>
</g>
</g>
<!-- Node5 -->
<g id="Node000005" class="node">
<title>Node5</title>
<g id="a_Node000005"><a xlink:title=" ">
<polygon fill="#e0e0e0" stroke="#999999" points="292,-19 226,-19 226,0 292,0 292,-19"/>
<text text-anchor="middle" x="259" y="-7" font-family="Helvetica,sans-Serif" font-size="10.00">vtkActor.h</text>
</a>
</g>
</g>
<!-- Node2&#45;&gt;Node5 -->
<g id="edge4_Node000002_Node000005" class="edge">
<title>Node2&#45;&gt;Node5</title>
<g id="a_edge4_Node000002_Node000005"><a xlink:title=" ">
<path fill="none" stroke="#63b8ff" d="M180.1,-54.98C194.82,-46.69 217.42,-33.94 234.67,-24.22"/>
<polygon fill="#63b8ff" stroke="#63b8ff" points="236.63,-27.13 243.62,-19.17 233.19,-21.03 236.63,-27.13"/>
</a>
</g>
</g>
</g>
</svg>
