<?xml version="1.0" encoding="UTF-8" standalone="no"?>
<!DOCTYPE svg PUBLIC "-//W3C//DTD SVG 1.1//EN"
 "http://www.w3.org/Graphics/SVG/1.1/DTD/svg11.dtd">
<!-- Generated by graphviz version 2.43.0 (0)
 -->
<!-- Title: src/ButterflyOverlay.cpp Pages: 1 -->
<!--zoomable 192 -->

<svg id="main" version="1.1" xmlns="http://www.w3.org/2000/svg" xmlns:xlink="http://www.w3.org/1999/xlink" xml:space="preserve" onload="init(evt)">
<style type="text/css"><![CDATA[
.node, .edge {opacity: 0.7;}
.node.selected, .edge.selected {opacity: 1;}
.edge:hover path { stroke: red; }
.edge:hover polygon { stroke: red; fill: red; }
]]></style>

<defs>
  <circle id="rim" cx="0" cy="0" r="7"/>
  <circle id="rim2" cx="0" cy="0" r="3.5"/>
  <g id="zoomPlus">
    <use xlink:href="#rim" fill="#404040"><set attributeName="fill" to="#808080" begin="zoomplus.mouseover" end="zoomplus.mouseout"/></use>
    <path d="M-4,0h8M0,-4v8" fill="none" stroke="white" stroke-width="1.5" pointer-events="none"/>
  </g>
  <g id="zoomMin">
    <use xlink:href="#rim" fill="#404040"><set attributeName="fill" to="#808080" begin="zoomminus.mouseover" end="zoomminus.mouseout"/></use>
    <path d="M-4,0h8" fill="none" stroke="white" stroke-width="1.5" pointer-events="none"/>
  </g>
  <g id="arrowUp" transform="translate(30 24)">
    <use xlink:href="#rim"/>
    <path pointer-events="none" fill="none" stroke="white" stroke-width="1.5" d="M0,-3.0v7 M-2.5,-0.5L0,-3.0L2.5,-0.5"/>
  </g>
  <g id="arrowRight" transform="rotate(90) translate(36 -43)">
    <use xlink:href="#rim"/>
    <path pointer-events="none" fill="none" stroke="white" stroke-width="1.5" d="M0,-3.0v7 M-2.5,-0.5L0,-3.0L2.5,-0.5"/>
  </g>
  <g id="arrowDown" transform="rotate(180) translate(-30 -48)">
    <use xlink:href="#rim"/>
    <path pointer-events="none" fill="none" stroke="white" stroke-width="1.5" d="M0,-3.0v7 M-2.5,-0.5L0,-3.0L2.5,-0.5"/>
  </g>
  <g id="arrowLeft" transform="rotate(270) translate(-36 17)">
    <use xlink:href="#rim"/>
    <path pointer-events="none" fill="none" stroke="white" stroke-width="1.5" d="M0,-3.0v7 M-2.5,-0.5L0,-3.0L2.5,-0.5"/>
  </g>
  <g id="resetDef">
    <use xlink:href="#rim2" fill="#404040"><set attributeName="fill" to="#808080" begin="reset.mouseover" end="reset.mouseout"/></use>
  </g>
</defs>
<script type="application/ecmascript">
var viewWidth = 2053;
var viewHeight = 192;
var sectionId = 'dynsection-0';
</script>
<script type="application/ecmascript" xlink:href="svg.min.js"/>
<svg id="graph" class="graph">
<g id="viewport">
<title>src/ButterflyOverlay.cpp</title>
<!-- Node1 -->
<g id="Node000001" class="node">
<title>Node1</title>
<g id="a_Node000001"><a xlink:title=" ">
<polygon fill="#999999" stroke="#666666" points="1234,-184 1101,-184 1101,-165 1234,-165 1234,-184"/>
<text text-anchor="middle" x="1167.5" y="-172" font-family="Helvetica,sans-Serif" font-size="10.00">src/ButterflyOverlay.cpp</text>
</a>
</g>
</g>
<!-- Node2 -->
<g id="Node000002" class="node">
<title>Node2</title>
<g id="a_Node000002"><a xlink:href="ButterflyOverlay_8h.html" target="_top" xlink:title=" ">
<polygon fill="white" stroke="#666666" points="446.5,-129 342.5,-129 342.5,-110 446.5,-110 446.5,-129"/>
<text text-anchor="middle" x="394.5" y="-117" font-family="Helvetica,sans-Serif" font-size="10.00">ButterflyOverlay.h</text>
</a>
</g>
</g>
<!-- Node1&#45;&gt;Node2 -->
<g id="edge1_Node000001_Node000002" class="edge">
<title>Node1&#45;&gt;Node2</title>
<g id="a_edge1_Node000001_Node000002"><a xlink:title=" ">
<path fill="none" stroke="#63b8ff" d="M1100.93,-168.94C953.37,-158.82 600.57,-134.63 456.94,-124.78"/>
<polygon fill="#63b8ff" stroke="#63b8ff" points="456.77,-121.26 446.56,-124.07 456.29,-128.25 456.77,-121.26"/>
</a>
</g>
</g>
<!-- Node12 -->
<g id="Node000012" class="node">
<title>Node12</title>
<g id="a_Node000012"><a xlink:title=" ">
<polygon fill="#e0e0e0" stroke="#999999" points="596.5,-74 492.5,-74 492.5,-55 596.5,-55 596.5,-74"/>
<text text-anchor="middle" x="544.5" y="-62" font-family="Helvetica,sans-Serif" font-size="10.00">vtkSmartPointer.h</text>
</a>
</g>
</g>
<!-- Node1&#45;&gt;Node12 -->
<g id="edge20_Node000001_Node000012" class="edge">
<title>Node1&#45;&gt;Node12</title>
<g id="a_edge20_Node000001_Node000012"><a xlink:title=" ">
<path fill="none" stroke="#63b8ff" d="M1100.8,-170.25C986.49,-164.21 757.95,-149.93 680.5,-129 638.6,-117.68 593.66,-94.21 567.37,-79.19"/>
<polygon fill="#63b8ff" stroke="#63b8ff" points="568.97,-76.08 558.56,-74.08 565.45,-82.13 568.97,-76.08"/>
</a>
</g>
</g>
<!-- Node15 -->
<g id="Node000015" class="node">
<title>Node15</title>
<g id="a_Node000015"><a xlink:href="Colormap_8h.html" target="_top" xlink:title=" ">
<polygon fill="white" stroke="#666666" points="775,-129 702,-129 702,-110 775,-110 775,-129"/>
<text text-anchor="middle" x="738.5" y="-117" font-family="Helvetica,sans-Serif" font-size="10.00">Colormap.h</text>
</a>
</g>
</g>
<!-- Node1&#45;&gt;Node15 -->
<g id="edge15_Node000001_Node000015" class="edge">
<title>Node1&#45;&gt;Node15</title>
<g id="a_edge15_Node000001_Node000015"><a xlink:title=" ">
<path fill="none" stroke="#63b8ff" d="M1100.8,-166.63C1025.18,-158.6 898.26,-144.46 789.5,-129 788.2,-128.82 786.88,-128.62 785.55,-128.43"/>
<polygon fill="#63b8ff" stroke="#63b8ff" points="785.65,-124.9 775.24,-126.84 784.59,-131.82 785.65,-124.9"/>
</a>
</g>
</g>
<!-- Node16 -->
<g id="Node000016" class="node">
<title>Node16</title>
<g id="a_Node000016"><a xlink:title=" ">
<polygon fill="#e0e0e0" stroke="#999999" points="762,-74 615,-74 615,-55 762,-55 762,-74"/>
<text text-anchor="middle" x="688.5" y="-62" font-family="Helvetica,sans-Serif" font-size="10.00">vtkColorTransferFunction.h</text>
</a>
</g>
</g>
<!-- Node1&#45;&gt;Node16 -->
<g id="edge28_Node000001_Node000016" class="edge">
<title>Node1&#45;&gt;Node16</title>
<g id="a_edge28_Node000001_Node000016"><a xlink:title=" ">
<path fill="none" stroke="#63b8ff" d="M1100.9,-171.97C976.84,-168.44 720.36,-157.72 692.5,-129 681.33,-117.49 681.55,-98.61 683.82,-84.42"/>
<polygon fill="#63b8ff" stroke="#63b8ff" points="687.32,-84.78 685.91,-74.28 680.47,-83.37 687.32,-84.78"/>
</a>
</g>
</g>
<!-- Node17 -->
<g id="Node000017" class="node">
<title>Node17</title>
<g id="a_Node000017"><a xlink:title=" ">
<polygon fill="#e0e0e0" stroke="#999999" points="827,-74 780,-74 780,-55 827,-55 827,-74"/>
<text text-anchor="middle" x="803.5" y="-62" font-family="Helvetica,sans-Serif" font-size="10.00">cmath</text>
</a>
</g>
</g>
<!-- Node1&#45;&gt;Node17 -->
<g id="edge33_Node000001_Node000017" class="edge">
<title>Node1&#45;&gt;Node17</title>
<g id="a_edge33_Node000001_Node000017"><a xlink:title=" ">
<path fill="none" stroke="#63b8ff" d="M1100.78,-170.16C1020.56,-165.12 891.58,-153.43 850.5,-129 832.69,-118.4 819.52,-98.19 811.73,-83.4"/>
<polygon fill="#63b8ff" stroke="#63b8ff" points="814.76,-81.64 807.2,-74.22 808.49,-84.74 814.76,-81.64"/>
</a>
</g>
</g>
<!-- Node18 -->
<g id="Node000018" class="node">
<title>Node18</title>
<g id="a_Node000018"><a xlink:title=" ">
<polygon fill="#e0e0e0" stroke="#999999" points="909.5,-74 845.5,-74 845.5,-55 909.5,-55 909.5,-74"/>
<text text-anchor="middle" x="877.5" y="-62" font-family="Helvetica,sans-Serif" font-size="10.00">algorithm</text>
</a>
</g>
</g>
<!-- Node1&#45;&gt;Node18 -->
<g id="edge34_Node000001_Node000018" class="edge">
<title>Node1&#45;&gt;Node18</title>
<g id="a_edge34_Node000001_Node000018"><a xlink:title=" ">
<path fill="none" stroke="#63b8ff" d="M1100.88,-173.6C1020.1,-172.14 890.94,-164.17 860.5,-129 849.46,-116.24 856.84,-97.03 865.05,-83.09"/>
<polygon fill="#63b8ff" stroke="#63b8ff" points="868.17,-84.71 870.65,-74.41 862.29,-80.92 868.17,-84.71"/>
</a>
</g>
</g>
<!-- Node19 -->
<g id="Node000019" class="node">
<title>Node19</title>
<g id="a_Node000019"><a xlink:title=" ">
<polygon fill="#e0e0e0" stroke="#999999" points="981.5,-129 869.5,-129 869.5,-110 981.5,-110 981.5,-129"/>
<text text-anchor="middle" x="925.5" y="-117" font-family="Helvetica,sans-Serif" font-size="10.00">vtkStructuredGrid.h</text>
</a>
</g>
</g>
<!-- Node1&#45;&gt;Node19 -->
<g id="edge21_Node000001_Node000019" class="edge">
<title>Node1&#45;&gt;Node19</title>
<g id="a_edge21_Node000001_Node000019"><a xlink:title=" ">
<path fill="none" stroke="#63b8ff" d="M1128.62,-164.98C1086.76,-155.82 1020.07,-141.21 974.62,-131.26"/>
<polygon fill="#63b8ff" stroke="#63b8ff" points="975.2,-127.8 964.69,-129.08 973.71,-134.64 975.2,-127.8"/>
</a>
</g>
</g>
<!-- Node20 -->
<g id="Node000020" class="node">
<title>Node20</title>
<g id="a_Node000020"><a xlink:title=" ">
<polygon fill="#e0e0e0" stroke="#999999" points="1105,-129 1000,-129 1000,-110 1105,-110 1105,-129"/>
<text text-anchor="middle" x="1052.5" y="-117" font-family="Helvetica,sans-Serif" font-size="10.00">vtkStreamTracer.h</text>
</a>
</g>
</g>
<!-- Node1&#45;&gt;Node20 -->
<g id="edge22_Node000001_Node000020" class="edge">
<title>Node1&#45;&gt;Node20</title>
<g id="a_edge22_Node000001_Node000020"><a xlink:title=" ">
<path fill="none" stroke="#63b8ff" d="M1149.02,-164.98C1130.52,-156.46 1101.82,-143.23 1080.52,-133.41"/>
<polygon fill="#63b8ff" stroke="#63b8ff" points="1081.86,-130.18 1071.31,-129.17 1078.93,-136.53 1081.86,-130.18"/>
</a>
</g>
</g>
<!-- Node21 -->
<g id="Node000021" class="node">
<title>Node21</title>
<g id="a_Node000021"><a xlink:title=" ">
<polygon fill="#e0e0e0" stroke="#999999" points="1211.5,-129 1123.5,-129 1123.5,-110 1211.5,-110 1211.5,-129"/>
<text text-anchor="middle" x="1167.5" y="-117" font-family="Helvetica,sans-Serif" font-size="10.00">vtkTubeFilter.h</text>
</a>
</g>
</g>
<!-- Node1&#45;&gt;Node21 -->
<g id="edge23_Node000001_Node000021" class="edge">
<title>Node1&#45;&gt;Node21</title>
<g id="a_edge23_Node000001_Node000021"><a xlink:title=" ">
<path fill="none" stroke="#63b8ff" d="M1167.5,-164.75C1167.5,-157.8 1167.5,-147.85 1167.5,-139.13"/>
<polygon fill="#63b8ff" stroke="#63b8ff" points="1171,-139.09 1167.5,-129.09 1164,-139.09 1171,-139.09"/>
</a>
</g>
</g>
<!-- Node22 -->
<g id="Node000022" class="node">
<title>Node22</title>
<g id="a_Node000022"><a xlink:title=" ">
<polygon fill="#e0e0e0" stroke="#999999" points="1351.5,-129 1229.5,-129 1229.5,-110 1351.5,-110 1351.5,-129"/>
<text text-anchor="middle" x="1290.5" y="-117" font-family="Helvetica,sans-Serif" font-size="10.00">vtkPolyDataMapper.h</text>
</a>
</g>
</g>
<!-- Node1&#45;&gt;Node22 -->
<g id="edge24_Node000001_Node000022" class="edge">
<title>Node1&#45;&gt;Node22</title>
<g id="a_edge24_Node000001_Node000022"><a xlink:title=" ">
<path fill="none" stroke="#63b8ff" d="M1187.26,-164.98C1207.23,-156.38 1238.3,-142.99 1261.15,-133.15"/>
<polygon fill="#63b8ff" stroke="#63b8ff" points="1262.58,-136.34 1270.38,-129.17 1259.81,-129.91 1262.58,-136.34"/>
</a>
</g>
</g>
<!-- Node23 -->
<g id="Node000023" class="node">
<title>Node23</title>
<g id="a_Node000023"><a xlink:title=" ">
<polygon fill="#e0e0e0" stroke="#999999" points="1461,-129 1370,-129 1370,-110 1461,-110 1461,-129"/>
<text text-anchor="middle" x="1415.5" y="-117" font-family="Helvetica,sans-Serif" font-size="10.00">vtkFloatArray.h</text>
</a>
</g>
</g>
<!-- Node1&#45;&gt;Node23 -->
<g id="edge25_Node000001_Node000023" class="edge">
<title>Node1&#45;&gt;Node23</title>
<g id="a_edge25_Node000001_Node000023"><a xlink:title=" ">
<path fill="none" stroke="#63b8ff" d="M1207.35,-164.98C1250.33,-155.8 1318.87,-141.15 1365.46,-131.19"/>
<polygon fill="#63b8ff" stroke="#63b8ff" points="1366.29,-134.59 1375.34,-129.08 1364.83,-127.75 1366.29,-134.59"/>
</a>
</g>
</g>
<!-- Node24 -->
<g id="Node000024" class="node">
<title>Node24</title>
<g id="a_Node000024"><a xlink:title=" ">
<polygon fill="#e0e0e0" stroke="#999999" points="1550,-129 1479,-129 1479,-110 1550,-110 1550,-129"/>
<text text-anchor="middle" x="1514.5" y="-117" font-family="Helvetica,sans-Serif" font-size="10.00">vtkPoints.h</text>
</a>
</g>
</g>
<!-- Node1&#45;&gt;Node24 -->
<g id="edge26_Node000001_Node000024" class="edge">
<title>Node1&#45;&gt;Node24</title>
<g id="a_edge26_Node000001_Node000024"><a xlink:title=" ">
<path fill="none" stroke="#63b8ff" d="M1231.18,-165C1290.37,-156.9 1381.22,-143.98 1469.11,-129.18"/>
<polygon fill="#63b8ff" stroke="#63b8ff" points="1469.71,-132.63 1478.98,-127.5 1468.54,-125.72 1469.71,-132.63"/>
</a>
</g>
</g>
<!-- Node25 -->
<g id="Node000025" class="node">
<title>Node25</title>
<g id="a_Node000025"><a xlink:title=" ">
<polygon fill="#e0e0e0" stroke="#999999" points="1657,-129 1568,-129 1568,-110 1657,-110 1657,-129"/>
<text text-anchor="middle" x="1612.5" y="-117" font-family="Helvetica,sans-Serif" font-size="10.00">vtkPointData.h</text>
</a>
</g>
</g>
<!-- Node1&#45;&gt;Node25 -->
<g id="edge27_Node000001_Node000025" class="edge">
<title>Node1&#45;&gt;Node25</title>
<g id="a_edge27_Node000001_Node000025"><a xlink:title=" ">
<path fill="none" stroke="#63b8ff" d="M1234.2,-166.87C1310.17,-159.11 1438.25,-145.38 1557.92,-129.16"/>
<polygon fill="#63b8ff" stroke="#63b8ff" points="1558.55,-132.61 1567.99,-127.79 1557.61,-125.67 1558.55,-132.61"/>
</a>
</g>
</g>
<!-- Node26 -->
<g id="Node000026" class="node">
<title>Node26</title>
<g id="a_Node000026"><a xlink:title=" ">
<polygon fill="#e0e0e0" stroke="#999999" points="1761.5,-129 1675.5,-129 1675.5,-110 1761.5,-110 1761.5,-129"/>
<text text-anchor="middle" x="1718.5" y="-117" font-family="Helvetica,sans-Serif" font-size="10.00">vtkPolyData.h</text>
</a>
</g>
</g>
<!-- Node1&#45;&gt;Node26 -->
<g id="edge29_Node000001_Node000026" class="edge">
<title>Node1&#45;&gt;Node26</title>
<g id="a_edge29_Node000001_Node000026"><a xlink:title=" ">
<path fill="none" stroke="#63b8ff" d="M1234.25,-169.1C1328.16,-162.58 1504.82,-149.03 1665.34,-129.06"/>
<polygon fill="#63b8ff" stroke="#63b8ff" points="1665.92,-132.51 1675.4,-127.79 1665.05,-125.57 1665.92,-132.51"/>
</a>
</g>
</g>
<!-- Node27 -->
<g id="Node000027" class="node">
<title>Node27</title>
<g id="a_Node000027"><a xlink:title=" ">
<polygon fill="#e0e0e0" stroke="#999999" points="1865,-129 1780,-129 1780,-110 1865,-110 1865,-129"/>
<text text-anchor="middle" x="1822.5" y="-117" font-family="Helvetica,sans-Serif" font-size="10.00">vtkCellArray.h</text>
</a>
</g>
</g>
<!-- Node1&#45;&gt;Node27 -->
<g id="edge30_Node000001_Node000027" class="edge">
<title>Node1&#45;&gt;Node27</title>
<g id="a_edge30_Node000001_Node000027"><a xlink:title=" ">
<path fill="none" stroke="#63b8ff" d="M1234.16,-170.51C1343.68,-165.17 1568.71,-152.42 1769.81,-128.96"/>
<polygon fill="#63b8ff" stroke="#63b8ff" points="1770.45,-132.41 1779.98,-127.77 1769.64,-125.46 1770.45,-132.41"/>
</a>
</g>
</g>
<!-- Node28 -->
<g id="Node000028" class="node">
<title>Node28</title>
<g id="a_Node000028"><a xlink:title=" ">
<polygon fill="#e0e0e0" stroke="#999999" points="1964,-129 1883,-129 1883,-110 1964,-110 1964,-129"/>
<text text-anchor="middle" x="1923.5" y="-117" font-family="Helvetica,sans-Serif" font-size="10.00">vtkProperty.h</text>
</a>
</g>
</g>
<!-- Node1&#45;&gt;Node28 -->
<g id="edge31_Node000001_Node000028" class="edge">
<title>Node1&#45;&gt;Node28</title>
<g id="a_edge31_Node000001_Node000028"><a xlink:title=" ">
<path fill="none" stroke="#63b8ff" d="M1234.49,-171.71C1358.57,-167.87 1632.67,-156.91 1872.94,-129.06"/>
<polygon fill="#63b8ff" stroke="#63b8ff" points="1873.38,-132.53 1882.91,-127.89 1872.57,-125.58 1873.38,-132.53"/>
</a>
</g>
</g>
<!-- Node29 -->
<g id="Node000029" class="node">
<title>Node29</title>
<g id="a_Node000029"><a xlink:title=" ">
<polygon fill="#e0e0e0" stroke="#999999" points="2044.5,-129 1982.5,-129 1982.5,-110 2044.5,-110 2044.5,-129"/>
<text text-anchor="middle" x="2013.5" y="-117" font-family="Helvetica,sans-Serif" font-size="10.00">vtkNew.h</text>
</a>
</g>
</g>
<!-- Node1&#45;&gt;Node29 -->
<g id="edge32_Node000001_Node000029" class="edge">
<title>Node1&#45;&gt;Node29</title>
<g id="a_edge32_Node000001_Node000029"><a xlink:title=" ">
<path fill="none" stroke="#63b8ff" d="M1234.17,-173.29C1370.88,-172.1 1692.88,-165.44 1971.82,-129.01"/>
<polygon fill="#63b8ff" stroke="#63b8ff" points="1972.68,-132.42 1982.14,-127.64 1971.76,-125.48 1972.68,-132.42"/>
</a>
</g>
</g>
<!-- Node3 -->
<g id="Node000003" class="node">
<title>Node3</title>
<g id="a_Node000003"><a xlink:href="ComputeWorker_8h.html" target="_top" xlink:title=" ">
<polygon fill="white" stroke="#666666" points="287,-74 184,-74 184,-55 287,-55 287,-74"/>
<text text-anchor="middle" x="235.5" y="-62" font-family="Helvetica,sans-Serif" font-size="10.00">ComputeWorker.h</text>
</a>
</g>
</g>
<!-- Node2&#45;&gt;Node3 -->
<g id="edge2_Node000002_Node000003" class="edge">
<title>Node2&#45;&gt;Node3</title>
<g id="a_edge2_Node000002_Node000003"><a xlink:title=" ">
<path fill="none" stroke="#63b8ff" d="M368.95,-109.98C342.38,-101.13 300.56,-87.19 270.83,-77.28"/>
<polygon fill="#63b8ff" stroke="#63b8ff" points="271.84,-73.92 261.25,-74.08 269.63,-80.56 271.84,-73.92"/>
</a>
</g>
</g>
<!-- Node7 -->
<g id="Node000007" class="node">
<title>Node7</title>
<g id="a_Node000007"><a xlink:title=" ">
<polygon fill="#e0e0e0" stroke="#999999" points="47,-19 0,-19 0,0 47,0 47,-19"/>
<text text-anchor="middle" x="23.5" y="-7" font-family="Helvetica,sans-Serif" font-size="10.00">vector</text>
</a>
</g>
</g>
<!-- Node2&#45;&gt;Node7 -->
<g id="edge14_Node000002_Node000007" class="edge">
<title>Node2&#45;&gt;Node7</title>
<g id="a_edge14_Node000002_Node000007"><a xlink:title=" ">
<path fill="none" stroke="#63b8ff" d="M342.21,-110.93C297.17,-103.69 230.73,-91.32 174.5,-74 129.57,-60.16 79.7,-37.71 50.01,-23.55"/>
<polygon fill="#63b8ff" stroke="#63b8ff" points="51.28,-20.28 40.75,-19.09 48.24,-26.58 51.28,-20.28"/>
</a>
</g>
</g>
<!-- Node2&#45;&gt;Node12 -->
<g id="edge11_Node000002_Node000012" class="edge">
<title>Node2&#45;&gt;Node12</title>
<g id="a_edge11_Node000002_Node000012"><a xlink:title=" ">
<path fill="none" stroke="#63b8ff" d="M418.6,-109.98C443.38,-101.23 482.2,-87.51 510.19,-77.62"/>
<polygon fill="#63b8ff" stroke="#63b8ff" points="511.7,-80.8 519.96,-74.17 509.37,-74.2 511.7,-80.8"/>
</a>
</g>
</g>
<!-- Node13 -->
<g id="Node000013" class="node">
<title>Node13</title>
<g id="a_Node000013"><a xlink:title=" ">
<polygon fill="#e0e0e0" stroke="#999999" points="390,-74 305,-74 305,-55 390,-55 390,-74"/>
<text text-anchor="middle" x="347.5" y="-62" font-family="Helvetica,sans-Serif" font-size="10.00">vtkRenderer.h</text>
</a>
</g>
</g>
<!-- Node2&#45;&gt;Node13 -->
<g id="edge12_Node000002_Node000013" class="edge">
<title>Node2&#45;&gt;Node13</title>
<g id="a_edge12_Node000002_Node000013"><a xlink:title=" ">
<path fill="none" stroke="#63b8ff" d="M386.74,-109.75C380.03,-102.18 370.16,-91.05 361.99,-81.84"/>
<polygon fill="#63b8ff" stroke="#63b8ff" points="364.37,-79.25 355.12,-74.09 359.13,-83.89 364.37,-79.25"/>
</a>
</g>
</g>
<!-- Node14 -->
<g id="Node000014" class="node">
<title>Node14</title>
<g id="a_Node000014"><a xlink:title=" ">
<polygon fill="#e0e0e0" stroke="#999999" points="474.5,-74 408.5,-74 408.5,-55 474.5,-55 474.5,-74"/>
<text text-anchor="middle" x="441.5" y="-62" font-family="Helvetica,sans-Serif" font-size="10.00">vtkActor.h</text>
</a>
</g>
</g>
<!-- Node2&#45;&gt;Node14 -->
<g id="edge13_Node000002_Node000014" class="edge">
<title>Node2&#45;&gt;Node14</title>
<g id="a_edge13_Node000002_Node000014"><a xlink:title=" ">
<path fill="none" stroke="#63b8ff" d="M402.26,-109.75C408.97,-102.18 418.84,-91.05 427.01,-81.84"/>
<polygon fill="#63b8ff" stroke="#63b8ff" points="429.87,-83.89 433.88,-74.09 424.63,-79.25 429.87,-83.89"/>
</a>
</g>
</g>
<!-- Node4 -->
<g id="Node000004" class="node">
<title>Node4</title>
<g id="a_Node000004"><a xlink:title=" ">
<polygon fill="#e0e0e0" stroke="#999999" points="413.5,-19 357.5,-19 357.5,0 413.5,0 413.5,-19"/>
<text text-anchor="middle" x="385.5" y="-7" font-family="Helvetica,sans-Serif" font-size="10.00">QObject</text>
</a>
</g>
</g>
<!-- Node3&#45;&gt;Node4 -->
<g id="edge3_Node000003_Node000004" class="edge">
<title>Node3&#45;&gt;Node4</title>
<g id="a_edge3_Node000003_Node000004"><a xlink:title=" ">
<path fill="none" stroke="#63b8ff" d="M259.6,-54.98C284.38,-46.23 323.2,-32.51 351.19,-22.62"/>
<polygon fill="#63b8ff" stroke="#63b8ff" points="352.7,-25.8 360.96,-19.17 350.37,-19.2 352.7,-25.8"/>
</a>
</g>
</g>
<!-- Node5 -->
<g id="Node000005" class="node">
<title>Node5</title>
<g id="a_Node000005"><a xlink:title=" ">
<polygon fill="#e0e0e0" stroke="#999999" points="503,-19 432,-19 432,0 503,0 503,-19"/>
<text text-anchor="middle" x="467.5" y="-7" font-family="Helvetica,sans-Serif" font-size="10.00">QMetaType</text>
</a>
</g>
</g>
<!-- Node3&#45;&gt;Node5 -->
<g id="edge4_Node000003_Node000005" class="edge">
<title>Node3&#45;&gt;Node5</title>
<g id="a_edge4_Node000003_Node000005"><a xlink:title=" ">
<path fill="none" stroke="#63b8ff" d="M272.77,-54.98C313.42,-45.7 378.47,-30.84 422.07,-20.88"/>
<polygon fill="#63b8ff" stroke="#63b8ff" points="422.87,-24.29 431.84,-18.65 421.31,-17.46 422.87,-24.29"/>
</a>
</g>
</g>
<!-- Node6 -->
<g id="Node000006" class="node">
<title>Node6</title>
<g id="a_Node000006"><a xlink:title=" ">
<polygon fill="#e0e0e0" stroke="#999999" points="571.5,-19 521.5,-19 521.5,0 571.5,0 571.5,-19"/>
<text text-anchor="middle" x="546.5" y="-7" font-family="Helvetica,sans-Serif" font-size="10.00">atomic</text>
</a>
</g>
</g>
<!-- Node3&#45;&gt;Node6 -->
<g id="edge5_Node000003_Node000006" class="edge">
<title>Node3&#45;&gt;Node6</title>
<g id="a_edge5_Node000003_Node000006"><a xlink:title=" ">
<path fill="none" stroke="#63b8ff" d="M287.25,-55.65C354.88,-45.31 469.63,-27.45 511.5,-19 511.6,-18.98 511.7,-18.96 511.8,-18.94"/>
<polygon fill="#63b8ff" stroke="#63b8ff" points="512.29,-22.41 521.32,-16.87 510.8,-15.57 512.29,-22.41"/>
</a>
</g>
</g>
<!-- Node3&#45;&gt;Node7 -->
<g id="edge6_Node000003_Node000007" class="edge">
<title>Node3&#45;&gt;Node7</title>
<g id="a_edge6_Node000003_Node000007"><a xlink:title=" ">
<path fill="none" stroke="#63b8ff" d="M200.83,-54.97C166.73,-46.56 112.93,-33.25 57.01,-19.11"/>
<polygon fill="#63b8ff" stroke="#63b8ff" points="57.84,-15.71 47.29,-16.65 56.12,-22.5 57.84,-15.71"/>
</a>
</g>
</g>
<!-- Node8 -->
<g id="Node000008" class="node">
<title>Node8</title>
<g id="a_Node000008"><a xlink:title=" ">
<polygon fill="#e0e0e0" stroke="#999999" points="123.5,-19 65.5,-19 65.5,0 123.5,0 123.5,-19"/>
<text text-anchor="middle" x="94.5" y="-7" font-family="Helvetica,sans-Serif" font-size="10.00">memory</text>
</a>
</g>
</g>
<!-- Node3&#45;&gt;Node8 -->
<g id="edge7_Node000003_Node000008" class="edge">
<title>Node3&#45;&gt;Node8</title>
<g id="a_edge7_Node000003_Node000008"><a xlink:title=" ">
<path fill="none" stroke="#63b8ff" d="M212.85,-54.98C189.65,-46.27 153.38,-32.63 127.1,-22.75"/>
<polygon fill="#63b8ff" stroke="#63b8ff" points="128.16,-19.41 117.57,-19.17 125.7,-25.97 128.16,-19.41"/>
</a>
</g>
</g>
<!-- Node9 -->
<g id="Node000009" class="node">
<title>Node9</title>
<g id="a_Node000009"><a xlink:title=" ">
<polygon fill="#e0e0e0" stroke="#999999" points="185.5,-19 141.5,-19 141.5,0 185.5,0 185.5,-19"/>
<text text-anchor="middle" x="163.5" y="-7" font-family="Helvetica,sans-Serif" font-size="10.00">string</text>
</a>
</g>
</g>
<!-- Node3&#45;&gt;Node9 -->
<g id="edge8_Node000003_Node000009" class="edge">
<title>Node3&#45;&gt;Node9</title>
<g id="a_edge8_Node000003_Node000009"><a xlink:title=" ">
<path fill="none" stroke="#63b8ff" d="M223.93,-54.98C213.08,-47 196.62,-34.88 183.62,-25.31"/>
<polygon fill="#63b8ff" stroke="#63b8ff" points="185.41,-22.28 175.28,-19.17 181.26,-27.92 185.41,-22.28"/>
</a>
</g>
</g>
<!-- Node10 -->
<g id="Node000010" class="node">
<title>Node10</title>
<g id="a_Node000010"><a xlink:title=" ">
<polygon fill="#e0e0e0" stroke="#999999" points="267.5,-19 203.5,-19 203.5,0 267.5,0 267.5,-19"/>
<text text-anchor="middle" x="235.5" y="-7" font-family="Helvetica,sans-Serif" font-size="10.00">JobSpec.h</text>
</a>
</g>
</g>
<!-- Node3&#45;&gt;Node10 -->
<g id="edge9_Node000003_Node000010" class="edge">
<title>Node3&#45;&gt;Node10</title>
<g id="a_edge9_Node000003_Node000010"><a xlink:title=" ">
<path fill="none" stroke="#63b8ff" d="M235.5,-54.75C235.5,-47.8 235.5,-37.85 235.5,-29.13"/>
<polygon fill="#63b8ff" stroke="#63b8ff" points="239,-29.09 235.5,-19.09 232,-29.09 239,-29.09"/>
</a>
</g>
</g>
<!-- Node11 -->
<g id="Node000011" class="node">
<title>Node11</title>
<g id="a_Node000011"><a xlink:title=" ">
<polygon fill="#e0e0e0" stroke="#999999" points="339,-19 286,-19 286,0 339,0 339,-19"/>
<text text-anchor="middle" x="312.5" y="-7" font-family="Helvetica,sans-Serif" font-size="10.00">Types.h</text>
</a>
</g>
</g>
<!-- Node3&#45;&gt;Node11 -->
<g id="edge10_Node000003_Node000011" class="edge">
<title>Node3&#45;&gt;Node11</title>
<g id="a_edge10_Node000003_Node000011"><a xlink:title=" ">
<path fill="none" stroke="#63b8ff" d="M247.87,-54.98C259.59,-46.92 277.42,-34.65 291.39,-25.03"/>
<polygon fill="#63b8ff" stroke="#63b8ff" points="293.65,-27.72 299.9,-19.17 289.68,-21.96 293.65,-27.72"/>
</a>
</g>
</g>
<!-- Node15&#45;&gt;Node12 -->
<g id="edge16_Node000015_Node000012" class="edge">
<title>Node15&#45;&gt;Node12</title>
<g id="a_edge16_Node000015_Node000012"><a xlink:title=" ">
<path fill="none" stroke="#63b8ff" d="M707.33,-109.98C674.34,-100.97 622.1,-86.7 585.73,-76.76"/>
<polygon fill="#63b8ff" stroke="#63b8ff" points="586.48,-73.34 575.91,-74.08 584.64,-80.09 586.48,-73.34"/>
</a>
</g>
</g>
<!-- Node15&#45;&gt;Node16 -->
<g id="edge17_Node000015_Node000016" class="edge">
<title>Node15&#45;&gt;Node16</title>
<g id="a_edge17_Node000015_Node000016"><a xlink:title=" ">
<path fill="none" stroke="#63b8ff" d="M730.24,-109.75C723.04,-102.11 712.39,-90.82 703.65,-81.56"/>
<polygon fill="#63b8ff" stroke="#63b8ff" points="706.01,-78.96 696.6,-74.09 700.92,-83.76 706.01,-78.96"/>
</a>
</g>
</g>
<!-- Node15&#45;&gt;Node17 -->
<g id="edge18_Node000015_Node000017" class="edge">
<title>Node15&#45;&gt;Node17</title>
<g id="a_edge18_Node000015_Node000017"><a xlink:title=" ">
<path fill="none" stroke="#63b8ff" d="M748.94,-109.98C758.65,-102.07 773.32,-90.11 785,-80.58"/>
<polygon fill="#63b8ff" stroke="#63b8ff" points="787.33,-83.2 792.87,-74.17 782.9,-77.78 787.33,-83.2"/>
</a>
</g>
</g>
<!-- Node15&#45;&gt;Node18 -->
<g id="edge19_Node000015_Node000018" class="edge">
<title>Node15&#45;&gt;Node18</title>
<g id="a_edge19_Node000015_Node000018"><a xlink:title=" ">
<path fill="none" stroke="#63b8ff" d="M760.83,-109.98C783.7,-101.27 819.46,-87.63 845.36,-77.75"/>
<polygon fill="#63b8ff" stroke="#63b8ff" points="846.66,-81 854.76,-74.17 844.17,-74.46 846.66,-81"/>
</a>
</g>
</g>
</g>
</svg>

<g id="navigator" transform="translate(0 0)" fill="#404254">
  <rect fill="#f2f5e9" fill-opacity="0.5" stroke="#606060" stroke-width=".5" x="0" y="0" width="60" height="60"/>
  <use id="zoomplus" xlink:href="#zoomPlus" x="17" y="9" onmousedown="handleZoom(evt,'in')"/>
  <use id="zoomminus" xlink:href="#zoomMin" x="42" y="9" onmousedown="handleZoom(evt,'out')"/>
  <use id="reset" xlink:href="#resetDef" x="30" y="36" onmousedown="handleReset()"/>
   <use id="arrowup" xlink:href="#arrowUp" x="0" y="0" onmousedown="handlePan(0,-1)"/>
  <use id="arrowright" xlink:href="#arrowRight" x="0" y="0" onmousedown="handlePan(1,0)"/>
  <use id="arrowdown" xlink:href="#arrowDown" x="0" y="0" onmousedown="handlePan(0,1)"/>
  <use id="arrowleft" xlink:href="#arrowLeft" x="0" y="0" onmousedown="handlePan(-1,0)"/>
</g>
<svg viewBox="0 0 15 15" width="100%" height="30px" preserveAspectRatio="xMaxYMin meet">
 <g id="arrow_out" transform="scale(0.3 0.3)">
  <a xlink:href="ButterflyOverlay_8cpp__incl_org.svg" target="_base">
   <rect id="button" ry="5" rx="5" y="6" x="6" height="38" width="38"
        fill="#f2f5e9" fill-opacity="0.5" stroke="#606060" stroke-width="1.0"/>
   <path id="arrow"
     d="M 11.500037,31.436501 C 11.940474,20.09759 22.043105,11.32322 32.158766,21.979434 L 37.068811,17.246167 C 37.068811,17.246167 37.088388,32 37.088388,32 L 22.160133,31.978069 C 22.160133,31.978069 26.997745,27.140456 26.997745,27.140456 C 18.528582,18.264221 13.291696,25.230495 11.500037,31.436501 z"
     style="fill:#404040;"/>
  </a>
 </g>
</svg>

<style type='text/css'>
<![CDATA[
[data-mouse-over-selected='false'] { opacity: 0.7; }
[data-mouse-over-selected='true']  { opacity: 1.0; }
]]>
</style>
<script type="application/ecmascript"><![CDATA[
document.addEventListener('DOMContentLoaded', (event) => {
  highlightEdges();
  highlightAdjacentNodes();
});
]]></script>
</svg>
