<?xml version="1.0" encoding="UTF-8" standalone="no"?>
<!DOCTYPE svg PUBLIC "-//W3C//DTD SVG 1.1//EN"
 "http://www.w3.org/Graphics/SVG/1.1/DTD/svg11.dtd">
<!-- Generated by graphviz version 2.43.0 (0)
 -->
<!-- Title: RestServer Pages: 1 -->
<!--zoomable 440 -->

<svg id="main" version="1.1" xmlns="http://www.w3.org/2000/svg" xmlns:xlink="http://www.w3.org/1999/xlink" xml:space="preserve" onload="init(evt)">
<style type="text/css"><![CDATA[
.node, .edge {opacity: 0.7;}
.node.selected, .edge.selected {opacity: 1;}
.edge:hover path { stroke: red; }
.edge:hover polygon { stroke: red; fill: red; }
]]></style>

<defs>
  <circle id="rim" cx="0" cy="0" r="7"/>
  <circle id="rim2" cx="0" cy="0" r="3.5"/>
  <g id="zoomPlus">
    <use xlink:href="#rim" fill="#404040"><set attributeName="fill" to="#808080" begin="zoomplus.mouseover" end="zoomplus.mouseout"/></use>
    <path d="M-4,0h8M0,-4v8" fill="none" stroke="white" stroke-width="1.5" pointer-events="none"/>
  </g>
  <g id="zoomMin">
    <use xlink:href="#rim" fill="#404040"><set attributeName="fill" to="#808080" begin="zoomminus.mouseover" end="zoomminus.mouseout"/></use>
    <path d="M-4,0h8" fill="none" stroke="white" stroke-width="1.5" pointer-events="none"/>
  </g>
  <g id="arrowUp" transform="translate(30 24)">
    <use xlink:href="#rim"/>
    <path pointer-events="none" fill="none" stroke="white" stroke-width="1.5" d="M0,-3.0v7 M-2.5,-0.5L0,-3.0L2.5,-0.5"/>
  </g>
  <g id="arrowRight" transform="rotate(90) translate(36 -43)">
    <use xlink:href="#rim"/>
    <path pointer-events="none" fill="none" stroke="white" stroke-width="1.5" d="M0,-3.0v7 M-2.5,-0.5L0,-3.0L2.5,-0.5"/>
  </g>
  <g id="arrowDown" transform="rotate(180) translate(-30 -48)">
    <use xlink:href="#rim"/>
    <path pointer-events="none" fill="none" stroke="white" stroke-width="1.5" d="M0,-3.0v7 M-2.5,-0.5L0,-3.0L2.5,-0.5"/>
  </g>
  <g id="arrowLeft" transform="rotate(270) translate(-36 17)">
    <use xlink:href="#rim"/>
    <path pointer-events="none" fill="none" stroke="white" stroke-width="1.5" d="M0,-3.0v7 M-2.5,-0.5L0,-3.0L2.5,-0.5"/>
  </g>
  <g id="resetDef">
    <use xlink:href="#rim2" fill="#404040"><set attributeName="fill" to="#808080" begin="reset.mouseover" end="reset.mouseout"/></use>
  </g>
</defs>
<script type="application/ecmascript">
var viewWidth = 647;
var viewHeight = 440;
var sectionId = 'dynsection-1';
</script>
<script type="application/ecmascript" xlink:href="svg.min.js"/>
<svg id="graph" class="graph">
<g id="viewport">
<title>RestServer</title>
<!-- Node1 -->
<g id="Node000001" class="node">
<title>Node1</title>
<g id="a_Node000001"><a xlink:title=" ">
<polygon fill="#999999" stroke="#666666" points="639,-356.98 569,-356.98 569,-337.98 639,-337.98 639,-356.98"/>
<text text-anchor="middle" x="604" y="-344.98" font-family="Helvetica,sans-Serif" font-size="10.00">RestServer</text>
</a>
</g>
</g>
<!-- Node2 -->
<g id="Node000002" class="node">
<title>Node2</title>
<g id="a_Node000002"><a xlink:title=" ">
<polygon fill="white" stroke="#666666" points="56,-430.98 0,-430.98 0,-411.98 56,-411.98 56,-430.98"/>
<text text-anchor="middle" x="28" y="-418.98" font-family="Helvetica,sans-Serif" font-size="10.00">QObject</text>
</a>
</g>
</g>
<!-- Node2&#45;&gt;Node1 -->
<g id="edge1_Node000001_Node000002" class="edge">
<title>Node2&#45;&gt;Node1</title>
<g id="a_edge1_Node000001_Node000002"><a xlink:title=" ">
<path fill="none" stroke="#63b8ff" d="M66.21,-426.27C69.18,-426.42 72.14,-426.5 75,-426.48 202.57,-425.36 236.01,-441.51 362,-421.48 444.13,-408.42 537.1,-373.98 579.58,-357.09"/>
<polygon fill="#63b8ff" stroke="#63b8ff" points="66.43,-422.77 56.19,-425.49 65.89,-429.75 66.43,-422.77"/>
</a>
</g>
</g>
<!-- Node14 -->
<g id="Node000014" class="node">
<title>Node14</title>
<g id="a_Node000014"><a xlink:href="classComputeWorker.html" target="_top" xlink:title=" ">
<polygon fill="white" stroke="#666666" points="209,-411.98 114,-411.98 114,-392.98 209,-392.98 209,-411.98"/>
<text text-anchor="middle" x="161.5" y="-399.98" font-family="Helvetica,sans-Serif" font-size="10.00">ComputeWorker</text>
</a>
</g>
</g>
<!-- Node2&#45;&gt;Node14 -->
<g id="edge14_Node000014_Node000002" class="edge">
<title>Node2&#45;&gt;Node14</title>
<g id="a_edge14_Node000014_Node000002"><a xlink:title=" ">
<path fill="none" stroke="#63b8ff" d="M66.51,-416.06C81.26,-413.93 98.34,-411.46 113.86,-409.21"/>
<polygon fill="#63b8ff" stroke="#63b8ff" points="65.64,-412.64 56.25,-417.54 66.64,-419.57 65.64,-412.64"/>
</a>
</g>
</g>
<!-- Node3 -->
<g id="Node000003" class="node">
<title>Node3</title>
<g id="a_Node000003"><a xlink:href="classMainWindow.html" target="_top" xlink:title=" ">
<polygon fill="white" stroke="#666666" points="460,-246.98 380,-246.98 380,-227.98 460,-227.98 460,-246.98"/>
<text text-anchor="middle" x="420" y="-234.98" font-family="Helvetica,sans-Serif" font-size="10.00">MainWindow</text>
</a>
</g>
</g>
<!-- Node3&#45;&gt;Node1 -->
<g id="edge2_Node000001_Node000003" class="edge">
<title>Node3&#45;&gt;Node1</title>
<g id="a_edge2_Node000001_Node000003"><a xlink:title=" ">
<path fill="none" stroke="#9a32cd" stroke-dasharray="5,2" d="M445.71,-252.41C483.67,-275.36 555.27,-318.63 587.07,-337.85"/>
<polygon fill="#9a32cd" stroke="#9a32cd" points="447.2,-249.22 436.83,-247.05 443.58,-255.21 447.2,-249.22"/>
</a>
</g>
<text text-anchor="middle" x="514.5" y="-317.48" font-family="Helvetica,sans-Serif" font-size="10.00" fill="grey"> mainWindow_</text>
</g>
<!-- Node4 -->
<g id="Node000004" class="node">
<title>Node4</title>
<g id="a_Node000004"><a xlink:title=" ">
<polygon fill="white" stroke="#666666" points="205,-374.98 118,-374.98 118,-355.98 205,-355.98 205,-374.98"/>
<text text-anchor="middle" x="161.5" y="-362.98" font-family="Helvetica,sans-Serif" font-size="10.00">QMainWindow</text>
</a>
</g>
</g>
<!-- Node4&#45;&gt;Node3 -->
<g id="edge3_Node000003_Node000004" class="edge">
<title>Node4&#45;&gt;Node3</title>
<g id="a_edge3_Node000003_Node000004"><a xlink:title=" ">
<path fill="none" stroke="#63b8ff" d="M215.32,-372.02C258.39,-374.58 318.94,-371.57 362,-342.48 396.38,-319.25 411.83,-268.23 416.95,-247.02"/>
<polygon fill="#63b8ff" stroke="#63b8ff" points="215.54,-368.53 205.31,-371.31 215.04,-375.51 215.54,-368.53"/>
</a>
</g>
</g>
<!-- Node5 -->
<g id="Node000005" class="node">
<title>Node5</title>
<g id="a_Node000005"><a xlink:href="classBackboneRibbonOverlay.html" target="_top" xlink:title=" ">
<polygon fill="white" stroke="#666666" points="230,-337.98 93,-337.98 93,-318.98 230,-318.98 230,-337.98"/>
<text text-anchor="middle" x="161.5" y="-325.98" font-family="Helvetica,sans-Serif" font-size="10.00">BackboneRibbonOverlay</text>
</a>
</g>
</g>
<!-- Node5&#45;&gt;Node3 -->
<g id="edge4_Node000003_Node000005" class="edge">
<title>Node5&#45;&gt;Node3</title>
<g id="a_edge4_Node000003_Node000005"><a xlink:title=" ">
<path fill="none" stroke="#9a32cd" stroke-dasharray="5,2" d="M240.34,-329.21C278.86,-326.66 324.92,-319.06 362,-299.48 385.27,-287.19 404,-261.53 413.07,-247.37"/>
<polygon fill="#9a32cd" stroke="#9a32cd" points="240,-325.72 230.21,-329.78 240.39,-332.71 240,-325.72"/>
</a>
</g>
<text text-anchor="middle" x="305" y="-330.48" font-family="Helvetica,sans-Serif" font-size="10.00" fill="grey"> ribbonOverlay_</text>
</g>
<!-- Node6 -->
<g id="Node000006" class="node">
<title>Node6</title>
<g id="a_Node000006"><a xlink:href="classRingCurrentOverlay.html" target="_top" xlink:title=" ">
<polygon fill="white" stroke="#666666" points="218,-300.98 105,-300.98 105,-281.98 218,-281.98 218,-300.98"/>
<text text-anchor="middle" x="161.5" y="-288.98" font-family="Helvetica,sans-Serif" font-size="10.00">RingCurrentOverlay</text>
</a>
</g>
</g>
<!-- Node6&#45;&gt;Node3 -->
<g id="edge5_Node000003_Node000006" class="edge">
<title>Node6&#45;&gt;Node3</title>
<g id="a_edge5_Node000003_Node000006"><a xlink:title=" ">
<path fill="none" stroke="#9a32cd" stroke-dasharray="5,2" d="M228.04,-287.07C267.45,-283.24 318.29,-276.22 362,-263.48 375.78,-259.46 390.51,-252.67 401.54,-247.04"/>
<polygon fill="#9a32cd" stroke="#9a32cd" points="227.65,-283.59 218.01,-288 228.29,-290.56 227.65,-283.59"/>
</a>
</g>
<text text-anchor="middle" x="305" y="-287.48" font-family="Helvetica,sans-Serif" font-size="10.00" fill="grey"> ringOverlay_</text>
</g>
<!-- Node7 -->
<g id="Node000007" class="node">
<title>Node7</title>
<g id="a_Node000007"><a xlink:href="classPeptideBondOverlay.html" target="_top" xlink:title=" ">
<polygon fill="white" stroke="#666666" points="219.5,-263.98 103.5,-263.98 103.5,-244.98 219.5,-244.98 219.5,-263.98"/>
<text text-anchor="middle" x="161.5" y="-251.98" font-family="Helvetica,sans-Serif" font-size="10.00">PeptideBondOverlay</text>
</a>
</g>
</g>
<!-- Node7&#45;&gt;Node3 -->
<g id="edge6_Node000003_Node000007" class="edge">
<title>Node7&#45;&gt;Node3</title>
<g id="a_edge6_Node000003_Node000007"><a xlink:title=" ">
<path fill="none" stroke="#9a32cd" stroke-dasharray="5,2" d="M230,-250C277.74,-246.84 340.08,-242.71 379.84,-240.07"/>
<polygon fill="#9a32cd" stroke="#9a32cd" points="229.49,-246.53 219.74,-250.68 229.95,-253.51 229.49,-246.53"/>
</a>
</g>
<text text-anchor="middle" x="305" y="-251.48" font-family="Helvetica,sans-Serif" font-size="10.00" fill="grey"> peptideBondOverlay_</text>
</g>
<!-- Node8 -->
<g id="Node000008" class="node">
<title>Node8</title>
<g id="a_Node000008"><a xlink:href="classTensorGlyph.html" target="_top" xlink:title=" ">
<polygon fill="white" stroke="#666666" points="200,-226.98 123,-226.98 123,-207.98 200,-207.98 200,-226.98"/>
<text text-anchor="middle" x="161.5" y="-214.98" font-family="Helvetica,sans-Serif" font-size="10.00">TensorGlyph</text>
</a>
</g>
</g>
<!-- Node8&#45;&gt;Node3 -->
<g id="edge7_Node000003_Node000008" class="edge">
<title>Node8&#45;&gt;Node3</title>
<g id="a_edge7_Node000003_Node000008"><a xlink:title=" ">
<path fill="none" stroke="#9a32cd" stroke-dasharray="5,2" d="M210.27,-217.68C250.78,-218.32 310.37,-220.36 362,-226.48 367.8,-227.16 373.91,-228.1 379.87,-229.15"/>
<polygon fill="#9a32cd" stroke="#9a32cd" points="210.18,-214.18 200.14,-217.55 210.09,-221.18 210.18,-214.18"/>
</a>
</g>
<text text-anchor="middle" x="305" y="-229.48" font-family="Helvetica,sans-Serif" font-size="10.00" fill="grey"> tensorGlyph_</text>
</g>
<!-- Node9 -->
<g id="Node000009" class="node">
<title>Node9</title>
<g id="a_Node000009"><a xlink:href="classEllipsoidGlyph.html" target="_top" xlink:title=" ">
<polygon fill="white" stroke="#666666" points="204.5,-189.98 118.5,-189.98 118.5,-170.98 204.5,-170.98 204.5,-189.98"/>
<text text-anchor="middle" x="161.5" y="-177.98" font-family="Helvetica,sans-Serif" font-size="10.00">EllipsoidGlyph</text>
</a>
</g>
</g>
<!-- Node9&#45;&gt;Node3 -->
<g id="edge8_Node000003_Node000009" class="edge">
<title>Node9&#45;&gt;Node3</title>
<g id="a_edge8_Node000003_Node000009"><a xlink:title=" ">
<path fill="none" stroke="#9a32cd" stroke-dasharray="5,2" d="M214.93,-180.54C255.95,-182 313.9,-187.2 362,-203.48 378.37,-209.02 395.13,-219.74 406.2,-227.67"/>
<polygon fill="#9a32cd" stroke="#9a32cd" points="214.98,-177.04 204.88,-180.24 214.78,-184.04 214.98,-177.04"/>
</a>
</g>
<text text-anchor="middle" x="305" y="-206.48" font-family="Helvetica,sans-Serif" font-size="10.00" fill="grey"> ellipsoidGlyph_</text>
</g>
<!-- Node10 -->
<g id="Node000010" class="node">
<title>Node10</title>
<g id="a_Node000010"><a xlink:href="classFieldOverlay.html" target="_top" xlink:title=" ">
<polygon fill="white" stroke="#666666" points="200.5,-152.98 122.5,-152.98 122.5,-133.98 200.5,-133.98 200.5,-152.98"/>
<text text-anchor="middle" x="161.5" y="-140.98" font-family="Helvetica,sans-Serif" font-size="10.00">FieldOverlay</text>
</a>
</g>
</g>
<!-- Node10&#45;&gt;Node3 -->
<g id="edge9_Node000003_Node000010" class="edge">
<title>Node10&#45;&gt;Node3</title>
<g id="a_edge9_Node000003_Node000010"><a xlink:title=" ">
<path fill="none" stroke="#9a32cd" stroke-dasharray="5,2" d="M210.78,-139.49C253.21,-138.18 315.28,-141.74 362,-167.48 387.53,-181.54 406.05,-212.12 414.27,-227.79"/>
<polygon fill="#9a32cd" stroke="#9a32cd" points="210.56,-136 200.71,-139.91 210.84,-142.99 210.56,-136"/>
</a>
</g>
<text text-anchor="middle" x="305" y="-170.48" font-family="Helvetica,sans-Serif" font-size="10.00" fill="grey"> fieldOverlay_</text>
</g>
<!-- Node11 -->
<g id="Node000011" class="node">
<title>Node11</title>
<g id="a_Node000011"><a xlink:href="classIsosurfaceOverlay.html" target="_top" xlink:title=" ">
<polygon fill="white" stroke="#666666" points="214,-106.98 109,-106.98 109,-87.98 214,-87.98 214,-106.98"/>
<text text-anchor="middle" x="161.5" y="-94.98" font-family="Helvetica,sans-Serif" font-size="10.00">IsosurfaceOverlay</text>
</a>
</g>
</g>
<!-- Node11&#45;&gt;Node3 -->
<g id="edge10_Node000003_Node000011" class="edge">
<title>Node11&#45;&gt;Node3</title>
<g id="a_edge10_Node000003_Node000011"><a xlink:title=" ">
<path fill="none" stroke="#9a32cd" stroke-dasharray="5,2" d="M206.92,-85.76C250.35,-77.06 316.41,-71.41 362,-102.48 405.52,-132.13 415.93,-202.09 418.32,-227.79"/>
<polygon fill="#9a32cd" stroke="#9a32cd" points="205.98,-82.38 196.94,-87.9 207.45,-89.23 205.98,-82.38"/>
</a>
</g>
<text text-anchor="start" x="248" y="-127.48" font-family="Helvetica,sans-Serif" font-size="10.00" fill="grey"> isosurfaceOverlayPass</text>
<text text-anchor="middle" x="305" y="-116.48" font-family="Helvetica,sans-Serif" font-size="10.00" fill="grey">_</text>
<text text-anchor="middle" x="305" y="-105.48" font-family="Helvetica,sans-Serif" font-size="10.00" fill="grey">isosurfaceOverlay_</text>
</g>
<!-- Node12 -->
<g id="Node000012" class="node">
<title>Node12</title>
<g id="a_Node000012"><a xlink:href="classButterflyOverlay.html" target="_top" xlink:title=" ">
<polygon fill="white" stroke="#666666" points="210,-69.98 113,-69.98 113,-50.98 210,-50.98 210,-69.98"/>
<text text-anchor="middle" x="161.5" y="-57.98" font-family="Helvetica,sans-Serif" font-size="10.00">ButterflyOverlay</text>
</a>
</g>
</g>
<!-- Node12&#45;&gt;Node3 -->
<g id="edge11_Node000003_Node000012" class="edge">
<title>Node12&#45;&gt;Node3</title>
<g id="a_edge11_Node000003_Node000012"><a xlink:title=" ">
<path fill="none" stroke="#9a32cd" stroke-dasharray="5,2" d="M202.65,-48.52C246.29,-38.15 315.94,-29.56 362,-63.48 416.52,-103.62 419.78,-197.42 419.33,-227.8"/>
<polygon fill="#9a32cd" stroke="#9a32cd" points="201.79,-45.13 192.95,-50.96 203.5,-51.92 201.79,-45.13"/>
</a>
</g>
<text text-anchor="middle" x="305" y="-66.48" font-family="Helvetica,sans-Serif" font-size="10.00" fill="grey"> butterflyOverlay_</text>
</g>
<!-- Node13 -->
<g id="Node000013" class="node">
<title>Node13</title>
<g id="a_Node000013"><a xlink:href="classFieldGridOverlay.html" target="_top" xlink:title=" ">
<polygon fill="white" stroke="#666666" points="210.5,-32.98 112.5,-32.98 112.5,-13.98 210.5,-13.98 210.5,-32.98"/>
<text text-anchor="middle" x="161.5" y="-20.98" font-family="Helvetica,sans-Serif" font-size="10.00">FieldGridOverlay</text>
</a>
</g>
</g>
<!-- Node13&#45;&gt;Node3 -->
<g id="edge12_Node000003_Node000013" class="edge">
<title>Node13&#45;&gt;Node3</title>
<g id="a_edge12_Node000003_Node000013"><a xlink:title=" ">
<path fill="none" stroke="#9a32cd" stroke-dasharray="5,2" d="M200.38,-11.23C244.08,0.34 315.83,11.15 362,-24.48 395.41,-50.26 413.55,-189.65 417.94,-227.81"/>
<polygon fill="#9a32cd" stroke="#9a32cd" points="199.4,-7.87 190.71,-13.92 201.28,-14.61 199.4,-7.87"/>
</a>
</g>
<text text-anchor="middle" x="305" y="-27.48" font-family="Helvetica,sans-Serif" font-size="10.00" fill="grey"> fieldGridOverlay_</text>
</g>
<!-- Node14&#45;&gt;Node3 -->
<g id="edge13_Node000003_Node000014" class="edge">
<title>Node14&#45;&gt;Node3</title>
<g id="a_edge13_Node000003_Node000014"><a xlink:title=" ">
<path fill="none" stroke="#9a32cd" stroke-dasharray="5,2" d="M219.15,-407.64C262.56,-408.56 321.67,-402.87 362,-371.48 403.1,-339.49 414.96,-272.21 418.03,-247.15"/>
<polygon fill="#9a32cd" stroke="#9a32cd" points="219.14,-404.14 209.03,-407.3 218.91,-411.13 219.14,-404.14"/>
</a>
</g>
<text text-anchor="middle" x="305" y="-409.48" font-family="Helvetica,sans-Serif" font-size="10.00" fill="grey"> worker_</text>
</g>
</g>
</svg>

<g id="navigator" transform="translate(0 0)" fill="#404254">
  <rect fill="#f2f5e9" fill-opacity="0.5" stroke="#606060" stroke-width=".5" x="0" y="0" width="60" height="60"/>
  <use id="zoomplus" xlink:href="#zoomPlus" x="17" y="9" onmousedown="handleZoom(evt,'in')"/>
  <use id="zoomminus" xlink:href="#zoomMin" x="42" y="9" onmousedown="handleZoom(evt,'out')"/>
  <use id="reset" xlink:href="#resetDef" x="30" y="36" onmousedown="handleReset()"/>
   <use id="arrowup" xlink:href="#arrowUp" x="0" y="0" onmousedown="handlePan(0,-1)"/>
  <use id="arrowright" xlink:href="#arrowRight" x="0" y="0" onmousedown="handlePan(1,0)"/>
  <use id="arrowdown" xlink:href="#arrowDown" x="0" y="0" onmousedown="handlePan(0,1)"/>
  <use id="arrowleft" xlink:href="#arrowLeft" x="0" y="0" onmousedown="handlePan(-1,0)"/>
</g>
<svg viewBox="0 0 15 15" width="100%" height="30px" preserveAspectRatio="xMaxYMin meet">
 <g id="arrow_out" transform="scale(0.3 0.3)">
  <a xlink:href="classRestServer__coll__graph_org.svg" target="_base">
   <rect id="button" ry="5" rx="5" y="6" x="6" height="38" width="38"
        fill="#f2f5e9" fill-opacity="0.5" stroke="#606060" stroke-width="1.0"/>
   <path id="arrow"
     d="M 11.500037,31.436501 C 11.940474,20.09759 22.043105,11.32322 32.158766,21.979434 L 37.068811,17.246167 C 37.068811,17.246167 37.088388,32 37.088388,32 L 22.160133,31.978069 C 22.160133,31.978069 26.997745,27.140456 26.997745,27.140456 C 18.528582,18.264221 13.291696,25.230495 11.500037,31.436501 z"
     style="fill:#404040;"/>
  </a>
 </g>
</svg>

<style type='text/css'>
<![CDATA[
[data-mouse-over-selected='false'] { opacity: 0.7; }
[data-mouse-over-selected='true']  { opacity: 1.0; }
]]>
</style>
<script type="application/ecmascript"><![CDATA[
document.addEventListener('DOMContentLoaded', (event) => {
  highlightEdges();
  highlightAdjacentNodes();
});
]]></script>
</svg>
