<?xml version="1.0" encoding="UTF-8" standalone="no"?>
<!DOCTYPE svg PUBLIC "-//W3C//DTD SVG 1.1//EN"
 "http://www.w3.org/Graphics/SVG/1.1/DTD/svg11.dtd">
<!-- Generated by graphviz version 2.43.0 (0)
 -->
<!-- Title: MainWindow Pages: 1 -->
<svg width="468pt" height="423pt"
 viewBox="0.00 0.00 468.00 423.38" xmlns="http://www.w3.org/2000/svg" xmlns:xlink="http://www.w3.org/1999/xlink">

<svg id="main" version="1.1" xmlns="http://www.w3.org/2000/svg" xmlns:xlink="http://www.w3.org/1999/xlink" xml:space="preserve" onload="init(evt)">
<style type="text/css"><![CDATA[
.node, .edge {opacity: 0.7;}
.node.selected, .edge.selected {opacity: 1;}
.edge:hover path { stroke: red; }
.edge:hover polygon { stroke: red; fill: red; }
]]></style>
<script type="application/ecmascript" xlink:href="svg.min.js"/>
<svg id="graph" class="graph">
<g id="graph0" class="graph" transform="scale(1 1) rotate(0) translate(4 419.38)">
<title>MainWindow</title>
<!-- Node1 -->
<g id="Node000001" class="node">
<title>Node1</title>
<g id="a_Node000001"><a xlink:title=" ">
<polygon fill="#999999" stroke="#666666" points="460,-228.25 380,-228.25 380,-209.25 460,-209.25 460,-228.25"/>
<text text-anchor="middle" x="420" y="-216.25" font-family="Helvetica,sans-Serif" font-size="10.00">MainWindow</text>
</a>
</g>
</g>
<!-- Node2 -->
<g id="Node000002" class="node">
<title>Node2</title>
<g id="a_Node000002"><a xlink:title=" ">
<polygon fill="white" stroke="#666666" points="205,-410.25 118,-410.25 118,-391.25 205,-391.25 205,-410.25"/>
<text text-anchor="middle" x="161.5" y="-398.25" font-family="Helvetica,sans-Serif" font-size="10.00">QMainWindow</text>
</a>
</g>
</g>
<!-- Node2&#45;&gt;Node1 -->
<g id="edge1_Node000001_Node000002" class="edge">
<title>Node2&#45;&gt;Node1</title>
<g id="a_edge1_Node000001_Node000002"><a xlink:title=" ">
<path fill="none" stroke="#63b8ff" d="M214.91,-411.8C258.73,-417.89 320.55,-418.71 362,-386.75 413.71,-346.88 418.86,-257.83 419.11,-228.4"/>
<polygon fill="#63b8ff" stroke="#63b8ff" points="215.43,-408.34 205.02,-410.3 214.38,-415.26 215.43,-408.34"/>
</a>
</g>
</g>
<!-- Node3 -->
<g id="Node000003" class="node">
<title>Node3</title>
<g id="a_Node000003"><a xlink:href="classBackboneRibbonOverlay.html" target="_top" xlink:title=" ">
<polygon fill="white" stroke="#666666" points="230,-373.25 93,-373.25 93,-354.25 230,-354.25 230,-373.25"/>
<text text-anchor="middle" x="161.5" y="-361.25" font-family="Helvetica,sans-Serif" font-size="10.00">BackboneRibbonOverlay</text>
</a>
</g>
</g>
<!-- Node3&#45;&gt;Node1 -->
<g id="edge2_Node000001_Node000003" class="edge">
<title>Node3&#45;&gt;Node1</title>
<g id="a_edge2_Node000001_Node000003"><a xlink:title=" ">
<path fill="none" stroke="#9a32cd" stroke-dasharray="5,2" d="M240.55,-372.37C280.29,-372.76 327.38,-366.64 362,-341.75 400.98,-313.72 414.03,-252.26 417.73,-228.45"/>
<polygon fill="#9a32cd" stroke="#9a32cd" points="240.43,-368.87 230.35,-372.13 240.26,-375.87 240.43,-368.87"/>
</a>
</g>
<text text-anchor="middle" x="305" y="-374.75" font-family="Helvetica,sans-Serif" font-size="10.00" fill="grey"> ribbonOverlay_</text>
</g>
<!-- Node4 -->
<g id="Node000004" class="node">
<title>Node4</title>
<g id="a_Node000004"><a xlink:href="classRingCurrentOverlay.html" target="_top" xlink:title=" ">
<polygon fill="white" stroke="#666666" points="218,-336.25 105,-336.25 105,-317.25 218,-317.25 218,-336.25"/>
<text text-anchor="middle" x="161.5" y="-324.25" font-family="Helvetica,sans-Serif" font-size="10.00">RingCurrentOverlay</text>
</a>
</g>
</g>
<!-- Node4&#45;&gt;Node1 -->
<g id="edge3_Node000001_Node000004" class="edge">
<title>Node4&#45;&gt;Node1</title>
<g id="a_edge3_Node000001_Node000004"><a xlink:title=" ">
<path fill="none" stroke="#9a32cd" stroke-dasharray="5,2" d="M228.27,-330.77C269.45,-330.3 322.07,-324.01 362,-299.75 390.07,-282.69 407.98,-246 415.27,-228.47"/>
<polygon fill="#9a32cd" stroke="#9a32cd" points="228.07,-327.27 218.07,-330.77 228.07,-334.27 228.07,-327.27"/>
</a>
</g>
<text text-anchor="middle" x="305" y="-332.75" font-family="Helvetica,sans-Serif" font-size="10.00" fill="grey"> ringOverlay_</text>
</g>
<!-- Node5 -->
<g id="Node000005" class="node">
<title>Node5</title>
<g id="a_Node000005"><a xlink:href="classPeptideBondOverlay.html" target="_top" xlink:title=" ">
<polygon fill="white" stroke="#666666" points="219.5,-299.25 103.5,-299.25 103.5,-280.25 219.5,-280.25 219.5,-299.25"/>
<text text-anchor="middle" x="161.5" y="-287.25" font-family="Helvetica,sans-Serif" font-size="10.00">PeptideBondOverlay</text>
</a>
</g>
</g>
<!-- Node5&#45;&gt;Node1 -->
<g id="edge4_Node000001_Node000005" class="edge">
<title>Node5&#45;&gt;Node1</title>
<g id="a_edge4_Node000001_Node000005"><a xlink:title=" ">
<path fill="none" stroke="#9a32cd" stroke-dasharray="5,2" d="M229.95,-287.52C269.62,-284.29 320.07,-276.81 362,-259.75 380.29,-252.31 398.26,-237.87 408.99,-228.27"/>
<polygon fill="#9a32cd" stroke="#9a32cd" points="229.56,-284.04 219.85,-288.27 230.08,-291.02 229.56,-284.04"/>
</a>
</g>
<text text-anchor="middle" x="305" y="-287.75" font-family="Helvetica,sans-Serif" font-size="10.00" fill="grey"> peptideBondOverlay_</text>
</g>
<!-- Node6 -->
<g id="Node000006" class="node">
<title>Node6</title>
<g id="a_Node000006"><a xlink:href="classTensorGlyph.html" target="_top" xlink:title=" ">
<polygon fill="white" stroke="#666666" points="200,-262.25 123,-262.25 123,-243.25 200,-243.25 200,-262.25"/>
<text text-anchor="middle" x="161.5" y="-250.25" font-family="Helvetica,sans-Serif" font-size="10.00">TensorGlyph</text>
</a>
</g>
</g>
<!-- Node6&#45;&gt;Node1 -->
<g id="edge5_Node000001_Node000006" class="edge">
<title>Node6&#45;&gt;Node1</title>
<g id="a_edge5_Node000001_Node000006"><a xlink:title=" ">
<path fill="none" stroke="#9a32cd" stroke-dasharray="5,2" d="M210.28,-248.8C250.81,-245.14 310.41,-239.01 362,-230.75 367.79,-229.82 373.88,-228.7 379.85,-227.52"/>
<polygon fill="#9a32cd" stroke="#9a32cd" points="209.8,-245.33 200.15,-249.7 210.42,-252.3 209.8,-245.33"/>
</a>
</g>
<text text-anchor="middle" x="305" y="-247.75" font-family="Helvetica,sans-Serif" font-size="10.00" fill="grey"> tensorGlyph_</text>
</g>
<!-- Node7 -->
<g id="Node000007" class="node">
<title>Node7</title>
<g id="a_Node000007"><a xlink:href="classEllipsoidGlyph.html" target="_top" xlink:title=" ">
<polygon fill="white" stroke="#666666" points="204.5,-225.25 118.5,-225.25 118.5,-206.25 204.5,-206.25 204.5,-225.25"/>
<text text-anchor="middle" x="161.5" y="-213.25" font-family="Helvetica,sans-Serif" font-size="10.00">EllipsoidGlyph</text>
</a>
</g>
</g>
<!-- Node7&#45;&gt;Node1 -->
<g id="edge6_Node000001_Node000007" class="edge">
<title>Node7&#45;&gt;Node1</title>
<g id="a_edge6_Node000001_Node000007"><a xlink:title=" ">
<path fill="none" stroke="#9a32cd" stroke-dasharray="5,2" d="M214.64,-216.36C263.57,-216.93 335.67,-217.78 379.85,-218.29"/>
<polygon fill="#9a32cd" stroke="#9a32cd" points="214.61,-212.86 204.57,-216.24 214.53,-219.86 214.61,-212.86"/>
</a>
</g>
<text text-anchor="middle" x="305" y="-220.75" font-family="Helvetica,sans-Serif" font-size="10.00" fill="grey"> ellipsoidGlyph_</text>
</g>
<!-- Node8 -->
<g id="Node000008" class="node">
<title>Node8</title>
<g id="a_Node000008"><a xlink:href="classFieldOverlay.html" target="_top" xlink:title=" ">
<polygon fill="white" stroke="#666666" points="200.5,-188.25 122.5,-188.25 122.5,-169.25 200.5,-169.25 200.5,-188.25"/>
<text text-anchor="middle" x="161.5" y="-176.25" font-family="Helvetica,sans-Serif" font-size="10.00">FieldOverlay</text>
</a>
</g>
</g>
<!-- Node8&#45;&gt;Node1 -->
<g id="edge7_Node000001_Node000008" class="edge">
<title>Node8&#45;&gt;Node1</title>
<g id="a_edge7_Node000001_Node000008"><a xlink:title=" ">
<path fill="none" stroke="#9a32cd" stroke-dasharray="5,2" d="M210.85,-181.94C251.49,-185.19 310.94,-191.28 362,-201.75 371.41,-203.68 381.5,-206.45 390.54,-209.2"/>
<polygon fill="#9a32cd" stroke="#9a32cd" points="210.93,-178.44 200.69,-181.16 210.39,-185.42 210.93,-178.44"/>
</a>
</g>
<text text-anchor="middle" x="305" y="-204.75" font-family="Helvetica,sans-Serif" font-size="10.00" fill="grey"> fieldOverlay_</text>
</g>
<!-- Node9 -->
<g id="Node000009" class="node">
<title>Node9</title>
<g id="a_Node000009"><a xlink:href="classIsosurfaceOverlay.html" target="_top" xlink:title=" ">
<polygon fill="white" stroke="#666666" points="214,-141.25 109,-141.25 109,-122.25 214,-122.25 214,-141.25"/>
<text text-anchor="middle" x="161.5" y="-129.25" font-family="Helvetica,sans-Serif" font-size="10.00">IsosurfaceOverlay</text>
</a>
</g>
</g>
<!-- Node9&#45;&gt;Node1 -->
<g id="edge8_Node000001_Node000009" class="edge">
<title>Node9&#45;&gt;Node1</title>
<g id="a_edge8_Node000001_Node000009"><a xlink:title=" ">
<path fill="none" stroke="#9a32cd" stroke-dasharray="5,2" d="M224.57,-124.46C265.84,-122.46 319.97,-125.48 362,-147.75 388.12,-161.59 406.49,-193.1 414.5,-209.07"/>
<polygon fill="#9a32cd" stroke="#9a32cd" points="224.14,-120.98 214.37,-125.07 224.56,-127.97 224.14,-120.98"/>
</a>
</g>
<text text-anchor="start" x="248" y="-172.75" font-family="Helvetica,sans-Serif" font-size="10.00" fill="grey"> isosurfaceOverlayPass</text>
<text text-anchor="middle" x="305" y="-161.75" font-family="Helvetica,sans-Serif" font-size="10.00" fill="grey">_</text>
<text text-anchor="middle" x="305" y="-150.75" font-family="Helvetica,sans-Serif" font-size="10.00" fill="grey">isosurfaceOverlay_</text>
</g>
<!-- Node10 -->
<g id="Node000010" class="node">
<title>Node10</title>
<g id="a_Node000010"><a xlink:href="classButterflyOverlay.html" target="_top" xlink:title=" ">
<polygon fill="white" stroke="#666666" points="210,-104.25 113,-104.25 113,-85.25 210,-85.25 210,-104.25"/>
<text text-anchor="middle" x="161.5" y="-92.25" font-family="Helvetica,sans-Serif" font-size="10.00">ButterflyOverlay</text>
</a>
</g>
</g>
<!-- Node10&#45;&gt;Node1 -->
<g id="edge9_Node000001_Node000010" class="edge">
<title>Node10&#45;&gt;Node1</title>
<g id="a_edge9_Node000001_Node000010"><a xlink:title=" ">
<path fill="none" stroke="#9a32cd" stroke-dasharray="5,2" d="M220.1,-84.63C262.72,-80.3 320.36,-81.39 362,-108.75 398.13,-132.49 412.66,-186.76 417.24,-208.99"/>
<polygon fill="#9a32cd" stroke="#9a32cd" points="219.69,-81.16 210.15,-85.77 220.49,-88.11 219.69,-81.16"/>
</a>
</g>
<text text-anchor="middle" x="305" y="-111.75" font-family="Helvetica,sans-Serif" font-size="10.00" fill="grey"> butterflyOverlay_</text>
</g>
<!-- Node11 -->
<g id="Node000011" class="node">
<title>Node11</title>
<g id="a_Node000011"><a xlink:href="classFieldGridOverlay.html" target="_top" xlink:title=" ">
<polygon fill="white" stroke="#666666" points="210.5,-67.25 112.5,-67.25 112.5,-48.25 210.5,-48.25 210.5,-67.25"/>
<text text-anchor="middle" x="161.5" y="-55.25" font-family="Helvetica,sans-Serif" font-size="10.00">FieldGridOverlay</text>
</a>
</g>
</g>
<!-- Node11&#45;&gt;Node1 -->
<g id="edge10_Node000001_Node000011" class="edge">
<title>Node11&#45;&gt;Node1</title>
<g id="a_edge10_Node000001_Node000011"><a xlink:title=" ">
<path fill="none" stroke="#9a32cd" stroke-dasharray="5,2" d="M209.63,-46.31C253.36,-38.59 318.12,-34.86 362,-66.75 409.87,-101.55 417.56,-181.54 418.78,-209.16"/>
<polygon fill="#9a32cd" stroke="#9a32cd" points="208.71,-42.92 199.54,-48.23 210.02,-49.8 208.71,-42.92"/>
</a>
</g>
<text text-anchor="middle" x="305" y="-69.75" font-family="Helvetica,sans-Serif" font-size="10.00" fill="grey"> fieldGridOverlay_</text>
</g>
<!-- Node12 -->
<g id="Node000012" class="node">
<title>Node12</title>
<g id="a_Node000012"><a xlink:href="classComputeWorker.html" target="_top" xlink:title=" ">
<polygon fill="white" stroke="#666666" points="209,-30.25 114,-30.25 114,-11.25 209,-11.25 209,-30.25"/>
<text text-anchor="middle" x="161.5" y="-18.25" font-family="Helvetica,sans-Serif" font-size="10.00">ComputeWorker</text>
</a>
</g>
</g>
<!-- Node12&#45;&gt;Node1 -->
<g id="edge11_Node000001_Node000012" class="edge">
<title>Node12&#45;&gt;Node1</title>
<g id="a_edge11_Node000001_Node000012"><a xlink:title=" ">
<path fill="none" stroke="#9a32cd" stroke-dasharray="5,2" d="M203.64,-8.86C247.54,1.14 316.86,8.88 362,-25.75 392.22,-48.93 412.3,-172.59 417.6,-208.79"/>
<polygon fill="#9a32cd" stroke="#9a32cd" points="202.77,-5.47 193.87,-11.22 204.41,-12.28 202.77,-5.47"/>
</a>
</g>
<text text-anchor="middle" x="305" y="-28.75" font-family="Helvetica,sans-Serif" font-size="10.00" fill="grey"> worker_</text>
</g>
<!-- Node13 -->
<g id="Node000013" class="node">
<title>Node13</title>
<g id="a_Node000013"><a xlink:title=" ">
<polygon fill="white" stroke="#666666" points="56,-30.25 0,-30.25 0,-11.25 56,-11.25 56,-30.25"/>
<text text-anchor="middle" x="28" y="-18.25" font-family="Helvetica,sans-Serif" font-size="10.00">QObject</text>
</a>
</g>
</g>
<!-- Node13&#45;&gt;Node12 -->
<g id="edge12_Node000012_Node000013" class="edge">
<title>Node13&#45;&gt;Node12</title>
<g id="a_edge12_Node000012_Node000013"><a xlink:title=" ">
<path fill="none" stroke="#63b8ff" d="M66.51,-20.75C81.26,-20.75 98.34,-20.75 113.86,-20.75"/>
<polygon fill="#63b8ff" stroke="#63b8ff" points="66.25,-17.25 56.25,-20.75 66.25,-24.25 66.25,-17.25"/>
</a>
</g>
</g>
</g>
</svg>
</svg>

<style type='text/css'>
<![CDATA[
[data-mouse-over-selected='false'] { opacity: 0.7; }
[data-mouse-over-selected='true']  { opacity: 1.0; }
]]>
</style>
<script type="application/ecmascript"><![CDATA[
document.addEventListener('DOMContentLoaded', (event) => {
  highlightEdges();
  highlightAdjacentNodes();
});
]]></script>
</svg>
