<?xml version="1.0" encoding="UTF-8" standalone="no"?>
<!DOCTYPE svg PUBLIC "-//W3C//DTD SVG 1.1//EN"
 "http://www.w3.org/Graphics/SVG/1.1/DTD/svg11.dtd">
<!-- Generated by graphviz version 2.43.0 (0)
 -->
<!-- Title: src/Colormap.h Pages: 1 -->
<svg width="575pt" height="82pt"
 viewBox="0.00 0.00 575.00 82.00" xmlns="http://www.w3.org/2000/svg" xmlns:xlink="http://www.w3.org/1999/xlink">
<g id="graph0" class="graph" transform="scale(1 1) rotate(0) translate(4 78)">
<title>src/Colormap.h</title>
<!-- Node1 -->
<g id="Node000001" class="node">
<title>Node1</title>
<g id="a_Node000001"><a xlink:title=" ">
<polygon fill="#999999" stroke="#666666" points="326.5,-74 236.5,-74 236.5,-55 326.5,-55 326.5,-74"/>
<text text-anchor="middle" x="281.5" y="-62" font-family="Helvetica,sans-Serif" font-size="10.00">src/Colormap.h</text>
</a>
</g>
</g>
<!-- Node2 -->
<g id="Node000002" class="node">
<title>Node2</title>
<g id="a_Node000002"><a xlink:href="ButterflyOverlay_8cpp.html" target="_top" xlink:title=" ">
<polygon fill="white" stroke="#666666" points="133,-19 0,-19 0,0 133,0 133,-19"/>
<text text-anchor="middle" x="66.5" y="-7" font-family="Helvetica,sans-Serif" font-size="10.00">src/ButterflyOverlay.cpp</text>
</a>
</g>
</g>
<!-- Node1&#45;&gt;Node2 -->
<g id="edge1_Node000001_Node000002" class="edge">
<title>Node1&#45;&gt;Node2</title>
<g id="a_edge1_Node000001_Node000002"><a xlink:title=" ">
<path fill="none" stroke="#63b8ff" d="M237.14,-52.56C196.87,-42.64 138.3,-28.2 101.31,-19.08"/>
<polygon fill="#63b8ff" stroke="#63b8ff" points="236.41,-55.99 246.96,-54.98 238.08,-49.19 236.41,-55.99"/>
</a>
</g>
</g>
<!-- Node3 -->
<g id="Node000003" class="node">
<title>Node3</title>
<g id="a_Node000003"><a xlink:href="EllipsoidGlyph_8cpp.html" target="_top" xlink:title=" ">
<polygon fill="white" stroke="#666666" points="275.5,-19 151.5,-19 151.5,0 275.5,0 275.5,-19"/>
<text text-anchor="middle" x="213.5" y="-7" font-family="Helvetica,sans-Serif" font-size="10.00">src/EllipsoidGlyph.cpp</text>
</a>
</g>
</g>
<!-- Node1&#45;&gt;Node3 -->
<g id="edge2_Node000001_Node000003" class="edge">
<title>Node1&#45;&gt;Node3</title>
<g id="a_edge2_Node000001_Node000003"><a xlink:title=" ">
<path fill="none" stroke="#63b8ff" d="M262.38,-48.6C250.2,-39.11 234.84,-27.13 224.62,-19.17"/>
<polygon fill="#63b8ff" stroke="#63b8ff" points="260.54,-51.6 270.57,-54.98 264.84,-46.08 260.54,-51.6"/>
</a>
</g>
</g>
<!-- Node4 -->
<g id="Node000004" class="node">
<title>Node4</title>
<g id="a_Node000004"><a xlink:href="FieldOverlay_8cpp.html" target="_top" xlink:title=" ">
<polygon fill="white" stroke="#666666" points="407.5,-19 293.5,-19 293.5,0 407.5,0 407.5,-19"/>
<text text-anchor="middle" x="350.5" y="-7" font-family="Helvetica,sans-Serif" font-size="10.00">src/FieldOverlay.cpp</text>
</a>
</g>
</g>
<!-- Node1&#45;&gt;Node4 -->
<g id="edge3_Node000001_Node000004" class="edge">
<title>Node1&#45;&gt;Node4</title>
<g id="a_edge3_Node000001_Node000004"><a xlink:title=" ">
<path fill="none" stroke="#63b8ff" d="M300.54,-48.88C312.96,-39.34 328.74,-27.21 339.21,-19.17"/>
<polygon fill="#63b8ff" stroke="#63b8ff" points="298.38,-46.12 292.59,-54.98 302.65,-51.67 298.38,-46.12"/>
</a>
</g>
</g>
<!-- Node5 -->
<g id="Node000005" class="node">
<title>Node5</title>
<g id="a_Node000005"><a xlink:href="IsosurfaceOverlay_8cpp.html" target="_top" xlink:title=" ">
<polygon fill="white" stroke="#666666" points="567,-19 426,-19 426,0 567,0 567,-19"/>
<text text-anchor="middle" x="496.5" y="-7" font-family="Helvetica,sans-Serif" font-size="10.00">src/IsosurfaceOverlay.cpp</text>
</a>
</g>
</g>
<!-- Node1&#45;&gt;Node5 -->
<g id="edge4_Node000001_Node000005" class="edge">
<title>Node1&#45;&gt;Node5</title>
<g id="a_edge4_Node000001_Node000005"><a xlink:title=" ">
<path fill="none" stroke="#63b8ff" d="M325.86,-52.56C366.13,-42.64 424.7,-28.2 461.69,-19.08"/>
<polygon fill="#63b8ff" stroke="#63b8ff" points="324.92,-49.19 316.04,-54.98 326.59,-55.99 324.92,-49.19"/>
</a>
</g>
</g>
</g>
</svg>
