<?xml version="1.0" encoding="UTF-8" standalone="no"?>
<!DOCTYPE svg PUBLIC "-//W3C//DTD SVG 1.1//EN"
 "http://www.w3.org/Graphics/SVG/1.1/DTD/svg11.dtd">
<!-- Generated by graphviz version 2.43.0 (0)
 -->
<!-- Title: src/ComputeWorker.cpp Pages: 1 -->
<!--zoomable 137 -->

<svg id="main" version="1.1" xmlns="http://www.w3.org/2000/svg" xmlns:xlink="http://www.w3.org/1999/xlink" xml:space="preserve" onload="init(evt)">
<style type="text/css"><![CDATA[
.node, .edge {opacity: 0.7;}
.node.selected, .edge.selected {opacity: 1;}
.edge:hover path { stroke: red; }
.edge:hover polygon { stroke: red; fill: red; }
]]></style>

<defs>
  <circle id="rim" cx="0" cy="0" r="7"/>
  <circle id="rim2" cx="0" cy="0" r="3.5"/>
  <g id="zoomPlus">
    <use xlink:href="#rim" fill="#404040"><set attributeName="fill" to="#808080" begin="zoomplus.mouseover" end="zoomplus.mouseout"/></use>
    <path d="M-4,0h8M0,-4v8" fill="none" stroke="white" stroke-width="1.5" pointer-events="none"/>
  </g>
  <g id="zoomMin">
    <use xlink:href="#rim" fill="#404040"><set attributeName="fill" to="#808080" begin="zoomminus.mouseover" end="zoomminus.mouseout"/></use>
    <path d="M-4,0h8" fill="none" stroke="white" stroke-width="1.5" pointer-events="none"/>
  </g>
  <g id="arrowUp" transform="translate(30 24)">
    <use xlink:href="#rim"/>
    <path pointer-events="none" fill="none" stroke="white" stroke-width="1.5" d="M0,-3.0v7 M-2.5,-0.5L0,-3.0L2.5,-0.5"/>
  </g>
  <g id="arrowRight" transform="rotate(90) translate(36 -43)">
    <use xlink:href="#rim"/>
    <path pointer-events="none" fill="none" stroke="white" stroke-width="1.5" d="M0,-3.0v7 M-2.5,-0.5L0,-3.0L2.5,-0.5"/>
  </g>
  <g id="arrowDown" transform="rotate(180) translate(-30 -48)">
    <use xlink:href="#rim"/>
    <path pointer-events="none" fill="none" stroke="white" stroke-width="1.5" d="M0,-3.0v7 M-2.5,-0.5L0,-3.0L2.5,-0.5"/>
  </g>
  <g id="arrowLeft" transform="rotate(270) translate(-36 17)">
    <use xlink:href="#rim"/>
    <path pointer-events="none" fill="none" stroke="white" stroke-width="1.5" d="M0,-3.0v7 M-2.5,-0.5L0,-3.0L2.5,-0.5"/>
  </g>
  <g id="resetDef">
    <use xlink:href="#rim2" fill="#404040"><set attributeName="fill" to="#808080" begin="reset.mouseover" end="reset.mouseout"/></use>
  </g>
</defs>
<script type="application/ecmascript">
var viewWidth = 2380;
var viewHeight = 137;
var sectionId = 'dynsection-0';
</script>
<script type="application/ecmascript" xlink:href="svg.min.js"/>
<svg id="graph" class="graph">
<g id="viewport">
<title>src/ComputeWorker.cpp</title>
<!-- Node1 -->
<g id="Node000001" class="node">
<title>Node1</title>
<g id="a_Node000001"><a xlink:title=" ">
<polygon fill="#999999" stroke="#666666" points="1522.5,-129 1391.5,-129 1391.5,-110 1522.5,-110 1522.5,-129"/>
<text text-anchor="middle" x="1457" y="-117" font-family="Helvetica,sans-Serif" font-size="10.00">src/ComputeWorker.cpp</text>
</a>
</g>
</g>
<!-- Node2 -->
<g id="Node000002" class="node">
<title>Node2</title>
<g id="a_Node000002"><a xlink:href="ComputeWorker_8h.html" target="_top" xlink:title=" ">
<polygon fill="white" stroke="#666666" points="342.5,-74 239.5,-74 239.5,-55 342.5,-55 342.5,-74"/>
<text text-anchor="middle" x="291" y="-62" font-family="Helvetica,sans-Serif" font-size="10.00">ComputeWorker.h</text>
</a>
</g>
</g>
<!-- Node1&#45;&gt;Node2 -->
<g id="edge1_Node000001_Node000002" class="edge">
<title>Node1&#45;&gt;Node2</title>
<g id="a_edge1_Node000001_Node000002"><a xlink:title=" ">
<path fill="none" stroke="#63b8ff" d="M1391.47,-118.1C1221.66,-116.6 753.32,-109.37 352.59,-73.94"/>
<polygon fill="#63b8ff" stroke="#63b8ff" points="352.82,-70.45 342.54,-73.04 352.19,-77.42 352.82,-70.45"/>
</a>
</g>
</g>
<!-- Node11 -->
<g id="Node000011" class="node">
<title>Node11</title>
<g id="a_Node000011"><a xlink:title=" ">
<polygon fill="#e0e0e0" stroke="#999999" points="421,-74 361,-74 361,-55 421,-55 421,-74"/>
<text text-anchor="middle" x="391" y="-62" font-family="Helvetica,sans-Serif" font-size="10.00">Protein.h</text>
</a>
</g>
</g>
<!-- Node1&#45;&gt;Node11 -->
<g id="edge10_Node000001_Node000011" class="edge">
<title>Node1&#45;&gt;Node11</title>
<g id="a_edge10_Node000001_Node000011"><a xlink:title=" ">
<path fill="none" stroke="#63b8ff" d="M1391.38,-117.08C1195.65,-112.62 617.93,-97.75 431,-74 430.9,-73.99 430.8,-73.97 430.7,-73.96"/>
<polygon fill="#63b8ff" stroke="#63b8ff" points="431.47,-70.54 421.05,-72.44 430.38,-77.46 431.47,-70.54"/>
</a>
</g>
</g>
<!-- Node12 -->
<g id="Node000012" class="node">
<title>Node12</title>
<g id="a_Node000012"><a xlink:title=" ">
<polygon fill="#e0e0e0" stroke="#999999" points="566.5,-74 439.5,-74 439.5,-55 566.5,-55 566.5,-74"/>
<text text-anchor="middle" x="503" y="-62" font-family="Helvetica,sans-Serif" font-size="10.00">ProteinConformation.h</text>
</a>
</g>
</g>
<!-- Node1&#45;&gt;Node12 -->
<g id="edge11_Node000001_Node000012" class="edge">
<title>Node1&#45;&gt;Node12</title>
<g id="a_edge11_Node000001_Node000012"><a xlink:title=" ">
<path fill="none" stroke="#63b8ff" d="M1391.42,-116.66C1246.55,-112.26 888.09,-99.65 576.8,-74"/>
<polygon fill="#63b8ff" stroke="#63b8ff" points="576.93,-70.5 566.68,-73.16 576.35,-77.48 576.93,-70.5"/>
</a>
</g>
</g>
<!-- Node13 -->
<g id="Node000013" class="node">
<title>Node13</title>
<g id="a_Node000013"><a xlink:title=" ">
<polygon fill="#e0e0e0" stroke="#999999" points="703.5,-74 584.5,-74 584.5,-55 703.5,-55 703.5,-74"/>
<text text-anchor="middle" x="644" y="-62" font-family="Helvetica,sans-Serif" font-size="10.00">ConformationAtom.h</text>
</a>
</g>
</g>
<!-- Node1&#45;&gt;Node13 -->
<g id="edge12_Node000001_Node000013" class="edge">
<title>Node1&#45;&gt;Node13</title>
<g id="a_edge12_Node000001_Node000013"><a xlink:title=" ">
<path fill="none" stroke="#63b8ff" d="M1391.21,-115.95C1263.06,-110.69 970.83,-97.21 714.08,-74.04"/>
<polygon fill="#63b8ff" stroke="#63b8ff" points="714.09,-70.52 703.81,-73.1 713.46,-77.49 714.09,-70.52"/>
</a>
</g>
</g>
<!-- Node14 -->
<g id="Node000014" class="node">
<title>Node14</title>
<g id="a_Node000014"><a xlink:title=" ">
<polygon fill="#e0e0e0" stroke="#999999" points="816.5,-74 721.5,-74 721.5,-55 816.5,-55 816.5,-74"/>
<text text-anchor="middle" x="769" y="-62" font-family="Helvetica,sans-Serif" font-size="10.00">PdbFileReader.h</text>
</a>
</g>
</g>
<!-- Node1&#45;&gt;Node14 -->
<g id="edge13_Node000001_Node000014" class="edge">
<title>Node1&#45;&gt;Node14</title>
<g id="a_edge13_Node000001_Node000014"><a xlink:title=" ">
<path fill="none" stroke="#63b8ff" d="M1391.45,-115.56C1278.43,-110.11 1039.4,-96.98 826.66,-73.98"/>
<polygon fill="#63b8ff" stroke="#63b8ff" points="826.87,-70.48 816.55,-72.87 826.11,-77.44 826.87,-70.48"/>
</a>
</g>
</g>
<!-- Node15 -->
<g id="Node000015" class="node">
<title>Node15</title>
<g id="a_Node000015"><a xlink:title=" ">
<polygon fill="#e0e0e0" stroke="#999999" points="915.5,-74 834.5,-74 834.5,-55 915.5,-55 915.5,-74"/>
<text text-anchor="middle" x="875" y="-62" font-family="Helvetica,sans-Serif" font-size="10.00">BuildResult.h</text>
</a>
</g>
</g>
<!-- Node1&#45;&gt;Node15 -->
<g id="edge14_Node000001_Node000015" class="edge">
<title>Node1&#45;&gt;Node15</title>
<g id="a_edge14_Node000001_Node000015"><a xlink:title=" ">
<path fill="none" stroke="#63b8ff" d="M1391.29,-114.81C1292.56,-108.85 1099.87,-95.7 925.74,-73.98"/>
<polygon fill="#63b8ff" stroke="#63b8ff" points="925.98,-70.48 915.62,-72.7 925.1,-77.42 925.98,-70.48"/>
</a>
</g>
</g>
<!-- Node16 -->
<g id="Node000016" class="node">
<title>Node16</title>
<g id="a_Node000016"><a xlink:title=" ">
<polygon fill="#e0e0e0" stroke="#999999" points="1040.5,-74 933.5,-74 933.5,-55 1040.5,-55 1040.5,-74"/>
<text text-anchor="middle" x="987" y="-62" font-family="Helvetica,sans-Serif" font-size="10.00">OperationRunner.h</text>
</a>
</g>
</g>
<!-- Node1&#45;&gt;Node16 -->
<g id="edge15_Node000001_Node000016" class="edge">
<title>Node1&#45;&gt;Node16</title>
<g id="a_edge15_Node000001_Node000016"><a xlink:title=" ">
<path fill="none" stroke="#63b8ff" d="M1391.38,-111.84C1313.01,-103.77 1177.67,-89.47 1050.88,-74.08"/>
<polygon fill="#63b8ff" stroke="#63b8ff" points="1050.95,-70.56 1040.6,-72.83 1050.11,-77.51 1050.95,-70.56"/>
</a>
</g>
</g>
<!-- Node17 -->
<g id="Node000017" class="node">
<title>Node17</title>
<g id="a_Node000017"><a xlink:title=" ">
<polygon fill="#e0e0e0" stroke="#999999" points="1157.5,-74 1058.5,-74 1058.5,-55 1157.5,-55 1157.5,-74"/>
<text text-anchor="middle" x="1108" y="-62" font-family="Helvetica,sans-Serif" font-size="10.00">OrcaRunLoader.h</text>
</a>
</g>
</g>
<!-- Node1&#45;&gt;Node17 -->
<g id="edge16_Node000001_Node000017" class="edge">
<title>Node1&#45;&gt;Node17</title>
<g id="a_edge16_Node000001_Node000017"><a xlink:title=" ">
<path fill="none" stroke="#63b8ff" d="M1400.93,-109.98C1337.1,-100.29 1233.23,-84.52 1167.87,-74.59"/>
<polygon fill="#63b8ff" stroke="#63b8ff" points="1168.13,-71.09 1157.72,-73.05 1167.08,-78.01 1168.13,-71.09"/>
</a>
</g>
</g>
<!-- Node18 -->
<g id="Node000018" class="node">
<title>Node18</title>
<g id="a_Node000018"><a xlink:title=" ">
<polygon fill="#e0e0e0" stroke="#999999" points="1324.5,-74 1175.5,-74 1175.5,-55 1324.5,-55 1324.5,-74"/>
<text text-anchor="middle" x="1250" y="-62" font-family="Helvetica,sans-Serif" font-size="10.00">GromacsEnsembleLoader.h</text>
</a>
</g>
</g>
<!-- Node1&#45;&gt;Node18 -->
<g id="edge17_Node000001_Node000018" class="edge">
<title>Node1&#45;&gt;Node18</title>
<g id="a_edge17_Node000001_Node000018"><a xlink:title=" ">
<path fill="none" stroke="#63b8ff" d="M1423.74,-109.98C1388.39,-100.93 1332.33,-86.58 1293.49,-76.64"/>
<polygon fill="#63b8ff" stroke="#63b8ff" points="1294.07,-73.17 1283.52,-74.08 1292.34,-79.95 1294.07,-73.17"/>
</a>
</g>
</g>
<!-- Node19 -->
<g id="Node000019" class="node">
<title>Node19</title>
<g id="a_Node000019"><a xlink:title=" ">
<polygon fill="#e0e0e0" stroke="#999999" points="1448,-74 1342,-74 1342,-55 1448,-55 1448,-74"/>
<text text-anchor="middle" x="1395" y="-62" font-family="Helvetica,sans-Serif" font-size="10.00">CalculatorConfig.h</text>
</a>
</g>
</g>
<!-- Node1&#45;&gt;Node19 -->
<g id="edge18_Node000001_Node000019" class="edge">
<title>Node1&#45;&gt;Node19</title>
<g id="a_edge18_Node000001_Node000019"><a xlink:title=" ">
<path fill="none" stroke="#63b8ff" d="M1447.04,-109.98C1437.87,-102.15 1424.06,-90.34 1412.97,-80.86"/>
<polygon fill="#63b8ff" stroke="#63b8ff" points="1415.02,-78.01 1405.14,-74.17 1410.47,-83.33 1415.02,-78.01"/>
</a>
</g>
</g>
<!-- Node20 -->
<g id="Node000020" class="node">
<title>Node20</title>
<g id="a_Node000020"><a xlink:title=" ">
<polygon fill="#e0e0e0" stroke="#999999" points="1573.5,-74 1466.5,-74 1466.5,-55 1573.5,-55 1573.5,-74"/>
<text text-anchor="middle" x="1520" y="-62" font-family="Helvetica,sans-Serif" font-size="10.00">BiotSavartResult.h</text>
</a>
</g>
</g>
<!-- Node1&#45;&gt;Node20 -->
<g id="edge19_Node000001_Node000020" class="edge">
<title>Node1&#45;&gt;Node20</title>
<g id="a_edge19_Node000001_Node000020"><a xlink:title=" ">
<path fill="none" stroke="#63b8ff" d="M1467.12,-109.98C1476.44,-102.15 1490.47,-90.34 1501.74,-80.86"/>
<polygon fill="#63b8ff" stroke="#63b8ff" points="1504.29,-83.29 1509.69,-74.17 1499.79,-77.93 1504.29,-83.29"/>
</a>
</g>
</g>
<!-- Node21 -->
<g id="Node000021" class="node">
<title>Node21</title>
<g id="a_Node000021"><a xlink:title=" ">
<polygon fill="#e0e0e0" stroke="#999999" points="1714.5,-74 1591.5,-74 1591.5,-55 1714.5,-55 1714.5,-74"/>
<text text-anchor="middle" x="1653" y="-62" font-family="Helvetica,sans-Serif" font-size="10.00">ConformationResult.h</text>
</a>
</g>
</g>
<!-- Node1&#45;&gt;Node21 -->
<g id="edge20_Node000001_Node000021" class="edge">
<title>Node1&#45;&gt;Node21</title>
<g id="a_edge20_Node000001_Node000021"><a xlink:title=" ">
<path fill="none" stroke="#63b8ff" d="M1488.49,-109.98C1521.82,-100.97 1574.6,-86.7 1611.35,-76.76"/>
<polygon fill="#63b8ff" stroke="#63b8ff" points="1612.52,-80.07 1621.26,-74.08 1610.7,-73.31 1612.52,-80.07"/>
</a>
</g>
</g>
<!-- Node22 -->
<g id="Node000022" class="node">
<title>Node22</title>
<g id="a_Node000022"><a xlink:title=" ">
<polygon fill="#e0e0e0" stroke="#999999" points="1823.5,-74 1732.5,-74 1732.5,-55 1823.5,-55 1823.5,-74"/>
<text text-anchor="middle" x="1778" y="-62" font-family="Helvetica,sans-Serif" font-size="10.00">OperationLog.h</text>
</a>
</g>
</g>
<!-- Node1&#45;&gt;Node22 -->
<g id="edge21_Node000001_Node000022" class="edge">
<title>Node1&#45;&gt;Node22</title>
<g id="a_edge21_Node000001_Node000022"><a xlink:title=" ">
<path fill="none" stroke="#63b8ff" d="M1508.57,-109.98C1567.04,-100.33 1662.03,-84.65 1722.19,-74.71"/>
<polygon fill="#63b8ff" stroke="#63b8ff" points="1722.98,-78.13 1732.27,-73.05 1721.84,-71.23 1722.98,-78.13"/>
</a>
</g>
</g>
<!-- Node23 -->
<g id="Node000023" class="node">
<title>Node23</title>
<g id="a_Node000023"><a xlink:title=" ">
<polygon fill="#e0e0e0" stroke="#999999" points="1894,-74 1842,-74 1842,-55 1894,-55 1894,-74"/>
<text text-anchor="middle" x="1868" y="-62" font-family="Helvetica,sans-Serif" font-size="10.00">Atom.h</text>
</a>
</g>
</g>
<!-- Node1&#45;&gt;Node23 -->
<g id="edge22_Node000001_Node000023" class="edge">
<title>Node1&#45;&gt;Node23</title>
<g id="a_edge22_Node000001_Node000023"><a xlink:title=" ">
<path fill="none" stroke="#63b8ff" d="M1522.56,-113.15C1595.74,-106.64 1717.8,-94.17 1831.76,-74.03"/>
<polygon fill="#63b8ff" stroke="#63b8ff" points="1832.47,-77.46 1841.7,-72.25 1831.24,-70.57 1832.47,-77.46"/>
</a>
</g>
</g>
<!-- Node24 -->
<g id="Node000024" class="node">
<title>Node24</title>
<g id="a_Node000024"><a xlink:title=" ">
<polygon fill="#e0e0e0" stroke="#999999" points="1977.5,-74 1912.5,-74 1912.5,-55 1977.5,-55 1977.5,-74"/>
<text text-anchor="middle" x="1945" y="-62" font-family="Helvetica,sans-Serif" font-size="10.00">Residue.h</text>
</a>
</g>
</g>
<!-- Node1&#45;&gt;Node24 -->
<g id="edge23_Node000001_Node000024" class="edge">
<title>Node1&#45;&gt;Node24</title>
<g id="a_edge23_Node000001_Node000024"><a xlink:title=" ">
<path fill="none" stroke="#63b8ff" d="M1522.63,-114.02C1607.78,-107.75 1761.14,-94.88 1902.35,-73.93"/>
<polygon fill="#63b8ff" stroke="#63b8ff" points="1903.13,-77.36 1912.5,-72.41 1902.09,-70.44 1903.13,-77.36"/>
</a>
</g>
</g>
<!-- Node25 -->
<g id="Node000025" class="node">
<title>Node25</title>
<g id="a_Node000025"><a xlink:title=" ">
<polygon fill="#e0e0e0" stroke="#999999" points="2042.5,-74 1995.5,-74 1995.5,-55 2042.5,-55 2042.5,-74"/>
<text text-anchor="middle" x="2019" y="-62" font-family="Helvetica,sans-Serif" font-size="10.00">Ring.h</text>
</a>
</g>
</g>
<!-- Node1&#45;&gt;Node25 -->
<g id="edge24_Node000001_Node000025" class="edge">
<title>Node1&#45;&gt;Node25</title>
<g id="a_edge24_Node000001_Node000025"><a xlink:title=" ">
<path fill="none" stroke="#63b8ff" d="M1522.75,-116.69C1621.48,-113.16 1813.91,-103.11 1985.38,-74"/>
<polygon fill="#63b8ff" stroke="#63b8ff" points="1986.08,-77.43 1995.34,-72.28 1984.89,-70.53 1986.08,-77.43"/>
</a>
</g>
</g>
<!-- Node26 -->
<g id="Node000026" class="node">
<title>Node26</title>
<g id="a_Node000026"><a xlink:title=" ">
<polygon fill="#e0e0e0" stroke="#999999" points="2111,-74 2061,-74 2061,-55 2111,-55 2111,-74"/>
<text text-anchor="middle" x="2086" y="-62" font-family="Helvetica,sans-Serif" font-size="10.00">Bond.h</text>
</a>
</g>
</g>
<!-- Node1&#45;&gt;Node26 -->
<g id="edge25_Node000001_Node000026" class="edge">
<title>Node1&#45;&gt;Node26</title>
<g id="a_edge25_Node000001_Node000026"><a xlink:title=" ">
<path fill="none" stroke="#63b8ff" d="M1522.58,-117.24C1630.83,-114.36 1853.71,-105.06 2050.88,-73.89"/>
<polygon fill="#63b8ff" stroke="#63b8ff" points="2051.53,-77.33 2060.85,-72.3 2050.42,-70.42 2051.53,-77.33"/>
</a>
</g>
</g>
<!-- Node27 -->
<g id="Node000027" class="node">
<title>Node27</title>
<g id="a_Node000027"><a xlink:title=" ">
<polygon fill="#e0e0e0" stroke="#999999" points="2220.5,-74 2129.5,-74 2129.5,-55 2220.5,-55 2220.5,-74"/>
<text text-anchor="middle" x="2175" y="-62" font-family="Helvetica,sans-Serif" font-size="10.00">QElapsedTimer</text>
</a>
</g>
</g>
<!-- Node1&#45;&gt;Node27 -->
<g id="edge26_Node000001_Node000027" class="edge">
<title>Node1&#45;&gt;Node27</title>
<g id="a_edge26_Node000001_Node000027"><a xlink:title=" ">
<path fill="none" stroke="#63b8ff" d="M1522.57,-115.98C1640.03,-111.05 1894.26,-98.51 2119.4,-73.96"/>
<polygon fill="#63b8ff" stroke="#63b8ff" points="2119.86,-77.43 2129.42,-72.85 2119.1,-70.47 2119.86,-77.43"/>
</a>
</g>
</g>
<!-- Node28 -->
<g id="Node000028" class="node">
<title>Node28</title>
<g id="a_Node000028"><a xlink:title=" ">
<polygon fill="#e0e0e0" stroke="#999999" points="2285.5,-74 2238.5,-74 2238.5,-55 2285.5,-55 2285.5,-74"/>
<text text-anchor="middle" x="2262" y="-62" font-family="Helvetica,sans-Serif" font-size="10.00">cmath</text>
</a>
</g>
</g>
<!-- Node1&#45;&gt;Node28 -->
<g id="edge27_Node000001_Node000028" class="edge">
<title>Node1&#45;&gt;Node28</title>
<g id="a_edge27_Node000001_Node000028"><a xlink:title=" ">
<path fill="none" stroke="#63b8ff" d="M1522.63,-119.17C1654.84,-119.56 1962.56,-115.6 2228.13,-73.98"/>
<polygon fill="#63b8ff" stroke="#63b8ff" points="2229.02,-77.38 2238.35,-72.35 2227.92,-70.47 2229.02,-77.38"/>
</a>
</g>
</g>
<!-- Node29 -->
<g id="Node000029" class="node">
<title>Node29</title>
<g id="a_Node000029"><a xlink:title=" ">
<polygon fill="#e0e0e0" stroke="#999999" points="2372,-74 2304,-74 2304,-55 2372,-55 2372,-74"/>
<text text-anchor="middle" x="2338" y="-62" font-family="Helvetica,sans-Serif" font-size="10.00">filesystem</text>
</a>
</g>
</g>
<!-- Node1&#45;&gt;Node29 -->
<g id="edge28_Node000001_Node000029" class="edge">
<title>Node1&#45;&gt;Node29</title>
<g id="a_edge28_Node000001_Node000029"><a xlink:title=" ">
<path fill="none" stroke="#63b8ff" d="M1522.74,-118.18C1662.84,-116.81 2001.22,-109.85 2293.85,-73.95"/>
<polygon fill="#63b8ff" stroke="#63b8ff" points="2294.31,-77.42 2303.8,-72.72 2293.45,-70.47 2294.31,-77.42"/>
</a>
</g>
</g>
<!-- Node3 -->
<g id="Node000003" class="node">
<title>Node3</title>
<g id="a_Node000003"><a xlink:title=" ">
<polygon fill="#e0e0e0" stroke="#999999" points="56,-19 0,-19 0,0 56,0 56,-19"/>
<text text-anchor="middle" x="28" y="-7" font-family="Helvetica,sans-Serif" font-size="10.00">QObject</text>
</a>
</g>
</g>
<!-- Node2&#45;&gt;Node3 -->
<g id="edge2_Node000002_Node000003" class="edge">
<title>Node2&#45;&gt;Node3</title>
<g id="a_edge2_Node000002_Node000003"><a xlink:title=" ">
<path fill="none" stroke="#63b8ff" d="M245.46,-54.97C201.9,-46.71 134.11,-33.6 66.27,-19.22"/>
<polygon fill="#63b8ff" stroke="#63b8ff" points="66.77,-15.75 56.26,-17.09 65.31,-22.59 66.77,-15.75"/>
</a>
</g>
</g>
<!-- Node4 -->
<g id="Node000004" class="node">
<title>Node4</title>
<g id="a_Node000004"><a xlink:title=" ">
<polygon fill="#e0e0e0" stroke="#999999" points="145.5,-19 74.5,-19 74.5,0 145.5,0 145.5,-19"/>
<text text-anchor="middle" x="110" y="-7" font-family="Helvetica,sans-Serif" font-size="10.00">QMetaType</text>
</a>
</g>
</g>
<!-- Node2&#45;&gt;Node4 -->
<g id="edge3_Node000002_Node000004" class="edge">
<title>Node2&#45;&gt;Node4</title>
<g id="a_edge3_Node000002_Node000004"><a xlink:title=" ">
<path fill="none" stroke="#63b8ff" d="M261.92,-54.98C231.4,-46.05 183.24,-31.94 149.34,-22.02"/>
<polygon fill="#63b8ff" stroke="#63b8ff" points="149.89,-18.53 139.31,-19.08 147.92,-25.25 149.89,-18.53"/>
</a>
</g>
</g>
<!-- Node5 -->
<g id="Node000005" class="node">
<title>Node5</title>
<g id="a_Node000005"><a xlink:title=" ">
<polygon fill="#e0e0e0" stroke="#999999" points="214,-19 164,-19 164,0 214,0 214,-19"/>
<text text-anchor="middle" x="189" y="-7" font-family="Helvetica,sans-Serif" font-size="10.00">atomic</text>
</a>
</g>
</g>
<!-- Node2&#45;&gt;Node5 -->
<g id="edge4_Node000002_Node000005" class="edge">
<title>Node2&#45;&gt;Node5</title>
<g id="a_edge4_Node000002_Node000005"><a xlink:title=" ">
<path fill="none" stroke="#63b8ff" d="M274.61,-54.98C258.43,-46.57 233.43,-33.59 214.62,-23.81"/>
<polygon fill="#63b8ff" stroke="#63b8ff" points="216.17,-20.68 205.69,-19.17 212.95,-26.89 216.17,-20.68"/>
</a>
</g>
</g>
<!-- Node6 -->
<g id="Node000006" class="node">
<title>Node6</title>
<g id="a_Node000006"><a xlink:title=" ">
<polygon fill="#e0e0e0" stroke="#999999" points="279.5,-19 232.5,-19 232.5,0 279.5,0 279.5,-19"/>
<text text-anchor="middle" x="256" y="-7" font-family="Helvetica,sans-Serif" font-size="10.00">vector</text>
</a>
</g>
</g>
<!-- Node2&#45;&gt;Node6 -->
<g id="edge5_Node000002_Node000006" class="edge">
<title>Node2&#45;&gt;Node6</title>
<g id="a_edge5_Node000002_Node000006"><a xlink:title=" ">
<path fill="none" stroke="#63b8ff" d="M285.22,-54.75C280.38,-47.42 273.32,-36.73 267.36,-27.7"/>
<polygon fill="#63b8ff" stroke="#63b8ff" points="270.1,-25.5 261.67,-19.09 264.26,-29.36 270.1,-25.5"/>
</a>
</g>
</g>
<!-- Node7 -->
<g id="Node000007" class="node">
<title>Node7</title>
<g id="a_Node000007"><a xlink:title=" ">
<polygon fill="#e0e0e0" stroke="#999999" points="356,-19 298,-19 298,0 356,0 356,-19"/>
<text text-anchor="middle" x="327" y="-7" font-family="Helvetica,sans-Serif" font-size="10.00">memory</text>
</a>
</g>
</g>
<!-- Node2&#45;&gt;Node7 -->
<g id="edge6_Node000002_Node000007" class="edge">
<title>Node2&#45;&gt;Node7</title>
<g id="a_edge6_Node000002_Node000007"><a xlink:title=" ">
<path fill="none" stroke="#63b8ff" d="M296.94,-54.75C301.98,-47.34 309.34,-36.5 315.51,-27.41"/>
<polygon fill="#63b8ff" stroke="#63b8ff" points="318.44,-29.33 321.17,-19.09 312.65,-25.39 318.44,-29.33"/>
</a>
</g>
</g>
<!-- Node8 -->
<g id="Node000008" class="node">
<title>Node8</title>
<g id="a_Node000008"><a xlink:title=" ">
<polygon fill="#e0e0e0" stroke="#999999" points="418,-19 374,-19 374,0 418,0 418,-19"/>
<text text-anchor="middle" x="396" y="-7" font-family="Helvetica,sans-Serif" font-size="10.00">string</text>
</a>
</g>
</g>
<!-- Node2&#45;&gt;Node8 -->
<g id="edge7_Node000002_Node000008" class="edge">
<title>Node2&#45;&gt;Node8</title>
<g id="a_edge7_Node000002_Node000008"><a xlink:title=" ">
<path fill="none" stroke="#63b8ff" d="M307.87,-54.98C324.61,-46.54 350.5,-33.47 369.89,-23.68"/>
<polygon fill="#63b8ff" stroke="#63b8ff" points="371.47,-26.8 378.82,-19.17 368.32,-20.55 371.47,-26.8"/>
</a>
</g>
</g>
<!-- Node9 -->
<g id="Node000009" class="node">
<title>Node9</title>
<g id="a_Node000009"><a xlink:title=" ">
<polygon fill="#e0e0e0" stroke="#999999" points="500,-19 436,-19 436,0 500,0 500,-19"/>
<text text-anchor="middle" x="468" y="-7" font-family="Helvetica,sans-Serif" font-size="10.00">JobSpec.h</text>
</a>
</g>
</g>
<!-- Node2&#45;&gt;Node9 -->
<g id="edge8_Node000002_Node000009" class="edge">
<title>Node2&#45;&gt;Node9</title>
<g id="a_edge8_Node000002_Node000009"><a xlink:title=" ">
<path fill="none" stroke="#63b8ff" d="M319.44,-54.98C349.28,-46.05 396.38,-31.94 429.53,-22.02"/>
<polygon fill="#63b8ff" stroke="#63b8ff" points="430.76,-25.3 439.34,-19.08 428.76,-18.6 430.76,-25.3"/>
</a>
</g>
</g>
<!-- Node10 -->
<g id="Node000010" class="node">
<title>Node10</title>
<g id="a_Node000010"><a xlink:title=" ">
<polygon fill="#e0e0e0" stroke="#999999" points="571.5,-19 518.5,-19 518.5,0 571.5,0 571.5,-19"/>
<text text-anchor="middle" x="545" y="-7" font-family="Helvetica,sans-Serif" font-size="10.00">Types.h</text>
</a>
</g>
</g>
<!-- Node2&#45;&gt;Node10 -->
<g id="edge9_Node000002_Node000010" class="edge">
<title>Node2&#45;&gt;Node10</title>
<g id="a_edge9_Node000002_Node000010"><a xlink:title=" ">
<path fill="none" stroke="#63b8ff" d="M334.93,-54.94C376.95,-46.66 442.34,-33.54 508.52,-19.05"/>
<polygon fill="#63b8ff" stroke="#63b8ff" points="509.27,-22.47 518.28,-16.9 507.77,-15.63 509.27,-22.47"/>
</a>
</g>
</g>
</g>
</svg>

<g id="navigator" transform="translate(0 0)" fill="#404254">
  <rect fill="#f2f5e9" fill-opacity="0.5" stroke="#606060" stroke-width=".5" x="0" y="0" width="60" height="60"/>
  <use id="zoomplus" xlink:href="#zoomPlus" x="17" y="9" onmousedown="handleZoom(evt,'in')"/>
  <use id="zoomminus" xlink:href="#zoomMin" x="42" y="9" onmousedown="handleZoom(evt,'out')"/>
  <use id="reset" xlink:href="#resetDef" x="30" y="36" onmousedown="handleReset()"/>
   <use id="arrowup" xlink:href="#arrowUp" x="0" y="0" onmousedown="handlePan(0,-1)"/>
  <use id="arrowright" xlink:href="#arrowRight" x="0" y="0" onmousedown="handlePan(1,0)"/>
  <use id="arrowdown" xlink:href="#arrowDown" x="0" y="0" onmousedown="handlePan(0,1)"/>
  <use id="arrowleft" xlink:href="#arrowLeft" x="0" y="0" onmousedown="handlePan(-1,0)"/>
</g>
<svg viewBox="0 0 15 15" width="100%" height="30px" preserveAspectRatio="xMaxYMin meet">
 <g id="arrow_out" transform="scale(0.3 0.3)">
  <a xlink:href="ComputeWorker_8cpp__incl_org.svg" target="_base">
   <rect id="button" ry="5" rx="5" y="6" x="6" height="38" width="38"
        fill="#f2f5e9" fill-opacity="0.5" stroke="#606060" stroke-width="1.0"/>
   <path id="arrow"
     d="M 11.500037,31.436501 C 11.940474,20.09759 22.043105,11.32322 32.158766,21.979434 L 37.068811,17.246167 C 37.068811,17.246167 37.088388,32 37.088388,32 L 22.160133,31.978069 C 22.160133,31.978069 26.997745,27.140456 26.997745,27.140456 C 18.528582,18.264221 13.291696,25.230495 11.500037,31.436501 z"
     style="fill:#404040;"/>
  </a>
 </g>
</svg>

<style type='text/css'>
<![CDATA[
[data-mouse-over-selected='false'] { opacity: 0.7; }
[data-mouse-over-selected='true']  { opacity: 1.0; }
]]>
</style>
<script type="application/ecmascript"><![CDATA[
document.addEventListener('DOMContentLoaded', (event) => {
  highlightEdges();
  highlightAdjacentNodes();
});
]]></script>
</svg>
