<?xml version="1.0" encoding="UTF-8" standalone="no"?>
<!DOCTYPE svg PUBLIC "-//W3C//DTD SVG 1.1//EN"
 "http://www.w3.org/Graphics/SVG/1.1/DTD/svg11.dtd">
<!-- Generated by graphviz version 2.43.0 (0)
 -->
<!-- Title: src/FieldOverlay.h Pages: 1 -->
<svg width="888pt" height="137pt"
 viewBox="0.00 0.00 888.00 137.00" xmlns="http://www.w3.org/2000/svg" xmlns:xlink="http://www.w3.org/1999/xlink">
<g id="graph0" class="graph" transform="scale(1 1) rotate(0) translate(4 133)">
<title>src/FieldOverlay.h</title>
<!-- Node1 -->
<g id="Node000001" class="node">
<title>Node1</title>
<g id="a_Node000001"><a xlink:title=" ">
<polygon fill="#999999" stroke="#666666" points="541,-129 438,-129 438,-110 541,-110 541,-129"/>
<text text-anchor="middle" x="489.5" y="-117" font-family="Helvetica,sans-Serif" font-size="10.00">src/FieldOverlay.h</text>
</a>
</g>
</g>
<!-- Node2 -->
<g id="Node000002" class="node">
<title>Node2</title>
<g id="a_Node000002"><a xlink:href="ComputeWorker_8h.html" target="_top" xlink:title=" ">
<polygon fill="white" stroke="#666666" points="306,-74 203,-74 203,-55 306,-55 306,-74"/>
<text text-anchor="middle" x="254.5" y="-62" font-family="Helvetica,sans-Serif" font-size="10.00">ComputeWorker.h</text>
</a>
</g>
</g>
<!-- Node1&#45;&gt;Node2 -->
<g id="edge1_Node000001_Node000002" class="edge">
<title>Node1&#45;&gt;Node2</title>
<g id="a_edge1_Node000001_Node000002"><a xlink:title=" ">
<path fill="none" stroke="#63b8ff" d="M451.74,-109.98C411.18,-100.84 346.61,-86.27 302.47,-76.32"/>
<polygon fill="#63b8ff" stroke="#63b8ff" points="303.08,-72.87 292.55,-74.08 301.54,-79.7 303.08,-72.87"/>
</a>
</g>
</g>
<!-- Node6 -->
<g id="Node000006" class="node">
<title>Node6</title>
<g id="a_Node000006"><a xlink:title=" ">
<polygon fill="#e0e0e0" stroke="#999999" points="47,-19 0,-19 0,0 47,0 47,-19"/>
<text text-anchor="middle" x="23.5" y="-7" font-family="Helvetica,sans-Serif" font-size="10.00">vector</text>
</a>
</g>
</g>
<!-- Node1&#45;&gt;Node6 -->
<g id="edge15_Node000001_Node000006" class="edge">
<title>Node1&#45;&gt;Node6</title>
<g id="a_edge15_Node000001_Node000006"><a xlink:title=" ">
<path fill="none" stroke="#63b8ff" d="M437.96,-113.97C378.57,-108.01 278.38,-95.65 194.5,-74 143.09,-60.73 85.68,-37.6 52.17,-23.23"/>
<polygon fill="#63b8ff" stroke="#63b8ff" points="53.14,-19.83 42.57,-19.06 50.36,-26.25 53.14,-19.83"/>
</a>
</g>
</g>
<!-- Node11 -->
<g id="Node000011" class="node">
<title>Node11</title>
<g id="a_Node000011"><a xlink:title=" ">
<polygon fill="#e0e0e0" stroke="#999999" points="428.5,-74 324.5,-74 324.5,-55 428.5,-55 428.5,-74"/>
<text text-anchor="middle" x="376.5" y="-62" font-family="Helvetica,sans-Serif" font-size="10.00">vtkSmartPointer.h</text>
</a>
</g>
</g>
<!-- Node1&#45;&gt;Node11 -->
<g id="edge10_Node000001_Node000011" class="edge">
<title>Node1&#45;&gt;Node11</title>
<g id="a_edge10_Node000001_Node000011"><a xlink:title=" ">
<path fill="none" stroke="#63b8ff" d="M471.34,-109.98C453.25,-101.5 425.22,-88.35 404.31,-78.54"/>
<polygon fill="#63b8ff" stroke="#63b8ff" points="405.53,-75.25 394.99,-74.17 402.55,-81.59 405.53,-75.25"/>
</a>
</g>
</g>
<!-- Node12 -->
<g id="Node000012" class="node">
<title>Node12</title>
<g id="a_Node000012"><a xlink:title=" ">
<polygon fill="#e0e0e0" stroke="#999999" points="532,-74 447,-74 447,-55 532,-55 532,-74"/>
<text text-anchor="middle" x="489.5" y="-62" font-family="Helvetica,sans-Serif" font-size="10.00">vtkRenderer.h</text>
</a>
</g>
</g>
<!-- Node1&#45;&gt;Node12 -->
<g id="edge11_Node000001_Node000012" class="edge">
<title>Node1&#45;&gt;Node12</title>
<g id="a_edge11_Node000001_Node000012"><a xlink:title=" ">
<path fill="none" stroke="#63b8ff" d="M489.5,-109.75C489.5,-102.8 489.5,-92.85 489.5,-84.13"/>
<polygon fill="#63b8ff" stroke="#63b8ff" points="493,-84.09 489.5,-74.09 486,-84.09 493,-84.09"/>
</a>
</g>
</g>
<!-- Node13 -->
<g id="Node000013" class="node">
<title>Node13</title>
<g id="a_Node000013"><a xlink:title=" ">
<polygon fill="#e0e0e0" stroke="#999999" points="616.5,-74 550.5,-74 550.5,-55 616.5,-55 616.5,-74"/>
<text text-anchor="middle" x="583.5" y="-62" font-family="Helvetica,sans-Serif" font-size="10.00">vtkActor.h</text>
</a>
</g>
</g>
<!-- Node1&#45;&gt;Node13 -->
<g id="edge12_Node000001_Node000013" class="edge">
<title>Node1&#45;&gt;Node13</title>
<g id="a_edge12_Node000001_Node000013"><a xlink:title=" ">
<path fill="none" stroke="#63b8ff" d="M504.6,-109.98C519.32,-101.69 541.92,-88.94 559.17,-79.22"/>
<polygon fill="#63b8ff" stroke="#63b8ff" points="561.13,-82.13 568.12,-74.17 557.69,-76.03 561.13,-82.13"/>
</a>
</g>
</g>
<!-- Node14 -->
<g id="Node000014" class="node">
<title>Node14</title>
<g id="a_Node000014"><a xlink:title=" ">
<polygon fill="#e0e0e0" stroke="#999999" points="714.5,-74 634.5,-74 634.5,-55 714.5,-55 714.5,-74"/>
<text text-anchor="middle" x="674.5" y="-62" font-family="Helvetica,sans-Serif" font-size="10.00">vtkActor2D.h</text>
</a>
</g>
</g>
<!-- Node1&#45;&gt;Node14 -->
<g id="edge13_Node000001_Node000014" class="edge">
<title>Node1&#45;&gt;Node14</title>
<g id="a_edge13_Node000001_Node000014"><a xlink:title=" ">
<path fill="none" stroke="#63b8ff" d="M519.22,-109.98C550.55,-101.01 600.07,-86.82 634.74,-76.89"/>
<polygon fill="#63b8ff" stroke="#63b8ff" points="635.89,-80.2 644.54,-74.08 633.97,-73.47 635.89,-80.2"/>
</a>
</g>
</g>
<!-- Node15 -->
<g id="Node000015" class="node">
<title>Node15</title>
<g id="a_Node000015"><a xlink:title=" ">
<polygon fill="#e0e0e0" stroke="#999999" points="880,-74 733,-74 733,-55 880,-55 880,-74"/>
<text text-anchor="middle" x="806.5" y="-62" font-family="Helvetica,sans-Serif" font-size="10.00">vtkColorTransferFunction.h</text>
</a>
</g>
</g>
<!-- Node1&#45;&gt;Node15 -->
<g id="edge14_Node000001_Node000015" class="edge">
<title>Node1&#45;&gt;Node15</title>
<g id="a_edge14_Node000001_Node000015"><a xlink:title=" ">
<path fill="none" stroke="#63b8ff" d="M540.43,-109.98C596.27,-100.65 685.83,-85.67 745.41,-75.71"/>
<polygon fill="#63b8ff" stroke="#63b8ff" points="746.15,-79.14 755.43,-74.04 744.99,-72.24 746.15,-79.14"/>
</a>
</g>
</g>
<!-- Node3 -->
<g id="Node000003" class="node">
<title>Node3</title>
<g id="a_Node000003"><a xlink:title=" ">
<polygon fill="#e0e0e0" stroke="#999999" points="121.5,-19 65.5,-19 65.5,0 121.5,0 121.5,-19"/>
<text text-anchor="middle" x="93.5" y="-7" font-family="Helvetica,sans-Serif" font-size="10.00">QObject</text>
</a>
</g>
</g>
<!-- Node2&#45;&gt;Node3 -->
<g id="edge2_Node000002_Node000003" class="edge">
<title>Node2&#45;&gt;Node3</title>
<g id="a_edge2_Node000002_Node000003"><a xlink:title=" ">
<path fill="none" stroke="#63b8ff" d="M228.63,-54.98C201.72,-46.13 159.38,-32.19 129.27,-22.28"/>
<polygon fill="#63b8ff" stroke="#63b8ff" points="130.16,-18.88 119.57,-19.08 127.97,-25.53 130.16,-18.88"/>
</a>
</g>
</g>
<!-- Node4 -->
<g id="Node000004" class="node">
<title>Node4</title>
<g id="a_Node000004"><a xlink:title=" ">
<polygon fill="#e0e0e0" stroke="#999999" points="211,-19 140,-19 140,0 211,0 211,-19"/>
<text text-anchor="middle" x="175.5" y="-7" font-family="Helvetica,sans-Serif" font-size="10.00">QMetaType</text>
</a>
</g>
</g>
<!-- Node2&#45;&gt;Node4 -->
<g id="edge3_Node000002_Node000004" class="edge">
<title>Node2&#45;&gt;Node4</title>
<g id="a_edge3_Node000002_Node000004"><a xlink:title=" ">
<path fill="none" stroke="#63b8ff" d="M241.81,-54.98C229.67,-46.84 211.14,-34.41 196.75,-24.76"/>
<polygon fill="#63b8ff" stroke="#63b8ff" points="198.68,-21.84 188.42,-19.17 194.78,-27.65 198.68,-21.84"/>
</a>
</g>
</g>
<!-- Node5 -->
<g id="Node000005" class="node">
<title>Node5</title>
<g id="a_Node000005"><a xlink:title=" ">
<polygon fill="#e0e0e0" stroke="#999999" points="279.5,-19 229.5,-19 229.5,0 279.5,0 279.5,-19"/>
<text text-anchor="middle" x="254.5" y="-7" font-family="Helvetica,sans-Serif" font-size="10.00">atomic</text>
</a>
</g>
</g>
<!-- Node2&#45;&gt;Node5 -->
<g id="edge4_Node000002_Node000005" class="edge">
<title>Node2&#45;&gt;Node5</title>
<g id="a_edge4_Node000002_Node000005"><a xlink:title=" ">
<path fill="none" stroke="#63b8ff" d="M254.5,-54.75C254.5,-47.8 254.5,-37.85 254.5,-29.13"/>
<polygon fill="#63b8ff" stroke="#63b8ff" points="258,-29.09 254.5,-19.09 251,-29.09 258,-29.09"/>
</a>
</g>
</g>
<!-- Node2&#45;&gt;Node6 -->
<g id="edge5_Node000002_Node000006" class="edge">
<title>Node2&#45;&gt;Node6</title>
<g id="a_edge5_Node000002_Node000006"><a xlink:title=" ">
<path fill="none" stroke="#63b8ff" d="M214.97,-54.99C176.98,-46.73 117.7,-33.63 57.02,-19.07"/>
<polygon fill="#63b8ff" stroke="#63b8ff" points="57.81,-15.66 47.27,-16.72 56.17,-22.46 57.81,-15.66"/>
</a>
</g>
</g>
<!-- Node7 -->
<g id="Node000007" class="node">
<title>Node7</title>
<g id="a_Node000007"><a xlink:title=" ">
<polygon fill="#e0e0e0" stroke="#999999" points="355.5,-19 297.5,-19 297.5,0 355.5,0 355.5,-19"/>
<text text-anchor="middle" x="326.5" y="-7" font-family="Helvetica,sans-Serif" font-size="10.00">memory</text>
</a>
</g>
</g>
<!-- Node2&#45;&gt;Node7 -->
<g id="edge6_Node000002_Node000007" class="edge">
<title>Node2&#45;&gt;Node7</title>
<g id="a_edge6_Node000002_Node000007"><a xlink:title=" ">
<path fill="none" stroke="#63b8ff" d="M266.07,-54.98C276.92,-47 293.38,-34.88 306.38,-25.31"/>
<polygon fill="#63b8ff" stroke="#63b8ff" points="308.74,-27.92 314.72,-19.17 304.59,-22.28 308.74,-27.92"/>
</a>
</g>
</g>
<!-- Node8 -->
<g id="Node000008" class="node">
<title>Node8</title>
<g id="a_Node000008"><a xlink:title=" ">
<polygon fill="#e0e0e0" stroke="#999999" points="417.5,-19 373.5,-19 373.5,0 417.5,0 417.5,-19"/>
<text text-anchor="middle" x="395.5" y="-7" font-family="Helvetica,sans-Serif" font-size="10.00">string</text>
</a>
</g>
</g>
<!-- Node2&#45;&gt;Node8 -->
<g id="edge7_Node000002_Node000008" class="edge">
<title>Node2&#45;&gt;Node8</title>
<g id="a_edge7_Node000002_Node000008"><a xlink:title=" ">
<path fill="none" stroke="#63b8ff" d="M277.15,-54.98C300.62,-46.16 337.49,-32.31 363.83,-22.4"/>
<polygon fill="#63b8ff" stroke="#63b8ff" points="365.24,-25.61 373.37,-18.82 362.77,-19.06 365.24,-25.61"/>
</a>
</g>
</g>
<!-- Node9 -->
<g id="Node000009" class="node">
<title>Node9</title>
<g id="a_Node000009"><a xlink:title=" ">
<polygon fill="#e0e0e0" stroke="#999999" points="499.5,-19 435.5,-19 435.5,0 499.5,0 499.5,-19"/>
<text text-anchor="middle" x="467.5" y="-7" font-family="Helvetica,sans-Serif" font-size="10.00">JobSpec.h</text>
</a>
</g>
</g>
<!-- Node2&#45;&gt;Node9 -->
<g id="edge8_Node000002_Node000009" class="edge">
<title>Node2&#45;&gt;Node9</title>
<g id="a_edge8_Node000002_Node000009"><a xlink:title=" ">
<path fill="none" stroke="#63b8ff" d="M288.72,-54.98C326.02,-45.71 385.7,-30.85 425.73,-20.89"/>
<polygon fill="#63b8ff" stroke="#63b8ff" points="426.59,-24.29 435.45,-18.47 424.9,-17.49 426.59,-24.29"/>
</a>
</g>
</g>
<!-- Node10 -->
<g id="Node000010" class="node">
<title>Node10</title>
<g id="a_Node000010"><a xlink:title=" ">
<polygon fill="#e0e0e0" stroke="#999999" points="571,-19 518,-19 518,0 571,0 571,-19"/>
<text text-anchor="middle" x="544.5" y="-7" font-family="Helvetica,sans-Serif" font-size="10.00">Types.h</text>
</a>
</g>
</g>
<!-- Node2&#45;&gt;Node10 -->
<g id="edge9_Node000002_Node000010" class="edge">
<title>Node2&#45;&gt;Node10</title>
<g id="a_edge9_Node000002_Node000010"><a xlink:title=" ">
<path fill="none" stroke="#63b8ff" d="M306.23,-55.35C355.47,-47.38 431.86,-34.49 507.61,-19.08"/>
<polygon fill="#63b8ff" stroke="#63b8ff" points="508.71,-22.42 517.8,-16.99 507.3,-15.57 508.71,-22.42"/>
</a>
</g>
</g>
</g>
</svg>
