<?xml version="1.0" encoding="UTF-8" standalone="no"?>
<!DOCTYPE svg PUBLIC "-//W3C//DTD SVG 1.1//EN"
 "http://www.w3.org/Graphics/SVG/1.1/DTD/svg11.dtd">
<!-- Generated by graphviz version 2.43.0 (0)
 -->
<!-- Title: src/FieldOverlay.cpp Pages: 1 -->
<svg width="2393pt" height="192pt"
 viewBox="0.00 0.00 2392.50 192.00" xmlns="http://www.w3.org/2000/svg" xmlns:xlink="http://www.w3.org/1999/xlink">
<g id="graph0" class="graph" transform="scale(1 1) rotate(0) translate(4 188)">
<title>src/FieldOverlay.cpp</title>
<!-- Node1 -->
<g id="Node000001" class="node">
<title>Node1</title>
<g id="a_Node000001"><a xlink:title=" ">
<polygon fill="#999999" stroke="#666666" points="1404.5,-184 1290.5,-184 1290.5,-165 1404.5,-165 1404.5,-184"/>
<text text-anchor="middle" x="1347.5" y="-172" font-family="Helvetica,sans-Serif" font-size="10.00">src/FieldOverlay.cpp</text>
</a>
</g>
</g>
<!-- Node2 -->
<g id="Node000002" class="node">
<title>Node2</title>
<g id="a_Node000002"><a xlink:href="FieldOverlay_8h.html" target="_top" xlink:title=" ">
<polygon fill="white" stroke="#666666" points="378.5,-129 292.5,-129 292.5,-110 378.5,-110 378.5,-129"/>
<text text-anchor="middle" x="335.5" y="-117" font-family="Helvetica,sans-Serif" font-size="10.00">FieldOverlay.h</text>
</a>
</g>
</g>
<!-- Node1&#45;&gt;Node2 -->
<g id="edge1_Node000001_Node000002" class="edge">
<title>Node1&#45;&gt;Node2</title>
<g id="a_edge1_Node000001_Node000002"><a xlink:title=" ">
<path fill="none" stroke="#63b8ff" d="M1290.19,-170.5C1110.92,-161.11 562.44,-132.39 388.8,-123.29"/>
<polygon fill="#63b8ff" stroke="#63b8ff" points="388.81,-119.79 378.64,-122.76 388.44,-126.78 388.81,-119.79"/>
</a>
</g>
</g>
<!-- Node17 -->
<g id="Node000017" class="node">
<title>Node17</title>
<g id="a_Node000017"><a xlink:href="Colormap_8h.html" target="_top" xlink:title=" ">
<polygon fill="white" stroke="#666666" points="728,-129 655,-129 655,-110 728,-110 728,-129"/>
<text text-anchor="middle" x="691.5" y="-117" font-family="Helvetica,sans-Serif" font-size="10.00">Colormap.h</text>
</a>
</g>
</g>
<!-- Node1&#45;&gt;Node17 -->
<g id="edge17_Node000001_Node000017" class="edge">
<title>Node1&#45;&gt;Node17</title>
<g id="a_edge17_Node000001_Node000017"><a xlink:title=" ">
<path fill="none" stroke="#63b8ff" d="M1290.19,-171.04C1182.58,-166.03 943.01,-153.03 742.5,-129 741.2,-128.84 739.88,-128.68 738.54,-128.5"/>
<polygon fill="#63b8ff" stroke="#63b8ff" points="738.61,-124.98 728.21,-127.03 737.62,-131.91 738.61,-124.98"/>
</a>
</g>
</g>
<!-- Node18 -->
<g id="Node000018" class="node">
<title>Node18</title>
<g id="a_Node000018"><a xlink:title=" ">
<polygon fill="#e0e0e0" stroke="#999999" points="780,-74 733,-74 733,-55 780,-55 780,-74"/>
<text text-anchor="middle" x="756.5" y="-62" font-family="Helvetica,sans-Serif" font-size="10.00">cmath</text>
</a>
</g>
</g>
<!-- Node1&#45;&gt;Node18 -->
<g id="edge36_Node000001_Node000018" class="edge">
<title>Node1&#45;&gt;Node18</title>
<g id="a_edge36_Node000001_Node000018"><a xlink:title=" ">
<path fill="none" stroke="#63b8ff" d="M1290.31,-171.45C1159.46,-166.38 846.31,-151.98 804.5,-129 786.2,-118.94 772.78,-98.63 764.85,-83.67"/>
<polygon fill="#63b8ff" stroke="#63b8ff" points="767.82,-81.78 760.25,-74.37 761.55,-84.88 767.82,-81.78"/>
</a>
</g>
</g>
<!-- Node19 -->
<g id="Node000019" class="node">
<title>Node19</title>
<g id="a_Node000019"><a xlink:title=" ">
<polygon fill="#e0e0e0" stroke="#999999" points="862.5,-74 798.5,-74 798.5,-55 862.5,-55 862.5,-74"/>
<text text-anchor="middle" x="830.5" y="-62" font-family="Helvetica,sans-Serif" font-size="10.00">algorithm</text>
</a>
</g>
</g>
<!-- Node1&#45;&gt;Node19 -->
<g id="edge37_Node000001_Node000019" class="edge">
<title>Node1&#45;&gt;Node19</title>
<g id="a_edge37_Node000001_Node000019"><a xlink:title=" ">
<path fill="none" stroke="#63b8ff" d="M1290.11,-173C1158.97,-171.25 846.21,-163.47 814.5,-129 802.99,-116.49 810.38,-96.94 818.52,-82.83"/>
<polygon fill="#63b8ff" stroke="#63b8ff" points="821.66,-84.41 824.05,-74.09 815.75,-80.67 821.66,-84.41"/>
</a>
</g>
</g>
<!-- Node20 -->
<g id="Node000020" class="node">
<title>Node20</title>
<g id="a_Node000020"><a xlink:title=" ">
<polygon fill="#e0e0e0" stroke="#999999" points="894,-129 823,-129 823,-110 894,-110 894,-129"/>
<text text-anchor="middle" x="858.5" y="-117" font-family="Helvetica,sans-Serif" font-size="10.00">vtkPoints.h</text>
</a>
</g>
</g>
<!-- Node1&#45;&gt;Node20 -->
<g id="edge22_Node000001_Node000020" class="edge">
<title>Node1&#45;&gt;Node20</title>
<g id="a_edge22_Node000001_Node000020"><a xlink:title=" ">
<path fill="none" stroke="#63b8ff" d="M1290.18,-169.35C1207.31,-163.01 1049.02,-149.56 904.27,-128.98"/>
<polygon fill="#63b8ff" stroke="#63b8ff" points="904.71,-125.51 894.31,-127.56 903.72,-132.44 904.71,-125.51"/>
</a>
</g>
</g>
<!-- Node21 -->
<g id="Node000021" class="node">
<title>Node21</title>
<g id="a_Node000021"><a xlink:title=" ">
<polygon fill="#e0e0e0" stroke="#999999" points="1003,-129 912,-129 912,-110 1003,-110 1003,-129"/>
<text text-anchor="middle" x="957.5" y="-117" font-family="Helvetica,sans-Serif" font-size="10.00">vtkFloatArray.h</text>
</a>
</g>
</g>
<!-- Node1&#45;&gt;Node21 -->
<g id="edge23_Node000001_Node000021" class="edge">
<title>Node1&#45;&gt;Node21</title>
<g id="a_edge23_Node000001_Node000021"><a xlink:title=" ">
<path fill="none" stroke="#63b8ff" d="M1290.25,-166.27C1225.6,-158.02 1116.97,-143.91 1013.14,-129.06"/>
<polygon fill="#63b8ff" stroke="#63b8ff" points="1013.5,-125.58 1003.11,-127.62 1012.51,-132.51 1013.5,-125.58"/>
</a>
</g>
</g>
<!-- Node22 -->
<g id="Node000022" class="node">
<title>Node22</title>
<g id="a_Node000022"><a xlink:title=" ">
<polygon fill="#e0e0e0" stroke="#999999" points="1122,-129 1021,-129 1021,-110 1122,-110 1122,-129"/>
<text text-anchor="middle" x="1071.5" y="-117" font-family="Helvetica,sans-Serif" font-size="10.00">vtkDoubleArray.h</text>
</a>
</g>
</g>
<!-- Node1&#45;&gt;Node22 -->
<g id="edge24_Node000001_Node000022" class="edge">
<title>Node1&#45;&gt;Node22</title>
<g id="a_edge24_Node000001_Node000022"><a xlink:title=" ">
<path fill="none" stroke="#63b8ff" d="M1303.16,-164.98C1255.01,-155.74 1178.08,-140.97 1126.21,-131.01"/>
<polygon fill="#63b8ff" stroke="#63b8ff" points="1126.67,-127.53 1116.19,-129.08 1125.35,-134.41 1126.67,-127.53"/>
</a>
</g>
</g>
<!-- Node23 -->
<g id="Node000023" class="node">
<title>Node23</title>
<g id="a_Node000023"><a xlink:title=" ">
<polygon fill="#e0e0e0" stroke="#999999" points="1226.5,-129 1140.5,-129 1140.5,-110 1226.5,-110 1226.5,-129"/>
<text text-anchor="middle" x="1183.5" y="-117" font-family="Helvetica,sans-Serif" font-size="10.00">vtkPolyData.h</text>
</a>
</g>
</g>
<!-- Node1&#45;&gt;Node23 -->
<g id="edge25_Node000001_Node000023" class="edge">
<title>Node1&#45;&gt;Node23</title>
<g id="a_edge25_Node000001_Node000023"><a xlink:title=" ">
<path fill="none" stroke="#63b8ff" d="M1321.15,-164.98C1293.74,-156.13 1250.61,-142.19 1219.94,-132.28"/>
<polygon fill="#63b8ff" stroke="#63b8ff" points="1220.65,-128.83 1210.06,-129.08 1218.5,-135.49 1220.65,-128.83"/>
</a>
</g>
</g>
<!-- Node24 -->
<g id="Node000024" class="node">
<title>Node24</title>
<g id="a_Node000024"><a xlink:title=" ">
<polygon fill="#e0e0e0" stroke="#999999" points="1334,-129 1245,-129 1245,-110 1334,-110 1334,-129"/>
<text text-anchor="middle" x="1289.5" y="-117" font-family="Helvetica,sans-Serif" font-size="10.00">vtkPointData.h</text>
</a>
</g>
</g>
<!-- Node1&#45;&gt;Node24 -->
<g id="edge26_Node000001_Node000024" class="edge">
<title>Node1&#45;&gt;Node24</title>
<g id="a_edge26_Node000001_Node000024"><a xlink:title=" ">
<path fill="none" stroke="#63b8ff" d="M1338.18,-164.98C1329.69,-157.23 1316.94,-145.58 1306.62,-136.14"/>
<polygon fill="#63b8ff" stroke="#63b8ff" points="1308.73,-133.33 1298.99,-129.17 1304.01,-138.5 1308.73,-133.33"/>
</a>
</g>
</g>
<!-- Node25 -->
<g id="Node000025" class="node">
<title>Node25</title>
<g id="a_Node000025"><a xlink:title=" ">
<polygon fill="#e0e0e0" stroke="#999999" points="1460.5,-129 1352.5,-129 1352.5,-110 1460.5,-110 1460.5,-129"/>
<text text-anchor="middle" x="1406.5" y="-117" font-family="Helvetica,sans-Serif" font-size="10.00">vtkSphereSource.h</text>
</a>
</g>
</g>
<!-- Node1&#45;&gt;Node25 -->
<g id="edge27_Node000001_Node000025" class="edge">
<title>Node1&#45;&gt;Node25</title>
<g id="a_edge27_Node000001_Node000025"><a xlink:title=" ">
<path fill="none" stroke="#63b8ff" d="M1356.98,-164.98C1365.7,-157.15 1378.84,-145.34 1389.4,-135.86"/>
<polygon fill="#63b8ff" stroke="#63b8ff" points="1391.75,-138.46 1396.85,-129.17 1387.07,-133.25 1391.75,-138.46"/>
</a>
</g>
</g>
<!-- Node26 -->
<g id="Node000026" class="node">
<title>Node26</title>
<g id="a_Node000026"><a xlink:title=" ">
<polygon fill="#e0e0e0" stroke="#999999" points="1582,-129 1479,-129 1479,-110 1582,-110 1582,-129"/>
<text text-anchor="middle" x="1530.5" y="-117" font-family="Helvetica,sans-Serif" font-size="10.00">vtkArrowSource.h</text>
</a>
</g>
</g>
<!-- Node1&#45;&gt;Node26 -->
<g id="edge28_Node000001_Node000026" class="edge">
<title>Node1&#45;&gt;Node26</title>
<g id="a_edge28_Node000001_Node000026"><a xlink:title=" ">
<path fill="none" stroke="#63b8ff" d="M1376.9,-164.98C1407.89,-156.01 1456.88,-141.82 1491.17,-131.89"/>
<polygon fill="#63b8ff" stroke="#63b8ff" points="1492.24,-135.23 1500.87,-129.08 1490.29,-128.5 1492.24,-135.23"/>
</a>
</g>
</g>
<!-- Node27 -->
<g id="Node000027" class="node">
<title>Node27</title>
<g id="a_Node000027"><a xlink:title=" ">
<polygon fill="#e0e0e0" stroke="#999999" points="1683,-129 1600,-129 1600,-110 1683,-110 1683,-129"/>
<text text-anchor="middle" x="1641.5" y="-117" font-family="Helvetica,sans-Serif" font-size="10.00">vtkGlyph3D.h</text>
</a>
</g>
</g>
<!-- Node1&#45;&gt;Node27 -->
<g id="edge29_Node000001_Node000027" class="edge">
<title>Node1&#45;&gt;Node27</title>
<g id="a_edge29_Node000001_Node000027"><a xlink:title=" ">
<path fill="none" stroke="#63b8ff" d="M1394.74,-164.98C1448.07,-155.37 1534.56,-139.78 1589.7,-129.84"/>
<polygon fill="#63b8ff" stroke="#63b8ff" points="1590.4,-133.27 1599.62,-128.05 1589.16,-126.38 1590.4,-133.27"/>
</a>
</g>
</g>
<!-- Node28 -->
<g id="Node000028" class="node">
<title>Node28</title>
<g id="a_Node000028"><a xlink:title=" ">
<polygon fill="#e0e0e0" stroke="#999999" points="1814,-129 1701,-129 1701,-110 1814,-110 1814,-129"/>
<text text-anchor="middle" x="1757.5" y="-117" font-family="Helvetica,sans-Serif" font-size="10.00">vtkTrivialProducer.h</text>
</a>
</g>
</g>
<!-- Node1&#45;&gt;Node28 -->
<g id="edge30_Node000001_Node000028" class="edge">
<title>Node1&#45;&gt;Node28</title>
<g id="a_edge30_Node000001_Node000028"><a xlink:title=" ">
<path fill="none" stroke="#63b8ff" d="M1404.58,-166.17C1470.93,-157.64 1584.03,-143.08 1690.8,-129.22"/>
<polygon fill="#63b8ff" stroke="#63b8ff" points="1691.31,-132.68 1700.78,-127.92 1690.41,-125.74 1691.31,-132.68"/>
</a>
</g>
</g>
<!-- Node29 -->
<g id="Node000029" class="node">
<title>Node29</title>
<g id="a_Node000029"><a xlink:title=" ">
<polygon fill="#e0e0e0" stroke="#999999" points="1954.5,-129 1832.5,-129 1832.5,-110 1954.5,-110 1954.5,-129"/>
<text text-anchor="middle" x="1893.5" y="-117" font-family="Helvetica,sans-Serif" font-size="10.00">vtkPolyDataMapper.h</text>
</a>
</g>
</g>
<!-- Node1&#45;&gt;Node29 -->
<g id="edge31_Node000001_Node000029" class="edge">
<title>Node1&#45;&gt;Node29</title>
<g id="a_edge31_Node000001_Node000029"><a xlink:title=" ">
<path fill="none" stroke="#63b8ff" d="M1404.7,-168.67C1492.21,-161.16 1664.86,-145.9 1822.09,-129.12"/>
<polygon fill="#63b8ff" stroke="#63b8ff" points="1822.86,-132.56 1832.43,-128.02 1822.11,-125.6 1822.86,-132.56"/>
</a>
</g>
</g>
<!-- Node30 -->
<g id="Node000030" class="node">
<title>Node30</title>
<g id="a_Node000030"><a xlink:title=" ">
<polygon fill="#e0e0e0" stroke="#999999" points="2054,-129 1973,-129 1973,-110 2054,-110 2054,-129"/>
<text text-anchor="middle" x="2013.5" y="-117" font-family="Helvetica,sans-Serif" font-size="10.00">vtkProperty.h</text>
</a>
</g>
</g>
<!-- Node1&#45;&gt;Node30 -->
<g id="edge32_Node000001_Node000030" class="edge">
<title>Node1&#45;&gt;Node30</title>
<g id="a_edge32_Node000001_Node000030"><a xlink:title=" ">
<path fill="none" stroke="#63b8ff" d="M1404.58,-171.21C1511.83,-166.52 1750.96,-154.16 1962.82,-128.95"/>
<polygon fill="#63b8ff" stroke="#63b8ff" points="1963.38,-132.41 1972.89,-127.74 1962.54,-125.46 1963.38,-132.41"/>
</a>
</g>
</g>
<!-- Node31 -->
<g id="Node000031" class="node">
<title>Node31</title>
<g id="a_Node000031"><a xlink:title=" ">
<polygon fill="#e0e0e0" stroke="#999999" points="2185,-129 2072,-129 2072,-110 2185,-110 2185,-129"/>
<text text-anchor="middle" x="2128.5" y="-117" font-family="Helvetica,sans-Serif" font-size="10.00">vtkScalarBarActor.h</text>
</a>
</g>
</g>
<!-- Node1&#45;&gt;Node31 -->
<g id="edge33_Node000001_Node000031" class="edge">
<title>Node1&#45;&gt;Node31</title>
<g id="a_edge33_Node000001_Node000031"><a xlink:title=" ">
<path fill="none" stroke="#63b8ff" d="M1404.68,-171.27C1524.58,-166.3 1811.28,-152.92 2061.79,-129.1"/>
<polygon fill="#63b8ff" stroke="#63b8ff" points="2062.18,-132.58 2071.81,-128.14 2061.52,-125.61 2062.18,-132.58"/>
</a>
</g>
</g>
<!-- Node32 -->
<g id="Node000032" class="node">
<title>Node32</title>
<g id="a_Node000032"><a xlink:title=" ">
<polygon fill="#e0e0e0" stroke="#999999" points="2304,-129 2203,-129 2203,-110 2304,-110 2304,-129"/>
<text text-anchor="middle" x="2253.5" y="-117" font-family="Helvetica,sans-Serif" font-size="10.00">vtkTextProperty.h</text>
</a>
</g>
</g>
<!-- Node1&#45;&gt;Node32 -->
<g id="edge34_Node000001_Node000032" class="edge">
<title>Node1&#45;&gt;Node32</title>
<g id="a_edge34_Node000001_Node000032"><a xlink:title=" ">
<path fill="none" stroke="#63b8ff" d="M1404.64,-172.28C1539.84,-169.02 1890.12,-158.32 2192.41,-129.12"/>
<polygon fill="#63b8ff" stroke="#63b8ff" points="2193.07,-132.57 2202.69,-128.12 2192.39,-125.61 2193.07,-132.57"/>
</a>
</g>
</g>
<!-- Node33 -->
<g id="Node000033" class="node">
<title>Node33</title>
<g id="a_Node000033"><a xlink:title=" ">
<polygon fill="#e0e0e0" stroke="#999999" points="2384.5,-129 2322.5,-129 2322.5,-110 2384.5,-110 2384.5,-129"/>
<text text-anchor="middle" x="2353.5" y="-117" font-family="Helvetica,sans-Serif" font-size="10.00">vtkNew.h</text>
</a>
</g>
</g>
<!-- Node1&#45;&gt;Node33 -->
<g id="edge35_Node000001_Node000033" class="edge">
<title>Node1&#45;&gt;Node33</title>
<g id="a_edge35_Node000001_Node000033"><a xlink:title=" ">
<path fill="none" stroke="#63b8ff" d="M1404.67,-174.11C1553.08,-175.01 1962.78,-173.06 2312.08,-128.95"/>
<polygon fill="#63b8ff" stroke="#63b8ff" points="2312.66,-132.41 2322.14,-127.67 2311.78,-125.46 2312.66,-132.41"/>
</a>
</g>
</g>
<!-- Node3 -->
<g id="Node000003" class="node">
<title>Node3</title>
<g id="a_Node000003"><a xlink:href="ComputeWorker_8h.html" target="_top" xlink:title=" ">
<polygon fill="white" stroke="#666666" points="427,-74 324,-74 324,-55 427,-55 427,-74"/>
<text text-anchor="middle" x="375.5" y="-62" font-family="Helvetica,sans-Serif" font-size="10.00">ComputeWorker.h</text>
</a>
</g>
</g>
<!-- Node2&#45;&gt;Node3 -->
<g id="edge2_Node000002_Node000003" class="edge">
<title>Node2&#45;&gt;Node3</title>
<g id="a_edge2_Node000002_Node000003"><a xlink:title=" ">
<path fill="none" stroke="#63b8ff" d="M342.11,-109.75C347.76,-102.26 356.04,-91.28 362.95,-82.13"/>
<polygon fill="#63b8ff" stroke="#63b8ff" points="365.79,-84.18 369.02,-74.09 360.2,-79.96 365.79,-84.18"/>
</a>
</g>
</g>
<!-- Node7 -->
<g id="Node000007" class="node">
<title>Node7</title>
<g id="a_Node000007"><a xlink:title=" ">
<polygon fill="#e0e0e0" stroke="#999999" points="187,-19 140,-19 140,0 187,0 187,-19"/>
<text text-anchor="middle" x="163.5" y="-7" font-family="Helvetica,sans-Serif" font-size="10.00">vector</text>
</a>
</g>
</g>
<!-- Node2&#45;&gt;Node7 -->
<g id="edge16_Node000002_Node000007" class="edge">
<title>Node2&#45;&gt;Node7</title>
<g id="a_edge16_Node000002_Node000007"><a xlink:title=" ">
<path fill="none" stroke="#63b8ff" d="M329.55,-109.96C319.85,-96.58 299.37,-70.6 276.5,-55 252.07,-38.34 220.49,-26.58 196.93,-19.35"/>
<polygon fill="#63b8ff" stroke="#63b8ff" points="197.63,-15.9 187.05,-16.43 195.65,-22.62 197.63,-15.9"/>
</a>
</g>
</g>
<!-- Node12 -->
<g id="Node000012" class="node">
<title>Node12</title>
<g id="a_Node000012"><a xlink:title=" ">
<polygon fill="#e0e0e0" stroke="#999999" points="714.5,-74 610.5,-74 610.5,-55 714.5,-55 714.5,-74"/>
<text text-anchor="middle" x="662.5" y="-62" font-family="Helvetica,sans-Serif" font-size="10.00">vtkSmartPointer.h</text>
</a>
</g>
</g>
<!-- Node2&#45;&gt;Node12 -->
<g id="edge11_Node000002_Node000012" class="edge">
<title>Node2&#45;&gt;Node12</title>
<g id="a_edge11_Node000002_Node000012"><a xlink:title=" ">
<path fill="none" stroke="#63b8ff" d="M378.59,-111.52C435.3,-102.32 535.38,-86.1 600.3,-75.58"/>
<polygon fill="#63b8ff" stroke="#63b8ff" points="601.09,-79 610.41,-73.94 599.97,-72.09 601.09,-79"/>
</a>
</g>
</g>
<!-- Node13 -->
<g id="Node000013" class="node">
<title>Node13</title>
<g id="a_Node000013"><a xlink:title=" ">
<polygon fill="#e0e0e0" stroke="#999999" points="85,-74 0,-74 0,-55 85,-55 85,-74"/>
<text text-anchor="middle" x="42.5" y="-62" font-family="Helvetica,sans-Serif" font-size="10.00">vtkRenderer.h</text>
</a>
</g>
</g>
<!-- Node2&#45;&gt;Node13 -->
<g id="edge12_Node000002_Node000013" class="edge">
<title>Node2&#45;&gt;Node13</title>
<g id="a_edge12_Node000002_Node000013"><a xlink:title=" ">
<path fill="none" stroke="#63b8ff" d="M292.27,-110.68C239.97,-101.22 151.94,-85.3 95.57,-75.1"/>
<polygon fill="#63b8ff" stroke="#63b8ff" points="95.9,-71.6 85.43,-73.27 94.65,-78.49 95.9,-71.6"/>
</a>
</g>
</g>
<!-- Node14 -->
<g id="Node000014" class="node">
<title>Node14</title>
<g id="a_Node000014"><a xlink:title=" ">
<polygon fill="#e0e0e0" stroke="#999999" points="169.5,-74 103.5,-74 103.5,-55 169.5,-55 169.5,-74"/>
<text text-anchor="middle" x="136.5" y="-62" font-family="Helvetica,sans-Serif" font-size="10.00">vtkActor.h</text>
</a>
</g>
</g>
<!-- Node2&#45;&gt;Node14 -->
<g id="edge13_Node000002_Node000014" class="edge">
<title>Node2&#45;&gt;Node14</title>
<g id="a_edge13_Node000002_Node000014"><a xlink:title=" ">
<path fill="none" stroke="#63b8ff" d="M303.53,-109.98C269.68,-100.97 216.1,-86.7 178.79,-76.76"/>
<polygon fill="#63b8ff" stroke="#63b8ff" points="179.29,-73.27 168.72,-74.08 177.49,-80.04 179.29,-73.27"/>
</a>
</g>
</g>
<!-- Node15 -->
<g id="Node000015" class="node">
<title>Node15</title>
<g id="a_Node000015"><a xlink:title=" ">
<polygon fill="#e0e0e0" stroke="#999999" points="267.5,-74 187.5,-74 187.5,-55 267.5,-55 267.5,-74"/>
<text text-anchor="middle" x="227.5" y="-62" font-family="Helvetica,sans-Serif" font-size="10.00">vtkActor2D.h</text>
</a>
</g>
</g>
<!-- Node2&#45;&gt;Node15 -->
<g id="edge14_Node000002_Node000015" class="edge">
<title>Node2&#45;&gt;Node15</title>
<g id="a_edge14_Node000002_Node000015"><a xlink:title=" ">
<path fill="none" stroke="#63b8ff" d="M318.15,-109.98C300.93,-101.54 274.3,-88.47 254.35,-78.68"/>
<polygon fill="#63b8ff" stroke="#63b8ff" points="255.69,-75.43 245.17,-74.17 252.6,-81.72 255.69,-75.43"/>
</a>
</g>
</g>
<!-- Node16 -->
<g id="Node000016" class="node">
<title>Node16</title>
<g id="a_Node000016"><a xlink:title=" ">
<polygon fill="#e0e0e0" stroke="#999999" points="592,-74 445,-74 445,-55 592,-55 592,-74"/>
<text text-anchor="middle" x="518.5" y="-62" font-family="Helvetica,sans-Serif" font-size="10.00">vtkColorTransferFunction.h</text>
</a>
</g>
</g>
<!-- Node2&#45;&gt;Node16 -->
<g id="edge15_Node000002_Node000016" class="edge">
<title>Node2&#45;&gt;Node16</title>
<g id="a_edge15_Node000002_Node000016"><a xlink:title=" ">
<path fill="none" stroke="#63b8ff" d="M364.9,-109.98C395.89,-101.01 444.88,-86.82 479.17,-76.89"/>
<polygon fill="#63b8ff" stroke="#63b8ff" points="480.24,-80.23 488.87,-74.08 478.29,-73.5 480.24,-80.23"/>
</a>
</g>
</g>
<!-- Node4 -->
<g id="Node000004" class="node">
<title>Node4</title>
<g id="a_Node000004"><a xlink:title=" ">
<polygon fill="#e0e0e0" stroke="#999999" points="553.5,-19 497.5,-19 497.5,0 553.5,0 553.5,-19"/>
<text text-anchor="middle" x="525.5" y="-7" font-family="Helvetica,sans-Serif" font-size="10.00">QObject</text>
</a>
</g>
</g>
<!-- Node3&#45;&gt;Node4 -->
<g id="edge3_Node000003_Node000004" class="edge">
<title>Node3&#45;&gt;Node4</title>
<g id="a_edge3_Node000003_Node000004"><a xlink:title=" ">
<path fill="none" stroke="#63b8ff" d="M399.6,-54.98C424.38,-46.23 463.2,-32.51 491.19,-22.62"/>
<polygon fill="#63b8ff" stroke="#63b8ff" points="492.7,-25.8 500.96,-19.17 490.37,-19.2 492.7,-25.8"/>
</a>
</g>
</g>
<!-- Node5 -->
<g id="Node000005" class="node">
<title>Node5</title>
<g id="a_Node000005"><a xlink:title=" ">
<polygon fill="#e0e0e0" stroke="#999999" points="643,-19 572,-19 572,0 643,0 643,-19"/>
<text text-anchor="middle" x="607.5" y="-7" font-family="Helvetica,sans-Serif" font-size="10.00">QMetaType</text>
</a>
</g>
</g>
<!-- Node3&#45;&gt;Node5 -->
<g id="edge4_Node000003_Node000005" class="edge">
<title>Node3&#45;&gt;Node5</title>
<g id="a_edge4_Node000003_Node000005"><a xlink:title=" ">
<path fill="none" stroke="#63b8ff" d="M412.77,-54.98C453.42,-45.7 518.47,-30.84 562.07,-20.88"/>
<polygon fill="#63b8ff" stroke="#63b8ff" points="562.87,-24.29 571.84,-18.65 561.31,-17.46 562.87,-24.29"/>
</a>
</g>
</g>
<!-- Node6 -->
<g id="Node000006" class="node">
<title>Node6</title>
<g id="a_Node000006"><a xlink:title=" ">
<polygon fill="#e0e0e0" stroke="#999999" points="711.5,-19 661.5,-19 661.5,0 711.5,0 711.5,-19"/>
<text text-anchor="middle" x="686.5" y="-7" font-family="Helvetica,sans-Serif" font-size="10.00">atomic</text>
</a>
</g>
</g>
<!-- Node3&#45;&gt;Node6 -->
<g id="edge5_Node000003_Node000006" class="edge">
<title>Node3&#45;&gt;Node6</title>
<g id="a_edge5_Node000003_Node000006"><a xlink:title=" ">
<path fill="none" stroke="#63b8ff" d="M427.25,-55.65C494.88,-45.31 609.63,-27.45 651.5,-19 651.6,-18.98 651.7,-18.96 651.8,-18.94"/>
<polygon fill="#63b8ff" stroke="#63b8ff" points="652.29,-22.41 661.32,-16.87 650.8,-15.57 652.29,-22.41"/>
</a>
</g>
</g>
<!-- Node3&#45;&gt;Node7 -->
<g id="edge6_Node000003_Node000007" class="edge">
<title>Node3&#45;&gt;Node7</title>
<g id="a_edge6_Node000003_Node000007"><a xlink:title=" ">
<path fill="none" stroke="#63b8ff" d="M340.83,-54.97C306.73,-46.56 252.93,-33.25 197.01,-19.11"/>
<polygon fill="#63b8ff" stroke="#63b8ff" points="197.84,-15.71 187.29,-16.65 196.12,-22.5 197.84,-15.71"/>
</a>
</g>
</g>
<!-- Node8 -->
<g id="Node000008" class="node">
<title>Node8</title>
<g id="a_Node000008"><a xlink:title=" ">
<polygon fill="#e0e0e0" stroke="#999999" points="263.5,-19 205.5,-19 205.5,0 263.5,0 263.5,-19"/>
<text text-anchor="middle" x="234.5" y="-7" font-family="Helvetica,sans-Serif" font-size="10.00">memory</text>
</a>
</g>
</g>
<!-- Node3&#45;&gt;Node8 -->
<g id="edge7_Node000003_Node000008" class="edge">
<title>Node3&#45;&gt;Node8</title>
<g id="a_edge7_Node000003_Node000008"><a xlink:title=" ">
<path fill="none" stroke="#63b8ff" d="M352.85,-54.98C329.65,-46.27 293.38,-32.63 267.1,-22.75"/>
<polygon fill="#63b8ff" stroke="#63b8ff" points="268.16,-19.41 257.57,-19.17 265.7,-25.97 268.16,-19.41"/>
</a>
</g>
</g>
<!-- Node9 -->
<g id="Node000009" class="node">
<title>Node9</title>
<g id="a_Node000009"><a xlink:title=" ">
<polygon fill="#e0e0e0" stroke="#999999" points="325.5,-19 281.5,-19 281.5,0 325.5,0 325.5,-19"/>
<text text-anchor="middle" x="303.5" y="-7" font-family="Helvetica,sans-Serif" font-size="10.00">string</text>
</a>
</g>
</g>
<!-- Node3&#45;&gt;Node9 -->
<g id="edge8_Node000003_Node000009" class="edge">
<title>Node3&#45;&gt;Node9</title>
<g id="a_edge8_Node000003_Node000009"><a xlink:title=" ">
<path fill="none" stroke="#63b8ff" d="M363.93,-54.98C353.08,-47 336.62,-34.88 323.62,-25.31"/>
<polygon fill="#63b8ff" stroke="#63b8ff" points="325.41,-22.28 315.28,-19.17 321.26,-27.92 325.41,-22.28"/>
</a>
</g>
</g>
<!-- Node10 -->
<g id="Node000010" class="node">
<title>Node10</title>
<g id="a_Node000010"><a xlink:title=" ">
<polygon fill="#e0e0e0" stroke="#999999" points="407.5,-19 343.5,-19 343.5,0 407.5,0 407.5,-19"/>
<text text-anchor="middle" x="375.5" y="-7" font-family="Helvetica,sans-Serif" font-size="10.00">JobSpec.h</text>
</a>
</g>
</g>
<!-- Node3&#45;&gt;Node10 -->
<g id="edge9_Node000003_Node000010" class="edge">
<title>Node3&#45;&gt;Node10</title>
<g id="a_edge9_Node000003_Node000010"><a xlink:title=" ">
<path fill="none" stroke="#63b8ff" d="M375.5,-54.75C375.5,-47.8 375.5,-37.85 375.5,-29.13"/>
<polygon fill="#63b8ff" stroke="#63b8ff" points="379,-29.09 375.5,-19.09 372,-29.09 379,-29.09"/>
</a>
</g>
</g>
<!-- Node11 -->
<g id="Node000011" class="node">
<title>Node11</title>
<g id="a_Node000011"><a xlink:title=" ">
<polygon fill="#e0e0e0" stroke="#999999" points="479,-19 426,-19 426,0 479,0 479,-19"/>
<text text-anchor="middle" x="452.5" y="-7" font-family="Helvetica,sans-Serif" font-size="10.00">Types.h</text>
</a>
</g>
</g>
<!-- Node3&#45;&gt;Node11 -->
<g id="edge10_Node000003_Node000011" class="edge">
<title>Node3&#45;&gt;Node11</title>
<g id="a_edge10_Node000003_Node000011"><a xlink:title=" ">
<path fill="none" stroke="#63b8ff" d="M387.87,-54.98C399.59,-46.92 417.42,-34.65 431.39,-25.03"/>
<polygon fill="#63b8ff" stroke="#63b8ff" points="433.65,-27.72 439.9,-19.17 429.68,-21.96 433.65,-27.72"/>
</a>
</g>
</g>
<!-- Node17&#45;&gt;Node12 -->
<g id="edge18_Node000017_Node000012" class="edge">
<title>Node17&#45;&gt;Node12</title>
<g id="a_edge18_Node000017_Node000012"><a xlink:title=" ">
<path fill="none" stroke="#63b8ff" d="M686.71,-109.75C682.74,-102.49 676.97,-91.95 672.07,-82.98"/>
<polygon fill="#63b8ff" stroke="#63b8ff" points="675.07,-81.18 667.2,-74.09 668.93,-84.54 675.07,-81.18"/>
</a>
</g>
</g>
<!-- Node17&#45;&gt;Node16 -->
<g id="edge19_Node000017_Node000016" class="edge">
<title>Node17&#45;&gt;Node16</title>
<g id="a_edge19_Node000017_Node000016"><a xlink:title=" ">
<path fill="none" stroke="#63b8ff" d="M663.7,-109.98C634.53,-101.05 588.5,-86.94 556.1,-77.02"/>
<polygon fill="#63b8ff" stroke="#63b8ff" points="557.1,-73.66 546.51,-74.08 555.05,-80.36 557.1,-73.66"/>
</a>
</g>
</g>
<!-- Node17&#45;&gt;Node18 -->
<g id="edge20_Node000017_Node000018" class="edge">
<title>Node17&#45;&gt;Node18</title>
<g id="a_edge20_Node000017_Node000018"><a xlink:title=" ">
<path fill="none" stroke="#63b8ff" d="M701.94,-109.98C711.65,-102.07 726.32,-90.11 738,-80.58"/>
<polygon fill="#63b8ff" stroke="#63b8ff" points="740.33,-83.2 745.87,-74.17 735.9,-77.78 740.33,-83.2"/>
</a>
</g>
</g>
<!-- Node17&#45;&gt;Node19 -->
<g id="edge21_Node000017_Node000019" class="edge">
<title>Node17&#45;&gt;Node19</title>
<g id="a_edge21_Node000017_Node000019"><a xlink:title=" ">
<path fill="none" stroke="#63b8ff" d="M713.83,-109.98C736.7,-101.27 772.46,-87.63 798.36,-77.75"/>
<polygon fill="#63b8ff" stroke="#63b8ff" points="799.66,-81 807.76,-74.17 797.17,-74.46 799.66,-81"/>
</a>
</g>
</g>
</g>
</svg>
