<?xml version="1.0" encoding="UTF-8" standalone="no"?>
<!DOCTYPE svg PUBLIC "-//W3C//DTD SVG 1.1//EN"
 "http://www.w3.org/Graphics/SVG/1.1/DTD/svg11.dtd">
<!-- Generated by graphviz version 2.43.0 (0)
 -->
<!-- Title: src/FieldGridOverlay.cpp Pages: 1 -->
<svg width="1398pt" height="192pt"
 viewBox="0.00 0.00 1397.50 192.00" xmlns="http://www.w3.org/2000/svg" xmlns:xlink="http://www.w3.org/1999/xlink">
<g id="graph0" class="graph" transform="scale(1 1) rotate(0) translate(4 188)">
<title>src/FieldGridOverlay.cpp</title>
<!-- Node1 -->
<g id="Node000001" class="node">
<title>Node1</title>
<g id="a_Node000001"><a xlink:title=" ">
<polygon fill="#999999" stroke="#666666" points="888,-184 754,-184 754,-165 888,-165 888,-184"/>
<text text-anchor="middle" x="821" y="-172" font-family="Helvetica,sans-Serif" font-size="10.00">src/FieldGridOverlay.cpp</text>
</a>
</g>
</g>
<!-- Node2 -->
<g id="Node000002" class="node">
<title>Node2</title>
<g id="a_Node000002"><a xlink:href="FieldGridOverlay_8h.html" target="_top" xlink:title=" ">
<polygon fill="white" stroke="#666666" points="312,-129 206,-129 206,-110 312,-110 312,-129"/>
<text text-anchor="middle" x="259" y="-117" font-family="Helvetica,sans-Serif" font-size="10.00">FieldGridOverlay.h</text>
</a>
</g>
</g>
<!-- Node1&#45;&gt;Node2 -->
<g id="edge1_Node000001_Node000002" class="edge">
<title>Node1&#45;&gt;Node2</title>
<g id="a_edge1_Node000001_Node000002"><a xlink:title=" ">
<path fill="none" stroke="#63b8ff" d="M753.77,-168.54C659.65,-161.36 483.01,-147.07 322.16,-129.08"/>
<polygon fill="#63b8ff" stroke="#63b8ff" points="322.41,-125.59 312.08,-127.95 321.62,-132.54 322.41,-125.59"/>
</a>
</g>
</g>
<!-- Node15 -->
<g id="Node000015" class="node">
<title>Node15</title>
<g id="a_Node000015"><a xlink:title=" ">
<polygon fill="#e0e0e0" stroke="#999999" points="421.5,-129 330.5,-129 330.5,-110 421.5,-110 421.5,-129"/>
<text text-anchor="middle" x="376" y="-117" font-family="Helvetica,sans-Serif" font-size="10.00">OperationLog.h</text>
</a>
</g>
</g>
<!-- Node1&#45;&gt;Node15 -->
<g id="edge15_Node000001_Node000015" class="edge">
<title>Node1&#45;&gt;Node15</title>
<g id="a_edge15_Node000001_Node000015"><a xlink:title=" ">
<path fill="none" stroke="#63b8ff" d="M753.96,-166.67C678.31,-158.78 551.31,-144.97 431.67,-129.04"/>
<polygon fill="#63b8ff" stroke="#63b8ff" points="431.97,-125.55 421.6,-127.69 431.05,-132.49 431.97,-125.55"/>
</a>
</g>
</g>
<!-- Node16 -->
<g id="Node000016" class="node">
<title>Node16</title>
<g id="a_Node000016"><a xlink:title=" ">
<polygon fill="#e0e0e0" stroke="#999999" points="534.5,-129 439.5,-129 439.5,-110 534.5,-110 534.5,-129"/>
<text text-anchor="middle" x="487" y="-117" font-family="Helvetica,sans-Serif" font-size="10.00">vtkImageData.h</text>
</a>
</g>
</g>
<!-- Node1&#45;&gt;Node16 -->
<g id="edge16_Node000001_Node000016" class="edge">
<title>Node1&#45;&gt;Node16</title>
<g id="a_edge16_Node000001_Node000016"><a xlink:title=" ">
<path fill="none" stroke="#63b8ff" d="M767.34,-164.98C706.37,-155.31 607.26,-139.58 544.68,-129.65"/>
<polygon fill="#63b8ff" stroke="#63b8ff" points="545,-126.16 534.58,-128.05 543.91,-133.07 545,-126.16"/>
</a>
</g>
</g>
<!-- Node17 -->
<g id="Node000017" class="node">
<title>Node17</title>
<g id="a_Node000017"><a xlink:title=" ">
<polygon fill="#e0e0e0" stroke="#999999" points="643.5,-129 552.5,-129 552.5,-110 643.5,-110 643.5,-129"/>
<text text-anchor="middle" x="598" y="-117" font-family="Helvetica,sans-Serif" font-size="10.00">vtkFloatArray.h</text>
</a>
</g>
</g>
<!-- Node1&#45;&gt;Node17 -->
<g id="edge17_Node000001_Node000017" class="edge">
<title>Node1&#45;&gt;Node17</title>
<g id="a_edge17_Node000001_Node000017"><a xlink:title=" ">
<path fill="none" stroke="#63b8ff" d="M785.17,-164.98C746.84,-155.87 685.92,-141.4 644.05,-131.45"/>
<polygon fill="#63b8ff" stroke="#63b8ff" points="644.65,-127.99 634.11,-129.08 643.03,-134.8 644.65,-127.99"/>
</a>
</g>
</g>
<!-- Node18 -->
<g id="Node000018" class="node">
<title>Node18</title>
<g id="a_Node000018"><a xlink:title=" ">
<polygon fill="#e0e0e0" stroke="#999999" points="750.5,-129 661.5,-129 661.5,-110 750.5,-110 750.5,-129"/>
<text text-anchor="middle" x="706" y="-117" font-family="Helvetica,sans-Serif" font-size="10.00">vtkPointData.h</text>
</a>
</g>
</g>
<!-- Node1&#45;&gt;Node18 -->
<g id="edge18_Node000001_Node000018" class="edge">
<title>Node1&#45;&gt;Node18</title>
<g id="a_edge18_Node000001_Node000018"><a xlink:title=" ">
<path fill="none" stroke="#63b8ff" d="M802.52,-164.98C784.02,-156.46 755.32,-143.23 734.02,-133.41"/>
<polygon fill="#63b8ff" stroke="#63b8ff" points="735.36,-130.18 724.81,-129.17 732.43,-136.53 735.36,-130.18"/>
</a>
</g>
</g>
<!-- Node19 -->
<g id="Node000019" class="node">
<title>Node19</title>
<g id="a_Node000019"><a xlink:title=" ">
<polygon fill="#e0e0e0" stroke="#999999" points="873,-129 769,-129 769,-110 873,-110 873,-129"/>
<text text-anchor="middle" x="821" y="-117" font-family="Helvetica,sans-Serif" font-size="10.00">vtkContourFilter.h</text>
</a>
</g>
</g>
<!-- Node1&#45;&gt;Node19 -->
<g id="edge19_Node000001_Node000019" class="edge">
<title>Node1&#45;&gt;Node19</title>
<g id="a_edge19_Node000001_Node000019"><a xlink:title=" ">
<path fill="none" stroke="#63b8ff" d="M821,-164.75C821,-157.8 821,-147.85 821,-139.13"/>
<polygon fill="#63b8ff" stroke="#63b8ff" points="824.5,-139.09 821,-129.09 817.5,-139.09 824.5,-139.09"/>
</a>
</g>
</g>
<!-- Node20 -->
<g id="Node000020" class="node">
<title>Node20</title>
<g id="a_Node000020"><a xlink:title=" ">
<polygon fill="#e0e0e0" stroke="#999999" points="1013,-129 891,-129 891,-110 1013,-110 1013,-129"/>
<text text-anchor="middle" x="952" y="-117" font-family="Helvetica,sans-Serif" font-size="10.00">vtkPolyDataMapper.h</text>
</a>
</g>
</g>
<!-- Node1&#45;&gt;Node20 -->
<g id="edge20_Node000001_Node000020" class="edge">
<title>Node1&#45;&gt;Node20</title>
<g id="a_edge20_Node000001_Node000020"><a xlink:title=" ">
<path fill="none" stroke="#63b8ff" d="M842.05,-164.98C863.41,-156.34 896.7,-142.87 921.06,-133.02"/>
<polygon fill="#63b8ff" stroke="#63b8ff" points="922.61,-136.17 930.57,-129.17 919.99,-129.68 922.61,-136.17"/>
</a>
</g>
</g>
<!-- Node21 -->
<g id="Node000021" class="node">
<title>Node21</title>
<g id="a_Node000021"><a xlink:title=" ">
<polygon fill="#e0e0e0" stroke="#999999" points="1112.5,-129 1031.5,-129 1031.5,-110 1112.5,-110 1112.5,-129"/>
<text text-anchor="middle" x="1072" y="-117" font-family="Helvetica,sans-Serif" font-size="10.00">vtkProperty.h</text>
</a>
</g>
</g>
<!-- Node1&#45;&gt;Node21 -->
<g id="edge21_Node000001_Node000021" class="edge">
<title>Node1&#45;&gt;Node21</title>
<g id="a_edge21_Node000001_Node000021"><a xlink:title=" ">
<path fill="none" stroke="#63b8ff" d="M861.33,-164.98C904.84,-155.8 974.2,-141.15 1021.35,-131.19"/>
<polygon fill="#63b8ff" stroke="#63b8ff" points="1022.3,-134.57 1031.36,-129.08 1020.85,-127.72 1022.3,-134.57"/>
</a>
</g>
</g>
<!-- Node22 -->
<g id="Node000022" class="node">
<title>Node22</title>
<g id="a_Node000022"><a xlink:title=" ">
<polygon fill="#e0e0e0" stroke="#999999" points="1243.5,-129 1130.5,-129 1130.5,-110 1243.5,-110 1243.5,-129"/>
<text text-anchor="middle" x="1187" y="-117" font-family="Helvetica,sans-Serif" font-size="10.00">vtkTrivialProducer.h</text>
</a>
</g>
</g>
<!-- Node1&#45;&gt;Node22 -->
<g id="edge22_Node000001_Node000022" class="edge">
<title>Node1&#45;&gt;Node22</title>
<g id="a_edge22_Node000001_Node000022"><a xlink:title=" ">
<path fill="none" stroke="#63b8ff" d="M879.8,-164.98C945.44,-155.48 1051.44,-140.13 1120.17,-130.18"/>
<polygon fill="#63b8ff" stroke="#63b8ff" points="1121.05,-133.59 1130.45,-128.69 1120.05,-126.66 1121.05,-133.59"/>
</a>
</g>
</g>
<!-- Node23 -->
<g id="Node000023" class="node">
<title>Node23</title>
<g id="a_Node000023"><a xlink:title=" ">
<polygon fill="#e0e0e0" stroke="#999999" points="1324,-129 1262,-129 1262,-110 1324,-110 1324,-129"/>
<text text-anchor="middle" x="1293" y="-117" font-family="Helvetica,sans-Serif" font-size="10.00">vtkNew.h</text>
</a>
</g>
</g>
<!-- Node1&#45;&gt;Node23 -->
<g id="edge23_Node000001_Node000023" class="edge">
<title>Node1&#45;&gt;Node23</title>
<g id="a_edge23_Node000001_Node000023"><a xlink:title=" ">
<path fill="none" stroke="#63b8ff" d="M888.26,-168.81C971.4,-162.51 1117.36,-149.82 1251.56,-129.07"/>
<polygon fill="#63b8ff" stroke="#63b8ff" points="1252.28,-132.5 1261.62,-127.5 1251.2,-125.59 1252.28,-132.5"/>
</a>
</g>
</g>
<!-- Node24 -->
<g id="Node000024" class="node">
<title>Node24</title>
<g id="a_Node000024"><a xlink:title=" ">
<polygon fill="#e0e0e0" stroke="#999999" points="1389.5,-129 1342.5,-129 1342.5,-110 1389.5,-110 1389.5,-129"/>
<text text-anchor="middle" x="1366" y="-117" font-family="Helvetica,sans-Serif" font-size="10.00">cmath</text>
</a>
</g>
</g>
<!-- Node1&#45;&gt;Node24 -->
<g id="edge24_Node000001_Node000024" class="edge">
<title>Node1&#45;&gt;Node24</title>
<g id="a_edge24_Node000001_Node000024"><a xlink:title=" ">
<path fill="none" stroke="#63b8ff" d="M888.14,-171.2C984.39,-167.13 1167.22,-156.49 1331.98,-128.86"/>
<polygon fill="#63b8ff" stroke="#63b8ff" points="1333.04,-132.23 1342.31,-127.1 1331.86,-125.33 1333.04,-132.23"/>
</a>
</g>
</g>
<!-- Node3 -->
<g id="Node000003" class="node">
<title>Node3</title>
<g id="a_Node000003"><a xlink:title=" ">
<polygon fill="#e0e0e0" stroke="#999999" points="104,-74 0,-74 0,-55 104,-55 104,-74"/>
<text text-anchor="middle" x="52" y="-62" font-family="Helvetica,sans-Serif" font-size="10.00">vtkSmartPointer.h</text>
</a>
</g>
</g>
<!-- Node2&#45;&gt;Node3 -->
<g id="edge2_Node000002_Node000003" class="edge">
<title>Node2&#45;&gt;Node3</title>
<g id="a_edge2_Node000002_Node000003"><a xlink:title=" ">
<path fill="none" stroke="#63b8ff" d="M225.74,-109.98C190.39,-100.93 134.33,-86.58 95.49,-76.64"/>
<polygon fill="#63b8ff" stroke="#63b8ff" points="96.07,-73.17 85.52,-74.08 94.34,-79.95 96.07,-73.17"/>
</a>
</g>
</g>
<!-- Node4 -->
<g id="Node000004" class="node">
<title>Node4</title>
<g id="a_Node000004"><a xlink:title=" ">
<polygon fill="#e0e0e0" stroke="#999999" points="207.5,-74 122.5,-74 122.5,-55 207.5,-55 207.5,-74"/>
<text text-anchor="middle" x="165" y="-62" font-family="Helvetica,sans-Serif" font-size="10.00">vtkRenderer.h</text>
</a>
</g>
</g>
<!-- Node2&#45;&gt;Node4 -->
<g id="edge3_Node000002_Node000004" class="edge">
<title>Node2&#45;&gt;Node4</title>
<g id="a_edge3_Node000002_Node000004"><a xlink:title=" ">
<path fill="none" stroke="#63b8ff" d="M243.9,-109.98C229.18,-101.69 206.58,-88.94 189.33,-79.22"/>
<polygon fill="#63b8ff" stroke="#63b8ff" points="190.81,-76.03 180.38,-74.17 187.37,-82.13 190.81,-76.03"/>
</a>
</g>
</g>
<!-- Node5 -->
<g id="Node000005" class="node">
<title>Node5</title>
<g id="a_Node000005"><a xlink:title=" ">
<polygon fill="#e0e0e0" stroke="#999999" points="292,-74 226,-74 226,-55 292,-55 292,-74"/>
<text text-anchor="middle" x="259" y="-62" font-family="Helvetica,sans-Serif" font-size="10.00">vtkActor.h</text>
</a>
</g>
</g>
<!-- Node2&#45;&gt;Node5 -->
<g id="edge4_Node000002_Node000005" class="edge">
<title>Node2&#45;&gt;Node5</title>
<g id="a_edge4_Node000002_Node000005"><a xlink:title=" ">
<path fill="none" stroke="#63b8ff" d="M259,-109.75C259,-102.8 259,-92.85 259,-84.13"/>
<polygon fill="#63b8ff" stroke="#63b8ff" points="262.5,-84.09 259,-74.09 255.5,-84.09 262.5,-84.09"/>
</a>
</g>
</g>
<!-- Node6 -->
<g id="Node000006" class="node">
<title>Node6</title>
<g id="a_Node000006"><a xlink:title=" ">
<polygon fill="#e0e0e0" stroke="#999999" points="267.5,-19 220.5,-19 220.5,0 267.5,0 267.5,-19"/>
<text text-anchor="middle" x="244" y="-7" font-family="Helvetica,sans-Serif" font-size="10.00">vector</text>
</a>
</g>
</g>
<!-- Node2&#45;&gt;Node6 -->
<g id="edge5_Node000002_Node000006" class="edge">
<title>Node2&#45;&gt;Node6</title>
<g id="a_edge5_Node000002_Node000006"><a xlink:title=" ">
<path fill="none" stroke="#63b8ff" d="M271.73,-109.9C287.52,-98.08 311.2,-75.91 301,-55 294.7,-42.09 282.65,-31.83 271.24,-24.43"/>
<polygon fill="#63b8ff" stroke="#63b8ff" points="272.73,-21.25 262.35,-19.12 269.14,-27.25 272.73,-21.25"/>
</a>
</g>
</g>
<!-- Node7 -->
<g id="Node000007" class="node">
<title>Node7</title>
<g id="a_Node000007"><a xlink:href="ComputeWorker_8h.html" target="_top" xlink:title=" ">
<polygon fill="white" stroke="#666666" points="526.5,-74 423.5,-74 423.5,-55 526.5,-55 526.5,-74"/>
<text text-anchor="middle" x="475" y="-62" font-family="Helvetica,sans-Serif" font-size="10.00">ComputeWorker.h</text>
</a>
</g>
</g>
<!-- Node2&#45;&gt;Node7 -->
<g id="edge6_Node000002_Node000007" class="edge">
<title>Node2&#45;&gt;Node7</title>
<g id="a_edge6_Node000002_Node000007"><a xlink:title=" ">
<path fill="none" stroke="#63b8ff" d="M293.7,-109.98C330.75,-100.89 389.59,-86.46 430.13,-76.51"/>
<polygon fill="#63b8ff" stroke="#63b8ff" points="431.15,-79.86 440.02,-74.08 429.48,-73.07 431.15,-79.86"/>
</a>
</g>
</g>
<!-- Node7&#45;&gt;Node6 -->
<g id="edge10_Node000007_Node000006" class="edge">
<title>Node7&#45;&gt;Node6</title>
<g id="a_edge10_Node000007_Node000006"><a xlink:title=" ">
<path fill="none" stroke="#63b8ff" d="M435.47,-54.99C397.48,-46.73 338.2,-33.63 277.52,-19.07"/>
<polygon fill="#63b8ff" stroke="#63b8ff" points="278.31,-15.66 267.77,-16.72 276.67,-22.46 278.31,-15.66"/>
</a>
</g>
</g>
<!-- Node8 -->
<g id="Node000008" class="node">
<title>Node8</title>
<g id="a_Node000008"><a xlink:title=" ">
<polygon fill="#e0e0e0" stroke="#999999" points="342,-19 286,-19 286,0 342,0 342,-19"/>
<text text-anchor="middle" x="314" y="-7" font-family="Helvetica,sans-Serif" font-size="10.00">QObject</text>
</a>
</g>
</g>
<!-- Node7&#45;&gt;Node8 -->
<g id="edge7_Node000007_Node000008" class="edge">
<title>Node7&#45;&gt;Node8</title>
<g id="a_edge7_Node000007_Node000008"><a xlink:title=" ">
<path fill="none" stroke="#63b8ff" d="M449.13,-54.98C422.22,-46.13 379.88,-32.19 349.77,-22.28"/>
<polygon fill="#63b8ff" stroke="#63b8ff" points="350.66,-18.88 340.07,-19.08 348.47,-25.53 350.66,-18.88"/>
</a>
</g>
</g>
<!-- Node9 -->
<g id="Node000009" class="node">
<title>Node9</title>
<g id="a_Node000009"><a xlink:title=" ">
<polygon fill="#e0e0e0" stroke="#999999" points="431.5,-19 360.5,-19 360.5,0 431.5,0 431.5,-19"/>
<text text-anchor="middle" x="396" y="-7" font-family="Helvetica,sans-Serif" font-size="10.00">QMetaType</text>
</a>
</g>
</g>
<!-- Node7&#45;&gt;Node9 -->
<g id="edge8_Node000007_Node000009" class="edge">
<title>Node7&#45;&gt;Node9</title>
<g id="a_edge8_Node000007_Node000009"><a xlink:title=" ">
<path fill="none" stroke="#63b8ff" d="M462.31,-54.98C450.17,-46.84 431.64,-34.41 417.25,-24.76"/>
<polygon fill="#63b8ff" stroke="#63b8ff" points="419.18,-21.84 408.92,-19.17 415.28,-27.65 419.18,-21.84"/>
</a>
</g>
</g>
<!-- Node10 -->
<g id="Node000010" class="node">
<title>Node10</title>
<g id="a_Node000010"><a xlink:title=" ">
<polygon fill="#e0e0e0" stroke="#999999" points="500,-19 450,-19 450,0 500,0 500,-19"/>
<text text-anchor="middle" x="475" y="-7" font-family="Helvetica,sans-Serif" font-size="10.00">atomic</text>
</a>
</g>
</g>
<!-- Node7&#45;&gt;Node10 -->
<g id="edge9_Node000007_Node000010" class="edge">
<title>Node7&#45;&gt;Node10</title>
<g id="a_edge9_Node000007_Node000010"><a xlink:title=" ">
<path fill="none" stroke="#63b8ff" d="M475,-54.75C475,-47.8 475,-37.85 475,-29.13"/>
<polygon fill="#63b8ff" stroke="#63b8ff" points="478.5,-29.09 475,-19.09 471.5,-29.09 478.5,-29.09"/>
</a>
</g>
</g>
<!-- Node11 -->
<g id="Node000011" class="node">
<title>Node11</title>
<g id="a_Node000011"><a xlink:title=" ">
<polygon fill="#e0e0e0" stroke="#999999" points="576,-19 518,-19 518,0 576,0 576,-19"/>
<text text-anchor="middle" x="547" y="-7" font-family="Helvetica,sans-Serif" font-size="10.00">memory</text>
</a>
</g>
</g>
<!-- Node7&#45;&gt;Node11 -->
<g id="edge11_Node000007_Node000011" class="edge">
<title>Node7&#45;&gt;Node11</title>
<g id="a_edge11_Node000007_Node000011"><a xlink:title=" ">
<path fill="none" stroke="#63b8ff" d="M486.57,-54.98C497.42,-47 513.88,-34.88 526.88,-25.31"/>
<polygon fill="#63b8ff" stroke="#63b8ff" points="529.24,-27.92 535.22,-19.17 525.09,-22.28 529.24,-27.92"/>
</a>
</g>
</g>
<!-- Node12 -->
<g id="Node000012" class="node">
<title>Node12</title>
<g id="a_Node000012"><a xlink:title=" ">
<polygon fill="#e0e0e0" stroke="#999999" points="638,-19 594,-19 594,0 638,0 638,-19"/>
<text text-anchor="middle" x="616" y="-7" font-family="Helvetica,sans-Serif" font-size="10.00">string</text>
</a>
</g>
</g>
<!-- Node7&#45;&gt;Node12 -->
<g id="edge12_Node000007_Node000012" class="edge">
<title>Node7&#45;&gt;Node12</title>
<g id="a_edge12_Node000007_Node000012"><a xlink:title=" ">
<path fill="none" stroke="#63b8ff" d="M497.65,-54.98C521.12,-46.16 557.99,-32.31 584.33,-22.4"/>
<polygon fill="#63b8ff" stroke="#63b8ff" points="585.74,-25.61 593.87,-18.82 583.27,-19.06 585.74,-25.61"/>
</a>
</g>
</g>
<!-- Node13 -->
<g id="Node000013" class="node">
<title>Node13</title>
<g id="a_Node000013"><a xlink:title=" ">
<polygon fill="#e0e0e0" stroke="#999999" points="720,-19 656,-19 656,0 720,0 720,-19"/>
<text text-anchor="middle" x="688" y="-7" font-family="Helvetica,sans-Serif" font-size="10.00">JobSpec.h</text>
</a>
</g>
</g>
<!-- Node7&#45;&gt;Node13 -->
<g id="edge13_Node000007_Node000013" class="edge">
<title>Node7&#45;&gt;Node13</title>
<g id="a_edge13_Node000007_Node000013"><a xlink:title=" ">
<path fill="none" stroke="#63b8ff" d="M509.22,-54.98C546.52,-45.71 606.2,-30.85 646.23,-20.89"/>
<polygon fill="#63b8ff" stroke="#63b8ff" points="647.09,-24.29 655.95,-18.47 645.4,-17.49 647.09,-24.29"/>
</a>
</g>
</g>
<!-- Node14 -->
<g id="Node000014" class="node">
<title>Node14</title>
<g id="a_Node000014"><a xlink:title=" ">
<polygon fill="#e0e0e0" stroke="#999999" points="791.5,-19 738.5,-19 738.5,0 791.5,0 791.5,-19"/>
<text text-anchor="middle" x="765" y="-7" font-family="Helvetica,sans-Serif" font-size="10.00">Types.h</text>
</a>
</g>
</g>
<!-- Node7&#45;&gt;Node14 -->
<g id="edge14_Node000007_Node000014" class="edge">
<title>Node7&#45;&gt;Node14</title>
<g id="a_edge14_Node000007_Node000014"><a xlink:title=" ">
<path fill="none" stroke="#63b8ff" d="M526.73,-55.35C575.97,-47.38 652.36,-34.49 728.11,-19.08"/>
<polygon fill="#63b8ff" stroke="#63b8ff" points="729.21,-22.42 738.3,-16.99 727.8,-15.57 729.21,-22.42"/>
</a>
</g>
</g>
</g>
</svg>
