<?xml version="1.0" encoding="UTF-8" standalone="no"?>
<!DOCTYPE svg PUBLIC "-//W3C//DTD SVG 1.1//EN"
 "http://www.w3.org/Graphics/SVG/1.1/DTD/svg11.dtd">
<!-- Generated by graphviz version 2.43.0 (0)
 -->
<!-- Title: src/main_viewer.cpp Pages: 1 -->
<!--zoomable 192 -->

<svg id="main" version="1.1" xmlns="http://www.w3.org/2000/svg" xmlns:xlink="http://www.w3.org/1999/xlink" xml:space="preserve" onload="init(evt)">
<style type="text/css"><![CDATA[
.node, .edge {opacity: 0.7;}
.node.selected, .edge.selected {opacity: 1;}
.edge:hover path { stroke: red; }
.edge:hover polygon { stroke: red; fill: red; }
]]></style>

<defs>
  <circle id="rim" cx="0" cy="0" r="7"/>
  <circle id="rim2" cx="0" cy="0" r="3.5"/>
  <g id="zoomPlus">
    <use xlink:href="#rim" fill="#404040"><set attributeName="fill" to="#808080" begin="zoomplus.mouseover" end="zoomplus.mouseout"/></use>
    <path d="M-4,0h8M0,-4v8" fill="none" stroke="white" stroke-width="1.5" pointer-events="none"/>
  </g>
  <g id="zoomMin">
    <use xlink:href="#rim" fill="#404040"><set attributeName="fill" to="#808080" begin="zoomminus.mouseover" end="zoomminus.mouseout"/></use>
    <path d="M-4,0h8" fill="none" stroke="white" stroke-width="1.5" pointer-events="none"/>
  </g>
  <g id="arrowUp" transform="translate(30 24)">
    <use xlink:href="#rim"/>
    <path pointer-events="none" fill="none" stroke="white" stroke-width="1.5" d="M0,-3.0v7 M-2.5,-0.5L0,-3.0L2.5,-0.5"/>
  </g>
  <g id="arrowRight" transform="rotate(90) translate(36 -43)">
    <use xlink:href="#rim"/>
    <path pointer-events="none" fill="none" stroke="white" stroke-width="1.5" d="M0,-3.0v7 M-2.5,-0.5L0,-3.0L2.5,-0.5"/>
  </g>
  <g id="arrowDown" transform="rotate(180) translate(-30 -48)">
    <use xlink:href="#rim"/>
    <path pointer-events="none" fill="none" stroke="white" stroke-width="1.5" d="M0,-3.0v7 M-2.5,-0.5L0,-3.0L2.5,-0.5"/>
  </g>
  <g id="arrowLeft" transform="rotate(270) translate(-36 17)">
    <use xlink:href="#rim"/>
    <path pointer-events="none" fill="none" stroke="white" stroke-width="1.5" d="M0,-3.0v7 M-2.5,-0.5L0,-3.0L2.5,-0.5"/>
  </g>
  <g id="resetDef">
    <use xlink:href="#rim2" fill="#404040"><set attributeName="fill" to="#808080" begin="reset.mouseover" end="reset.mouseout"/></use>
  </g>
</defs>
<script type="application/ecmascript">
var viewWidth = 1942;
var viewHeight = 192;
var sectionId = 'dynsection-0';
</script>
<script type="application/ecmascript" xlink:href="svg.min.js"/>
<svg id="graph" class="graph">
<g id="viewport">
<title>src/main_viewer.cpp</title>
<!-- Node1 -->
<g id="Node000001" class="node">
<title>Node1</title>
<g id="a_Node000001"><a xlink:title=" ">
<polygon fill="#999999" stroke="#666666" points="1065.5,-184 949.5,-184 949.5,-165 1065.5,-165 1065.5,-184"/>
<text text-anchor="middle" x="1007.5" y="-172" font-family="Helvetica,sans-Serif" font-size="10.00">src/main_viewer.cpp</text>
</a>
</g>
</g>
<!-- Node2 -->
<g id="Node000002" class="node">
<title>Node2</title>
<g id="a_Node000002"><a xlink:title=" ">
<polygon fill="#e0e0e0" stroke="#999999" points="79,-129 0,-129 0,-110 79,-110 79,-129"/>
<text text-anchor="middle" x="39.5" y="-117" font-family="Helvetica,sans-Serif" font-size="10.00">QApplication</text>
</a>
</g>
</g>
<!-- Node1&#45;&gt;Node2 -->
<g id="edge1_Node000001_Node000002" class="edge">
<title>Node1&#45;&gt;Node2</title>
<g id="a_edge1_Node000001_Node000002"><a xlink:title=" ">
<path fill="none" stroke="#63b8ff" d="M949.44,-173.24C805.38,-172.06 419.89,-165.55 89.51,-129.08"/>
<polygon fill="#63b8ff" stroke="#63b8ff" points="89.58,-125.57 79.26,-127.94 88.81,-132.53 89.58,-125.57"/>
</a>
</g>
</g>
<!-- Node3 -->
<g id="Node000003" class="node">
<title>Node3</title>
<g id="a_Node000003"><a xlink:title=" ">
<polygon fill="#e0e0e0" stroke="#999999" points="192,-129 97,-129 97,-110 192,-110 192,-129"/>
<text text-anchor="middle" x="144.5" y="-117" font-family="Helvetica,sans-Serif" font-size="10.00">QSurfaceFormat</text>
</a>
</g>
</g>
<!-- Node1&#45;&gt;Node3 -->
<g id="edge2_Node000001_Node000003" class="edge">
<title>Node1&#45;&gt;Node3</title>
<g id="a_edge2_Node000001_Node000003"><a xlink:title=" ">
<path fill="none" stroke="#63b8ff" d="M949.09,-171.87C816.7,-167.83 483.77,-155.66 206.5,-129 205.19,-128.87 203.87,-128.74 202.54,-128.6"/>
<polygon fill="#63b8ff" stroke="#63b8ff" points="202.51,-125.08 192.18,-127.43 201.73,-132.03 202.51,-125.08"/>
</a>
</g>
</g>
<!-- Node4 -->
<g id="Node000004" class="node">
<title>Node4</title>
<g id="a_Node000004"><a xlink:title=" ">
<polygon fill="#e0e0e0" stroke="#999999" points="651,-19 580,-19 580,0 651,0 651,-19"/>
<text text-anchor="middle" x="615.5" y="-7" font-family="Helvetica,sans-Serif" font-size="10.00">QMetaType</text>
</a>
</g>
</g>
<!-- Node1&#45;&gt;Node4 -->
<g id="edge3_Node000001_Node000004" class="edge">
<title>Node1&#45;&gt;Node4</title>
<g id="a_edge3_Node000001_Node000004"><a xlink:title=" ">
<path fill="none" stroke="#63b8ff" d="M949.28,-170.33C778.21,-160.41 286.17,-127.46 239.5,-74 195.11,-23.15 460.02,-13.02 569.64,-11"/>
<polygon fill="#63b8ff" stroke="#63b8ff" points="569.81,-14.5 579.75,-10.83 569.69,-7.5 569.81,-14.5"/>
</a>
</g>
</g>
<!-- Node5 -->
<g id="Node000005" class="node">
<title>Node5</title>
<g id="a_Node000005"><a xlink:title=" ">
<polygon fill="#e0e0e0" stroke="#999999" points="705,-129 652,-129 652,-110 705,-110 705,-129"/>
<text text-anchor="middle" x="678.5" y="-117" font-family="Helvetica,sans-Serif" font-size="10.00">QTimer</text>
</a>
</g>
</g>
<!-- Node1&#45;&gt;Node5 -->
<g id="edge4_Node000001_Node000005" class="edge">
<title>Node1&#45;&gt;Node5</title>
<g id="a_edge4_Node000001_Node000005"><a xlink:title=" ">
<path fill="none" stroke="#63b8ff" d="M949.44,-166.1C892.36,-158.5 802.54,-145.7 715.26,-129"/>
<polygon fill="#63b8ff" stroke="#63b8ff" points="715.67,-125.52 705.18,-127.05 714.34,-132.39 715.67,-125.52"/>
</a>
</g>
</g>
<!-- Node6 -->
<g id="Node000006" class="node">
<title>Node6</title>
<g id="a_Node000006"><a xlink:title=" ">
<polygon fill="#e0e0e0" stroke="#999999" points="761.5,-129 723.5,-129 723.5,-110 761.5,-110 761.5,-129"/>
<text text-anchor="middle" x="742.5" y="-117" font-family="Helvetica,sans-Serif" font-size="10.00">QDir</text>
</a>
</g>
</g>
<!-- Node1&#45;&gt;Node6 -->
<g id="edge5_Node000001_Node000006" class="edge">
<title>Node1&#45;&gt;Node6</title>
<g id="a_edge5_Node000001_Node000006"><a xlink:title=" ">
<path fill="none" stroke="#63b8ff" d="M952.54,-164.93C906.53,-157.36 839,-145.33 771.64,-129.06"/>
<polygon fill="#63b8ff" stroke="#63b8ff" points="772.25,-125.61 761.7,-126.63 770.58,-132.41 772.25,-125.61"/>
</a>
</g>
</g>
<!-- Node7 -->
<g id="Node000007" class="node">
<title>Node7</title>
<g id="a_Node000007"><a xlink:title=" ">
<polygon fill="#e0e0e0" stroke="#999999" points="839.5,-129 779.5,-129 779.5,-110 839.5,-110 839.5,-129"/>
<text text-anchor="middle" x="809.5" y="-117" font-family="Helvetica,sans-Serif" font-size="10.00">QFileInfo</text>
</a>
</g>
</g>
<!-- Node1&#45;&gt;Node7 -->
<g id="edge6_Node000001_Node000007" class="edge">
<title>Node1&#45;&gt;Node7</title>
<g id="a_edge6_Node000001_Node000007"><a xlink:title=" ">
<path fill="none" stroke="#63b8ff" d="M975.69,-164.98C941.41,-155.81 886.8,-141.19 849.61,-131.24"/>
<polygon fill="#63b8ff" stroke="#63b8ff" points="850.18,-127.76 839.61,-128.56 848.37,-134.53 850.18,-127.76"/>
</a>
</g>
</g>
<!-- Node8 -->
<g id="Node000008" class="node">
<title>Node8</title>
<g id="a_Node000008"><a xlink:title=" ">
<polygon fill="#e0e0e0" stroke="#999999" points="943.5,-129 857.5,-129 857.5,-110 943.5,-110 943.5,-129"/>
<text text-anchor="middle" x="900.5" y="-117" font-family="Helvetica,sans-Serif" font-size="10.00">QMessageBox</text>
</a>
</g>
</g>
<!-- Node1&#45;&gt;Node8 -->
<g id="edge7_Node000001_Node000008" class="edge">
<title>Node1&#45;&gt;Node8</title>
<g id="a_edge7_Node000001_Node000008"><a xlink:title=" ">
<path fill="none" stroke="#63b8ff" d="M990.31,-164.98C973.25,-156.54 946.87,-143.47 927.1,-133.68"/>
<polygon fill="#63b8ff" stroke="#63b8ff" points="928.52,-130.47 918,-129.17 925.41,-136.75 928.52,-130.47"/>
</a>
</g>
</g>
<!-- Node9 -->
<g id="Node000009" class="node">
<title>Node9</title>
<g id="a_Node000009"><a xlink:title=" ">
<polygon fill="#e0e0e0" stroke="#999999" points="406,-74 249,-74 249,-55 406,-55 406,-74"/>
<text text-anchor="middle" x="327.5" y="-62" font-family="Helvetica,sans-Serif" font-size="10.00">QVTKOpenGLNativeWidget.h</text>
</a>
</g>
</g>
<!-- Node1&#45;&gt;Node9 -->
<g id="edge8_Node000001_Node000009" class="edge">
<title>Node1&#45;&gt;Node9</title>
<g id="a_edge8_Node000001_Node000009"><a xlink:title=" ">
<path fill="none" stroke="#63b8ff" d="M1002.86,-164.56C994.81,-150.13 976.78,-122.09 952.5,-110 847.96,-57.96 549.6,-82.5 416.29,-74.03"/>
<polygon fill="#63b8ff" stroke="#63b8ff" points="416.44,-70.53 406.21,-73.3 415.93,-77.51 416.44,-70.53"/>
</a>
</g>
</g>
<!-- Node10 -->
<g id="Node000010" class="node">
<title>Node10</title>
<g id="a_Node000010"><a xlink:href="MainWindow_8h.html" target="_top" xlink:title=" ">
<polygon fill="white" stroke="#666666" points="1087.5,-129 999.5,-129 999.5,-110 1087.5,-110 1087.5,-129"/>
<text text-anchor="middle" x="1043.5" y="-117" font-family="Helvetica,sans-Serif" font-size="10.00">MainWindow.h</text>
</a>
</g>
</g>
<!-- Node1&#45;&gt;Node10 -->
<g id="edge9_Node000001_Node000010" class="edge">
<title>Node1&#45;&gt;Node10</title>
<g id="a_edge9_Node000001_Node000010"><a xlink:title=" ">
<path fill="none" stroke="#63b8ff" d="M1013.44,-164.75C1018.48,-157.34 1025.84,-146.5 1032.01,-137.41"/>
<polygon fill="#63b8ff" stroke="#63b8ff" points="1034.94,-139.33 1037.67,-129.09 1029.15,-135.39 1034.94,-139.33"/>
</a>
</g>
</g>
<!-- Node17 -->
<g id="Node000017" class="node">
<title>Node17</title>
<g id="a_Node000017"><a xlink:href="ComputeWorker_8h.html" target="_top" xlink:title=" ">
<polygon fill="white" stroke="#666666" points="1349,-74 1246,-74 1246,-55 1349,-55 1349,-74"/>
<text text-anchor="middle" x="1297.5" y="-62" font-family="Helvetica,sans-Serif" font-size="10.00">ComputeWorker.h</text>
</a>
</g>
</g>
<!-- Node1&#45;&gt;Node17 -->
<g id="edge26_Node000001_Node000017" class="edge">
<title>Node1&#45;&gt;Node17</title>
<g id="a_edge26_Node000001_Node000017"><a xlink:title=" ">
<path fill="none" stroke="#63b8ff" d="M1030.74,-164.84C1082.2,-145.68 1205.86,-99.63 1264.97,-77.62"/>
<polygon fill="#63b8ff" stroke="#63b8ff" points="1266.4,-80.82 1274.55,-74.05 1263.96,-74.26 1266.4,-80.82"/>
</a>
</g>
</g>
<!-- Node23 -->
<g id="Node000023" class="node">
<title>Node23</title>
<g id="a_Node000023"><a xlink:title=" ">
<polygon fill="#e0e0e0" stroke="#999999" points="1470.5,-19 1406.5,-19 1406.5,0 1470.5,0 1470.5,-19"/>
<text text-anchor="middle" x="1438.5" y="-7" font-family="Helvetica,sans-Serif" font-size="10.00">JobSpec.h</text>
</a>
</g>
</g>
<!-- Node1&#45;&gt;Node23 -->
<g id="edge32_Node000001_Node000023" class="edge">
<title>Node1&#45;&gt;Node23</title>
<g id="a_edge32_Node000001_Node000023"><a xlink:title=" ">
<path fill="none" stroke="#63b8ff" d="M1061.99,-164.98C1133.19,-152.33 1260.35,-124.47 1358.5,-74 1382.98,-61.41 1407.19,-40.74 1422.46,-26.41"/>
<polygon fill="#63b8ff" stroke="#63b8ff" points="1425.18,-28.66 1429.96,-19.2 1420.33,-23.61 1425.18,-28.66"/>
</a>
</g>
</g>
<!-- Node25 -->
<g id="Node000025" class="node">
<title>Node25</title>
<g id="a_Node000025"><a xlink:href="RestServer_8h.html" target="_top" xlink:title=" ">
<polygon fill="white" stroke="#666666" points="1481.5,-129 1403.5,-129 1403.5,-110 1481.5,-110 1481.5,-129"/>
<text text-anchor="middle" x="1442.5" y="-117" font-family="Helvetica,sans-Serif" font-size="10.00">RestServer.h</text>
</a>
</g>
</g>
<!-- Node1&#45;&gt;Node25 -->
<g id="edge27_Node000001_Node000025" class="edge">
<title>Node1&#45;&gt;Node25</title>
<g id="a_edge27_Node000001_Node000025"><a xlink:title=" ">
<path fill="none" stroke="#63b8ff" d="M1065.52,-167.53C1140.47,-159.63 1274.92,-144.85 1389.5,-129 1390.77,-128.82 1392.06,-128.64 1393.36,-128.46"/>
<polygon fill="#63b8ff" stroke="#63b8ff" points="1394.08,-131.89 1403.45,-126.96 1393.05,-124.96 1394.08,-131.89"/>
</a>
</g>
</g>
<!-- Node29 -->
<g id="Node000029" class="node">
<title>Node29</title>
<g id="a_Node000029"><a xlink:title=" ">
<polygon fill="#e0e0e0" stroke="#999999" points="1591,-129 1500,-129 1500,-110 1591,-110 1591,-129"/>
<text text-anchor="middle" x="1545.5" y="-117" font-family="Helvetica,sans-Serif" font-size="10.00">OperationLog.h</text>
</a>
</g>
</g>
<!-- Node1&#45;&gt;Node29 -->
<g id="edge33_Node000001_Node000029" class="edge">
<title>Node1&#45;&gt;Node29</title>
<g id="a_edge33_Node000001_Node000029"><a xlink:title=" ">
<path fill="none" stroke="#63b8ff" d="M1065.62,-169.31C1154.6,-162.63 1330.16,-148.44 1489.9,-128.99"/>
<polygon fill="#63b8ff" stroke="#63b8ff" points="1490.41,-132.46 1499.91,-127.77 1489.56,-125.51 1490.41,-132.46"/>
</a>
</g>
</g>
<!-- Node30 -->
<g id="Node000030" class="node">
<title>Node30</title>
<g id="a_Node000030"><a xlink:title=" ">
<polygon fill="#e0e0e0" stroke="#999999" points="1738,-129 1609,-129 1609,-110 1738,-110 1738,-129"/>
<text text-anchor="middle" x="1673.5" y="-117" font-family="Helvetica,sans-Serif" font-size="10.00">RuntimeEnvironment.h</text>
</a>
</g>
</g>
<!-- Node1&#45;&gt;Node30 -->
<g id="edge34_Node000001_Node000030" class="edge">
<title>Node1&#45;&gt;Node30</title>
<g id="a_edge34_Node000001_Node000030"><a xlink:title=" ">
<path fill="none" stroke="#63b8ff" d="M1065.65,-169.93C1170.18,-163.34 1397.03,-148.25 1598.46,-129.16"/>
<polygon fill="#63b8ff" stroke="#63b8ff" points="1599.01,-132.63 1608.64,-128.19 1598.35,-125.66 1599.01,-132.63"/>
</a>
</g>
</g>
<!-- Node31 -->
<g id="Node000031" class="node">
<title>Node31</title>
<g id="a_Node000031"><a xlink:title=" ">
<polygon fill="#e0e0e0" stroke="#999999" points="1862.5,-129 1756.5,-129 1756.5,-110 1862.5,-110 1862.5,-129"/>
<text text-anchor="middle" x="1809.5" y="-117" font-family="Helvetica,sans-Serif" font-size="10.00">CalculatorConfig.h</text>
</a>
</g>
</g>
<!-- Node1&#45;&gt;Node31 -->
<g id="edge35_Node000001_Node000031" class="edge">
<title>Node1&#45;&gt;Node31</title>
<g id="a_edge35_Node000001_Node000031"><a xlink:title=" ">
<path fill="none" stroke="#63b8ff" d="M1065.66,-171.51C1189.09,-166.96 1486.53,-154.27 1746.43,-129.03"/>
<polygon fill="#63b8ff" stroke="#63b8ff" points="1746.82,-132.5 1756.43,-128.05 1746.14,-125.54 1746.82,-132.5"/>
</a>
</g>
</g>
<!-- Node32 -->
<g id="Node000032" class="node">
<title>Node32</title>
<g id="a_Node000032"><a xlink:title=" ">
<polygon fill="#e0e0e0" stroke="#999999" points="1934,-129 1881,-129 1881,-110 1934,-110 1934,-129"/>
<text text-anchor="middle" x="1907.5" y="-117" font-family="Helvetica,sans-Serif" font-size="10.00">cstdarg</text>
</a>
</g>
</g>
<!-- Node1&#45;&gt;Node32 -->
<g id="edge36_Node000001_Node000032" class="edge">
<title>Node1&#45;&gt;Node32</title>
<g id="a_edge36_Node000001_Node000032"><a xlink:title=" ">
<path fill="none" stroke="#63b8ff" d="M1065.74,-174.11C1203.99,-174.78 1562.76,-171.98 1870.85,-128.78"/>
<polygon fill="#63b8ff" stroke="#63b8ff" points="1871.46,-132.22 1880.87,-127.35 1870.47,-125.29 1871.46,-132.22"/>
</a>
</g>
</g>
<!-- Node10&#45;&gt;Node9 -->
<g id="edge11_Node000010_Node000009" class="edge">
<title>Node10&#45;&gt;Node9</title>
<g id="a_edge11_Node000010_Node000009"><a xlink:title=" ">
<path fill="none" stroke="#63b8ff" d="M999.21,-111.63C994.59,-111.02 989.95,-110.47 985.5,-110 735.93,-83.89 669.7,-94.09 416.46,-74.13"/>
<polygon fill="#63b8ff" stroke="#63b8ff" points="416.46,-70.62 406.21,-73.31 415.9,-77.6 416.46,-70.62"/>
</a>
</g>
</g>
<!-- Node11 -->
<g id="Node000011" class="node">
<title>Node11</title>
<g id="a_Node000011"><a xlink:title=" ">
<polygon fill="#e0e0e0" stroke="#999999" points="511,-74 424,-74 424,-55 511,-55 511,-74"/>
<text text-anchor="middle" x="467.5" y="-62" font-family="Helvetica,sans-Serif" font-size="10.00">QMainWindow</text>
</a>
</g>
</g>
<!-- Node10&#45;&gt;Node11 -->
<g id="edge10_Node000010_Node000011" class="edge">
<title>Node10&#45;&gt;Node11</title>
<g id="a_edge10_Node000010_Node000011"><a xlink:title=" ">
<path fill="none" stroke="#63b8ff" d="M999.21,-111.69C994.58,-111.08 989.95,-110.5 985.5,-110 782.72,-87.32 728.04,-98.08 521.1,-73.96"/>
<polygon fill="#63b8ff" stroke="#63b8ff" points="521.47,-70.48 511.13,-72.79 520.65,-77.43 521.47,-70.48"/>
</a>
</g>
</g>
<!-- Node12 -->
<g id="Node000012" class="node">
<title>Node12</title>
<g id="a_Node000012"><a xlink:title=" ">
<polygon fill="#e0e0e0" stroke="#999999" points="633.5,-74 529.5,-74 529.5,-55 633.5,-55 633.5,-74"/>
<text text-anchor="middle" x="581.5" y="-62" font-family="Helvetica,sans-Serif" font-size="10.00">vtkSmartPointer.h</text>
</a>
</g>
</g>
<!-- Node10&#45;&gt;Node12 -->
<g id="edge12_Node000010_Node000012" class="edge">
<title>Node10&#45;&gt;Node12</title>
<g id="a_edge12_Node000010_Node000012"><a xlink:title=" ">
<path fill="none" stroke="#63b8ff" d="M999.19,-111.82C994.57,-111.18 989.94,-110.56 985.5,-110 837.11,-91.32 796.94,-92.33 643.83,-74"/>
<polygon fill="#63b8ff" stroke="#63b8ff" points="643.93,-70.48 633.58,-72.76 643.09,-77.43 643.93,-70.48"/>
</a>
</g>
</g>
<!-- Node13 -->
<g id="Node000013" class="node">
<title>Node13</title>
<g id="a_Node000013"><a xlink:title=" ">
<polygon fill="#e0e0e0" stroke="#999999" points="737,-74 652,-74 652,-55 737,-55 737,-74"/>
<text text-anchor="middle" x="694.5" y="-62" font-family="Helvetica,sans-Serif" font-size="10.00">vtkRenderer.h</text>
</a>
</g>
</g>
<!-- Node10&#45;&gt;Node13 -->
<g id="edge13_Node000010_Node000013" class="edge">
<title>Node10&#45;&gt;Node13</title>
<g id="a_edge13_Node000010_Node000013"><a xlink:title=" ">
<path fill="none" stroke="#63b8ff" d="M999.49,-111.98C932.97,-102.11 808.89,-83.66 747.13,-74.07"/>
<polygon fill="#63b8ff" stroke="#63b8ff" points="747.48,-70.59 737.06,-72.5 746.4,-77.5 747.48,-70.59"/>
</a>
</g>
</g>
<!-- Node14 -->
<g id="Node000014" class="node">
<title>Node14</title>
<g id="a_Node000014"><a xlink:title=" ">
<polygon fill="#e0e0e0" stroke="#999999" points="945.5,-74 755.5,-74 755.5,-55 945.5,-55 945.5,-74"/>
<text text-anchor="middle" x="850.5" y="-62" font-family="Helvetica,sans-Serif" font-size="10.00">vtkGenericOpenGLRenderWindow.h</text>
</a>
</g>
</g>
<!-- Node10&#45;&gt;Node14 -->
<g id="edge14_Node000010_Node000014" class="edge">
<title>Node10&#45;&gt;Node14</title>
<g id="a_edge14_Node000010_Node000014"><a xlink:title=" ">
<path fill="none" stroke="#63b8ff" d="M1012.49,-109.98C979.67,-100.97 927.7,-86.7 891.51,-76.76"/>
<polygon fill="#63b8ff" stroke="#63b8ff" points="892.32,-73.36 881.75,-74.08 890.47,-80.11 892.32,-73.36"/>
</a>
</g>
</g>
<!-- Node15 -->
<g id="Node000015" class="node">
<title>Node15</title>
<g id="a_Node000015"><a xlink:title=" ">
<polygon fill="#e0e0e0" stroke="#999999" points="1123.5,-74 963.5,-74 963.5,-55 1123.5,-55 1123.5,-74"/>
<text text-anchor="middle" x="1043.5" y="-62" font-family="Helvetica,sans-Serif" font-size="10.00">vtkOpenGLMoleculeMapper.h</text>
</a>
</g>
</g>
<!-- Node10&#45;&gt;Node15 -->
<g id="edge15_Node000010_Node000015" class="edge">
<title>Node10&#45;&gt;Node15</title>
<g id="a_edge15_Node000010_Node000015"><a xlink:title=" ">
<path fill="none" stroke="#63b8ff" d="M1043.5,-109.75C1043.5,-102.8 1043.5,-92.85 1043.5,-84.13"/>
<polygon fill="#63b8ff" stroke="#63b8ff" points="1047,-84.09 1043.5,-74.09 1040,-84.09 1047,-84.09"/>
</a>
</g>
</g>
<!-- Node16 -->
<g id="Node000016" class="node">
<title>Node16</title>
<g id="a_Node000016"><a xlink:title=" ">
<polygon fill="#e0e0e0" stroke="#999999" points="1227.5,-74 1141.5,-74 1141.5,-55 1227.5,-55 1227.5,-74"/>
<text text-anchor="middle" x="1184.5" y="-62" font-family="Helvetica,sans-Serif" font-size="10.00">vtkMolecule.h</text>
</a>
</g>
</g>
<!-- Node10&#45;&gt;Node16 -->
<g id="edge16_Node000010_Node000016" class="edge">
<title>Node10&#45;&gt;Node16</title>
<g id="a_edge16_Node000010_Node000016"><a xlink:title=" ">
<path fill="none" stroke="#63b8ff" d="M1066.15,-109.98C1089.35,-101.27 1125.62,-87.63 1151.9,-77.75"/>
<polygon fill="#63b8ff" stroke="#63b8ff" points="1153.3,-80.97 1161.43,-74.17 1150.84,-74.41 1153.3,-80.97"/>
</a>
</g>
</g>
<!-- Node10&#45;&gt;Node17 -->
<g id="edge17_Node000010_Node000017" class="edge">
<title>Node10&#45;&gt;Node17</title>
<g id="a_edge17_Node000010_Node000017"><a xlink:title=" ">
<path fill="none" stroke="#63b8ff" d="M1084.31,-109.98C1128.43,-100.78 1198.83,-86.09 1246.55,-76.13"/>
<polygon fill="#63b8ff" stroke="#63b8ff" points="1247.3,-79.55 1256.37,-74.08 1245.87,-72.7 1247.3,-79.55"/>
</a>
</g>
</g>
<!-- Node17&#45;&gt;Node4 -->
<g id="edge19_Node000017_Node000004" class="edge">
<title>Node17&#45;&gt;Node4</title>
<g id="a_edge19_Node000017_Node000004"><a xlink:title=" ">
<path fill="none" stroke="#63b8ff" d="M1245.95,-56.07C1242.75,-55.69 1239.58,-55.32 1236.5,-55 1021.9,-32.38 764.33,-17.98 661.33,-12.73"/>
<polygon fill="#63b8ff" stroke="#63b8ff" points="661.44,-9.23 651.28,-12.22 661.09,-16.22 661.44,-9.23"/>
</a>
</g>
</g>
<!-- Node18 -->
<g id="Node000018" class="node">
<title>Node18</title>
<g id="a_Node000018"><a xlink:title=" ">
<polygon fill="#e0e0e0" stroke="#999999" points="1585.5,-19 1529.5,-19 1529.5,0 1585.5,0 1585.5,-19"/>
<text text-anchor="middle" x="1557.5" y="-7" font-family="Helvetica,sans-Serif" font-size="10.00">QObject</text>
</a>
</g>
</g>
<!-- Node17&#45;&gt;Node18 -->
<g id="edge18_Node000017_Node000018" class="edge">
<title>Node17&#45;&gt;Node18</title>
<g id="a_edge18_Node000017_Node000018"><a xlink:title=" ">
<path fill="none" stroke="#63b8ff" d="M1339.27,-54.98C1389.02,-44.84 1471.41,-28.05 1519.46,-18.26"/>
<polygon fill="#63b8ff" stroke="#63b8ff" points="1520.35,-21.64 1529.45,-16.22 1518.95,-14.79 1520.35,-21.64"/>
</a>
</g>
</g>
<!-- Node19 -->
<g id="Node000019" class="node">
<title>Node19</title>
<g id="a_Node000019"><a xlink:title=" ">
<polygon fill="#e0e0e0" stroke="#999999" points="1184.5,-19 1134.5,-19 1134.5,0 1184.5,0 1184.5,-19"/>
<text text-anchor="middle" x="1159.5" y="-7" font-family="Helvetica,sans-Serif" font-size="10.00">atomic</text>
</a>
</g>
</g>
<!-- Node17&#45;&gt;Node19 -->
<g id="edge20_Node000017_Node000019" class="edge">
<title>Node17&#45;&gt;Node19</title>
<g id="a_edge20_Node000017_Node000019"><a xlink:title=" ">
<path fill="none" stroke="#63b8ff" d="M1275.33,-54.98C1252.73,-46.3 1217.44,-32.75 1191.75,-22.88"/>
<polygon fill="#63b8ff" stroke="#63b8ff" points="1192.67,-19.49 1182.08,-19.17 1190.16,-26.02 1192.67,-19.49"/>
</a>
</g>
</g>
<!-- Node20 -->
<g id="Node000020" class="node">
<title>Node20</title>
<g id="a_Node000020"><a xlink:title=" ">
<polygon fill="#e0e0e0" stroke="#999999" points="1250,-19 1203,-19 1203,0 1250,0 1250,-19"/>
<text text-anchor="middle" x="1226.5" y="-7" font-family="Helvetica,sans-Serif" font-size="10.00">vector</text>
</a>
</g>
</g>
<!-- Node17&#45;&gt;Node20 -->
<g id="edge21_Node000017_Node000020" class="edge">
<title>Node17&#45;&gt;Node20</title>
<g id="a_edge21_Node000017_Node000020"><a xlink:title=" ">
<path fill="none" stroke="#63b8ff" d="M1286.09,-54.98C1275.39,-47 1259.16,-34.88 1246.34,-25.31"/>
<polygon fill="#63b8ff" stroke="#63b8ff" points="1248.22,-22.35 1238.11,-19.17 1244.03,-27.96 1248.22,-22.35"/>
</a>
</g>
</g>
<!-- Node21 -->
<g id="Node000021" class="node">
<title>Node21</title>
<g id="a_Node000021"><a xlink:title=" ">
<polygon fill="#e0e0e0" stroke="#999999" points="1326.5,-19 1268.5,-19 1268.5,0 1326.5,0 1326.5,-19"/>
<text text-anchor="middle" x="1297.5" y="-7" font-family="Helvetica,sans-Serif" font-size="10.00">memory</text>
</a>
</g>
</g>
<!-- Node17&#45;&gt;Node21 -->
<g id="edge22_Node000017_Node000021" class="edge">
<title>Node17&#45;&gt;Node21</title>
<g id="a_edge22_Node000017_Node000021"><a xlink:title=" ">
<path fill="none" stroke="#63b8ff" d="M1297.5,-54.75C1297.5,-47.8 1297.5,-37.85 1297.5,-29.13"/>
<polygon fill="#63b8ff" stroke="#63b8ff" points="1301,-29.09 1297.5,-19.09 1294,-29.09 1301,-29.09"/>
</a>
</g>
</g>
<!-- Node22 -->
<g id="Node000022" class="node">
<title>Node22</title>
<g id="a_Node000022"><a xlink:title=" ">
<polygon fill="#e0e0e0" stroke="#999999" points="1388.5,-19 1344.5,-19 1344.5,0 1388.5,0 1388.5,-19"/>
<text text-anchor="middle" x="1366.5" y="-7" font-family="Helvetica,sans-Serif" font-size="10.00">string</text>
</a>
</g>
</g>
<!-- Node17&#45;&gt;Node22 -->
<g id="edge23_Node000017_Node000022" class="edge">
<title>Node17&#45;&gt;Node22</title>
<g id="a_edge23_Node000017_Node000022"><a xlink:title=" ">
<path fill="none" stroke="#63b8ff" d="M1308.59,-54.98C1318.99,-47 1334.76,-34.88 1347.22,-25.31"/>
<polygon fill="#63b8ff" stroke="#63b8ff" points="1349.41,-28.04 1355.21,-19.17 1345.15,-22.49 1349.41,-28.04"/>
</a>
</g>
</g>
<!-- Node17&#45;&gt;Node23 -->
<g id="edge24_Node000017_Node000023" class="edge">
<title>Node17&#45;&gt;Node23</title>
<g id="a_edge24_Node000017_Node000023"><a xlink:title=" ">
<path fill="none" stroke="#63b8ff" d="M1320.15,-54.98C1343.35,-46.27 1379.62,-32.63 1405.9,-22.75"/>
<polygon fill="#63b8ff" stroke="#63b8ff" points="1407.3,-25.97 1415.43,-19.17 1404.84,-19.41 1407.3,-25.97"/>
</a>
</g>
</g>
<!-- Node24 -->
<g id="Node000024" class="node">
<title>Node24</title>
<g id="a_Node000024"><a xlink:title=" ">
<polygon fill="#e0e0e0" stroke="#999999" points="1116,-19 1063,-19 1063,0 1116,0 1116,-19"/>
<text text-anchor="middle" x="1089.5" y="-7" font-family="Helvetica,sans-Serif" font-size="10.00">Types.h</text>
</a>
</g>
</g>
<!-- Node17&#45;&gt;Node24 -->
<g id="edge25_Node000017_Node000024" class="edge">
<title>Node17&#45;&gt;Node24</title>
<g id="a_edge25_Node000017_Node000024"><a xlink:title=" ">
<path fill="none" stroke="#63b8ff" d="M1264.08,-54.98C1226.34,-45.37 1165.12,-29.77 1126.12,-19.83"/>
<polygon fill="#63b8ff" stroke="#63b8ff" points="1126.78,-16.39 1116.22,-17.31 1125.05,-23.17 1126.78,-16.39"/>
</a>
</g>
</g>
<!-- Node25&#45;&gt;Node18 -->
<g id="edge28_Node000025_Node000018" class="edge">
<title>Node25&#45;&gt;Node18</title>
<g id="a_edge28_Node000025_Node000018"><a xlink:title=" ">
<path fill="none" stroke="#63b8ff" d="M1481.51,-111.22C1518.02,-103.51 1568.68,-90.23 1580.5,-74 1590.81,-59.85 1581.27,-40.61 1571.53,-27.02"/>
<polygon fill="#63b8ff" stroke="#63b8ff" points="1574.21,-24.77 1565.3,-19.03 1568.68,-29.07 1574.21,-24.77"/>
</a>
</g>
</g>
<!-- Node26 -->
<g id="Node000026" class="node">
<title>Node26</title>
<g id="a_Node000026"><a xlink:title=" ">
<polygon fill="#e0e0e0" stroke="#999999" points="1699,-74 1628,-74 1628,-55 1699,-55 1699,-74"/>
<text text-anchor="middle" x="1663.5" y="-62" font-family="Helvetica,sans-Serif" font-size="10.00">QTcpServer</text>
</a>
</g>
</g>
<!-- Node25&#45;&gt;Node26 -->
<g id="edge29_Node000025_Node000026" class="edge">
<title>Node25&#45;&gt;Node26</title>
<g id="a_edge29_Node000025_Node000026"><a xlink:title=" ">
<path fill="none" stroke="#63b8ff" d="M1478.01,-109.98C1515.99,-100.87 1576.37,-86.4 1617.86,-76.45"/>
<polygon fill="#63b8ff" stroke="#63b8ff" points="1618.81,-79.82 1627.71,-74.08 1617.17,-73.01 1618.81,-79.82"/>
</a>
</g>
</g>
<!-- Node27 -->
<g id="Node000027" class="node">
<title>Node27</title>
<g id="a_Node000027"><a xlink:title=" ">
<polygon fill="#e0e0e0" stroke="#999999" points="1477.5,-74 1405.5,-74 1405.5,-55 1477.5,-55 1477.5,-74"/>
<text text-anchor="middle" x="1441.5" y="-62" font-family="Helvetica,sans-Serif" font-size="10.00">QTcpSocket</text>
</a>
</g>
</g>
<!-- Node25&#45;&gt;Node27 -->
<g id="edge30_Node000025_Node000027" class="edge">
<title>Node25&#45;&gt;Node27</title>
<g id="a_edge30_Node000025_Node000027"><a xlink:title=" ">
<path fill="none" stroke="#63b8ff" d="M1442.33,-109.75C1442.2,-102.8 1442.02,-92.85 1441.85,-84.13"/>
<polygon fill="#63b8ff" stroke="#63b8ff" points="1445.35,-84.02 1441.66,-74.09 1438.35,-84.15 1445.35,-84.02"/>
</a>
</g>
</g>
<!-- Node28 -->
<g id="Node000028" class="node">
<title>Node28</title>
<g id="a_Node000028"><a xlink:title=" ">
<polygon fill="#e0e0e0" stroke="#999999" points="1571.5,-74 1495.5,-74 1495.5,-55 1571.5,-55 1571.5,-74"/>
<text text-anchor="middle" x="1533.5" y="-62" font-family="Helvetica,sans-Serif" font-size="10.00">QJsonObject</text>
</a>
</g>
</g>
<!-- Node25&#45;&gt;Node28 -->
<g id="edge31_Node000025_Node000028" class="edge">
<title>Node25&#45;&gt;Node28</title>
<g id="a_edge31_Node000025_Node000028"><a xlink:title=" ">
<path fill="none" stroke="#63b8ff" d="M1457.12,-109.98C1471.36,-101.69 1493.25,-88.94 1509.95,-79.22"/>
<polygon fill="#63b8ff" stroke="#63b8ff" points="1511.73,-82.23 1518.61,-74.17 1508.21,-76.18 1511.73,-82.23"/>
</a>
</g>
</g>
</g>
</svg>

<g id="navigator" transform="translate(0 0)" fill="#404254">
  <rect fill="#f2f5e9" fill-opacity="0.5" stroke="#606060" stroke-width=".5" x="0" y="0" width="60" height="60"/>
  <use id="zoomplus" xlink:href="#zoomPlus" x="17" y="9" onmousedown="handleZoom(evt,'in')"/>
  <use id="zoomminus" xlink:href="#zoomMin" x="42" y="9" onmousedown="handleZoom(evt,'out')"/>
  <use id="reset" xlink:href="#resetDef" x="30" y="36" onmousedown="handleReset()"/>
   <use id="arrowup" xlink:href="#arrowUp" x="0" y="0" onmousedown="handlePan(0,-1)"/>
  <use id="arrowright" xlink:href="#arrowRight" x="0" y="0" onmousedown="handlePan(1,0)"/>
  <use id="arrowdown" xlink:href="#arrowDown" x="0" y="0" onmousedown="handlePan(0,1)"/>
  <use id="arrowleft" xlink:href="#arrowLeft" x="0" y="0" onmousedown="handlePan(-1,0)"/>
</g>
<svg viewBox="0 0 15 15" width="100%" height="30px" preserveAspectRatio="xMaxYMin meet">
 <g id="arrow_out" transform="scale(0.3 0.3)">
  <a xlink:href="main__viewer_8cpp__incl_org.svg" target="_base">
   <rect id="button" ry="5" rx="5" y="6" x="6" height="38" width="38"
        fill="#f2f5e9" fill-opacity="0.5" stroke="#606060" stroke-width="1.0"/>
   <path id="arrow"
     d="M 11.500037,31.436501 C 11.940474,20.09759 22.043105,11.32322 32.158766,21.979434 L 37.068811,17.246167 C 37.068811,17.246167 37.088388,32 37.088388,32 L 22.160133,31.978069 C 22.160133,31.978069 26.997745,27.140456 26.997745,27.140456 C 18.528582,18.264221 13.291696,25.230495 11.500037,31.436501 z"
     style="fill:#404040;"/>
  </a>
 </g>
</svg>

<style type='text/css'>
<![CDATA[
[data-mouse-over-selected='false'] { opacity: 0.7; }
[data-mouse-over-selected='true']  { opacity: 1.0; }
]]>
</style>
<script type="application/ecmascript"><![CDATA[
document.addEventListener('DOMContentLoaded', (event) => {
  highlightEdges();
  highlightAdjacentNodes();
});
]]></script>
</svg>
