<?xml version="1.0" encoding="UTF-8" standalone="no"?>
<!DOCTYPE svg PUBLIC "-//W3C//DTD SVG 1.1//EN"
 "http://www.w3.org/Graphics/SVG/1.1/DTD/svg11.dtd">
<!-- Generated by graphviz version 2.43.0 (0)
 -->
<!-- Title: src/MainWindow.h Pages: 1 -->
<svg width="1336pt" height="137pt"
 viewBox="0.00 0.00 1336.00 137.00" xmlns="http://www.w3.org/2000/svg" xmlns:xlink="http://www.w3.org/1999/xlink">
<g id="graph0" class="graph" transform="scale(1 1) rotate(0) translate(4 133)">
<title>src/MainWindow.h</title>
<!-- Node1 -->
<g id="Node000001" class="node">
<title>Node1</title>
<g id="a_Node000001"><a xlink:title=" ">
<polygon fill="#999999" stroke="#666666" points="576,-129 471,-129 471,-110 576,-110 576,-129"/>
<text text-anchor="middle" x="523.5" y="-117" font-family="Helvetica,sans-Serif" font-size="10.00">src/MainWindow.h</text>
</a>
</g>
</g>
<!-- Node2 -->
<g id="Node000002" class="node">
<title>Node2</title>
<g id="a_Node000002"><a xlink:title=" ">
<polygon fill="#e0e0e0" stroke="#999999" points="87,-74 0,-74 0,-55 87,-55 87,-74"/>
<text text-anchor="middle" x="43.5" y="-62" font-family="Helvetica,sans-Serif" font-size="10.00">QMainWindow</text>
</a>
</g>
</g>
<!-- Node1&#45;&gt;Node2 -->
<g id="edge1_Node000001_Node000002" class="edge">
<title>Node1&#45;&gt;Node2</title>
<g id="a_edge1_Node000001_Node000002"><a xlink:title=" ">
<path fill="none" stroke="#63b8ff" d="M470.67,-114.01C391.63,-107.07 237.7,-92.7 97.25,-74.17"/>
<polygon fill="#63b8ff" stroke="#63b8ff" points="97.54,-70.68 87.17,-72.83 96.62,-77.62 97.54,-70.68"/>
</a>
</g>
</g>
<!-- Node3 -->
<g id="Node000003" class="node">
<title>Node3</title>
<g id="a_Node000003"><a xlink:title=" ">
<polygon fill="#e0e0e0" stroke="#999999" points="262,-74 105,-74 105,-55 262,-55 262,-74"/>
<text text-anchor="middle" x="183.5" y="-62" font-family="Helvetica,sans-Serif" font-size="10.00">QVTKOpenGLNativeWidget.h</text>
</a>
</g>
</g>
<!-- Node1&#45;&gt;Node3 -->
<g id="edge2_Node000001_Node000003" class="edge">
<title>Node1&#45;&gt;Node3</title>
<g id="a_edge2_Node000001_Node000003"><a xlink:title=" ">
<path fill="none" stroke="#63b8ff" d="M470.75,-110.28C410.73,-100.92 312.69,-85.64 248.13,-75.57"/>
<polygon fill="#63b8ff" stroke="#63b8ff" points="248.49,-72.09 238.07,-74.01 247.41,-79 248.49,-72.09"/>
</a>
</g>
</g>
<!-- Node4 -->
<g id="Node000004" class="node">
<title>Node4</title>
<g id="a_Node000004"><a xlink:title=" ">
<polygon fill="#e0e0e0" stroke="#999999" points="384.5,-74 280.5,-74 280.5,-55 384.5,-55 384.5,-74"/>
<text text-anchor="middle" x="332.5" y="-62" font-family="Helvetica,sans-Serif" font-size="10.00">vtkSmartPointer.h</text>
</a>
</g>
</g>
<!-- Node1&#45;&gt;Node4 -->
<g id="edge3_Node000001_Node000004" class="edge">
<title>Node1&#45;&gt;Node4</title>
<g id="a_edge3_Node000001_Node000004"><a xlink:title=" ">
<path fill="none" stroke="#63b8ff" d="M492.81,-109.98C460.33,-100.97 408.9,-86.7 373.09,-76.76"/>
<polygon fill="#63b8ff" stroke="#63b8ff" points="374,-73.38 363.43,-74.08 372.13,-80.13 374,-73.38"/>
</a>
</g>
</g>
<!-- Node5 -->
<g id="Node000005" class="node">
<title>Node5</title>
<g id="a_Node000005"><a xlink:title=" ">
<polygon fill="#e0e0e0" stroke="#999999" points="488,-74 403,-74 403,-55 488,-55 488,-74"/>
<text text-anchor="middle" x="445.5" y="-62" font-family="Helvetica,sans-Serif" font-size="10.00">vtkRenderer.h</text>
</a>
</g>
</g>
<!-- Node1&#45;&gt;Node5 -->
<g id="edge4_Node000001_Node000005" class="edge">
<title>Node1&#45;&gt;Node5</title>
<g id="a_edge4_Node000001_Node000005"><a xlink:title=" ">
<path fill="none" stroke="#63b8ff" d="M510.97,-109.98C499.1,-101.92 481.04,-89.65 466.89,-80.03"/>
<polygon fill="#63b8ff" stroke="#63b8ff" points="468.5,-76.9 458.26,-74.17 464.56,-82.69 468.5,-76.9"/>
</a>
</g>
</g>
<!-- Node6 -->
<g id="Node000006" class="node">
<title>Node6</title>
<g id="a_Node000006"><a xlink:title=" ">
<polygon fill="#e0e0e0" stroke="#999999" points="696.5,-74 506.5,-74 506.5,-55 696.5,-55 696.5,-74"/>
<text text-anchor="middle" x="601.5" y="-62" font-family="Helvetica,sans-Serif" font-size="10.00">vtkGenericOpenGLRenderWindow.h</text>
</a>
</g>
</g>
<!-- Node1&#45;&gt;Node6 -->
<g id="edge5_Node000001_Node000006" class="edge">
<title>Node1&#45;&gt;Node6</title>
<g id="a_edge5_Node000001_Node000006"><a xlink:title=" ">
<path fill="none" stroke="#63b8ff" d="M536.03,-109.98C547.9,-101.92 565.96,-89.65 580.11,-80.03"/>
<polygon fill="#63b8ff" stroke="#63b8ff" points="582.44,-82.69 588.74,-74.17 578.5,-76.9 582.44,-82.69"/>
</a>
</g>
</g>
<!-- Node7 -->
<g id="Node000007" class="node">
<title>Node7</title>
<g id="a_Node000007"><a xlink:title=" ">
<polygon fill="#e0e0e0" stroke="#999999" points="874.5,-74 714.5,-74 714.5,-55 874.5,-55 874.5,-74"/>
<text text-anchor="middle" x="794.5" y="-62" font-family="Helvetica,sans-Serif" font-size="10.00">vtkOpenGLMoleculeMapper.h</text>
</a>
</g>
</g>
<!-- Node1&#45;&gt;Node7 -->
<g id="edge6_Node000001_Node000007" class="edge">
<title>Node1&#45;&gt;Node7</title>
<g id="a_edge6_Node000001_Node000007"><a xlink:title=" ">
<path fill="none" stroke="#63b8ff" d="M567.04,-109.98C614.31,-100.74 689.85,-85.97 740.78,-76.01"/>
<polygon fill="#63b8ff" stroke="#63b8ff" points="741.48,-79.44 750.62,-74.08 740.13,-72.57 741.48,-79.44"/>
</a>
</g>
</g>
<!-- Node8 -->
<g id="Node000008" class="node">
<title>Node8</title>
<g id="a_Node000008"><a xlink:title=" ">
<polygon fill="#e0e0e0" stroke="#999999" points="978.5,-74 892.5,-74 892.5,-55 978.5,-55 978.5,-74"/>
<text text-anchor="middle" x="935.5" y="-62" font-family="Helvetica,sans-Serif" font-size="10.00">vtkMolecule.h</text>
</a>
</g>
</g>
<!-- Node1&#45;&gt;Node8 -->
<g id="edge7_Node000001_Node000008" class="edge">
<title>Node1&#45;&gt;Node8</title>
<g id="a_edge7_Node000001_Node000008"><a xlink:title=" ">
<path fill="none" stroke="#63b8ff" d="M576.05,-112.66C644.25,-104.93 767.2,-90.5 882.34,-74.12"/>
<polygon fill="#63b8ff" stroke="#63b8ff" points="882.99,-77.56 892.39,-72.68 881.99,-70.63 882.99,-77.56"/>
</a>
</g>
</g>
<!-- Node9 -->
<g id="Node000009" class="node">
<title>Node9</title>
<g id="a_Node000009"><a xlink:href="ComputeWorker_8h.html" target="_top" xlink:title=" ">
<polygon fill="white" stroke="#666666" points="1100,-74 997,-74 997,-55 1100,-55 1100,-74"/>
<text text-anchor="middle" x="1048.5" y="-62" font-family="Helvetica,sans-Serif" font-size="10.00">ComputeWorker.h</text>
</a>
</g>
</g>
<!-- Node1&#45;&gt;Node9 -->
<g id="edge8_Node000001_Node000009" class="edge">
<title>Node1&#45;&gt;Node9</title>
<g id="a_edge8_Node000001_Node000009"><a xlink:title=" ">
<path fill="none" stroke="#63b8ff" d="M576.11,-114.19C660.38,-107.13 831.07,-92.17 986.71,-74.04"/>
<polygon fill="#63b8ff" stroke="#63b8ff" points="987.41,-77.48 996.94,-72.84 986.6,-70.53 987.41,-77.48"/>
</a>
</g>
</g>
<!-- Node10 -->
<g id="Node000010" class="node">
<title>Node10</title>
<g id="a_Node000010"><a xlink:title=" ">
<polygon fill="#e0e0e0" stroke="#999999" points="812.5,-19 756.5,-19 756.5,0 812.5,0 812.5,-19"/>
<text text-anchor="middle" x="784.5" y="-7" font-family="Helvetica,sans-Serif" font-size="10.00">QObject</text>
</a>
</g>
</g>
<!-- Node9&#45;&gt;Node10 -->
<g id="edge9_Node000009_Node000010" class="edge">
<title>Node9&#45;&gt;Node10</title>
<g id="a_edge9_Node000009_Node000010"><a xlink:title=" ">
<path fill="none" stroke="#63b8ff" d="M1002.76,-54.98C959,-46.73 890.91,-33.63 822.81,-19.23"/>
<polygon fill="#63b8ff" stroke="#63b8ff" points="823.27,-15.75 812.76,-17.09 821.81,-22.59 823.27,-15.75"/>
</a>
</g>
</g>
<!-- Node11 -->
<g id="Node000011" class="node">
<title>Node11</title>
<g id="a_Node000011"><a xlink:title=" ">
<polygon fill="#e0e0e0" stroke="#999999" points="902,-19 831,-19 831,0 902,0 902,-19"/>
<text text-anchor="middle" x="866.5" y="-7" font-family="Helvetica,sans-Serif" font-size="10.00">QMetaType</text>
</a>
</g>
</g>
<!-- Node9&#45;&gt;Node11 -->
<g id="edge10_Node000009_Node000011" class="edge">
<title>Node9&#45;&gt;Node11</title>
<g id="a_edge10_Node000009_Node000011"><a xlink:title=" ">
<path fill="none" stroke="#63b8ff" d="M1019.26,-54.98C988.44,-46.01 939.72,-31.82 905.61,-21.89"/>
<polygon fill="#63b8ff" stroke="#63b8ff" points="906.55,-18.52 895.97,-19.08 904.59,-25.24 906.55,-18.52"/>
</a>
</g>
</g>
<!-- Node12 -->
<g id="Node000012" class="node">
<title>Node12</title>
<g id="a_Node000012"><a xlink:title=" ">
<polygon fill="#e0e0e0" stroke="#999999" points="970.5,-19 920.5,-19 920.5,0 970.5,0 970.5,-19"/>
<text text-anchor="middle" x="945.5" y="-7" font-family="Helvetica,sans-Serif" font-size="10.00">atomic</text>
</a>
</g>
</g>
<!-- Node9&#45;&gt;Node12 -->
<g id="edge11_Node000009_Node000012" class="edge">
<title>Node9&#45;&gt;Node12</title>
<g id="a_edge11_Node000009_Node000012"><a xlink:title=" ">
<path fill="none" stroke="#63b8ff" d="M1031.95,-54.98C1015.61,-46.57 990.37,-33.59 971.37,-23.81"/>
<polygon fill="#63b8ff" stroke="#63b8ff" points="972.84,-20.63 962.35,-19.17 969.64,-26.86 972.84,-20.63"/>
</a>
</g>
</g>
<!-- Node13 -->
<g id="Node000013" class="node">
<title>Node13</title>
<g id="a_Node000013"><a xlink:title=" ">
<polygon fill="#e0e0e0" stroke="#999999" points="1036,-19 989,-19 989,0 1036,0 1036,-19"/>
<text text-anchor="middle" x="1012.5" y="-7" font-family="Helvetica,sans-Serif" font-size="10.00">vector</text>
</a>
</g>
</g>
<!-- Node9&#45;&gt;Node13 -->
<g id="edge12_Node000009_Node000013" class="edge">
<title>Node9&#45;&gt;Node13</title>
<g id="a_edge12_Node000009_Node000013"><a xlink:title=" ">
<path fill="none" stroke="#63b8ff" d="M1042.56,-54.75C1037.52,-47.34 1030.16,-36.5 1023.99,-27.41"/>
<polygon fill="#63b8ff" stroke="#63b8ff" points="1026.85,-25.39 1018.33,-19.09 1021.06,-29.33 1026.85,-25.39"/>
</a>
</g>
</g>
<!-- Node14 -->
<g id="Node000014" class="node">
<title>Node14</title>
<g id="a_Node000014"><a xlink:title=" ">
<polygon fill="#e0e0e0" stroke="#999999" points="1112.5,-19 1054.5,-19 1054.5,0 1112.5,0 1112.5,-19"/>
<text text-anchor="middle" x="1083.5" y="-7" font-family="Helvetica,sans-Serif" font-size="10.00">memory</text>
</a>
</g>
</g>
<!-- Node9&#45;&gt;Node14 -->
<g id="edge13_Node000009_Node000014" class="edge">
<title>Node9&#45;&gt;Node14</title>
<g id="a_edge13_Node000009_Node000014"><a xlink:title=" ">
<path fill="none" stroke="#63b8ff" d="M1054.28,-54.75C1059.12,-47.42 1066.18,-36.73 1072.14,-27.7"/>
<polygon fill="#63b8ff" stroke="#63b8ff" points="1075.24,-29.36 1077.83,-19.09 1069.4,-25.5 1075.24,-29.36"/>
</a>
</g>
</g>
<!-- Node15 -->
<g id="Node000015" class="node">
<title>Node15</title>
<g id="a_Node000015"><a xlink:title=" ">
<polygon fill="#e0e0e0" stroke="#999999" points="1174.5,-19 1130.5,-19 1130.5,0 1174.5,0 1174.5,-19"/>
<text text-anchor="middle" x="1152.5" y="-7" font-family="Helvetica,sans-Serif" font-size="10.00">string</text>
</a>
</g>
</g>
<!-- Node9&#45;&gt;Node15 -->
<g id="edge14_Node000009_Node000015" class="edge">
<title>Node9&#45;&gt;Node15</title>
<g id="a_edge14_Node000009_Node000015"><a xlink:title=" ">
<path fill="none" stroke="#63b8ff" d="M1065.21,-54.98C1081.71,-46.57 1107.2,-33.59 1126.38,-23.81"/>
<polygon fill="#63b8ff" stroke="#63b8ff" points="1128.17,-26.83 1135.49,-19.17 1124.99,-20.59 1128.17,-26.83"/>
</a>
</g>
</g>
<!-- Node16 -->
<g id="Node000016" class="node">
<title>Node16</title>
<g id="a_Node000016"><a xlink:title=" ">
<polygon fill="#e0e0e0" stroke="#999999" points="1256.5,-19 1192.5,-19 1192.5,0 1256.5,0 1256.5,-19"/>
<text text-anchor="middle" x="1224.5" y="-7" font-family="Helvetica,sans-Serif" font-size="10.00">JobSpec.h</text>
</a>
</g>
</g>
<!-- Node9&#45;&gt;Node16 -->
<g id="edge15_Node000009_Node000016" class="edge">
<title>Node9&#45;&gt;Node16</title>
<g id="a_edge15_Node000009_Node000016"><a xlink:title=" ">
<path fill="none" stroke="#63b8ff" d="M1076.78,-54.98C1106.45,-46.05 1153.29,-31.94 1186.25,-22.02"/>
<polygon fill="#63b8ff" stroke="#63b8ff" points="1187.43,-25.32 1196,-19.08 1185.42,-18.61 1187.43,-25.32"/>
</a>
</g>
</g>
<!-- Node17 -->
<g id="Node000017" class="node">
<title>Node17</title>
<g id="a_Node000017"><a xlink:title=" ">
<polygon fill="#e0e0e0" stroke="#999999" points="1328,-19 1275,-19 1275,0 1328,0 1328,-19"/>
<text text-anchor="middle" x="1301.5" y="-7" font-family="Helvetica,sans-Serif" font-size="10.00">Types.h</text>
</a>
</g>
</g>
<!-- Node9&#45;&gt;Node17 -->
<g id="edge16_Node000009_Node000017" class="edge">
<title>Node9&#45;&gt;Node17</title>
<g id="a_edge16_Node000009_Node000017"><a xlink:title=" ">
<path fill="none" stroke="#63b8ff" d="M1092.22,-54.93C1133.96,-46.66 1198.87,-33.57 1264.65,-19.13"/>
<polygon fill="#63b8ff" stroke="#63b8ff" points="1265.77,-22.47 1274.78,-16.9 1264.26,-15.63 1265.77,-22.47"/>
</a>
</g>
</g>
</g>
</svg>
