<?xml version="1.0" encoding="UTF-8" standalone="no"?>
<!DOCTYPE svg PUBLIC "-//W3C//DTD SVG 1.1//EN"
 "http://www.w3.org/Graphics/SVG/1.1/DTD/svg11.dtd">
<!-- Generated by graphviz version 2.43.0 (0)
 -->
<!-- Title: src/PeptideBondOverlay.h Pages: 1 -->
<svg width="294pt" height="82pt"
 viewBox="0.00 0.00 294.00 82.00" xmlns="http://www.w3.org/2000/svg" xmlns:xlink="http://www.w3.org/1999/xlink">
<g id="graph0" class="graph" transform="scale(1 1) rotate(0) translate(4 78)">
<title>src/PeptideBondOverlay.h</title>
<!-- Node1 -->
<g id="Node000001" class="node">
<title>Node1</title>
<g id="a_Node000001"><a xlink:title=" ">
<polygon fill="#999999" stroke="#666666" points="204.5,-74 63.5,-74 63.5,-55 204.5,-55 204.5,-74"/>
<text text-anchor="middle" x="134" y="-62" font-family="Helvetica,sans-Serif" font-size="10.00">src/PeptideBondOverlay.h</text>
</a>
</g>
</g>
<!-- Node2 -->
<g id="Node000002" class="node">
<title>Node2</title>
<g id="a_Node000002"><a xlink:href="MainWindow_8cpp.html" target="_top" xlink:title=" ">
<polygon fill="white" stroke="#666666" points="116,-19 0,-19 0,0 116,0 116,-19"/>
<text text-anchor="middle" x="58" y="-7" font-family="Helvetica,sans-Serif" font-size="10.00">src/MainWindow.cpp</text>
</a>
</g>
</g>
<!-- Node1&#45;&gt;Node2 -->
<g id="edge1_Node000001_Node000002" class="edge">
<title>Node1&#45;&gt;Node2</title>
<g id="a_edge1_Node000001_Node000002"><a xlink:title=" ">
<path fill="none" stroke="#63b8ff" d="M113.42,-49.15C99.69,-39.57 82.07,-27.29 70.43,-19.17"/>
<polygon fill="#63b8ff" stroke="#63b8ff" points="111.58,-52.14 121.79,-54.98 115.59,-46.39 111.58,-52.14"/>
</a>
</g>
</g>
<!-- Node3 -->
<g id="Node000003" class="node">
<title>Node3</title>
<g id="a_Node000003"><a xlink:href="PeptideBondOverlay_8cpp.html" target="_top" xlink:title=" ">
<polygon fill="white" stroke="#666666" points="286,-19 134,-19 134,0 286,0 286,-19"/>
<text text-anchor="middle" x="210" y="-7" font-family="Helvetica,sans-Serif" font-size="10.00">src/PeptideBondOverlay.cpp</text>
</a>
</g>
</g>
<!-- Node1&#45;&gt;Node3 -->
<g id="edge2_Node000001_Node000003" class="edge">
<title>Node1&#45;&gt;Node3</title>
<g id="a_edge2_Node000001_Node000003"><a xlink:title=" ">
<path fill="none" stroke="#63b8ff" d="M154.58,-49.15C168.31,-39.57 185.93,-27.29 197.57,-19.17"/>
<polygon fill="#63b8ff" stroke="#63b8ff" points="152.41,-46.39 146.21,-54.98 156.42,-52.14 152.41,-46.39"/>
</a>
</g>
</g>
</g>
</svg>
