<?xml version="1.0" encoding="UTF-8" standalone="no"?>
<!DOCTYPE svg PUBLIC "-//W3C//DTD SVG 1.1//EN"
 "http://www.w3.org/Graphics/SVG/1.1/DTD/svg11.dtd">
<!-- Generated by graphviz version 2.43.0 (0)
 -->
<!-- Title: src/PeptideBondOverlay.cpp Pages: 1 -->
<!--zoomable 137 -->

<svg id="main" version="1.1" xmlns="http://www.w3.org/2000/svg" xmlns:xlink="http://www.w3.org/1999/xlink" xml:space="preserve" onload="init(evt)">
<style type="text/css"><![CDATA[
.node, .edge {opacity: 0.7;}
.node.selected, .edge.selected {opacity: 1;}
.edge:hover path { stroke: red; }
.edge:hover polygon { stroke: red; fill: red; }
]]></style>

<defs>
  <circle id="rim" cx="0" cy="0" r="7"/>
  <circle id="rim2" cx="0" cy="0" r="3.5"/>
  <g id="zoomPlus">
    <use xlink:href="#rim" fill="#404040"><set attributeName="fill" to="#808080" begin="zoomplus.mouseover" end="zoomplus.mouseout"/></use>
    <path d="M-4,0h8M0,-4v8" fill="none" stroke="white" stroke-width="1.5" pointer-events="none"/>
  </g>
  <g id="zoomMin">
    <use xlink:href="#rim" fill="#404040"><set attributeName="fill" to="#808080" begin="zoomminus.mouseover" end="zoomminus.mouseout"/></use>
    <path d="M-4,0h8" fill="none" stroke="white" stroke-width="1.5" pointer-events="none"/>
  </g>
  <g id="arrowUp" transform="translate(30 24)">
    <use xlink:href="#rim"/>
    <path pointer-events="none" fill="none" stroke="white" stroke-width="1.5" d="M0,-3.0v7 M-2.5,-0.5L0,-3.0L2.5,-0.5"/>
  </g>
  <g id="arrowRight" transform="rotate(90) translate(36 -43)">
    <use xlink:href="#rim"/>
    <path pointer-events="none" fill="none" stroke="white" stroke-width="1.5" d="M0,-3.0v7 M-2.5,-0.5L0,-3.0L2.5,-0.5"/>
  </g>
  <g id="arrowDown" transform="rotate(180) translate(-30 -48)">
    <use xlink:href="#rim"/>
    <path pointer-events="none" fill="none" stroke="white" stroke-width="1.5" d="M0,-3.0v7 M-2.5,-0.5L0,-3.0L2.5,-0.5"/>
  </g>
  <g id="arrowLeft" transform="rotate(270) translate(-36 17)">
    <use xlink:href="#rim"/>
    <path pointer-events="none" fill="none" stroke="white" stroke-width="1.5" d="M0,-3.0v7 M-2.5,-0.5L0,-3.0L2.5,-0.5"/>
  </g>
  <g id="resetDef">
    <use xlink:href="#rim2" fill="#404040"><set attributeName="fill" to="#808080" begin="reset.mouseover" end="reset.mouseout"/></use>
  </g>
</defs>
<script type="application/ecmascript">
var viewWidth = 1377;
var viewHeight = 137;
var sectionId = 'dynsection-0';
</script>
<script type="application/ecmascript" xlink:href="svg.min.js"/>
<svg id="graph" class="graph">
<g id="viewport">
<title>src/PeptideBondOverlay.cpp</title>
<!-- Node1 -->
<g id="Node000001" class="node">
<title>Node1</title>
<g id="a_Node000001"><a xlink:title=" ">
<polygon fill="#999999" stroke="#666666" points="844,-129 692,-129 692,-110 844,-110 844,-129"/>
<text text-anchor="middle" x="768" y="-117" font-family="Helvetica,sans-Serif" font-size="10.00">src/PeptideBondOverlay.cpp</text>
</a>
</g>
</g>
<!-- Node2 -->
<g id="Node000002" class="node">
<title>Node2</title>
<g id="a_Node000002"><a xlink:href="PeptideBondOverlay_8h.html" target="_top" xlink:title=" ">
<polygon fill="white" stroke="#666666" points="274,-74 150,-74 150,-55 274,-55 274,-74"/>
<text text-anchor="middle" x="212" y="-62" font-family="Helvetica,sans-Serif" font-size="10.00">PeptideBondOverlay.h</text>
</a>
</g>
</g>
<!-- Node1&#45;&gt;Node2 -->
<g id="edge1_Node000001_Node000002" class="edge">
<title>Node1&#45;&gt;Node2</title>
<g id="a_edge1_Node000001_Node000002"><a xlink:title=" ">
<path fill="none" stroke="#63b8ff" d="M691.91,-112.17C598.5,-104.26 434.97,-89.93 284.67,-74.15"/>
<polygon fill="#63b8ff" stroke="#63b8ff" points="284.64,-70.63 274.33,-73.06 283.91,-77.59 284.64,-70.63"/>
</a>
</g>
</g>
<!-- Node7 -->
<g id="Node000007" class="node">
<title>Node7</title>
<g id="a_Node000007"><a xlink:title=" ">
<polygon fill="#e0e0e0" stroke="#999999" points="352,-74 292,-74 292,-55 352,-55 352,-74"/>
<text text-anchor="middle" x="322" y="-62" font-family="Helvetica,sans-Serif" font-size="10.00">Protein.h</text>
</a>
</g>
</g>
<!-- Node1&#45;&gt;Node7 -->
<g id="edge6_Node000001_Node000007" class="edge">
<title>Node1&#45;&gt;Node7</title>
<g id="a_edge6_Node000001_Node000007"><a xlink:title=" ">
<path fill="none" stroke="#63b8ff" d="M691.74,-112.44C609.92,-105.4 476.29,-92.36 362,-74 361.9,-73.98 361.8,-73.97 361.7,-73.95"/>
<polygon fill="#63b8ff" stroke="#63b8ff" points="362.54,-70.55 352.08,-72.23 361.31,-77.44 362.54,-70.55"/>
</a>
</g>
</g>
<!-- Node8 -->
<g id="Node000008" class="node">
<title>Node8</title>
<g id="a_Node000008"><a xlink:title=" ">
<polygon fill="#e0e0e0" stroke="#999999" points="497.5,-74 370.5,-74 370.5,-55 497.5,-55 497.5,-74"/>
<text text-anchor="middle" x="434" y="-62" font-family="Helvetica,sans-Serif" font-size="10.00">ProteinConformation.h</text>
</a>
</g>
</g>
<!-- Node1&#45;&gt;Node8 -->
<g id="edge7_Node000001_Node000008" class="edge">
<title>Node1&#45;&gt;Node8</title>
<g id="a_edge7_Node000001_Node000008"><a xlink:title=" ">
<path fill="none" stroke="#63b8ff" d="M714.34,-109.98C655.38,-100.63 560.75,-85.61 497.98,-75.65"/>
<polygon fill="#63b8ff" stroke="#63b8ff" points="498.23,-72.15 487.81,-74.04 497.13,-79.06 498.23,-72.15"/>
</a>
</g>
</g>
<!-- Node9 -->
<g id="Node000009" class="node">
<title>Node9</title>
<g id="a_Node000009"><a xlink:title=" ">
<polygon fill="#e0e0e0" stroke="#999999" points="566,-74 516,-74 516,-55 566,-55 566,-74"/>
<text text-anchor="middle" x="541" y="-62" font-family="Helvetica,sans-Serif" font-size="10.00">Bond.h</text>
</a>
</g>
</g>
<!-- Node1&#45;&gt;Node9 -->
<g id="edge8_Node000001_Node000009" class="edge">
<title>Node1&#45;&gt;Node9</title>
<g id="a_edge8_Node000001_Node000009"><a xlink:title=" ">
<path fill="none" stroke="#63b8ff" d="M730.45,-109.92C691.72,-101.04 629.6,-86.72 576,-74 575.9,-73.98 575.8,-73.95 575.7,-73.93"/>
<polygon fill="#63b8ff" stroke="#63b8ff" points="576.77,-70.59 566.23,-71.66 575.14,-77.39 576.77,-70.59"/>
</a>
</g>
</g>
<!-- Node10 -->
<g id="Node000010" class="node">
<title>Node10</title>
<g id="a_Node000010"><a xlink:title=" ">
<polygon fill="#e0e0e0" stroke="#999999" points="655.5,-74 584.5,-74 584.5,-55 655.5,-55 655.5,-74"/>
<text text-anchor="middle" x="620" y="-62" font-family="Helvetica,sans-Serif" font-size="10.00">vtkPoints.h</text>
</a>
</g>
</g>
<!-- Node1&#45;&gt;Node10 -->
<g id="edge9_Node000001_Node000010" class="edge">
<title>Node1&#45;&gt;Node10</title>
<g id="a_edge9_Node000001_Node000010"><a xlink:title=" ">
<path fill="none" stroke="#63b8ff" d="M744.22,-109.98C719.77,-101.23 681.47,-87.51 653.85,-77.62"/>
<polygon fill="#63b8ff" stroke="#63b8ff" points="654.81,-74.25 644.21,-74.17 652.45,-80.84 654.81,-74.25"/>
</a>
</g>
</g>
<!-- Node11 -->
<g id="Node000011" class="node">
<title>Node11</title>
<g id="a_Node000011"><a xlink:title=" ">
<polygon fill="#e0e0e0" stroke="#999999" points="758.5,-74 673.5,-74 673.5,-55 758.5,-55 758.5,-74"/>
<text text-anchor="middle" x="716" y="-62" font-family="Helvetica,sans-Serif" font-size="10.00">vtkCellArray.h</text>
</a>
</g>
</g>
<!-- Node1&#45;&gt;Node11 -->
<g id="edge10_Node000001_Node000011" class="edge">
<title>Node1&#45;&gt;Node11</title>
<g id="a_edge10_Node000001_Node000011"><a xlink:title=" ">
<path fill="none" stroke="#63b8ff" d="M759.41,-109.75C751.84,-102.03 740.62,-90.6 731.49,-81.28"/>
<polygon fill="#63b8ff" stroke="#63b8ff" points="733.93,-78.78 724.43,-74.09 728.93,-83.68 733.93,-78.78"/>
</a>
</g>
</g>
<!-- Node12 -->
<g id="Node000012" class="node">
<title>Node12</title>
<g id="a_Node000012"><a xlink:title=" ">
<polygon fill="#e0e0e0" stroke="#999999" points="863,-74 777,-74 777,-55 863,-55 863,-74"/>
<text text-anchor="middle" x="820" y="-62" font-family="Helvetica,sans-Serif" font-size="10.00">vtkPolyData.h</text>
</a>
</g>
</g>
<!-- Node1&#45;&gt;Node12 -->
<g id="edge11_Node000001_Node000012" class="edge">
<title>Node1&#45;&gt;Node12</title>
<g id="a_edge11_Node000001_Node000012"><a xlink:title=" ">
<path fill="none" stroke="#63b8ff" d="M776.59,-109.75C784.16,-102.03 795.38,-90.6 804.51,-81.28"/>
<polygon fill="#63b8ff" stroke="#63b8ff" points="807.07,-83.68 811.57,-74.09 802.07,-78.78 807.07,-83.68"/>
</a>
</g>
</g>
<!-- Node13 -->
<g id="Node000013" class="node">
<title>Node13</title>
<g id="a_Node000013"><a xlink:title=" ">
<polygon fill="#e0e0e0" stroke="#999999" points="969,-74 881,-74 881,-55 969,-55 969,-74"/>
<text text-anchor="middle" x="925" y="-62" font-family="Helvetica,sans-Serif" font-size="10.00">vtkTubeFilter.h</text>
</a>
</g>
</g>
<!-- Node1&#45;&gt;Node13 -->
<g id="edge12_Node000001_Node000013" class="edge">
<title>Node1&#45;&gt;Node13</title>
<g id="a_edge12_Node000001_Node000013"><a xlink:title=" ">
<path fill="none" stroke="#63b8ff" d="M793.22,-109.98C819.36,-101.16 860.4,-87.31 889.73,-77.41"/>
<polygon fill="#63b8ff" stroke="#63b8ff" points="891.22,-80.6 899.58,-74.08 888.98,-73.96 891.22,-80.6"/>
</a>
</g>
</g>
<!-- Node14 -->
<g id="Node000014" class="node">
<title>Node14</title>
<g id="a_Node000014"><a xlink:title=" ">
<polygon fill="#e0e0e0" stroke="#999999" points="1109,-74 987,-74 987,-55 1109,-55 1109,-74"/>
<text text-anchor="middle" x="1048" y="-62" font-family="Helvetica,sans-Serif" font-size="10.00">vtkPolyDataMapper.h</text>
</a>
</g>
</g>
<!-- Node1&#45;&gt;Node14 -->
<g id="edge13_Node000001_Node000014" class="edge">
<title>Node1&#45;&gt;Node14</title>
<g id="a_edge13_Node000001_Node000014"><a xlink:title=" ">
<path fill="none" stroke="#63b8ff" d="M812.99,-109.98C861.93,-100.72 940.2,-85.9 992.82,-75.94"/>
<polygon fill="#63b8ff" stroke="#63b8ff" points="993.49,-79.38 1002.66,-74.08 992.18,-72.5 993.49,-79.38"/>
</a>
</g>
</g>
<!-- Node15 -->
<g id="Node000015" class="node">
<title>Node15</title>
<g id="a_Node000015"><a xlink:title=" ">
<polygon fill="#e0e0e0" stroke="#999999" points="1208.5,-74 1127.5,-74 1127.5,-55 1208.5,-55 1208.5,-74"/>
<text text-anchor="middle" x="1168" y="-62" font-family="Helvetica,sans-Serif" font-size="10.00">vtkProperty.h</text>
</a>
</g>
</g>
<!-- Node1&#45;&gt;Node15 -->
<g id="edge14_Node000001_Node000015" class="edge">
<title>Node1&#45;&gt;Node15</title>
<g id="a_edge14_Node000001_Node000015"><a xlink:title=" ">
<path fill="none" stroke="#63b8ff" d="M842.21,-109.98C910.85,-101.89 1015.99,-88.97 1117.26,-74.05"/>
<polygon fill="#63b8ff" stroke="#63b8ff" points="1117.98,-77.48 1127.36,-72.55 1116.96,-70.56 1117.98,-77.48"/>
</a>
</g>
</g>
<!-- Node16 -->
<g id="Node000016" class="node">
<title>Node16</title>
<g id="a_Node000016"><a xlink:title=" ">
<polygon fill="#e0e0e0" stroke="#999999" points="1289,-74 1227,-74 1227,-55 1289,-55 1289,-74"/>
<text text-anchor="middle" x="1258" y="-62" font-family="Helvetica,sans-Serif" font-size="10.00">vtkNew.h</text>
</a>
</g>
</g>
<!-- Node1&#45;&gt;Node16 -->
<g id="edge15_Node000001_Node000016" class="edge">
<title>Node1&#45;&gt;Node16</title>
<g id="a_edge15_Node000001_Node000016"><a xlink:title=" ">
<path fill="none" stroke="#63b8ff" d="M844.36,-113.54C931.95,-107.27 1080.03,-94.88 1216.4,-74.09"/>
<polygon fill="#63b8ff" stroke="#63b8ff" points="1217.27,-77.5 1226.62,-72.51 1216.2,-70.58 1217.27,-77.5"/>
</a>
</g>
</g>
<!-- Node17 -->
<g id="Node000017" class="node">
<title>Node17</title>
<g id="a_Node000017"><a xlink:title=" ">
<polygon fill="#e0e0e0" stroke="#999999" points="1369,-74 1307,-74 1307,-55 1369,-55 1369,-74"/>
<text text-anchor="middle" x="1338" y="-62" font-family="Helvetica,sans-Serif" font-size="10.00">vtkLine.h</text>
</a>
</g>
</g>
<!-- Node1&#45;&gt;Node17 -->
<g id="edge16_Node000001_Node000017" class="edge">
<title>Node1&#45;&gt;Node17</title>
<g id="a_edge16_Node000001_Node000017"><a xlink:title=" ">
<path fill="none" stroke="#63b8ff" d="M844.26,-115.11C945.53,-109.94 1130.07,-98.17 1296.69,-74.01"/>
<polygon fill="#63b8ff" stroke="#63b8ff" points="1297.24,-77.47 1306.62,-72.56 1296.22,-70.55 1297.24,-77.47"/>
</a>
</g>
</g>
<!-- Node3 -->
<g id="Node000003" class="node">
<title>Node3</title>
<g id="a_Node000003"><a xlink:title=" ">
<polygon fill="#e0e0e0" stroke="#999999" points="104,-19 0,-19 0,0 104,0 104,-19"/>
<text text-anchor="middle" x="52" y="-7" font-family="Helvetica,sans-Serif" font-size="10.00">vtkSmartPointer.h</text>
</a>
</g>
</g>
<!-- Node2&#45;&gt;Node3 -->
<g id="edge2_Node000002_Node000003" class="edge">
<title>Node2&#45;&gt;Node3</title>
<g id="a_edge2_Node000002_Node000003"><a xlink:title=" ">
<path fill="none" stroke="#63b8ff" d="M186.29,-54.98C159.55,-46.13 117.47,-32.19 87.55,-22.28"/>
<polygon fill="#63b8ff" stroke="#63b8ff" points="88.5,-18.9 77.91,-19.08 86.3,-25.55 88.5,-18.9"/>
</a>
</g>
</g>
<!-- Node4 -->
<g id="Node000004" class="node">
<title>Node4</title>
<g id="a_Node000004"><a xlink:title=" ">
<polygon fill="#e0e0e0" stroke="#999999" points="207.5,-19 122.5,-19 122.5,0 207.5,0 207.5,-19"/>
<text text-anchor="middle" x="165" y="-7" font-family="Helvetica,sans-Serif" font-size="10.00">vtkRenderer.h</text>
</a>
</g>
</g>
<!-- Node2&#45;&gt;Node4 -->
<g id="edge3_Node000002_Node000004" class="edge">
<title>Node2&#45;&gt;Node4</title>
<g id="a_edge3_Node000002_Node000004"><a xlink:title=" ">
<path fill="none" stroke="#63b8ff" d="M204.24,-54.75C197.53,-47.18 187.66,-36.05 179.49,-26.84"/>
<polygon fill="#63b8ff" stroke="#63b8ff" points="181.87,-24.25 172.62,-19.09 176.63,-28.89 181.87,-24.25"/>
</a>
</g>
</g>
<!-- Node5 -->
<g id="Node000005" class="node">
<title>Node5</title>
<g id="a_Node000005"><a xlink:title=" ">
<polygon fill="#e0e0e0" stroke="#999999" points="292,-19 226,-19 226,0 292,0 292,-19"/>
<text text-anchor="middle" x="259" y="-7" font-family="Helvetica,sans-Serif" font-size="10.00">vtkActor.h</text>
</a>
</g>
</g>
<!-- Node2&#45;&gt;Node5 -->
<g id="edge4_Node000002_Node000005" class="edge">
<title>Node2&#45;&gt;Node5</title>
<g id="a_edge4_Node000002_Node000005"><a xlink:title=" ">
<path fill="none" stroke="#63b8ff" d="M219.76,-54.75C226.47,-47.18 236.34,-36.05 244.51,-26.84"/>
<polygon fill="#63b8ff" stroke="#63b8ff" points="247.37,-28.89 251.38,-19.09 242.13,-24.25 247.37,-28.89"/>
</a>
</g>
</g>
<!-- Node6 -->
<g id="Node000006" class="node">
<title>Node6</title>
<g id="a_Node000006"><a xlink:title=" ">
<polygon fill="#e0e0e0" stroke="#999999" points="357.5,-19 310.5,-19 310.5,0 357.5,0 357.5,-19"/>
<text text-anchor="middle" x="334" y="-7" font-family="Helvetica,sans-Serif" font-size="10.00">vector</text>
</a>
</g>
</g>
<!-- Node2&#45;&gt;Node6 -->
<g id="edge5_Node000002_Node000006" class="edge">
<title>Node2&#45;&gt;Node6</title>
<g id="a_edge5_Node000002_Node000006"><a xlink:title=" ">
<path fill="none" stroke="#63b8ff" d="M231.6,-54.98C251.32,-46.42 281.95,-33.11 304.58,-23.28"/>
<polygon fill="#63b8ff" stroke="#63b8ff" points="306.26,-26.37 314.04,-19.17 303.48,-19.94 306.26,-26.37"/>
</a>
</g>
</g>
</g>
</svg>

<g id="navigator" transform="translate(0 0)" fill="#404254">
  <rect fill="#f2f5e9" fill-opacity="0.5" stroke="#606060" stroke-width=".5" x="0" y="0" width="60" height="60"/>
  <use id="zoomplus" xlink:href="#zoomPlus" x="17" y="9" onmousedown="handleZoom(evt,'in')"/>
  <use id="zoomminus" xlink:href="#zoomMin" x="42" y="9" onmousedown="handleZoom(evt,'out')"/>
  <use id="reset" xlink:href="#resetDef" x="30" y="36" onmousedown="handleReset()"/>
   <use id="arrowup" xlink:href="#arrowUp" x="0" y="0" onmousedown="handlePan(0,-1)"/>
  <use id="arrowright" xlink:href="#arrowRight" x="0" y="0" onmousedown="handlePan(1,0)"/>
  <use id="arrowdown" xlink:href="#arrowDown" x="0" y="0" onmousedown="handlePan(0,1)"/>
  <use id="arrowleft" xlink:href="#arrowLeft" x="0" y="0" onmousedown="handlePan(-1,0)"/>
</g>
<svg viewBox="0 0 15 15" width="100%" height="30px" preserveAspectRatio="xMaxYMin meet">
 <g id="arrow_out" transform="scale(0.3 0.3)">
  <a xlink:href="PeptideBondOverlay_8cpp__incl_org.svg" target="_base">
   <rect id="button" ry="5" rx="5" y="6" x="6" height="38" width="38"
        fill="#f2f5e9" fill-opacity="0.5" stroke="#606060" stroke-width="1.0"/>
   <path id="arrow"
     d="M 11.500037,31.436501 C 11.940474,20.09759 22.043105,11.32322 32.158766,21.979434 L 37.068811,17.246167 C 37.068811,17.246167 37.088388,32 37.088388,32 L 22.160133,31.978069 C 22.160133,31.978069 26.997745,27.140456 26.997745,27.140456 C 18.528582,18.264221 13.291696,25.230495 11.500037,31.436501 z"
     style="fill:#404040;"/>
  </a>
 </g>
</svg>

<style type='text/css'>
<![CDATA[
[data-mouse-over-selected='false'] { opacity: 0.7; }
[data-mouse-over-selected='true']  { opacity: 1.0; }
]]>
</style>
<script type="application/ecmascript"><![CDATA[
document.addEventListener('DOMContentLoaded', (event) => {
  highlightEdges();
  highlightAdjacentNodes();
});
]]></script>
</svg>
