<?xml version="1.0" encoding="UTF-8" standalone="no"?>
<!DOCTYPE svg PUBLIC "-//W3C//DTD SVG 1.1//EN"
 "http://www.w3.org/Graphics/SVG/1.1/DTD/svg11.dtd">
<!-- Generated by graphviz version 2.43.0 (0)
 -->
<!-- Title: src/RestServer.cpp Pages: 1 -->
<!--zoomable 192 -->

<svg id="main" version="1.1" xmlns="http://www.w3.org/2000/svg" xmlns:xlink="http://www.w3.org/1999/xlink" xml:space="preserve" onload="init(evt)">
<style type="text/css"><![CDATA[
.node, .edge {opacity: 0.7;}
.node.selected, .edge.selected {opacity: 1;}
.edge:hover path { stroke: red; }
.edge:hover polygon { stroke: red; fill: red; }
]]></style>

<defs>
  <circle id="rim" cx="0" cy="0" r="7"/>
  <circle id="rim2" cx="0" cy="0" r="3.5"/>
  <g id="zoomPlus">
    <use xlink:href="#rim" fill="#404040"><set attributeName="fill" to="#808080" begin="zoomplus.mouseover" end="zoomplus.mouseout"/></use>
    <path d="M-4,0h8M0,-4v8" fill="none" stroke="white" stroke-width="1.5" pointer-events="none"/>
  </g>
  <g id="zoomMin">
    <use xlink:href="#rim" fill="#404040"><set attributeName="fill" to="#808080" begin="zoomminus.mouseover" end="zoomminus.mouseout"/></use>
    <path d="M-4,0h8" fill="none" stroke="white" stroke-width="1.5" pointer-events="none"/>
  </g>
  <g id="arrowUp" transform="translate(30 24)">
    <use xlink:href="#rim"/>
    <path pointer-events="none" fill="none" stroke="white" stroke-width="1.5" d="M0,-3.0v7 M-2.5,-0.5L0,-3.0L2.5,-0.5"/>
  </g>
  <g id="arrowRight" transform="rotate(90) translate(36 -43)">
    <use xlink:href="#rim"/>
    <path pointer-events="none" fill="none" stroke="white" stroke-width="1.5" d="M0,-3.0v7 M-2.5,-0.5L0,-3.0L2.5,-0.5"/>
  </g>
  <g id="arrowDown" transform="rotate(180) translate(-30 -48)">
    <use xlink:href="#rim"/>
    <path pointer-events="none" fill="none" stroke="white" stroke-width="1.5" d="M0,-3.0v7 M-2.5,-0.5L0,-3.0L2.5,-0.5"/>
  </g>
  <g id="arrowLeft" transform="rotate(270) translate(-36 17)">
    <use xlink:href="#rim"/>
    <path pointer-events="none" fill="none" stroke="white" stroke-width="1.5" d="M0,-3.0v7 M-2.5,-0.5L0,-3.0L2.5,-0.5"/>
  </g>
  <g id="resetDef">
    <use xlink:href="#rim2" fill="#404040"><set attributeName="fill" to="#808080" begin="reset.mouseover" end="reset.mouseout"/></use>
  </g>
</defs>
<script type="application/ecmascript">
var viewWidth = 3800;
var viewHeight = 192;
var sectionId = 'dynsection-0';
</script>
<script type="application/ecmascript" xlink:href="svg.min.js"/>
<svg id="graph" class="graph">
<g id="viewport">
<title>src/RestServer.cpp</title>
<!-- Node1 -->
<g id="Node000001" class="node">
<title>Node1</title>
<g id="a_Node000001"><a xlink:title=" ">
<polygon fill="#999999" stroke="#666666" points="2421.5,-184 2314.5,-184 2314.5,-165 2421.5,-165 2421.5,-184"/>
<text text-anchor="middle" x="2368" y="-172" font-family="Helvetica,sans-Serif" font-size="10.00">src/RestServer.cpp</text>
</a>
</g>
</g>
<!-- Node2 -->
<g id="Node000002" class="node">
<title>Node2</title>
<g id="a_Node000002"><a xlink:href="RestServer_8h.html" target="_top" xlink:title=" ">
<polygon fill="white" stroke="#666666" points="1394,-129 1316,-129 1316,-110 1394,-110 1394,-129"/>
<text text-anchor="middle" x="1355" y="-117" font-family="Helvetica,sans-Serif" font-size="10.00">RestServer.h</text>
</a>
</g>
</g>
<!-- Node1&#45;&gt;Node2 -->
<g id="edge1_Node000001_Node000002" class="edge">
<title>Node1&#45;&gt;Node2</title>
<g id="a_edge1_Node000001_Node000002"><a xlink:title=" ">
<path fill="none" stroke="#63b8ff" d="M2314.46,-173.45C2169.44,-172.81 1756.83,-167.54 1404.38,-128.99"/>
<polygon fill="#63b8ff" stroke="#63b8ff" points="1404.56,-125.49 1394.23,-127.87 1403.79,-132.45 1404.56,-125.49"/>
</a>
</g>
</g>
<!-- Node7 -->
<g id="Node000007" class="node">
<title>Node7</title>
<g id="a_Node000007"><a xlink:href="MainWindow_8h.html" target="_top" xlink:title=" ">
<polygon fill="white" stroke="#666666" points="702,-129 614,-129 614,-110 702,-110 702,-129"/>
<text text-anchor="middle" x="658" y="-117" font-family="Helvetica,sans-Serif" font-size="10.00">MainWindow.h</text>
</a>
</g>
</g>
<!-- Node1&#45;&gt;Node7 -->
<g id="edge6_Node000001_Node000007" class="edge">
<title>Node1&#45;&gt;Node7</title>
<g id="a_edge6_Node000001_Node000007"><a xlink:title=" ">
<path fill="none" stroke="#63b8ff" d="M2314.47,-171.84C2059.47,-163.94 969.6,-130.16 712.49,-122.19"/>
<polygon fill="#63b8ff" stroke="#63b8ff" points="712.39,-118.68 702.29,-121.87 712.17,-125.68 712.39,-118.68"/>
</a>
</g>
</g>
<!-- Node21 -->
<g id="Node000021" class="node">
<title>Node21</title>
<g id="a_Node000021"><a xlink:title=" ">
<polygon fill="#e0e0e0" stroke="#999999" points="1200,-19 1136,-19 1136,0 1200,0 1200,-19"/>
<text text-anchor="middle" x="1168" y="-7" font-family="Helvetica,sans-Serif" font-size="10.00">JobSpec.h</text>
</a>
</g>
</g>
<!-- Node1&#45;&gt;Node21 -->
<g id="edge31_Node000001_Node000021" class="edge">
<title>Node1&#45;&gt;Node21</title>
<g id="a_edge31_Node000001_Node000021"><a xlink:title=" ">
<path fill="none" stroke="#63b8ff" d="M2314.16,-173.55C2108.92,-173.42 1382.44,-170.06 1288,-129 1274.94,-123.32 1212.39,-57.8 1183.14,-26.7"/>
<polygon fill="#63b8ff" stroke="#63b8ff" points="1185.55,-24.15 1176.16,-19.25 1180.44,-28.94 1185.55,-24.15"/>
</a>
</g>
</g>
<!-- Node22 -->
<g id="Node000022" class="node">
<title>Node22</title>
<g id="a_Node000022"><a xlink:title=" ">
<polygon fill="#e0e0e0" stroke="#999999" points="1275.5,-19 1222.5,-19 1222.5,0 1275.5,0 1275.5,-19"/>
<text text-anchor="middle" x="1249" y="-7" font-family="Helvetica,sans-Serif" font-size="10.00">Types.h</text>
</a>
</g>
</g>
<!-- Node1&#45;&gt;Node22 -->
<g id="edge29_Node000001_Node000022" class="edge">
<title>Node1&#45;&gt;Node22</title>
<g id="a_edge29_Node000001_Node000022"><a xlink:title=" ">
<path fill="none" stroke="#63b8ff" d="M2314.19,-172.76C2104.22,-169.69 1349.49,-156.76 1307,-129 1289.07,-117.28 1266.38,-59.44 1255.46,-29.12"/>
<polygon fill="#63b8ff" stroke="#63b8ff" points="1258.63,-27.59 1251.99,-19.33 1252.03,-29.92 1258.63,-27.59"/>
</a>
</g>
</g>
<!-- Node23 -->
<g id="Node000023" class="node">
<title>Node23</title>
<g id="a_Node000023"><a xlink:title=" ">
<polygon fill="#e0e0e0" stroke="#999999" points="1472,-129 1412,-129 1412,-110 1472,-110 1472,-129"/>
<text text-anchor="middle" x="1442" y="-117" font-family="Helvetica,sans-Serif" font-size="10.00">Protein.h</text>
</a>
</g>
</g>
<!-- Node1&#45;&gt;Node23 -->
<g id="edge23_Node000001_Node000023" class="edge">
<title>Node1&#45;&gt;Node23</title>
<g id="a_edge23_Node000001_Node000023"><a xlink:title=" ">
<path fill="none" stroke="#63b8ff" d="M2314.48,-173.87C2177.44,-174.17 1802.68,-170.86 1482.09,-128.9"/>
<polygon fill="#63b8ff" stroke="#63b8ff" points="1482.52,-125.43 1472.15,-127.58 1481.6,-132.37 1482.52,-125.43"/>
</a>
</g>
</g>
<!-- Node24 -->
<g id="Node000024" class="node">
<title>Node24</title>
<g id="a_Node000024"><a xlink:title=" ">
<polygon fill="#e0e0e0" stroke="#999999" points="1617.5,-129 1490.5,-129 1490.5,-110 1617.5,-110 1617.5,-129"/>
<text text-anchor="middle" x="1554" y="-117" font-family="Helvetica,sans-Serif" font-size="10.00">ProteinConformation.h</text>
</a>
</g>
</g>
<!-- Node1&#45;&gt;Node24 -->
<g id="edge24_Node000001_Node000024" class="edge">
<title>Node1&#45;&gt;Node24</title>
<g id="a_edge24_Node000001_Node000024"><a xlink:title=" ">
<path fill="none" stroke="#63b8ff" d="M2314.38,-171.35C2193.68,-166.27 1891.22,-152.26 1627.73,-129.11"/>
<polygon fill="#63b8ff" stroke="#63b8ff" points="1627.85,-125.6 1617.58,-128.21 1627.24,-132.58 1627.85,-125.6"/>
</a>
</g>
</g>
<!-- Node25 -->
<g id="Node000025" class="node">
<title>Node25</title>
<g id="a_Node000025"><a xlink:title=" ">
<polygon fill="#e0e0e0" stroke="#999999" points="1754.5,-129 1635.5,-129 1635.5,-110 1754.5,-110 1754.5,-129"/>
<text text-anchor="middle" x="1695" y="-117" font-family="Helvetica,sans-Serif" font-size="10.00">ConformationAtom.h</text>
</a>
</g>
</g>
<!-- Node1&#45;&gt;Node25 -->
<g id="edge25_Node000001_Node000025" class="edge">
<title>Node1&#45;&gt;Node25</title>
<g id="a_edge25_Node000001_Node000025"><a xlink:title=" ">
<path fill="none" stroke="#63b8ff" d="M2314.1,-170.46C2210,-164.39 1973.83,-149.63 1764.93,-129.15"/>
<polygon fill="#63b8ff" stroke="#63b8ff" points="1764.98,-125.63 1754.68,-128.14 1764.29,-132.6 1764.98,-125.63"/>
</a>
</g>
</g>
<!-- Node26 -->
<g id="Node000026" class="node">
<title>Node26</title>
<g id="a_Node000026"><a xlink:title=" ">
<polygon fill="#e0e0e0" stroke="#999999" points="1819.5,-129 1772.5,-129 1772.5,-110 1819.5,-110 1819.5,-129"/>
<text text-anchor="middle" x="1796" y="-117" font-family="Helvetica,sans-Serif" font-size="10.00">Ring.h</text>
</a>
</g>
</g>
<!-- Node1&#45;&gt;Node26 -->
<g id="edge26_Node000001_Node000026" class="edge">
<title>Node1&#45;&gt;Node26</title>
<g id="a_edge26_Node000001_Node000026"><a xlink:title=" ">
<path fill="none" stroke="#63b8ff" d="M2314.46,-172.09C2218.92,-168.91 2012.77,-159.1 1829.77,-128.81"/>
<polygon fill="#63b8ff" stroke="#63b8ff" points="1830.13,-125.32 1819.69,-127.11 1828.97,-132.22 1830.13,-125.32"/>
</a>
</g>
</g>
<!-- Node27 -->
<g id="Node000027" class="node">
<title>Node27</title>
<g id="a_Node000027"><a xlink:title=" ">
<polygon fill="#e0e0e0" stroke="#999999" points="1890,-129 1838,-129 1838,-110 1890,-110 1890,-129"/>
<text text-anchor="middle" x="1864" y="-117" font-family="Helvetica,sans-Serif" font-size="10.00">Atom.h</text>
</a>
</g>
</g>
<!-- Node1&#45;&gt;Node27 -->
<g id="edge27_Node000001_Node000027" class="edge">
<title>Node1&#45;&gt;Node27</title>
<g id="a_edge27_Node000001_Node000027"><a xlink:title=" ">
<path fill="none" stroke="#63b8ff" d="M2314.35,-170.8C2228.92,-165.96 2056.59,-154.08 1900.52,-128.82"/>
<polygon fill="#63b8ff" stroke="#63b8ff" points="1900.7,-125.31 1890.26,-127.14 1899.56,-132.21 1900.7,-125.31"/>
</a>
</g>
</g>
<!-- Node28 -->
<g id="Node000028" class="node">
<title>Node28</title>
<g id="a_Node000028"><a xlink:title=" ">
<polygon fill="#e0e0e0" stroke="#999999" points="1973.5,-129 1908.5,-129 1908.5,-110 1973.5,-110 1973.5,-129"/>
<text text-anchor="middle" x="1941" y="-117" font-family="Helvetica,sans-Serif" font-size="10.00">Residue.h</text>
</a>
</g>
</g>
<!-- Node1&#45;&gt;Node28 -->
<g id="edge28_Node000001_Node000028" class="edge">
<title>Node1&#45;&gt;Node28</title>
<g id="a_edge28_Node000001_Node000028"><a xlink:title=" ">
<path fill="none" stroke="#63b8ff" d="M2314.24,-168.73C2241.61,-161.98 2107.91,-148.41 1983.59,-128.96"/>
<polygon fill="#63b8ff" stroke="#63b8ff" points="1983.93,-125.47 1973.51,-127.36 1982.84,-132.38 1983.93,-125.47"/>
</a>
</g>
</g>
<!-- Node29 -->
<g id="Node000029" class="node">
<title>Node29</title>
<g id="a_Node000029"><a xlink:title=" ">
<polygon fill="#e0e0e0" stroke="#999999" points="2114.5,-129 1991.5,-129 1991.5,-110 2114.5,-110 2114.5,-129"/>
<text text-anchor="middle" x="2053" y="-117" font-family="Helvetica,sans-Serif" font-size="10.00">ConformationResult.h</text>
</a>
</g>
</g>
<!-- Node1&#45;&gt;Node29 -->
<g id="edge30_Node000001_Node000029" class="edge">
<title>Node1&#45;&gt;Node29</title>
<g id="a_edge30_Node000001_Node000029"><a xlink:title=" ">
<path fill="none" stroke="#63b8ff" d="M2317.39,-164.98C2261.9,-155.65 2172.91,-140.67 2113.71,-130.71"/>
<polygon fill="#63b8ff" stroke="#63b8ff" points="2114.19,-127.25 2103.75,-129.04 2113.03,-134.15 2114.19,-127.25"/>
</a>
</g>
</g>
<!-- Node30 -->
<g id="Node000030" class="node">
<title>Node30</title>
<g id="a_Node000030"><a xlink:href="FieldGridOverlay_8h.html" target="_top" xlink:title=" ">
<polygon fill="white" stroke="#666666" points="1152,-129 1046,-129 1046,-110 1152,-110 1152,-129"/>
<text text-anchor="middle" x="1099" y="-117" font-family="Helvetica,sans-Serif" font-size="10.00">FieldGridOverlay.h</text>
</a>
</g>
</g>
<!-- Node1&#45;&gt;Node30 -->
<g id="edge32_Node000001_Node000030" class="edge">
<title>Node1&#45;&gt;Node30</title>
<g id="a_edge32_Node000001_Node000030"><a xlink:title=" ">
<path fill="none" stroke="#63b8ff" d="M2314.36,-171.82C2151.9,-166.65 1650.95,-150.03 1236,-129 1211.85,-127.78 1185.31,-126.19 1162.08,-124.71"/>
<polygon fill="#63b8ff" stroke="#63b8ff" points="1162.21,-121.22 1152.01,-124.07 1161.76,-128.2 1162.21,-121.22"/>
</a>
</g>
</g>
<!-- Node32 -->
<g id="Node000032" class="node">
<title>Node32</title>
<g id="a_Node000032"><a xlink:title=" ">
<polygon fill="#e0e0e0" stroke="#999999" points="2201,-129 2133,-129 2133,-110 2201,-110 2201,-129"/>
<text text-anchor="middle" x="2167" y="-117" font-family="Helvetica,sans-Serif" font-size="10.00">filesystem</text>
</a>
</g>
</g>
<!-- Node1&#45;&gt;Node32 -->
<g id="edge38_Node000001_Node000032" class="edge">
<title>Node1&#45;&gt;Node32</title>
<g id="a_edge38_Node000001_Node000032"><a xlink:title=" ">
<path fill="none" stroke="#63b8ff" d="M2335.71,-164.98C2301.38,-155.93 2246.94,-141.58 2209.23,-131.64"/>
<polygon fill="#63b8ff" stroke="#63b8ff" points="2210.11,-128.25 2199.55,-129.08 2208.32,-135.02 2210.11,-128.25"/>
</a>
</g>
</g>
<!-- Node33 -->
<g id="Node000033" class="node">
<title>Node33</title>
<g id="a_Node000033"><a xlink:title=" ">
<polygon fill="#e0e0e0" stroke="#999999" points="2314.5,-129 2219.5,-129 2219.5,-110 2314.5,-110 2314.5,-129"/>
<text text-anchor="middle" x="2267" y="-117" font-family="Helvetica,sans-Serif" font-size="10.00">QJsonDocument</text>
</a>
</g>
</g>
<!-- Node1&#45;&gt;Node33 -->
<g id="edge39_Node000001_Node000033" class="edge">
<title>Node1&#45;&gt;Node33</title>
<g id="a_edge39_Node000001_Node000033"><a xlink:title=" ">
<path fill="none" stroke="#63b8ff" d="M2351.77,-164.98C2335.82,-156.61 2311.22,-143.7 2292.62,-133.95"/>
<polygon fill="#63b8ff" stroke="#63b8ff" points="2294,-130.72 2283.52,-129.17 2290.75,-136.92 2294,-130.72"/>
</a>
</g>
</g>
<!-- Node34 -->
<g id="Node000034" class="node">
<title>Node34</title>
<g id="a_Node000034"><a xlink:title=" ">
<polygon fill="#e0e0e0" stroke="#999999" points="2403.5,-129 2332.5,-129 2332.5,-110 2403.5,-110 2403.5,-129"/>
<text text-anchor="middle" x="2368" y="-117" font-family="Helvetica,sans-Serif" font-size="10.00">QJsonArray</text>
</a>
</g>
</g>
<!-- Node1&#45;&gt;Node34 -->
<g id="edge40_Node000001_Node000034" class="edge">
<title>Node1&#45;&gt;Node34</title>
<g id="a_edge40_Node000001_Node000034"><a xlink:title=" ">
<path fill="none" stroke="#63b8ff" d="M2368,-164.75C2368,-157.8 2368,-147.85 2368,-139.13"/>
<polygon fill="#63b8ff" stroke="#63b8ff" points="2371.5,-139.09 2368,-129.09 2364.5,-139.09 2371.5,-139.09"/>
</a>
</g>
</g>
<!-- Node35 -->
<g id="Node000035" class="node">
<title>Node35</title>
<g id="a_Node000035"><a xlink:title=" ">
<polygon fill="#e0e0e0" stroke="#999999" points="2492.5,-129 2421.5,-129 2421.5,-110 2492.5,-110 2492.5,-129"/>
<text text-anchor="middle" x="2457" y="-117" font-family="Helvetica,sans-Serif" font-size="10.00">QJsonValue</text>
</a>
</g>
</g>
<!-- Node1&#45;&gt;Node35 -->
<g id="edge41_Node000001_Node000035" class="edge">
<title>Node1&#45;&gt;Node35</title>
<g id="a_edge41_Node000001_Node000035"><a xlink:title=" ">
<path fill="none" stroke="#63b8ff" d="M2382.3,-164.98C2396.1,-156.77 2417.24,-144.18 2433.51,-134.49"/>
<polygon fill="#63b8ff" stroke="#63b8ff" points="2435.64,-137.29 2442.44,-129.17 2432.06,-131.28 2435.64,-137.29"/>
</a>
</g>
</g>
<!-- Node36 -->
<g id="Node000036" class="node">
<title>Node36</title>
<g id="a_Node000036"><a xlink:title=" ">
<polygon fill="#e0e0e0" stroke="#999999" points="2589.5,-129 2510.5,-129 2510.5,-110 2589.5,-110 2589.5,-129"/>
<text text-anchor="middle" x="2550" y="-117" font-family="Helvetica,sans-Serif" font-size="10.00">QApplication</text>
</a>
</g>
</g>
<!-- Node1&#45;&gt;Node36 -->
<g id="edge42_Node000001_Node000036" class="edge">
<title>Node1&#45;&gt;Node36</title>
<g id="a_edge42_Node000001_Node000036"><a xlink:title=" ">
<path fill="none" stroke="#63b8ff" d="M2397.24,-164.98C2428.06,-156.01 2476.78,-141.82 2510.89,-131.89"/>
<polygon fill="#63b8ff" stroke="#63b8ff" points="2511.91,-135.24 2520.53,-129.08 2509.95,-128.52 2511.91,-135.24"/>
</a>
</g>
</g>
<!-- Node37 -->
<g id="Node000037" class="node">
<title>Node37</title>
<g id="a_Node000037"><a xlink:title=" ">
<polygon fill="#e0e0e0" stroke="#999999" points="2684.5,-129 2607.5,-129 2607.5,-110 2684.5,-110 2684.5,-129"/>
<text text-anchor="middle" x="2646" y="-117" font-family="Helvetica,sans-Serif" font-size="10.00">QComboBox</text>
</a>
</g>
</g>
<!-- Node1&#45;&gt;Node37 -->
<g id="edge43_Node000001_Node000037" class="edge">
<title>Node1&#45;&gt;Node37</title>
<g id="a_edge43_Node000001_Node000037"><a xlink:title=" ">
<path fill="none" stroke="#63b8ff" d="M2412.67,-164.98C2463.17,-155.36 2545.14,-139.73 2597.27,-129.79"/>
<polygon fill="#63b8ff" stroke="#63b8ff" points="2598.11,-133.19 2607.27,-127.88 2596.8,-126.32 2598.11,-133.19"/>
</a>
</g>
</g>
<!-- Node38 -->
<g id="Node000038" class="node">
<title>Node38</title>
<g id="a_Node000038"><a xlink:title=" ">
<polygon fill="#e0e0e0" stroke="#999999" points="2775.5,-129 2702.5,-129 2702.5,-110 2775.5,-110 2775.5,-129"/>
<text text-anchor="middle" x="2739" y="-117" font-family="Helvetica,sans-Serif" font-size="10.00">QCheckBox</text>
</a>
</g>
</g>
<!-- Node1&#45;&gt;Node38 -->
<g id="edge44_Node000001_Node000038" class="edge">
<title>Node1&#45;&gt;Node38</title>
<g id="a_edge44_Node000001_Node000038"><a xlink:title=" ">
<path fill="none" stroke="#63b8ff" d="M2421.77,-167.01C2484.42,-159.27 2591.27,-145.46 2692.14,-129.24"/>
<polygon fill="#63b8ff" stroke="#63b8ff" points="2692.88,-132.67 2702.19,-127.61 2691.76,-125.76 2692.88,-132.67"/>
</a>
</g>
</g>
<!-- Node39 -->
<g id="Node000039" class="node">
<title>Node39</title>
<g id="a_Node000039"><a xlink:title=" ">
<polygon fill="#e0e0e0" stroke="#999999" points="2846,-129 2794,-129 2794,-110 2846,-110 2846,-129"/>
<text text-anchor="middle" x="2820" y="-117" font-family="Helvetica,sans-Serif" font-size="10.00">QSlider</text>
</a>
</g>
</g>
<!-- Node1&#45;&gt;Node39 -->
<g id="edge45_Node000001_Node000039" class="edge">
<title>Node1&#45;&gt;Node39</title>
<g id="a_edge45_Node000001_Node000039"><a xlink:title=" ">
<path fill="none" stroke="#63b8ff" d="M2421.63,-170.05C2499.38,-164.55 2648.04,-152.15 2783.56,-129.04"/>
<polygon fill="#63b8ff" stroke="#63b8ff" points="2784.45,-132.43 2793.7,-127.28 2783.25,-125.54 2784.45,-132.43"/>
</a>
</g>
</g>
<!-- Node40 -->
<g id="Node000040" class="node">
<title>Node40</title>
<g id="a_Node000040"><a xlink:title=" ">
<polygon fill="#e0e0e0" stroke="#999999" points="2962,-129 2864,-129 2864,-110 2962,-110 2962,-129"/>
<text text-anchor="middle" x="2913" y="-117" font-family="Helvetica,sans-Serif" font-size="10.00">QDoubleSpinBox</text>
</a>
</g>
</g>
<!-- Node1&#45;&gt;Node40 -->
<g id="edge46_Node000001_Node000040" class="edge">
<title>Node1&#45;&gt;Node40</title>
<g id="a_edge46_Node000001_Node000040"><a xlink:title=" ">
<path fill="none" stroke="#63b8ff" d="M2421.79,-169.55C2509.82,-162.87 2690.38,-148.28 2853.74,-129.09"/>
<polygon fill="#63b8ff" stroke="#63b8ff" points="2854.46,-132.53 2863.98,-127.88 2853.64,-125.58 2854.46,-132.53"/>
</a>
</g>
</g>
<!-- Node41 -->
<g id="Node000041" class="node">
<title>Node41</title>
<g id="a_Node000041"><a xlink:title=" ">
<polygon fill="#e0e0e0" stroke="#999999" points="3067.5,-129 2980.5,-129 2980.5,-110 3067.5,-110 3067.5,-129"/>
<text text-anchor="middle" x="3024" y="-117" font-family="Helvetica,sans-Serif" font-size="10.00">QPlainTextEdit</text>
</a>
</g>
</g>
<!-- Node1&#45;&gt;Node41 -->
<g id="edge47_Node000001_Node000041" class="edge">
<title>Node1&#45;&gt;Node41</title>
<g id="a_edge47_Node000001_Node000041"><a xlink:title=" ">
<path fill="none" stroke="#63b8ff" d="M2421.79,-171.07C2525.66,-166.05 2761.24,-153.04 2970.13,-128.99"/>
<polygon fill="#63b8ff" stroke="#63b8ff" points="2970.84,-132.43 2980.37,-127.8 2970.03,-125.48 2970.84,-132.43"/>
</a>
</g>
</g>
<!-- Node42 -->
<g id="Node000042" class="node">
<title>Node42</title>
<g id="a_Node000042"><a xlink:title=" ">
<polygon fill="#e0e0e0" stroke="#999999" points="3144,-129 3086,-129 3086,-110 3144,-110 3144,-129"/>
<text text-anchor="middle" x="3115" y="-117" font-family="Helvetica,sans-Serif" font-size="10.00">QThread</text>
</a>
</g>
</g>
<!-- Node1&#45;&gt;Node42 -->
<g id="edge48_Node000001_Node000042" class="edge">
<title>Node1&#45;&gt;Node42</title>
<g id="a_edge48_Node000001_Node000042"><a xlink:title=" ">
<path fill="none" stroke="#63b8ff" d="M2421.66,-173.01C2538.81,-171.31 2826.3,-163.78 3075.65,-128.96"/>
<polygon fill="#63b8ff" stroke="#63b8ff" points="3076.21,-132.42 3085.63,-127.55 3075.23,-125.48 3076.21,-132.42"/>
</a>
</g>
</g>
<!-- Node43 -->
<g id="Node000043" class="node">
<title>Node43</title>
<g id="a_Node000043"><a xlink:title=" ">
<polygon fill="#e0e0e0" stroke="#999999" points="3276,-129 3162,-129 3162,-110 3276,-110 3276,-129"/>
<text text-anchor="middle" x="3219" y="-117" font-family="Helvetica,sans-Serif" font-size="10.00">vtkRenderWindow.h</text>
</a>
</g>
</g>
<!-- Node1&#45;&gt;Node43 -->
<g id="edge49_Node000001_Node000043" class="edge">
<title>Node1&#45;&gt;Node43</title>
<g id="a_edge49_Node000001_Node000043"><a xlink:title=" ">
<path fill="none" stroke="#63b8ff" d="M2421.87,-171.77C2547.74,-167.45 2871.08,-154.7 3151.82,-129.04"/>
<polygon fill="#63b8ff" stroke="#63b8ff" points="3152.15,-132.52 3161.79,-128.12 3151.51,-125.55 3152.15,-132.52"/>
</a>
</g>
</g>
<!-- Node44 -->
<g id="Node000044" class="node">
<title>Node44</title>
<g id="a_Node000044"><a xlink:title=" ">
<polygon fill="#e0e0e0" stroke="#999999" points="3440,-129 3294,-129 3294,-110 3440,-110 3440,-129"/>
<text text-anchor="middle" x="3367" y="-117" font-family="Helvetica,sans-Serif" font-size="10.00">vtkWindowToImageFilter.h</text>
</a>
</g>
</g>
<!-- Node1&#45;&gt;Node44 -->
<g id="edge50_Node000001_Node000044" class="edge">
<title>Node1&#45;&gt;Node44</title>
<g id="a_edge50_Node000001_Node000044"><a xlink:title=" ">
<path fill="none" stroke="#63b8ff" d="M2421.55,-171.93C2561.41,-167.6 2949.34,-154.19 3283.34,-129.08"/>
<polygon fill="#63b8ff" stroke="#63b8ff" points="3283.99,-132.54 3293.7,-128.3 3283.46,-125.56 3283.99,-132.54"/>
</a>
</g>
</g>
<!-- Node45 -->
<g id="Node000045" class="node">
<title>Node45</title>
<g id="a_Node000045"><a xlink:title=" ">
<polygon fill="#e0e0e0" stroke="#999999" points="3550,-129 3458,-129 3458,-110 3550,-110 3550,-129"/>
<text text-anchor="middle" x="3504" y="-117" font-family="Helvetica,sans-Serif" font-size="10.00">vtkPNGWriter.h</text>
</a>
</g>
</g>
<!-- Node1&#45;&gt;Node45 -->
<g id="edge51_Node000001_Node000045" class="edge">
<title>Node1&#45;&gt;Node45</title>
<g id="a_edge51_Node000001_Node000045"><a xlink:title=" ">
<path fill="none" stroke="#63b8ff" d="M2421.57,-173.42C2578.05,-172.73 3048.06,-167.43 3447.81,-128.99"/>
<polygon fill="#63b8ff" stroke="#63b8ff" points="3448.22,-132.47 3457.83,-128.02 3447.54,-125.5 3448.22,-132.47"/>
</a>
</g>
</g>
<!-- Node46 -->
<g id="Node000046" class="node">
<title>Node46</title>
<g id="a_Node000046"><a xlink:title=" ">
<polygon fill="#e0e0e0" stroke="#999999" points="3648,-129 3568,-129 3568,-110 3648,-110 3648,-129"/>
<text text-anchor="middle" x="3608" y="-117" font-family="Helvetica,sans-Serif" font-size="10.00">vtkCamera.h</text>
</a>
</g>
</g>
<!-- Node1&#45;&gt;Node46 -->
<g id="edge52_Node000001_Node000046" class="edge">
<title>Node1&#45;&gt;Node46</title>
<g id="a_edge52_Node000001_Node000046"><a xlink:title=" ">
<path fill="none" stroke="#63b8ff" d="M2421.6,-174.06C2588.48,-175.25 3113.68,-174.89 3557.8,-128.96"/>
<polygon fill="#63b8ff" stroke="#63b8ff" points="3558.37,-132.42 3567.95,-127.9 3557.64,-125.46 3558.37,-132.42"/>
</a>
</g>
</g>
<!-- Node47 -->
<g id="Node000047" class="node">
<title>Node47</title>
<g id="a_Node000047"><a xlink:title=" ">
<polygon fill="#e0e0e0" stroke="#999999" points="3726,-129 3666,-129 3666,-110 3726,-110 3726,-129"/>
<text text-anchor="middle" x="3696" y="-117" font-family="Helvetica,sans-Serif" font-size="10.00">iostream</text>
</a>
</g>
</g>
<!-- Node1&#45;&gt;Node47 -->
<g id="edge53_Node000001_Node000047" class="edge">
<title>Node1&#45;&gt;Node47</title>
<g id="a_edge53_Node000001_Node000047"><a xlink:title=" ">
<path fill="none" stroke="#63b8ff" d="M2421.72,-172.94C2630.86,-170.54 3391.75,-159.94 3655.55,-128.89"/>
<polygon fill="#63b8ff" stroke="#63b8ff" points="3656.36,-132.31 3665.86,-127.63 3655.51,-125.37 3656.36,-132.31"/>
</a>
</g>
</g>
<!-- Node48 -->
<g id="Node000048" class="node">
<title>Node48</title>
<g id="a_Node000048"><a xlink:title=" ">
<polygon fill="#e0e0e0" stroke="#999999" points="3791.5,-129 3744.5,-129 3744.5,-110 3791.5,-110 3791.5,-129"/>
<text text-anchor="middle" x="3768" y="-117" font-family="Helvetica,sans-Serif" font-size="10.00">cmath</text>
</a>
</g>
</g>
<!-- Node1&#45;&gt;Node48 -->
<g id="edge54_Node000001_Node000048" class="edge">
<title>Node1&#45;&gt;Node48</title>
<g id="a_edge54_Node000001_Node000048"><a xlink:title=" ">
<path fill="none" stroke="#63b8ff" d="M2421.61,-173.33C2638.77,-172.38 3454.43,-166.45 3734.21,-128.67"/>
<polygon fill="#63b8ff" stroke="#63b8ff" points="3734.91,-132.11 3744.33,-127.26 3733.94,-125.18 3734.91,-132.11"/>
</a>
</g>
</g>
<!-- Node3 -->
<g id="Node000003" class="node">
<title>Node3</title>
<g id="a_Node000003"><a xlink:title=" ">
<polygon fill="#e0e0e0" stroke="#999999" points="1352,-19 1296,-19 1296,0 1352,0 1352,-19"/>
<text text-anchor="middle" x="1324" y="-7" font-family="Helvetica,sans-Serif" font-size="10.00">QObject</text>
</a>
</g>
</g>
<!-- Node2&#45;&gt;Node3 -->
<g id="edge2_Node000002_Node000003" class="edge">
<title>Node2&#45;&gt;Node3</title>
<g id="a_edge2_Node000002_Node000003"><a xlink:title=" ">
<path fill="none" stroke="#63b8ff" d="M1352.46,-109.66C1347.42,-92.09 1336.04,-52.45 1329.3,-28.95"/>
<polygon fill="#63b8ff" stroke="#63b8ff" points="1332.61,-27.8 1326.49,-19.16 1325.88,-29.74 1332.61,-27.8"/>
</a>
</g>
</g>
<!-- Node4 -->
<g id="Node000004" class="node">
<title>Node4</title>
<g id="a_Node000004"><a xlink:title=" ">
<polygon fill="#e0e0e0" stroke="#999999" points="1425.5,-74 1354.5,-74 1354.5,-55 1425.5,-55 1425.5,-74"/>
<text text-anchor="middle" x="1390" y="-62" font-family="Helvetica,sans-Serif" font-size="10.00">QTcpServer</text>
</a>
</g>
</g>
<!-- Node2&#45;&gt;Node4 -->
<g id="edge3_Node000002_Node000004" class="edge">
<title>Node2&#45;&gt;Node4</title>
<g id="a_edge3_Node000002_Node000004"><a xlink:title=" ">
<path fill="none" stroke="#63b8ff" d="M1360.78,-109.75C1365.62,-102.42 1372.68,-91.73 1378.64,-82.7"/>
<polygon fill="#63b8ff" stroke="#63b8ff" points="1381.74,-84.36 1384.33,-74.09 1375.9,-80.5 1381.74,-84.36"/>
</a>
</g>
</g>
<!-- Node5 -->
<g id="Node000005" class="node">
<title>Node5</title>
<g id="a_Node000005"><a xlink:title=" ">
<polygon fill="#e0e0e0" stroke="#999999" points="1516,-74 1444,-74 1444,-55 1516,-55 1516,-74"/>
<text text-anchor="middle" x="1480" y="-62" font-family="Helvetica,sans-Serif" font-size="10.00">QTcpSocket</text>
</a>
</g>
</g>
<!-- Node2&#45;&gt;Node5 -->
<g id="edge4_Node000002_Node000005" class="edge">
<title>Node2&#45;&gt;Node5</title>
<g id="a_edge4_Node000002_Node000005"><a xlink:title=" ">
<path fill="none" stroke="#63b8ff" d="M1375.08,-109.98C1395.37,-101.38 1426.96,-87.99 1450.17,-78.15"/>
<polygon fill="#63b8ff" stroke="#63b8ff" points="1451.71,-81.3 1459.55,-74.17 1448.98,-74.85 1451.71,-81.3"/>
</a>
</g>
</g>
<!-- Node6 -->
<g id="Node000006" class="node">
<title>Node6</title>
<g id="a_Node000006"><a xlink:title=" ">
<polygon fill="#e0e0e0" stroke="#999999" points="1610,-74 1534,-74 1534,-55 1610,-55 1610,-74"/>
<text text-anchor="middle" x="1572" y="-62" font-family="Helvetica,sans-Serif" font-size="10.00">QJsonObject</text>
</a>
</g>
</g>
<!-- Node2&#45;&gt;Node6 -->
<g id="edge5_Node000002_Node000006" class="edge">
<title>Node2&#45;&gt;Node6</title>
<g id="a_edge5_Node000002_Node000006"><a xlink:title=" ">
<path fill="none" stroke="#63b8ff" d="M1389.86,-109.98C1427.09,-100.89 1486.2,-86.46 1526.93,-76.51"/>
<polygon fill="#63b8ff" stroke="#63b8ff" points="1527.98,-79.85 1536.86,-74.08 1526.32,-73.05 1527.98,-79.85"/>
</a>
</g>
</g>
<!-- Node8 -->
<g id="Node000008" class="node">
<title>Node8</title>
<g id="a_Node000008"><a xlink:title=" ">
<polygon fill="#e0e0e0" stroke="#999999" points="369.5,-74 282.5,-74 282.5,-55 369.5,-55 369.5,-74"/>
<text text-anchor="middle" x="326" y="-62" font-family="Helvetica,sans-Serif" font-size="10.00">QMainWindow</text>
</a>
</g>
</g>
<!-- Node7&#45;&gt;Node8 -->
<g id="edge7_Node000007_Node000008" class="edge">
<title>Node7&#45;&gt;Node8</title>
<g id="a_edge7_Node000007_Node000008"><a xlink:title=" ">
<path fill="none" stroke="#63b8ff" d="M613.86,-111.55C560.67,-103.15 468.32,-88.54 379.65,-74.26"/>
<polygon fill="#63b8ff" stroke="#63b8ff" points="380.12,-70.79 369.69,-72.66 379.01,-77.7 380.12,-70.79"/>
</a>
</g>
</g>
<!-- Node9 -->
<g id="Node000009" class="node">
<title>Node9</title>
<g id="a_Node000009"><a xlink:title=" ">
<polygon fill="#e0e0e0" stroke="#999999" points="544.5,-74 387.5,-74 387.5,-55 544.5,-55 544.5,-74"/>
<text text-anchor="middle" x="466" y="-62" font-family="Helvetica,sans-Serif" font-size="10.00">QVTKOpenGLNativeWidget.h</text>
</a>
</g>
</g>
<!-- Node7&#45;&gt;Node9 -->
<g id="edge8_Node000007_Node000009" class="edge">
<title>Node7&#45;&gt;Node9</title>
<g id="a_edge8_Node000007_Node000009"><a xlink:title=" ">
<path fill="none" stroke="#63b8ff" d="M627.15,-109.98C594.5,-100.97 542.8,-86.7 506.8,-76.76"/>
<polygon fill="#63b8ff" stroke="#63b8ff" points="507.66,-73.37 497.09,-74.08 505.8,-80.12 507.66,-73.37"/>
</a>
</g>
</g>
<!-- Node10 -->
<g id="Node000010" class="node">
<title>Node10</title>
<g id="a_Node000010"><a xlink:title=" ">
<polygon fill="#e0e0e0" stroke="#999999" points="1100,-74 996,-74 996,-55 1100,-55 1100,-74"/>
<text text-anchor="middle" x="1048" y="-62" font-family="Helvetica,sans-Serif" font-size="10.00">vtkSmartPointer.h</text>
</a>
</g>
</g>
<!-- Node7&#45;&gt;Node10 -->
<g id="edge9_Node000007_Node000010" class="edge">
<title>Node7&#45;&gt;Node10</title>
<g id="a_edge9_Node000007_Node000010"><a xlink:title=" ">
<path fill="none" stroke="#63b8ff" d="M702.04,-112.55C763.09,-104.29 877.19,-88.83 985.76,-74.03"/>
<polygon fill="#63b8ff" stroke="#63b8ff" points="986.47,-77.47 995.91,-72.65 985.52,-70.53 986.47,-77.47"/>
</a>
</g>
</g>
<!-- Node11 -->
<g id="Node000011" class="node">
<title>Node11</title>
<g id="a_Node000011"><a xlink:title=" ">
<polygon fill="#e0e0e0" stroke="#999999" points="856.5,-74 771.5,-74 771.5,-55 856.5,-55 856.5,-74"/>
<text text-anchor="middle" x="814" y="-62" font-family="Helvetica,sans-Serif" font-size="10.00">vtkRenderer.h</text>
</a>
</g>
</g>
<!-- Node7&#45;&gt;Node11 -->
<g id="edge10_Node000007_Node000011" class="edge">
<title>Node7&#45;&gt;Node11</title>
<g id="a_edge10_Node000007_Node000011"><a xlink:title=" ">
<path fill="none" stroke="#63b8ff" d="M683.06,-109.98C709.03,-101.16 749.81,-87.31 778.96,-77.41"/>
<polygon fill="#63b8ff" stroke="#63b8ff" points="780.4,-80.61 788.74,-74.08 778.15,-73.99 780.4,-80.61"/>
</a>
</g>
</g>
<!-- Node12 -->
<g id="Node000012" class="node">
<title>Node12</title>
<g id="a_Node000012"><a xlink:title=" ">
<polygon fill="#e0e0e0" stroke="#999999" points="753,-74 563,-74 563,-55 753,-55 753,-74"/>
<text text-anchor="middle" x="658" y="-62" font-family="Helvetica,sans-Serif" font-size="10.00">vtkGenericOpenGLRenderWindow.h</text>
</a>
</g>
</g>
<!-- Node7&#45;&gt;Node12 -->
<g id="edge11_Node000007_Node000012" class="edge">
<title>Node7&#45;&gt;Node12</title>
<g id="a_edge11_Node000007_Node000012"><a xlink:title=" ">
<path fill="none" stroke="#63b8ff" d="M658,-109.75C658,-102.8 658,-92.85 658,-84.13"/>
<polygon fill="#63b8ff" stroke="#63b8ff" points="661.5,-84.09 658,-74.09 654.5,-84.09 661.5,-84.09"/>
</a>
</g>
</g>
<!-- Node13 -->
<g id="Node000013" class="node">
<title>Node13</title>
<g id="a_Node000013"><a xlink:title=" ">
<polygon fill="#e0e0e0" stroke="#999999" points="160,-74 0,-74 0,-55 160,-55 160,-74"/>
<text text-anchor="middle" x="80" y="-62" font-family="Helvetica,sans-Serif" font-size="10.00">vtkOpenGLMoleculeMapper.h</text>
</a>
</g>
</g>
<!-- Node7&#45;&gt;Node13 -->
<g id="edge12_Node000007_Node000013" class="edge">
<title>Node7&#45;&gt;Node13</title>
<g id="a_edge12_Node000007_Node000013"><a xlink:title=" ">
<path fill="none" stroke="#63b8ff" d="M613.83,-114.55C529.74,-107.01 340.6,-89.98 170.21,-74.11"/>
<polygon fill="#63b8ff" stroke="#63b8ff" points="170.33,-70.61 160.05,-73.16 169.68,-77.58 170.33,-70.61"/>
</a>
</g>
</g>
<!-- Node14 -->
<g id="Node000014" class="node">
<title>Node14</title>
<g id="a_Node000014"><a xlink:title=" ">
<polygon fill="#e0e0e0" stroke="#999999" points="264,-74 178,-74 178,-55 264,-55 264,-74"/>
<text text-anchor="middle" x="221" y="-62" font-family="Helvetica,sans-Serif" font-size="10.00">vtkMolecule.h</text>
</a>
</g>
</g>
<!-- Node7&#45;&gt;Node14 -->
<g id="edge13_Node000007_Node000014" class="edge">
<title>Node7&#45;&gt;Node14</title>
<g id="a_edge13_Node000007_Node000014"><a xlink:title=" ">
<path fill="none" stroke="#63b8ff" d="M613.74,-114.07C543.87,-106.92 403.48,-91.95 274.19,-74.11"/>
<polygon fill="#63b8ff" stroke="#63b8ff" points="274.49,-70.62 264.11,-72.71 273.53,-77.55 274.49,-70.62"/>
</a>
</g>
</g>
<!-- Node15 -->
<g id="Node000015" class="node">
<title>Node15</title>
<g id="a_Node000015"><a xlink:href="ComputeWorker_8h.html" target="_top" xlink:title=" ">
<polygon fill="white" stroke="#666666" points="977.5,-74 874.5,-74 874.5,-55 977.5,-55 977.5,-74"/>
<text text-anchor="middle" x="926" y="-62" font-family="Helvetica,sans-Serif" font-size="10.00">ComputeWorker.h</text>
</a>
</g>
</g>
<!-- Node7&#45;&gt;Node15 -->
<g id="edge14_Node000007_Node000015" class="edge">
<title>Node7&#45;&gt;Node15</title>
<g id="a_edge14_Node000007_Node000015"><a xlink:title=" ">
<path fill="none" stroke="#63b8ff" d="M701.06,-109.98C747.71,-100.76 822.2,-86.03 872.56,-76.07"/>
<polygon fill="#63b8ff" stroke="#63b8ff" points="873.47,-79.46 882.6,-74.08 872.11,-72.59 873.47,-79.46"/>
</a>
</g>
</g>
<!-- Node15&#45;&gt;Node3 -->
<g id="edge15_Node000015_Node000003" class="edge">
<title>Node15&#45;&gt;Node3</title>
<g id="a_edge15_Node000015_Node000003"><a xlink:title=" ">
<path fill="none" stroke="#63b8ff" d="M977.58,-56.25C980.76,-55.82 983.93,-55.4 987,-55 1118.85,-37.82 1152.84,-40.84 1284,-19 1284.59,-18.9 1285.19,-18.8 1285.79,-18.7"/>
<polygon fill="#63b8ff" stroke="#63b8ff" points="1286.47,-22.13 1295.65,-16.85 1285.18,-15.25 1286.47,-22.13"/>
</a>
</g>
</g>
<!-- Node16 -->
<g id="Node000016" class="node">
<title>Node16</title>
<g id="a_Node000016"><a xlink:title=" ">
<polygon fill="#e0e0e0" stroke="#999999" points="883.5,-19 812.5,-19 812.5,0 883.5,0 883.5,-19"/>
<text text-anchor="middle" x="848" y="-7" font-family="Helvetica,sans-Serif" font-size="10.00">QMetaType</text>
</a>
</g>
</g>
<!-- Node15&#45;&gt;Node16 -->
<g id="edge16_Node000015_Node000016" class="edge">
<title>Node15&#45;&gt;Node16</title>
<g id="a_edge16_Node000015_Node000016"><a xlink:title=" ">
<path fill="none" stroke="#63b8ff" d="M913.47,-54.98C901.6,-46.92 883.54,-34.65 869.39,-25.03"/>
<polygon fill="#63b8ff" stroke="#63b8ff" points="871,-21.9 860.76,-19.17 867.06,-27.69 871,-21.9"/>
</a>
</g>
</g>
<!-- Node17 -->
<g id="Node000017" class="node">
<title>Node17</title>
<g id="a_Node000017"><a xlink:title=" ">
<polygon fill="#e0e0e0" stroke="#999999" points="952,-19 902,-19 902,0 952,0 952,-19"/>
<text text-anchor="middle" x="927" y="-7" font-family="Helvetica,sans-Serif" font-size="10.00">atomic</text>
</a>
</g>
</g>
<!-- Node15&#45;&gt;Node17 -->
<g id="edge17_Node000015_Node000017" class="edge">
<title>Node15&#45;&gt;Node17</title>
<g id="a_edge17_Node000015_Node000017"><a xlink:title=" ">
<path fill="none" stroke="#63b8ff" d="M926.17,-54.75C926.3,-47.8 926.48,-37.85 926.65,-29.13"/>
<polygon fill="#63b8ff" stroke="#63b8ff" points="930.15,-29.15 926.84,-19.09 923.15,-29.02 930.15,-29.15"/>
</a>
</g>
</g>
<!-- Node18 -->
<g id="Node000018" class="node">
<title>Node18</title>
<g id="a_Node000018"><a xlink:title=" ">
<polygon fill="#e0e0e0" stroke="#999999" points="1109.5,-19 1062.5,-19 1062.5,0 1109.5,0 1109.5,-19"/>
<text text-anchor="middle" x="1086" y="-7" font-family="Helvetica,sans-Serif" font-size="10.00">vector</text>
</a>
</g>
</g>
<!-- Node15&#45;&gt;Node18 -->
<g id="edge18_Node000015_Node000018" class="edge">
<title>Node15&#45;&gt;Node18</title>
<g id="a_edge18_Node000015_Node000018"><a xlink:title=" ">
<path fill="none" stroke="#63b8ff" d="M951.71,-54.98C979.17,-45.89 1022.79,-31.44 1052.82,-21.49"/>
<polygon fill="#63b8ff" stroke="#63b8ff" points="1054.05,-24.77 1062.44,-18.3 1051.85,-18.13 1054.05,-24.77"/>
</a>
</g>
</g>
<!-- Node19 -->
<g id="Node000019" class="node">
<title>Node19</title>
<g id="a_Node000019"><a xlink:title=" ">
<polygon fill="#e0e0e0" stroke="#999999" points="1028,-19 970,-19 970,0 1028,0 1028,-19"/>
<text text-anchor="middle" x="999" y="-7" font-family="Helvetica,sans-Serif" font-size="10.00">memory</text>
</a>
</g>
</g>
<!-- Node15&#45;&gt;Node19 -->
<g id="edge19_Node000015_Node000019" class="edge">
<title>Node15&#45;&gt;Node19</title>
<g id="a_edge19_Node000015_Node000019"><a xlink:title=" ">
<path fill="none" stroke="#63b8ff" d="M937.73,-54.98C948.73,-47 965.42,-34.88 978.6,-25.31"/>
<polygon fill="#63b8ff" stroke="#63b8ff" points="981.02,-27.88 987.06,-19.17 976.91,-22.21 981.02,-27.88"/>
</a>
</g>
</g>
<!-- Node20 -->
<g id="Node000020" class="node">
<title>Node20</title>
<g id="a_Node000020"><a xlink:title=" ">
<polygon fill="#e0e0e0" stroke="#999999" points="794,-19 750,-19 750,0 794,0 794,-19"/>
<text text-anchor="middle" x="772" y="-7" font-family="Helvetica,sans-Serif" font-size="10.00">string</text>
</a>
</g>
</g>
<!-- Node15&#45;&gt;Node20 -->
<g id="edge20_Node000015_Node000020" class="edge">
<title>Node15&#45;&gt;Node20</title>
<g id="a_edge20_Node000015_Node000020"><a xlink:title=" ">
<path fill="none" stroke="#63b8ff" d="M901.26,-54.98C874.79,-45.88 832.72,-31.4 803.81,-21.45"/>
<polygon fill="#63b8ff" stroke="#63b8ff" points="804.78,-18.08 794.18,-18.13 802.5,-24.7 804.78,-18.08"/>
</a>
</g>
</g>
<!-- Node15&#45;&gt;Node21 -->
<g id="edge21_Node000015_Node000021" class="edge">
<title>Node15&#45;&gt;Node21</title>
<g id="a_edge21_Node000015_Node000021"><a xlink:title=" ">
<path fill="none" stroke="#63b8ff" d="M964.88,-54.98C1008.98,-45.33 1080.62,-29.64 1125.98,-19.7"/>
<polygon fill="#63b8ff" stroke="#63b8ff" points="1126.78,-23.11 1135.8,-17.55 1125.28,-16.27 1126.78,-23.11"/>
</a>
</g>
</g>
<!-- Node15&#45;&gt;Node22 -->
<g id="edge22_Node000015_Node000022" class="edge">
<title>Node15&#45;&gt;Node22</title>
<g id="a_edge22_Node000015_Node000022"><a xlink:title=" ">
<path fill="none" stroke="#63b8ff" d="M977.52,-56.24C1034.35,-48.04 1128.42,-33.89 1209,-19 1210.08,-18.8 1211.18,-18.59 1212.29,-18.38"/>
<polygon fill="#63b8ff" stroke="#63b8ff" points="1213.24,-21.76 1222.36,-16.37 1211.87,-14.9 1213.24,-21.76"/>
</a>
</g>
</g>
<!-- Node30&#45;&gt;Node10 -->
<g id="edge33_Node000030_Node000010" class="edge">
<title>Node30&#45;&gt;Node10</title>
<g id="a_edge33_Node000030_Node000010"><a xlink:title=" ">
<path fill="none" stroke="#63b8ff" d="M1090.58,-109.75C1083.23,-102.11 1072.37,-90.82 1063.46,-81.56"/>
<polygon fill="#63b8ff" stroke="#63b8ff" points="1065.72,-78.87 1056.26,-74.09 1060.68,-83.72 1065.72,-78.87"/>
</a>
</g>
</g>
<!-- Node30&#45;&gt;Node11 -->
<g id="edge34_Node000030_Node000011" class="edge">
<title>Node30&#45;&gt;Node11</title>
<g id="a_edge34_Node000030_Node000011"><a xlink:title=" ">
<path fill="none" stroke="#63b8ff" d="M1053.21,-109.98C1002.36,-100.53 920.4,-85.29 866.86,-75.33"/>
<polygon fill="#63b8ff" stroke="#63b8ff" points="867.35,-71.86 856.88,-73.47 866.07,-78.74 867.35,-71.86"/>
</a>
</g>
</g>
<!-- Node30&#45;&gt;Node15 -->
<g id="edge37_Node000030_Node000015" class="edge">
<title>Node30&#45;&gt;Node15</title>
<g id="a_edge37_Node000030_Node000015"><a xlink:title=" ">
<path fill="none" stroke="#63b8ff" d="M1071.2,-109.98C1042.03,-101.05 996,-86.94 963.6,-77.02"/>
<polygon fill="#63b8ff" stroke="#63b8ff" points="964.6,-73.66 954.01,-74.08 962.55,-80.36 964.6,-73.66"/>
</a>
</g>
</g>
<!-- Node30&#45;&gt;Node18 -->
<g id="edge36_Node000030_Node000018" class="edge">
<title>Node30&#45;&gt;Node18</title>
<g id="a_edge36_Node000030_Node000018"><a xlink:title=" ">
<path fill="none" stroke="#63b8ff" d="M1134.57,-109.93C1168.1,-100.03 1210.76,-81.62 1193,-55 1184.45,-42.18 1147.82,-28.77 1119.77,-20.06"/>
<polygon fill="#63b8ff" stroke="#63b8ff" points="1120.48,-16.62 1109.9,-17.08 1118.46,-23.32 1120.48,-16.62"/>
</a>
</g>
</g>
<!-- Node31 -->
<g id="Node000031" class="node">
<title>Node31</title>
<g id="a_Node000031"><a xlink:title=" ">
<polygon fill="#e0e0e0" stroke="#999999" points="1184,-74 1118,-74 1118,-55 1184,-55 1184,-74"/>
<text text-anchor="middle" x="1151" y="-62" font-family="Helvetica,sans-Serif" font-size="10.00">vtkActor.h</text>
</a>
</g>
</g>
<!-- Node30&#45;&gt;Node31 -->
<g id="edge35_Node000030_Node000031" class="edge">
<title>Node30&#45;&gt;Node31</title>
<g id="a_edge35_Node000030_Node000031"><a xlink:title=" ">
<path fill="none" stroke="#63b8ff" d="M1107.59,-109.75C1115.16,-102.03 1126.38,-90.6 1135.51,-81.28"/>
<polygon fill="#63b8ff" stroke="#63b8ff" points="1138.07,-83.68 1142.57,-74.09 1133.07,-78.78 1138.07,-83.68"/>
</a>
</g>
</g>
</g>
</svg>

<g id="navigator" transform="translate(0 0)" fill="#404254">
  <rect fill="#f2f5e9" fill-opacity="0.5" stroke="#606060" stroke-width=".5" x="0" y="0" width="60" height="60"/>
  <use id="zoomplus" xlink:href="#zoomPlus" x="17" y="9" onmousedown="handleZoom(evt,'in')"/>
  <use id="zoomminus" xlink:href="#zoomMin" x="42" y="9" onmousedown="handleZoom(evt,'out')"/>
  <use id="reset" xlink:href="#resetDef" x="30" y="36" onmousedown="handleReset()"/>
   <use id="arrowup" xlink:href="#arrowUp" x="0" y="0" onmousedown="handlePan(0,-1)"/>
  <use id="arrowright" xlink:href="#arrowRight" x="0" y="0" onmousedown="handlePan(1,0)"/>
  <use id="arrowdown" xlink:href="#arrowDown" x="0" y="0" onmousedown="handlePan(0,1)"/>
  <use id="arrowleft" xlink:href="#arrowLeft" x="0" y="0" onmousedown="handlePan(-1,0)"/>
</g>
<svg viewBox="0 0 15 15" width="100%" height="30px" preserveAspectRatio="xMaxYMin meet">
 <g id="arrow_out" transform="scale(0.3 0.3)">
  <a xlink:href="RestServer_8cpp__incl_org.svg" target="_base">
   <rect id="button" ry="5" rx="5" y="6" x="6" height="38" width="38"
        fill="#f2f5e9" fill-opacity="0.5" stroke="#606060" stroke-width="1.0"/>
   <path id="arrow"
     d="M 11.500037,31.436501 C 11.940474,20.09759 22.043105,11.32322 32.158766,21.979434 L 37.068811,17.246167 C 37.068811,17.246167 37.088388,32 37.088388,32 L 22.160133,31.978069 C 22.160133,31.978069 26.997745,27.140456 26.997745,27.140456 C 18.528582,18.264221 13.291696,25.230495 11.500037,31.436501 z"
     style="fill:#404040;"/>
  </a>
 </g>
</svg>

<style type='text/css'>
<![CDATA[
[data-mouse-over-selected='false'] { opacity: 0.7; }
[data-mouse-over-selected='true']  { opacity: 1.0; }
]]>
</style>
<script type="application/ecmascript"><![CDATA[
document.addEventListener('DOMContentLoaded', (event) => {
  highlightEdges();
  highlightAdjacentNodes();
});
]]></script>
</svg>
