<?xml version="1.0" encoding="UTF-8" standalone="no"?>
<!DOCTYPE svg PUBLIC "-//W3C//DTD SVG 1.1//EN"
 "http://www.w3.org/Graphics/SVG/1.1/DTD/svg11.dtd">
<!-- Generated by graphviz version 2.43.0 (0)
 -->
<!-- Title: src/RingCurrentOverlay.cpp Pages: 1 -->
<svg width="1837pt" height="137pt"
 viewBox="0.00 0.00 1836.50 137.00" xmlns="http://www.w3.org/2000/svg" xmlns:xlink="http://www.w3.org/1999/xlink">
<g id="graph0" class="graph" transform="scale(1 1) rotate(0) translate(4 133)">
<title>src/RingCurrentOverlay.cpp</title>
<!-- Node1 -->
<g id="Node000001" class="node">
<title>Node1</title>
<g id="a_Node000001"><a xlink:title=" ">
<polygon fill="#999999" stroke="#666666" points="1032.5,-129 883.5,-129 883.5,-110 1032.5,-110 1032.5,-129"/>
<text text-anchor="middle" x="958" y="-117" font-family="Helvetica,sans-Serif" font-size="10.00">src/RingCurrentOverlay.cpp</text>
</a>
</g>
</g>
<!-- Node2 -->
<g id="Node000002" class="node">
<title>Node2</title>
<g id="a_Node000002"><a xlink:href="RingCurrentOverlay_8h.html" target="_top" xlink:title=" ">
<polygon fill="white" stroke="#666666" points="272,-74 152,-74 152,-55 272,-55 272,-74"/>
<text text-anchor="middle" x="212" y="-62" font-family="Helvetica,sans-Serif" font-size="10.00">RingCurrentOverlay.h</text>
</a>
</g>
</g>
<!-- Node1&#45;&gt;Node2 -->
<g id="edge1_Node000001_Node000002" class="edge">
<title>Node1&#45;&gt;Node2</title>
<g id="a_edge1_Node000001_Node000002"><a xlink:title=" ">
<path fill="none" stroke="#63b8ff" d="M883.26,-114.98C760.19,-108.88 506.97,-95.03 282.19,-74.06"/>
<polygon fill="#63b8ff" stroke="#63b8ff" points="282.47,-70.57 272.19,-73.12 281.82,-77.54 282.47,-70.57"/>
</a>
</g>
</g>
<!-- Node7 -->
<g id="Node000007" class="node">
<title>Node7</title>
<g id="a_Node000007"><a xlink:title=" ">
<polygon fill="#e0e0e0" stroke="#999999" points="350,-74 290,-74 290,-55 350,-55 350,-74"/>
<text text-anchor="middle" x="320" y="-62" font-family="Helvetica,sans-Serif" font-size="10.00">Protein.h</text>
</a>
</g>
</g>
<!-- Node1&#45;&gt;Node7 -->
<g id="edge6_Node000001_Node000007" class="edge">
<title>Node1&#45;&gt;Node7</title>
<g id="a_edge6_Node000001_Node000007"><a xlink:title=" ">
<path fill="none" stroke="#63b8ff" d="M883.07,-116.17C769.46,-111.91 547.06,-100.71 360,-74 359.9,-73.99 359.8,-73.97 359.7,-73.96"/>
<polygon fill="#63b8ff" stroke="#63b8ff" points="360.5,-70.54 350.06,-72.34 359.35,-77.45 360.5,-70.54"/>
</a>
</g>
</g>
<!-- Node8 -->
<g id="Node000008" class="node">
<title>Node8</title>
<g id="a_Node000008"><a xlink:title=" ">
<polygon fill="#e0e0e0" stroke="#999999" points="495.5,-74 368.5,-74 368.5,-55 495.5,-55 495.5,-74"/>
<text text-anchor="middle" x="432" y="-62" font-family="Helvetica,sans-Serif" font-size="10.00">ProteinConformation.h</text>
</a>
</g>
</g>
<!-- Node1&#45;&gt;Node8 -->
<g id="edge7_Node000001_Node000008" class="edge">
<title>Node1&#45;&gt;Node8</title>
<g id="a_edge7_Node000001_Node000008"><a xlink:title=" ">
<path fill="none" stroke="#63b8ff" d="M883.41,-111.59C795.7,-103.37 645.43,-88.99 505.73,-74.06"/>
<polygon fill="#63b8ff" stroke="#63b8ff" points="506.01,-70.57 495.69,-72.98 505.26,-77.53 506.01,-70.57"/>
</a>
</g>
</g>
<!-- Node9 -->
<g id="Node000009" class="node">
<title>Node9</title>
<g id="a_Node000009"><a xlink:title=" ">
<polygon fill="#e0e0e0" stroke="#999999" points="560.5,-74 513.5,-74 513.5,-55 560.5,-55 560.5,-74"/>
<text text-anchor="middle" x="537" y="-62" font-family="Helvetica,sans-Serif" font-size="10.00">Ring.h</text>
</a>
</g>
</g>
<!-- Node1&#45;&gt;Node9 -->
<g id="edge8_Node000001_Node000009" class="edge">
<title>Node1&#45;&gt;Node9</title>
<g id="a_edge8_Node000001_Node000009"><a xlink:title=" ">
<path fill="none" stroke="#63b8ff" d="M883.16,-113C806.91,-106.69 685.14,-94.71 570.69,-73.87"/>
<polygon fill="#63b8ff" stroke="#63b8ff" points="571.18,-70.4 560.71,-72.02 569.9,-77.28 571.18,-70.4"/>
</a>
</g>
</g>
<!-- Node10 -->
<g id="Node000010" class="node">
<title>Node10</title>
<g id="a_Node000010"><a xlink:title=" ">
<polygon fill="#e0e0e0" stroke="#999999" points="643.5,-74 578.5,-74 578.5,-55 643.5,-55 643.5,-74"/>
<text text-anchor="middle" x="611" y="-62" font-family="Helvetica,sans-Serif" font-size="10.00">Residue.h</text>
</a>
</g>
</g>
<!-- Node1&#45;&gt;Node10 -->
<g id="edge9_Node000001_Node000010" class="edge">
<title>Node1&#45;&gt;Node10</title>
<g id="a_edge9_Node000001_Node000010"><a xlink:title=" ">
<path fill="none" stroke="#63b8ff" d="M892.39,-109.99C832.75,-102 742.08,-89.27 653.48,-73.99"/>
<polygon fill="#63b8ff" stroke="#63b8ff" points="653.98,-70.53 643.53,-72.27 652.78,-77.43 653.98,-70.53"/>
</a>
</g>
</g>
<!-- Node11 -->
<g id="Node000011" class="node">
<title>Node11</title>
<g id="a_Node000011"><a xlink:title=" ">
<polygon fill="#e0e0e0" stroke="#999999" points="732.5,-74 661.5,-74 661.5,-55 732.5,-55 732.5,-74"/>
<text text-anchor="middle" x="697" y="-62" font-family="Helvetica,sans-Serif" font-size="10.00">vtkPoints.h</text>
</a>
</g>
</g>
<!-- Node1&#45;&gt;Node11 -->
<g id="edge10_Node000001_Node000011" class="edge">
<title>Node1&#45;&gt;Node11</title>
<g id="a_edge10_Node000001_Node000011"><a xlink:title=" ">
<path fill="none" stroke="#63b8ff" d="M916.07,-109.98C868.58,-100.34 791.46,-84.68 742.53,-74.75"/>
<polygon fill="#63b8ff" stroke="#63b8ff" points="743.04,-71.28 732.54,-72.72 741.64,-78.14 743.04,-71.28"/>
</a>
</g>
</g>
<!-- Node12 -->
<g id="Node000012" class="node">
<title>Node12</title>
<g id="a_Node000012"><a xlink:title=" ">
<polygon fill="#e0e0e0" stroke="#999999" points="835.5,-74 750.5,-74 750.5,-55 835.5,-55 835.5,-74"/>
<text text-anchor="middle" x="793" y="-62" font-family="Helvetica,sans-Serif" font-size="10.00">vtkCellArray.h</text>
</a>
</g>
</g>
<!-- Node1&#45;&gt;Node12 -->
<g id="edge11_Node000001_Node000012" class="edge">
<title>Node1&#45;&gt;Node12</title>
<g id="a_edge11_Node000001_Node000012"><a xlink:title=" ">
<path fill="none" stroke="#63b8ff" d="M931.49,-109.98C903.79,-101.09 860.14,-87.07 829.26,-77.15"/>
<polygon fill="#63b8ff" stroke="#63b8ff" points="830.31,-73.81 819.72,-74.08 828.17,-80.47 830.31,-73.81"/>
</a>
</g>
</g>
<!-- Node13 -->
<g id="Node000013" class="node">
<title>Node13</title>
<g id="a_Node000013"><a xlink:title=" ">
<polygon fill="#e0e0e0" stroke="#999999" points="940,-74 854,-74 854,-55 940,-55 940,-74"/>
<text text-anchor="middle" x="897" y="-62" font-family="Helvetica,sans-Serif" font-size="10.00">vtkPolyData.h</text>
</a>
</g>
</g>
<!-- Node1&#45;&gt;Node13 -->
<g id="edge12_Node000001_Node000013" class="edge">
<title>Node1&#45;&gt;Node13</title>
<g id="a_edge12_Node000001_Node000013"><a xlink:title=" ">
<path fill="none" stroke="#63b8ff" d="M948.2,-109.98C939.18,-102.15 925.59,-90.34 914.68,-80.86"/>
<polygon fill="#63b8ff" stroke="#63b8ff" points="916.82,-78.09 906.98,-74.17 912.23,-83.37 916.82,-78.09"/>
</a>
</g>
</g>
<!-- Node14 -->
<g id="Node000014" class="node">
<title>Node14</title>
<g id="a_Node000014"><a xlink:title=" ">
<polygon fill="#e0e0e0" stroke="#999999" points="1080,-74 958,-74 958,-55 1080,-55 1080,-74"/>
<text text-anchor="middle" x="1019" y="-62" font-family="Helvetica,sans-Serif" font-size="10.00">vtkPolyDataMapper.h</text>
</a>
</g>
</g>
<!-- Node1&#45;&gt;Node14 -->
<g id="edge13_Node000001_Node000014" class="edge">
<title>Node1&#45;&gt;Node14</title>
<g id="a_edge13_Node000001_Node000014"><a xlink:title=" ">
<path fill="none" stroke="#63b8ff" d="M967.8,-109.98C976.82,-102.15 990.41,-90.34 1001.32,-80.86"/>
<polygon fill="#63b8ff" stroke="#63b8ff" points="1003.77,-83.37 1009.02,-74.17 999.18,-78.09 1003.77,-83.37"/>
</a>
</g>
</g>
<!-- Node15 -->
<g id="Node000015" class="node">
<title>Node15</title>
<g id="a_Node000015"><a xlink:title=" ">
<polygon fill="#e0e0e0" stroke="#999999" points="1179.5,-74 1098.5,-74 1098.5,-55 1179.5,-55 1179.5,-74"/>
<text text-anchor="middle" x="1139" y="-62" font-family="Helvetica,sans-Serif" font-size="10.00">vtkProperty.h</text>
</a>
</g>
</g>
<!-- Node1&#45;&gt;Node15 -->
<g id="edge14_Node000001_Node000015" class="edge">
<title>Node1&#45;&gt;Node15</title>
<g id="a_edge14_Node000001_Node000015"><a xlink:title=" ">
<path fill="none" stroke="#63b8ff" d="M987.08,-109.98C1017.6,-101.05 1065.76,-86.94 1099.66,-77.02"/>
<polygon fill="#63b8ff" stroke="#63b8ff" points="1101.08,-80.25 1109.69,-74.08 1099.11,-73.53 1101.08,-80.25"/>
</a>
</g>
</g>
<!-- Node16 -->
<g id="Node000016" class="node">
<title>Node16</title>
<g id="a_Node000016"><a xlink:title=" ">
<polygon fill="#e0e0e0" stroke="#999999" points="1260,-74 1198,-74 1198,-55 1260,-55 1260,-74"/>
<text text-anchor="middle" x="1229" y="-62" font-family="Helvetica,sans-Serif" font-size="10.00">vtkNew.h</text>
</a>
</g>
</g>
<!-- Node1&#45;&gt;Node16 -->
<g id="edge15_Node000001_Node000016" class="edge">
<title>Node1&#45;&gt;Node16</title>
<g id="a_edge15_Node000001_Node000016"><a xlink:title=" ">
<path fill="none" stroke="#63b8ff" d="M1003.63,-109.97C1048.17,-101.59 1118.12,-88.28 1187.75,-74.23"/>
<polygon fill="#63b8ff" stroke="#63b8ff" points="1188.46,-77.65 1197.57,-72.24 1187.07,-70.79 1188.46,-77.65"/>
</a>
</g>
</g>
<!-- Node17 -->
<g id="Node000017" class="node">
<title>Node17</title>
<g id="a_Node000017"><a xlink:title=" ">
<polygon fill="#e0e0e0" stroke="#999999" points="1358,-74 1278,-74 1278,-55 1358,-55 1358,-74"/>
<text text-anchor="middle" x="1318" y="-62" font-family="Helvetica,sans-Serif" font-size="10.00">vtkPolygon.h</text>
</a>
</g>
</g>
<!-- Node1&#45;&gt;Node17 -->
<g id="edge16_Node000001_Node000017" class="edge">
<title>Node1&#45;&gt;Node17</title>
<g id="a_edge16_Node000001_Node000017"><a xlink:title=" ">
<path fill="none" stroke="#63b8ff" d="M1021.52,-109.97C1082.22,-101.7 1176.56,-88.5 1267.93,-74.13"/>
<polygon fill="#63b8ff" stroke="#63b8ff" points="1268.57,-77.57 1277.9,-72.55 1267.48,-70.66 1268.57,-77.57"/>
</a>
</g>
</g>
<!-- Node18 -->
<g id="Node000018" class="node">
<title>Node18</title>
<g id="a_Node000018"><a xlink:title=" ">
<polygon fill="#e0e0e0" stroke="#999999" points="1466,-74 1376,-74 1376,-55 1466,-55 1466,-74"/>
<text text-anchor="middle" x="1421" y="-62" font-family="Helvetica,sans-Serif" font-size="10.00">vtkTransform.h</text>
</a>
</g>
</g>
<!-- Node1&#45;&gt;Node18 -->
<g id="edge17_Node000001_Node000018" class="edge">
<title>Node1&#45;&gt;Node18</title>
<g id="a_edge17_Node000001_Node000018"><a xlink:title=" ">
<path fill="none" stroke="#63b8ff" d="M1032.76,-111.45C1112.7,-103.66 1243.41,-90.23 1366,-74.08"/>
<polygon fill="#63b8ff" stroke="#63b8ff" points="1366.49,-77.54 1375.94,-72.76 1365.57,-70.6 1366.49,-77.54"/>
</a>
</g>
</g>
<!-- Node19 -->
<g id="Node000019" class="node">
<title>Node19</title>
<g id="a_Node000019"><a xlink:title=" ">
<polygon fill="#e0e0e0" stroke="#999999" points="1642,-74 1484,-74 1484,-55 1642,-55 1642,-74"/>
<text text-anchor="middle" x="1563" y="-62" font-family="Helvetica,sans-Serif" font-size="10.00">vtkTransformPolyDataFilter.h</text>
</a>
</g>
</g>
<!-- Node1&#45;&gt;Node19 -->
<g id="edge18_Node000001_Node000019" class="edge">
<title>Node1&#45;&gt;Node19</title>
<g id="a_edge18_Node000001_Node000019"><a xlink:title=" ">
<path fill="none" stroke="#63b8ff" d="M1032.51,-112.33C1130.94,-104.13 1310.02,-89.02 1473.6,-74.12"/>
<polygon fill="#63b8ff" stroke="#63b8ff" points="1474.21,-77.58 1483.85,-73.18 1473.57,-70.61 1474.21,-77.58"/>
</a>
</g>
</g>
<!-- Node20 -->
<g id="Node000020" class="node">
<title>Node20</title>
<g id="a_Node000020"><a xlink:title=" ">
<polygon fill="#e0e0e0" stroke="#999999" points="1763.5,-74 1660.5,-74 1660.5,-55 1763.5,-55 1763.5,-74"/>
<text text-anchor="middle" x="1712" y="-62" font-family="Helvetica,sans-Serif" font-size="10.00">vtkArrowSource.h</text>
</a>
</g>
</g>
<!-- Node1&#45;&gt;Node20 -->
<g id="edge19_Node000001_Node000020" class="edge">
<title>Node1&#45;&gt;Node20</title>
<g id="a_edge19_Node000001_Node000020"><a xlink:title=" ">
<path fill="none" stroke="#63b8ff" d="M1032.5,-115.53C1157.81,-110.15 1418.88,-97.2 1650.49,-73.97"/>
<polygon fill="#63b8ff" stroke="#63b8ff" points="1650.85,-77.45 1660.45,-72.96 1650.15,-70.48 1650.85,-77.45"/>
</a>
</g>
</g>
<!-- Node21 -->
<g id="Node000021" class="node">
<title>Node21</title>
<g id="a_Node000021"><a xlink:title=" ">
<polygon fill="#e0e0e0" stroke="#999999" points="1828.5,-74 1781.5,-74 1781.5,-55 1828.5,-55 1828.5,-74"/>
<text text-anchor="middle" x="1805" y="-62" font-family="Helvetica,sans-Serif" font-size="10.00">cmath</text>
</a>
</g>
</g>
<!-- Node1&#45;&gt;Node21 -->
<g id="edge20_Node000001_Node000021" class="edge">
<title>Node1&#45;&gt;Node21</title>
<g id="a_edge20_Node000001_Node000021"><a xlink:title=" ">
<path fill="none" stroke="#63b8ff" d="M1032.62,-116.38C1202.21,-111.26 1613.47,-97.02 1771.32,-73.9"/>
<polygon fill="#63b8ff" stroke="#63b8ff" points="1772,-77.33 1781.35,-72.36 1770.94,-70.42 1772,-77.33"/>
</a>
</g>
</g>
<!-- Node3 -->
<g id="Node000003" class="node">
<title>Node3</title>
<g id="a_Node000003"><a xlink:title=" ">
<polygon fill="#e0e0e0" stroke="#999999" points="104,-19 0,-19 0,0 104,0 104,-19"/>
<text text-anchor="middle" x="52" y="-7" font-family="Helvetica,sans-Serif" font-size="10.00">vtkSmartPointer.h</text>
</a>
</g>
</g>
<!-- Node2&#45;&gt;Node3 -->
<g id="edge2_Node000002_Node000003" class="edge">
<title>Node2&#45;&gt;Node3</title>
<g id="a_edge2_Node000002_Node000003"><a xlink:title=" ">
<path fill="none" stroke="#63b8ff" d="M186.29,-54.98C159.55,-46.13 117.47,-32.19 87.55,-22.28"/>
<polygon fill="#63b8ff" stroke="#63b8ff" points="88.5,-18.9 77.91,-19.08 86.3,-25.55 88.5,-18.9"/>
</a>
</g>
</g>
<!-- Node4 -->
<g id="Node000004" class="node">
<title>Node4</title>
<g id="a_Node000004"><a xlink:title=" ">
<polygon fill="#e0e0e0" stroke="#999999" points="207.5,-19 122.5,-19 122.5,0 207.5,0 207.5,-19"/>
<text text-anchor="middle" x="165" y="-7" font-family="Helvetica,sans-Serif" font-size="10.00">vtkRenderer.h</text>
</a>
</g>
</g>
<!-- Node2&#45;&gt;Node4 -->
<g id="edge3_Node000002_Node000004" class="edge">
<title>Node2&#45;&gt;Node4</title>
<g id="a_edge3_Node000002_Node000004"><a xlink:title=" ">
<path fill="none" stroke="#63b8ff" d="M204.24,-54.75C197.53,-47.18 187.66,-36.05 179.49,-26.84"/>
<polygon fill="#63b8ff" stroke="#63b8ff" points="181.87,-24.25 172.62,-19.09 176.63,-28.89 181.87,-24.25"/>
</a>
</g>
</g>
<!-- Node5 -->
<g id="Node000005" class="node">
<title>Node5</title>
<g id="a_Node000005"><a xlink:title=" ">
<polygon fill="#e0e0e0" stroke="#999999" points="292,-19 226,-19 226,0 292,0 292,-19"/>
<text text-anchor="middle" x="259" y="-7" font-family="Helvetica,sans-Serif" font-size="10.00">vtkActor.h</text>
</a>
</g>
</g>
<!-- Node2&#45;&gt;Node5 -->
<g id="edge4_Node000002_Node000005" class="edge">
<title>Node2&#45;&gt;Node5</title>
<g id="a_edge4_Node000002_Node000005"><a xlink:title=" ">
<path fill="none" stroke="#63b8ff" d="M219.76,-54.75C226.47,-47.18 236.34,-36.05 244.51,-26.84"/>
<polygon fill="#63b8ff" stroke="#63b8ff" points="247.37,-28.89 251.38,-19.09 242.13,-24.25 247.37,-28.89"/>
</a>
</g>
</g>
<!-- Node6 -->
<g id="Node000006" class="node">
<title>Node6</title>
<g id="a_Node000006"><a xlink:title=" ">
<polygon fill="#e0e0e0" stroke="#999999" points="357.5,-19 310.5,-19 310.5,0 357.5,0 357.5,-19"/>
<text text-anchor="middle" x="334" y="-7" font-family="Helvetica,sans-Serif" font-size="10.00">vector</text>
</a>
</g>
</g>
<!-- Node2&#45;&gt;Node6 -->
<g id="edge5_Node000002_Node000006" class="edge">
<title>Node2&#45;&gt;Node6</title>
<g id="a_edge5_Node000002_Node000006"><a xlink:title=" ">
<path fill="none" stroke="#63b8ff" d="M231.6,-54.98C251.32,-46.42 281.95,-33.11 304.58,-23.28"/>
<polygon fill="#63b8ff" stroke="#63b8ff" points="306.26,-26.37 314.04,-19.17 303.48,-19.94 306.26,-26.37"/>
</a>
</g>
</g>
</g>
</svg>
