<?xml version="1.0" encoding="UTF-8" standalone="no"?>
<!DOCTYPE svg PUBLIC "-//W3C//DTD SVG 1.1//EN"
 "http://www.w3.org/Graphics/SVG/1.1/DTD/svg11.dtd">
<!-- Generated by graphviz version 2.43.0 (0)
 -->
<!-- Title: src/TensorGlyph.cpp Pages: 1 -->
<svg width="1468pt" height="192pt"
 viewBox="0.00 0.00 1468.00 192.00" xmlns="http://www.w3.org/2000/svg" xmlns:xlink="http://www.w3.org/1999/xlink">
<g id="graph0" class="graph" transform="scale(1 1) rotate(0) translate(4 188)">
<title>src/TensorGlyph.cpp</title>
<!-- Node1 -->
<g id="Node000001" class="node">
<title>Node1</title>
<g id="a_Node000001"><a xlink:title=" ">
<polygon fill="#999999" stroke="#666666" points="972.5,-184 858.5,-184 858.5,-165 972.5,-165 972.5,-184"/>
<text text-anchor="middle" x="915.5" y="-172" font-family="Helvetica,sans-Serif" font-size="10.00">src/TensorGlyph.cpp</text>
</a>
</g>
</g>
<!-- Node2 -->
<g id="Node000002" class="node">
<title>Node2</title>
<g id="a_Node000002"><a xlink:href="TensorGlyph_8h.html" target="_top" xlink:title=" ">
<polygon fill="white" stroke="#666666" points="419.5,-129 333.5,-129 333.5,-110 419.5,-110 419.5,-129"/>
<text text-anchor="middle" x="376.5" y="-117" font-family="Helvetica,sans-Serif" font-size="10.00">TensorGlyph.h</text>
</a>
</g>
</g>
<!-- Node1&#45;&gt;Node2 -->
<g id="edge1_Node000001_Node000002" class="edge">
<title>Node1&#45;&gt;Node2</title>
<g id="a_edge1_Node000001_Node000002"><a xlink:title=" ">
<path fill="none" stroke="#63b8ff" d="M858.13,-169.51C767.08,-162.9 583.97,-148.44 429.5,-129 429.4,-128.99 429.3,-128.97 429.2,-128.96"/>
<polygon fill="#63b8ff" stroke="#63b8ff" points="429.94,-125.53 419.56,-127.66 429,-132.47 429.94,-125.53"/>
</a>
</g>
</g>
<!-- Node15 -->
<g id="Node000015" class="node">
<title>Node15</title>
<g id="a_Node000015"><a xlink:title=" ">
<polygon fill="#e0e0e0" stroke="#999999" points="509,-129 438,-129 438,-110 509,-110 509,-129"/>
<text text-anchor="middle" x="473.5" y="-117" font-family="Helvetica,sans-Serif" font-size="10.00">vtkPoints.h</text>
</a>
</g>
</g>
<!-- Node1&#45;&gt;Node15 -->
<g id="edge15_Node000001_Node000015" class="edge">
<title>Node1&#45;&gt;Node15</title>
<g id="a_edge15_Node000001_Node000015"><a xlink:title=" ">
<path fill="none" stroke="#63b8ff" d="M858.46,-168.46C783.15,-161.51 646.21,-147.83 519.22,-129"/>
<polygon fill="#63b8ff" stroke="#63b8ff" points="519.73,-125.54 509.32,-127.52 518.69,-132.46 519.73,-125.54"/>
</a>
</g>
</g>
<!-- Node16 -->
<g id="Node000016" class="node">
<title>Node16</title>
<g id="a_Node000016"><a xlink:title=" ">
<polygon fill="#e0e0e0" stroke="#999999" points="612,-129 527,-129 527,-110 612,-110 612,-129"/>
<text text-anchor="middle" x="569.5" y="-117" font-family="Helvetica,sans-Serif" font-size="10.00">vtkCellArray.h</text>
</a>
</g>
</g>
<!-- Node1&#45;&gt;Node16 -->
<g id="edge16_Node000001_Node000016" class="edge">
<title>Node1&#45;&gt;Node16</title>
<g id="a_edge16_Node000001_Node000016"><a xlink:title=" ">
<path fill="none" stroke="#63b8ff" d="M858.28,-165.04C801.16,-156.55 710.57,-142.97 622.01,-129.06"/>
<polygon fill="#63b8ff" stroke="#63b8ff" points="622.48,-125.6 612.06,-127.5 621.4,-132.51 622.48,-125.6"/>
</a>
</g>
</g>
<!-- Node17 -->
<g id="Node000017" class="node">
<title>Node17</title>
<g id="a_Node000017"><a xlink:title=" ">
<polygon fill="#e0e0e0" stroke="#999999" points="716.5,-129 630.5,-129 630.5,-110 716.5,-110 716.5,-129"/>
<text text-anchor="middle" x="673.5" y="-117" font-family="Helvetica,sans-Serif" font-size="10.00">vtkPolyData.h</text>
</a>
</g>
</g>
<!-- Node1&#45;&gt;Node17 -->
<g id="edge17_Node000001_Node000017" class="edge">
<title>Node1&#45;&gt;Node17</title>
<g id="a_edge17_Node000001_Node000017"><a xlink:title=" ">
<path fill="none" stroke="#63b8ff" d="M876.62,-164.98C834.76,-155.82 768.07,-141.21 722.62,-131.26"/>
<polygon fill="#63b8ff" stroke="#63b8ff" points="723.2,-127.8 712.69,-129.08 721.71,-134.64 723.2,-127.8"/>
</a>
</g>
</g>
<!-- Node18 -->
<g id="Node000018" class="node">
<title>Node18</title>
<g id="a_Node000018"><a xlink:title=" ">
<polygon fill="#e0e0e0" stroke="#999999" points="856.5,-129 734.5,-129 734.5,-110 856.5,-110 856.5,-129"/>
<text text-anchor="middle" x="795.5" y="-117" font-family="Helvetica,sans-Serif" font-size="10.00">vtkPolyDataMapper.h</text>
</a>
</g>
</g>
<!-- Node1&#45;&gt;Node18 -->
<g id="edge18_Node000001_Node000018" class="edge">
<title>Node1&#45;&gt;Node18</title>
<g id="a_edge18_Node000001_Node000018"><a xlink:title=" ">
<path fill="none" stroke="#63b8ff" d="M896.22,-164.98C876.83,-156.42 846.69,-143.11 824.43,-133.28"/>
<polygon fill="#63b8ff" stroke="#63b8ff" points="825.69,-130.01 815.13,-129.17 822.86,-136.41 825.69,-130.01"/>
</a>
</g>
</g>
<!-- Node19 -->
<g id="Node000019" class="node">
<title>Node19</title>
<g id="a_Node000019"><a xlink:title=" ">
<polygon fill="#e0e0e0" stroke="#999999" points="956,-129 875,-129 875,-110 956,-110 956,-129"/>
<text text-anchor="middle" x="915.5" y="-117" font-family="Helvetica,sans-Serif" font-size="10.00">vtkProperty.h</text>
</a>
</g>
</g>
<!-- Node1&#45;&gt;Node19 -->
<g id="edge19_Node000001_Node000019" class="edge">
<title>Node1&#45;&gt;Node19</title>
<g id="a_edge19_Node000001_Node000019"><a xlink:title=" ">
<path fill="none" stroke="#63b8ff" d="M915.5,-164.75C915.5,-157.8 915.5,-147.85 915.5,-139.13"/>
<polygon fill="#63b8ff" stroke="#63b8ff" points="919,-139.09 915.5,-129.09 912,-139.09 919,-139.09"/>
</a>
</g>
</g>
<!-- Node20 -->
<g id="Node000020" class="node">
<title>Node20</title>
<g id="a_Node000020"><a xlink:title=" ">
<polygon fill="#e0e0e0" stroke="#999999" points="1108.5,-129 974.5,-129 974.5,-110 1108.5,-110 1108.5,-129"/>
<text text-anchor="middle" x="1041.5" y="-117" font-family="Helvetica,sans-Serif" font-size="10.00">vtkUnsignedCharArray.h</text>
</a>
</g>
</g>
<!-- Node1&#45;&gt;Node20 -->
<g id="edge20_Node000001_Node000020" class="edge">
<title>Node1&#45;&gt;Node20</title>
<g id="a_edge20_Node000001_Node000020"><a xlink:title=" ">
<path fill="none" stroke="#63b8ff" d="M935.74,-164.98C956.2,-156.38 988.03,-142.99 1011.43,-133.15"/>
<polygon fill="#63b8ff" stroke="#63b8ff" points="1013.03,-136.27 1020.89,-129.17 1010.31,-129.82 1013.03,-136.27"/>
</a>
</g>
</g>
<!-- Node21 -->
<g id="Node000021" class="node">
<title>Node21</title>
<g id="a_Node000021"><a xlink:title=" ">
<polygon fill="#e0e0e0" stroke="#999999" points="1216,-129 1127,-129 1127,-110 1216,-110 1216,-129"/>
<text text-anchor="middle" x="1171.5" y="-117" font-family="Helvetica,sans-Serif" font-size="10.00">vtkPointData.h</text>
</a>
</g>
</g>
<!-- Node1&#45;&gt;Node21 -->
<g id="edge21_Node000001_Node000021" class="edge">
<title>Node1&#45;&gt;Node21</title>
<g id="a_edge21_Node000001_Node000021"><a xlink:title=" ">
<path fill="none" stroke="#63b8ff" d="M956.63,-164.98C1001.1,-155.78 1072.05,-141.09 1120.15,-131.13"/>
<polygon fill="#63b8ff" stroke="#63b8ff" points="1120.96,-134.54 1130.05,-129.08 1119.54,-127.68 1120.96,-134.54"/>
</a>
</g>
</g>
<!-- Node22 -->
<g id="Node000022" class="node">
<title>Node22</title>
<g id="a_Node000022"><a xlink:title=" ">
<polygon fill="#e0e0e0" stroke="#999999" points="1314.5,-129 1234.5,-129 1234.5,-110 1314.5,-110 1314.5,-129"/>
<text text-anchor="middle" x="1274.5" y="-117" font-family="Helvetica,sans-Serif" font-size="10.00">vtkTriangle.h</text>
</a>
</g>
</g>
<!-- Node1&#45;&gt;Node22 -->
<g id="edge22_Node000001_Node000022" class="edge">
<title>Node1&#45;&gt;Node22</title>
<g id="a_edge22_Node000001_Node000022"><a xlink:title=" ">
<path fill="none" stroke="#63b8ff" d="M972.71,-165.8C1032.85,-157.58 1130.47,-143.93 1224.44,-129.13"/>
<polygon fill="#63b8ff" stroke="#63b8ff" points="1225.07,-132.57 1234.4,-127.55 1223.98,-125.66 1225.07,-132.57"/>
</a>
</g>
</g>
<!-- Node23 -->
<g id="Node000023" class="node">
<title>Node23</title>
<g id="a_Node000023"><a xlink:title=" ">
<polygon fill="#e0e0e0" stroke="#999999" points="1394.5,-129 1332.5,-129 1332.5,-110 1394.5,-110 1394.5,-129"/>
<text text-anchor="middle" x="1363.5" y="-117" font-family="Helvetica,sans-Serif" font-size="10.00">vtkNew.h</text>
</a>
</g>
</g>
<!-- Node1&#45;&gt;Node23 -->
<g id="edge23_Node000001_Node000023" class="edge">
<title>Node1&#45;&gt;Node23</title>
<g id="a_edge23_Node000001_Node000023"><a xlink:title=" ">
<path fill="none" stroke="#63b8ff" d="M972.51,-169.11C1049.59,-162.76 1191.53,-149.66 1321.95,-129.1"/>
<polygon fill="#63b8ff" stroke="#63b8ff" points="1322.79,-132.51 1332.11,-127.48 1321.69,-125.6 1322.79,-132.51"/>
</a>
</g>
</g>
<!-- Node24 -->
<g id="Node000024" class="node">
<title>Node24</title>
<g id="a_Node000024"><a xlink:title=" ">
<polygon fill="#e0e0e0" stroke="#999999" points="1460,-129 1413,-129 1413,-110 1460,-110 1460,-129"/>
<text text-anchor="middle" x="1436.5" y="-117" font-family="Helvetica,sans-Serif" font-size="10.00">cmath</text>
</a>
</g>
</g>
<!-- Node1&#45;&gt;Node24 -->
<g id="edge24_Node000001_Node000024" class="edge">
<title>Node1&#45;&gt;Node24</title>
<g id="a_edge24_Node000001_Node000024"><a xlink:title=" ">
<path fill="none" stroke="#63b8ff" d="M972.62,-171.28C1062.26,-167.13 1241.51,-156.21 1402.71,-128.83"/>
<polygon fill="#63b8ff" stroke="#63b8ff" points="1403.55,-132.24 1412.81,-127.09 1402.36,-125.34 1403.55,-132.24"/>
</a>
</g>
</g>
<!-- Node3 -->
<g id="Node000003" class="node">
<title>Node3</title>
<g id="a_Node000003"><a xlink:href="ComputeWorker_8h.html" target="_top" xlink:title=" ">
<polygon fill="white" stroke="#666666" points="306,-74 203,-74 203,-55 306,-55 306,-74"/>
<text text-anchor="middle" x="254.5" y="-62" font-family="Helvetica,sans-Serif" font-size="10.00">ComputeWorker.h</text>
</a>
</g>
</g>
<!-- Node2&#45;&gt;Node3 -->
<g id="edge2_Node000002_Node000003" class="edge">
<title>Node2&#45;&gt;Node3</title>
<g id="a_edge2_Node000002_Node000003"><a xlink:title=" ">
<path fill="none" stroke="#63b8ff" d="M356.9,-109.98C337.18,-101.42 306.55,-88.11 283.92,-78.28"/>
<polygon fill="#63b8ff" stroke="#63b8ff" points="285.02,-74.94 274.46,-74.17 282.24,-81.37 285.02,-74.94"/>
</a>
</g>
</g>
<!-- Node7 -->
<g id="Node000007" class="node">
<title>Node7</title>
<g id="a_Node000007"><a xlink:title=" ">
<polygon fill="#e0e0e0" stroke="#999999" points="47,-19 0,-19 0,0 47,0 47,-19"/>
<text text-anchor="middle" x="23.5" y="-7" font-family="Helvetica,sans-Serif" font-size="10.00">vector</text>
</a>
</g>
</g>
<!-- Node2&#45;&gt;Node7 -->
<g id="edge14_Node000002_Node000007" class="edge">
<title>Node2&#45;&gt;Node7</title>
<g id="a_edge14_Node000002_Node000007"><a xlink:title=" ">
<path fill="none" stroke="#63b8ff" d="M335.65,-109.93C298.52,-101.81 242.39,-88.69 194.5,-74 144.21,-58.57 87.19,-36.43 53.35,-22.78"/>
<polygon fill="#63b8ff" stroke="#63b8ff" points="54.61,-19.52 44.03,-19.01 51.98,-26.01 54.61,-19.52"/>
</a>
</g>
</g>
<!-- Node12 -->
<g id="Node000012" class="node">
<title>Node12</title>
<g id="a_Node000012"><a xlink:title=" ">
<polygon fill="#e0e0e0" stroke="#999999" points="428.5,-74 324.5,-74 324.5,-55 428.5,-55 428.5,-74"/>
<text text-anchor="middle" x="376.5" y="-62" font-family="Helvetica,sans-Serif" font-size="10.00">vtkSmartPointer.h</text>
</a>
</g>
</g>
<!-- Node2&#45;&gt;Node12 -->
<g id="edge11_Node000002_Node000012" class="edge">
<title>Node2&#45;&gt;Node12</title>
<g id="a_edge11_Node000002_Node000012"><a xlink:title=" ">
<path fill="none" stroke="#63b8ff" d="M376.5,-109.75C376.5,-102.8 376.5,-92.85 376.5,-84.13"/>
<polygon fill="#63b8ff" stroke="#63b8ff" points="380,-84.09 376.5,-74.09 373,-84.09 380,-84.09"/>
</a>
</g>
</g>
<!-- Node13 -->
<g id="Node000013" class="node">
<title>Node13</title>
<g id="a_Node000013"><a xlink:title=" ">
<polygon fill="#e0e0e0" stroke="#999999" points="532,-74 447,-74 447,-55 532,-55 532,-74"/>
<text text-anchor="middle" x="489.5" y="-62" font-family="Helvetica,sans-Serif" font-size="10.00">vtkRenderer.h</text>
</a>
</g>
</g>
<!-- Node2&#45;&gt;Node13 -->
<g id="edge12_Node000002_Node000013" class="edge">
<title>Node2&#45;&gt;Node13</title>
<g id="a_edge12_Node000002_Node000013"><a xlink:title=" ">
<path fill="none" stroke="#63b8ff" d="M394.66,-109.98C412.75,-101.5 440.78,-88.35 461.69,-78.54"/>
<polygon fill="#63b8ff" stroke="#63b8ff" points="463.45,-81.59 471.01,-74.17 460.47,-75.25 463.45,-81.59"/>
</a>
</g>
</g>
<!-- Node14 -->
<g id="Node000014" class="node">
<title>Node14</title>
<g id="a_Node000014"><a xlink:title=" ">
<polygon fill="#e0e0e0" stroke="#999999" points="616.5,-74 550.5,-74 550.5,-55 616.5,-55 616.5,-74"/>
<text text-anchor="middle" x="583.5" y="-62" font-family="Helvetica,sans-Serif" font-size="10.00">vtkActor.h</text>
</a>
</g>
</g>
<!-- Node2&#45;&gt;Node14 -->
<g id="edge13_Node000002_Node000014" class="edge">
<title>Node2&#45;&gt;Node14</title>
<g id="a_edge13_Node000002_Node000014"><a xlink:title=" ">
<path fill="none" stroke="#63b8ff" d="M409.76,-109.98C445.22,-100.91 501.51,-86.49 540.35,-76.55"/>
<polygon fill="#63b8ff" stroke="#63b8ff" points="541.51,-79.87 550.32,-73.99 539.77,-73.08 541.51,-79.87"/>
</a>
</g>
</g>
<!-- Node4 -->
<g id="Node000004" class="node">
<title>Node4</title>
<g id="a_Node000004"><a xlink:title=" ">
<polygon fill="#e0e0e0" stroke="#999999" points="121.5,-19 65.5,-19 65.5,0 121.5,0 121.5,-19"/>
<text text-anchor="middle" x="93.5" y="-7" font-family="Helvetica,sans-Serif" font-size="10.00">QObject</text>
</a>
</g>
</g>
<!-- Node3&#45;&gt;Node4 -->
<g id="edge3_Node000003_Node000004" class="edge">
<title>Node3&#45;&gt;Node4</title>
<g id="a_edge3_Node000003_Node000004"><a xlink:title=" ">
<path fill="none" stroke="#63b8ff" d="M228.63,-54.98C201.72,-46.13 159.38,-32.19 129.27,-22.28"/>
<polygon fill="#63b8ff" stroke="#63b8ff" points="130.16,-18.88 119.57,-19.08 127.97,-25.53 130.16,-18.88"/>
</a>
</g>
</g>
<!-- Node5 -->
<g id="Node000005" class="node">
<title>Node5</title>
<g id="a_Node000005"><a xlink:title=" ">
<polygon fill="#e0e0e0" stroke="#999999" points="211,-19 140,-19 140,0 211,0 211,-19"/>
<text text-anchor="middle" x="175.5" y="-7" font-family="Helvetica,sans-Serif" font-size="10.00">QMetaType</text>
</a>
</g>
</g>
<!-- Node3&#45;&gt;Node5 -->
<g id="edge4_Node000003_Node000005" class="edge">
<title>Node3&#45;&gt;Node5</title>
<g id="a_edge4_Node000003_Node000005"><a xlink:title=" ">
<path fill="none" stroke="#63b8ff" d="M241.81,-54.98C229.67,-46.84 211.14,-34.41 196.75,-24.76"/>
<polygon fill="#63b8ff" stroke="#63b8ff" points="198.68,-21.84 188.42,-19.17 194.78,-27.65 198.68,-21.84"/>
</a>
</g>
</g>
<!-- Node6 -->
<g id="Node000006" class="node">
<title>Node6</title>
<g id="a_Node000006"><a xlink:title=" ">
<polygon fill="#e0e0e0" stroke="#999999" points="279.5,-19 229.5,-19 229.5,0 279.5,0 279.5,-19"/>
<text text-anchor="middle" x="254.5" y="-7" font-family="Helvetica,sans-Serif" font-size="10.00">atomic</text>
</a>
</g>
</g>
<!-- Node3&#45;&gt;Node6 -->
<g id="edge5_Node000003_Node000006" class="edge">
<title>Node3&#45;&gt;Node6</title>
<g id="a_edge5_Node000003_Node000006"><a xlink:title=" ">
<path fill="none" stroke="#63b8ff" d="M254.5,-54.75C254.5,-47.8 254.5,-37.85 254.5,-29.13"/>
<polygon fill="#63b8ff" stroke="#63b8ff" points="258,-29.09 254.5,-19.09 251,-29.09 258,-29.09"/>
</a>
</g>
</g>
<!-- Node3&#45;&gt;Node7 -->
<g id="edge6_Node000003_Node000007" class="edge">
<title>Node3&#45;&gt;Node7</title>
<g id="a_edge6_Node000003_Node000007"><a xlink:title=" ">
<path fill="none" stroke="#63b8ff" d="M214.97,-54.99C176.98,-46.73 117.7,-33.63 57.02,-19.07"/>
<polygon fill="#63b8ff" stroke="#63b8ff" points="57.81,-15.66 47.27,-16.72 56.17,-22.46 57.81,-15.66"/>
</a>
</g>
</g>
<!-- Node8 -->
<g id="Node000008" class="node">
<title>Node8</title>
<g id="a_Node000008"><a xlink:title=" ">
<polygon fill="#e0e0e0" stroke="#999999" points="355.5,-19 297.5,-19 297.5,0 355.5,0 355.5,-19"/>
<text text-anchor="middle" x="326.5" y="-7" font-family="Helvetica,sans-Serif" font-size="10.00">memory</text>
</a>
</g>
</g>
<!-- Node3&#45;&gt;Node8 -->
<g id="edge7_Node000003_Node000008" class="edge">
<title>Node3&#45;&gt;Node8</title>
<g id="a_edge7_Node000003_Node000008"><a xlink:title=" ">
<path fill="none" stroke="#63b8ff" d="M266.07,-54.98C276.92,-47 293.38,-34.88 306.38,-25.31"/>
<polygon fill="#63b8ff" stroke="#63b8ff" points="308.74,-27.92 314.72,-19.17 304.59,-22.28 308.74,-27.92"/>
</a>
</g>
</g>
<!-- Node9 -->
<g id="Node000009" class="node">
<title>Node9</title>
<g id="a_Node000009"><a xlink:title=" ">
<polygon fill="#e0e0e0" stroke="#999999" points="417.5,-19 373.5,-19 373.5,0 417.5,0 417.5,-19"/>
<text text-anchor="middle" x="395.5" y="-7" font-family="Helvetica,sans-Serif" font-size="10.00">string</text>
</a>
</g>
</g>
<!-- Node3&#45;&gt;Node9 -->
<g id="edge8_Node000003_Node000009" class="edge">
<title>Node3&#45;&gt;Node9</title>
<g id="a_edge8_Node000003_Node000009"><a xlink:title=" ">
<path fill="none" stroke="#63b8ff" d="M277.15,-54.98C300.62,-46.16 337.49,-32.31 363.83,-22.4"/>
<polygon fill="#63b8ff" stroke="#63b8ff" points="365.24,-25.61 373.37,-18.82 362.77,-19.06 365.24,-25.61"/>
</a>
</g>
</g>
<!-- Node10 -->
<g id="Node000010" class="node">
<title>Node10</title>
<g id="a_Node000010"><a xlink:title=" ">
<polygon fill="#e0e0e0" stroke="#999999" points="499.5,-19 435.5,-19 435.5,0 499.5,0 499.5,-19"/>
<text text-anchor="middle" x="467.5" y="-7" font-family="Helvetica,sans-Serif" font-size="10.00">JobSpec.h</text>
</a>
</g>
</g>
<!-- Node3&#45;&gt;Node10 -->
<g id="edge9_Node000003_Node000010" class="edge">
<title>Node3&#45;&gt;Node10</title>
<g id="a_edge9_Node000003_Node000010"><a xlink:title=" ">
<path fill="none" stroke="#63b8ff" d="M288.72,-54.98C326.02,-45.71 385.7,-30.85 425.73,-20.89"/>
<polygon fill="#63b8ff" stroke="#63b8ff" points="426.59,-24.29 435.45,-18.47 424.9,-17.49 426.59,-24.29"/>
</a>
</g>
</g>
<!-- Node11 -->
<g id="Node000011" class="node">
<title>Node11</title>
<g id="a_Node000011"><a xlink:title=" ">
<polygon fill="#e0e0e0" stroke="#999999" points="571,-19 518,-19 518,0 571,0 571,-19"/>
<text text-anchor="middle" x="544.5" y="-7" font-family="Helvetica,sans-Serif" font-size="10.00">Types.h</text>
</a>
</g>
</g>
<!-- Node3&#45;&gt;Node11 -->
<g id="edge10_Node000003_Node000011" class="edge">
<title>Node3&#45;&gt;Node11</title>
<g id="a_edge10_Node000003_Node000011"><a xlink:title=" ">
<path fill="none" stroke="#63b8ff" d="M306.23,-55.35C355.47,-47.38 431.86,-34.49 507.61,-19.08"/>
<polygon fill="#63b8ff" stroke="#63b8ff" points="508.71,-22.42 517.8,-16.99 507.3,-15.57 508.71,-22.42"/>
</a>
</g>
</g>
</g>
</svg>
